<?xml version="1.0" encoding="utf-8"?>
<!-- Generator: Adobe Illustrator 24.0.2, SVG Export Plug-In . SVG Version: 6.00 Build 0)  -->
<svg version="1.1" id="Capa_1" xmlns="http://www.w3.org/2000/svg" xmlns:xlink="http://www.w3.org/1999/xlink" x="0px" y="0px"
	 viewBox="0 0 72 72" style="enable-background:new 0 0 72 72;" xml:space="preserve">
<style type="text/css">
	.st0{fill:#FBF5EE;}
	.st1{fill:#FDCA04;}
	.st2{fill:#A0D8D1;}
	.st3{fill:#FDCDE3;}
	.st4{fill:#B4B6DD;}
	.st5{fill:#FDE272;}
	.st6{fill:#FD749B;}
	.st7{fill:#D59DCC;}
	.st8{fill:#B1D6EB;}
	.st9{fill:#FDA473;}
	.st10{fill:#FED3CA;}
	.st11{fill:#FDC09E;}
	.st12{fill:#F7F4EF;}
</style>
<rect class="st0" width="72" height="72"/>
<path class="st1" d="M13.6,1.3c0.4,0.3,0.2,0.9,0.1,1.3c-0.4,1.3-0.1,2.6,0.6,3.8c0.1,0.3,0.3,0.5,0.5,0.7c0.1,0.1,0.2,0.2,0.3,0.1
	C16,6.5,17,6.1,18.1,6c0.9-0.1,1.8-0.1,2.7,0.2c1,0.4,1.7,1,1.9,2.1c0.2,0.9-0.1,1.6-0.7,2.2c-1.1,1.2-2.4,1.4-3.9,1
	c-1.1-0.4-2-1.1-2.9-1.9c-0.1-0.1-0.1-0.1-0.2-0.1c-0.3-0.3-0.3-0.3-0.6,0c-0.5,0.6-1,1.2-1.6,1.8c-1.2,1.2-2.6,1.8-4.2,2
	c-1.9,0.2-3.7-0.3-5.2-1.5c-0.4-0.5-1-1-1.4-1.7C1.8,9.7,1.8,9.4,2.2,9.2S3,9,3.2,9.4c0.5,0.8,1.2,1.4,2,1.8
	c1.7,0.9,3.5,1.1,5.3,0.2c0.9-0.4,1.7-1.1,2.3-1.9c0.3-0.4,0.7-0.8,1-1.2c0.1-0.2,0.1-0.3,0-0.4c-0.6-0.7-1-1.5-1.3-2.4
	c-0.4-1.2-0.5-2.5,0-3.7c0.1-0.3,0.6-0.9,1-0.6C13.5,1.2,13.6,1.3,13.6,1.3z M19.5,10.3c0.7,0,1.3-0.3,1.7-0.9
	c0.4-0.6,0.3-1.2-0.2-1.6s-1-0.5-1.6-0.5c-1.2,0-2.2,0.3-3.2,0.9c-0.2,0.1-0.2,0.2,0,0.4c0.5,0.5,1.1,1,1.8,1.4
	C18.3,10.1,18.8,10.3,19.5,10.3z"/>
<path class="st1" d="M49.4,0.5c0.4,0.1,0.6,0.5,0.8,1c0.5,1,1,1.9,1.4,3s0.8,2.3,1,3.6c0.1,0.7-0.1,1.4-0.5,2
	c-0.7,1-1.6,1.8-2.4,2.7c-0.5,0.5-1.1,0.9-1.7,1.4c-0.3,0.3-0.7,0.2-1-0.1c-0.2-0.2-0.2-0.7,0.1-0.9c0.1-0.1,0.3-0.3,0.5-0.4
	c1.2-0.9,2.2-1.9,3.1-3c0.5-0.6,0.7-1.2,0.5-1.9c-0.3-1.3-0.7-2.6-1.3-3.8c-0.2-0.5-0.5-1-0.7-1.5c-0.2-0.6-0.7-1-0.7-1.5
	c0-0.2,0.1-0.4,0.3-0.5C49.1,0.5,49.3,0.5,49.4,0.5z"/>
<path class="st2" d="M0.5,39.7c0.4-0.8,2.4-0.8,3-0.9c1.4-0.2,2.7-0.6,3.8-1.4c0.9-0.7,1.5-1.6,1.7-2.7c0.1-1.1-0.4-2.4-1.6-2.8
	c-0.5-0.2-0.6-0.7-0.3-1c0.2-0.2,0.4-0.3,0.7-0.2c1.3,0.5,2.1,1.5,2.4,2.9c0.3,1.5-0.2,2.7-1.1,3.9C8.4,38,7.7,38.6,6.9,39
	c-0.9,0.4-1.8,0.7-2.8,0.9c-0.6,0.1-1.2,0.2-1.7,0.2c-0.5,0.1-1.1,0.4-1.6,0.3c-0.2,0-0.3-0.2-0.4-0.3C0.4,39.9,0.4,39.8,0.5,39.7z"
	/>
<path class="st3" d="M18.6,47.9c-0.3-0.2-0.5-0.5-0.8-0.8c-0.7-1-0.8-2.4-0.2-3.4c0.5-0.8,1.1-1.2,2-1.4c0.3-0.1,0.5-0.3,0.9-0.2
	c0.8,0,1.5,0.3,2.1,0.8c0.4,0.3,0.7,0.8,0.9,1.3c0.3,0.8,0.2,1.6-0.1,2.4c-0.4,1.1-1.3,2-2.5,2c-0.5,0-1-0.1-1.5-0.2
	C19.1,48.2,18.8,48.1,18.6,47.9z M20.4,47.1c0.6,0,1-0.2,1.4-0.6c0.6-0.7,0.7-1.9-0.2-2.6c-0.3-0.3-0.7-0.5-1.1-0.3
	c-0.1,0-0.2,0-0.3,0c-0.8,0-1.6,0.7-1.7,1.5C18.5,46.2,19.4,47.2,20.4,47.1z"/>
<path class="st3" d="M0.8,27c0.6-0.3,1.7,0.8,2.2,1c1,0.4,2,0.4,2.9-0.1c0.9-0.4,1.7-0.9,2.5-1.3c1.1-0.5,2.2-0.6,3.3-0.3
	c0.8,0.2,1.5,0.6,2.1,1.1c0.2,0.2,0.2,0.6,0,0.8c-0.2,0.2-0.5,0.3-0.8,0.1c-0.6-0.5-1.2-0.8-1.9-0.9c-0.8-0.1-1.5,0-2.2,0.4
	c-0.8,0.4-1.6,0.9-2.4,1.3c-0.9,0.4-1.8,0.5-2.7,0.4S1,28.8,0.7,27.8C0.5,27.5,0.5,27.2,0.8,27C0.7,27.1,0.7,27,0.8,27z"/>
<path class="st3" d="M38.6,0.4c0,0.1,0,0.1,0,0.2c0.1,0.4-0.1,0.6-0.3,0.9c-0.4,0.5-0.7,1-1.1,1.6c-0.5,0.8-1.1,1.5-1.8,2.1
	S34,6.1,33.1,6.3c-0.8,0.1-1.6,0.2-2.3,0c-1-0.2-1.9-0.6-2.6-1.4C28,4.6,28,4.4,28.2,4c0.1-0.2,0.5-0.3,0.8-0.2
	c0.1,0.1,0.3,0.2,0.4,0.3C30,4.6,30.7,4.9,31.5,5c0.9,0.1,1.7,0,2.4-0.4c0.4-0.2,0.8-0.5,1.1-0.8c0.6-0.6,1.1-1.3,1.5-2.1
	C36.9,1,37.2,0.5,38,0.2C38.2,0.1,38.4,0.1,38.6,0.4C38.6,0.3,38.6,0.4,38.6,0.4z"/>
<path class="st3" d="M52.1,48c-0.2-1-0.3-2.1-0.9-3.1c-0.6-1-1.4-1.8-2.4-2.4c-0.6-0.3-1.2-0.5-1.9-0.6c-0.5-0.1-1-0.1-1.4,0
	c-0.4,0-0.7-0.3-0.7-0.7s0.3-0.6,0.6-0.7c1-0.1,2,0,2.9,0.4c1.2,0.4,2.2,1.1,3,2s1.4,1.8,1.8,2.9c0.2,0.6,1.8,3.8,0.4,4.1
	c-0.4,0.1-0.8-0.3-0.9-0.6C52.3,48.9,52.2,48.5,52.1,48z"/>
<path class="st4" d="M11.8,47.9c0.3-1.4,1-2.9,1.4-4.2c0.2-0.7,0.1-1.2-0.4-1.5c-0.4-0.2-0.8-0.3-1.2-0.4c-0.7-0.1-1.3-0.1-2,0
	c-0.1,0-0.2,0-0.3,0c-0.4,0-0.6-0.2-0.6-0.5c0-0.4,0.2-0.6,0.5-0.7c0.6-0.1,1.2-0.2,1.9-0.1c0.8,0,1.6,0.2,2.3,0.6
	c0.7,0.5,1.2,1.3,1.1,2.3c-0.1,0.8-0.4,1.5-0.6,2.2c-0.4,1.3-0.7,3.1-2.1,3.5c-0.1-0.1-0.1-0.2-0.1-0.3
	C11.7,48.5,11.7,48.2,11.8,47.9z"/>
<path class="st5" d="M28.4,48c-0.1-0.7-0.1-1.4-0.2-2.1C28.1,45,28,44.1,28,43.2c0-0.5-0.1-1-0.1-1.5c0-0.8,0-1.7-0.1-2.5
	c0-0.4,0.2-0.6,0.7-0.6c0.4,0,0.7,0.2,0.7,0.6c0,0.9,0,1.8,0.1,2.7c0.1,1.2,0.2,2.4,0.3,3.6c0.2,1.7,0.7,3.4,0.5,5.1
	c0,0.2-0.1,0.4-0.3,0.5c-0.2,0.1-0.4-0.2-0.6-0.4C28.7,49.7,28.5,48.9,28.4,48z"/>
<path class="st6" d="M61,0.4c0.2,0.5-1.2,1.1-1.4,1.4c-0.8,0.8-1.4,1.7-1.3,2.9c0,0.2,0,0.4,0.1,0.6c0.1,0.4-0.2,0.8-0.5,0.8
	c-0.4,0.1-0.7-0.1-0.8-0.6c-0.3-1.5,0.1-2.9,1.1-4.2c0.6-0.7,1.3-1.2,2.2-1.2c0.2,0,0.4,0,0.6,0.1C60.9,0.3,61,0.3,61,0.4z"/>
<path class="st2" d="M68.5,48.8c0.4-0.5,0.7-1.1,0.8-1.7c0-1.2-0.6-2.5-1.2-3.4c-0.5-0.7-0.2-1.6,0.5-1.7c0.2,0,0.4,0,0.6,0.2
	c0.6,0.6,0.9,1.3,1.2,2.1c0.3,0.7,0.6,1.6,0.4,2.3c-0.2,0.8-0.2,1.7-0.6,2.4c-0.5,0.8-1.1,1.7-1.9,2.2c-1.1,0.7-2.2,1.1-3.4,1.6
	c-0.2,0.1-0.5,0.2-0.7,0.2s-0.5-0.1-0.6-0.4c-0.1-0.2,0-0.5,0.1-0.6c0.1-0.2,0.3-0.3,0.5-0.4c0.9-0.5,1.8-0.9,2.7-1.4
	C67.5,49.8,68.1,49.3,68.5,48.8z"/>
<path class="st3" d="M4.6,0c0.1,0.1,0.2,0.2,0.3,0.2C5.1,0.6,5,1,4.7,1.2C3.8,1.7,2.9,2.3,2,2.8C1.6,3,1.1,3.6,0.5,3.4
	C0.4,3.3,0.3,3.1,0.3,2.9C0.2,2,1.6,1.5,2.3,1.1C2.9,0.8,3.5,0.4,4.1,0C4.3,0,4.4,0,4.6,0z"/>
<path class="st3" d="M69.3,3.4c0.2-0.2,0.2-0.6,0-0.8c-0.1-0.2-0.5-0.3-0.7-0.3c-1,0-1.2,1.2-0.1,1.4C68.8,3.7,69.1,3.7,69.3,3.4z"
	/>
<path class="st3" d="M70.1,26c-0.1,0.3-0.2,0.5-0.2,0.8c-0.2,0.6-0.3,1.3-0.7,1.9c-0.1,0.2-0.3,0.3-0.5,0.2
	c-0.2-0.1-0.3-0.4-0.3-0.6c0-1.2,1.2-5.8,2.7-5.5c0.9,0.2,0,1.1-0.2,1.5C70.6,24.8,70.3,25.4,70.1,26z"/>
<path class="st7" d="M42.7,47.9c0.3-0.4,0.7-0.7,1.1-0.9c0.6-0.3,2.5-0.6,2.4,0.5c-0.1,0.8-1.7,0.4-2.2,1.1
	c-0.4,0.5-0.4,1.2-0.7,1.9c-0.2,0.5-0.4,0.9-0.8,1.3c-0.2,0.2-0.6,0.4-0.8,0.2c-0.1-0.1-0.2-0.3-0.2-0.5
	C41.3,50.4,41.9,48.9,42.7,47.9z"/>
<path class="st8" d="M23.2,37.3c-0.3,0-0.5,0-0.7,0c-0.3-0.1-0.5-0.4-0.5-0.8c0.1-0.3,0.3-0.5,0.7-0.5c1.3,0.2,2.3-0.3,3.1-1.4
	c0.8-1.2,1-2.6,0.7-4c-0.1-0.7-0.4-1.3-0.8-1.8c-0.2-0.3-0.2-0.3-0.4,0c-0.3,0.5-0.6,1-0.9,1.4c-0.7,0.8-2,1.1-2.9,0.6
	c-0.5-0.3-0.8-0.7-0.8-1.3c0-1.2,0.6-2,1.5-2.6c0.8-0.5,1.7-0.5,2.5-0.3c0.3,0.1,0.4,0,0.6-0.2c0.9-1.1,2-2.1,3.4-2.6
	c1-0.4,2.1-0.4,3.1,0.2c0.5,0.4,0.9,0.9,1.1,1.5c0.1,0.3,0,0.5-0.2,0.7c-0.2,0.1-0.4,0.2-0.6,0.1c-0.2-0.1-0.3-0.2-0.4-0.4
	c-0.2-0.8-1-1.3-1.9-1.1c-0.9,0.2-1.7,0.7-2.4,1.2c-0.4,0.3-0.8,0.8-1.1,1.2c-0.1,0.1-0.1,0.2,0,0.3c0.4,0.4,0.7,0.8,1,1.3
	s0.4,1,0.5,1.6c0.1,0.4,0.1,0.8,0.1,1.3c0,1.3-0.3,2.5-1,3.5c-0.8,1.1-1.8,1.7-3.1,1.9C23.5,37.3,23.3,37.3,23.2,37.3z M22.4,30
	c0.2,0,0.5-0.1,0.7-0.3c0.5-0.4,0.7-1,1-1.5c0.1-0.1,0-0.2-0.1-0.2c-0.2-0.1-0.4-0.1-0.6,0c-0.8,0.1-1.3,0.4-1.7,1.2
	C21.5,29.6,21.8,30,22.4,30z"/>
<path class="st2" d="M51.1,23.1c-0.4,0.2-0.7,0.5-1.1,0.7c-0.5,0.4-0.9,0.8-1.5,1c-0.9,0.4-1.8,0.4-2.7,0c-0.6-0.3-1.2-0.6-1.7-1
	c-0.3-0.2-0.3-0.5-0.2-0.8c0.2-0.3,0.6-0.4,0.8-0.2c0.3,0.2,0.5,0.4,0.8,0.5c0.3,0.2,0.6,0.3,0.9,0.5c0.8,0.3,1.5,0.1,2.2-0.4
	c0.5-0.4,0.9-0.9,1.5-1.2c0.3-0.2,0.6-0.3,0.9-0.5c0.1,0,0.2-0.1,0.2-0.3c0.3-1.4,0.6-2.8,1.3-4.1c0.5-1,1.2-1.9,2.2-2.4
	c1.2-0.6,2.5-0.7,3.7,0c0.3,0.2,0.4,0.5,0.2,0.8c-0.1,0.3-0.5,0.4-0.8,0.3s-0.5-0.3-0.8-0.3c-0.8-0.1-1.6,0.1-2.2,0.6
	c-0.8,0.6-1.3,1.5-1.6,2.5c-0.3,0.7-0.5,1.5-0.7,2.3c0,0.2,0,0.3,0.2,0.3c1.6,0,2.9,1.2,3.1,2.8c0.1,0.8-0.2,1.5-0.8,2
	c-0.5,0.4-1,0.6-1.6,0.7c-0.9,0-1.6-0.4-2-1.2c-0.3-0.5-0.4-1.1-0.5-1.8C51.1,23.7,51.1,23.4,51.1,23.1z M54.7,24.4
	c0-0.1,0-0.2,0-0.3c-0.2-0.9-1.1-1.5-2.1-1.5c-0.1,0-0.2,0.1-0.2,0.2c0,0.3,0,0.5,0,0.8c0,0.4,0,0.9,0.1,1.3s0.3,0.7,0.7,0.8
	C53.9,25.8,54.8,25.2,54.7,24.4z"/>
<path class="st6" d="M48.2,35.5c0,0.1,0,0.3,0,0.5c0,0.8-0.7,1.3-1.4,1c-1.2-0.4-2.4-0.7-3.7-1.1c-0.5-0.2-1-0.3-1.5-0.5
	c-0.7-0.3-0.9-0.8-0.4-1.4c0.6-0.8,1.3-1.5,2-2.2c0.9-1,1.8-1.9,2.7-2.9c0.3-0.3,0.5-0.5,0.9-0.3c0,0,0.1,0,0.2,0
	c0.3,0,0.5,0.2,0.6,0.5c0.2,0.7,0.2,1.4,0.3,2.1C48,32.6,48.1,34,48.2,35.5z M46.9,34.9c0-0.6-0.1-1.1-0.1-1.7c-0.1-1-0.2-2-0.3-2.9
	c0-0.1,0-0.1-0.1-0.2c-0.1,0-0.1,0.1-0.2,0.1c-0.6,0.6-1.2,1.3-1.8,1.9c-0.6,0.7-1.2,1.4-1.9,2c-0.1,0.2-0.1,0.2,0.1,0.2
	c0.5,0.1,0.9,0.3,1.4,0.4c0.9,0.3,1.8,0.5,2.6,0.8c0.2,0.1,0.2,0,0.2-0.2C46.9,35.3,46.9,35.1,46.9,34.9z"/>
<path class="st5" d="M61.7,25.2c0-1.9,0.5-3.5,1.3-5c0.6-1,1.3-2,2.1-2.8c0.2-0.2,0.5-0.5,0.7-0.7c0.3-0.3,0.6-0.2,0.9,0
	c0.2,0.2,0.3,0.5,0.2,0.8c-0.1,0.2-0.3,0.4-0.5,0.6c-0.8,0.8-1.4,1.6-2,2.5c-0.7,1.2-1.2,2.4-1.3,3.8c-0.1,1.5,0.1,3,0.7,4.4
	c0.5,1.3,1.3,2.4,2.3,3.4c0.2,0.2,0.3,0.4,0.3,0.6c0,0.3-0.1,0.5-0.4,0.6c-0.2,0.1-0.5,0.1-0.7,0c-0.5-0.4-1-1-1.4-1.5
	c-1-1.4-1.7-3-2-4.7C61.8,26.4,61.7,25.7,61.7,25.2z"/>
<path class="st7" d="M22.8,13c0-0.7,0.2-1.3,0.5-1.9c0.4-0.8,0.7-1.6,1.1-2.3c0.2-0.3,0.5-0.5,0.8-0.4s0.5,0.5,0.3,0.8
	c-0.1,0.4-0.3,0.7-0.5,1.1c-0.3,0.6-0.6,1.2-0.8,1.8c-0.5,1.1-0.1,1.9,0.7,2.6c0.8,0.7,1.8,1.1,2.8,1.5c1.4,0.6,2.8,1.2,4.3,1.8
	c1.2,0.5,2.4,0.9,3.5,1.4c0.2,0.1,0.4,0.1,0.5,0.2c0.4,0.1,0.5,0.5,0.4,0.8s-0.5,0.5-0.8,0.3c-0.7-0.3-1.4-0.5-2.1-0.8
	c-1.7-0.6-3.4-1.3-5.1-2.1c-1.3-0.6-2.5-1.1-3.7-1.8c-0.8-0.5-1.5-1.1-1.8-2C22.8,13.7,22.8,13.3,22.8,13z"/>
<path class="st9" d="M33.4,39.9c0-1.1,0.3-1.9,0.5-2.8c0.1-0.5,0.2-0.9,0.2-1.4c0-0.2-0.1-0.5-0.1-0.7c-0.1-0.3-0.4-0.5-0.7-0.6
	s-0.4-0.3-0.4-0.6s0.1-0.5,0.4-0.6c0.2-0.1,0.4-0.1,0.6,0c0.7,0.3,1.1,0.8,1.3,1.4c0.3,0.9,0.2,1.8-0.1,2.7s-0.6,1.7-0.5,2.6
	c0.1,1.2,0.6,2.2,1.8,2.7c0.4,0.2,0.9,0.2,1.3,0.1c0.4-0.1,0.8,0.2,0.8,0.6c0.1,0.4-0.1,0.7-0.6,0.7c-0.1,0-0.2,0-0.3,0
	c-1.7,0.1-2.9-0.6-3.8-2C33.5,41.5,33.4,40.6,33.4,39.9z"/>
<path class="st10" d="M42.2,11.8c0,1.2-0.6,2-1.7,2.5c-1.2,0.6-2.6,0.3-3.5-0.6c-0.6-0.6-1-1.3-1-2.1c0-0.9,0.3-1.7,1-2.3
	c0.8-0.7,1.8-0.9,2.8-0.5c0.5,0.2,1.1,0.4,1.5,0.8C42,10.3,42.3,11,42.2,11.8z M37.4,11.5c0,0.5,0.2,0.9,0.5,1.3
	c0.5,0.7,1.6,0.9,2.4,0.4c1.1-0.6,1.1-1.8,0.3-2.5c-0.3-0.2-0.6-0.4-0.9-0.5C38.8,9.7,37.3,10.3,37.4,11.5z"/>
<path class="st9" d="M12.7,22.2c0.1-1.3,0.3-2.6,0.8-3.8c0.2-0.4,0.4-0.7,0.7-0.9c0.6-0.5,1.3-0.4,2,0.3c0.7,0.7,1.3,1.5,1.8,2.3
	c0.3,0.5,0.2,1.1-0.3,1.4c-0.6,0.4-1.3,0.6-2,0.9c-0.5,0.2-1,0.4-1.6,0.6c-0.1,0-0.2,0-0.4,0.2s-0.5,0.2-0.7,0.1s-0.3-0.3-0.3-0.6
	C12.7,22.5,12.7,22.4,12.7,22.2z M14,21.5c0,0.2,0.1,0.1,0.2,0.1c0.4-0.2,0.9-0.3,1.3-0.5c0.4-0.2,0.8-0.4,1.1-0.5
	c0.2-0.1,0.2-0.2,0.1-0.3c-0.1-0.1-0.2-0.2-0.2-0.3c-0.4-0.5-0.8-0.9-1.2-1.4c-0.2-0.2-0.3-0.2-0.6,0c-0.1,0.1-0.2,0.3-0.3,0.4
	C14.2,19.9,14.1,20.7,14,21.5z"/>
<path class="st8" d="M67.3,11.7c-0.4,0-0.7-0.1-1.1-0.3c-0.8-0.4-1.5-0.7-2.2-1.2c-0.5-0.4-0.6-0.9-0.3-1.4c0.2-0.3,0.4-0.5,0.6-0.7
	C65,7.3,65.7,6.6,66.5,6c0.1-0.1,0.2-0.1,0.2-0.2c0.1-0.3,0.3-0.4,0.6-0.4c0.3,0,0.5,0.2,0.6,0.4c0.4,1,0.7,2,0.9,3.1
	c0.1,0.6,0.1,1.2-0.1,1.8S68,11.7,67.3,11.7z M67.6,9.7c-0.1-0.9-0.2-1.7-0.5-2.5c-0.1-0.2-0.1,0-0.2,0c-0.7,0.6-1.3,1.2-1.8,1.9
	c-0.2,0.2-0.2,0.3,0.1,0.4c0.6,0.3,1.2,0.6,1.8,0.9c0.1,0,0.2,0.1,0.2,0.1c0.2,0,0.3,0,0.4-0.2C67.6,10.1,67.6,9.9,67.6,9.7z"/>
<path class="st4" d="M59.4,37.7c0,1.1-0.5,1.6-1.3,2c-0.9,0.5-1.9,0.9-2.9,1.3c-0.3,0.1-0.5,0.3-0.8,0.1c-0.4-0.3-0.4-0.8,0-1.1
	c0.6-0.3,1.3-0.5,1.9-0.8c0.4-0.2,0.8-0.4,1.2-0.6c0.6-0.3,0.6-0.5,0.5-1.1c-0.4-1.8-0.8-3.5-1.5-5.2c-0.2-0.5-0.4-1-0.6-1.5
	c-0.1-0.4,0-0.7,0.4-0.8c0.3-0.1,0.6,0.1,0.7,0.4c0.8,1.8,1.4,3.7,1.9,5.6C59.2,36.5,59.4,37.2,59.4,37.7z"/>
<path class="st6" d="M2.9,17.8c0-1.6,1.2-2.7,2.7-2.7c0.4,0,0.7,0.1,1,0.3c0.5,0.3,1,0.6,1.4,1.1c0.9,1.3,0.5,3-0.8,3.8
	c-1.7,1-3.8-0.2-4.1-2C2.9,18.1,2.9,18,2.9,17.8z M5.8,19.5c0.1,0,0.2,0,0.3,0c0.6-0.2,1.1-0.7,1.1-1.3c0-1.9-3.4-1.9-3,0
	C4.3,18.9,5,19.5,5.8,19.5z"/>
<path class="st11" d="M36.3,29.5c0-1.2,0.4-2.3,1.3-3.3c0.6-0.8,1.4-1.4,2.3-1.9c0.4-0.2,0.8-0.1,1,0.2c0.2,0.4,0,0.8-0.4,1
	c-0.6,0.3-1.1,0.7-1.6,1.2c-0.6,0.6-1.1,1.4-1.2,2.2c-0.1,0.5,0,1.1,0.1,1.6c0.2,0.5,0,0.8-0.4,1c-0.3,0.1-0.6,0-0.8-0.3
	C36.4,30.7,36.3,30.1,36.3,29.5z"/>
<path class="st3" d="M61.4,44.2c0-1.2,0.4-2.2,1.2-3.1c1-1.2,2.4-1.8,3.9-2.2c0.3-0.1,0.5,0,0.7,0.2s0.2,0.4,0.1,0.7
	c-0.1,0.2-0.3,0.3-0.5,0.4c-0.6,0.2-1.2,0.4-1.8,0.7c-0.8,0.4-1.4,1-1.9,1.8c-0.2,0.4-0.4,0.9-0.4,1.5c0,0.1,0,0.3,0,0.4
	c0,0.5-0.4,0.6-0.7,0.7c-0.3,0-0.6-0.3-0.6-0.7C61.4,44.5,61.4,44.3,61.4,44.2z"/>
<path class="st1" d="M59.2,10.5c-0.4,0-0.7-0.3-0.7-0.7s0.3-0.7,0.7-0.7s0.7,0.3,0.7,0.7C59.9,10.3,59.7,10.5,59.2,10.5z"/>
<path class="st7" d="M70.8,15.1c-0.5,0-0.7-0.2-0.7-0.6c0-0.4,0.2-0.6,0.7-0.6c0.4,0,0.7,0.2,0.7,0.6C71.5,14.9,71.3,15.1,70.8,15.1
	z"/>
<path class="st9" d="M16.5,33.8c-0.4,0-0.6-0.2-0.6-0.6c0-0.4,0.3-0.6,0.6-0.6c0.3,0,0.6,0.3,0.6,0.7C17.1,33.6,16.8,33.8,16.5,33.8
	z"/>
<path class="st12" d="M22.4,30c-0.7,0-0.9-0.4-0.7-0.9c0.3-0.7,0.9-1.1,1.7-1.2c0.2,0,0.4,0,0.6,0c0.1,0,0.2,0.1,0.1,0.2
	c-0.3,0.6-0.5,1.1-1,1.5C22.9,29.9,22.7,30,22.4,30z"/>
<path class="st12" d="M54.7,24.4c0,0.8-0.9,1.4-1.5,1.2c-0.4-0.1-0.6-0.4-0.7-0.8c-0.1-0.4-0.2-0.9-0.1-1.3c0-0.3,0-0.5,0-0.8
	c0-0.1,0.1-0.2,0.2-0.2c0.9,0,1.8,0.6,2.1,1.5C54.7,24.2,54.7,24.3,54.7,24.4z"/>
<path class="st12" d="M67.6,9.7c0,0.2-0.1,0.4-0.1,0.5c-0.1,0.2-0.2,0.2-0.4,0.2c-0.1,0-0.2-0.1-0.2-0.1c-0.6-0.3-1.2-0.6-1.8-0.9
	C64.9,9.3,64.9,9.2,65,9c0.6-0.7,1.2-1.3,1.8-1.9c0.1,0,0.1-0.2,0.2,0C67.4,8,67.5,8.9,67.6,9.7z"/>
<path class="st1" d="M46,52.8c0.4,0.3,0.2,0.9,0.1,1.3c-0.4,1.3-0.1,2.6,0.6,3.8c0.1,0.3,0.3,0.5,0.5,0.7c0.1,0.1,0.2,0.2,0.3,0.1
	c0.9-0.6,1.8-1,2.9-1.2c0.9-0.1,1.8-0.1,2.7,0.2c1,0.4,1.7,1,1.9,2.1c0.2,0.9-0.1,1.6-0.7,2.2c-1.1,1.2-2.4,1.4-3.9,1
	c-1.1-0.4-2-1.1-2.9-1.9C47.4,61,47.4,61,47.3,61c-0.3-0.3-0.3-0.3-0.6,0c-0.5,0.6-1,1.2-1.6,1.8c-1.2,1.2-2.6,1.8-4.2,2
	c-1.9,0.2-3.7-0.3-5.2-1.5c-0.6-0.5-1.1-1.1-1.6-1.7c-0.2-0.4-0.2-0.7,0.1-0.9c0.4-0.2,0.8-0.2,1,0.2c0.5,0.8,1.2,1.4,2,1.8
	c1.7,0.9,3.5,1.1,5.3,0.2c0.9-0.4,1.7-1.1,2.3-1.9c0.3-0.4,0.7-0.8,1-1.2c0.1-0.2,0.1-0.3,0-0.4c-0.6-0.7-1-1.5-1.3-2.4
	c-0.4-1.2-0.5-2.5,0-3.7c0.1-0.3,0.6-0.9,1-0.6C46,52.8,46,52.8,46,52.8z M51.9,61.9c0.7,0,1.3-0.3,1.7-0.9c0.4-0.6,0.3-1.2-0.2-1.6
	c-0.5-0.4-1-0.5-1.6-0.5c-1.2,0-2.2,0.3-3.2,0.9c-0.2,0.1-0.2,0.2,0,0.4c0.5,0.5,1.1,1,1.8,1.4C50.7,61.7,51.3,61.9,51.9,61.9z"/>
<path class="st2" d="M30.6,58.2c0.4-0.8,2.4-0.8,3-0.9c1.4-0.2,2.7-0.6,3.8-1.4c0.9-0.7,1.5-1.6,1.7-2.7c0.1-1.1-0.4-2.4-1.6-2.8
	c-0.5-0.2-0.6-0.7-0.3-1c0.2-0.2,0.4-0.3,0.7-0.2c1.3,0.5,2.1,1.5,2.4,2.9c0.3,1.5-0.2,2.7-1.1,3.9c-0.6,0.7-1.3,1.3-2.1,1.7
	c-0.9,0.4-1.8,0.7-2.8,0.9c-0.6,0.1-1.2,0.2-1.7,0.2c-0.5,0.1-1.1,0.4-1.6,0.3c-0.2,0-0.3-0.2-0.4-0.3
	C30.5,58.4,30.5,58.3,30.6,58.2z"/>
<path class="st3" d="M18.5,58.4c-0.3-0.2-0.5-0.5-0.8-0.8c-0.7-1-0.8-2.4-0.2-3.4c0.5-0.8,1.1-1.2,2-1.4c0.3-0.1,0.5-0.3,0.9-0.2
	c0.8,0,1.5,0.3,2.1,0.8c0.4,0.3,0.7,0.8,0.9,1.3c0.3,0.8,0.2,1.6-0.1,2.4c-0.4,1.1-1.3,2-2.5,2c-0.5,0-1-0.1-1.5-0.2
	C19,58.7,18.8,58.6,18.5,58.4z M20.4,57.6c0.6,0,1-0.2,1.4-0.6c0.6-0.7,0.7-1.9-0.2-2.6c-0.3-0.3-0.7-0.5-1.1-0.3
	c-0.1,0-0.2,0-0.3,0c-0.8,0-1.6,0.7-1.7,1.5C18.4,56.7,19.4,57.7,20.4,57.6z"/>
<path class="st3" d="M2,66.5c0.6-0.3,1.7,0.8,2.2,1c1,0.4,2,0.4,2.9-0.1C8,67,8.8,66.5,9.6,66.1c1.1-0.5,2.2-0.6,3.3-0.3
	c0.8,0.2,1.5,0.6,2.1,1.1c0.2,0.2,0.2,0.6,0,0.8c-0.2,0.2-0.5,0.3-0.8,0.1c-0.6-0.5-1.2-0.8-1.9-0.9c-0.8-0.1-1.5,0-2.2,0.4
	c-0.8,0.4-1.6,0.9-2.4,1.3C6.8,69,5.9,69.1,5,69s-2.8-0.7-3.1-1.7C1.7,67,1.7,66.7,2,66.5C1.9,66.5,2,66.5,2,66.5z"/>
<path class="st4" d="M29.9,68.8c0.3-1.4,1-2.9,1.4-4.2c0.2-0.7,0.1-1.2-0.4-1.5c-0.4-0.2-0.8-0.3-1.2-0.4c-0.7-0.1-1.3-0.1-2,0
	c-0.1,0-0.2,0-0.3,0c-0.4,0-0.6-0.2-0.6-0.5c0-0.4,0.2-0.6,0.5-0.7c0.6-0.1,1.2-0.2,1.9-0.1c0.8,0,1.6,0.2,2.3,0.6
	c0.7,0.5,1.2,1.3,1.1,2.3c-0.1,0.8-0.4,1.5-0.6,2.2c-0.4,1.3-0.7,3.1-2.1,3.5c-0.1-0.1-0.1-0.2-0.1-0.3
	C29.8,69.5,29.8,69.2,29.9,68.8z"/>
<path class="st5" d="M9.4,54.5c-0.1-0.7-0.1-1.4-0.2-2.1C9.1,51.5,9,50.6,9,49.7c0-0.5-0.1-1-0.1-1.5c0-0.8,0-1.7-0.1-2.5
	c0-0.4,0.2-0.6,0.7-0.6c0.4,0,0.7,0.2,0.7,0.6c0,0.9,0,1.8,0.1,2.7c0.1,1.2,0.2,2.4,0.3,3.6c0.2,1.7,0.7,3.4,0.5,5.1
	c0,0.2-0.1,0.4-0.3,0.5s-0.4-0.2-0.6-0.4C9.7,56.2,9.5,55.4,9.4,54.5z"/>
<path class="st7" d="M14.3,51c0.3-0.4,0.7-0.7,1.1-0.9c0.6-0.3,2.5-0.6,2.4,0.5c-0.1,0.8-1.7,0.4-2.2,1.1c-0.4,0.5-0.4,1.2-0.7,1.9
	c-0.2,0.5-0.4,0.9-0.8,1.3c-0.2,0.2-0.6,0.4-0.8,0.2c-0.1-0.1-0.2-0.3-0.2-0.5C12.9,53.5,13.5,52,14.3,51z"/>
<path class="st8" d="M19.5,70.5c-0.3,0-0.5,0-0.7,0c-0.3-0.1-0.5-0.4-0.5-0.8c0.1-0.3,0.3-0.5,0.7-0.5c1.3,0.2,2.3-0.3,3.1-1.4
	c0.8-1.2,1-2.6,0.7-4c-0.1-0.7-0.4-1.3-0.8-1.8c-0.2-0.3-0.2-0.3-0.4,0c-0.3,0.5-0.6,1-0.9,1.4c-0.7,0.8-2,1.1-2.9,0.6
	c-0.5-0.3-0.8-0.7-0.8-1.3c0-1.2,0.6-2,1.5-2.6c0.8-0.5,1.7-0.5,2.5-0.3c0.3,0.1,0.4,0,0.6-0.2c0.9-1.1,2-2.1,3.4-2.6
	c1-0.4,2.1-0.4,3.1,0.2c0.5,0.4,0.9,0.9,1.1,1.5c0.1,0.3,0,0.5-0.2,0.7c-0.2,0.1-0.4,0.2-0.6,0.1c-0.2-0.1-0.3-0.2-0.4-0.4
	c-0.2-0.8-1-1.3-1.9-1.1s-1.7,0.7-2.4,1.2c-0.4,0.3-0.8,0.8-1.1,1.2c-0.1,0.1-0.1,0.2,0,0.3c0.4,0.4,0.7,0.8,1,1.3s0.4,1,0.5,1.6
	c0.1,0.4,0.1,0.8,0.1,1.3c0,1.3-0.3,2.5-1,3.5c-0.8,1.1-1.8,1.7-3.1,1.9C19.8,70.5,19.6,70.5,19.5,70.5z M18.8,63.2
	c0.2,0,0.5-0.1,0.7-0.3c0.5-0.4,0.7-1,1-1.5c0.1-0.1,0-0.2-0.1-0.2c-0.2-0.1-0.4-0.1-0.6,0c-0.8,0.1-1.3,0.4-1.7,1.2
	C17.8,62.9,18.1,63.2,18.8,63.2z"/>
<path class="st2" d="M58.8,64.5c-0.4,0.2-0.7,0.5-1.1,0.7c-0.5,0.4-0.9,0.8-1.5,1c-0.9,0.4-1.8,0.4-2.7,0c-0.6-0.3-1.2-0.6-1.7-1
	c-0.3-0.2-0.3-0.5-0.2-0.8c0.2-0.3,0.6-0.4,0.8-0.2c0.3,0.2,0.5,0.4,0.8,0.5c0.3,0.2,0.6,0.3,0.9,0.5c0.8,0.3,1.5,0.1,2.2-0.4
	c0.5-0.4,0.9-0.9,1.5-1.2c0.3-0.2,0.6-0.3,0.9-0.5c0.1,0,0.2-0.1,0.2-0.3c0.3-1.4,0.6-2.8,1.3-4.1c0.5-1,1.2-1.9,2.2-2.4
	c1.2-0.6,2.5-0.7,3.7,0c0.3,0.2,0.4,0.5,0.2,0.8c-0.1,0.3-0.5,0.4-0.8,0.3c-0.3-0.1-0.5-0.3-0.8-0.3c-0.8-0.1-1.6,0.1-2.2,0.6
	c-0.8,0.6-1.3,1.5-1.6,2.5c-0.3,0.7-0.5,1.5-0.7,2.3c0,0.2,0,0.3,0.2,0.3c1.6,0,2.9,1.2,3.1,2.8c0.1,0.8-0.2,1.5-0.8,2
	c-0.5,0.4-1,0.6-1.6,0.7c-0.9,0-1.6-0.4-2-1.2c-0.3-0.5-0.4-1.1-0.5-1.8C58.8,65.1,58.8,64.8,58.8,64.5z M62.4,65.8
	c0-0.1,0-0.2,0-0.3c-0.2-0.9-1.1-1.5-2.1-1.5c-0.1,0-0.2,0.1-0.2,0.2c0,0.3,0,0.5,0,0.8c0,0.4,0,0.9,0.1,1.3s0.3,0.7,0.7,0.8
	C61.5,67.2,62.4,66.6,62.4,65.8z"/>
<path class="st6" d="M8.7,61.7c0,0.1,0,0.3,0,0.5c0,0.8-0.7,1.3-1.4,1C6,62.8,4.8,62.4,3.6,62c-0.5-0.2-1-0.3-1.5-0.5
	c-0.7-0.3-0.9-0.8-0.4-1.4c0.6-0.8,1.3-1.5,2-2.2c0.9-1,1.8-1.9,2.7-2.9c0.3-0.3,0.5-0.5,0.9-0.3c0,0,0.1,0,0.2,0
	c0.3,0,0.5,0.2,0.6,0.5c0.2,0.7,0.2,1.4,0.3,2.1C8.6,58.8,8.6,60.2,8.7,61.7z M7.4,61.1c0-0.6-0.1-1.1-0.1-1.7c-0.1-1-0.2-2-0.3-2.9
	c0-0.1,0-0.1-0.1-0.2c-0.1,0-0.1,0.1-0.2,0.1c-0.6,0.6-1.2,1.3-1.8,1.9c-0.6,0.7-1.2,1.4-1.9,2c-0.1,0.2-0.1,0.2,0.1,0.2
	c0.5,0.1,0.9,0.3,1.4,0.4c0.9,0.3,1.8,0.5,2.6,0.8c0.2,0.1,0.2,0,0.2-0.2C7.4,61.5,7.4,61.3,7.4,61.1z"/>
<path class="st10" d="M69.8,61.7c0,1.2-0.6,2-1.7,2.5c-1.2,0.6-2.6,0.3-3.5-0.6c-0.6-0.6-1-1.3-1-2.1c0-0.9,0.3-1.7,1-2.3
	c0.8-0.7,1.8-0.9,2.8-0.5c0.5,0.2,1.1,0.4,1.5,0.8C69.6,60.1,69.9,60.8,69.8,61.7z M65,61.3c0,0.5,0.2,0.9,0.5,1.3
	c0.5,0.7,1.6,0.9,2.4,0.4c1.1-0.6,1.1-1.8,0.3-2.5c-0.3-0.2-0.6-0.4-0.9-0.5C66.4,59.5,64.9,60.1,65,61.3z"/>
<path class="st9" d="M34.6,69.9c0.1-1.3,0.3-2.6,0.8-3.8c0.2-0.4,0.4-0.7,0.7-0.9c0.6-0.5,1.3-0.4,2,0.3c0.7,0.7,1.3,1.5,1.8,2.3
	c0.3,0.5,0.2,1.1-0.3,1.4c-0.6,0.4-1.3,0.6-2,0.9c-0.5,0.2-1,0.4-1.6,0.6c-0.2,0.1-0.3,0.1-0.5,0.2c-0.2,0.2-0.5,0.2-0.7,0.1
	s-0.3-0.3-0.3-0.6C34.6,70.3,34.6,70.1,34.6,69.9z M35.9,69.3c0,0.2,0.1,0.1,0.2,0.1c0.4-0.2,0.9-0.3,1.3-0.5
	c0.4-0.2,0.8-0.4,1.1-0.5c0.2-0.1,0.2-0.2,0.1-0.3c-0.1-0.1-0.2-0.2-0.2-0.3c-0.4-0.5-0.8-0.9-1.2-1.4c-0.2-0.2-0.3-0.2-0.6,0
	c-0.1,0.1-0.2,0.3-0.3,0.4C36.1,67.6,36,68.4,35.9,69.3z"/>
<path class="st6" d="M45.1,65.6c0-1.6,1.2-2.7,2.7-2.7c0.4,0,0.7,0.1,1,0.3c0.5,0.3,1,0.6,1.4,1.1c0.9,1.3,0.5,3-0.8,3.8
	c-1.7,1-3.8-0.2-4.1-2C45.2,65.9,45.1,65.8,45.1,65.6z M48,67.3c0.1,0,0.2,0,0.3,0c0.6-0.2,1.1-0.7,1.1-1.3c0-1.9-3.4-1.9-3,0
	C46.5,66.7,47.2,67.3,48,67.3z"/>
<path class="st11" d="M57.6,53.6c0-1.2,0.4-2.3,1.3-3.3c0.6-0.8,1.4-1.4,2.3-1.9c0.4-0.2,0.8-0.1,1,0.2c0.2,0.4,0,0.8-0.4,1
	c-0.6,0.3-1.1,0.7-1.6,1.2c-0.6,0.6-1.1,1.4-1.2,2.2c-0.1,0.5,0,1.1,0.1,1.6c0.2,0.5,0,0.8-0.4,1c-0.3,0.1-0.6,0-0.8-0.3
	C57.7,54.8,57.6,54.2,57.6,53.6z"/>
<path class="st3" d="M2,48.9c0-1.2,0.4-2.2,1.2-3.1c1-1.2,2.4-1.8,3.9-2.2c0.3-0.1,0.5,0,0.7,0.2C8,44.1,8,44.3,7.9,44.6
	c-0.1,0.2-0.3,0.3-0.5,0.4c-0.6,0.2-1.2,0.4-1.8,0.7c-0.8,0.4-1.4,1-1.9,1.8c-0.2,0.4-0.4,0.9-0.4,1.5c0,0.1,0,0.3,0,0.4
	c0,0.5-0.4,0.6-0.7,0.7c-0.3,0-0.6-0.3-0.6-0.7C2,49.2,2,49,2,48.9z"/>
</svg>
