<?xml version="1.0" encoding="utf-8"?>
<!-- Generator: Adobe Illustrator 24.0.2, SVG Export Plug-In . SVG Version: 6.00 Build 0)  -->
<svg version="1.1" id="Capa_1" xmlns="http://www.w3.org/2000/svg" xmlns:xlink="http://www.w3.org/1999/xlink" x="0px" y="0px"
	 viewBox="0 0 288 288" style="enable-background:new 0 0 288 288;" xml:space="preserve">
<style type="text/css">
	.st0{fill:#00E7AC;}
	.st1{fill:#FF822E;}
	.st2{fill:#FEFEFE;}
</style>
<rect class="st0" width="288" height="288"/>
<g>
	<g>
		<path class="st1" d="M-534.2,292c2.1-3.7,4.2-7.4,6.3-11.2c5.6-10,11.2-20,17-29.8c3.6-6.2,7.8-12,11.5-18.2
			c8.5-14.1,13.7-29.3,15.4-45.7c0.9-9.1,3.5-17.8,6.1-26.6c2.9-9.9,5.3-20,8.6-29.7c2.1-6.1,5.4-11.8,8.1-17.7
			c10.2-22.4,23.6-42.8,38.1-62.5c1.4-1.9,2.9-2.5,5.2-2c-1.6,2.1-3.1,4.2-4.7,6.3c-15.6,20.6-29.1,42.6-39.8,66.2
			c-8.1,17.9-13.8,36.5-16.9,56c-1.6,9.8-3.5,19.6-5.8,29.2c-5.9,25.1-13.9,49.5-23.9,73.3c-6.1,14.6-10.7,29.8-13.2,45.5
			c-0.2,1.1-0.3,2.3-0.2,3.5c0.7-3.1,1.5-6.1,2.2-9.2c2.8-10.9,7.7-20.9,12.8-30.9c10.2-19.8,19.5-40,27.5-60.8
			c4.9-12.8,7.4-26.1,8.3-39.8c0.7-10.4,1.3-20.9,2.6-31.2c2.7-20.9,11.5-39.2,24.9-55.4c1.1-1.4,2.2-2.8,3.5-4.1
			c2.3-2.2,3.7-4.9,4.7-7.9c5.4-15.6,15.2-28.1,27.3-39c1.3-1.2,2.6-2.5,5-1.7c-6.9,5.4-12.9,11.6-18.1,18.5
			c-5,7-9.6,14.3-12.2,23.1c0.9-0.9,1.6-1.6,2.4-2.2c11.3-10.5,23.5-19.7,36.9-27.3c4.9-2.8,7.5-7.3,9.8-12.2c0.3,0,0.8-0.1,1.2-0.1
			s0.9,0,1.5,0c-5.4,14.6-10.4,29.3-18.6,42.5c0.1,0.1,0.3,0.2,0.4,0.4c2.8-2.7,5.7-5.2,8.3-8c9.2-9.8,15.7-21.2,20.9-33.5
			c0.5-1.2,1.1-1.7,2.4-1.3c0,0.1,0.1,0.3,0,0.4c-5.5,13.8-12.8,26.6-23.4,37.1c-3.4,3.4-7.5,6.2-10.9,9.5c-2.5,2.4-4.5,5.2-6.7,7.8
			c-4.8,5.9-9.1,12.2-14.3,17.8c-12.4,13.2-19.9,28.6-22.4,46.4c-1.6,11.4-4,22.5-7.8,33.4c-1.9,5.5-1.6,11-1,16.5
			c1,8.7,2.5,17.4,3.5,26.1c0.6,4.8,0.8,9.7,1.2,14.8c0.4-1.4,0.7-2.8,1-4.1c1.5-7.1,2.9-14.1,4.4-21.2c0.4-1.8,0.9-3.7,1.6-5.4
			c2.1-5.8,2.6-11.8,3-17.8c0.6-10.9,1-21.8,1.4-32.7c0.5-11.4,1.6-22.7,5.7-33.5c2.9-7.7,7.4-14.5,12.7-20.8
			c6.7-7.7,14.4-14.3,22-21.1C-387.9,92-378,81.3-370.2,69c1.6-2.6,2.5-5.7,3.6-8.6c1.3-3.3,2.4-6.6,3.6-9.9
			c0.8-2.2,0.8-2.2,3.5-1.8c-1.3,3.4-2.5,6.8-3.8,10.1c-3.6,9.9-7.4,19.7-12.8,28.7c-6.5,11-14,21.3-23.5,29.9
			c-11.2,10.2-18,22.8-22.2,37.1c-2.9,9.9-4.7,20-6.3,30.2c-1.4,9.5-3.5,18.9-7.3,27.8c-4.5,10.8-7.1,22.2-9.2,33.7
			c-3,16.9-8,33.1-16.8,48c-7.4,12.6-16.2,24.2-26.1,35c-5.8,6.4-11.4,12.9-15.4,20.6c-0.4,0.9-0.8,1.8-1.3,2.8
			c7.6-4.2,15-8.4,22.4-12.5c2.4-1.3,4.2-3.3,5.9-5.5c4.2-5.4,8.5-10.7,12.7-16.1c5.9-7.7,10.2-16.3,13.8-25.2
			c4.1-10.2,6-20.9,8-31.6c2.3-12.4,4.3-25,9.2-36.6c4.9-11.6,7.3-23.8,10.5-35.9c3.7-13.8,8.3-27.3,14.9-40.1
			c4.6-9,10.8-16.8,17.4-24.3c1.2-1.3,2-3,3-4.6c3.8-6.4,7.5-12.8,11.5-19.1c7-11,14.2-21.8,21.3-32.7c4-6.3,7.9-12.7,11.8-19.1
			c1.1-1.8,2.6-0.6,4.2-0.7c-5.9,9.4-11.7,18.8-17.7,28.4c10.7-8.8,21.9-16.5,30.1-27.5c0.8-1,1.6-1.5,3-1.1
			c-0.4,0.5-0.7,1.1-1.1,1.6c-6.2,8.5-14.1,15-22.4,21.3c-4.7,3.5-9,7.6-13.2,11.7c-2.1,2.1-3.7,4.7-5.5,7.1
			c0.3,0.1,0.4,0.2,0.4,0.2c8.4-8,18.2-14.2,28.1-20.2c2.2-1.3,4.2-2.9,6.4-4.2c5.2-3,7.8-8.2,10.8-13.1c0.5-0.8,1-1.6,1.5-2.4
			c1.5-2.5,1.5-2.5,4.7-1.9c-13.8,24.2-30.3,46.5-44.9,70.1c2.6-2,5.1-4.2,7.7-6.1c5.1-3.9,10.5-7.3,16.4-9.9
			c0.6-0.2,1.1-0.5,1.6-0.9c11.2-8.6,21.7-17.9,28.1-30.8c2.2-4.5,3.8-9.3,5.2-14.2c0.6-2-0.3-4.4-0.5-6.5c-0.1-0.6-0.2-1.2-0.3-1.9
			c1,0,1.8,0,2.8,0c0.1,0.6,0.3,1.3,0.5,2c3.1,12,2.2,23.9-0.1,35.8c-0.7,3.6-2.2,6.9-4.2,10.1c-1.3,2-2.2,4.3-3.4,6.5
			c-5,8.9-11.8,16.3-18.9,23.4c-9.4,9.3-19.1,18.4-27.2,28.9c-2.8,3.7-5.5,7.6-7.6,11.7c-2.8,5.5-4.1,11.6-4.6,17.7
			c-0.3,3.5-0.1,7,0.2,10.5c0.6-2.5,1.1-4.9,1.7-7.4c3.3-13.4,10-25.1,19.1-35.3c8-9.1,16.7-17.8,25.1-26.6
			c7.4-7.7,14.5-15.6,20.3-24.7c4.4-6.9,6.5-14.6,7.4-22.6c1.1-9.5,0.4-19-1.6-28.4c-0.1-0.4-0.2-0.9-0.2-1.3c0-0.1,0-0.2,0.1-0.4
			c0.9,0,1.7,0,2.6,0c1.8,7.4,4.3,25.3-0.4,40.9c2.3-3.2,4.6-6.5,7-9.9c1.2-1.7,2.4-3.5,3.7-5.1c5.1-6.6,5.5-13.8,3.2-21.5
			c-0.4-1.4-1-2.8-1.4-4.2c1.8-0.5,1.8-0.5,2.4,1.1c1.7,4.8,2.2,9.7,1.1,14.8c-0.1,0.3-0.1,0.6,0,1c3.1-5.3,5.1-10.9,6-17
			c0.8,0,1.6,0,2.6,0c-1.8,13.9-9.9,24.4-18.5,34.7c0.1,0.1,0.3,0.2,0.4,0.3c0.6-0.6,1.2-1.3,1.9-1.9c4.4-4.4,8.9-8.6,13-13.1
			c4.9-5.4,8.2-11.7,9.1-19.1c0-0.3,0.1-0.5,0.2-0.8c0.3,0,0.6-0.1,0.8-0.1c0.3,0,0.7,0,1.2,0c-0.9,11.5-7.3,19.7-15.2,27.1
			c0.9-0.7,1.8-1.4,2.6-2.1c5.8-4.8,11.6-9.6,17.4-14.3c1.9-1.5,3.2-3.3,4-5.6c0.3-0.8,0.7-1.6,1-2.5c1.1-2.8,1.1-2.8,4.7-2.4
			c-2.5,5.3-4.9,10.6-7.3,15.8c0.1,0.1,0.2,0.2,0.3,0.2c4.3-5,8.6-9.9,12.9-14.9c1.2-1.4,1.1-1.4,3.3-1.2c-1.5,1.8-2.8,3.6-4.3,5.2
			c-4.5,4.9-9.2,9.7-13.7,14.6c-1.7,1.8-3.1,3.9-4.6,5.9c-4.4,5.8-8.8,11.6-13.2,17.4c-0.7,0.9-1.5,1.8-2.2,2.7
			c-3.7,4.9-5.6,10.2-5.5,16.5c0.1,28.2-9.9,52.9-26.5,75.3c-4.9,6.6-9.9,13.1-14.6,19.9c-4.8,6.9-7.7,14.6-10.1,22.8
			c0.2-0.2,0.4-0.2,0.4-0.3c6-12,14.4-22.2,22.9-32.5c8.6-10.5,17.3-21.1,25.4-31.9c7.7-10.3,13-21.9,16.3-34.4
			c2.1-7.9,4.4-15.8,7-23.6c2-5.9,5.3-11.1,9.3-15.9c10-11.8,17.5-25,23.4-39.2c1.1-2.7,1.1-2.7,4.5-2.3c-1.1,2.6-2.1,5.1-3.2,7.5
			c-5.9,12.9-13.8,24.6-23,35.4c-2.9,3.4-5.3,7.1-6.8,11.3c0.3-0.4,0.5-0.7,0.8-1.1c7-10.8,16.2-19.5,26-27.7
			c5.9-4.9,11.7-10.1,17.7-15c2.7-2.2,3.7-5.2,5.1-8.1c1.2-2.6,1.2-2.6,4.4-2.3c-1.5,3.2-2.9,6.4-4.4,9.6c-3.2,6.5-7,12.6-11.6,18.3
			c-0.3,0.4-0.7,0.9-0.9,1.4c-1.9,6.2-5.6,11.2-9.5,16.1c-4.7,6-9.6,12-13.3,18.7c-4.1,7.6-6.5,15.9-7.7,24.3
			c-1.6,10.6-3,21.2-3.9,31.9c-1.5,16.2-6.3,31.3-13.5,45.8c-3.7,7.5-7.7,14.9-11.6,22.4c-4.4,8.7-6.8,17.9-7,27.8
			c0.2-0.2,0.3-0.3,0.4-0.5c2.7-9.4,7.9-17.5,13.2-25.5c6.4-9.5,13-18.9,17.8-29.3c6.9-14.9,10.8-30.4,10.9-46.9
			c0-8.3,0.2-16.7,2.2-24.8c2.7-11,7.8-20.9,14.5-30c4.4-6.1,9.3-11.8,13.9-17.7c4.1-5.6,8.5-11.2,12.9-16.9
			c0.2-0.2,0.3-0.4,0.7-0.8c0.2,2.2-0.1,4-1,5.9c-1.3,2.7-2,5.8-2.4,8.8c-1.5,9.6-3.4,19.1-3,28.8c0.3,6.6,1.4,13.2,2.3,19.8
			c1,6.7,1.9,13.3,1.7,20.1c0.7-1.9,1.5-3.8,2.4-6.1c0.1,0.8,0.1,1.2,0.2,1.6c0.8,6.5-1.5,12.6-2.9,18.8c-1.8,8.3-3.4,16.6-5.1,25
			c-0.5,2.3-0.7,4.7-0.6,7.1c2.8-5,5.6-10,8.4-15.1c0.1,0,0.2,0,0.3,0c-0.2,1.2-0.2,2.6-0.7,3.6c-1.4,2.8-2.8,5.6-4.5,8.1
			c-2.8,4.2-3.6,8.6-3.2,13.6c1,12,1,24.1-1.1,36.1c-0.8,4.5-2,8.9-3.1,13.3c-0.1,0.4-0.2,0.7-0.3,1.1c4.2-4.2,8.4-8.4,12.7-12.8
			c-0.2,3.3,0.5,6.4-1.4,9.5c-4.8,7.8-9,15.8-13.8,23.6c-6.5,10.6-10.3,22.2-13.2,34.2c-3.1,12.6-6.7,25-10.1,37.5
			c-2.1,8-4.1,16-6.3,24c-1,3.7-2.4,7.4-3.6,11.1c-1.1,0-2.2,0-3.3,0c0-0.7-0.1-1.3-0.1-2c0.3-5.2-1.2-9.7-4.4-13.9
			c-2.3-3-4.2-6.4-6.1-9.7c-6.5-11.6-9.1-24-7.5-37.2c0.3-2.8,0.8-5.7,1.3-8.5c-0.1,0.1-0.2,0.2-0.3,0.2
			c-5.6,11.5-7.1,23.4-3.1,35.7c2,6.2,4.5,12.2,6.7,18.3c1.9,5.5,3.2,11.2,2.5,17.2c-0.7,0-1.3,0-2,0c-0.2-2.9,0.1-6-0.7-8.8
			c-1.8-6.5-4-12.9-6.2-19.3c-2.8-8-5.1-16-4.4-24.5c0.2-1.9,0.4-3.8,0.6-5.8c-0.8,2.1-1.3,4.3-1.6,6.5c-1.3,10.1-0.1,19.9,2.8,29.6
			c2.1,7.2,4.5,14.5,3.6,22.2c-0.9,0-1.8,0-2.7,0c0.1-1.3,0.4-2.6,0.2-3.8c-0.7-5.1-1.3-10.3-2.5-15.3c-2-8.6-4.4-17-3.7-25.9
			c0.3-3.5,0.7-7,1.2-10.9c-1,1.9-1.9,3.6-2.7,5.3c-7,13.4-8.6,27.2-3.2,41.5c1.1,3,2,6.1,3.1,9.1c-0.7,0-1.3,0-2,0
			c-1-2.7-1.9-5.3-2.9-8c-4.7-12.8-4.4-25.5,0.7-38.2c3.3-8.1,7.7-15.5,12.5-22.7c0.4-0.7,0.9-1.3,1.3-2c-0.4,0-0.5,0.1-0.6,0.2
			c-8.8,10.7-15.4,22.6-19.8,35.8c-3.8,11.4-5.2,22.9-3,34.8c-1,0-2,0-3,0c0-0.2,0-0.5-0.1-0.7c-2.4-9.9-3.2-20-3.3-30.1
			c0-3.4-0.6-6.9-0.4-10.3c0.3-5,1-9.9,1.7-14.9c2.1-16.7,6.6-32.7,14.2-47.8c5.1-10,11.8-18.6,20.9-25.1
			c12.3-8.8,23.5-18.8,33.6-30.1c7.3-8.2,13.5-17,17.1-27.5c2.9-8.4,4.5-17.1,6-25.8c0.5-2.9,1.1-5.7,1.7-8.6
			c-3.4,3.9-5.9,8.3-7.7,13c-2.2,5.9-4,11.9-6.1,17.8c-3.4,9.6-7.3,19-13.3,27.3c-8.9,12.4-19.9,22.8-32.6,31.2
			c-10.6,7-19.4,15.4-25.3,26.8c-10.6,20.1-16.1,41.4-16.1,64.1c0,9.8,0.1,19.6,1.7,29.3c0.6,3.8,1.3,7.5,2,11.3c-1,0-2,0-3,0
			c-0.4-2.6-0.9-5.1-1.3-7.7c-0.5-3.2-1-6.5-1.5-9.8c-3.3,5.9-6.6,11.7-9.9,17.5c-1.2,0-2.4,0-3.7,0c4.2-7.7,8.5-15.5,12.7-23.2
			c0.4-0.8,0.6-1.8,0.6-2.7c-0.2-4.3-0.5-8.6-0.7-13c-0.2-5.1-0.1-10.2-0.3-15.3c-0.8-18.4,0.2-36.8,3-55
			c1.9-12.1,4.2-24.1,8.9-35.5c0-0.1,0-0.2-0.1-0.4c-7,9.8-11.2,20.7-12.8,32.4c-1.3,9.6-2.3,19.2-3.3,28.8c-0.5,5-1.1,10-0.2,15.1
			c1,6.1,1.9,12.2,2.4,18.3c1,14.1-2.8,27-9.5,39.3c-2.1,3.8-4.5,7.4-6.8,11.1c-0.8,0-1.6,0-2.3,0c1.4-2.1,2.8-4.1,4.1-6.2
			c5.4-8.8,9.6-18.1,11.6-28.4c2-10.5,0.5-20.8-1.2-31.5c-0.3,0.8-0.4,1.2-0.5,1.6c-2.3,7.7-4.3,15.4-6.9,23
			c-4.8,14-12,27-19.4,39.8c-0.3,0.6-0.5,1.2-0.8,1.8c-1.2,0-2.4,0-3.7,0c0.2-0.5,0.4-1.1,0.7-1.6c6.8-11.5,13.1-23.2,18.1-35.6
			c4.1-10.1,7.5-20.5,9.1-31.3c1.9-13.1,3.2-26.4,4.8-39.5c1.6-13.6,5.5-26.3,13.2-37.7c6-8.8,11.9-17.7,17.8-26.6
			c1.8-2.7,3.6-5.5,5.4-8.3c-0.5,0.1-0.7,0.4-0.9,0.6c-3,4-6,8-9.1,11.9c-11.3,14.2-20.8,29.3-27.5,46.2
			c-6.7,16.9-12.4,34.1-13.9,52.4c-1.2,15.2-6.9,28.6-18.2,39.3c-2,1.9-4,3.7-5.6,5.9c-5.5,7.4-9.3,15.6-12.5,24.2c-1,0-2,0-3,0
			c2.6-5.7,5.2-11.4,7.8-17.1c0.2-0.4,0.4-0.8,0.5-1.2c2.4-9.3,3.6-18.7,3.7-28.3c0.1-11-1.1-22-3.1-32.8c-0.7-3.9-1.5-7.9-2.2-11
			c0,2.6,0,6,0,9.4c0.1,7.8,0.7,15.6,0.3,23.3c-0.8,14.5-3.8,28.6-8,42.5c-1.6,5.1-3.4,10.2-5.1,15.3c-0.7,0-1.3,0-2,0
			c0.1-0.3,0.1-0.6,0.2-1c2.8-8.7,5.6-17.3,8.3-26c1.1-3.6,1.8-7.4,2.6-11.1c-0.6,0.4-0.8,0.9-1.1,1.4c-1.6,3.3-3.2,6.6-6,9.1
			c-3.1,2.8-5.5,6.1-7.3,9.8c-2.9,5.8-5.7,11.8-8.5,17.7c-0.9,0-1.8,0-2.7,0c0-0.3,0-0.6,0.1-0.8c2.2-4.9,4.4-9.7,6.5-14.6
			c0.2-0.5,0.5-1,1-1.9c-7.6,5-14.8,9.6-21.9,14.3c-1.3,0.9-2.5,2-3.7,3c-1,0-2,0-3,0c1.3-1.1,2.7-2.1,3.9-3.3c1-0.9,2.2-1.7,3-2.8
			c10.5-13.4,17.7-28.4,21-45c1.7-8.7,2.7-17.6,4.1-26.3c0.5-3.4,1.3-6.8,2-10.3c-0.3,0.4-0.5,0.9-0.6,1.4c-2,6.6-3.8,13.2-6,19.7
			c-3.7,11-7.3,22.1-13,32.2c-4.8,8.5-9.9,16.7-17.1,23.4c-2.4,2.2-4.4,5-6.5,7.6c-0.9,1-1.5,2.2-2.3,3.4c-1.3,0-2.7,0-4,0
			c4.8-5.4,9.5-10.7,14.3-16.1c0.3-0.4,0.7-0.7,0.9-1.2c4.2-8.8,8.5-17.5,11.2-26.9c2.4-8.4,4.4-16.9,6.9-25.2
			c4.7-15.9,10.8-31.4,17.3-46.7c1.7-4.1,3.4-8.3,4-12.7c1.2-8.5,1.7-17,2.2-25.6c0.5-6.9,0.6-13.9,0.9-20.8c0.2-3.7,0-7.3-1.5-10.8
			c-1.4-3.1-2.4-6.3-3.9-9.4c-4.8-9.7-7-19.9-6.2-30.7c0.1-1.5,0.2-3,0.4-4.5c-0.3,0.3-0.5,0.6-0.5,0.9c-1.8,7.2-3.2,14.6-3.1,22.1
			c0,8.9,0.2,17.8,0.5,26.7c0.4,12.1,2.2,24.1,0.8,36.3c-1.1,9.4-1.7,18.8-2.9,28.2c-2.2,15.6-6.2,30.8-11.1,45.8
			c-3.7,11.2-7.2,22.4-12.6,32.9c-4.3,8.3-9,16.2-15.3,23.1c-4.3,4.8-8.5,9.7-12.7,14.5c-1.1,0-2.2,0-3.3,0c0.7-1,1.3-2.1,2.1-2.9
			c1.3-1.4,1.9-3,1.9-4.8c-0.1-4.4-0.1-8.8-0.5-13.1c-1-11.1-0.9-22.1,2.3-32.9c0.1-0.3,0.1-0.6,0.2-0.9
			c-7.4,18-12.5,36.9-20.6,54.6c-0.7,0-1.3,0-2,0c5.7-12.7,10.4-25.7,14.6-39c2.7-8.5,5.6-17,10.1-24.8c0.2-0.4,0.4-0.8,0.6-1.2
			c-0.6,0.3-1.1,0.7-1.4,1.2c-4.4,5.9-8.9,11.8-13.3,17.7c-10.6,14.1-16.9,30.4-24.6,46c-1.1,0-2.2,0-3.3,0
			c2.2-4.7,4.5-9.4,6.7-14.2c4.5-10.1,9-20.2,15.4-29.3c4-5.7,8-11.4,11.8-17.1c6.8-10.2,12.8-20.9,17.7-32.2
			c2.9-6.7,4.2-13.9,6-20.9c2.7-10.8,5.2-21.6,5.6-32.8c0.2-6.5,0-13-0.1-19.5c0-12.2-0.2-24.4,0-36.7c0.1-7.6,0.6-15.2,1-22.8
			c0-0.8,0.2-1.7,0.3-2.5c-0.4,0.5-0.6,1-0.7,1.5c-3.8,14.8-5.3,30-6.6,45.1c-1.9,18.4-3.1,36.4-4.7,54.3c-1.3,14.7-4.4,29.1-9.6,43
			c-4.2,11.3-10,21.5-18.7,30.1c-4.8,4.7-9.5,9.5-14.1,14.4c-8,8.3-14.7,17.5-19.2,28.2c-1.7,3.9-3,8-4.5,12c-0.8,0-1.6,0-2.3,0
			c1.1-3.2,2.1-6.4,3.4-9.5c1.9-4.5,4.2-8.9,6.3-13.4c-5.7,7.3-10.7,15-15.4,22.9c-0.7,0-1.3,0-2,0c6.7-11.6,14.7-22.3,23.8-32.2
			c-9.6,7.5-18.7,15.4-26.4,24.9c-1.9,2.4-3.6,4.9-5.4,7.4c-0.9,0-1.8,0-2.7,0c0.2-0.5,0.4-1,0.7-1.4c5.3-7.7,11.4-14.7,18.4-20.8
			c6.3-5.5,12.9-10.8,19.3-16.1c1.2-1,2.4-2,3.7-3.1c-2.2,0.8-4.1,2-6.1,3.1c-8.8,5-17.6,9.9-26.3,15.2
			c-9.1,5.5-17.1,12.4-23.2,21.3c-0.4,0.6-0.6,1.3-0.9,1.9c-1.1,0-2.2,0-3.3,0c0.9-2.4,1.9-4.8,2.8-7.3c2.5-7.1,5.7-13.9,7-21.5
			c2.7-16.1,7.8-31.4,16.2-45.5c0.2-0.3,0.2-0.6,0.3-0.9c-1,1-1.9,2.1-2.8,3.2c-5.6,6.5-11.3,13-16.8,19.6c-3.6,4.3-7,8.9-9,14.1
			c-3.1,7.9-5.8,15.8-8.7,23.7c-0.6,1.6-1.3,3.2-2,4.9c0-3,0-6,0-9c1.1-3,2.4-5.9,3.3-9c1.3-4.5,2.2-9.1,3.5-13.7
			c1.2-4.3,3-8.3,3-12.9c0-3,0.3-6,0.6-9c1.7-14.8,5.6-29.1,11.1-42.9c7.2-18.1,13.8-36.3,19.4-54.9c0.2-0.5,0.3-1,0.4-1.5
			c-1.7,3.2-3.2,6.4-5,9.5c-6.3,10.7-12.8,21.3-19.1,32.1c-4.5,7.6-8.9,15.3-13.2,23c-1.6,2.8-2.7,5.9-4,8.9
			C-534.2,298-534.2,295-534.2,292z M-394.2,67.2c-0.1-0.1-0.2-0.3-0.4-0.4c-1.4,1.1-2.8,2.3-4.2,3.4c-7.4,5.8-14.4,12.1-20.7,19.1
			c-13.3,14.8-23,31.7-30.5,50c-6.4,15.5-10.5,31.7-14.5,47.9c-2.7,11.1-5.1,22.3-8.6,33.2c-6.9,21.8-17.1,42.3-27.2,62.8
			c-3.8,7.7-7.9,15.3-11.5,23.1c-4,8.8-5.9,18.3-8.1,27.6c-0.8,3.4-1.7,6.8-2.6,10.3c2-2.8,3.8-5.5,5.9-8
			c6.1-7.5,12.4-14.7,18.3-22.3c15.9-20.4,26.4-43.2,30.9-68.7c2.4-13.9,5-27.9,9.6-41.3c1.3-3.8,2-7.7,3.1-11.6
			c0.8-3.1,1.9-6.1,2.7-9.2c2.6-10.9,3.4-22,6.5-32.8c3.6-12.4,8-24.5,14.5-35.7c8.2-14.2,16.8-28,29.3-39
			C-399.1,73-396.7,70-394.2,67.2z M-205.2,60.5c-8.1,6.9-15.9,13.4-23.6,20.1c-7.2,6.2-13.5,13.1-18.4,21.2
			c-3,4.9-5.7,9.9-7.9,15.2c-1.8,4.3-2.5,9.1-3.7,13.6c-3,11.8-7.8,22.8-14.6,32.9c-7.1,10.5-15.4,20-23.6,29.5
			c-8.1,9.4-16.3,18.7-22.7,29.4c-6.9,11.6-11.7,23.9-13.4,37.4c-1.7,13.3-1.2,26.5-0.4,39.8c0.7,11,1.2,22.1,0.5,33.2
			c-0.1,1.8-0.2,3.6-0.3,5.4c0.3-0.5,0.5-1,0.6-1.5c2.4-10.4,3.3-20.9,4-31.5c0.7-9.7,1.3-19.5,2.7-29.2
			c3.1-21.2,11.6-40.1,25.7-56.4c7-8.1,13.8-16.5,20.3-25c12.2-15.9,19.4-34,24.2-53c3.1-12.1,7.8-23.2,15-33.1
			c6.8-9.4,14-18.5,21.3-27.5C-214.2,74.6-209.2,68.2-205.2,60.5z M-404.4,151.5c-0.2-0.1-0.3-0.1-0.5-0.2c-2.1,5-4.4,10-6.2,15.1
			c-9.1,25.1-13.9,51.3-18,77.6c-1.8,11.6-2.9,23.3-4.5,34.9c-1.5,11.3-5.1,21.8-11.4,31.4c-11.2,17-26.8,29-44.5,38.5
			c-4.2,2.2-8.4,4.5-12.4,7.1c-3.1,2-5.5,4.8-6.4,8.6c-0.3,1.3-0.9,2.6-1.4,3.9c-1.9,5.1-3.7,10.2-5.6,15.4c0.2-0.1,0.3-0.1,0.4-0.2
			c6.1-7.9,13.8-14,22.2-19c8.9-5.3,18-10.3,27-15.6c8.6-5,16.5-10.9,23-18.5c9.3-10.8,14.9-23.5,18.6-37.1c4.2-15.3,5.8-31,7-46.7
			c1.3-17.8,2.5-35.6,4.1-53.3c1-11.3,2.8-22.5,5.9-33.4C-406.2,157.1-405.3,154.3-404.4,151.5z M-343.8,358.4
			c-0.1,0.1,0.1-0.1,0.3-0.3c3.1-3,4.3-7,5.5-10.9c3.1-10.8,3.6-21.9,3.2-33c-0.3-10.3-0.9-20.7-1.2-31c-0.3-12.2,0.4-24.2,3.5-36.1
			c1.1-4.2,2.7-8.2,3.6-12.5c2.5-11.7,6.5-22.7,13.6-32.5c4.4-6.1,8.9-12.1,13.4-18.1c13.7-18.7,22-39.6,24.9-62.6
			c0.5-3.7,0.1-7.4,0.1-11.2c-1.5,4.5-2.8,9.1-3.9,13.7c-2.8,12.1-7,23.8-13.3,34.6c-5,8.5-11.3,15.9-17.5,23.6
			c-7.9,9.8-15.9,19.5-23.5,29.5c-3.4,4.4-6.4,9.1-8.8,14.1c-3.4,7.3-4.9,15.3-4,23.4c0.8,7.7,2.1,15.4,3.3,23.1
			c1.8,12.1,3.9,24.1,5.5,36.2c1.7,12.3,1.4,24.5-1,36.7C-341,349.7-342.6,354.1-343.8,358.4z M-217.4,83.4
			c-0.1-0.1-0.2-0.2-0.4-0.3c-2.6,2.7-5.3,5.3-7.7,8.2c-7.4,9.1-14.8,18.4-20.1,28.9c-4.5,8.8-7.7,18-8.2,27.9
			c-0.3,5.2-0.2,10.4-0.2,15.7c0,10.4-2.2,20.3-6.2,29.8c-4.6,11-11,20.9-17.5,30.8c-3.6,5.5-7.7,10.7-10.3,16.9
			c-6.1,14.5-9.1,29.8-11.3,45.3c-1.7,12-2.5,24.1-2.5,36.2c0,3.9,0,7.9,0,11.8c0.1,0,0.3,0,0.4,0c0.5-3,0.9-5.9,1.4-8.9
			c2.8-16.2,7.9-31.5,16.4-45.7c1.9-3.2,2.5-6.5,2.5-10c0-7.9,0.1-15.6,2.6-23.2c2.9-8.8,7.2-16.9,11.6-24.9
			c10.2-18.2,16.2-37.6,17.7-58.5c0.7-9.5,2-18.9,3.6-28.3c1.6-9.9,4.6-19.5,10.5-27.8c3.9-5.5,8.1-10.7,12.1-16.1
			C-220.9,88.8-219.2,86.1-217.4,83.4z M-256.7,150.4c-0.1,0-0.1-0.1-0.2-0.1c-0.1,0.4-0.3,0.7-0.4,1.1c-2.1,5.8-3.8,11.7-6.3,17.3
			c-8.2,18.2-19.5,34.2-32.8,49c-5.9,6.6-11.4,13.5-15.7,21.3c-8.9,16.4-12.8,34.2-14.3,52.7c-0.5,6.4-0.6,12.8-1.3,19.1
			c-0.7,6.7-1.8,13.3-2.9,19.9c-0.9,5.5-2.1,11-4.5,16.1c0,0.1,0,0.3,0.1,0.6c0.2-0.3,0.4-0.6,0.5-0.8c3.9-6.7,6.5-14,7.7-21.7
			c1-7,1.7-14,2.9-21c1.9-10.9,5.7-21.2,9.7-31.5c5.9-15.1,12.8-29.7,23.1-42.5c7.7-9.5,15.6-18.8,23.4-28.2
			c0.4-0.5,0.8-0.9,1.1-1.4c5.2-10,8.9-20.5,9.2-31.9C-257,162.5-256.9,156.4-256.7,150.4z M-365.1,357.4c2.2-3.4,3.7-7,4.7-10.9
			c3.2-12.1,3.3-24.4,2.8-36.8c-0.4-10.7-1-21.3-1.1-32c-0.1-11.3,1.2-22.4,4.1-33.3c3.6-13.1,10-24.7,18-35.5
			c8.1-10.8,16.7-21.1,25.1-31.6c7.2-9,14.1-18.4,19.2-28.8c0.5-1.1,1-2.2,1.6-3.3c-1.2,1.4-2.5,2.5-3.8,3.6
			c-9.9,9.2-19.9,18.4-29.8,27.7c-9,8.4-17.4,17.4-23.7,28.1c-8.2,13.9-14,28.6-15.3,44.8c-0.7,8.1-2.1,16.2-1.8,24.2
			c0.5,15.9,2,31.7,3.1,47.6c0.6,8.2,0.9,16.5-0.5,24.6C-363,349.8-364.1,353.5-365.1,357.4z M-202.2,220.1
			c-0.9,4.8-1.6,9.1-2.5,13.4c-3.3,15.1-10.5,28.4-20,40.3c-8.1,10.1-16.7,19.8-25.4,29.4c-3.6,4-6.3,8.3-7.8,13.4
			c-4.3,14.8-4,29.3,3,43.3c2.8,5.6,6.1,11,9.1,16.6c0.1-0.1,0.3-0.1,0.4-0.2c-0.1-1-0.3-2.1-0.4-3.1c-0.7-5.7-1.5-11.5-2-17.2
			c-0.5-5.9,0.6-11.7,1.4-17.6c2.1-15.7,8.4-29.6,17.3-42.5c5.4-7.9,11.4-15.5,17-23.2c1-1.3,1.9-2.7,2.6-4.2
			C-202.4,253-201.2,236.9-202.2,220.1z M-290.6,360.8c0.1-0.4,0.2-0.7,0.3-1.1c2.2-14.4,6.7-28.2,13-41.3
			c8.7-18.3,20.5-34.6,34.4-49.3c12.3-12.9,22.7-27.2,30.6-43.2c1.9-3.8,3.5-7.7,5.3-11.6c-0.4,0-0.6,0.1-0.6,0.2
			c-3.5,6.3-8,11.9-12.7,17.3c-8.8,10.4-18.6,19.7-30,27.3c-4.3,2.9-8.4,6-12.2,9.5c-6.5,5.9-10.9,13.4-14.7,21.2
			C-288.1,312.3-292.6,336-290.6,360.8z M-364.1,181.8c0.9-4.9,1.9-9.7,4-14.1c0.9-1.8,1.2-3.6,1.5-5.5c0.4-2.8,1-5.6,1.9-8.2
			c2.8-7.6,7.6-13.9,13.3-19.6c7.1-7,14.4-13.7,21.7-20.5c12.7-11.9,21.1-26.1,24.2-43.3c0.6-3.1,0.7-6.1,0.1-9.2
			c-0.7,1.6-1.2,3.3-1.8,5c-5.2,14.5-16,24.8-27.5,34.3c-7.7,6.4-15.9,12.4-23.6,18.8c-10,8.4-15.4,19.2-16.5,32.2
			c-0.7,7.6,0,15.1,1.3,22.6C-365.1,176.8-364.6,179.3-364.1,181.8z M-201.8,87.7c-0.2-0.1-0.3-0.3-0.5-0.4
			c-0.7,0.8-1.5,1.6-2.2,2.5c-5.6,7.5-11.5,14.8-16.7,22.5c-8.9,13.4-13.7,28.1-13.1,44.3c0.2,5,0.1,10-0.3,15
			c-1.4,15.4-5.1,30.2-12.7,43.7c-4.5,8-9.8,15.6-14.8,23.3c-4.4,6.7-9.1,13.2-12,20.7c-1.5,4-2.7,8.1-4.1,12.2
			c0.2,0.1,0.3,0.2,0.5,0.2c4.9-5.8,11-10.1,16.9-14.7c6-4.7,11.7-9.9,17.5-14.9c0.6-0.6,1.2-1.3,1.5-2.1c1.9-5,4-10,5.4-15.2
			c3.4-12.5,3.9-25.3,4.3-38.2c0.5-14.9,1-29.8,3.7-44.5c3.1-17.2,9.3-33.1,20.5-46.8C-205.7,92.9-203.7,90.3-201.8,87.7z
			 M-255.3,71.1c-0.1,0-0.2-0.1-0.3-0.1c-2.7,2.5-5.3,5-8,7.6c-4.1,4-8.2,8-12.3,11.9c-2.4,2.3-4.1,5-5.2,8.2
			c-1.7,4.9-3.5,9.8-5.2,14.8c-3.3,9.7-7.3,19.2-14.5,26.7c-5.2,5.4-11,10.4-16.7,15.3c-6.2,5.3-12.6,10.4-17.9,16.7
			c-8.6,10.5-14.7,22.4-18.9,35.2c-3.1,9.5-5.4,19.2-8.1,28.8c-0.2,0.6-0.2,1.2-0.3,1.9c0.3-0.1,0.4-0.3,0.4-0.4
			c0.1-0.3,0.2-0.6,0.3-1c3.7-14.9,10-28.6,18.9-41c5.7-8,12.4-15.1,19.6-21.8c8.2-7.8,16.8-15.3,25.1-23
			c6.1-5.7,11.2-11.8,13.2-20.3c2.2-9.5,4.4-18.9,8.5-27.9c0.1-0.2,0.1-0.4,0.2-0.6c0.7-4.2,2.3-8.1,4.9-11.4
			c4.2-5.2,8.8-10.2,13.1-15.3C-257.4,74-256.4,72.5-255.3,71.1z M-206.6,218.9c-0.1,0.1-0.3,0.1-0.3,0.2c-0.2,0.3-0.3,0.7-0.5,1
			c-6.8,14.6-15.1,28.3-25.8,40.5c-8.1,9.2-16.3,18.4-23.8,28.1c-13.2,17-22.9,36-28.7,56.7c-0.4,1.5-0.8,3-1.2,4.5
			c0.3-0.1,0.5-0.3,0.5-0.5c5.1-14,13.2-26.1,22.9-37.3c8.1-9.3,16.4-18.3,24.5-27.5c9-10.2,17.4-21,23.5-33.3
			C-210.5,241.2-207.4,230.4-206.6,218.9z M-330.1,70.1c-0.1-0.1-0.2-0.3-0.4-0.4c-1.8,1.1-3.6,2.3-5.4,3.4
			c-7.4,4.5-14.8,9-21.4,14.7c-12.8,11.1-22.7,24.2-27.9,40.5c-6,18.8-6.4,37.9-3.3,57.2c1.6,10,3.7,20,5.6,30
			c0.7,3.9,1.3,7.9,2,11.8c0.2-5.2,0.3-10.5,0.2-15.7c-0.3-13.4-0.2-26.9-2.6-40.2c-1.7-9.6-1.1-19.3,1.3-28.8
			c3.3-13,9.8-24.6,17.3-35.6c8.3-12.3,18.4-22.9,29.9-32.4C-333.2,73.2-331.7,71.6-330.1,70.1z M-424.3,317
			c2.8-3.3,5.6-6.6,8.4-9.9c9.5-11.5,18.5-23.4,24.9-36.9c2.5-5.1,3.4-10.7,2.7-16.4c-0.7-6-3-11.5-5.6-16.9
			c-2.6-5.6-5.4-11.1-8-16.7c-0.6-1.2-0.9-2.6-1.4-3.9c-0.2,0-0.4,0-0.6,0.1c0,3.6,0,7.2,0,10.8c0,6.7,0.3,13.5-0.1,20.2
			c-0.9,14.7-4.7,28.8-8.5,42.9C-414.9,299.8-419.6,308.3-424.3,317z M-351.3,368.1c1.4-2,2.8-3.6,3.6-5.3
			c2.9-6.4,5.1-13.1,6.2-20.2c1.6-10.3,1.8-20.7,0.6-31.1c-0.7-6.1-1.9-12.1-2.8-18.1c-1.2-8-2.3-15.9-3.6-23.9
			c-1.3-8.2-2.9-16.3-2.7-24.7c0.1-2.6,0.3-5.2,0.6-8.1c-0.4,0.8-0.6,1.3-0.8,1.9c-4.3,10.8-6.1,22.1-6.4,33.7
			c-0.1,3.6-0.3,7.3,0.2,10.8c2.3,14.2,5,28.3,7.2,42.5c1.5,9.9,1.2,19.9,0,29.8C-349.7,359.5-350.5,363.6-351.3,368.1z
			 M-415.1,366.3c0.3-0.4,0.6-0.8,0.8-1.2c7.5-10.7,12.2-22.6,16.5-34.8c8.5-24.1,14.5-48.7,17.4-74.1c0.2-2.1,0.4-4.1,0.6-6.2
			c-0.1,0-0.3-0.1-0.4-0.1c-0.1,0.4-0.3,0.9-0.4,1.3c-1.6,4.6-2.8,9.4-4.8,13.8c-4.2,9.6-8.8,18.9-13,28.4
			c-6.4,14.3-10.8,29.2-12,45C-411.3,347.9-412.1,357.2-415.1,366.3z M-438.7,212.5c0.1,0,0.1,0,0.2,0.1c0.1-0.2,0.3-0.5,0.4-0.7
			c2-6.6,4.2-13.1,5.8-19.8c2.4-9.9,4.4-19.9,6.4-30c2.4-12.5,7.1-24.1,14.5-34.4c3.4-4.8,7.9-8.9,12.1-13.1
			c4.9-4.9,9.7-9.8,13.5-15.6c3.9-6,7.2-12.3,10.7-18.4c0.2-0.4,0.4-0.8,0.5-1.2c-1.4,1.6-2.5,3.5-3.9,5
			c-5.6,5.7-11.2,11.6-16.9,17.2c-6.8,6.6-14,12.7-20.7,19.4c-7.4,7.3-12.8,16-16,26c-3.3,10.4-4.2,21.1-4.7,31.9
			c-0.4,8.6-0.8,17.1-1.3,25.6C-438.2,207.2-438.5,209.8-438.7,212.5z M-429.9,382.9c1.9-2,3.9-4.6,6.2-6.6c3.2-2.8,5-6.4,6.4-10.3
			c1.9-5.4,3-10.9,3.6-16.6c0.9-8.2,1.6-16.5,2.9-24.7c1.6-10.7,5.6-20.8,9.9-30.7c0.2-0.5,0.4-1,0.6-1.5c-1.9,2.1-3.4,4.3-5.1,6.5
			c-3.7,5-7.8,9.7-11.2,14.9c-6.1,9.2-10.7,19.1-12.6,30.1c-1.5,8.4-1,16.9-0.7,25.5C-429.8,374-429.9,378.6-429.9,382.9z
			 M-382.3,244.6c0.2,0,0.3,0,0.5,0c0.1-2.5,0.6-5,0.3-7.4c-0.8-6.2-1.9-12.3-3.1-18.4c-2.7-13.9-6.1-27.7-7.6-41.8
			c-1.3-12.7-0.9-25.4,1.7-38c0.7-3.5,1.7-6.9,2.6-10.8c-0.5,0.6-0.7,0.8-1,1.1c-0.3,0.5-0.6,0.9-0.8,1.4
			c-4.9,10.1-8.9,20.6-11.6,31.5c-2,8.2-3.3,16.6-2.7,25.1c0.8,9.9,3.6,19.3,8.5,28c0.9,1.6,1.8,3.1,2.7,4.6
			C-388.3,227.8-383.8,235.5-382.3,244.6z M-284.5,101.2c-2,3-4,6-5.9,9c-4.9,7.7-9.7,15.4-15.8,22.3c-7.5,8.4-16.1,15.7-24.5,23
			c-7.4,6.4-14.8,12.8-20.5,20.9c-3.7,5.1-7.1,10.4-7.9,16.9c-0.8,6.8-1.8,13.5-2.4,20.3c-0.3,3.8-0.1,7.6-0.1,11.4
			c0-0.3,0.1-0.6,0.2-1c2.7-8,5.2-16.2,8.2-24.1c4.3-11.4,9.7-22.3,18.3-31.1c5.4-5.6,11.5-10.5,17.4-15.5
			c6.2-5.3,12.6-10.4,17.6-17C-291.9,126-287.8,113.8-284.5,101.2z M-233.6,231.1c0.1,0.1,0.2,0.1,0.3,0.2c2.2-2.9,4.6-5.6,6.7-8.6
			c5.7-8.3,9.2-17.6,12.4-27c1.1-3.4,2.5-6.7,2.9-10.2c0.8-6.2,1.3-12.4,1.3-18.6c0.1-10.3-0.2-20.7-0.3-31
			c-0.1-8.1,0.2-16.2,1.7-24.2c1.2-6.4,4-12.2,6.5-18.1c0.2-0.5,0.4-1,0.6-1.5c-0.2-0.1-0.3-0.1-0.5-0.2c-1.5,2.7-3,5.4-4.4,8.2
			c-7.3,15.4-10.8,31.7-12.2,48.5c-1.1,12.8-1.7,25.7-2.7,38.6c-0.9,12.8-3.8,25.1-9.1,36.9C-231.3,226.3-232.5,228.7-233.6,231.1z
			 M-200.9,264.7c-0.1-0.1-0.2-0.1-0.3-0.2c-0.8,0.9-1.6,1.8-2.3,2.7c-13.6,17.6-24.6,36.9-33.9,57c-4.6,9.8-7.1,20.2-6.4,31.2
			c0.3,5.7,0.8,11.3,1.1,17c0.2,3.6,0.4,7.3,0.5,10.9c1.4-3.8,2.7-7.7,3.6-11.7c1.3-5.2,2.1-10.4,3.5-15.6
			c3.3-12.3,7.4-24.5,10.1-36.9c3.1-14.7,8.5-28.3,16.4-41C-205.8,273.7-203.4,269.1-200.9,264.7z M-395.2,382.3
			c0.7-0.5,1.4-0.9,2.1-1.4c5.9-4,12-7.8,17.7-12.1c4.3-3.2,7.3-7.6,8.8-13c2.4-8.8,3.4-17.8,2.9-26.9c-0.5-10.2-1.4-20.3-2.2-30.4
			c-0.3-4.5-0.7-9-1-13.5c-0.2,0.6-0.3,1.3-0.3,1.9c-0.4,3.6-0.8,7.3-1.3,10.9c-1.8,11-3.8,21.9-5.4,32.9
			c-1.7,11.6-4.6,22.7-10.1,33.1C-387.4,370.2-390.7,376.6-395.2,382.3z M-355.2,178.3c0.1,0,0.2,0.1,0.3,0.1c1.9-2.5,3.7-5,5.6-7.4
			c6.7-8.1,14.5-15.1,22.6-21.7c13.3-10.9,24.7-23.3,33.3-38.3c5.9-10.2,13.2-19.4,21.7-27.5c6.6-6.3,13-12.8,19.5-19.2
			c0.8-0.8,1.4-1.7,2-2.6c-3.8,2.7-7.3,5.8-11.1,8.5c-12.2,8.8-22.8,19.2-31.8,31.1c-4,5.3-7.5,10.9-12,15.8
			c-7.7,8.5-15.9,16.7-23.9,24.9c-8.5,8.6-16.3,17.6-22.2,28.2C-352.6,172.8-353.8,175.6-355.2,178.3z M-238.9,236.5
			c4.4-7.2,8-14.8,10.7-22.8c4.3-12.8,5.5-26.2,6.3-39.5c0.8-12.6,1.4-25.3,3.4-37.8c1.9-12.4,5.4-24.4,10.5-35.8
			c0.4-0.8,0.8-1.6,1.2-2.4c-0.4,0.1-0.6,0.4-0.8,0.7c-5.3,6.9-9.5,14.4-12.5,22.5c-5.8,15.2-7.9,31.1-8.9,47.1
			c-0.7,10.9-1,21.8-1.7,32.6C-231.7,213.1-233.7,225.2-238.9,236.5z M-381.3,177c0.1,0,0.3,0,0.4,0c0.8-4.4,1.5-8.8,2.4-13.1
			c4.2-18.8,12.9-35.6,22.4-52.1c5.6-9.6,12.1-18.6,18.2-27.9c1.7-2.7,3.4-5.4,5.3-8.3c-0.5,0.2-0.6,0.2-0.7,0.3
			c-17.7,14.3-31.7,31.7-41.5,52.4c-4.4,9.3-7.6,18.9-7.6,29.3C-382.4,164-381.7,170.5-381.3,177z M-405.7,70.6
			c-0.1-0.1-0.1-0.1-0.2-0.2c-0.2,0.1-0.4,0.1-0.5,0.2c-12.2,8.4-23.4,17.7-33.2,28.9c-11.9,13.6-20.7,29-25.3,46.7
			c-2.5,9.4-3.3,19-3.8,28.7c-0.3,4.9-0.6,9.8-0.9,15.2c0.3-0.7,0.4-0.9,0.5-1.2c1.4-5.5,2.7-11,4.1-16.5c4.8-18.5,11-36.4,20-53.4
			c9.2-17.5,21.2-33.1,36.4-46C-407.7,72.2-406.7,71.4-405.7,70.6z M-508.3,355.4c0.2-0.4,0.4-0.6,0.5-0.8c3.2-7.3,7.4-14,12.5-20.2
			c5.5-6.7,11.1-13.5,16.7-20.2c2.8-3.2,4.3-7,5.2-11c2.2-10.1,3.2-20.4,3.3-30.8c0-0.7,0-1.4,0-2.4c-1.8,4.5-3.2,8.7-5.1,12.7
			c-2.3,4.8-4.9,9.5-7.4,14.2c-3,5.8-5.7,11.7-9.1,17.2C-499.6,326.8-505.2,340.5-508.3,355.4z M-208.9,180.4
			c0.2-0.4,0.4-0.8,0.6-1.2c2.2-4.9,5.1-9.3,8.5-13.5c0.8-1,1.4-2.4,1.7-3.7c1.5-7.8,0.6-15.5-0.8-23.2c-2.4-12.9-3.4-25.8-1.1-38.8
			c0.2-1.1,0.3-2.3,0.5-3.5c0.1-1.1,0.3-2.2,0.4-3.3c-0.2-0.1-0.4-0.1-0.6-0.2c-1.8,4.8-3.9,9.4-5.3,14.3c-3,10.4-2.9,21.1-2.8,31.8
			C-207.8,152.9-207.1,166.6-208.9,180.4z M-471.1,303.6c0.1-0.1,0.3-0.4,0.5-0.7c5.5-8.4,10.2-17.2,14.1-26.4
			c0.7-1.8,1-3.4,0.5-5.3c-0.5-1.8-0.6-3.7-0.8-5.6c-0.9-7.9-1.3-16-3.3-23.7c-0.7-2.6-1.2-5.2-1.7-7.8c-1.7,8-3.1,16-5.1,23.9
			c-1,4.1-1.4,8.2-1.5,12.3c0,4.2,0,8.4-0.4,12.5C-469.3,289.7-470.3,296.7-471.1,303.6z M-428.7,220.8c-0.3,0.8-0.7,1.6-1,2.3
			c-4.2,11.7-6.9,23.8-9.1,36c-1.6,9.1-3,18.3-5.7,27.2c-3.3,10.8-7.7,21.1-14.4,30.2c-3.6,5-7.7,9.6-11.6,14.4
			c-0.4,0.5-0.7,1-1.1,1.5c0.6-0.1,1.1-0.3,1.4-0.6c3.4-3,6.9-5.8,10.2-8.9c13.3-12.3,20.6-27.8,23.2-45.6
			c1.1-7.9,1.8-15.8,2.9-23.6C-432.3,242.9-430.5,231.9-428.7,220.8z M-440.1,138.6c0.1,0,0.2,0.1,0.3,0.1c0.7-1.3,1.3-2.8,2.3-4
			c3.8-5.1,7.8-10.2,11.9-15.1c5.6-6.9,11.9-13.3,16.9-20.6c5.1-7.3,8.9-15.5,13.2-23.3c1-1.8,1.7-3.8,2.7-6.1
			c-8.9,9.1-18.5,16.9-25.3,27.4c-7.9,12.3-15.7,24.5-21,38.2C-439.5,136.3-439.8,137.5-440.1,138.6z M-368.8,273.3
			c-1.5,3.6-3,7.3-4.4,10.9c-6,15.1-11.8,30.3-15.7,46.2c-2.6,10.4-5.4,20.7-10,30.5c-1.1,2.4-2.3,4.8-3.5,7.3
			c4.9-6.6,9.3-13.5,12.4-21c5.1-12.1,9.3-24.5,13-37.1C-373.4,298-370.6,285.8-368.8,273.3z M-364.4,202.5c0-3.8,0-8.1,0-12.5
			c0-1.4-0.1-2.8-0.3-4.1c-0.9-4.6-1.9-9.2-2.8-13.9c-1.7-9.1-2.2-18.3,0-27.5c2.9-12,9.6-21.5,19-29.2c3-2.5,6.1-5,9.2-7.5
			c-0.2-0.1-0.3-0.1-0.4-0.1c-0.8,0.4-1.5,0.9-2.3,1.4c-16.2,9.4-26.1,23.3-29.8,41.5c-2.8,13.7-2.6,27.2,2.8,40.3
			C-367.4,195-365.8,199-364.4,202.5z M-297.9,83.2c-1.7,3.6-3.2,6.8-4.8,9.9c-5.8,10.8-14,19.6-23,27.8c-6.9,6.2-13.5,12.7-20,19.4
			c-4.9,5.1-8.7,11-10.7,17.8c-0.3,1.1-0.6,2.3-0.9,3.7c2.4-3.2,4.5-6.2,6.7-9.1c7.1-9,15.3-17,23.4-25.1
			c7.3-7.3,14.3-14.8,20.3-23.1C-302.3,98.3-299.6,91.2-297.9,83.2z M-386.7,260.2c0.7-2.1,1.3-4.3,2.2-6.4
			c1.5-3.7,1.2-7.5,0.3-11.3c-1.6-6.4-4.7-12.2-8-17.9c-3.9-6.7-7.5-13.5-9.9-20.9c-0.5-1.4-0.9-2.8-1.3-4.2
			c-0.3,7.5,0.7,14.8,3.9,21.6c2.9,6.3,6.1,12.6,9,19C-387.8,246.5-385.8,253-386.7,260.2z M-457.2,211.2c-0.3,1.2-0.8,2.7-1,4.1
			c-0.7,4.1-1.8,8.3-2,12.4c-0.1,3.5,0.6,7.1,1.4,10.5c2.4,10.6,4.2,21.3,4.1,32.3c0,0.1,0.1,0.2,0.3,0.4c0.8-2.2,1.6-4.2,1.4-6.6
			c-0.3-3.7,0.3-7.5,0-11.1c-0.5-7-1.3-14-2-21C-455.8,225.2-456.5,218.1-457.2,211.2z M-229.6,299.9c-0.2-0.1-0.4-0.2-0.5-0.3
			c-3.1,5.9-6.2,11.9-9.3,17.8c0.1,0.1,0.3,0.1,0.4,0.2C-235.9,311.7-232.7,305.8-229.6,299.9z M-397.1,142.8
			c-0.1-0.1-0.3-0.1-0.4-0.2c-1.6,4.5-3.2,8.9-4.7,13.4c0.1,0,0.2,0.1,0.4,0.1C-400.3,151.7-398.7,147.3-397.1,142.8z M-264.1,84.4
			c-0.2-0.1-0.3-0.3-0.5-0.4c-1.8,2.3-3.7,4.5-5.5,6.8c0.1,0.1,0.3,0.2,0.4,0.3C-267.8,88.9-266,86.6-264.1,84.4z"/>
		<path class="st1" d="M-534.2,149.2c4.3-7.9,6.8-16.4,8.4-25.3c2.6-14.2,5.4-28.4,8.3-42.5c1.8-8.7,4.7-17,8.9-24.9
			c1.3-2.5,2.7-5,4.3-7.3c0.4-0.6,1.7-0.7,2.6-1.1c0.1,0.2,0.2,0.3,0.3,0.5c-0.9,1.5-1.8,2.9-2.6,4.4c-5.1,8.5-8.6,17.6-10.8,27.2
			c-2.6,11.3-4.8,22.8-7.2,34.2c0.2,0.1,0.4,0.1,0.6,0.2c1.4-3.4,2.9-6.8,4.2-10.3c3.8-10.1,7.2-20.4,11.5-30.2
			c3.6-8.3,8-16.2,12.1-24.3c0.7-1.5,0.8-1.4,2.6-1.2c-2,3.7-4,7.3-5.9,11c-6.6,12.7-11.4,26.2-16.3,39.7c-2,5.6-4.4,11-6.6,16.5
			c-1.6,4.2-3.1,8.5-4.7,12.7c0.2,0.1,0.3,0.1,0.5,0.2c1-1.6,2-3.3,3.1-4.8c3.6-4.8,7.3-9.6,11-14.4c1.2-1.6,2.4-3.3,3.6-5
			c3.9-6.1,7.9-12.2,11.7-18.4c0.5-0.9,1-1.9,1.1-2.9c1.5-11.6,4-23,7.9-34c0.1-0.3,0.2-0.5,0.4-0.8c0.4,0,0.9,0,1.3,0
			c0.3,0,0.5,0.1,0.9,0.1c-3.3,10.2-6.3,20.3-7.4,30.9c0.2,0.1,0.4,0.1,0.6,0.2c2.2-3,4.5-5.9,6.5-9c4.5-7,9-14,13.3-21.2
			c1-1.7,2.3-0.8,3.9-1.1c-12.2,19.6-17.8,40.6-17.9,63.2c0,4.3,0.6,8.6,2.2,12.8c0.3-2.3,0.6-4.6,0.9-7
			c1.7-12.9,5.9-24.9,12.2-36.3c5.7-10.3,10.7-20.8,16-31.3c0.7-1.3,0.6-1.3,2.4-1.2c-0.1,0.4-0.2,0.8-0.4,1.2
			c-5.8,11.2-11.2,22.5-17.2,33.5c-5.7,10.3-9.4,21.2-11.5,32.7c-0.4,1.9-0.7,3.8-1,5.7c0,0,0,0.1,0.2,0.4c1.5-2.9,3.1-5.7,4.4-8.5
			c10.2-22.4,23.7-43,38.4-62.9c1.8-2.4,1.8-2.4,5.2-2.1c-0.4,0.6-0.7,1.1-1.1,1.5c-15.6,20.3-29.2,41.7-40.4,64.6
			c-7,14.4-12.2,29.3-16.4,44.7c-4.2,15.2-8.5,30.3-14.3,44.9c-5.2,12.9-12.1,24.7-19.6,36.3c-3.2,4.9-6.1,9.9-9.2,14.9
			c-0.3,0.4-0.7,0.8-1,1.2c0-2.3,0-4.7,0-7c1.2-2,2.9-3.8,3.5-6c1.1-3.8,1.6-7.7,2.1-11.6c1.3-10.3,1.2-20.6,1.4-30.9
			c0.1-7,0.6-14,1-20.9c0.1-2.3,0.6-4.5,0.9-6.7c-0.5,0.4-0.8,0.9-1.1,1.3c-2.6,3.8-5.3,7.6-7.9,11.5c0-1,0-2,0-3c2-3,4.4-5.8,6-9
			c4.4-8.4,8.6-16.9,12.6-25.5c5.2-11.2,10-22.6,13.7-34.5c2.3-7.2,4.4-14.3,6.6-21.4c0.1-0.3,0.2-0.6,0.2-0.7
			c-7.3,10.6-14.8,21.2-22,32.1c-6.5,9.6-11.7,19.8-15.5,30.7c-0.5,1.3-1,2.5-1.5,3.8C-534.2,155.6-534.2,152.4-534.2,149.2z
			 M-512.3,213.6c0.3-0.2,0.4-0.3,0.5-0.4c0.4-0.8,0.8-1.6,1.2-2.4c7.8-16.9,13.8-34.5,18.8-52.4c2.8-10,5.8-19.9,8.7-29.9
			c0.1-0.5,0.2-1.1,0-1.6c-2-5.9-2.8-11.9-2.6-18.1c0.5-14.8,3.4-29.1,9.2-42.8c0.2-0.4,0.3-0.7,0.4-1.1c-2.4,3-4.9,6-6.6,9.4
			c-5.7,11.2-9.2,23.2-11,35.7c-1.8,13-3.3,26-5,39c-2.4,18.7-6.2,37.2-11,55.5C-510.5,207.6-511.4,210.5-512.3,213.6z
			 M-515.8,214.8c0.3-0.6,0.5-0.9,0.6-1.2c1.7-6.4,3.6-12.7,5.1-19.1c5.8-24.6,9.4-49.6,12.3-74.7c1.3-11,3.6-21.9,7.3-32.4
			c0.5-1.5,1.1-3,1.7-4.5c-0.4,0.1-0.6,0.3-0.7,0.5c-1.9,4.4-4.3,8.6-5.6,13.2c-5,18-11,35.5-18.8,52.5c-0.3,0.6-0.5,1.4-0.6,2.1
			c-0.5,6.3-1.1,12.6-1.4,18.9C-516.4,184.9-514.2,199.7-515.8,214.8z M-517.6,157.8c-3.5,6.2-5.5,12.7-6.3,19.6
			c-1.5,12.3-0.9,24.6-1.2,37c-0.2,5.8-0.7,11.6-1.3,17.4c-0.3,2.8-1.1,5.5-1.7,8.2c2.5-3.4,5.1-6.7,6.7-10.5
			c3.7-8.9,4.2-18.4,4-27.8c-0.2-9.8-0.7-19.6-0.9-29.3C-518.3,167.5-517.8,162.7-517.6,157.8z"/>
		<path class="st1" d="M-233.5,390.1c0.4-0.7,0.8-1.3,1.2-1.9c6.9-9.5,10.7-20.3,13.5-31.5c2.5-10.2,4.7-20.6,7.4-30.8
			c3.4-13,10.1-24.2,18.2-34.7c0.1-0.2,0.3-0.3,0.6-0.7c0.1,0.6,0.1,1,0.1,1.3c0.5,6.4-0.8,12.5-2.6,18.6
			c-3.8,13.5-7.2,27.1-10.8,40.7c-2,7.8-4.1,15.6-6.2,23.3c-1.5,5.2-3.2,10.4-4.8,15.6c-1.2,0-2.4,0-3.7,0c2-6.3,4.2-12.5,5.9-18.9
			c1.4-5,2.1-10.1,3.4-15.1c3.3-12.2,6.9-24.4,10.1-36.6c1.8-6.9,2.9-14,5.7-20.7c0.2-0.4,0.3-0.9,0.5-1.3c-6,8.3-11,17.2-13.6,27.1
			c-2.7,10-4.9,20.2-7.4,30.3c-2.4,10.1-5.6,19.9-11.2,28.8c-1.4,2.1-2.8,4.2-4.2,6.4C-232,390.1-232.8,390.1-233.5,390.1z"/>
	</g>
</g>
<rect x="-568.2" y="28" class="st1" width="421.3" height="410.8"/>
<path class="st2" d="M0,112.7c1.8-0.7,2.3-2.5,3.4-3.8c5.3-6.4,11.7-11.3,19.3-14.7c2-0.9,2.4-0.6,2,1.6c-0.9,4.5-0.7,9.1-0.9,13.7
	c-0.3,6.5-0.2,13.1-1.6,19.6c-1.3,5.9-4,10.9-7.9,15.5c-3.7,4.4-8,8.1-12.3,11.9c-0.6,0.5-1.2,1-2,0.8C0,142.5,0,127.6,0,112.7z"/>
<path class="st2" d="M0,264.1c1.8-0.8,2.2-2.7,3.1-4.1c3.6-5.8,8.6-10.1,14.3-13.6c6.3-3.9,13.1-6.8,19.7-10.2
	c2-1.1,2.6-0.7,2.5,1.6c-0.5,7.1-1.1,14.3-3.5,21.1c-2.3,6.3-7,10.4-12.5,13.9c-7.2,4.6-15.5,6.5-23.5,8.8C0,275.7,0,269.9,0,264.1z
	"/>
<path class="st2" d="M85.1,288c-0.2-8.2,0.2-16.3,2.2-24.3c2.1-8.5,7.5-14.9,13.7-20.7c6.1-5.8,13.9-7.3,21.8-8.6
	c1.1-0.2,1.5,0,1.2,1.2c-3.3,10.7-5.2,22.1-12.8,31.1c-3.7,4.3-8.2,7.8-12.7,11.1c-4.4,3.3-8.8,6.6-12.9,10.2
	C85.4,288,85.3,288,85.1,288z"/>
<path class="st2" d="M40.9,0c0.9,3.9,2.1,7.8,1.9,11.9c-0.4,8.1-3.4,15-8.5,21.3c-4,5-9.5,8-14.4,11.9c-1.3,1-2.6,2.1-3.9,3.2
	c-0.9,0.7-1.5,0.8-1.7-0.6c-0.3-3-0.8-5.9-0.9-8.9c0-3.1-0.6-6.1-0.5-9.1c0.1-10.8,4.1-19.9,11.3-27.7c0.5-0.6,1.2-1,1.2-1.9
	C30.5,0,35.7,0,40.9,0z"/>
<path class="st2" d="M231,0c-0.6,6.3-1.1,12.7-4,18.4c-4.6,9-11.2,16.3-20.4,20.6c-4.5,2.1-9.6,2.4-14.5,3.1
	c-1.5,0.2-1.1-0.9-0.9-1.7c0.9-2.8,1.9-5.5,2.7-8.3c1.9-6.7,4.4-13.2,8.6-18.8c2.8-3.9,6.2-7.3,10.2-10c1.3-0.9,3-1.6,3.5-3.3
	C221.1,0,226,0,231,0z"/>
<path class="st2" d="M196,288c-3.2-11.2-1.6-21.8,5.4-31.1c6.1-8.1,14.5-13.2,24.5-15.5c1.2-0.3,1.7,0.1,1.3,1.2
	c-2.8,6.5-3.4,13.6-5,20.4c-2.3,9.5-7.3,17-15.8,22.1c-1.2,0.8-2.8,1.2-3.4,2.8C200.6,288,198.3,288,196,288z"/>
<path class="st2" d="M288,78.7c-2.1,2-4.2,4-6.3,5.9c-4.9,4.5-11.1,6.3-17.2,8.2c-4.7,1.5-4.7,1.3-4.1-3.6
	c1.1-9.4,4.4-18.1,8.6-26.4c2.3-4.5,5.7-8.4,9.6-11.8c2.8-2.4,5-5.4,8-7.5c0.4-0.3,0.8-0.7,1.4-0.7C288,54.7,288,66.7,288,78.7z"/>
<path class="st2" d="M288,28.5c-4,2.6-7.9,5.2-12.7,6.2c-7.8,1.6-15.4,1.5-23-1.1c-1.6-0.6-1.7-1.1-0.5-2.3
	c5.7-5.8,10.8-12,16.1-18.2c5.2-6,11.9-9.4,20.1-9.5C288,12,288,20.2,288,28.5z"/>
<path class="st2" d="M288,252.1c-3.7,2.9-7.4,5.9-11.4,8.3c-5.5,3.2-11.6,4-17.8,5.4c0.1-2.3,1.6-3.6,2.7-5
	c3.9-5.3,5.8-11.3,7.4-17.6c2.6-9.8,8.6-17.1,17.6-21.8c0.5-0.2,1-0.4,1.5-0.5C288,231.3,288,241.7,288,252.1z"/>
<path class="st2" d="M184,0c-2.2,6.5-6.3,11.4-12.2,14.9c-6.3,3.7-12.9,6.6-20.4,6.7c-3.9,0.1-7.6-1.4-11.5-1.9
	c-1.3-0.2-0.9-1.1-0.5-1.9c2.8-5.5,6-10.6,10.3-15.1c0.8-0.8,1.9-1.4,2-2.7C162.6,0,173.3,0,184,0z"/>
<path class="st2" d="M49.7,288c2-7.1,6-13,10.9-18.4c4.7-5.3,9.6-10.4,13.7-16.7c5.6,11.6,6.3,23.2,3,35.1
	C68.1,288,58.9,288,49.7,288z"/>
<path class="st2" d="M133.9,0c2.4,7.6,1.1,14.6-3,21.4c-3.1,5.2-6.9,9.7-11.9,13c-0.7,0.5-1.4,1.5-2.3,1.2c-1.1-0.4-0.6-1.6-0.7-2.4
	c-1-7.3-2.4-14.6-3.8-21.8c-0.7-3.8-0.4-7.6,0.1-11.4C119.5,0,126.7,0,133.9,0z"/>
<path class="st2" d="M267.3,0c-3.4,10.6-10.5,18.1-20.1,23.3c-3.7,2.1-7.6,3.9-11.6,5.5c-1.3,0.5-1.6,0.2-1.4-0.9
	c0.9-5.9,0.8-12,2.2-17.9c0.8-3.5,2.4-6.7,3.8-10C249.2,0,258.2,0,267.3,0z"/>
<path class="st2" d="M77.3,0c-4.6,12.4-12.9,21.1-25.8,25.1c-1.1,0.3-1.8,0.2-1.8-1.1c-0.3-3.7-0.7-7.4-0.9-11.2
	C48.5,8.5,48.9,4.2,49.7,0C58.9,0,68.1,0,77.3,0z"/>
<path class="st2" d="M153.2,288c1.8-2.8,4.6-4.4,7.4-5.9c7.8-4.3,16-7.7,24.6-9.8c2.4-0.6,2.8-0.1,2.4,2.3c-0.8,4.5-2,8.9-3.1,13.4
	C174.1,288,163.6,288,153.2,288z"/>
<path class="st2" d="M0,220.4c3.6-1.4,7.1-2.7,10.6-4.2c1.4-0.6,1.9-0.2,1.8,1.2c-0.9,10.8-1.7,21.7-8.8,30.7
	c-1,1.2-1.8,2.7-3.6,3.1C0,240.9,0,230.6,0,220.4z"/>
<path class="st2" d="M240.6,288c1.7-4.1,5.2-6.1,8.9-7.8c6.7-3.1,13.8-5,20.8-7.1c0.5-0.1,1.1-0.5,1.5-0.1c0.5,0.5,0,1.1-0.2,1.7
	c-1.4,4.4-2.9,8.9-4.3,13.3C258.4,288,249.5,288,240.6,288z"/>
<path class="st2" d="M112.7,288c0.2-3.6,2.4-6.4,4.1-9.3c2.2-3.6,4.9-6.9,7.1-10.7c0.3-0.5,0.6-1.4,1.4-1.3c0.6,0.1,0.7,0.9,0.9,1.5
	c2.4,6.7,5.7,13,7.8,19.8C126.8,288,119.8,288,112.7,288z"/>
<path class="st2" d="M0,3.2C5.2,3.4,10.3,2.9,15.8,2c-0.8,1.7-1.5,3.1-2.2,4.4c-2.6,4.7-5.3,9.5-8,14.1c-1.1,1.8-2.3,3.6-3.6,5.3
	c-0.5,0.7-1,1.4-2,1.4C0,19.2,0,11.2,0,3.2z"/>
<path class="st2" d="M0,41.9c1.7-0.4,2.6-2,4-2.9c1-0.6,1.4-0.8,1.5,0.6c0.6,7,1.4,14,0.9,21C6,66.1,4.4,71.3,1.3,76
	C1,76.5,0.6,76.8,0,76.8C0,65.2,0,53.5,0,41.9z"/>
<path class="st2" d="M288,156.4c-0.9-0.1-1-0.8-1.4-1.4c-3.6-6.4-5.3-13.4-5-20.7c0.3-6.9,2.2-13.4,5.6-19.4
	c0.1-0.2,0.5-0.3,0.8-0.4C288,128.5,288,142.5,288,156.4z"/>
<path class="st2" d="M26.7,288c0.5-2,2.4-2.7,3.8-3.8c2.2-1.7,4.4-3.2,6.4-5.1c0.7-0.7,1.1-0.7,1.4,0.3c0.8,2.9,1.8,5.7,2.2,8.6
	C35.9,288,31.3,288,26.7,288z"/>
<path class="st2" d="M218.1,288c0.8-1.6,2.4-2.2,3.7-3.2c2.6-2.1,5.3-4,8-6c0.5-0.4,1.6-1.6,1.6,0.3c0,2.9,0.4,5.9-0.4,8.8
	C226.7,288,222.4,288,218.1,288z"/>
<path class="st2" d="M288,281.6c-1.9,0.5-3.9,0.8-5.7,1.6c-0.6,0.3-1.3,0.4-1.7-0.1c-0.5-0.5,0.1-1,0.3-1.5
	c1.9-4.4,3.7-8.7,5.6-13.1c0.3-0.7,0.5-1.7,1.6-1.8C288,271.7,288,276.7,288,281.6z"/>
<path class="st2" d="M201,0c-0.5,1.5-1.9,2.1-3,2.5c-1.9,0.6-1.5-1.5-2-2.5C197.7,0,199.4,0,201,0z"/>
<path class="st2" d="M125.5,87c-0.1,0.2-0.2,0.5-0.3,0.7c-4,7.7-6.3,16.1-11,23.4c-4.3,6.7-9.8,12.1-16.3,16.5
	c-7.6,5.1-15.6,9.4-24.1,12.5c-0.4,0.2-0.8,0.9-1.4,0.3c-0.4-0.5-0.1-1,0.1-1.5c1.6-6.1,3.3-12.2,5.8-18.1
	c2.8-6.5,6.4-12.3,11.5-17.1c5.1-4.9,11.3-8.3,17.6-11.4c5.2-2.6,10.8-4.3,16.4-5.8C124.5,86.2,125.4,85.6,125.5,87z"/>
<path class="st2" d="M38,200.6c-4.3,0-4.3-0.1-2.7-3.4c3.8-7.8,6.9-16,10.4-23.9c3.4-7.5,9.1-12.5,16.7-15.7c5-2.1,10.2-3.6,15-6.4
	c0.4-0.3,1-0.7,1.5-0.3c0.5,0.4,0,1-0.1,1.5c-1.6,7.7-3,15.4-4.7,23.1c-1.7,7.5-5.9,13.3-12.3,17.6c-5.4,3.7-11.4,5.7-17.8,7
	C41.8,200.3,39.5,200.4,38,200.6z"/>
<path class="st2" d="M129.7,240.3c0.3-6.3,1-13.1,5-19.1c4.7-7.1,11.2-12.4,17.8-17.7c0.9-0.8,1.2-0.2,1.2,0.7c0,0.7-0.3,1.3-0.3,2
	c-0.5,6.2-0.4,12.5,0.2,18.7c1.3,12.5,0.8,24.7-6.1,35.9c-2.2,3.6-4.6,7-7.3,10.2c-1,1.2-1.8,1.9-2.4-0.4c-0.8-2.9-2.9-5.1-4-8
	C131.1,255.6,129.8,248.4,129.7,240.3z"/>
<path class="st2" d="M176,68.5c-2.3,7.8-4.3,15.8-7,23.4c-3.6,10.1-11.2,16-21.4,19c-5.6,1.6-11.3,2-17,1.8
	c-2.3-0.1-2.5-0.5-1.4-2.6c3.6-6.6,7.6-13.1,11-19.9c4.5-9,11.4-15,21.5-17.3c4.8-1.1,9.6-2.4,14-4.9
	C175.8,68.2,175.9,68.3,176,68.5z"/>
<path class="st2" d="M252.9,41.9c3.8-0.1,7.2,0.4,10.7,1.3c2.8,0.7,5.7,0.9,8.6,1.1c2.1,0.1,2.4,0.6,1.3,2.2
	c-4.8,6.4-10.1,12.3-16.4,17.3c-5.9,4.7-12.9,6.6-20.4,7.3c-6.4,0.6-12.6-1-18.8-1.5c-1.3-0.1-1.2-0.7-0.7-1.5
	c3.4-5.3,5.5-11.3,9.8-15.9c5.2-5.5,11.8-8.6,19.3-9.8C248.6,41.9,250.9,41.8,252.9,41.9z"/>
<path class="st2" d="M107.6,48.4c0,10.5-2.8,18.6-7.9,26.1c-4.4,6.4-9.4,12.2-15.6,16.9c-1.4,1.1-2.1,1.2-2.9-0.8
	C78.3,83.9,76,77,76.3,69.4c0.4-8.2,3.7-14.7,10.1-19.7c4.9-3.8,10.4-6.6,15.2-10.6c1.3-1.1,2.5-2.3,3.7-3.4
	c0.8-0.7,1.3-0.8,1.4,0.5C107.1,40.8,107.4,45.3,107.6,48.4z"/>
<path class="st2" d="M62.1,55.6c3.3,6.8,5.2,13.6,5.4,20.8c0.3,7.9-3,14.5-7.8,20.5c-4.3,5.4-9.5,9.8-14.9,13.8
	c-2.1,1.6-4.2,3.1-6.3,4.6c-1.9,1.4-2.2,1.3-2.8-1c-1.5-5.6-1.8-11.3-0.6-17c1.7-8.5,5.6-15.7,11.9-21.8c2.9-2.8,5.8-5.6,8.5-8.7
	c2.7-3.1,4.6-6.5,6-10.2C61.5,56.4,61.8,56.1,62.1,55.6z"/>
<path class="st2" d="M286.1,185.6c-0.2,6.5-3,12.7-6.3,18.7c-0.8,1.4-1.4,0.3-1.9-0.2c-1.7-2.2-3.3-4.6-5-6.8
	c-3.1-3.9-6.3-7.8-8.6-12.4c-2.9-5.8-4.9-11.9-4.8-18.4c0.1-6.4-0.7-12.8-0.5-19.3c0.1-1.6-1.4-3.8,0.1-4.6c0.9-0.5,2.5,1.6,3.7,2.5
	c5.9,4.6,11.7,9.4,16.2,15.4c1.3,1.7,2.2,3.7,3,5.7C284.6,172.3,285.9,178.6,286.1,185.6z"/>
<path class="st2" d="M65.9,43.7c-1.8,0-3.5,0.1-5.3,0c-1.3-0.1-1.9-0.6-1.2-2.1c6.2-12.3,13.8-23.4,25.8-30.9
	c5.5-3.4,11.3-6.4,16.9-9.5c0.7-0.4,1.3-0.6,1.3,0.6c0,9.5-0.7,18.9-5.9,27.2c-5.4,8.7-13.9,12.6-23.7,14.3
	C71.3,43.7,68.6,43.8,65.9,43.7z"/>
<path class="st2" d="M84.7,242.1c3.1-10.9,5.3-22,12.3-31.3c2.2-3,5.2-5.2,8.2-7.3c5.7-4.1,11.8-7.5,17.9-11.1
	c0.8-0.5,1.1-0.3,1.2,0.6c0.8,8.9,1.6,17.9-3.3,26.1c-2.3,3.8-5.5,6.7-9,9.4c-7.6,5.7-16.3,9.3-24.9,13
	C86.4,241.7,85.8,242.4,84.7,242.1z"/>
<path class="st2" d="M206.4,237.2c-0.2,0.4-0.4,0.8-0.6,1.2c-2.3,4.3-5.2,8.3-8.4,12c-5.7,6.5-12.4,11.7-20.1,15.7
	c-6.1,3.2-12.5,5.6-19.3,7.1c-1.9,0.4-3.8,1-5.7,1.6c-0.4,0.1-0.7,0.3-1.1,0c-0.4-0.3-0.1-0.7,0.1-1c3.1-5.7,4.9-12.1,8.7-17.4
	c6.6-9.4,15.5-15.2,26.5-17.8c4.1-1,8.2-1.9,12.4-1.6c2.1,0.1,4.1-0.7,6.2-0.4C205.6,236.5,206.2,236.4,206.4,237.2z"/>
<path class="st2" d="M233.8,265.7c0.6-4.2,0.1-8.4,0.4-12.6c0.3-4.3,0.2-8.6,1-12.8c1.7-8.1,6.7-13.6,13.3-17.9
	c5-3.3,10.4-5.5,16.3-6.4c1.7-0.3,2.3,0.2,1.8,1.7c-2.6,7.9-4.2,16.1-6.2,24.2c-2.2,8.9-8.2,14.6-15.9,18.9c-3.1,1.7-6.2,3.6-9,5.8
	c-0.4,0.3-0.8,0.8-1.4,0.5C233.6,266.8,233.8,266.2,233.8,265.7z"/>
<path class="st2" d="M128.6,169.9c0.4-9.4,2.3-18.4,5.5-27.1c3.3-8.7,8.7-15.9,16.3-21.4c3.1-2.3,6.6-3.8,10.1-5.4
	c1.4-0.7,2.2-0.5,1.9,1.4c-0.8,4.9-1.3,9.8-2.2,14.7c-2.1,11.1-6.2,21.4-14.6,29.4c-4.3,4.2-9.3,7.3-15.1,9.3
	C129.5,171.1,128.5,171.6,128.6,169.9z"/>
<path class="st2" d="M182.1,73.6c-0.1-5.8,2.3-10.6,6-14.9c6.5-7.6,14.9-12.3,24.3-15.3c0.1,0,0.3-0.1,0.4-0.1
	c4.7-1.5,4.5-1.5,3.9,3.4c-1,9.8-4.7,18.4-10.8,26.1c-2.5,3.2-5.4,6.2-8.1,9.3c-2.8,3.1-5.8,5.9-7.9,9.5c-0.8,1.3-1.5,0.9-2.1-0.1
	C184.8,85.9,182.2,80.1,182.1,73.6z"/>
<path class="st2" d="M25.6,149.3c-0.6,6.8,2,12.6,3.6,18.5c3,11-0.8,19.9-7.6,28.1c-2.8,3.4-5.9,6.6-9.6,9.1c-2.6,1.7-3,1.7-4-1.2
	c-5.3-15.9-4.4-30.8,7-44.1C18.1,155.9,21.6,152.7,25.6,149.3z"/>
<path class="st2" d="M149.5,51.9c-0.3-8.5,2.3-15.6,7.9-21.3c5.7-5.8,12.7-9.1,20.8-10.4c0.1,0,0.2,0,0.2,0c5.9-0.5,6-0.5,5.5,5.4
	c-0.4,3.9-0.5,7.9-1.8,11.7c-2.2,6.3-6.8,10.5-12.1,14.2c-5.6,3.9-11.6,7.2-16.8,11.6c-1.7,1.4-2-0.1-2.3-1.1
	C150.1,58.6,149.1,55.1,149.5,51.9z"/>
<path class="st2" d="M5.1,91.5c2-5,4.2-10,6.1-15.1c2.7-7,6.1-13.7,10.9-19.5c5.8-6.9,13-11.5,22-12.9c5.2-0.8,4.6-0.5,3.3,4.2
	c-2.2,7.3-4.5,14.6-8.3,21.3c-2.6,4.7-6.6,7.9-10.8,10.7c-6.7,4.5-14.1,7.8-21.7,10.8C6.1,91.3,5.6,91.4,5.1,91.5
	C5.1,91.6,5.1,91.5,5.1,91.5z"/>
<path class="st2" d="M213.9,225.4c4.4-12,9.6-22.8,21.5-28.8c6.4-3.2,12.8-6,19.9-7.3c2.4-0.5,2.8-0.3,2.7,2.1
	c-0.3,8.7-2.4,16.8-8.2,23.5c-3.2,3.6-7.3,6-12.2,6.8C229.9,223,221.9,223.1,213.9,225.4z"/>
<path class="st2" d="M249.8,162.5c0.1,6.3-0.6,11.9-3.1,17.2c-1.7,3.6-4.3,6.3-7.4,8.6c-6,4.4-12.4,7.8-19.5,10
	c-0.6,0.2-1.3,0.8-1.9,0.1c-0.4-0.5,0.1-1.2,0.3-1.7c2.5-6.5,3.4-13.5,4.9-20.3c2-9.3,7.1-16.4,15.1-21.5c2.6-1.6,5.2-3.1,7.7-5
	c1.5-1.1,1.9-0.5,2.3,0.8C249.4,154.7,250.1,158.8,249.8,162.5z"/>
<path class="st2" d="M83,198.7c-2.4,0.3-5.1-0.2-7.8-0.6c-0.7-0.1-2.2-0.3-0.9-1.7c4.8-4.7,8.5-10.2,12.3-15.6
	c6.1-8.7,14.4-13.4,24.8-14.7c2.7-0.3,5.4-0.8,8.1-1.3c1.4-0.3,1.9,0.3,1.9,1.7c-0.1,4.1-1.4,8-3.1,11.6
	c-4.2,9.2-11.3,15.2-20.8,18.4C93,198.1,88.3,198.9,83,198.7z"/>
<path class="st2" d="M110.6,80.1c1-7.3,2.2-14.1,3.9-20.8c1.9-7.6,6.4-13.4,12.1-18.5c4.2-3.7,8.9-6.7,13.6-9.6
	c1.1-0.7,2-1.1,1.9,0.8c-0.2,5.3,0.7,10.5,0.5,15.8c-0.2,5.4-1.4,10.6-4.2,15.3c-2.6,4.4-6.9,6.8-11.3,9
	C121.8,74.8,116.3,77.4,110.6,80.1z"/>
<path class="st2" d="M68.1,107c-1,6.8,0.2,13.8-0.9,20.6c-0.9,5.8-3.7,10.7-8.1,14.5c-5.4,4.7-11.5,8.1-18.6,9.5
	c-0.4,0.1-0.9,0.2-1.3,0.2c-1.7,0.2-2.6-0.1-1.9-2.2c2.4-7.4,3.8-15.1,5.7-22.6c2.1-8.2,7.6-13.6,14.8-17.7c2.7-1.5,5.5-3,7.9-5
	c0.6-0.5,1.2-1.3,1.9-1c0.9,0.3,0.4,1.4,0.4,2.1C68.1,105.9,68.1,106.5,68.1,107z"/>
<path class="st2" d="M78.2,221.7c-0.4,9.1-2.8,17.4-8,25c-7,10.3-16.5,17.4-27.6,22.7c-1.5,0.7-1.8,0-1.6-1.2
	c1.3-11.3,4.2-21.9,12-30.8c6.9-7.9,15.3-13.9,23.9-19.7c1.2-0.8,1.3-0.2,1.3,0.8C78.2,219.6,78.2,220.7,78.2,221.7z"/>
<path class="st2" d="M87.2,163.8c1.6-6.2,2.9-13.1,6.4-19.2c1.4-2.4,3.2-4.5,5.3-6.3c6.3-5.5,13.4-9.9,21-13.3
	c2.1-0.9,4.1-2.1,6.1-3.1c1.4-0.7,2.1-0.2,1.8,1.3c-2.1,8.9-4,18-9.8,25.5c-3.1,4-6.7,7.2-11.3,9.5c-5.8,3-12.1,4.7-18.1,7.1
	C87.5,165.7,86.9,165.7,87.2,163.8z"/>
<path class="st2" d="M218.6,107.5c-0.1,6.6-3.5,12.4-7.9,17.8c-2.3,2.8-4.7,5.4-7.6,7.6c-0.3,0.2-0.6,0.5-0.9,0.7
	c-3,2.1-3.5,2-4.8-1.4c-5.4-13.9-3.2-31.5,8.3-42.5c2.2-2.1,4.2-4.2,6.4-6.3c0.4-0.4,0.8-1.1,1.5-0.8c0.5,0.2,0.7,0.8,0.7,1.4
	c-0.2,6.6,3.2,12.4,3.9,18.8C218.4,104.2,218.4,105.6,218.6,107.5z"/>
<path class="st2" d="M168,200.6c-1.4,0-2.8,0-4.1,0c-0.7,0-1.7,0.4-2.1-0.4c-0.6-0.9,0.4-1.5,0.9-2.2c1.1-1.6,2.3-3.2,3.7-4.7
	c5-5.6,10.1-11.1,16.3-15.4c2.2-1.5,4.5-2.5,7-3.5c6.2-2.5,12.5-4.4,18.9-6.2c0.9-0.3,2.2-0.5,1.5,1.1c-2.5,6.1-4.3,12.4-7.5,18.2
	c-2.7,4.8-7,7.6-12,9.5C183.3,199.8,175.7,200.5,168,200.6z"/>
<path class="st2" d="M282.6,95.5c-2.4,9.9-4.7,19.1-9.5,27.3c-3,5.1-7.9,8.3-13.1,10.8c-3.7,1.8-7.8,2.7-11.8,3.7
	c-1.1,0.3-2.4,0.5-2.1-1.3c1.1-6.2,1.9-12.6,4.8-18.3c4.3-8.7,11-14.8,20.2-17.9C274.9,98.6,278.6,97.4,282.6,95.5z"/>
<path class="st2" d="M163,236.1c2.8-5.7,5.3-10.8,9.1-15.1c6.6-7.4,14.9-12.5,24-16.5c3.9-1.7,7.8-3.1,11.7-4.5
	c1.5-0.5,2-0.2,1.9,1.4c-0.2,6.3-2.2,11.9-6,16.9c-6,8-14.4,11.7-23.8,13.7C174.5,233.1,169.1,234.2,163,236.1z"/>
<path class="st2" d="M186.1,166.7c5.9-10,11.8-19.9,21.9-26.1c5.9-3.6,12.4-6.4,19.2-8.2c1.4-0.4,2.8-0.8,4.1-1.3
	c2.1-0.8,2.5-0.6,2.4,1.7c-0.5,10.2-5.4,17.6-14.2,22.6c-5.8,3.4-12.3,5-18.7,6.7C195.9,163.4,190.9,164.7,186.1,166.7z"/>
<path class="st2" d="M167.5,159.1c-0.6,5.7-0.3,11.5-1.8,17c-2.1,7.7-7,13.3-13.8,17.3c-5,3-10.6,3.8-16.1,4.8
	c-1.1,0.2-1.2-0.3-1.1-1.3c0.7-4.5,2.3-8.7,4.2-12.8c2.3-5.2,5.1-10.2,9.1-14.5c3.2-3.4,7-6.2,10.7-8.9c2.1-1.5,4.3-3,6.4-4.4
	c0.6-0.4,1.2-1.2,2-0.9c0.8,0.4,0.3,1.4,0.4,2.1C167.5,158,167.5,158.5,167.5,159.1z"/>
<path class="st2" d="M225.4,114.1c-0.3-4.5,0.2-9,1.6-13.3c1.6-5.2,4.4-9.6,8.8-13c5.3-4,10.4-8.3,16.2-11.5c1.6-0.9,2-0.5,1.9,1.2
	c-0.2,3.8-1.1,7.5-1.9,11.2c-1.3,5.8-3.2,11.4-6.6,16.5c-3.2,4.8-7.4,8.5-11.4,12.5c-2.1,2-4.3,3.8-6.5,5.7
	c-0.3,0.3-0.6,0.8-1.1,0.6c-0.6-0.2-0.4-0.8-0.5-1.2C225.2,119.9,225.5,117,225.4,114.1z"/>
<path class="st2" d="M56.4,204.7c3,0,5.2,0,7.4,0c0.4,0,1-0.1,1.2,0.4c0.2,0.4-0.2,0.7-0.4,1c-6.1,7.2-12.2,14.4-20.4,19.3
	c-4.5,2.7-9.6,3.9-14.6,5.5c-2.5,0.8-5.1,1.4-7.7,2.2c-0.4,0.1-0.9,0.3-1.3,0c-0.4-0.3-0.1-0.7,0.1-1c1.8-4.5,3.6-8.9,5.4-13.4
	c3.1-7.4,9.2-10.7,16.5-12.5C47.4,205,52.2,204.4,56.4,204.7z"/>
<path class="st2" d="M186.3,126.2c0.3,5-1.2,9.7-2,14.5c-0.6,3.6-0.9,7.1-0.8,10.7c0,0.5,0.2,1.2-0.4,1.5c-0.6,0.3-0.9-0.4-1.3-0.7
	c-6.2-5-11.2-11-12.4-19.2c-0.8-5.6-0.2-11.3,1.4-16.8c1.3-4.7,3-9.3,5.4-13.7c0.3-0.6,0.7-2.1,1.6-0.5c3.3,6,6.8,12,8.2,18.9
	C186.4,122.8,186.2,124.5,186.3,126.2z"/>
<path class="st2" d="M5.1,91.6C5,91.6,5,91.7,5,91.7C5,91.7,5,91.6,5.1,91.6C5.1,91.5,5.1,91.6,5.1,91.6z"/>
</svg>
