<?xml version="1.0" encoding="utf-8"?>
<!-- Generator: Adobe Illustrator 24.0.2, SVG Export Plug-In . SVG Version: 6.00 Build 0)  -->
<svg version="1.1" id="Capa_1" xmlns="http://www.w3.org/2000/svg" xmlns:xlink="http://www.w3.org/1999/xlink" x="0px" y="0px"
	 viewBox="0 0 288 288" style="enable-background:new 0 0 288 288;" xml:space="preserve">
<style type="text/css">
	.st0{fill:#B3008B;}
</style>
<path class="st0" d="M244,277.5c0.5-4.1,1.7-6.9,5.3-11c2.7-3.1,5.6-6,8.6-9c2.6-2.6,5.5-4.9,8.1-7.5c4.7-4.6,9.4-9.2,14-13.9
	c0.3-0.3,0.4-0.7,0.4-1.2c0.1-2.9,0.1-5.8,0.2-8.7c0-0.8,0-1.7,0-2.6c-1.1,0.4-1.6,0.7-2.1,1.2c-5.2,5.1-10.5,10.1-15.5,15.4
	c-4.3,4.5-8.3,9.2-12.4,14c-1,1.2-5.8,9.2-7.9,7c-1.1-1.1,4.8-6.6,5.7-7.7c2.5-3.2,4.9-6.5,7.7-9.6c3.6-4,7.7-7.5,11.5-11.3
	c2.6-2.6,4.9-5.2,7.5-7.9c1-1,2.1-2,3.3-2.7c0.9-0.5,2.4-0.9,3.2-0.5c0.7,0.3,1.2,1.6,1.2,2.6c0.1,3.8-0.1,7.6,0.1,11.4
	c0.3,6.5,0.5,13.1,1.2,19.6c0.5,4.5,2.1,8.8,2.5,13.3c0.5,5.4,0.4,10.9,0.4,16.4c0,1.9-1.9,2.1-3.4,2.3c-1.7,0.2-3.5,0.1-5.2,0.1
	c-7.3-0.1-14.6-0.1-21.8-0.2c-4.9-0.1-12.9,1.9-12.8-4.6C243.8,280.4,243.9,278.9,244,277.5z M251.6,284.3c0.5-1.2,0.8-2.6,1.6-3.7
	c4.2-5.2,8.6-10.3,12.9-15.4c4.2-4.8,9-9,14.6-12.6c0.4-0.3,0.6-0.9,0.6-1.4c0-3.2-0.1-6.5-0.2-9.7c0-0.9-0.2-1.8-0.3-3.1
	c-0.7,0.7-1.2,1.2-1.6,1.6c-5,4.8-9.9,9.7-14.9,14.6c-4.3,4.3-8.7,8.4-12.8,12.9c-2.3,2.6-5.1,5.1-5.2,8.6c0,2.1-0.5,5.5,0.6,7.3
	c0.7,1.2,1.1,1,2.8,1C250,284.5,251.5,284.6,251.6,284.3z M281.3,254.7c-2.8,2.3-5.8,4.1-8.1,6.6c-6.1,6.5-11.8,13.3-17.6,20
	c-0.7,0.8-0.9,1.9-1.4,3.1c3.5,0,6.5-0.1,9.5,0c1.6,0.1,2.6-0.5,3.6-1.6c5.2-5.3,10.5-10.5,15.7-15.8c0.3-0.4,0.7-1,0.6-1.4
	C282.9,262.2,282.2,258.6,281.3,254.7z M284.4,284.6c0-5.2,0-10.1,0-15.5c-5.3,5.3-10.2,10.1-15.1,15.1c0.1,0.2,0.2,0.4,0.3,0.5
	C274.6,284.6,279.6,284.6,284.4,284.6z"/>
<path class="st0" d="M283,169.3c0.2,0.1,0.4,0.1,0.6,0.2c-0.1,5.2-27.3,2.7-31.2,2.1c-1.4-0.2-2.8-0.6-4.2-0.8c-0.2,0-0.5,0-0.8,0
	c-1.1,5.5-1.6,11-0.4,16.5c0.4,1.8,1.5,2.4,3.3,2.3c6.3-0.2,12.7-0.5,19-0.4c3.4,0.1,14.5-1.8,15.2,3c-1.5,0.4-3,0.4-4.6,0.4
	c-6-0.2-11.9-0.8-17.9-1c-4-0.1-8.1,0.2-12.1,0.3c-3,0-4.7-1.3-5.3-4.3c-1.1-5.1-0.8-10.1,0.1-15.2c0.2-0.8,0.2-1.7,0.1-2.6
	c-0.1-1.4,0.7-2.1,2.1-1.8c4.5,0.8,9,1.8,13.5,2c4.1,0.2,8.3,0.4,12.4,0.1C275.9,169.9,280,168.3,283,169.3z"/>
<path class="st0" d="M73.8,284.5C73.8,284.5,73.8,284.5,73.8,284.5c-0.3-0.3-0.4-0.7-0.4-1.1c0-6.8-0.2-13.8-0.5-20.6
	c-0.2-4.4-1.3-8.8-1.9-13.2c-0.4-2.9-0.9-5.7-0.9-8.7c-0.2-5.3-0.1-10.7-0.1-16c0-1.1,0.3-2.2,0.6-3.2c0.1-0.4,0.9-0.7,1.3-1
	c0.3,0.4,1,0.9,0.9,1.2c-1.1,5.9-0.7,11.9-0.2,17.8c0.5,6.2,1.6,12.3,2.2,18.5c0.5,4.7,0.8,9.3,0.9,13.9c0,2.2,0.1,4.4,0.1,6.6
	c0,1.1,0,2.2,0,3.4c0,0.7,0.4,1.8-0.2,2.3c-0.3,0.3-0.8,0.4-1.2,0.3C74.2,284.8,74,284.7,73.8,284.5z"/>
<path class="st0" d="M66.4,275.6c-0.5-5.2-1.2-10.5-1.6-15.7c-0.6-8.1-1.1-16.2-1.6-24.3c0-0.2,0.1-0.2,0-0.3
	c-0.4-0.4-0.7-0.7-1.1-1.1c-0.4,0.3-1.1,0.7-1.2,1.1c-0.2,1.2-0.3,2.2-0.2,3.4c0.5,8.5,0.9,16.9,1.6,25.4c0.4,5.2,1.2,10.3,1.7,15.6
	c0.1,1.4-0.8,3.6,0.3,4.7c0.5,0.5,1.4,0.6,1.9,0.2c1-0.8,0.5-2.8,0.4-3.9C66.6,279,66.6,277.3,66.4,275.6z"/>
<path class="st0" d="M136.4,285.8c-0.2,0-0.3-0.1-0.5-0.1c-3.3-0.7-4.9-2.4-6.6-5.3c-2.1-3.6-0.6-8.5,3.1-10.3
	c2.5-1.2,5.1-1.7,7.8-1.2c2.3,0.4,4.1,1.6,4.9,3.8c1.2,3.3,2.1,8.2-0.1,11.3C143.4,286.4,139.2,286.3,136.4,285.8z M139.1,283.4
	c0.1,0,0.2,0,0.3,0c4.1-0.4,4.5-3,4.2-6.6c-0.3-4.5-2.3-6.2-6.8-5.7c-0.9,0.1-1.8,0.3-2.7,0.7c-3.2,1.2-4.5,5.6-2.2,8.1
	C133.8,281.9,136.3,283.5,139.1,283.4z"/>
<path class="st0" d="M287,213c0,0.2-0.1,0.3-0.2,0.4c-0.5,0.6-4.7-0.1-5.6-0.2c-6-0.2-11.9-1-17.9-1.1c-4.8-0.1-9.5,0.5-14.3,0.6
	c-0.5,0-1.1-0.4-1.7-0.7c0.4-0.5,0.7-1.5,1.2-1.5c3.1-0.4,6.2-1.1,9.2-1c7.4,0.2,14.8,0.9,22.2,1.2c1.6,0,3.8-0.3,5.4,0.2
	C285.9,211.2,287.1,212.2,287,213z"/>
<path class="st0" d="M56.9,284.9c-0.9-1.1-0.4-4.1-0.4-5.2c0-2.3-0.2-4.5-0.8-6.7c-2.6-9.2-3.1-18.3-2.8-27.6c0-0.1,0-0.2,0-0.3
	c0.1-0.7-0.3-1.9,1.2-1.9s1.2,1.2,1.2,1.9c0.1,1.7,0.1,3.3,0.1,5c-0.3,7.6,0.6,15,2.8,22.3c0.5,1.6,2.6,13.7-0.7,12.8
	C57.2,285.2,57,285.1,56.9,284.9z"/>
<path class="st0" d="M45.7,284.9c-0.6-0.7-0.4-2.6-0.5-3.4c-0.1-1.4-0.3-2.9-0.5-4.3c-0.4-2.8-1-5.7-1.3-8.5
	c-0.6-4.6-0.3-9.2-0.3-13.8c0-0.4,0.7-0.8,1.1-1.2c0.4,0.4,1.1,0.8,1.2,1.2c0.2,0.8,0.2,1.7,0.1,2.7c-0.3,6.5,0.5,12.9,1.8,19.3
	c0.3,1.6,0.4,3.2,0.5,4.9c0,1.1,0.5,2.5-0.6,3.2C46.8,285.3,46.1,285.4,45.7,284.9C45.8,285,45.7,284.9,45.7,284.9z"/>
<path class="st0" d="M34.9,284.7c-0.7-0.8-0.4-3.2-0.4-4c0.1-1.9,0.1-3.8,0.2-5.6c0.1-3.7,0.3-7.4,0.3-11.1c0-0.6,0.7-1.2,1-1.7
	c0.4,0.6,1.2,1.2,1.2,1.7c-0.1,6.5-0.3,12.9-0.5,19.4c0,0.8-0.1,1.7-1.1,1.6c-0.2,0-0.4,0-0.5-0.1C35,284.8,35,284.8,34.9,284.7z"/>
<path class="st0" d="M254.1,220.4c0.2,0.1,0.5,0.3,0.8,0.8c0.9,1.5,0.3,6.1,0.3,7.9c-0.1,3.3-0.1,6.5-0.2,9.8c0,1-0.2,1.9-0.5,2.8
	c-0.1,0.3-0.9,0.3-1,0.1c-0.4-0.7-0.9-1.6-0.9-2.5c0-4,0.2-8,0.2-12C252.8,226.6,252.7,220,254.1,220.4z"/>
<path class="st0" d="M25.5,284.7c-0.1,0-0.1-0.1-0.2-0.2c-0.7-0.8-0.2-3.2-0.2-4.2c0-1.7,0.1-3.3,0.1-5c0-0.6-0.1-1.2,0.1-1.7
	c0.2-0.4,0.7-0.7,1.1-1c0.4,0.3,1.1,0.7,1.1,1c0.2,1.2,0.1,2.5,0.1,3.7c0,1.4,0,2.8,0,4.2c0,0.9,0.5,2.9-0.7,3.3
	c-0.3,0.1-0.5,0-0.8,0C25.9,284.9,25.7,284.8,25.5,284.7z"/>
<path class="st0" d="M263.1,221.7c0.7,0.2,1.3,2.6,1.4,3.5c0.3,2.4-0.3,3.7-1,5.8c-0.4-1-1.1-1.9-1.1-2.9
	C262.4,226.8,261.7,221.4,263.1,221.7z"/>
<path class="st0" d="M15.8,284.9c-0.5-0.7-0.3-1.7-0.1-2.6c0.1-0.4,0.7-0.7,1.1-1c0.4,0.3,1.1,0.7,1.1,1c0.2,1,0.5,3.7-1.4,3
	C16.2,285.2,16,285.1,15.8,284.9z"/>
<path class="st0" d="M7.6,272.2c-0.3-2.7-0.6-5.6-0.8-8.3c-0.3-4.7-0.2-9.3-0.8-14c-0.6-4.6-2.1-9.1-2.6-13.7
	c-0.5-5.1-0.3-10.2-0.3-15.2c0-0.5,0.9-1.3,1.5-1.5c1.6-0.3,3.3-0.5,5-0.5c15.8,0.1,31.6,0.2,47.4,0.4c2.7,0,5.3,0.1,8,0.3
	c1,0.1,2.4,0.6,2.7,1.2c0.3,0.6-0.2,1.8-0.9,2.4c-4.7,4.7-9.7,9.2-14.3,14.1c-4.1,4.2-7.7,8.9-11.6,13.2c-3.3,3.6-6.6,7.1-10.2,10.5
	c-5.1,4.8-10.4,9.6-15.7,14.3c-1.2,1.1-2.5,2-3.9,2.8c-1.9,1.1-3.6,0.4-3.8-1.6c-0.1-1.6,0-3.2,0-4.8C7.3,272.3,7.5,272.2,7.6,272.2
	z M65.3,222.1c-0.1-0.2-0.1-0.3-0.2-0.5c-2.2,0-4.5,0.1-6.7,0c-2.2-0.1-4.2-0.2-4.9,2.1c-0.1,0.2-0.4,0.5-0.7,0.7
	c-3.6,4-7.2,8-10.9,12c-2.5,2.7-5.1,5.5-7.9,8.1c-3.1,2.7-6.5,5.2-9.6,8c-4.8,4.2-9.5,8.6-14.2,12.9c-0.3,0.3-0.5,0.9-0.5,1.3
	c-0.1,2.7-0.2,5.6-0.3,8.4c0,0.5,0,1.1,0,2.1c1.4-1,2.3-1.6,3.2-2.3c2.7-2.5,5.4-5,8.1-7.5c5.2-4.8,10.6-9.6,15.6-14.6
	c2.5-2.5,4.2-5.6,6.7-8.2c5.6-5.8,11.4-11.6,17.2-17.3C61.9,225.5,63.6,223.8,65.3,222.1z M8.9,263c0.2,0.1,0.4,0.2,0.6,0.2
	c0.3-0.2,0.5-0.6,0.8-0.8c4.7-4.2,9.3-8.6,14.2-12.7c5.8-5,11.9-9.8,16.6-15.7c2.9-3.6,6.3-6.9,9.5-10.3c0.5-0.6,1-1.2,1.8-2.1
	c-4.5,0-8.4,0.1-12.3,0c-1.6,0-2.5,0.2-2.2,1.7c0.1,0.4-0.4,1-0.8,1.3c-4.9,5.2-9.8,10.5-14.7,15.8c-3.8,4.1-8.6,7.4-13.5,10.2
	C8.9,254.8,8.9,258.9,8.9,263z M35.7,221.5c-2.6,0-4.7,0.2-6.7,0c-3.5-0.3-6.4,0.2-8,3.1c-0.2,0.4-0.7,0.7-1.1,1
	c-4.3,3.9-8.7,7.8-13,11.7c-0.3,0.2-0.6,0.7-0.5,1c0.7,3.2,1.4,6.6,2.2,10.2c2.8-2.1,5.7-3.7,7.9-5.9c6.1-5.9,11.9-12.1,17.7-18.2
	C35,223.7,35.2,222.7,35.7,221.5z M5.5,235.6c5.3-4.7,10.2-9.2,15.1-13.7c-0.1-0.2-0.2-0.2-0.3-0.4c-5,0.2-9.9-0.9-14.8-0.1
	C5.5,226.1,5.5,230.6,5.5,235.6z"/>
<path class="st0" d="M235.3,24.8c-1.9-1.7-3.5-3.2-5-4.6c-0.7-0.7-1.4-1.4-2.1-2.2c-2.4-2.8-2.4-5.1,0.2-7.9c0.9-1,1.9-2,2.8-3
	c0.7-0.7,1.8-1.2,1.2-2.6c-0.1-0.2,1.2-1.3,2-1.4c2.7-0.4,5.4-0.6,8.2-0.8c4.1-0.2,8.2-0.5,12.3-0.6c5.8-0.1,11.7-0.3,17.5-0.2
	c5.4,0.1,7.1,2.2,8.7,7.4c3.6,11.9,2.4,24.2,2.9,36.3c0.1,1.5-0.4,3.1-0.9,4.5c-0.7,2-2.2,3.2-4.3,3.2c-10.8,0.3-21.6,0.6-32.5,0.7
	c-4.8,0.1-9-1.6-12.5-5c-2.4-2.3-2.4-4,0.4-5.8c3.8-2.5,3.9-2.9,0.4-6c-1.2-1.1-2.5-2.1-3.6-3.2c-2.4-2.3-2.1-4.6,0.7-6.4
	C232.8,26.7,234,25.8,235.3,24.8z M234.4,46.1c2.9,3.1,6,5.1,9.8,5.2c9.6,0.1,19.3-0.1,28.9-0.2c1.6,0,3.1-0.1,4.7-0.2
	c1.8-0.1,3.1-0.9,3.3-2.8c0.1-0.8,0.3-1.6,0.3-2.4c-0.1-7.4-0.2-14.8-0.3-22.2c-0.1-3.6-0.5-7.1-1.9-10.4c-0.7,0.2-1.4,0.5-2,0.5
	c-2.7,0.2-5.3,0.3-8,0.3c-13.2,0.4-26.3,0.8-39.5,1.3c-0.1,0-0.2,0.1-0.6,0.5c2.2,2.1,4.4,4.2,6.6,6.2c1.9,1.8,2,3.6,0.1,5.4
	c-1.2,1.1-2.5,2-4.1,3.3c1,0,1.6,0,2.2,0c6.9-0.2,13.8-0.4,20.7-0.6c6.6-0.1,13.3,0.4,19.9-0.7c1.5-0.2,3-0.4,4.5-0.3
	c0.6,0,1.2,0.7,1.8,1.1c-0.5,0.4-1,1.2-1.5,1.3c-3.8,0.4-7.5,0.8-11.3,0.9c-11.2,0.3-22.4,0.5-33.6,0.7c-0.2,0-0.4,0.1-0.6,0.2
	c1.6,1.5,3.1,2.9,4.5,4.4c1.6,1.7,1.6,3.2,0.2,5c-0.2,0.3-0.5,0.6-0.9,1.1c0.6,0,0.9,0.1,1.2,0.1c13.4,0.3,26.7-0.3,40-1.8
	c0.9-0.1,1.9-0.3,2.1,0.9c0.2,1.3-0.9,1.3-1.7,1.4c-7.1,0.6-14.2,1.4-21.3,1.7C250.2,46.3,242.5,46.1,234.4,46.1z M278.8,11.2
	c-0.8-6.1-2-7.1-7.8-7.3c-0.7,0-1.5-0.1-2.2,0C258.2,4,247.6,4.1,237,5.4c-0.4,0-0.8,0.3-1,0.5c-0.8,0.8-1.5,1.6-2.3,2.4
	c-1.3,1.4-2.7,2.8-4.4,4.5C246.1,12.3,262.4,11.8,278.8,11.2z"/>
<path class="st0" d="M82.9,169c0.7,0.1,1.5,0.2,2.2,0.2c10.5,0,20.9,0,31.4,0c0.4,0,0.8-0.1,1.1,0c0.4,0.2,1,0.7,1,1.1
	c0,0.4-0.5,1-0.9,1.1c-0.9,0.2-1.8,0.3-2.8,0.3c-10.3-0.1-20.5-0.2-30.8-0.3c-0.9,0-1.8-0.1-2.6-0.4c-0.8-0.3-2-1-2-1.6
	c-0.1-0.8,0.6-2,1.3-2.4c2.4-1.2,4.8-2.3,7.3-3.1c4.9-1.5,9.9-2.7,14.8-4.1c2.7-0.8,5.3-1.7,7.9-2.7c1.3-0.5,2.5-1.3,3.7-2
	c-0.1-0.2-0.1-0.4-0.2-0.6c-2.3,0.3-4.7,0.6-7,0.9c-8.6,1.1-17.3,0.8-25.9,0.2c-0.5,0-1.1-0.1-1.4-0.4c-0.6-0.5-1.6-1.1-1.6-1.8
	c0-0.5,0.9-1.4,1.6-1.6c2-0.6,4.1-0.9,6.2-1.4c2.3-0.6,4.8-1,6.9-2c4.2-2,8.2-4.3,12.5-6.6c-1.5,0-2.7,0-4,0
	c-5.8-0.1-11.7-0.2-17.5-0.3c-1.2,0-2.4-0.3-3.4-0.7c-1.6-0.6-1.6-2.1-0.1-2.9c0.6-0.3,1.3-0.5,1.9-0.7c8.9-2.8,17.9-5.7,26.8-8.5
	c0.2-0.1,0.4-0.2,0.6-0.2c-7,0-14.1,0-21.1,0c-2.1,0-4.2-0.2-6.2-0.7c-0.8-0.2-1.9-1.3-1.9-2.1c0-0.6,1.1-1.7,1.9-2
	c6-1.9,12.1-3.6,18.2-5.3c2-0.6,4.1-1.2,6.1-2.2c-5.1,0-10.2,0.1-15.2,0c-3.4-0.1-6.7-0.3-10-0.6c-0.5,0-0.9-0.7-1.3-1.1
	c0.5-0.4,1-1,1.5-1c2,0,4.1,0.3,6.1,0.3c7.8,0.1,15.7,0.1,23.5,0.2c0.8,0,1.6,0,2.4,0.2c0.5,0.1,1.3,0.6,1.3,0.9
	c-0.1,0.6-0.4,1.5-1,1.8c-0.9,0.6-2.1,0.9-3.1,1.2c-8.1,2.4-16.2,4.7-24.3,7.1c-0.8,0.2-1.6,0.5-2.4,0.8c0,0.2,0,0.3,0.1,0.5
	c1.2,0,2.3,0,3.5,0c8.1-0.1,16.2-0.1,24.3-0.2c0.7,0,1.4-0.1,2,0.2c0.6,0.2,1.4,0.8,1.4,1.2c0.1,0.6-0.4,1.5-0.9,1.8
	c-1.5,0.8-3.2,1.4-4.8,2c-8.2,2.6-16.3,5.2-24.5,7.7c-0.2,0.1-0.4,0.2-0.6,0.7c2.9,0,5.8,0,8.7,0c6,0,12.1,0,18.1,0
	c0.6,0,1.2,0,1.7-0.1c1.7-0.6,2,0.5,2.3,1.8c-2.8,1-5.6,1.9-8.2,3.1c-3.8,1.8-7.6,3.7-11.3,5.7c-3.6,2.1-7.4,3.1-11.5,3.6
	c0.6,0,1.2,0.1,1.8,0.1c0.7,0,1.4,0.1,2.1,0.1c7.7,0.2,15.4,0.2,23.1-1.2c1.4-0.2,3-0.1,4.4,0.2c2.1,0.5,2.5,2.2,0.9,3.6
	c-1.4,1.2-3,2.3-4.7,2.9c-5.2,1.9-10.4,3.6-15.7,5.2c-3.3,1-6.6,1.7-9.9,2.6c-1.2,0.3-2.4,0.9-3.6,1.4
	C82.8,168.7,82.8,168.8,82.9,169z"/>
<path class="st0" d="M236.1,248.5c0,3.9-0.1,7.7,0,11.6c0.1,3.9,0.3,7.7,0.5,11.6c0.1,3.2,0.5,6.8-0.2,10c-0.2,0.8-0.5,1.7-1,2.3
	c-0.4,0.5-0.9,0.8-1.4,1.2c-2.3,1.7-6.5,2.2-9.3,2.2c-8.1,0.1-16.2,0.5-24.2-0.4c-9.2-0.9-18.4-0.6-27.6-0.4c-2.1,0-4.6,0-6-1.9
	c-1.7-2.4-1.6-6.5-2-9.4c-0.2-1.5-0.4-3-0.2-4.5c0.4-2.1,1.9-4,4.1-3.6c2.8,0.6,5.5,1.6,8.5,1.8c9.2,0.5,18.5,1.3,27.6-1.5
	c3-0.9,4.1-1.7,4.3-4.9c0.3-7.2,0.5-14.4,0.2-21.7c-0.3-6.5-1.3-13-2-19.5c-0.3-3.3,1.3-5.1,4.8-5.3c4.2-0.2,8.5-0.3,12.7-0.4
	c1.7-0.1,3.5-0.3,5.2-0.3c2.8,0,4.5,1.2,4.9,4c0.6,4,1,8,1.1,12.1C236.2,237.2,236.1,242.8,236.1,248.5z M169,271
	c-0.1,0-0.2,0.1-0.4,0.1c-0.9,0.4-1.2,1.4-1.3,2.4c-0.4,2.7-0.2,6.4,1,8.9c0.8,1.9,2.8,1.9,4.6,1.9c6.3-0.2,12.6-0.5,18.8-0.4
	c5.6,0.1,11.2,0.7,16.7,1c2,0.1,4.1,0.2,6.2,0.1c4.2-0.2,8.5-0.3,12.7-0.7c2.4-0.3,5.2-0.6,6.4-3c1.5-3.2,0-7.7,0-11.1
	c-0.2-13.6-0.1-27.3-0.2-40.8c0-2.8-0.4-5.8-0.7-8.6c-0.2-1.4-0.6-2.8-2.6-2.7c-6,0.2-11.9,0.3-17.9,0.6c-2.2,0.1-2.7,0.8-2.3,3.1
	c0.5,3.7,1.3,7.3,1.5,11.1c0.4,7.9,0.6,16,0.6,23.9c0,3.2-0.6,6.3-1.2,9.4c-0.3,1.7-1.6,3.2-3.4,3.5c-5,0.9-10,2.2-15,2.4
	c-3.8,0.2-7.5,0.3-11.3,0.1c-3.7-0.2-7.3-0.8-11-1C169.8,270.9,169.4,270.9,169,271z"/>
<path class="st0" d="M191.6,95.3c0,3.5-0.1,7.1,0,10.6c0.2,7.3,0.6,14.7,0.9,22c0,0.2,0,0.4,0,0.6c0.3,5.5-0.8,7.2-6.1,8.4
	c-2.9,0.7-5.9,1.2-8.8,1.2c-7.1,0.1-14.2-0.1-21.3-0.3c-4.6-0.2-9.3-0.9-13.9-1c-4.5-0.1-9,0.2-13.4,0.4c-6.4,0.4-7.8-1.7-8.2-7.8
	c-0.2-4.2,0.4-8.4,0.7-12.6c0-0.6,0-1.2,0-1.8c-0.1-1.3,0.7-2.1,2-1.9c4,0.7,7.9,1.8,11.9,2c8.3,0.5,16.7,0.8,24.8-1.6
	c3.5-1,4.3-1.5,4.4-5.2c0.2-8.6,0.2-17.2,0-25.7c-0.2-4.8-1.1-9.5-1.7-14.2c-0.4-3,0.9-4.8,3.8-5.3c0.9-0.1,1.7-0.2,2.6-0.3
	c5.4-0.2,10.8-0.4,16.2-0.5c2.9-0.1,4.3,0.8,4.8,3.6c0.7,3.9,1,8,1.2,12C191.7,83.8,191.5,89.5,191.6,95.3L191.6,95.3z M124.2,116.1
	c-1.2,5.4-1.6,10.5-0.7,15.7c0.5,2.6,1.1,3.2,3.7,3.1c5.7-0.1,11.3-0.5,17-0.4c8,0.2,16,0.9,24,1.1c5.3,0.1,10.6,0,15.8-0.7
	c6.3-0.8,6.7-1.6,5.9-7.9c-0.9-7.4-0.9-14.9-0.9-22.4c0-8.9,0-17.8-0.1-26.7c0-3.4-0.4-6.8-0.7-10.2c-0.2-1.6-0.8-3.1-2.9-3
	c-6,0.2-12.1,0.4-18.1,0.7c-1.8,0.1-2.4,0.9-2.2,2.7c0.7,6,1.7,12.1,2,18.1c0.3,7.6,0,15.3-0.2,22.9c-0.1,3.5-2.2,5.8-5.2,6.5
	c-1.4,0.3-2.8,0.6-4.2,0.9c-8.3,1.9-16.7,1.2-25.1,0.8C129.8,117.2,127.1,116.5,124.2,116.1z"/>
<path class="st0" d="M77.4,149.4c0,6.8-0.1,13.7,0,20.5c0.1,3.1,0.5,6.2,0.8,9.3c0.1,0.9,0.2,1.7,0.2,2.6c0.2,5.9-1,7.4-6.8,8.7
	c-6.1,1.4-12.2,1.1-18.4,0.8c-6.3-0.3-12.6-0.9-19-1.1c-5.6-0.1-11.3,0.2-16.9,0.2c-1.8,0-3.6,0-5.4,0c-2.1,0-3.6-1.1-4.2-3
	c-1.7-4.8-1.4-9.6-0.8-14.6c0.2-1.7,0.1-3.4,0.4-5.1c0.1-0.6,1.4-1.6,1.9-1.4c6.1,1.9,12.3,2.1,18.6,2.4c6.3,0.2,12.4-0.4,18.5-2
	c2.9-0.8,4.1-1.8,4.2-4.8c0.2-7,0.6-13.9,0.3-20.9c-0.3-6.5-1.3-13-2-19.4c-0.3-3,0.9-5,3.9-5.2c6.5-0.4,13-0.6,19.6-0.8
	c2.3-0.1,3.6,1.1,4.1,3.8c0.6,3.4,1,6.8,1.1,10.2C77.5,136.3,77.4,142.8,77.4,149.4L77.4,149.4z M10.1,169.5
	c-1.2,4.9-1.6,9.7-0.9,14.6c0.6,3.9,1.1,4.3,5.1,4.2c5.6-0.1,11.2-0.4,16.8-0.4c4,0,7.9,0.8,11.9,0.9c6.8,0.2,13.6,0.4,20.3,0.2
	c3.4-0.1,6.7-0.9,10.1-1.5c1.9-0.3,2.7-1.6,2.5-3.5c-0.1-0.7,0-1.4,0-2.1c-0.3-4.6-0.8-9.2-0.9-13.8c-0.2-12.3-0.1-24.5-0.2-36.8
	c0-3.6-0.4-7.2-0.8-10.8c-0.1-1.6-1-2.6-2.8-2.6c-6,0.3-11.9,0.4-17.9,0.7c-2.2,0.1-2.5,0.6-2.2,2.9s0.7,4.5,1,6.8
	c1.5,10.9,1.7,21.8,0.9,32.8c-0.3,4.7-2.1,6.8-5.6,7.8c-9.1,2.6-18.3,2.3-27.6,1.8C16.6,170.7,13.4,170,10.1,169.5z"/>
<path class="st0" d="M201.2,98.3c0.3-4,0.5-8.1,1-12.1c0.5-3.5,2.3-5.2,5.9-5.6c9.3-1.2,18.6-2.2,28-3.3c3.8-0.4,7.5-0.9,11.3-1.3
	c0.7-0.1,1.4-0.2,2-0.2c5.2,0,7.4,1.4,7.2,6.8c-0.3,6.1,1.8,11.9,2.5,17.9c0.3,2.6,0.5,5.2,0.3,7.8c-0.3,2.7-2,4.5-4.9,4.7
	c-1.5,0.1-3,0.4-4.5,0.5c-3.2,0-5.6-1.2-5.9-5.5c-0.3-4.1-1.6-7.9-3.8-11.4c-1.7-2.7-4.1-4.4-7.2-4.7c-6.8-0.6-12.6,1.5-15.5,8.4
	c-1.3,3.1-1.9,6.5-2.6,9.8c-0.3,1.5-0.4,2.4-2.4,1.9c-1.9-0.5-4-0.3-5.9-0.7c-3.9-0.8-5.3-2.6-5.3-6.5c0-2.2,0-4.4,0-6.5
	C201.3,98.3,201.2,98.3,201.2,98.3z M212.5,109.7c0.4-5,1.7-9.3,4.3-13.1c3.9-5.7,9.5-7.4,16-7c4.8,0.3,8,2.9,10.2,7
	c2,3.7,3.2,7.5,3.5,11.7c0.2,2.3,1.1,3,3.4,2.9c1.2-0.1,2.3-0.3,3.5-0.4c2.7-0.4,3.6-1.2,3.6-4c0-2.4-0.3-4.7-0.7-7
	c-1-6.2-2.8-12.4-2.4-18.8c0.1-1.6-0.8-2.4-2.4-2.4c-0.8,0-1.6-0.1-2.4,0c-3.7,0.4-7.4,0.8-11.1,1.2c-9.8,1.1-19.6,2.2-29.4,3.4
	c-2.9,0.3-4.1,1.6-4.3,4.7c-0.3,5.9-0.4,11.8-0.6,17.7c-0.1,2,0.9,3.2,2.8,3.6C208.5,109.3,210.4,109.4,212.5,109.7z"/>
<path class="st0" d="M15.3,112.2c-4.7,0.2-6.3-1-6.7-5.7c-0.4-5-2.6-9.7-3.7-14.5C4.7,91,4.6,90,4.6,89.1c-0.1-3-0.3-5.9-0.4-8.9
	c-0.1-1.1-0.1-2.3,0.3-3.3c1-2.6,5.1-1.8,7.3-2c1.8-0.1,3.6-0.1,5.4,0.2c2.6,0.5,3.9,1.9,3.9,4.5c-0.2,6.9,1.7,13.4,2.6,20.1
	c0.3,1.8,0.5,3.6,0.5,5.4c0,4.2-1.9,6.3-5.9,6.9C17.2,112,16.2,112.1,15.3,112.2z M10.5,102.5c0.3,1.4,0.5,2.8,0.6,4.3
	c0.2,2.6,0.9,3,3.5,2.9c1.1-0.1,2.2-0.2,3.3-0.3c2.5-0.2,3.7-1.2,3.7-3.7s-0.2-5-0.6-7.4c-1-5.9-2.6-11.8-2.4-17.9
	c0.1-2.5-0.5-3-2.9-3.3c-2.4-0.3-5.8-1-7.4,1.4c-1,1.6-1.1,3.6-1.1,5.5C7.4,90.4,9.4,96.3,10.5,102.5z"/>
<path class="st0" d="M76,41.9c0.2-2.3,0.3-5.7,0.6-9.1c0.4-4.3,2.1-6.2,6.3-6.8c5.7-0.8,11.3-1.4,17-2.1c6-0.7,12.1-1.5,18.2-2.1
	c3-0.3,5.9-0.4,8.9-0.3c2.3,0.1,4.1,1.7,4,3.9c-0.2,7.7,2.1,15,2.9,22.5c0.2,1.7,0.3,3.5,0.1,5.2c-0.4,3.1-2.1,4.8-5.1,5.3
	c-1.6,0.2-3.2,0.4-4.8,0.4c-3.2,0-5.1-1.6-5.4-4.7c-0.4-3.4-1.1-6.5-2.5-9.7c-3.3-7.9-10.7-8.4-17-5.9c-4.6,1.8-7,5.7-8.4,10.1
	c-0.7,2.2-0.9,4.6-1.3,6.9c-0.2,1.4-0.2,2.7-2.5,1.9c-1.8-0.7-3.9-0.4-5.8-0.7c-3.6-0.6-5.2-2.5-5.3-6.3C76,48,76,45.5,76,41.9z
	 M87.1,55.2c0.2-1.1,0.2-1.9,0.4-2.6c1.7-10.1,7-17.6,18.3-17.8c5-0.1,9,1.8,11.5,6.3c2.1,3.8,3.8,7.7,3.9,12.1
	c0.1,2.8,1,3.5,3.8,3.3c1.1-0.1,2.1-0.4,3.1-0.3c2.7,0.1,3.8-2,3.8-4.3c0-1.8-0.3-3.6-0.5-5.4c-0.8-5.6-1.9-11.3-2.5-16.9
	c-0.6-5.9-1-6.4-7-5.7c-6.5,0.8-13,1.5-19.4,2.3c-6.2,0.7-12.4,1.3-18.5,2.1c-3.7,0.5-4.7,1.5-4.9,5.3c-0.3,5.8-0.4,11.6-0.5,17.4
	c0,1.6,0.7,2.9,2.5,3.2C83,54.6,84.9,54.9,87.1,55.2z"/>
<path class="st0" d="M120.6,202.1c0.2-3.4,0.3-6.7,0.5-10.1c0.2-4.5,2.2-7.6,7.1-8c7.1-0.6,14.2-1.6,21.3-2.4
	c6.1-0.7,12.2-1.3,18.4-2c1.2-0.1,2.4-0.1,3.5,0.1c2.6,0.3,4.4,1.9,4.4,4.5c-0.1,8,2.3,15.7,3.1,23.6c0.1,1.5,0.1,3.1-0.2,4.6
	c-0.6,2.5-2.2,4.1-5,4.3c-1.5,0.1-3.1,0.3-4.6,0.4c-3.3,0.1-5.2-1.5-5.7-4.9c-0.4-3.3-1.1-6.4-2.4-9.5c-3.5-8.4-12-8.2-17.7-5.6
	c-5,2.4-7,6.9-8.3,12c-0.4,1.7-0.5,3.4-0.8,5.1c-0.2,1.2-0.5,1.9-2,1.5c-1.7-0.4-3.4-0.3-5.2-0.5c-4.6-0.6-6.2-2.5-6.2-7.2
	c0-2,0-4,0-6C120.7,202.1,120.6,202.1,120.6,202.1z M131.6,213.4c0.3-1.6,0.5-2.8,0.7-4c1.8-8.7,6.7-15,15.4-16.1
	c7.1-0.9,12,1.5,15.1,7.9c1.6,3.2,2.6,6.5,2.8,10.2c0.2,3.1,1.4,3.9,4.5,3.4c0.9-0.1,1.9-0.2,2.8-0.3c2.5-0.4,3.6-1.5,3.5-4
	c0-2.3-0.3-4.6-0.7-6.9c-0.7-5.3-1.9-10.5-2.3-15.8c-0.5-5.8-0.8-6.4-6.6-5.6c-0.1,0-0.1,0-0.2,0c-7.7,0.8-15.3,1.7-23,2.5
	c-5.3,0.6-10.6,1.2-15.9,1.9c-2.6,0.4-3.9,1.5-4,4.1c-0.3,6.2-0.4,12.4-0.6,18.7c0,1.7,0.9,2.9,2.6,3.2
	C127.7,212.9,129.6,213.1,131.6,213.4z"/>
<path class="st0" d="M183.9,28.3c2,1.2,3.8,2.4,5.6,3.4c0.6,0.4,1.3,0.7,1.9,1.1c2,1.4,2,2.7,0.1,4.2c-1.6,1.3-3.2,2.7-4.7,4.2
	c-1.4,1.3-1.2,2,0.2,3.3c1.9,1.7,3.9,3.5,5.6,5.4c0.9,1,1.7,2.6,1.6,3.9c-0.2,1.7-2.1,2-3.6,2.1c-5.5,0.3-10.9,0.6-16.4,0.7
	c-4.1,0.1-5.4-1.2-5.8-5.2c-0.5-5.6-0.7-11.3-1.2-16.9c-0.3-2.8-0.8-5.7-1.4-8.4c-1.2-5.8-1-11.8-0.9-17.7c0-0.9,0.2-1.8-0.1-2.6
	c-0.6-1.8,0.2-2.5,1.8-2.5C174.1,3.2,181.5,3,189,3c1.3,0,3-0.1,3.4,1.7c0.3,1.7-1.3,2.2-2.4,3c-1.7,1.2-3.6,2.3-5.2,3.6
	c-1.5,1.3-1.4,2.5,0.4,3.6c1.5,0.9,3,1.7,4.5,2.6c2.5,1.4,2.7,3,0.5,5C188.3,24.4,186.3,26.2,183.9,28.3z M167,5.5
	c0.5,7.1,0.9,13.7,1.5,20.3c0.4,4.7,1.2,9.3,1.7,14c0.4,4.1,0.6,8.2,0.9,12.2c0.1,1.6,1,2.4,2.7,2.4c4.3-0.1,8.6-0.1,12.9-0.3
	c1.8-0.1,3.6-0.5,5.9-0.9c-2.6-2.6-4.8-4.8-7.1-6.9c-2.4-2.1-2.7-4.4-0.4-6.7c1.6-1.6,3.4-3.2,5-4.8c-2.1-1.3-4.3-2.5-6.2-3.9
	c-2.5-1.9-2.5-3.5-0.3-5.6c1.9-1.8,3.8-3.5,5.9-5.5c-1.1-0.6-2.1-1.1-3-1.6c-1-0.6-2-1.1-2.9-1.7c-2.4-1.8-2.7-4.1-0.8-6.4
	c0.8-1,1.9-1.8,2.9-2.6c0.9-0.7,1.9-1.3,3.2-2.1C181.5,5.5,174.6,5.5,167,5.5z"/>
<path class="st0" d="M161.1,232.4c0,7.2,0.1,14.4,0,21.6c0,4.2-4.6,12-9.5,13.3s-8.4-0.1-10.5-4.8c-1.5-3.4-2.2-7-2.1-10.8
	c0.1-5.5-0.6-11-0.7-16.6c-0.1-6.3-0.4-12.7,0.1-19c0.6-6.5,4.3-11.3,10.3-14c4.4-1.9,9.4,0.6,11,5.4c0.7,2.2,1.2,4.6,1.3,6.9
	C161.2,220.4,161.1,226.4,161.1,232.4L161.1,232.4z M158.5,234.1c0.1,0,0.2,0,0.3,0c0-4.2,0.1-8.5,0-12.7c-0.2-4.1-0.4-8.2-1.1-12.2
	c-0.6-3.8-5.2-7.2-9.8-4c-3.9,2.8-6.5,6.3-7,11.1c-0.3,3.3-0.3,6.6-0.2,9.9c0.3,9.1,0.8,18.3,0.9,27.4c0,3,0.8,5.6,2,8.2
	c1.5,3.3,3.6,4.1,7,3.1c3.5-1,7.9-6.4,7.9-10.2C158.6,247.9,158.5,241,158.5,234.1z"/>
<path class="st0" d="M241.8,130.1c0,6.9,0.2,13.8-0.1,20.7c-0.2,5.7-5.4,12-10.5,13.1c-3.9,0.9-6.9-0.4-8.8-3.9
	c-1.9-3.6-2.9-7.4-2.6-11.6c0.3-3.8-0.5-7.6-0.6-11.4c-0.2-7.9-0.5-15.8-0.2-23.7c0.2-6.4,3.7-11.1,9.1-14.2
	c5.8-3.4,12.4,0.5,13.2,7.9c0.6,6.2,0.5,12.4,0.8,18.6c0.1,1.5,0,3,0,4.5C242,130.1,241.9,130.1,241.8,130.1z M239.5,130.5
	c0.1,0,0.2,0,0.2,0c-0.2-7.1-0.3-14.3-0.6-21.4c-0.1-2-0.8-4-1.8-5.8c-1.6-3-4.9-3.9-7.8-2.1c-1.8,1.1-3.4,2.6-4.8,4.2
	c-3.3,3.7-3.5,8.2-3.4,12.8c0.3,10.6,0.8,21.1,1,31.7c0.1,2.9,0.7,5.5,1.9,8.1c2.5,5.4,7.3,4.4,10.2,1.6c3.2-2.9,5.1-6.7,5.1-11.2
	C239.5,142.4,239.5,136.5,239.5,130.5z"/>
<path class="st0" d="M116.6,76.1c0,6,0,12.1,0,18.1c0,5-2.2,9-5.5,12.5c-5,5.1-12,3.7-14.8-2.8c-1.4-3.2-1.9-6.5-1.8-10.1
	c0.1-5.3-0.7-10.7-0.8-16C93.6,70.9,93.2,64,94,57.1c0.7-6.1,4.4-10.8,10.3-13.1c5-2,10.4,1.5,11.5,7.4c0.5,2.7,0.7,5.4,0.8,8.1
	C116.7,65,116.6,70.5,116.6,76.1L116.6,76.1z M114,75.7L114,75.7c0-6,0.1-12,0-17.9c0-2.3-0.3-4.6-0.8-6.8c-1.1-4.1-4.9-6.2-8.2-4.7
	c-4.7,2.1-7.7,5.9-8.4,10.9c-0.6,4.6-0.4,9.3-0.3,14c0.2,7.7,0.8,15.4,0.8,23.1c0,3.2,0.5,6.1,1.8,9c2.1,4.9,6.3,4.8,9.6,2.3
	c3.4-2.6,5.6-6.2,5.6-10.7C114.1,88.5,114,82.1,114,75.7z"/>
<path class="st0" d="M220.5,194.6c-2-1.9-4.4-3.8-6.3-6c-4.5-5.2-2-12,4.7-13.4c1.2-0.2,2.3-0.4,3.5-0.4c3.8,0,6.4,2.8,7.2,7
	c1,5.2-1,9.3-4.6,13.1c0.9,0.4,1.7,0.8,2.5,1.1c6,2.5,6.4,7,4.2,11.7c-2.9,6.3-10.7,7.9-16.1,3.3c-2.9-2.5-3.5-5.5-1.3-8.6
	C216.3,199.7,218.5,197.1,220.5,194.6z M222.8,196.5c-3,1.9-5,4.6-6.7,7.5c-1,1.7-0.8,3.2,0.5,4.6c2.4,2.6,5.5,3,8.7,2.1
	c2.4-0.6,4.6-3.8,4.9-6.7c0.3-3.2-0.3-4.3-3.3-5.7C225.6,197.8,224.3,197.2,222.8,196.5z M222.9,193.6c3.3-3.2,5-6.5,4.3-10.8
	s-2.5-5.8-6.9-5.3c-0.7,0.1-1.3,0.2-2,0.4c-2.9,1-4.3,3.1-3.8,6.2c0.1,0.9,0.6,2,1.2,2.6C217.9,189,220.4,191.2,222.9,193.6z"/>
<path class="st0" d="M100.2,218.1c0-3.7,0-7.5,0-11.2c0-2.4-0.5-4.8-0.3-7.1c0.6-6.3,5-7.5,10-5.4c1.8,0.8,3,2.3,3,4.4
	c0,9.3,2.1,18.4,3.1,27.6c0.3,2.3,0.1,4.6-0.2,6.8c-0.3,2.2-2,3.6-4.3,3.6c-1.9,0-3.7-0.1-5.6-0.5c-4-0.8-5.7-2.9-5.7-7
	c0-1.9,0-3.7,0-5.6C100.2,221.9,100.2,220,100.2,218.1z M102.4,215.6c0.1,0,0.2,0,0.4,0c0,4.9-0.1,9.7,0,14.6c0,2.4,0.9,3.3,3.3,3.8
	c1.6,0.3,3.2,0.4,4.8,0.5c1.8,0.1,2.7-0.8,2.7-2.5c0-2,0.1-4-0.2-6c-0.8-6-1.8-11.9-2.5-17.9c-0.4-2.9-0.2-5.8-0.4-8.8
	c-0.2-2.4-1.9-3.6-4.6-3.5c-2.5,0.2-3.4,1.3-3.5,3.9C102.3,205,102.4,210.3,102.4,215.6z"/>
<path class="st0" d="M111.4,285.3c-1.9-0.3-3.9-0.5-5.8-1c-2.1-0.4-3.2-1.5-3.6-3c-0.2-1-0.3-2.1-0.3-3.2c0-4.9,0-9.8,0-14.7
	c0-1.5-0.3-3.1-0.4-4.6c0-0.5,0.1-1,0.2-1.5c0.8-4.3,5.2-4.8,9.5-3.6c2,0.5,3.3,1.7,3.3,3.3c-0.1,6.9,2.2,13.7,3.2,20.5
	c0.2,1.3,0.2,2.7-0.1,4C116.7,284.7,115.4,285.3,111.4,285.3z M103.9,269.7c0.1,0,0.2,0,0.3,0c0,3.5,0,7,0,10.4
	c0,1.7,0.9,2.5,3.2,2.9c1.6,0.2,3.2,0.4,4.8,0.4c2,0.1,2.9-0.6,2.9-2.1c0-1.5,0-3.1-0.3-4.6c-0.8-4.3-1.8-8.6-2.5-12.9
	c-0.4-2.1-0.2-4.3-0.3-6.5c-0.1-1.8-1.8-2.3-4.6-2.4c-2.2-0.1-3.5,1.2-3.5,2.8C104,261.8,103.9,265.8,103.9,269.7z"/>
<path class="st0" d="M202.2,257.3c0.1,6.4-1.6,8.1-7.9,7.6c-0.3,0-0.6,0-0.9-0.1c-5.6-0.8-7.2-2.6-7.2-8.4c0-7,0-14.1,0-21.1
	c0-2.6-0.5-5.2-0.2-7.7c0.6-5.7,6.3-8,10.9-4.4c1,0.8,1.9,2.2,1.9,3.4c0.1,9.4,2.1,18.5,3.2,27.7
	C202.1,255.3,202.1,256.3,202.2,257.3z M188.7,243.7L188.7,243.7c0,4.8,0,9.6,0.1,14.4c0,2.7,0.8,3.6,3.4,4.1c1.6,0.3,3.3,0.4,5,0.5
	c1.5,0.1,2.3-0.8,2.4-2.2c0.1-0.8,0.2-1.6,0.1-2.4c-0.4-4.3-1-8.5-1.4-12.8c-0.6-5.7-1.1-11.3-1.7-17c-0.1-0.6-0.1-1.1-0.2-1.7
	c-0.3-1.4-2.1-2.5-4.1-2.5c-1.6,0-3.2,0.2-3.5,2.2c-0.1,1.2-0.1,2.4-0.1,3.6C188.7,234.5,188.7,239.1,188.7,243.7z"/>
<path class="st0" d="M141.6,88.2c0-3.7,0-7.5,0-11.2c0-2.6-0.5-5.1-0.2-7.7c0.2-2.3,1-4.8,3.7-5.5c3.1-0.8,6-0.5,8.1,2.2
	c0.6,0.8,1.1,2,1.1,3.1c-0.1,8.4,1.7,16.6,2.8,24.8c0.4,2.9,0.3,6,0.1,8.9c-0.2,2.5-2,4-4.5,4c-1.8,0-3.6-0.1-5.4-0.5
	c-4.1-0.8-5.7-2.7-5.8-7C141.6,95.6,141.6,91.9,141.6,88.2L141.6,88.2z M143.8,85c0.1,0,0.2,0,0.3,0c0,5.1,0,10.2,0,15.3
	c0,1.6,0.6,3.1,2.3,3.4c2,0.4,4,0.6,6.1,0.7c1.4,0.1,2.3-0.7,2.3-2.1c0.1-1.9,0.2-3.9,0-5.8c-0.8-5.9-1.8-11.8-2.5-17.7
	c-0.4-3.2-0.2-6.5-0.5-9.7c-0.2-2.3-2.1-3.5-4.7-3.3c-2.1,0.1-3.4,1.7-3.4,3.9C143.9,74.8,143.8,79.9,143.8,85z"/>
<path class="st0" d="M43.4,152.5c0,0.8,0.1,1.6,0,2.4c-0.4,3.9-2.3,5.5-6.2,5.2c-0.9-0.1-1.7-0.1-2.6-0.2c-4.9-0.4-7.1-2.7-7.2-7.7
	c0-6.3,0-12.6,0-18.9c0-2.6-0.3-5.2-0.5-7.7c0-0.7,0-1.5,0.1-2.2c0.7-7.2,6.2-7.9,10.9-5.3c1.5,0.8,2.1,2.2,2.3,3.8
	C40.8,128,41.3,134,42,140c0.5,4.1,1.1,8.2,1.7,12.4C43.6,152.5,43.5,152.5,43.4,152.5z M29.6,138.9c0.1,0,0.2,0,0.3,0
	c0,4.6,0,9.2,0,13.8c0,3.2,0.9,4.2,4.1,4.6c1.3,0.2,2.6,0.3,3.9,0.3c2.2,0,2.9-0.5,2.9-2.7c-0.1-3.4-0.3-6.8-0.8-10.2
	c-0.9-7.3-2.5-14.6-2.3-22c0.1-2.4-1.8-3.7-4.6-3.6c-2.1,0.1-3.5,1.6-3.5,3.8C29.6,128.2,29.6,133.6,29.6,138.9z"/>
<path class="st0" d="M279.4,128.1c1,6.3,2.1,12.6,2.8,19c0.4,3.5,0.5,7.2,0.2,10.7c-0.2,2.4-1.8,3.6-4.3,3.5
	c-2.4-0.1-4.8-0.4-7.2-0.9c-2.5-0.5-3.8-2.4-3.9-4.9c-0.2-8-0.2-15.9-0.3-23.9c0-2.8-0.5-5.6,0-8.3c0.9-5.4,7-7.3,11.1-3.6
	c0.8,0.7,1.4,1.8,1.6,2.8c0.3,1.8,0.3,3.6,0.5,5.4C279.8,128,279.6,128,279.4,128.1z M280.6,154.3c0-0.5-0.1-1.1-0.1-1.6
	c-0.7-5-1.6-10.1-2.1-15.1c-0.5-4.5-0.7-9-1-13.6c-0.2-2.3-1.2-3.3-3.9-3.6c-2.1-0.3-3.5,0.6-4,2.7c-0.2,0.9,0,1.9,0,2.9
	c0,8.4,0.1,16.8,0,25.2c-0.1,6.4,0.4,7.1,6.8,7.7c3.5,0.3,4.1-0.2,4.3-3.6C280.5,155,280.5,154.7,280.6,154.3z"/>
<path class="st0" d="M47.5,71.5c-0.1-5.5,3-10.3,7.7-11.6c0.5-0.1,1.1-0.1,1.6,0c1,0.2,1.9,0.6,2.9,0.7c7.1,1.3,10.5,7.8,9,14.6
	c-0.3,1.3-0.7,2.6-1.3,3.8c-1.9,3.9-7.7,4.8-11.6,3.7C51,81.4,47.6,76.8,47.5,71.5z M52.4,77.5c1.7-2.3,3.4-4.6,5.2-6.9
	c-1-0.9-2-1.8-2.9-2.7c-0.9-0.9-1.9-1.7-2.9-2.6C48.8,69.6,49.1,74.4,52.4,77.5z M63.8,79.3c-1.5-2.4-2.8-4.6-4.4-7.2
	c-1.9,2.7-3.6,5-5.3,7.5C57.6,81,60.5,81.3,63.8,79.3z M63.5,65c-3-2.7-8.1-3.4-10-1.4c1.9,1.8,3.9,3.5,5.9,5.3
	C60.8,67.5,62.1,66.3,63.5,65z M61.2,70.4c1.5,2.3,2.8,4.5,4.4,6.9c1.3-3.8,1.6-7.2-0.4-10.6C63.7,68.1,62.5,69.2,61.2,70.4z"/>
<path class="st0" d="M55,24.9c-5.9,0.1-9.7-3.4-11.5-8.8C42,11.4,44.2,5.5,48.4,2.7c1.6-1.1,3.2-1.5,5.2-0.8
	c2.7,0.9,5.5,1.4,7.8,3.6c4.5,4.4,4,12.2,0.7,16.9C61.3,23.5,57.1,24.9,55,24.9z M48.1,19.2c1.8-2.3,3.5-4.6,5.3-6.9
	c-2-1.8-3.9-3.5-5.8-5.3C44.8,10.5,44.7,16.4,48.1,19.2z M59.4,21c-1.3-2.3-2.6-4.5-4.2-7.1c-1.9,2.6-3.6,4.9-5.5,7.5
	C53.3,22.5,56.3,23.2,59.4,21z M58.8,6.4c-2.1-2.2-7.5-3-9.7-1.2c2,1.8,3.9,3.5,6,5.4C56.4,9.1,57.6,7.7,58.8,6.4z M60.8,8.5
	c-1.4,1.4-2.7,2.6-3.9,3.7c1.5,2.4,2.9,4.5,4.4,6.9C62.5,15.4,62.9,12,60.8,8.5z"/>
<path class="st0" d="M94.8,199c-0.2,5.2-0.4,10.3-0.6,15.5c0,0.9-0.2,1.9-0.4,2.8c-0.6,2.5-1.9,3.6-4.5,3.6c-1.7,0-3.4,0-5-0.3
	c-2.1-0.3-3.6-2-3.6-4.1c-0.1-4.8-0.2-9.6-0.2-14.3c0.1-4.6,0.6-9.3,0.4-13.9c-0.1-2-0.2-3.7,1.4-4.9c2.5-1.7,5.3-1.6,8-0.8
	c2.5,0.7,4,2.6,4.1,5.2c0.1,3.8,0,7.6,0,11.4C94.6,199,94.7,199,94.8,199z M91.7,201.7c0.1,0,0.2,0,0.4,0c0-4.6,0.1-9.2,0-13.8
	c0-2.2-1.1-3.3-3.1-3.5c-1.3-0.1-2.6,0-3.9,0.2c-0.5,0.1-1.2,0.8-1.2,1.2c-0.3,3.9-0.7,7.8-0.8,11.7c-0.1,5.2,0.3,10.4,0.2,15.7
	c-0.2,5-0.3,5.1,4.8,5.2c3.2,0,3.6-0.2,3.7-3.4C91.8,210.5,91.7,206.1,91.7,201.7z"/>
<path class="st0" d="M199.5,209.5c0,0.7,0.1,1.5,0,2.2c-0.4,3.2-1.6,4.3-4.8,4.6c-7.5,0.5-8,0-8.6-7.5c-0.5-5.4-1.3-10.9-1.9-16.3
	c-0.2-2.3-0.2-4.6-0.2-6.9c0-0.6,0-1.3-0.1-1.8c-0.8-2.6,0.5-4.8,3.2-5.5c1.1-0.3,2.3-0.4,3.5-0.4c4.1-0.2,6.4,1.6,6.9,5.7
	c0.7,6.6,1.3,13.2,1.9,19.9C199.4,205.4,199.4,207.5,199.5,209.5L199.5,209.5z M197,206.3c-0.1,0-0.1,0-0.2,0
	c-0.2-4.3-0.4-8.7-0.7-13c-0.3-3.4-0.8-6.8-1.3-10.2c-0.2-1.6-1.1-2.8-2.7-2.9c-1.6-0.1-3.3,0.3-4.9,0.6c-0.3,0.1-0.8,0.7-0.8,1.1
	c0.1,3.8,0.1,7.6,0.4,11.4c0.5,6.1,1.3,12.2,1.9,18.3c0.2,2,1.1,2.9,3.1,2.8c1.2-0.1,2.3-0.3,3.5-0.4c1.2-0.1,1.8-0.8,1.8-2
	C197,210,197,208.1,197,206.3z"/>
<path class="st0" d="M25.3,82.9c-0.3-1.7-0.5-3.4-0.8-5.1c-0.2-1.5,1.3-3.8,3-4.2c1.6-0.4,3.3-0.7,5-0.7c3.7,0,5.8,2.2,6.2,6.7
	c0.8,8.5,1.3,16.9,1.9,25.4c0.1,1.1-0.1,2.2-0.3,3.3c-0.3,1.6-1.4,2.6-3,2.9c-1.7,0.2-3.5,0.4-5.2,0.4c-2.6,0-4.5-1.7-4.8-4.3
	c-0.8-7.2-1.5-14.3-2.2-21.5c-0.1-1,0-2,0-3C25.2,82.9,25.3,82.9,25.3,82.9z M27.6,82C27.5,82,27.5,82,27.6,82
	c0.1,2.1,0.1,4.1,0.4,6.1c0.6,5.3,1.3,10.6,1.7,15.9c0.5,5.4,0.3,5.5,5.7,5c2.6-0.2,3.1-0.6,2.9-3.2c-0.6-9-1.3-18.1-2.1-27.1
	c-0.1-1.7-0.9-3.3-2.9-3.3c-1.6-0.1-3.3,0.2-4.9,0.5c-0.3,0.1-0.7,0.9-0.8,1.4C27.5,78.9,27.6,80.5,27.6,82z"/>
<path class="st0" d="M280.3,102.5c0,1.9,0.1,3.9,0,5.8c-0.2,2.7-1.4,3.9-4,4.2c-1.4,0.2-2.7,0.3-4.1,0.3c-3.1,0.1-4.9-1.6-5.2-4.6
	c-0.7-7-1.5-14-2.2-20.9c-0.2-1.8-0.1-3.6-0.1-5.4c0-0.5,0.1-1,0-1.5c-0.7-3.4,0.3-5.1,3.7-5.9c1.3-0.3,2.6-0.4,3.9-0.4
	c3.2,0,5.5,2.1,5.9,5.4c0.9,7.7,1.6,15.3,2.3,23C280.3,102.5,280.3,102.5,280.3,102.5z M267.1,83.2L267.1,83.2c0.1,2,0.1,4,0.3,5.9
	c0.6,6,1.3,12,1.9,18c0.3,3.1,1,3.8,4.1,3.4c0.4-0.1,0.9-0.2,1.3-0.2c3,0.1,3.4-1.1,3.2-3.8c-0.6-8.8-1.4-17.6-2.1-26.4
	c-0.1-1.5-0.7-3.2-2.3-3.4c-1.8-0.2-3.8,0.2-5.7,0.4c-0.3,0-0.6,0.9-0.6,1.3C267,80.1,267.1,81.7,267.1,83.2z"/>
<path class="st0" d="M154.8,48.7c0,1.9,0.1,3.8,0,5.8c-0.2,2.1-1.4,3.2-3.4,3.5c-1.6,0.2-3.2,0.4-4.8,0.4c-2.8,0-4.6-1.8-4.9-4.6
	c-0.7-6.6-1.5-13.2-2.1-19.8c-0.2-1.9,0-3.9-0.2-5.8c-0.1-1.1-0.3-2.3-0.6-3.4c-0.3-1.3,1.1-4.1,2.7-4.4c1.9-0.4,3.8-0.8,5.7-0.7
	c3.3,0.1,5.2,2.1,5.6,5.6c0.8,7.8,1.6,15.6,2.3,23.3C155,48.6,154.9,48.6,154.8,48.7z M141.7,28.7c0.1,1.3,0.1,2.3,0.2,3.3
	c0.7,6.2,1.5,12.3,2,18.5c0.4,5.9,0.3,5.9,6.2,5.3c1.8-0.2,2.5-1.1,2.5-2.8c-0.1-2.5-0.2-5.1-0.4-7.6c-0.6-6.7-1.2-13.5-1.9-20.2
	c-0.1-1.5-0.8-2.9-2.3-3c-1.8-0.1-3.7,0.2-5.5,0.5c-0.3,0.1-0.7,0.9-0.7,1.5C141.6,25.8,141.7,27.4,141.7,28.7z"/>
<path class="st0" d="M82.1,256.8c0.2-5,0.4-9.9,0.6-14.9c0-0.6,0.1-1.1,0-1.7c-0.5-2.4,0.9-4.6,3.4-5c0.9-0.1,1.7-0.2,2.6-0.2
	c5.4-0.1,7.7,2.1,7.6,7.5c-0.1,8.4-0.2,16.8-0.4,25.2c0,1.1-0.3,2.2-0.6,3.3c-0.4,1.8-1.7,2.7-3.5,2.7c-1.6,0-3.2,0.1-4.9,0
	c-2.7-0.2-4.4-2-4.4-4.8c0-4,0-8.1,0-12.1C82.3,256.8,82.2,256.8,82.1,256.8z M93.3,255.1c0.1,0,0.3,0,0.4,0c0-4.7,0-9.4,0-14.2
	c0-1.7-0.8-3-2.5-3.2c-1.5-0.2-3.1-0.2-4.6,0c-0.4,0-1.1,0.8-1.2,1.3c-0.3,4.3-0.6,8.7-0.6,13c-0.1,4.8,0.2,9.7,0.2,14.5
	c-0.1,5-0.2,5,4.8,4.9c3,0,3.4-0.3,3.5-3.2C93.4,263.9,93.3,259.5,93.3,255.1z"/>
<path class="st0" d="M166.8,159.4c-7.8-0.5-17.9-1.4-28-1.8c-4.9-0.2-9.8,0.3-14.7,0.6c-0.9,0.1-1.9,0.4-2.1-0.7
	c-0.1-0.5,1-1.5,1.6-1.5c3.4-0.4,6.8-0.9,10.2-0.8c8.7,0.3,17.5,1.2,26.2,1.4c9.8,0.2,19.6-0.2,29.5-0.2c0.6,0,1.6,0.6,1.7,1
	c0.3,1.2-0.8,1.3-1.7,1.4C182.8,158.9,176,159.1,166.8,159.4z"/>
<path class="st0" d="M207.2,37.3c-2.8-1.5-5-2.7-7.2-4c-5.3-3.2-5.3-5.9-0.1-9.3c0.8-0.5,1.6-0.9,2.4-1.4c2.2-1.4,2.2-2.6,0.2-4.3
	c-1.8-1.5-3.6-3.1-5.2-4.8c-1.7-1.9-1.5-3.4,0.5-5.1c1.4-1.2,2.9-2.3,4.5-3.3c0.4-0.3,1.2,0,1.8,0c-0.1,0.6-0.1,1.4-0.5,1.7
	c-1.1,1-2.4,1.9-3.7,2.9c-1.6,1.3-1.7,1.7-0.1,3.2c1.4,1.3,2.8,2.5,4.2,3.6c3.1,2.4,3.1,5.3,0,7.7c-1.4,1-2.9,1.9-4.3,3
	c-1.9,1.4-1.9,2.1,0.1,3.3c2.1,1.3,4.2,2.3,6.3,3.6c3.3,1.9,3.5,4.3,0.6,6.8c-1.1,0.9-2.3,1.7-3.4,2.6c-2.3,1.9-2.4,2.8,0,4.7
	c1.5,1.2,3.3,2,4.8,3.1c0.6,0.4,1.2,1.5,1.1,1.9c-0.5,1.3-1.5,0.6-2.3,0.1c-1.6-1-3.2-1.9-4.7-2.9c-3.9-2.8-3.9-6.2,0-9
	C203.9,40.1,205.3,38.8,207.2,37.3z"/>
<path class="st0" d="M57.2,212.9c-8.5-0.6-17-1.3-25.5-1.7c-7.5-0.4-15-1.1-22.5,0.5c-0.4,0.1-0.9-0.5-1.4-0.8
	c0.3-0.5,0.6-1.3,1-1.4c2.1-0.4,4.3-1,6.4-0.9c8.3,0.3,16.6,0.8,24.9,1.1c6.9,0.2,13.8,0.3,20.7,0.3c4.6,0,9.2-0.2,13.8-0.3
	c0.3,0,0.7-0.1,0.9,0c0.6,0.3,1.1,0.7,1.7,1c-0.5,0.4-1,1.2-1.5,1.2c-4.2,0.3-8.3,0.4-12.5,0.5c-2,0.1-4.1,0-6.1,0
	C57.2,212.6,57.2,212.8,57.2,212.9z"/>
<path class="st0" d="M222.3,38c-2.2-1.6-4-3-5.9-4.4c-0.7-0.5-1.4-0.8-2.1-1.2c-1.6-0.9-3.3-1.8-3.3-3.9c0-1.9,1.7-2.7,3.1-3.6
	c1-0.6,2-1.3,2.8-2.1c1.6-1.4,1.4-3.8-0.4-5c-0.9-0.6-1.8-1-2.8-1.5c-2.2-1.3-3-3.5-1.4-5.5s3.7-3.6,5.6-5.3c0.3-0.2,1.3-0.2,1.4,0
	c0.2,0.5,0.2,1.1,0,1.6c-0.2,0.4-0.7,0.7-1.1,1c-0.9,0.8-1.9,1.6-2.8,2.4c-2.2,2.2-2.1,3,0.7,4.3c1.7,0.8,3.3,1.8,3.9,3.7
	c0.8,2.5,0,4.8-2.5,6.6c-1.4,1.1-2.9,2.1-4.7,3.3c0.7,0.6,1.3,1.1,2,1.5c2.3,1.5,4.6,2.9,6.8,4.5c3.4,2.5,3.3,4.6-0.1,7.2
	c-1.4,1.1-2.7,2.2-4,3.4c-0.3,0.3-0.5,0.6-0.8,0.9c2.4,1,4.7,1.9,7,2.9c0.7,0.3,1.3,0.8,1.7,1.4c0.2,0.3,0.3,1.1,0.1,1.4
	c-0.3,0.3-1,0.4-1.4,0.2c-2.7-1.1-5.3-2.3-8-3.4c-2.3-0.9-2.8-2.5-1.1-4.3c1.4-1.5,3.1-2.8,4.7-4.3C220.6,39.5,221.2,38.9,222.3,38z
	"/>
<path class="st0" d="M50.3,99.2c0.7-1.9,0.9-4.4,2.2-5.7c1.9-1.9,4.1-3.9,7.3-3.6c3,0.3,6,0.2,8.4,2.4c2.7,2.5,3.4,5.6,2,9
	c-1.9,4.7-7.7,7.7-12.7,6.8C52.8,107.1,50.5,104.3,50.3,99.2z M53.1,99.2c-0.1,3.8,1.2,5.7,4.2,6.4c3.7,0.9,8.5-1.2,10.2-4.7
	c2-3.9,0.3-7.5-4-8.2c-2.2-0.4-4.6-1.5-6.4,1C53.5,93.8,53.4,96.7,53.1,99.2z"/>
<path class="st0" d="M55.8,29.5c2.2,0.5,4.6,0.7,6.6,1.7c4.1,2,5.5,6.9,2.9,10.8c-3.4,5.2-8.7,8-15,5c-1.1-0.5-2.1-1.4-2.7-2.4
	c-1.8-3.2-1.9-6.7-0.3-10c0.6-1.2,1.9-2.1,3-2.7c1.3-0.7,2.2-2.5,4.1-2c0.4,0.1,0.9,0,1.3,0C55.8,29.7,55.8,29.6,55.8,29.5z
	 M48.6,39.2c0.1,3.6,1.5,5.6,4.7,6.3c3.5,0.8,7.9-1.1,9.8-4.3c2.4-4.2,0.7-8-4.1-8.8c-2.1-0.3-4.2-1.1-6.1,1
	c-0.8,0.9-2.5,0.9-3.2,1.8C48.9,36.3,48.9,37.9,48.6,39.2z"/>
<path class="st0" d="M90.1,69.3c-0.5,4.5-5.9,7.3-10.2,5.2c-3.6-1.7-4.2-6-1.2-8.6c3.3-2.8,6.9-2.8,9.7,0.2
	C89.2,67,89.5,68.3,90.1,69.3z"/>
<path class="st0" d="M252.2,128.8c-3,0-6.1-2.9-6.2-5.8c-0.1-3.1,2.8-5.7,6.5-5.4c3.5,0.2,6.4,2.3,6.4,6.1
	C259,126.7,256.2,128.7,252.2,128.8z"/>
<path class="st0" d="M12.5,143.4c-3,0-6.1-3-6-5.8c0-3.2,2.8-5.6,6.6-5.6c3.1,0,6.4,3.1,6.4,6.1C19.5,141.2,16.5,143.4,12.5,143.4z"
	/>
<path class="st0" d="M170.4,263.3c-3.2,0-6.1-2.9-6.1-6c0-3,2.9-5.6,6.4-5.3c3.4,0.3,6.4,2.2,6.4,6.2
	C177.2,261.2,174.3,263.4,170.4,263.3z"/>
<path class="st0" d="M171.5,248.2c-3.2,0-6.3-2.8-6.3-5.9c0-3,2.8-5.5,6.4-5.4c3.3,0.1,6.4,2.4,6.6,6
	C178.3,246,175.5,248.2,171.5,248.2z"/>
<path class="st0" d="M12.3,147.2c1.8,0.4,3.9,0.9,5.2,3.1c1,1.8,1.3,3.6,0.1,5.5c-1.3,2-4.6,3.2-7.3,2.5c-2.6-0.7-4.7-3-4.8-5.5
	C5.3,149.6,8.2,147.2,12.3,147.2z"/>
<path class="st0" d="M127.8,233.5c-4.1-0.1-6.5-2.2-6.4-5.5c0-3.1,3.2-5.9,6.8-5.8c3.6,0.1,6.1,2.4,6.1,5.5
	C134.2,230.8,131.1,233.6,127.8,233.5z"/>
<path class="st0" d="M251.4,159.6c-3.2,0.1-6.3-2.7-6.4-5.8c-0.1-3,2.7-5.6,6.2-5.5c3.5,0,6.6,2.6,6.7,6.1
	C257.9,157.4,255.2,159.6,251.4,159.6z"/>
<path class="st0" d="M252.3,144.6c-3.3,0-6.2-2.8-6.3-5.9c-0.1-3,2.8-5.3,6.4-5.3c3.4,0,6.4,2.8,6.5,5.9S256.2,144.6,252.3,144.6z"
	/>
<path class="st0" d="M215,139.9c0.1,1.8-1,3.2-2.4,4.3c-2.3,1.9-4.8,1.7-7.4,0.7c-2-0.8-3.2-2.3-3.1-4.6c0.3-3.9,3.1-5.7,6.4-5.9
	C212.1,134.1,215,136.7,215,139.9z"/>
<path class="st0" d="M90,85c-0.2,4.4-5.1,7.2-9.6,5.6c-3.9-1.4-4.9-5.7-2-8.7c2.9-2.9,7.9-2.7,10.3,0.5C89.3,83.2,89.6,84.1,90,85z"
	/>
<path class="st0" d="M171.5,232.4c-3.4,0-6.4-2.8-6.3-6c0-2.8,2.9-5.2,6.4-5.2c3.4,0,6.6,2.9,6.6,6
	C178.2,230.2,175.5,232.3,171.5,232.4z"/>
<path class="st0" d="M209.9,160.7c-4,0-6.6-2-6.7-5c-0.1-3.8,2.9-6,6.3-6.2c3.7-0.3,6.4,2.1,6.5,5.2
	C216,157.9,213.2,160.6,209.9,160.7z"/>
<path class="st0" d="M84.3,106.1c-4-0.1-6.6-2.2-6.5-5.3c0-3.1,3.3-6,6.7-5.9c3.6,0.1,6.3,2.3,6.3,5.3
	C90.7,103.3,87.6,106.2,84.3,106.1z"/>
<path class="st0" d="M126.2,105c-3.4,0.1-6.5-2.5-6.6-5.7c-0.1-2.9,2.7-5.5,6.1-5.5c3.7,0,6.8,2.6,6.9,6.1
	C132.7,102.8,130.1,104.9,126.2,105z"/>
<path class="st0" d="M127,90.1c-3.4,0-6.3-2.8-6.3-6c0-3.1,2.7-5.4,6.4-5.3c3.1,0.1,6.5,2.4,6.4,6.1C133.4,88,130.9,90.1,127,90.1z"
	/>
<path class="st0" d="M133.5,69c0,3.2-2.6,5.2-6.6,5.2c-3.2,0-6.2-2.9-6.1-6c0-3,2.8-5.5,6.5-5.2C130.5,63.2,133.5,65.3,133.5,69z"/>
<path class="st0" d="M13.4,127.5c-3,0.1-5.4-1.5-6.4-3.8c-0.9-2-0.5-3.9,1-5.5c1.7-1.8,4.6-2.5,6.8-1.5c1.1,0.5,2.3,1.1,3.1,1.9
	c2.9,3,1.7,7.2-2.3,8.5C14.7,127.3,13.8,127.4,13.4,127.5z"/>
<path class="st0" d="M128.8,264.3c-0.5-0.1-1.2-0.1-1.9-0.2c-2.6-0.5-4.3-2.3-4.5-4.5c-0.2-2.4,1.4-5,3.8-5.7c1.4-0.4,3-0.7,4.5-0.4
	c3.1,0.5,5,3.1,4.6,5.8C134.9,262,132,264.3,128.8,264.3z"/>
<path class="st0" d="M127.7,249.2c-4.3-0.1-6.7-2.4-6.3-6c0.4-3,4.2-5.5,7.3-5.2c3.4,0.4,5.7,2.8,5.5,5.9
	C134,246.9,131.1,249.3,127.7,249.2z"/>
<path class="st0" d="M208.5,129.8c-4-0.2-6.6-2.3-6.4-5.5c0.3-3.7,3.3-5.7,6.6-5.8c3.7,0,6.5,2.6,6.3,5.6
	C214.9,127.2,211.7,129.9,208.5,129.8z"/>
<path class="st0" d="M148.1,172.3c0.2,1,0.6,1.9,0.5,2.7c0,0.5-0.5,1.2-0.9,1.4c-0.4,0.1-1.2-0.4-1.4-0.8c-0.4-0.9-0.6-1.9-0.8-2.9
	c-1.2-0.1-2.5-0.1-3.7-0.4c-0.5-0.1-0.8-0.8-1.2-1.3c0.5-0.3,1-0.8,1.6-0.9c1-0.1,1.9,0,3.3,0c0-2.4,0-4.6,0-6.9
	c0-0.9-0.1-2.2,1.2-2c0.5,0.1,1.1,1.3,1.1,2.1c0.2,2.1,0.1,4.2,0.1,6.5c1.3-0.2,2.3-0.5,3.3-0.6c0.5,0,1.1,0.5,1.6,0.8
	c-0.4,0.5-0.6,1.2-1.1,1.4C150.7,171.9,149.5,172,148.1,172.3z"/>
<path class="st0" d="M101,11.9c0-2.5-0.1-4.8,0.1-7c0-0.7,0.8-1.3,1.2-2c0.4,0.7,1.1,1.3,1.2,2c0.2,2.1,0.1,4.3,0.1,6.7
	c1.3-0.3,2.2-0.7,3.2-0.7c0.6,0,1.2,0.6,1.7,0.9c-0.4,0.5-0.7,1.2-1.1,1.4c-1.1,0.4-2.3,0.5-3.6,0.8c0.2,0.9,0.5,1.7,0.4,2.5
	c0,0.6-0.5,1.1-0.8,1.6c-0.5-0.4-1.4-0.7-1.5-1.2c-0.2-2.2-1.3-3-3.4-2.7c-0.4,0.1-0.9,0-1.3-0.2c-0.4-0.3-0.7-0.8-1-1.2
	c0.4-0.3,0.8-0.9,1.3-1C98.5,11.8,99.6,11.9,101,11.9z"/>
<path class="st0" d="M228.7,66.2c1.3-0.3,2.3-0.6,3.3-0.7c0.5,0,1,0.6,1.6,0.9c-0.3,0.5-0.5,1.2-1,1.4c-1.1,0.4-2.3,0.6-3.6,0.9
	c0.1,0.9,0.4,1.7,0.4,2.5c0,0.6-0.5,1.1-0.8,1.6c-0.5-0.3-1.2-0.6-1.4-1.1c-0.4-0.8-0.5-1.8-0.8-2.7c-1.2-0.1-2.5-0.1-3.6-0.3
	c-0.5-0.1-0.8-0.7-1.2-1.1c0.5-0.4,0.9-0.9,1.4-1c1-0.2,2.1,0,3.4,0c0-2.5-0.1-4.9,0.1-7.2c0-0.6,0.7-1.2,1.1-1.7
	c0.4,0.6,1.1,1.2,1.1,1.8C228.8,61.6,228.7,63.8,228.7,66.2z"/>
<path class="st0" d="M83.7,14.6c-1.5-0.1-2.9-0.2-4.3-0.4c-0.6-0.1-1-0.8-1.6-1.1c0.5-0.4,1-1,1.5-1c1.4-0.1,2.8,0,4.5,0
	c0-1.2-0.1-2.6,0.1-3.9c0-0.7,0.7-1.2,1.1-1.8c0.4,0.5,1,1,1.1,1.6c0.2,0.8,0.2,1.7,0.1,2.6c-0.2,1.7,0.6,2.1,2.1,2.1
	c1,0,2.7-0.5,2.7,1.1c0,1.8-1.7,1.1-2.8,1.2c-0.5,0.1-1.1,0-1.9,0c0,0.9,0.1,1.7,0,2.5c-0.1,0.5-0.7,1-1,1.5
	c-0.5-0.5-1.2-0.8-1.4-1.4C83.6,16.8,83.7,15.8,83.7,14.6z"/>
<path class="st0" d="M140,10.2c0-1.8-0.1-3.4,0-5c0-0.5,0.6-1,1-1.5c0.5,0.5,1.2,1,1.3,1.6c0.3,1.6,0.3,3.3,0.5,5.2
	c0.9,0,1.7-0.2,2.5,0c0.6,0.2,1.1,0.8,1.6,1.2c-0.5,0.4-0.9,1-1.5,1.2s-1.3,0-2.2,0c0.2,1.1,0.6,2,0.6,2.8c0,0.6-0.6,1.2-0.9,1.8
	c-0.5-0.4-1.4-0.7-1.4-1.2c-0.2-2.9-1.6-4.2-4.5-4.2c-0.5,0-1.1-1-1.6-1.6c0.7-0.2,1.4-0.6,2.2-0.6C138.3,9.9,139.1,10.1,140,10.2z"
	/>
<path class="st0" d="M128.4,170.3c0-1.4-0.1-2.7,0-3.9c0.1-0.5,0.6-1,0.9-1.5c0.5,0.5,1.3,0.9,1.4,1.5c0.2,1.4,0.1,2.8,0.1,4.5
	c1.3,0,2.4-0.1,3.4,0.1c0.6,0.1,1,0.8,1.5,1.2c-0.5,0.4-0.9,1-1.4,1.1c-1,0.2-2.1,0.1-3.3,0.1c0,0.9,0.1,1.9-0.1,2.8
	c-0.1,0.5-0.7,1.1-1.1,1.1c-0.4,0-0.8-0.6-1.2-1c0,0,0-0.1,0-0.2c-0.6-3.5-0.6-3.5-4.3-3.7c-0.8,0-1.9,0-1.7-1.1
	c0.1-0.5,1.1-1.1,1.7-1.1C125.5,170,126.7,170.2,128.4,170.3z"/>
<path class="st0" d="M184.5,168.4c0-1.8-0.1-3.4,0.1-5c0.1-0.6,0.7-1.1,1.1-1.6c0.4,0.6,0.9,1.1,1.1,1.7c0.2,0.7,0.1,1.5,0.1,2.2
	c0.1,2,0.5,3.6,3.1,3c0.3-0.1,0.8,0.7,1.2,1c-0.4,0.4-0.8,1.1-1.3,1.3c-0.6,0.2-1.3,0.1-2.2,0.1c0.2,1.1,0.5,2,0.5,2.9
	c0,0.5-0.5,1.1-0.8,1.6c-0.5-0.3-1.4-0.6-1.4-1c-0.2-3.1-1.9-4.2-4.8-4.4c-0.5,0-1.5-1.1-1.5-1.6c0.2-1.2,1.2-0.8,2.1-0.6
	C182.7,168.2,183.6,168.3,184.5,168.4z"/>
<path class="st0" d="M282.5,66.9c0.3,1.2,0.6,2.1,0.6,3c0,0.5-0.5,1-0.7,1.5c-0.5-0.3-1.5-0.6-1.5-0.9c-0.1-3.3-2-4.4-5-4.4
	c-0.5,0-1-1-1.5-1.5c0.6-0.2,1.3-0.7,1.9-0.7c1,0,1.9,0.2,2.9,0.3c0-1.7-0.1-3.3,0.1-4.9c0.1-0.6,0.8-1.2,1.2-1.7
	c0.4,0.5,0.9,1.1,1,1.7c0.2,0.7,0.1,1.5,0.2,2.2c0.3,2.7,0.3,2.6,3.1,3.1c0.4,0.1,1.1,0.7,1.1,1.1c0,0.4-0.6,1-1,1.2
	C284.3,67,283.5,66.9,282.5,66.9z"/>
<path class="st0" d="M268.1,65c1,0,1.8-0.1,2.6,0.1c0.5,0.1,0.9,0.8,1.3,1.2c-0.5,0.4-0.9,0.9-1.4,1.1c-0.5,0.2-1.2,0-2.1,0
	c0.2,0.9,0.3,1.6,0.4,2.3c0.2,0.9,0.5,2.1-0.8,2.2c-0.5,0-1.3-1-1.6-1.8c-0.4-0.8-0.4-1.8-0.6-2.7c-1.5-0.3-3-0.5-4.4-1
	c-0.5-0.1-0.8-0.9-1.1-1.4c0.5-0.3,1.1-0.8,1.6-0.8c1.1,0,2.2,0.3,3.2,0.4c0-1.8-0.1-3.4,0.1-5c0.1-0.6,0.7-1.1,1.1-1.6
	c0.4,0.5,1,1,1.1,1.6C267.9,61.5,267.9,63.2,268.1,65z"/>
<path class="st0" d="M29.1,66.2c0.2,1.1,0.5,1.9,0.4,2.8c0,0.6-0.5,1.2-0.8,1.8c-0.5-0.4-1.3-0.7-1.5-1.2c-0.4-1-0.5-2.2-0.8-3.3
	c-1.2-0.2-2.4-0.4-3.7-0.6c-0.9-0.2-2.1-0.3-1.7-1.6c0.1-0.4,1.4-0.6,2.1-0.7c0.8,0,1.7,0.2,2.6,0.3c0-1.8-0.1-3.5,0.1-5.1
	c0.1-0.6,0.7-1.1,1.1-1.6c0.4,0.5,0.9,1,1.1,1.6c0.2,0.8,0.2,1.6,0.2,2.4c0,2.1,0.6,3.5,3.1,3c0.3-0.1,0.8,0.7,1.2,1.1
	c-0.4,0.4-0.8,1-1.3,1.2C30.7,66.4,30,66.2,29.1,66.2z"/>
<path class="st0" d="M209,69.1c-1.5-0.1-2.9-0.2-4.3-0.4c-0.5-0.1-1-0.7-1.4-1c0.5-0.4,0.9-1.1,1.5-1.2c1.4-0.2,2.8-0.1,4.4-0.1
	c0-1.3-0.1-2.6,0.1-4c0.1-0.5,0.7-0.9,1.1-1.4c0.4,0.5,0.8,0.9,1.1,1.4c0.1,0.2,0,0.6,0,0.9c0,3.5,0,3.4,3.5,3.9
	c0.5,0.1,0.9,0.7,1.3,1.1c-0.5,0.4-0.9,1-1.4,1.1c-1,0.2-2.1,0.1-3.3,0.1c0,0.9,0.1,1.8,0,2.6c-0.1,0.5-0.7,1-1,1.5
	c-0.5-0.5-1.1-0.8-1.3-1.4C209,71.3,209.1,70.3,209,69.1z"/>
<path class="st0" d="M87,285.1c-2.1,0-4.9-2.2-4.9-4c-0.1-2.3,1.6-4,3.9-4c2.5,0,4.6,1.8,4.7,4.1C90.7,283.5,89.2,285.1,87,285.1z
	 M88.2,282c-0.1-1.9-1-2.5-2.2-2.4c-0.5,0-1.1,0.8-1.6,1.2c0.9,0.7,1.7,1.5,2.6,2.1C87.2,282.9,87.9,282.2,88.2,282z"/>
<path class="st0" d="M92.1,229.7c0,2.2-1.6,3.8-3.7,3.7c-2,0-4.9-2.5-4.9-4.1c0-2.1,1.9-4,4.1-3.9C90.1,225.4,92.1,227.4,92.1,229.7
	z M88,227.1c-1,1-1.5,1.4-2,1.9c0.9,0.7,1.7,1.5,2.6,2.2c0.1,0.1,1.1-0.9,1.1-1.1C89.4,229.2,88.7,228.4,88,227.1z"/>
<path class="st0" d="M233.1,193.8c0-2.2,1.8-4,4-4c2.4,0,4.5,2,4.6,4.2c0,2.2-1.6,3.8-3.7,3.8C235.9,197.8,233.1,195.5,233.1,193.8z
	 M235.2,193.3c1,0.8,1.4,1.3,2,1.6c0.5,0.3,1.3,0.6,1.6,0.3c0.4-0.3,0.7-1.3,0.5-1.6c-0.5-0.7-1.3-1.4-2-1.6
	C236.6,192.1,235.9,192.9,235.2,193.3z"/>
<path class="st0" d="M108.3,249.2c-2.2,0-4.8-2.3-4.8-4.1c0-2.3,1.6-3.9,4-3.8c2.6,0,4.5,1.9,4.5,4.2
	C112,247.8,110.6,249.2,108.3,249.2z M105.3,244.6c1.1,1,1.6,1.5,2.2,1.9c0.4,0.2,1.1,0.4,1.5,0.2c0.3-0.2,0.7-1.1,0.5-1.4
	c-0.4-0.7-1-1.5-1.7-1.6C107.2,243.6,106.4,244.2,105.3,244.6z"/>
<path class="st0" d="M105.9,181.4c2.4,0,4.4,1.6,4.6,3.8c0.2,2.1-1.1,3.9-3.1,4.1c-1,0.1-2.1-0.3-2.9-0.8c-0.9-0.5-2-1.3-2.3-2.2
	C101.3,183.6,103.1,181.4,105.9,181.4z M106,183.1c-0.9,0.9-1.3,1.4-1.7,1.9c0.9,0.7,1.7,1.5,2.6,2.1c0,0,1.2-1,1.1-1.3
	C107.6,184.9,106.9,184.2,106,183.1z"/>
<path class="st0" d="M165.2,170.7c0.9-1.4-0.5-3.5,1.7-3.5c0.5,0,1.1,1.9,1.8,3.3c0.4,0,1.4-0.1,2.3,0c0.5,0.1,1,0.7,1.5,1
	c-0.4,0.5-0.7,1.2-1.2,1.3c-1,0.2-2.1,0.2-2.7,0.6c-0.6,0.8-1.2,1.7-1.8,2.5c-0.6-0.8-1.1-1.7-1.7-2.5c0.1-0.2,0.2-0.4,0.4-0.5
	c-1,0-1.9,0.1-2.9,0c-0.5-0.1-0.8-0.7-1.2-1.1c0.4-0.4,0.7-1,1.2-1.1C163.5,170.6,164.4,170.7,165.2,170.7z"/>
<path class="st0" d="M246.1,69.2c-0.9,0-1.9,0.1-2.8,0c-0.5-0.1-0.8-0.7-1.2-1c0.4-0.4,0.7-1,1.2-1.1c0.9-0.2,1.8-0.1,2.9-0.1
	c0.1-0.6,0.2-1.1,0.2-1.6c0-0.9,0-2.1,1.3-2c0.5,0.1,0.8,1.3,1.2,2.1c0.1,0.3,0.1,0.7,0.1,1.3c1,0,2.1-0.1,3.1,0.1
	c0.5,0.1,0.9,0.7,1.4,1.1c-0.4,0.4-0.7,1-1.2,1.1c-1,0.2-2.1,0.2-2.6,0.2c-0.7,1.2-1.3,2-1.8,2.9c-0.6-0.8-1.2-1.7-1.9-2.5
	C246,69.6,246,69.4,246.1,69.2z"/>
<path class="st0" d="M9.4,65.7c1.1,0,2.1-0.1,2.9,0c0.5,0.1,1,0.7,1.5,1.1c-0.5,0.4-0.9,1-1.4,1.2c-0.9,0.2-1.9,0.2-2.4,0.2
	c-0.8,1.2-1.3,2.1-1.8,2.9c-0.6-0.8-1.3-1.6-1.9-2.5c0.1-0.2,0.2-0.4,0.3-0.5c-1,0-2,0.1-2.9,0c-0.4-0.1-1.1-0.7-1.1-0.9
	c0.1-0.5,0.6-1.2,1-1.2c0.9-0.2,1.9-0.1,3-0.1c0.1-0.9-0.1-1.7,0.2-2.4C7,63,7.6,62.6,8,62.1c0.4,0.4,0.9,0.8,1.1,1.3
	C9.4,64,9.4,64.8,9.4,65.7z"/>
<path class="st0" d="M123.4,12.3c1.1,0,2-0.1,2.8,0c0.6,0.1,1.2,0.7,1.8,1.1c-0.6,0.4-1.1,0.9-1.7,1.2c-0.4,0.2-1-0.1-1.5,0.1
	c-0.5,0.2-1.1,0.7-1.3,1.2c-0.3,0.8,0,2-1.2,1.8c-0.5-0.1-0.8-1.2-1.2-1.9c-0.1-0.3-0.1-0.5-0.1-1c-0.9-0.1-1.8,0-2.7-0.2
	c-0.6-0.1-1.1-0.5-1.6-0.8c0.5-0.5,0.9-1.2,1.5-1.3c0.9-0.2,1.8-0.1,3-0.1c0-0.9-0.1-1.6,0-2.3c0.2-0.5,0.7-0.9,1.1-1.4
	c0.4,0.5,0.9,0.9,1.1,1.4C123.5,10.8,123.4,11.5,123.4,12.3z"/>
<path class="st0" d="M211.1,191.6c2.3,0,3.8,2.1,3.2,4c-0.6,2-3.3,3.5-5.4,3.1c-2.3-0.5-2.8-1.8-1.8-3.9
	C208.1,193,209.2,191.5,211.1,191.6z M209.1,195.9c0.3,0.3,0.6,0.6,0.9,0.8c0.7-0.7,1.4-1.4,2.1-2.1c-0.3-0.3-0.8-0.8-0.8-0.7
	C210.4,194.6,209.8,195.2,209.1,195.9z"/>
<path class="st0" d="M41.3,200c0-1.4-0.1-2.9,0.1-4.3c0.1-0.5,0.7-0.9,1.2-1.4c0.4,0.5,1.2,0.9,1.2,1.4c0.1,2.8,0.1,5.7,0,8.5
	c0,0.4-0.8,1.2-1.1,1.1c-0.5-0.1-1.2-0.7-1.3-1.1C41.2,202.9,41.3,201.5,41.3,200L41.3,200z"/>
<path class="st0" d="M183.9,146.3c0-1.4-0.1-2.7,0.1-4.1c0.1-0.6,0.8-1.1,1.2-1.6c0.4,0.5,1.1,1.1,1.1,1.6c0.1,2.7,0.1,5.3,0,8
	c0,0.5-0.8,1-1.2,1.5c-0.4-0.5-1.1-1-1.2-1.6C183.8,148.9,183.9,147.6,183.9,146.3L183.9,146.3z"/>
<path class="st0" d="M252.7,201.7c0-1.4-0.1-2.7,0.1-4.1c0.1-0.5,0.7-0.9,1.1-1.4c0.4,0.5,1.1,0.9,1.1,1.4c0.1,2.7,0.2,5.5,0.1,8.2
	c0,0.5-0.8,1.1-1.2,1.6c-0.4-0.6-1.1-1.1-1.2-1.7C252.5,204.3,252.6,203,252.7,201.7C252.6,201.7,252.6,201.7,252.7,201.7z"/>
<path class="st0" d="M283.2,201.3c0,1.3,0.1,2.6-0.1,3.9c-0.1,0.6-0.8,1-1.2,1.5c-0.4-0.4-1.2-0.9-1.2-1.3c-0.1-2.8-0.1-5.7,0.1-8.5
	c0-0.4,0.7-1.1,1.1-1.1s1.1,0.7,1.1,1.1C283.3,198.3,283.2,199.8,283.2,201.3L283.2,201.3z"/>
<path class="st0" d="M182.5,145.6c-0.2,1.7-0.2,3.3-0.5,5c-0.1,0.5-0.9,0.9-1.4,1.4c-0.4-0.6-1.1-1.1-1.1-1.7c0-2.5,0.2-5,0.4-7.4
	c0.1-0.6,0.8-1.1,1.2-1.7c0.4,0.6,1,1.2,1.1,1.8c0.2,0.8,0,1.7,0,2.6C182.4,145.6,182.4,145.6,182.5,145.6z"/>
<path class="st0" d="M13.2,200.5c0-1.4-0.1-2.9,0-4.3c0-0.5,0.7-0.9,1-1.3c0.4,0.4,1.2,0.8,1.2,1.3c0.1,2.8,0.2,5.6,0.1,8.3
	c0,0.5-0.8,0.9-1.3,1.4c-0.4-0.5-1-0.9-1.1-1.4C13,203.2,13.1,201.8,13.2,200.5C13.1,200.5,13.1,200.5,13.2,200.5z"/>
<path class="st0" d="M154.1,145.5c-0.2,1.9-0.2,3.7-0.5,5.5c-0.1,0.5-0.9,0.9-1.4,1.4c-0.4-0.5-1.1-1.1-1.1-1.6
	c0-2.5,0.2-5.1,0.4-7.6c0.1-0.6,0.8-1,1.2-1.6c0.4,0.5,1,1,1.1,1.6c0.2,0.7,0,1.5,0,2.2C154,145.5,154,145.5,154.1,145.5z"/>
<path class="st0" d="M11.7,199.6c-0.1,1.7-0.2,3.5-0.5,5.2c-0.1,0.5-0.9,1-1.4,1.4c-0.4-0.5-1.1-1.1-1.1-1.6c0-2.5,0.2-5,0.5-7.4
	c0.1-0.6,0.7-1.1,1.1-1.7c0.4,0.6,1.1,1.1,1.2,1.7C11.7,197.9,11.6,198.8,11.7,199.6C11.6,199.6,11.7,199.6,11.7,199.6z"/>
<path class="st0" d="M251.2,201c-0.2,1.7-0.2,3.4-0.5,5c-0.1,0.5-0.9,0.9-1.4,1.4c-0.4-0.5-1-1.1-1-1.6c0-2.5,0.2-5.1,0.5-7.6
	c0.1-0.5,0.7-1,1.1-1.5c0.4,0.5,1,1,1.1,1.6c0.2,0.9,0,1.9,0,2.8C251.1,201,251.2,201,251.2,201z"/>
<path class="st0" d="M76.2,199.9c0,1.2,0.1,2.4-0.1,3.5c-0.1,0.6-0.8,1.1-1.2,1.7c-0.4-0.5-1.2-1-1.2-1.5c-0.1-2.5-0.1-5,0.1-7.6
	c0-0.5,0.7-0.9,1.1-1.4c0.4,0.5,1.1,1,1.2,1.5C76.3,197.3,76.2,198.6,76.2,199.9L76.2,199.9z"/>
<path class="st0" d="M133.7,147.8c0,1.2,0.1,2.4,0,3.5c-0.1,0.5-0.7,1-1,1.4c-0.4-0.4-1.2-0.8-1.2-1.2c-0.1-2.8,0-5.6,0.1-8.3
	c0-0.4,0.7-0.8,1-1.1c0.4,0.4,1.1,0.8,1.1,1.2C133.8,144.8,133.7,146.3,133.7,147.8L133.7,147.8z"/>
<path class="st0" d="M45.3,200.4c0-1.2-0.1-2.5,0.1-3.7c0.1-0.6,0.7-1.1,1.1-1.6c0.4,0.5,1.2,1,1.2,1.5c0.1,2.5,0.2,5,0,7.4
	c0,0.5-0.8,1-1.2,1.6c-0.4-0.6-1.1-1.1-1.2-1.7C45.1,202.7,45.3,201.6,45.3,200.4L45.3,200.4z"/>
<path class="st0" d="M37.4,200.4c0-1.4-0.1-2.7,0.1-4.1c0.1-0.5,0.8-0.9,1.2-1.3c0.3,0.4,0.9,0.9,0.9,1.3c0,2.7-0.1,5.3-0.3,8
	c0,0.5-0.8,0.9-1.3,1.4c-0.4-0.5-1-1.1-1.1-1.7c-0.1-1.2,0.2-2.5,0.3-3.7C37.3,200.4,37.3,200.4,37.4,200.4z"/>
<path class="st0" d="M176.5,142.5c-0.5,0.3-1,0.8-1.6,0.9c-2.7,0.4-5.4,0.7-8.1,1c-0.4,0-1.1-0.5-1.3-0.9c-0.1-0.2,0.4-1.1,0.8-1.2
	c1.5-0.4,3.1-0.7,4.7-0.9c1.2-0.2,2.5-0.3,3.7-0.3c0.6,0,1.2,0.5,1.9,0.8C176.5,142.1,176.5,142.3,176.5,142.5z"/>
<path class="st0" d="M263.2,199c0,0-0.6-0.3-0.7-0.7s0.3-1.1,0.7-1.3c1-0.4,2.1-0.6,3.2-0.8c1.7-0.2,3.5-0.4,5.2-0.4
	c0.6,0,1.1,0.6,1.7,1c-0.5,0.5-0.9,1.3-1.4,1.4C269.2,198.5,266.5,198.7,263.2,199z"/>
<path class="st0" d="M157.9,146.8c0,1.3,0.1,2.6-0.1,3.9c-0.1,0.6-0.8,1-1.2,1.6c-0.4-0.5-1.2-1-1.2-1.5c-0.1-2.7-0.1-5.4,0-8.2
	c0-0.5,0.8-1,1.2-1.5c0.4,0.5,1,0.9,1,1.5C157.9,144,157.8,145.4,157.9,146.8C157.8,146.8,157.9,146.8,157.9,146.8z"/>
<path class="st0" d="M279.3,200.9c-0.1,1.5-0.2,3.1-0.5,4.6c-0.1,0.5-0.9,1-1.3,1.4c-0.4-0.5-1-1.1-1-1.6c0-2.6,0.2-5.2,0.5-7.8
	c0-0.5,0.7-0.9,1.1-1.4c0.4,0.5,1,0.9,1.1,1.4c0.2,1.1,0.1,2.2,0.1,3.3C279.2,200.9,279.3,200.9,279.3,200.9z"/>
<path class="st0" d="M31.2,194.6c0.1,0,0.2,0,0.4,0c0.9,0,2.2-0.4,2.1,1c0,0.5-1.2,1.2-2,1.3c-1.9,0.3-3.8,0.4-5.7,0.6
	c-0.3,0-0.6,0-0.9,0.1c-0.9,0.3-1.9,0.4-2.1-0.7c-0.1-0.5,0.9-1.4,1.6-1.5c2.2-0.5,4.4-0.7,6.6-1C31.2,194.6,31.2,194.6,31.2,194.6z
	"/>
<path class="st0" d="M61,194.3c0.2,0.2,1,0.6,1,1c0,0.5-0.6,1.3-1.1,1.4c-2.8,0.4-5.6,0.8-8.5,1c-0.4,0-1.1-0.5-1.1-0.9
	c-0.1-0.4,0.4-1.1,0.8-1.2c1-0.4,2.1-0.6,3.2-0.8C57,194.6,58.8,194.5,61,194.3z"/>
<path class="st0" d="M138,144.5c0,0-0.8-0.4-0.7-0.7c0.1-0.5,0.5-1.4,0.9-1.5c1.9-0.4,3.8-0.7,5.7-0.9c0.8-0.1,1.6-0.2,2.4-0.1
	c0.6,0.1,1.1,0.5,1.7,0.8c-0.5,0.5-0.9,1.1-1.4,1.3c-0.6,0.3-1.4,0.2-2.2,0.3C142.4,144,140.4,144.3,138,144.5z"/>
<path class="st0" d="M68.2,199.4c-0.1,1.5-0.2,3.1-0.5,4.6c-0.1,0.5-0.8,0.8-1.3,1.3c-0.3-0.5-1-1-1-1.5c0-2.7,0.2-5.3,0.4-8
	c0-0.5,0.7-0.9,1-1.3c0.4,0.5,1,0.9,1.1,1.4c0.2,1.2,0.1,2.4,0.1,3.5C68.1,199.4,68.2,199.4,68.2,199.4z"/>
<path class="st0" d="M129.7,147.2c0,1.3,0.1,2.6-0.1,3.9c-0.1,0.6-0.7,1.1-1.1,1.6c-0.4-0.5-1-1-1-1.4c-0.1-2.7-0.1-5.4,0.1-8.2
	c0-0.5,0.7-0.9,1-1.4c0.4,0.5,1,1,1,1.5C129.7,144.5,129.6,145.8,129.7,147.2C129.6,147.2,129.7,147.2,129.7,147.2z"/>
<path class="st0" d="M125.8,147c-0.2,1.5-0.2,3.1-0.5,4.6c-0.1,0.4-0.8,0.8-1.2,1.2c-0.3-0.5-1-1-1-1.5c0-2.7,0.2-5.3,0.4-8
	c0-0.4,0.6-0.8,0.9-1.2c0.4,0.5,1.1,0.9,1.2,1.4c0.2,1.2,0.1,2.4,0.1,3.5C125.6,147,125.7,147,125.8,147z"/>
<path class="st0" d="M159.6,147c0-1.4-0.1-2.7,0.1-4.1c0-0.4,0.7-0.8,1-1.2c0.4,0.4,1.1,0.8,1.1,1.2c0.1,2.7,0.2,5.5,0.1,8.2
	c0,0.4-0.8,0.9-1.2,1.3c-0.4-0.5-1-0.9-1.1-1.4C159.4,149.6,159.5,148.3,159.6,147L159.6,147z"/>
<path class="st0" d="M19.6,201c0,1.2,0.1,2.5-0.1,3.7c-0.1,0.5-0.7,0.9-1.2,1.3c-0.4-0.5-1.1-0.9-1.1-1.4c-0.1-2.6-0.1-5.2,0-7.8
	c0-0.5,0.7-0.9,1.1-1.4c0.4,0.5,1,0.9,1.1,1.4C19.6,198.3,19.5,199.6,19.6,201C19.5,201,19.6,201,19.6,201z"/>
<path class="st0" d="M259,202c0,1.3,0.1,2.6-0.1,3.9c-0.1,0.5-0.7,0.9-1.1,1.4c-0.4-0.5-1.1-0.9-1.1-1.4c-0.1-2.7-0.1-5.3,0-8
	c0-0.5,0.8-0.9,1.2-1.3c0.4,0.4,1,0.8,1,1.3C259.1,199.3,259,200.7,259,202L259,202z"/>
<path class="st0" d="M69.9,204.6c0-3.2,0-6.5,0.1-9.7c0-0.3,0.7-0.9,1.1-0.9s1,0.6,1,1c0.1,2.5,0.2,5.1,0,7.6
	c-0.1,0.8-1,1.5-1.6,2.3C70.3,204.8,70.1,204.7,69.9,204.6z"/>
<path class="st0" d="M190.4,146.3c0,1.4,0.1,2.7-0.1,4.1c-0.1,0.5-0.8,0.9-1.2,1.3c-0.4-0.5-1.1-0.9-1.1-1.4c-0.1-2.6-0.1-5.2,0-7.8
	c0-0.5,0.8-0.9,1.2-1.4c0.4,0.5,1,0.9,1.1,1.4C190.5,143.8,190.3,145.1,190.4,146.3L190.4,146.3z"/>
<path class="st0" d="M55.8,205.3c-1.1,0-2.3,0.1-3.3-0.1c-0.4-0.1-1-0.6-1.1-1.1c-0.1-0.2,0.6-1,1-1c2.3-0.1,4.6-0.2,6.9-0.2
	c0.4,0,0.8,0.8,1.2,1.3c-0.4,0.4-0.8,1-1.3,1.1c-1.1,0.2-2.2,0.1-3.3,0.1C55.8,205.4,55.8,205.3,55.8,205.3z"/>
<path class="st0" d="M138.4,148.5c0,0-0.6-0.3-0.6-0.6c-0.1-0.4,0.2-1.3,0.5-1.3c2.6-0.4,5.1-0.8,7.7-1c0.2,0,0.9,0.9,0.8,1.2
	c-0.1,0.5-0.7,1.1-1.2,1.1C143.4,148.1,141.1,148.3,138.4,148.5z"/>
<path class="st0" d="M61.5,199.8c-0.8,0.5-1.3,1-1.8,1.1c-2.1,0.4-4.3,0.6-6.4,0.8c-0.5,0-1-0.5-1.4-0.8c0.3-0.4,0.5-1.2,0.8-1.2
	c2.4-0.4,4.9-0.8,7.3-1C60.3,198.6,60.7,199.2,61.5,199.8z"/>
<path class="st0" d="M24.1,202.6c-0.2-0.5-0.5-1-0.5-1.6c0-0.4,0.4-1.2,0.7-1.2c2.4-0.4,4.9-0.8,7.3-1c0.3,0,1,0.7,1,1
	c-0.1,0.5-0.6,1.2-1,1.3c-2.3,0.3-4.5,0.5-6.8,0.7C24.5,202.1,24.3,202.4,24.1,202.6z"/>
<path class="st0" d="M172.6,145.3c0.5,0,1-0.1,1.5,0c0.4,0.2,1,0.7,1,1c0,0.4-0.5,1.1-0.9,1.2c-2.4,0.4-4.8,0.6-7.2,0.8
	c-0.3,0-1.1-0.6-1-0.8c0.1-0.5,0.5-1.3,0.9-1.4c1.8-0.5,3.7-0.7,5.6-1C172.6,145.2,172.6,145.2,172.6,145.3z"/>
<path class="st0" d="M271,199.8c0.3,0.3,1,0.8,1,1.2c0,0.5-0.6,1.2-1.1,1.3c-2.2,0.4-4.4,0.7-6.6,0.8c-0.4,0-0.9-0.6-1.3-1
	c0.4-0.5,0.7-1.3,1.2-1.4C266.4,200.4,268.5,200.2,271,199.8z"/>
<path class="st0" d="M27.5,205.5c-1.2,0-2.4,0.1-3.5-0.1c-0.4-0.1-0.8-0.7-1.1-1.1c0.4-0.3,0.7-1,1.1-1c2.3-0.1,4.6-0.1,6.9,0
	c0.4,0,0.8,0.7,1.2,1.1c-0.4,0.4-0.8,1-1.2,1.1C29.8,205.6,28.6,205.5,27.5,205.5L27.5,205.5z"/>
<path class="st0" d="M169.8,152c-1,0-2.1,0.1-3.1-0.1c-0.5-0.1-0.8-0.7-1.3-1.1c0.4-0.4,0.7-1.1,1.2-1.1c2.2-0.2,4.4-0.2,6.7-0.2
	c0.4,0,0.9,0.8,1.3,1.2c-0.4,0.4-0.8,1.1-1.2,1.1C172.2,152.1,171,152,169.8,152z"/>
<path class="st0" d="M266.9,206.7c-1.1,0-2.1,0.1-3.2,0c-0.5-0.1-0.9-0.6-1.3-1c0.3-0.4,0.6-1.1,1-1.1c2.4-0.1,4.8-0.1,7.3-0.1
	c0.3,0,0.8,0.8,0.8,1.2c-0.1,0.4-0.6,1-1.1,1C269.3,206.8,268.1,206.7,266.9,206.7L266.9,206.7z"/>
<path class="st0" d="M141.6,152c-1.1,0-2.2,0.1-3.3,0c-0.4,0-0.8-0.6-1.2-0.9c0.3-0.4,0.6-1.1,1-1.1c2.3-0.1,4.7-0.1,7,0
	c0.4,0,0.8,0.8,0.9,1.3c0,0.2-0.7,0.8-1.1,0.8C143.8,152.2,142.7,152.1,141.6,152C141.6,152.1,141.6,152.1,141.6,152z"/>
<path class="st0" d="M259.6,178c1.4,0.2,2.7,0.1,3.7,0.6c0.9,0.4,1.9,1.5,1.9,2.4c0.1,0.9-0.8,2.2-1.6,2.6c-3.3,1.6-6.6,1.3-9.7-0.5
	c-0.7-0.4-1.4-1.6-1.3-2.4c0-0.6,1.1-1.5,1.9-1.7C256.2,178.5,258,178.3,259.6,178z M263.3,181.2c-2.8-1.2-5.2-0.5-8-0.3
	C258.2,182.5,260.5,182.6,263.3,181.2z"/>
<path class="st0" d="M280.7,178c1.1,0.5,2.8,0.9,4.2,1.8c2.2,1.5,2,4.1-0.6,4.8c-2,0.5-4.2,0.6-6.2,0.4c-2-0.2-3.1-1.8-3.6-3.8
	c-0.3-1.2,0.1-2,1.3-2.3C277.3,178.5,278.7,178.3,280.7,178z M284,182.2c-2-1.9-3.8-2.2-6.5-1.1C278.2,183.1,280.6,183.5,284,182.2z
	"/>
<path class="st0" d="M220.5,283.4c-3.2,0.1-6.3-2.7-6.4-5.7c-0.1-3,2.8-5.6,6.3-5.5c3.6,0,6.7,2.7,6.7,6.1
	C227.1,281.1,224.3,283.3,220.5,283.4z"/>
<path class="st0" d="M218.6,233.7c0.2-1.7,0.3-3.5,0.6-5.1c0.4-1.6,1.5-2.7,3.3-2.7s2.5,1.3,2.9,2.7c0.8,2.7,0.9,5.4-0.5,7.9
	c-0.6,1-1.5,1.9-2.4,2.4c-2,1.1-3.6,0.1-3.7-2.2c0-1,0-2,0-3C218.7,233.7,218.7,233.7,218.6,233.7z M222.4,227.7
	c-1.8,3.2-0.9,6.3-1.3,9.5C223.8,234.9,224.2,231.6,222.4,227.7z"/>
<path class="st0" d="M218.4,255.9c-0.1-2.1,0.1-4.1,1.6-5.7c1.9-2,4.3-1.5,4.9,1.1c0.5,2,0.8,4.2,0.6,6.3c-0.2,3.3-2.5,4.9-6.1,3
	c-0.4-0.2-0.7-0.9-0.8-1.4C218.5,258.2,218.5,257.1,218.4,255.9z M222.7,251.6c-0.2-0.1-0.4-0.1-0.6-0.2c-0.3,0.5-0.9,1-1,1.6
	c-0.2,1.5-0.2,3.1-0.1,4.6c0,0.6,0.7,1.1,1.1,1.6c0.4-0.6,1-1.2,1-1.7C223.1,255.6,222.8,253.6,222.7,251.6z"/>
<path class="st0" d="M179.8,282.5c-1.6-0.6-3.3-1.1-4.8-1.9c-0.6-0.3-1.2-1.4-1.1-2.1c0.1-0.6,1-1.6,1.6-1.7
	c2.9-0.4,5.9-0.6,8.8-0.6c1.2,0,2.2,1,2.3,2.5c0,1.5-0.7,2.4-2,2.8C183,281.9,181.4,282.1,179.8,282.5z M176.6,278.7
	c2.7,1.4,5.1,1.5,7.5,0.2C181.7,277.8,179.3,278.3,176.6,278.7z"/>
<path class="st0" d="M201.8,283c-3.5,0-5.8-1.6-6-4.3c0-0.7,0.4-1.7,0.9-2c2.1-1.4,7.3-1.1,9.2,0.6c0.8,0.7,1.7,2,1.5,2.9
	c-0.1,0.9-1.4,1.8-2.4,2.2C204.1,282.8,202.9,282.8,201.8,283z M205.3,279.8c-2-2.1-4.2-1.6-6.5-1.4
	C199,280.8,201.3,281.2,205.3,279.8z"/>
<path class="st0" d="M175.8,129.2c-3.2,0-6.2-2.8-6.2-5.9c0-3,2.8-5.5,6.4-5.3c3.3,0.2,6.4,2.2,6.5,6.1
	C182.5,127.1,179.9,129.1,175.8,129.2z"/>
<path class="st0" d="M174.2,79.8c0.1-1.6,0.2-3.2,0.4-4.8c0.3-1.9,1.8-3.3,3.4-3.3c2-0.1,2.7,1.4,3.1,2.9c0.7,2.6,0.9,5.3-0.6,7.7
	c-0.6,0.9-1.4,1.8-2.3,2.3c-2.1,1.2-3.8,0.2-3.9-2.2C174.3,81.5,174.3,80.7,174.2,79.8C174.2,79.8,174.2,79.8,174.2,79.8z
	 M177.8,73.6c-1.7,3.1-0.8,6.1-1.1,9.2C179.4,80.9,179.9,76.8,177.8,73.6z"/>
<path class="st0" d="M181.4,102.3c-0.1,2.4-1.1,4.3-2.7,4.9c-1.9,0.7-4.5-0.9-4.6-2.8c-0.1-1.8-0.2-3.7,0-5.5c0.1-1,0.8-2.1,1.5-2.9
	c1.6-1.7,3.7-1.4,4.5,0.8C180.8,98.5,181,100.4,181.4,102.3z M178.3,97.3c-0.3,0-0.5-0.1-0.8-0.1c-0.3,0.6-0.9,1.1-0.9,1.7
	c-0.1,1.6-0.1,3.3,0,5c0,0.4,0.6,0.8,0.9,1.1c0.4-0.4,1.2-0.7,1.2-1.1C178.6,101.7,178.4,99.5,178.3,97.3z"/>
<path class="st0" d="M136.2,123.5c1.6,0.2,2.9,0.1,3.8,0.6c0.9,0.4,1.8,1.5,1.9,2.4c0.1,0.8-0.7,1.9-1.5,2.4
	c-2.7,1.7-7.5,1.4-10-0.5c-1.7-1.3-1.6-3.2,0.3-3.9C132.6,123.9,134.6,123.8,136.2,123.5z M132.1,126.4c2.8,1.6,5.1,1.8,7.8,0.3
	C137.3,125.4,134.9,126.2,132.1,126.4z"/>
<path class="st0" d="M157.1,130.9c-3.2-0.1-5.3-1.7-5.8-4.3c-0.2-1.3,0.2-2.2,1.4-2.4c2.2-0.2,4.4-0.4,6.6-0.2
	c0.9,0.1,1.9,0.9,2.7,1.5c1.6,1.5,1.3,3.6-0.8,4.5C159.9,130.5,158.5,130.6,157.1,130.9z M160.8,127.6c-2.1-2-4.4-1.7-6.7-1.2
	C154.8,128.6,157.3,129.1,160.8,127.6z"/>
<path class="st0" d="M62.2,182.5c-3.9,0-7-3-6.8-6.2c0.2-3,3.6-5.7,6.9-5c1.7,0.4,3.5,1.3,4.7,2.6c2.6,2.8,1.2,7-2.4,8.1
	C63.7,182.3,62.7,182.4,62.2,182.5z"/>
<path class="st0" d="M60,133.1c0.2-1.8,0.3-3.6,0.6-5.3c0.3-1.7,1.5-2.6,3.1-2.8c1.7-0.2,2.4,0.9,2.9,2.3c1,2.9,1.1,5.9-0.5,8.6
	c-0.9,1.6-2.2,2.5-4.3,2.4c-1.2-0.1-1.7-0.5-1.7-1.6C60.1,135.5,60.1,134.3,60,133.1C60.1,133.1,60,133.1,60,133.1z M62.4,136.2
	c2.8-2.1,3.3-6.1,1.1-9.2C62,130,62.8,133,62.4,136.2z"/>
<path class="st0" d="M67.2,155.5c-0.3,1-0.4,2.2-0.9,3.3c-0.6,1.3-1.8,2-3.2,1.7c-1.5-0.4-3.2-0.7-3.1-2.9c0-1.7-0.2-3.4,0-5
	c0.1-1.1,0.6-2.3,1.3-3c0.7-0.8,2-1.5,3-1.4c0.8,0.1,1.8,1.3,2.1,2.2C66.8,152,66.8,153.6,67.2,155.5z M64,150.1
	c-2.4,2.2-1.8,4.4-1.7,6.5c0,0.6,0.6,1.1,1,1.7c0.4-0.6,1.2-1.2,1.2-1.8C64.5,154.6,64.2,152.6,64,150.1z"/>
<path class="st0" d="M22,176.9c1.1,0.1,2.4-0.2,3.3,0.3c1,0.5,2,1.4,2.4,2.4c0.5,1.3-0.6,2.3-1.8,2.9c-3.3,1.6-6.5,1-9.5-0.7
	c-0.7-0.4-1.3-1.5-1.3-2.2c0-0.6,0.9-1.6,1.6-1.8c1.7-0.5,3.5-0.8,5.2-1.1C21.9,176.8,22,176.9,22,176.9z M25.8,180
	c-2.8-1.1-5.2-0.6-7.9-0.2C20.6,181.2,22.9,181.6,25.8,180z"/>
<path class="st0" d="M42.5,177c2.2-0.3,4,0.4,5.6,2c1.1,1.2,1.2,2.5,0.1,3.6c-2,2-8.2,1.9-9.9-0.3c-0.7-1-1.4-2.5-1.1-3.5
	c0.2-0.8,1.9-1.2,3-1.6C41,176.9,41.8,177,42.5,177z M46.4,181.6c0-0.3,0-0.5,0-0.8c-1.2-1.5-3-1.6-4.7-1.4
	c-0.6,0.1-1.1,0.5-1.7,0.8c0.5,0.5,0.9,1.3,1.5,1.4C43.1,181.7,44.7,181.6,46.4,181.6z"/>
<path class="st0" d="M226.9,205.6c0,1.5-1.3,2.8-2.6,2.8c-1.4-0.1-3.7-2.1-3.8-3.3c0-1.6,1.5-3.2,3.1-3.3
	C225.4,201.8,226.9,203.6,226.9,205.6z"/>
<path class="st0" d="M220.6,187.3c-1.5,0.1-2.7-1.3-2.7-3.1c0-1.4,1.3-2.8,2.8-2.9c1.5-0.1,3,1.5,3.1,3.3
	C224,186.2,222.9,187.1,220.6,187.3z"/>
<path class="st0" d="M60.7,95.1c0.7,0.1,1.4,0,2,0.2c2.3,0.6,3.2,3.1,1.5,4.8c-1,1-2.3,1.9-3.7,2.2c-2.2,0.5-4-1.1-3.9-3.1
	C56.7,96.7,58.4,95,60.7,95.1z M62.9,98.2c-0.1-0.2-0.1-0.4-0.2-0.6c-0.8-0.1-1.8-0.4-2.4-0.1s-0.8,1.3-1.1,2
	c0.6,0.1,1.4,0.5,1.8,0.3C61.7,99.5,62.2,98.7,62.9,98.2z"/>
<path class="st0" d="M56,42.2c-2.2,0-3.6-1.3-3.6-3.3c0-1.9,1.6-4,3.1-4.1c3.2-0.1,5.2,1.1,5.2,3.2C60.6,40,58.2,42.2,56,42.2z
	 M58.5,38c-0.1-0.2-0.1-0.5-0.2-0.7c-0.8,0-1.8-0.3-2.5,0.1c-0.6,0.3-0.7,1.3-1,2.1c0.6,0.1,1.4,0.4,1.9,0.1
	C57.4,39.2,57.9,38.5,58.5,38z"/>
<path class="st0" d="M41.1,25.7c0.1-7-1.7-13.5-3.7-20.1c-0.6-2-2-3.2-4.1-3.6c-1.1-0.3-2.4-0.7-3.6-0.7c-4.3-0.1-8.7-0.1-13,0
	C13,1.3,9.5,1.1,6.6,3.3c-1,0.8-2,1.7-2.4,2.8C3.8,7.1,3.8,8,3.8,9c0,7.8,0,15.6,0,23.4c0,1.5-1.3,6.7,0.6,7.6
	c2.2,1,1.1-2.5,0.9-3.3c-0.3-1.4-0.1-1.8,0.2-3.2c0.3-1.2,1.2-2.1,2.3-2.7c2.1-1.3,4.4-1.1,6.9-1.2c2.4,0,4.9,0.2,7.3,0.2
	c2.8-0.1,5.5-0.2,8.3-0.4c1.5-0.1,6.6,0.5,6.3-1.8c-0.2-1.5-5-0.5-6.1-0.5c-4,0.2-7.9,0.5-11.9,0.6c-2.6,0.1-9.9,1.4-11.9-0.5
	c-0.4-0.4-0.6-0.9-0.7-1.4c-0.5-2.4-0.6-4.9-0.2-7.4c0.2-1.1,0.5-2.3,1.1-3.2c1.1-1.7,2.8-2.1,4.8-2.2c8.3-0.5,16.6,0.7,25.3-0.8
	c0.4,3.8,1.2,7.9,1.4,12c0.3,5.3,0.2,10.5,0.3,15.8c0,0.3,0,0.6,0,0.8c0,5.3-0.8,6.2-6.5,6.4c-5.1,0.2-10.2,0.3-15.4,0.5
	c-2.3,0.1-7,1.3-8.6-0.9c-3.8-5.1,9.5-4.4,11.3-4.5c5.1-0.3,10.2-0.5,15.3-1.1c0.8-0.1,1.7-0.2,2.4-0.5c0.4-0.1,0.8-0.7,0.8-1.1
	c0-0.3-0.7-0.8-1.1-0.8c-1.1,0-2.2,0.3-3.3,0.4c-5.1,0.4-10.3,0.7-15.4,0.9c-4.1,0.2-8.8-0.6-12.1,2.3c-1.4,1.2-1.1,4.8,0,6.2
	c1.7,2,4.2,1.5,6.5,1.5c2.7,0,5.3-0.1,8-0.2c5.2-0.2,10.4-0.7,15.5-0.7c2.2,0,3.6-1.2,4.3-3.1c0.4-1.2,0.8-2.5,0.8-3.7
	C41.2,36.8,41,31.3,41.1,25.7z M33.7,10.5c-0.3,0.1-0.7,0.1-1.1,0.1c-4.3,0-8.5,0.3-12.8,0.4c-2.8,0-5.6-0.1-8.3,0.1
	c-1.7,0.1-4.2,0.7-4.9-1.4C6.5,9.5,6.4,9.3,6.4,9.1C6.4,8,7,6.9,7.7,6c1.9-2.7,4.7-2.2,7.7-2.3c3.6-0.2,7.2-0.3,10.8-0.4
	c1.1-0.1,2.2,0,3.3,0.2c1.6,0.3,3.6,0.3,4.7,1.7C35.5,6.8,36.1,9.5,33.7,10.5z"/>
</svg>
