<?xml version="1.0" encoding="utf-8"?>
<!-- Generator: Adobe Illustrator 24.0.2, SVG Export Plug-In . SVG Version: 6.00 Build 0)  -->
<svg version="1.1" id="Capa_1" xmlns="http://www.w3.org/2000/svg" xmlns:xlink="http://www.w3.org/1999/xlink" x="0px" y="0px"
	 viewBox="0 0 288 288" style="enable-background:new 0 0 288 288;" xml:space="preserve">
<style type="text/css">
	.st0{fill:#F0BA45;}
	.st1{fill:#4A4744;}
</style>
<path class="st0" d="M294.9,79.5c-6.1-7.3-4.8-15.6-4-23.6c0.1-0.7,0.2-1.3,0.2-2c0-0.7,0.1-1.3,0.2-2c0.1-1.3,0.1-2.7,0.1-4
	c-0.5-11.2-0.3-22.6-0.1-33.9c0.2-6.7,0.3-13.6,0.4-20.3c-7.4-3.3-14.7-6.8-21.9-10.5h-55.2c-0.2,18.8-0.3,37.6-0.4,56.4
	c25.9,11.7,51.6,23.6,73.2,42.4c7.5,13.7,2.4,28.4,3.4,42.5c0.5,6.7,0.7,13.5,0.7,20.2c0,1.7,0,3.4,0,5.1c0,1.7,0,3.4,0,5.1
	c0,1.7,0,3.4,0,5.1c0,1.7,0,3.4,0,5.1c7.2,4.3,14.4,8.7,21.6,13.1V91.9C306.9,87.8,300.8,83.6,294.9,79.5z"/>
<path class="st0" d="M141.1,250.3c-18.9-10.1-38-19.6-56.3-30.4c-13.8-8.2-15.5-1.3-15.5,9.9c0.1,17.2,0.5,34.5-0.2,51.7
	c-0.2,3.7,0.3,6.7,1.4,9.5h71.1C141.4,277.4,141.3,263.9,141.1,250.3z"/>
<path class="st0" d="M291.2,250.5c-25.5-12.6-48.2-30.1-75.3-39.5c-0.2,26.7-0.3,53.4-0.5,80.1h75.5
	C290.9,277.5,291,263.9,291.2,250.5z"/>
<path class="st1" d="M65.6,276.9c-1.3-18.3-0.6-36.7-0.1-55.1c0.3-10.5-2.7-12.8-12.2-7.2C35.6,224.9,17.8,234.8,0,244.9V291h63.3
	C65.2,287.3,66,282.7,65.6,276.9z"/>
<path class="st1" d="M65.6,16.5C65.1,5.3,65.1-5.8,65.3-17H11.6c-0.4,0.2-0.8,0.6-1.3,0.8c-3,2-6.8,3.4-10.2,5.1v85.7
	c18-10.3,34-19.8,50.6-28.2C63.9,39.6,66.3,29.9,65.6,16.5z"/>
<path class="st1" d="M291.4,154.7c0-1.7,0-3.4,0-5.1c0-1.7,0-3.4,0-5.1c0-6.7-0.2-13.5-0.7-20.2c-1.1-14.2,4.1-28.9-3.4-42.5
	c-21.3,14-42.6,28.4-66.1,38.8c-4.8,2.1-6.2,5-6.2,9.5c0,25.2,0,50.4,0,79.2c27.7-16.1,52-30.3,76.3-44.5c0-1.7,0-3.4,0-5.1
	C291.4,158.1,291.4,156.4,291.4,154.7z"/>
<path class="st0" d="M64.7,204.3L64.7,204.3c0.3-27.5,0.7-54.9,1-82.4c-19.1-10-38.3-19.8-57.4-30.1c-3.2-1.7-6-2.9-8.3-3.2v83.5
	C23,180,39.3,201.2,64.7,204.3L64.7,204.3z"/>
<path class="st0" d="M69.1,24.1c-0.5,12.3,4.5,20,15.6,25.1c19,8.8,37.9,18.1,53.5,32.4c0.7,1.5,1.3,3.1,1.9,4.6
	c0.6-2.3,1.2-4.6,1.9-6.9l0,0l0,0c-1.3-16.1-1.7-32.3-1.6-48.4c0.1-12.6,0.6-25.1,1.4-37.6c-9.1-2.2-17.4-5.8-25.4-10.2H69.5
	C69.6-3.3,69.7,10.4,69.1,24.1z"/>
<path class="st1" d="M141.1,250.3c0.2,13.6,0.3,27.1,0.4,40.7h73.8c0.2-26.7,0.3-53.4,0.5-80.1C189.2,220.8,166.3,237.6,141.1,250.3
	z"/>
<path class="st1" d="M141.6,291c-0.2-13.6-0.3-27.1-0.4-40.7C141.3,263.9,141.4,277.4,141.6,291L141.6,291z"/>
<path class="st1" d="M64.7,204.3c4.3,5.3,7.6,0.2,10.6-1.5c17.8-9.8,35-20.6,53-29.9c9.6-4.9,12.2-11.2,11.9-21.1
	c-0.6-21.8-0.1-43.7,0-65.5c-0.7-1.5-1.3-3.1-1.9-4.6c-25,12.2-45.9,31.1-72.7,40.2C65.4,149.3,65.1,176.8,64.7,204.3z"/>
<path class="st1" d="M64.7,204.3L64.7,204.3c0.3-27.5,0.7-54.9,1-82.4C65.4,149.3,65.1,176.8,64.7,204.3z"/>
<path class="st1" d="M140.5,30.9c-0.2,16.1,0.3,32.3,1.6,48.4c24-13.2,46.2-29.8,72-39.9c0.2-18.8,0.3-37.6,0.4-56.4h-50.4
	c-7,4.1-14.3,7.7-22.2,10.2C141.2,5.8,140.7,18.4,140.5,30.9z"/>
<path class="st1" d="M140.5,30.9c-0.2,16.1,0.3,32.3,1.6,48.4l0,0C140.9,63.2,140.4,47,140.5,30.9z"/>
<path class="st0" d="M172.8,185.5c38.6,17,38.3,17.6,38.3-24.1c0-10.7,0.1-21.4,0-32c0-5.5-0.8-11.4-6.8-13.4
	c-16.7-5.7-30.1-17.3-45.6-25.1c-10.1-5.1-13.1-1.7-13,8.1c0.1,14.8,1.4,29.8-0.3,44.5C142.6,165.7,153.5,177,172.8,185.5z"/>
</svg>
