<?xml version="1.0" encoding="utf-8"?>
<!-- Generator: Adobe Illustrator 24.0.2, SVG Export Plug-In . SVG Version: 6.00 Build 0)  -->
<svg version="1.1" id="Capa_1" xmlns="http://www.w3.org/2000/svg" xmlns:xlink="http://www.w3.org/1999/xlink" x="0px" y="0px"
	 viewBox="0 0 288 288" style="enable-background:new 0 0 288 288;" xml:space="preserve">
<style type="text/css">
	.st0{fill:#2D2D2D;}
	.st1{fill:#002530;}
	.st2{fill:#050523;}
	.st3{fill:#707C84;}
	.st4{fill:#E9E4DE;}
	.st5{fill:#EE3133;}
	.st6{fill:#FD99AF;}
	.st7{fill:#C4C2C0;}
	.st8{fill:#F2D8A3;}
	.st9{fill:#EFCB84;}
	.st10{fill:#EF692F;}
	.st11{fill:#4B343F;}
	.st12{fill:#16B198;}
	.st13{fill:#E72D52;}
	.st14{fill:#7B536F;}
	.st15{fill:#8F4CA9;}
	.st16{fill:#E2C29F;}
	.st17{fill:#9F4687;}
	.st18{fill:#A9A0AF;}
	.st19{fill:#CC4743;}
	.st20{fill:#8677A9;}
	.st21{fill:#8E5D8E;}
	.st22{fill:#DF615C;}
	.st23{fill:#9E4742;}
	.st24{fill:#D34861;}
	.st25{fill:#B75B6D;}
	.st26{fill:#DF6482;}
	.st27{fill:#FFFFFF;}
	.st28{fill:#829CA2;}
	.st29{fill:#F2B991;}
	.st30{fill:#E56759;}
	.st31{fill:#F5F3EE;}
	.st32{fill:#DC4B3F;}
	.st33{fill:#1D5A7D;}
	.st34{fill:#459492;}
	.st35{fill:#F0A349;}
	.st36{fill:#E4EFEB;}
	.st37{fill:#E17467;}
	.st38{fill:#B6BFBD;}
	.st39{fill:#F0E2D6;}
	.st40{fill:#396D89;}
	.st41{fill:#201A21;}
	.st42{fill:#48505D;}
	.st43{fill:#0B0707;}
	.st44{fill:#D30034;}
	.st45{fill:#6C919B;}
	.st46{fill:#F68C4A;}
	.st47{fill:#E5CFCD;}
	.st48{fill:#385B4D;}
	.st49{fill:#F14206;}
	.st50{fill:#BAD2D8;}
	.st51{fill:#F70059;}
	.st52{fill:#AA000C;}
	.st53{fill:#D8B5B2;}
	.st54{fill:#E08143;}
	.st55{fill:#F2E9E9;}
	.st56{fill:#F4D085;}
	.st57{fill:#23586A;}
	.st58{fill:#17241F;}
	.st59{fill:#EAE8E1;}
	.st60{fill:#253C4F;}
	.st61{fill:#F7FCFD;}
	.st62{fill:#0E151F;}
	.st63{fill:#8D897D;}
	.st64{fill:#BDB6AA;}
	.st65{fill:#EDE1AF;}
	.st66{fill:#DF786F;}
	.st67{fill:#E8C46F;}
	.st68{fill:#B0CEAD;}
	.st69{fill:#9FC4AF;}
	.st70{fill:#B8C6A0;}
	.st71{fill:#EBEC80;}
	.st72{fill:#DD7AB2;}
	.st73{fill:#D6D2D3;}
	.st74{fill:#69BCC5;}
	.st75{fill:#D0CBC1;}
	.st76{fill:#242424;}
	.st77{fill:#525252;}
	.st78{fill:#3D3D3D;}
	.st79{fill:#6B6B6B;}
	.st80{fill:#303030;}
	.st81{fill:#8A8A8A;}
	.st82{fill:#282828;}
	.st83{fill:#E6E6E6;}
	.st84{fill:#E8E8E8;}
	.st85{fill:#A9A9A9;}
	.st86{fill:#D9D9D9;}
	.st87{fill:#CACACA;}
	.st88{fill:#9E9E9E;}
	.st89{fill:none;}
	.st90{fill:#4A4744;}
	.st91{fill:#F0BA45;}
	.st92{fill:#F1D34E;}
	.st93{fill:none;stroke:#00A591;stroke-miterlimit:10;}
	.st94{fill:#EEEEEE;}
	.st95{fill:#FBFBFB;}
	.st96{fill:#F8F2DD;}
	.st97{fill:#8DB2A6;}
	.st98{fill:#ED8C58;}
	.st99{fill:#F0C153;}
	.st100{fill:#C2B146;}
	.st101{fill:#8E6E51;}
	.st102{fill:#1C1D4C;}
	.st103{fill:#111224;}
	.st104{fill:#26687B;}
	.st105{fill:#F8494A;}
	.st106{fill:#81819B;}
	.st107{fill:#80809B;}
	.st108{fill:#0AC6BB;}
	.st109{fill:#0BC5B9;}
	.st110{fill:#686888;}
	.st111{fill:#0BC5BA;}
	.st112{fill:#FEFEFE;}
	.st113{fill:#F8F5CE;}
	.st114{fill:#EF484B;}
	.st115{fill:#F94A4A;}
	.st116{fill:#F9F6CE;}
	.st117{fill:#DFE0E3;}
	.st118{fill:#04121D;}
	.st119{fill:#6693AB;}
	.st120{fill:#89BCD7;}
	.st121{fill:#FAF509;}
	.st122{fill:#0B2E41;}
	.st123{fill:#427491;}
	.st124{fill:#2A5973;}
	.st125{fill:#184259;}
	.st126{fill:#BCE4F7;}
	.st127{fill:#02111C;}
	.st128{fill:#FCF704;}
	.st129{fill:#F4F115;}
	.st130{fill:#DFE23F;}
	.st131{fill:#BCE6FA;}
	.st132{fill:#031D2B;}
	.st133{fill:#81851A;}
	.st134{fill:#1E1E1E;}
	.st135{fill:#F5142E;}
	.st136{fill:#05ACC0;}
	.st137{fill:#F87240;}
	.st138{fill:#FA723F;}
	.st139{fill:#F67240;}
	.st140{fill:#E37547;}
	.st141{fill:#07ADC0;}
	.st142{fill:#450D0D;}
	.st143{fill:#F57240;}
	.st144{fill:#440D0D;}
	.st145{fill:#470D0D;}
	.st146{fill:#EBECCC;}
	.st147{fill:#E9EACA;}
	.st148{fill:#00ABBF;}
	.st149{fill:#F6FAD9;}
	.st150{fill:#CBC3AC;}
	.st151{fill:#E2615D;}
	.st152{fill:#FAFAF8;}
	.st153{fill:#E8E4DA;}
	.st154{fill:#123057;}
	.st155{fill:#F4D16B;}
	.st156{fill:none;stroke:#F1D34E;stroke-miterlimit:10;}
	.st157{fill:#E3834C;}
	.st158{fill:#E9A779;}
	.st159{fill:#ECB74A;}
	.st160{fill:#00A591;}
</style>
<path class="st14" d="M339,144.4c0,16.2,0,32.3,0,48.5c-3.1-1.5-5.2-4.3-7.9-6.3c-0.7-0.5-1.2-1.4-2.2-1c-1,0.4-0.8,1.4-0.8,2.2
	c0,7.6,0,15.3,0,22.9c0,1.2,0,2.4,1.5,2.7c-0.3,0.4-0.7,0.7-1,1.1c-6.2,5.3-12.4,10.6-18.6,15.9c-0.9,0.7-1.8,1.4-2.7,2.1
	c-5.2,4.3-10.4,8.5-15.6,12.8c-5.7-4.1-10.9-8.8-16.2-13.4c-1.5-1.3-2.5-1.5-4-0.1c-4.4,3.9-8.8,7.6-13.3,11.4
	c-0.7,0.6-1.4,1.6-2.9,1.2c0-11.8-0.1-23.6,0-35.4c0.1-8-0.4-15.9,0.3-23.9c0.9,0.1,1.6,0.5,2.3,1.1c4.6,3.9,9.2,7.8,13.7,11.8
	c1.2,1,2.1,1.6,3.5,0.3c5.5-4.8,11.1-9.5,16.6-14.3c6-5,12.2-9.8,17.9-15.2c6.4-4.9,12.5-10.2,18.5-15.5
	C331.7,150.4,335.3,147.4,339,144.4z"/>
<path class="st14" d="M279.6-20.9c10.2,0,20.4,0,30.6,0c0.3,2.3-0.9,4.8,1.5,6.8c5.5,4.5,11,9.1,16.5,13.7c-0.1,0.2-0.1,0.3-0.2,0.5
	c-2.6,2.1-5.3,4.2-7.9,6.4c-9.5,7.9-18.9,15.9-28.4,23.8c-5.3-4.4-10.6-8.8-16-13.1c-1.6-1.3-2.1-2.3-0.1-3.9
	c3.5-2.7,6.7-5.8,10.2-8.7c5.7-4.7,5.9-4.8,0.4-9.3c-4.3-3.6-8.1-7.8-13.1-10.5c0-0.2,0-0.4,0.1-0.6
	C275.7-17.2,277.4-19.3,279.6-20.9z"/>
<path class="st15" d="M339,267.6c0,8.2,0,16.4,0,24.6c0,1.4-0.3,1.7-1.6,1.6c-8.4-0.1-16.8,0-25.2,0c-6.2-5.3-12.5-10.5-18.6-15.9
	c-1.5-1.3-2.4-1.1-3.7,0.1c-2.5,2.3-5,4.6-7.8,6.5c-2.7,1.9-4.6,4.9-8.4,6.2c0-10.1,0-19.9,0-29.7c6-5.1,12-10.2,18-15.3
	c0,8.3,0,16.6,0.1,24.9c0,1.6-0.9,3.9,0.7,4.7c1.2,0.6,2.2-1.7,3.3-2.5c0.3-0.2,0.7-0.5,1-0.8c4.1-4,9.1-6.9,12.8-11.4
	c0.4,0,0.8-0.1,1.2-0.1c0.1,0.9,0.5,1.6,1.2,2.2c4.8,4.1,9.6,8.3,14.5,12.3c1.3,1.1,2.6,0.9,3.9-0.3
	C333.2,272.2,336.1,269.9,339,267.6z"/>
<path class="st17" d="M273.6,261.1c0,9.8,0,19.5,0,29.7c3.8-1.3,5.7-4.3,8.4-6.2c2.8-1.9,5.3-4.2,7.8-6.5c1.4-1.3,2.2-1.4,3.7-0.1
	c6.2,5.4,12.4,10.6,18.6,15.9c-24.9,0-49.8,0-74.7,0c-0.2-0.4-0.4-0.9-0.6-1.3c0-0.4,0.1-0.8,0.1-1.1c6.3-4.5,12.1-9.5,17.8-14.8
	c0.2-0.2,0.4-0.4,0.7-0.6c1-0.8,2.1-1.5,3.1-2.3C263.5,269.5,268.6,265.3,273.6,261.1z"/>
<path class="st23" d="M273.6,261.1c-5.1,4.2-10.1,8.4-15.2,12.6c-1,0.8-2,1.5-3.1,2.3c0-9.8,0-19.6,0-29.4c-0.3-0.1-0.6-0.2-0.9-0.4
	c-5.5,5.2-11.8,9.5-17.1,15c-0.4,0-0.8,0-1.3,0c-0.1-0.8-0.4-1.4-1-1.9c-4.3-3.6-8.5-7.3-13-10.7c-2.3-1.8-3.3-3.7-3.3-6.7
	c0.1-8.9-0.1-17.9-0.2-26.8c0-0.1,0-0.3,0-0.4c6.3-4.9,12.3-10,18.2-15.3c0.9-0.7,1.9-1.4,2.8-2.1c5.2-4.3,10.4-8.7,15.6-13
	c0.1,0.3,0.2,0.5,0.3,0.8c-0.7,8-0.2,15.9-0.3,23.9c-0.1,11.8,0,23.6,0,35.4c1.4,0.4,2.1-0.6,2.9-1.2c4.5-3.7,9-7.5,13.3-11.4
	c1.6-1.4,2.5-1.2,4,0.1c5.3,4.6,10.5,9.3,16.2,13.4c0,0.1,0,0.3-0.1,0.4C285.6,250.9,279.6,256,273.6,261.1z"/>
<path class="st15" d="M255.6,185.1c-0.1-0.3-0.2-0.5-0.3-0.8c0-8.9,0-17.8,0-26.8c0-1,0.5-2.4-0.5-3c-1.2-0.6-1.7,0.8-2.5,1.5
	c-4.4,3.8-8.9,7.6-13.3,11.3c-0.5,0.4-0.9,1.1-1.6,0.8c-0.7-0.3-0.6-1.1-0.6-1.7c0-1.2,0-2.3,0-3.5c-0.1-8.1-0.1-16.3-0.2-24.4
	c0.1-0.2,0.2-0.3,0.2-0.5c3.1-1.7,5.3-4.4,8.1-6.5c3.5-2.7,6.5-6,10.3-8.2c0,9.8,0,19.5,0,30.2c6.4-5.7,12.6-10.2,18-15.6
	c6.5-4.7,12.2-10.3,18.4-15.2c0,10.2,0.1,20.4,0.1,30.6c0,0.2,0,0.4,0,0.6c0,10,0,20.1-0.1,30.1c-5.5,4.8-11.1,9.5-16.6,14.3
	c-1.4,1.3-2.4,0.7-3.5-0.3c-4.5-4-9.2-7.9-13.7-11.8C257.2,185.6,256.5,185.2,255.6,185.1z"/>
<path class="st19" d="M236.8,46.1c0-0.4,0-0.9,0-1.3c1.4,0.1,2.3-0.8,3.3-1.7c5-4.2,10.1-8.3,15.2-12.4c0.1,10.1,0.1,20.1,0.2,30.2
	c-0.1,0.2-0.1,0.3-0.1,0.5c-5.9,4.9-11.8,9.8-17.8,14.7c-0.2,0-0.5,0-0.7,0c0,0,0,0,0,0C236.8,66.1,236.8,56.1,236.8,46.1z"/>
<path class="st22" d="M218.9,92c3.1-4,7.5-6.7,11.3-10c2.1-1.9,4-4,6.6-5.3c0.2,10.1-0.3,20.2,0.3,30.3c-0.1,0.3-0.1,0.6-0.2,1
	c0,0-0.1,0-0.1,0c-1.3,0.2-1.9,1.2-2.8,1.9c-4.8,3.8-9.1,8.2-14.2,11.5c-1-1-0.7-2.4-0.7-3.6C218.9,109.2,218.9,100.6,218.9,92z"/>
<path class="st24" d="M255.2,30.7c-5.1,4.1-10.1,8.3-15.2,12.4c-1,0.8-1.9,1.8-3.3,1.7c0,0,0,0,0,0c0-9.8,0-19.6,0.1-29.4
	c0-0.2,0-0.4,0-0.7c0.2,0,0.4,0,0.6,0c3.4,3.9,7.6,6.9,11.5,10.2c2,1.6,3.4,4.1,6.3,4.6C255.2,29.9,255.2,30.3,255.2,30.7z"/>
<path class="st24" d="M237.1,107.1c-0.6-10.1-0.1-20.2-0.3-30.3c0-0.2,0-0.4,0-0.6c0.2,0,0.5,0,0.7,0c1.7,3,4.7,4.8,7.3,6.9
	c3.5,2.8,6.5,6.3,10.5,8.5c0,0,0.2,0,0.2,0c-0.1,0.2-0.1,0.4-0.2,0.6C249.2,97,243.1,102.1,237.1,107.1z"/>
<path class="st25" d="M237.4,14.8c-0.2,0-0.4,0-0.6,0c0-10,0-20,0-30c3.5,1.6,6,4.6,8.9,6.9c3.3,2.5,6.3,5.2,9.5,7.8
	c0,0.2,0,0.4,0,0.6C248.9,4.4,243.2,9.8,237.4,14.8z"/>
<path class="st22" d="M236.8,15.4c0,9.8,0,19.6-0.1,29.4c-5-2.6-8.8-6.9-13.1-10.4c-4.6-3.8-4.5-4.1,0-8
	C227.9,22.7,232.4,19.1,236.8,15.4z"/>
<path class="st22" d="M236.8,46.1c0,10,0,20,0,30c-5.3-4.4-10.6-8.7-15.9-13.1c-1.4-1.2-2.1-2.2-0.2-3.7
	C226.1,55,231.4,50.5,236.8,46.1z"/>
<path class="st23" d="M255.3,0.1c0-0.2,0-0.4,0-0.6c6-4.9,11.9-9.9,17.9-14.8c5,2.7,8.8,6.9,13.1,10.5c5.4,4.5,5.3,4.7-0.4,9.3
	c-3.4,2.8-6.7,5.9-10.2,8.7c-2,1.6-1.5,2.6,0.1,3.9c5.3,4.4,10.6,8.8,16,13.1c0,0.2-0.1,0.3-0.1,0.5c-6.1,5-12.2,9.9-18,15.3
	c-1,0.2-1.6,1-2.3,1.6c-5.3,4.4-10.7,8.9-16,13.3c-0.1-10.1-0.1-20.1-0.2-30.2c0-0.4,0-0.8,0-1.2C255.2,19.7,255.3,9.9,255.3,0.1z"
	/>
<path class="st23" d="M291.7,122.8c-6.3,4.9-11.9,10.5-18.4,15.2c0-8.6,0-17.2,0-25.7c0-1.2,0.3-2.6-0.7-3.6
	c0.3-0.5,0.6-0.9,0.9-1.4c6.2-5.2,12.3-10.4,18.5-15.6c6.1-5,12.2-10,18.3-15.1c6,5.2,12,10.4,17.9,15.6c-0.2,0.2-0.4,0.4-0.6,0.6
	c-5.8,4.8-11.8,9.5-17.3,14.7c-6.2,4.8-12.2,10-18.1,15.2C292,122.6,291.8,122.7,291.7,122.8z"/>
<path class="st17" d="M255.4,60.9c5.3-4.4,10.7-8.9,16-13.3c0.7-0.6,1.3-1.4,2.3-1.6c2.4,2,4.7,4.3,7.2,6.1c3.8,2.8,6.9,6.5,11,8.9
	c0,0.1-0.1,0.3-0.1,0.4c-3.3,2.8-6.7,5.5-10,8.4c-2.9,2.5-6.1,4.5-8.5,7.5c-1.1,0.2-1.8,1.1-2.6,1.8c-5.1,4.1-9.7,8.7-15.1,12.4
	c0,0-0.2,0-0.2,0c0-10,0-20,0-30C255.3,61.2,255.3,61,255.4,60.9z"/>
<path class="st18" d="M273.2,77.3c2.4-3,5.7-5.1,8.5-7.5c3.3-2.8,6.7-5.6,10-8.4c0,10.1,0.1,20.1,0.1,30.2
	c-6.2,5.2-12.3,10.4-18.5,15.6c0-0.1-0.1-0.3-0.1-0.4C273.2,96.9,273.2,87.1,273.2,77.3z"/>
<path class="st15" d="M291.8,60.9c-4.1-2.4-7.2-6.1-11-8.9c-2.5-1.9-4.8-4.1-7.2-6.1c5.7-5.4,11.8-10.4,18-15.3
	c5.3,4.4,10.6,8.7,15.9,13.1c0.8,0.7,1.5,1.5,2.6,1.7C304.1,50.6,297.9,55.8,291.8,60.9z"/>
<path class="st24" d="M218.9,276.4c4.9-4.1,9.8-8.2,14.7-12.4c0.9-0.8,1.7-1.8,2.6-2.8c0.4,0,0.8,0,1.3,0c0.5,0.9,1.3,1.4,2,2
	c5.2,4.4,10.8,8.2,15.3,13.4c-5.6,5.3-11.5,10.3-17.8,14.8C230.7,286.7,224.9,281.5,218.9,276.4z"/>
<path class="st19" d="M254.7,276.6c-4.5-5.2-10.1-9-15.3-13.4c-0.7-0.6-1.5-1.1-2-2c5.3-5.5,11.5-9.8,17.1-15
	c0.3,0.1,0.6,0.2,0.9,0.4c0,9.8,0,19.6,0,29.4C255.2,276.2,254.9,276.4,254.7,276.6z"/>
<path class="st14" d="M272.5,108.6c1,1,0.7,2.4,0.7,3.6c0,8.6,0,17.2,0,25.7c-5.4,5.4-11.6,9.8-18,15.6c0-10.6,0-20.4,0-30.2
	c0-0.4,0.1-0.9,0.1-1.3c0,0,0,0,0,0c1.2-0.5,2.1-1.4,3.1-2.1C263.1,116.2,267.3,111.7,272.5,108.6z"/>
<path class="st17" d="M255.3,122c0,0.4-0.1,0.9-0.1,1.3c-3.9,2.2-6.8,5.5-10.3,8.2c-2.7,2.1-5,4.8-8.1,6.5c0-0.2-0.1-0.5-0.1-0.7
	c0-9.8,0-19.6,0-29.4c0,0,0.1,0,0.1,0c3.4,0.6,5,3.7,7.6,5.5C248.3,116.1,251.1,119.9,255.3,122z"/>
<path class="st25" d="M255.2,61.4c0,10,0,20,0,30c-4-2.2-7-5.6-10.5-8.5c-2.6-2.1-5.5-3.9-7.3-6.9C243.4,71.2,249.3,66.3,255.2,61.4
	z"/>
<path class="st14" d="M255.3,122c-4.2-2.2-7.1-6-10.9-8.6c-2.6-1.8-4.2-4.8-7.6-5.5c0.1-0.3,0.1-0.6,0.2-1c6.1-5,12.2-10,18.3-15
	c0,0,0,0,0,0C255.3,102,255.3,112.1,255.3,122L255.3,122z"/>
<path class="st25" d="M218.9,122.6c0-0.2,0-0.3,0-0.5c0.3-0.2,0.6-0.4,0.8-0.6c5.2-3.3,9.5-7.7,14.2-11.5c0.9-0.7,1.6-1.8,2.8-1.9
	c0,9.8,0,19.6,0,29.4c-3.8-1.8-6.4-5-9.6-7.5C224.2,127.6,221.6,125,218.9,122.6z"/>
<path class="st19" d="M255.3,0.1c0,9.8,0,19.6-0.1,29.5c-2.8-0.5-4.3-2.9-6.3-4.6c-4-3.3-8.2-6.2-11.5-10.2
	C243.2,9.8,248.9,4.4,255.3,0.1z"/>
<path class="st20" d="M273.2,77.3c0,9.8,0,19.7,0.1,29.5c-6-4.9-11.9-9.8-17.9-14.7c0,0,0,0,0,0c0-0.2,0.1-0.4,0.2-0.6
	c5.4-3.7,10-8.3,15.1-12.4C271.4,78.4,272.1,77.5,273.2,77.3z"/>
<path class="st17" d="M255.3,92c6,4.9,11.9,9.8,17.9,14.7c0,0.1,0.1,0.3,0.1,0.4c-0.3,0.5-0.6,0.9-0.9,1.4c-5.2,3.1-9.3,7.6-14,11.3
	c-1,0.8-1.9,1.6-3.1,2.1C255.3,112.1,255.3,102,255.3,92z"/>
<path class="st89" d="M55,106.8c-3.2-1.5-5.6-4-8.2-6.3C49.3,102.8,51.8,105.2,55,106.8C55,106.8,55,106.8,55,106.8z"/>
<path class="st89" d="M109.7,38.8c0,7.5-0.1,15.1-0.1,22.6c-0.6,0.3-1.2,0.5-1.7,0.9c0.5-0.4,1.1-0.6,1.7-0.9
	C109.7,53.9,109.7,46.3,109.7,38.8z"/>
<path class="st89" d="M127.7,14.8c-0.9-0.7-1.8-1.5-2.7-2.2C125.9,13.4,126.8,14.1,127.7,14.8L127.7,14.8z"/>
<path class="st89" d="M127.6,15.4c-5.9,4.9-11.9,9.8-17.8,14.7C115.7,25.2,121.7,20.3,127.6,15.4L127.6,15.4z"/>
<path class="st89" d="M18.6,137.6c-0.1-10.1-0.1-20.2-0.2-30.3C18.4,117.4,18.5,127.5,18.6,137.6C18.6,137.6,18.6,137.6,18.6,137.6z
	"/>
<path class="st89" d="M41.2,95.9c-1.6-1.3-3.2-2.7-4.3-4.6c0,0,0,0,0-0.1c0,0,0,0,0,0.1C38.1,93.2,39.6,94.7,41.2,95.9z"/>
<path class="st89" d="M37,91.4c-0.5,0.6-1.1,1.2-1.6,1.8c-4.5,3.2-8.7,6.8-12.8,10.5c4.2-3.6,8.3-7.2,12.8-10.5
	C35.9,92.6,36.4,92,37,91.4z"/>
<path class="st89" d="M132.6,41.7c4.4-3.7,9-7.3,12.9-11.5c0.4-0.1,0.8-0.2,1.3-0.3c-0.4,0.1-0.8,0.2-1.3,0.3
	C141.5,34.5,137,38,132.6,41.7z"/>
<path class="st89" d="M54.7,200C54.8,200,54.8,200,54.7,200c2.6,1.2,4.6,3.1,6.7,4.9C59.4,203.1,57.3,201.2,54.7,200
	C54.8,200,54.8,200,54.7,200z"/>
<path class="st89" d="M9.8,192.3c2.8,2.3,5.7,4.5,8.1,7.4c0,0,0,0,0,0C15.6,196.8,12.6,194.6,9.8,192.3z"/>
<path class="st89" d="M18.4,230.5c6-5.1,12-10.1,18-15.2l0,0C30.3,220.3,24.3,225.4,18.4,230.5z"/>
<path class="st89" d="M146.2,91.7c0,0,0-0.1,0.1-0.1c0,0,0,0,0,0C146.2,91.6,146.2,91.6,146.2,91.7z"/>
<path class="st89" d="M127.7,138.6C127.7,138.6,127.7,138.6,127.7,138.6c-3.2,1.6-5.6,4.2-8.3,6.5
	C122,142.8,124.5,140.3,127.7,138.6z"/>
<path class="st89" d="M146,152.7c0,0,0.1,0.1,0.2,0.2C146.1,152.8,146,152.7,146,152.7c-3.1-0.9-4.9-3.4-7.2-5.4
	C141.1,149.3,142.9,151.8,146,152.7z"/>
<path class="st89" d="M109.8,123.9c0-0.4-0.1-0.8-0.1-1.2C109.7,123.1,109.8,123.5,109.8,123.9c3.4,1.4,5.9,4,8.6,6.3
	C115.7,127.9,113.2,125.3,109.8,123.9z"/>
<path class="st89" d="M138.9,97.9c-3.9,3.2-7.8,6.5-11.4,10.1c-5.6,3.8-10.6,8.3-15.6,12.8c5-4.5,10-9,15.6-12.8
	C131.1,104.4,135,101.1,138.9,97.9z"/>
<path class="st89" d="M18,138.2c-5.5-5.7-11.9-10.5-18.1-15.6c0,0,0,0,0,0C6,127.7,12.4,132.4,18,138.2C18,138.2,18,138.2,18,138.2z
	"/>
<path class="st89" d="M164,14.8c4.2-2.9,8-6.4,11.9-9.8C172.1,8.4,168.3,11.9,164,14.8c-4.9,4.2-9.9,8.5-14.8,12.8
	C154.2,23.3,159.1,19.1,164,14.8z"/>
<path class="st89" d="M2.5,1.7c5.3,4.4,10.6,8.8,15.9,13.1c5.1,4.4,10.3,8.8,15.4,13.1c-5.2-4.4-10.3-8.7-15.4-13.1
	C13.2,10.5,7.9,6.1,2.5,1.7z"/>
<path class="st89" d="M182.6,0.1c-0.4,0.1-0.7,0.2-1.1,0.4C181.8,0.3,182.1,0.1,182.6,0.1C182.6,0.1,182.6,0.1,182.6,0.1z"/>
<path class="st89" d="M18.4,261.2C18.4,261.2,18.4,261.2,18.4,261.2c0,5,0,10,0,15.1C18.4,271.2,18.4,266.2,18.4,261.2L18.4,261.2z"
	/>
<path class="st89" d="M54.8,45.5L54.8,45.5c0,0.2,0,0.4,0,0.6c-0.2,0.1-0.4,0.3-0.7,0.4c0.2-0.1,0.4-0.3,0.7-0.4
	C54.8,45.9,54.8,45.7,54.8,45.5z"/>
<path class="st89" d="M-0.1,245.9C0,256,0,266,0.1,276.1C0,266,0,256-0.1,245.9C-0.1,245.9-0.1,245.9-0.1,245.9z"/>
<path class="st89" d="M52.2,47.8c-5.1,4.3-10.3,8.7-15.4,13c0,0,0,0,0,0C41.9,56.5,47.1,52.1,52.2,47.8z"/>
<path class="st89" d="M182.6,0.1c5.9,4.9,11.9,9.8,17.8,14.7c0,0,0,0,0.1,0c0,0-0.1,0-0.1,0C194.4,9.9,188.5,5,182.6,0.1z"/>
<path class="st89" d="M72.7,215.4c0-0.1-0.1-0.1-0.1-0.2c0,0,0,0,0,0C72.7,215.3,72.7,215.3,72.7,215.4z"/>
<path class="st89" d="M68.6,249.3c1.2-0.8,2.5-1.7,3.1-3.1C71.1,247.6,69.9,248.5,68.6,249.3z"/>
<path class="st89" d="M36.3,245.9c0.2,0.2,0.5,0.4,0.7,0.7C36.7,246.3,36.5,246.1,36.3,245.9C36.3,245.9,36.3,245.9,36.3,245.9z"/>
<path class="st89" d="M0.5,245.2c-0.1,0.2-0.1,0.4-0.2,0.6C0.4,245.6,0.5,245.4,0.5,245.2C0.5,245.2,0.5,245.2,0.5,245.2z"/>
<path class="st89" d="M100.2,192c3.1-2.6,6.1-5.2,9-7.9c0.2-0.2,0.4-0.4,0.6-0.5c-0.2,0.2-0.4,0.4-0.6,0.5
	C106.3,186.7,103.2,189.4,100.2,192z"/>
<path class="st89" d="M182.1,122.1C182.1,122.1,182.1,122.1,182.1,122.1c-4.7-3.1-8.8-7.1-13.1-10.7
	C173.4,115,177.4,119,182.1,122.1z"/>
<path class="st89" d="M200.5,107.4c5.4,4.5,10.8,8.9,16.2,13.4C211.3,116.3,205.9,111.9,200.5,107.4c3.5-3.7,7.5-6.7,11.4-9.9
	C208,100.7,203.9,103.7,200.5,107.4z"/>
<path class="st89" d="M145.6,184.2c0.5-0.5,1-0.9,1.5-1.4c4.5-3.2,8.7-6.8,12.8-10.5c-4.2,3.6-8.3,7.2-12.8,10.5
	C146.6,183.3,146.1,183.7,145.6,184.2z"/>
<path class="st89" d="M163.9,138.4c0.1,10.1,0.1,20.2,0.2,30.3C164,158.6,164,148.5,163.9,138.4
	C163.9,138.4,163.9,138.4,163.9,138.4z"/>
<path class="st89" d="M142.7,212.3c-0.9-0.6-1.7-1.3-2.5-2C141,210.9,141.9,211.6,142.7,212.3z"/>
<path class="st89" d="M145.6,185.4c-0.1-0.1-0.2-0.2-0.3-0.3v0C145.4,185.2,145.5,185.3,145.6,185.4z"/>
<path class="st89" d="M109.8,245.9c1.6,1.5,3.3,2.9,5,4.3C113.1,248.8,111.4,247.4,109.8,245.9c0-0.2,0-0.4,0-0.7
	c5.5-4.5,10.9-9,16.4-13.5c-5.5,4.5-10.9,9-16.4,13.5C109.8,245.5,109.8,245.7,109.8,245.9z"/>
<path class="st89" d="M208.7,83.3c2.7,2.2,5.3,4.4,7.7,6.8C214,87.7,211.4,85.5,208.7,83.3z"/>
<path class="st89" d="M182.6,153.4c-3.9-3.1-7.8-6.2-11.6-9.4C174.8,147.2,178.7,150.3,182.6,153.4
	C182.6,153.4,182.6,153.4,182.6,153.4z"/>
<path class="st89" d="M145.5,214c0,0.4,0.1,0.8,0.1,1.2C145.6,214.8,145.5,214.4,145.5,214c-1-0.5-1.9-1.1-2.8-1.7
	C143.6,212.9,144.5,213.5,145.5,214z"/>
<path class="st89" d="M37,62c0-0.4-0.1-0.8-0.2-1.2C36.9,61.2,36.9,61.6,37,62c1,0.5,1.9,1.1,2.7,1.7C38.8,63.1,37.9,62.5,37,62z"/>
<path class="st89" d="M72.7,30.1c-1.9-1.8-3.9-3.5-6-5.1C68.7,26.6,70.8,28.3,72.7,30.1c0,0.2,0,0.4,0,0.7
	c-4.6,3.8-9.2,7.5-13.7,11.3c4.6-3.8,9.2-7.5,13.7-11.3C72.7,30.5,72.7,30.3,72.7,30.1z"/>
<path class="st89" d="M145.6,184.2C145.6,184.2,145.6,184.2,145.6,184.2c-5.5-4.7-10.9-9.5-16.4-14.2
	C134.7,174.7,140.1,179.5,145.6,184.2z"/>
<path class="st89" d="M128.8,169.8c-0.1-0.1-0.3-0.1-0.4-0.2C128.5,169.6,128.7,169.7,128.8,169.8z"/>
<path class="st89" d="M201,168.7c4,4.6,8.9,8.1,13.6,11.9C209.9,176.7,205,173.2,201,168.7c-0.1,0-0.3,0-0.4,0
	C200.7,168.7,200.8,168.7,201,168.7z"/>
<path class="st89" d="M73.3,276.6c5.3,4.5,10.6,9,15.8,13.5C83.9,285.6,78.6,281.1,73.3,276.6c-1.8,1-3.4,2.3-4.9,3.6
	C69.9,278.8,71.5,277.6,73.3,276.6z"/>
<path class="st89" d="M127.7,291.5C127.7,291.5,127.7,291.5,127.7,291.5L127.7,291.5c0-10.1,0-20.2-0.1-30.3
	C127.6,271.3,127.7,281.4,127.7,291.5z"/>
<path class="st89" d="M180.5,1.3c0.2-0.2,0.5-0.4,0.7-0.6C181,0.8,180.8,1,180.5,1.3z"/>
<path class="st89" d="M36.9,90.6c0.1,0.1,0.2,0.2,0.3,0.3l0,0C37,90.8,37,90.7,36.9,90.6z"/>
<path class="st89" d="M146.8,30L146.8,30c0.1,1,0.6,1.7,1.2,2.3C147.3,31.6,146.8,30.9,146.8,30z"/>
<path class="st89" d="M119.2,38.7c-1-0.8-1.9-1.6-2.9-2.4C117.3,37,118.2,37.9,119.2,38.7z"/>
<path class="st89" d="M109.7,91.4c0-9.8,0.1-19.6,0.1-29.4C109.8,71.8,109.7,81.6,109.7,91.4c-0.3,0.3-0.6,0.6-0.9,0.9
	C109.1,92,109.4,91.7,109.7,91.4z"/>
<path class="st89" d="M109.8,62c0-0.2-0.1-0.4-0.2-0.6C109.7,61.6,109.8,61.8,109.8,62c2.3,1.2,4.2,2.9,6.2,4.6
	C114.1,64.9,112.1,63.2,109.8,62z"/>
<path class="st89" d="M36.4,122.6c0-8.5-0.1-17.1-0.1-25.6C36.4,105.6,36.4,114.1,36.4,122.6c6.1-5.1,12.3-10.2,18.4-15.3
	C48.7,112.5,42.6,117.5,36.4,122.6z"/>
<path class="st89" d="M128.2,45.5c-2.8-1.5-5.2-3.5-7.6-5.6C123,42,125.4,44,128.2,45.5c0.2,1.7,1.5,2.4,2.7,3.2
	C129.7,47.9,128.5,47.2,128.2,45.5z"/>
<path class="st89" d="M44,177.8c3.8-3.1,7.5-6.3,11-9.8c2.8-1.6,5.3-3.7,7.7-5.9c-2.4,2.2-4.8,4.3-7.7,5.9
	C51.5,171.5,47.7,174.7,44,177.8z"/>
<path class="st89" d="M72.8,123.3c3.7,1.8,6.5,4.7,9.6,7.3C79.3,128,76.5,125.1,72.8,123.3L72.8,123.3
	C72.7,123.3,72.7,123.3,72.8,123.3C72.7,123.3,72.8,123.3,72.8,123.3z"/>
<path class="st89" d="M36.5,123.3c0,0-0.1-0.1-0.2-0.2C36.4,123.2,36.5,123.3,36.5,123.3c3.5,1.7,6.3,4.4,9.1,6.9
	C42.7,127.7,40,125,36.5,123.3z"/>
<path class="st89" d="M62.9,131c-2.6,2.3-5,4.7-8.1,6.4c0,0,0,0,0,0C57.8,135.7,60.3,133.2,62.9,131z"/>
<path class="st89" d="M-0.1,215.2c-6,5-11.9,9.9-17.9,14.9C-12,225.1-6.1,220.1-0.1,215.2c6-5.2,12-10.3,18-15.5
	C11.9,204.8,5.9,210-0.1,215.2z"/>
<path class="st89" d="M146.2,152.9c0.9-0.7,1.9-1.4,2.8-2.1C148.1,151.5,147.1,152.2,146.2,152.9c-0.1,0.1-0.1,0.3-0.2,0.5
	C146.1,153.2,146.1,153.1,146.2,152.9z"/>
<path class="st89" d="M146,153.4c0,8.5,0.1,17.1,0.1,25.6C146.1,170.5,146.1,161.9,146,153.4c-6.1,5.1-12.3,10.2-18.4,15.3
	C133.7,163.6,139.9,158.5,146,153.4z"/>
<path class="st89" d="M41.2,95.9c0.7,0.5,1.3,1,2,1.5C42.6,97,41.9,96.5,41.2,95.9z"/>
<path class="st89" d="M36.3,123.1c0.1-0.2,0.1-0.3,0.2-0.5C36.4,122.8,36.3,122.9,36.3,123.1c-0.9,0.7-1.9,1.4-2.8,2.1
	C34.4,124.5,35.3,123.8,36.3,123.1L36.3,123.1z"/>
<path class="st89" d="M145.3,0.6C145.3,0.6,145.3,0.6,145.3,0.6c0.6,0.5,0.8,1.2,0.8,1.9C146.1,1.8,145.9,1.1,145.3,0.6z"/>
<path class="st89" d="M182.6,60.9c3.8-3.1,7.5-6.2,11.3-9.4C190.1,54.6,186.3,57.7,182.6,60.9c-6,5.2-12,10.3-18,15.5
	C170.6,71.2,176.6,66,182.6,60.9z"/>
<path class="st89" d="M18.4,257.5c0-9-0.1-18-0.1-27.1c0,0,0,0,0,0C18.4,239.5,18.4,248.5,18.4,257.5z"/>
<path class="st89" d="M98.9,175.3c0.6,0.6,1.3,1.2,2,1.7C100.2,176.4,99.5,175.8,98.9,175.3z"/>
<path class="st89" d="M61.1,224.7c2.5-2.1,5.1-4.3,7.6-6.4C66.2,220.4,63.6,222.5,61.1,224.7z"/>
<path class="st89" d="M127.5,169.3c0.3,0.1,0.6,0.2,0.9,0.3C128.1,169.5,127.8,169.4,127.5,169.3
	C127.5,169.3,127.5,169.3,127.5,169.3z"/>
<path class="st89" d="M218.3,92c0.2,0,0.4,0,0.7,0C218.7,92,218.5,92,218.3,92C218.3,92,218.3,92,218.3,92z"/>
<path class="st89" d="M127.6,230.6L127.6,230.6c0-0.2,0-0.4,0-0.6c0.9-0.4,1.6-0.9,2.4-1.5c-0.7,0.6-1.5,1.1-2.4,1.5
	C127.6,230.2,127.6,230.4,127.6,230.6z"/>
<path class="st89" d="M201,168.7c5.8-5,11.6-10.1,17.5-15.1c6.1-5,12.1-10,18.2-14.9c-6.1,5-12.1,10-18.2,14.9
	C212.6,158.6,206.8,163.6,201,168.7z"/>
<path class="st89" d="M182.5,183.8L182.5,183.8c6-5.1,12-10.1,17.9-15.2c0,0,0,0,0,0C194.5,173.7,188.5,178.8,182.5,183.8z"/>
<path class="st89" d="M135.5,285c3.3-2.8,6.7-5.6,10-8.4c0,0,0,0,0,0C142.2,279.4,138.9,282.2,135.5,285z"/>
<path class="st89" d="M200.5,291.8c5.9-5.1,11.9-10.2,17.8-15.2c0.2,0,0.4-0.1,0.6-0.1c-0.2,0-0.4,0.1-0.6,0.1
	C212.4,281.6,206.4,286.7,200.5,291.8z"/>
<path class="st89" d="M130.7,227.8c4.9-4.2,9.9-8.4,14.9-12.6c0,0,0,0,0,0C140.7,219.4,135.7,223.6,130.7,227.8z"/>
<path class="st89" d="M151.9,281.4c4.2,3.5,8.2,7.2,12.7,10.4c0.5,0.7,0.9,1.3,1.4,2c-0.5-0.7-0.9-1.3-1.4-2
	C160.1,288.7,156,285,151.9,281.4z"/>
<path class="st89" d="M40,279.1c0.2,0.2,0.4,0.4,0.6,0.7C40.4,279.5,40.2,279.3,40,279.1z"/>
<path class="st89" d="M163.7,260.7c-0.6-0.8-1.3-1.2-2.1-1.8C162.3,259.4,163.1,259.9,163.7,260.7z"/>
<path class="st89" d="M180.1,274.5c-5.4-4.5-10.8-8.9-16.1-13.4c0,0,0,0,0,0C169.3,265.6,174.7,270.1,180.1,274.5z"/>
<path class="st157" d="M-18,10.1c0,1.4,0.1,2.8-0.6,4c0.7,1.3,0.7,2.7,0.7,4c0,7.5,0,15.1,0,22.6c0,1.4-0.1,2.8,0.6,4
	c5-4.1,10-8.1,14.9-12.3c1.9-1.7,3.2-1.5,5.1,0.1c10.8,9.2,21.6,18.3,32.5,27.4c0.1,0.1,0.2,0.2,0.4,0.3c0.4,0.3,0.8,0.4,1.2,0.7
	c5.1-4.4,10.2-8.7,15.4-13c0.6-0.5,1.3-0.9,2-1.3c0.2-0.1,0.4-0.3,0.7-0.4c0-0.2,0-0.4,0-0.6h0c-3.6-2.7-7.1-5.6-10.6-8.6
	s-6.9-5.9-10.3-8.9c-5.2-4.4-10.3-8.7-15.4-13.1C13.2,10.5,7.9,6.1,2.5,1.7C1,0.5,0.5-0.4,2.4-2.2c5-4.7,10.9-8.4,15.5-13.6
	c-0.9-1.4-2.5-2.2-3.7-3.4c-0.4-0.3-0.7-0.6-1-1c-0.2-0.2-0.4-0.5-0.5-0.8c-8.3,0-16.6,0-24.9,0c-1.9,1.7-3.8,3.4-5.7,5.1
	C-17.9-7.2-17.9,1.5-18,10.1z"/>
<path class="st157" d="M200.4,265c0-1.1,0.1-2.1,0.6-3.1c-0.7-1.3-0.7-2.7-0.7-4c0-7.5,0-15.1,0-22.6c0-1.4,0.1-2.8-0.6-4
	c-5.1,4.2-10.2,8.2-15.2,12.5c-1.7,1.5-3,1.4-4.6,0c-10.9-9.3-21.9-18.5-32.9-27.8c-0.1-0.1-0.2-0.2-0.3-0.2
	c-0.3-0.2-0.7-0.3-1.1-0.5c-5,4.2-10,8.4-14.9,12.6c-0.2,0.2-0.5,0.4-0.7,0.6c-0.7,0.6-1.5,1.1-2.4,1.5c0,0.2,0,0.4,0,0.6
	c0,0,0,0,0,0c5.5,4.6,11,9.2,16.5,13.8c5.5,4.6,11,9.2,16.5,13.8c0.3,0.2,0.6,0.4,0.9,0.7c0.8,0.5,1.6,1,2.1,1.8
	c0.1,0.2,0.2,0.3,0.3,0.5c5.4,4.5,10.8,8.9,16.1,13.4c1.3,1.1,2,2,0.2,3.4c-4.1,3.3-8.1,6.8-12.1,10.3c-1.3,1.1-2.4,2.4-3.6,3.6
	c0.5,0.7,0.9,1.3,1.4,2c10.9,0,21.7,0,32.6,0c0.7-0.7,1.3-1.3,2-2C200.5,282.9,200.4,273.9,200.4,265z"/>
<path class="st26" d="M205.2,11.2c-1.6,1.3-3.1,2.5-4.7,3.8l0,0c0,0.2-0.1,0.3-0.1,0.5c0.2,0.2,0.4,0.4,0.6,0.7
	c2.4,1,4.2,2.7,6.1,4.4c0.7,0.7,1.5,1.4,2.2,2c0.4,0.3,0.8,0.6,1.2,0.9c2.2,1.6,4.2,3.6,6.3,5.3c1,0.8,1.7,1.5,0.5,2.5
	c-5.3,4.7-10.4,9.6-16.3,13.5c-0.2,0.4-0.4,0.8-0.6,1.2c0,0,0,0,0,0c5.8,4.3,11.1,9.1,16.6,13.8c1.2,1,1,1.8-0.2,2.8
	c-4.7,3.9-9.3,8-14.1,12c-1.7,1.4-2,2.1,0,3.8c2,1.7,4,3.3,6,4.9c2.7,2.2,5.3,4.4,7.7,6.8c0.6,0.6,1.2,1.2,1.8,1.9
	c0.2,0,0.4,0,0.7,0c3.1-4,7.5-6.7,11.3-10c2.1-1.9,4-4,6.6-5.3c0-0.2,0-0.4,0-0.6c0,0,0,0,0,0c-5.3-4.4-10.6-8.7-15.9-13.1
	c-1.4-1.2-2.1-2.2-0.2-3.7c5.4-4.3,10.8-8.8,16.1-13.2c0-0.4,0-0.9,0-1.3l0,0c-5-2.6-8.8-6.9-13.1-10.4c-4.6-3.8-4.5-4.1,0-8
	c4.3-3.7,8.8-7.3,13.2-11c0-0.2,0-0.4,0-0.7c0-10,0-20,0-30c0-0.2,0-0.4,0-0.6c-1.9-1.7-3.9-3.4-5.8-5.1c-4,0-8.1,0-12.1,0
	c0,6.8-0.1,13.5-0.1,20.3C214.5,3.5,209.9,7.4,205.2,11.2z"/>
<path class="st26" d="M127.6,261.2c-0.2,0-0.4-0.1-0.6-0.1c-3.3,3.4-6.9,6.4-10.6,9.4c-2.2,1.8-4.4,3.5-6.7,5.3
	c-3.6-1.3-5.9-4.4-8.8-6.6c-2.9-2.2-5.6-4.6-8.3-7c-0.8-0.7-1.5-1.1-2.5-0.2c-5.5,4.9-11.6,9.3-16.8,14.5c5.3,4.5,10.6,9,15.8,13.5
	c1.1,1,2.3,1.9,2.1,3.7c11.5,0,23,0,34.5,0c0.7-0.7,1.3-1.5,2-2.2C127.7,281.4,127.6,271.3,127.6,261.2z"/>
<path class="st26" d="M54.7-15.6c0,10.1,0.1,20.3,0.1,30.4c0.2,0,0.4,0.1,0.6,0.1c4-4,8.4-7.7,12.8-11.2c1.5-1.2,3-2.3,4.5-3.5
	c5.9-5.4,12-10.6,18.4-15.4c0,0,0,0,0,0c0.1-0.4,0.2-0.9,0.2-1.3c0-1.5-0.1-3-0.1-4.4c-10.2,0-20.4,0-30.6,0c-0.4,0.6-0.9,1-1.3,1.5
	C57.8-18.1,56-17.1,54.7-15.6z"/>
<path class="st158" d="M164.1-15.9c-0.1,0.2-0.1,0.3-0.1,0.5c0,10.1,0.1,20.1,0.1,30.2c4.2-2.9,8-6.4,11.9-9.8
	c1.3-1.1,2.6-2.2,4-3.3c0.2-0.2,0.4-0.3,0.6-0.5c0.2-0.2,0.5-0.4,0.7-0.6c0.1-0.1,0.2-0.1,0.2-0.2c0.3-0.2,0.7-0.3,1.1-0.4
	c0-0.2,0-0.4,0-0.6c0-6.8,0-13.6,0-20.4c-4.3,0-8.5,0-12.8,0C168.3-18.8,166.2-17.3,164.1-15.9z"/>
<path class="st158" d="M18.5,291.3c0-5,0-10,0-15c0-5,0-10,0-15.1c-5.3,4.4-10.5,8.7-15.8,13.1c-0.8,0.7-1.7,1.3-2.5,1.9
	c-0.1,0.3-0.3,0.6-0.4,1c0.1,5.6,0.2,11.1,0.3,16.7c5.5,0,11.1,0,16.6,0C17.2,292.9,17.8,292.1,18.5,291.3L18.5,291.3z"/>
<path class="st17" d="M89.2,290.1c-5.3-4.5-10.5-9-15.8-13.5c-1.8,1-3.4,2.3-4.9,3.6c-0.6,0.5-1.3,1.1-1.9,1.7
	c-1.3,1.1-2.6,2.3-3.9,3.3c-2.8,2.2-5.5,4.5-8.3,6.7c0,0,0,0,0,0c-0.4,0.6-0.9,1.3-1.3,1.9c12.8,0,25.5,0,38.3,0
	C91.4,292,90.3,291.1,89.2,290.1z"/>
<path class="st26" d="M46.8,284.8c-1.6-1.3-3.3-2.5-4.8-3.8c-0.5-0.4-0.9-0.8-1.3-1.2c-0.2-0.2-0.4-0.4-0.6-0.7
	c-1.1-1.1-2.2-2.1-4-2.1c-5.9,4.8-11.7,9.5-17.5,14.3c0,0,0,0,0,0c-0.7,0.8-1.3,1.7-2,2.5c12.1,0,24.3,0,36.4,0
	c0.4-0.6,0.9-1.3,1.3-1.9C52.1,289.2,49.4,287,46.8,284.8z"/>
<path class="st26" d="M200.5,291.8c-0.7,0.7-1.3,1.3-2,2c12.3,0,24.7,0,37,0c0.4-0.4,0.9-0.9,1.3-1.3c0-0.4,0.1-0.8,0.1-1.1
	c-6.3-4.7-12.1-9.9-18-14.9c-0.2,0-0.4,0.1-0.6,0.1C212.4,281.6,206.4,286.7,200.5,291.8z"/>
<path class="st16" d="M146.1,276.5c-0.2,0-0.4,0-0.5,0.1c-3.3,2.8-6.7,5.6-10,8.4c-2.6,2.2-5.2,4.4-7.8,6.6c0,0,0,0,0,0l0,0
	c0,0,0,0,0,0v0c-0.7,0.7-1.3,1.5-2,2.2c6.8,0,13.6,0,20.4,0c0-5.5,0.1-11.1,0.1-16.6C146.2,276.9,146.1,276.7,146.1,276.5z"/>
<path class="st158" d="M151.9,281.4c-1-0.8-2-1.7-3-2.5c-0.8-0.7-1.5-1.6-2.6-1.8c0,5.5-0.1,11.1-0.1,16.6c6.6,0,13.2,0,19.8,0
	c-0.5-0.7-0.9-1.3-1.4-2C160.1,288.7,156,285,151.9,281.4z"/>
<path class="st158" d="M146.3,277.1c0,5.5-0.1,11.1-0.1,16.6C146.2,288.2,146.2,282.7,146.3,277.1
	C146.3,277.1,146.3,277.1,146.3,277.1z"/>
<path class="st159" d="M-18.2,68.6c0,2.5,0,5.1,0,7.7c0,0,0.1,0.1,0.1,0.1c6.3-5.2,11.8-9.8,17.9-14.9c0,10.3,0,20.1,0,29.9
	c0,0.3,0.1,0.5,0.1,0.8c0,9.8-0.1,19.5-0.1,29.3c0,0.2,0.1,0.4,0.1,0.6c2.3-1.2,4.3-2.8,6.2-4.5c1.2-1,2.3-2,3.5-3
	c3-2.4,5.9-4.8,8.8-7.2c1.4-1.2,2.8-2.4,4.2-3.6c4.2-3.6,8.3-7.2,12.8-10.5c0.5-0.6,1.1-1.2,1.6-1.8c0,0,0,0,0-0.1
	c0.1-0.1,0.1-0.3,0.2-0.4c-0.1-0.1-0.2-0.2-0.3-0.3c-0.5-0.6-0.5-1.3-0.5-2c0-0.1,0-0.2,0-0.4c0-7.9,0-15.9,0-23.8
	c0-0.9,0-1.7,0.6-2.4c0-0.4-0.1-0.8-0.2-1.2c0,0,0,0,0,0c0,0,0,0,0,0c-0.4-0.2-0.8-0.4-1.2-0.7c-0.1-0.1-0.3-0.2-0.4-0.3
	C24.4,50.8,13.5,41.7,2.7,32.5c-1.9-1.6-3.2-1.7-5.1-0.1c-4.9,4.2-9.9,8.2-14.9,12.3c-0.3,0.4-0.6,0.8-0.9,1.2
	C-18.2,53.4-18.2,60.8-18.2,68.6z"/>
<path class="st159" d="M36.8,60.8c-0.4-0.2-0.9-0.4-1.2-0.7C36,60.4,36.4,60.6,36.8,60.8C36.8,60.8,36.8,60.8,36.8,60.8z"/>
<path class="st22" d="M58.9,42.1c4.6-3.8,9.2-7.5,13.7-11.3c0-0.2,0-0.4,0-0.7c-1.9-1.8-3.9-3.5-6-5.1c-1.7-1.4-3.4-2.7-5.1-4.1
	c-2.2-1.9-4.3-3.8-6.2-6c0,0,0,0,0,0c-0.2,0-0.4,0-0.6-0.1c-6.1-5-12.4-9.7-17.9-15.4h0c0,0,0,0,0,0c-0.2,0-0.4,0-0.5,0.1
	c-6,5.1-11.9,10.2-17.9,15.4c5.1,4.4,10.3,8.8,15.4,13.1c3.5,2.9,6.9,5.9,10.3,8.9s7,5.8,10.6,8.6C56.2,44.3,57.6,43.2,58.9,42.1z"
	/>
<path class="st22" d="M44.3,36.9c3.5,2.9,7,5.8,10.6,8.6h0l0,0C51.2,42.7,47.7,39.8,44.3,36.9z"/>
<path class="st22" d="M55.4,14.9C55.4,14.9,55.4,14.9,55.4,14.9c-0.2,0-0.4,0-0.6-0.1C55,14.8,55.2,14.9,55.4,14.9
	C55.4,14.9,55.4,14.9,55.4,14.9z"/>
<path class="st159" d="M36.4-0.5c-0.1-0.2-0.1-0.4-0.2-0.6c0,0,0,0,0,0c-1.1-0.2-1.8-1.1-2.6-1.8c-0.7-0.5-1.3-1.1-2-1.6
	c-1.4-1.2-2.8-2.4-4.1-3.6c-3.1-2.7-6.2-5.4-9.6-7.7C13.3-10.6,7.4-6.9,2.4-2.2C0.5-0.4,1,0.5,2.5,1.7c5.3,4.4,10.6,8.8,15.9,13.1
	C24.4,9.8,30.4,4.6,36.4-0.5z"/>
<path class="st22" d="M37,62c1,0.5,1.9,1.1,2.7,1.7c2.6,1.9,4.8,4.3,7.4,6.2c2.6,2,5.1,4.1,7.7,6.1c5.6-3.8,10.2-8.8,15.6-12.8
	c1-0.8,1.8-1.8,1.7-3.2c-5.8-4.7-11.5-9.4-17.3-14c-0.2,0.1-0.4,0.3-0.7,0.4c-0.7,0.4-1.4,0.8-2,1.3c-5.1,4.3-10.3,8.7-15.4,13
	C36.9,61.2,36.9,61.6,37,62z"/>
<path class="st24" d="M72.7,57.1c0-8.8,0-17.5,0-26.3c-4.6,3.8-9.2,7.5-13.7,11.3c-1.4,1.1-2.7,2.3-4.1,3.4c0,0.2,0,0.4,0,0.6
	c5.8,4.7,11.5,9.4,17.3,14C72.9,59.2,72.7,58.1,72.7,57.1z"/>
<path class="st24" d="M54.8,45.5L54.8,45.5c1.4-1.1,2.7-2.3,4.1-3.4C57.6,43.2,56.2,44.3,54.8,45.5z"/>
<polygon class="st159" points="182.5,183.8 182.5,183.8 182.5,183.8 "/>
<path class="st159" d="M182.6,154.6c0-0.2-0.1-0.4-0.1-0.6c-2,1-3.7,2.3-5.3,3.7c-1.6,1.4-3.2,2.9-4.9,4.2c-2.9,2.2-5.6,4.5-8.3,6.8
	c-1.4,1.2-2.8,2.4-4.1,3.6c-4.2,3.6-8.3,7.2-12.8,10.5c-0.5,0.5-1,0.9-1.5,1.4c0,0,0,0,0,0c0,0,0,0,0,0c-0.1,0.3-0.2,0.6-0.3,0.9
	c0.1,0.1,0.2,0.2,0.3,0.3c0.4,0.5,0.5,1,0.5,1.6c0,0.2,0,0.5,0,0.7c0,7.9,0,15.9,0,23.8c0,0.9,0,1.7-0.6,2.4c0,0.4,0.1,0.8,0.1,1.2
	c0,0,0,0,0,0c0,0,0,0,0,0c0.4,0.2,0.7,0.3,1.1,0.5c0.1,0.1,0.2,0.1,0.3,0.2c11,9.2,22,18.5,32.9,27.8c1.7,1.4,2.9,1.5,4.6,0
	c5-4.3,10.1-8.4,15.2-12.5c0.3-0.4,0.6-0.8,0.9-1.2c0-10,0-19.9,0-29.9c-0.1-0.1-0.2-0.2-0.4-0.3c-4.3,3.6-8.6,7.2-13.1,11
	c-1.5,1.3-3,2.5-4.6,3.8c0-10.4,0-20.2,0-29.9c0-0.3-0.1-0.5-0.1-0.8C182.6,174.1,182.6,164.3,182.6,154.6z"/>
<path class="st159" d="M145.6,215.2c0.4,0.2,0.7,0.3,1.1,0.5C146.4,215.5,146,215.4,145.6,215.2
	C145.6,215.2,145.6,215.2,145.6,215.2z"/>
<path class="st19" d="M200.6,230c-0.3,0.4-0.6,0.8-0.9,1.2c0.7,1.3,0.6,2.7,0.6,4c0,7.5,0,15.1,0,22.6c0,1.4-0.1,2.8,0.7,4
	c6,4.6,12,9.1,17.3,14.6c0.2,0,0.4-0.1,0.6-0.1c4.9-4.1,9.8-8.2,14.7-12.4c0.9-0.8,1.7-1.8,2.6-2.8c-0.1-0.8-0.4-1.4-1-1.9
	c-4.3-3.6-8.5-7.3-13-10.7c-2.3-1.8-3.3-3.7-3.3-6.7c0.1-8.9-0.1-17.9-0.2-26.8C212.7,220.1,206.6,225,200.6,230
	C200.6,230,200.6,230,200.6,230z"/>
<path class="st19" d="M199.7,231.2c0.3-0.4,0.6-0.8,0.9-1.2c0,0,0,0,0,0c0,0,0,0,0,0C200.3,230.4,200,230.8,199.7,231.2z"/>
<path class="st22" d="M126.2,231.8c-5.5,4.5-10.9,9-16.4,13.5c0,0.2,0,0.4,0,0.7c1.6,1.5,3.3,2.9,5,4.3c2,1.7,4.1,3.3,6,5
	c2.2,1.9,4.3,3.8,6.2,6c0,0,0,0,0,0c0.2,0,0.4,0,0.6,0.1c6,5.1,12.4,9.7,17.9,15.4c0,0,0,0,0,0h0c0.2,0,0.4,0,0.5-0.1
	c6-5.1,11.9-10.2,17.9-15.4c0,0,0,0,0,0l0,0c-0.1-0.2-0.2-0.3-0.3-0.5c-0.6-0.8-1.3-1.2-2.1-1.8c-0.3-0.2-0.6-0.4-0.9-0.7
	c-5.5-4.6-11-9.2-16.5-13.8c-5.5-4.6-11-9.2-16.5-13.8C127.1,231,126.6,231.4,126.2,231.8z"/>
<path class="st22" d="M164,261.1c-0.1-0.2-0.2-0.3-0.3-0.5C163.8,260.8,163.9,261,164,261.1L164,261.1z"/>
<path class="st22" d="M144.2,244.4c-5.5-4.6-11-9.2-16.5-13.8c0,0,0,0,0,0l0,0C133.1,235.2,138.6,239.8,144.2,244.4z"/>
<path class="st22" d="M127,261.1C127,261.1,127,261.1,127,261.1c0.2,0,0.4,0,0.6,0.1C127.4,261.2,127.2,261.2,127,261.1
	C127,261.1,127,261.1,127,261.1z"/>
<path class="st22" d="M145.5,276.6c0.2,0,0.4,0,0.5-0.1C145.9,276.5,145.7,276.6,145.5,276.6L145.5,276.6z"/>
<path class="st22" d="M145.5,214c-1-0.5-1.9-1.1-2.8-1.7c-0.9-0.6-1.7-1.3-2.5-2c-1.6-1.4-3.2-2.9-4.9-4.2c-2.6-2-5.1-4.1-7.7-6.1
	c-6.2,4.8-12.4,9.6-17.9,15.3c6,4.9,11.9,9.8,17.9,14.7c0.9-0.4,1.6-0.9,2.4-1.5c0.2-0.2,0.5-0.4,0.7-0.6c4.9-4.2,9.9-8.4,14.9-12.6
	C145.6,214.8,145.5,214.4,145.5,214z"/>
<path class="st159" d="M146.1,276.5c0.1,0.2,0.1,0.4,0.2,0.6l0,0c1.1,0.2,1.8,1.1,2.6,1.8c1,0.8,2,1.7,3,2.5
	c4.2,3.5,8.2,7.2,12.7,10.4c1.2-1.2,2.3-2.5,3.6-3.6c4-3.5,8-7,12.1-10.3c1.8-1.5,1.2-2.3-0.2-3.4c-5.4-4.5-10.8-8.9-16.1-13.4
	C158,266.3,152,271.4,146.1,276.5z"/>
<path class="st159" d="M146.1,276.5c0.1,0.2,0.1,0.4,0.2,0.6c0,0,0,0,0,0l0,0C146.2,276.9,146.1,276.7,146.1,276.5z"/>
<path class="st159" d="M151.9,281.4c-1-0.8-2-1.7-3-2.5C149.9,279.7,150.9,280.6,151.9,281.4z"/>
<path class="st22" d="M200.5,291.8C200.5,291.8,200.5,291.8,200.5,291.8L200.5,291.8c5.9-5.1,11.9-10.2,17.8-15.2
	c-5.2-5.5-11.2-10.1-17.3-14.6c-0.5,1-0.6,2-0.6,3.1C200.4,273.9,200.5,282.9,200.5,291.8z"/>
<path class="st22" d="M200.4,265c0,8.9,0.1,17.9,0.1,26.8c0,0,0,0,0,0C200.5,282.9,200.4,273.9,200.4,265z"/>
<path class="st24" d="M109.8,245.3c5.5-4.5,10.9-9,16.4-13.5c0.5-0.4,1-0.8,1.5-1.2c0-0.2,0-0.4,0-0.6c-6-4.9-11.9-9.8-17.9-14.7
	c0,8,0,16,0,24.1C109.7,241.3,109.8,243.3,109.8,245.3z"/>
<path class="st24" d="M127.6,230.6L127.6,230.6c-0.5,0.4-1,0.8-1.5,1.2C126.6,231.4,127.1,231,127.6,230.6z"/>
<path class="st158" d="M193.8,51.5c-3.8,3.1-7.5,6.2-11.3,9.4c-6,5.2-12,10.3-18,15.5c3,3.8,7.1,6.3,10.5,9.6c1.5,1.5,3.2,2.7,4.9,4
	c1.9,1.4,1.8,2.5,0,4c-4.4,3.5-8.6,7.2-12.9,10.8c-2.9,2.4-2.9,3,0,5.2c0.6,0.5,1.3,1,1.9,1.5c4.4,3.6,8.4,7.6,13.1,10.7
	c3.8-1.7,6.6-4.8,9.8-7.5c0.4-0.4,0.9-0.7,1.4-1.1c2.5-1.9,4.8-4,7.2-6.1c3.5-3.7,7.5-6.7,11.4-9.9c0.6-0.5,1.1-0.9,1.6-1.4
	c1.6-1.4,3.2-2.7,4.8-4.1c0,0,0,0,0,0h0c-0.6-0.6-1.2-1.3-1.8-1.9c-2.4-2.4-5.1-4.6-7.7-6.8c-2-1.6-4-3.3-6-4.9
	c-1.9-1.7-1.7-2.4,0-3.8c4.7-3.9,9.3-8,14.1-12c1.2-1,1.4-1.7,0.2-2.8c-5.5-4.7-10.8-9.6-16.6-13.8C198.2,47.9,196,49.7,193.8,51.5z
	"/>
<path class="st158" d="M218.3,92c-0.6-0.6-1.2-1.3-1.8-1.9C217.1,90.8,217.7,91.4,218.3,92L218.3,92z"/>
<path class="st158" d="M217,59.9c-5.5-4.7-10.8-9.6-16.6-13.8c0,0,0,0,0,0c0,0,0,0,0,0C206.2,50.3,211.6,55.2,217,59.9z"/>
<path class="st157" d="M149.2,27.6c-0.9,0.8-1.7,1.6-2.5,2.4c0.1,1,0.6,1.7,1.2,2.3c0.2,0.2,0.4,0.4,0.7,0.6
	c5.1,4.3,10.3,8.5,15.4,12.8c5.2-4.3,10.4-8.6,15.6-12.9c0.9-0.7,1.6-1.7,2.8-2c0,0,0,0,0,0c4.3-4,8.8-7.8,13.4-11.5
	c1.5-1.2,3-2.5,4.5-3.7c0,0,0,0,0,0c0.1-0.2,0.1-0.3,0.1-0.5c0,0,0,0-0.1-0.1c0,0-0.1,0-0.1,0c-5.9-4.9-11.9-9.8-17.8-14.7
	c-0.4,0.1-0.7,0.2-1.1,0.4c-0.1,0.1-0.2,0.1-0.2,0.2c-0.2,0.2-0.5,0.4-0.7,0.6c-0.2,0.2-0.4,0.4-0.6,0.5c-1.3,1.1-2.7,2.2-4,3.3
	c-3.9,3.3-7.7,6.8-11.9,9.8C159.1,19.1,154.2,23.3,149.2,27.6z"/>
<path class="st157" d="M200.4,15.4C200.4,15.4,200.4,15.4,200.4,15.4L200.4,15.4c0.1-0.2,0.1-0.3,0.1-0.5l0,0c0,0,0,0,0,0
	C200.5,15.1,200.4,15.3,200.4,15.4z"/>
<path class="st157" d="M181.2,0.7c0.1-0.1,0.2-0.1,0.2-0.2C181.4,0.5,181.3,0.6,181.2,0.7z"/>
<path class="st19" d="M200.4,18.5c0-0.9,0-1.7,0.6-2.4c-0.2-0.2-0.4-0.4-0.6-0.7c-1.5,1.2-3,2.5-4.5,3.7c-4.6,3.7-9.1,7.5-13.4,11.5
	c0,10.1,0.1,20.1,0.1,30.2c3.8-3.1,7.5-6.2,11.3-9.4c2.2-1.8,4.4-3.7,6.6-5.5c0.2-0.4,0.4-0.8,0.6-1.2c-0.6-0.7-0.7-1.5-0.7-2.4
	C200.4,34.5,200.4,26.5,200.4,18.5z"/>
<path class="st19" d="M201,16.1C201,16.1,201,16.1,201,16.1c-0.2-0.2-0.4-0.4-0.6-0.7l0,0C200.6,15.7,200.8,15.9,201,16.1z"/>
<path class="st19" d="M200.4,46C200.4,46,200.4,46,200.4,46c-2.2,1.8-4.4,3.7-6.6,5.5C196,49.7,198.2,47.9,200.4,46z"/>
<path class="st19" d="M195.8,19.2c-4.6,3.7-9.1,7.5-13.4,11.5c0,0,0,0,0,0c0,0,0,0,0,0C186.8,26.6,191.3,22.9,195.8,19.2z"/>
<path class="st157" d="M213.5,96.1c-0.5,0.5-1.1,0.9-1.6,1.4c-3.9,3.2-7.9,6.2-11.4,9.9c5.4,4.5,10.8,8.9,16.2,13.4
	c0.2,0.1,0.3,0.3,0.5,0.4c0.5,0.4,1,0.8,1.7,0.8c0.3-0.2,0.6-0.4,0.8-0.6c-1-1-0.7-2.4-0.7-3.6c0-8.6,0-17.2,0-25.8
	c-0.2,0-0.4,0-0.7,0C216.7,93.4,215,94.7,213.5,96.1z"/>
<path class="st158" d="M200.4,14.8C200.5,14.9,200.5,14.9,200.4,14.8c1.7-1.2,3.2-2.4,4.8-3.7c4.7-3.8,9.2-7.7,13.6-11.8
	c-6-4.9-12-9.8-18-14.8c-0.1,0-0.2,0.1-0.3,0.1C200.4-5.2,200.4,4.8,200.4,14.8C200.4,14.8,200.4,14.8,200.4,14.8z"/>
<path class="st158" d="M218.8-0.6C218.8-0.6,218.8-0.6,218.8-0.6c-4.4,4.1-8.9,8-13.6,11.8C209.9,7.4,214.5,3.5,218.8-0.6z"/>
<path class="st158" d="M200.5,14.9C200.5,14.9,200.5,14.9,200.5,14.9C200.5,14.9,200.5,14.9,200.5,14.9
	C200.5,14.9,200.5,14.9,200.5,14.9z"/>
<path class="st22" d="M201,16.1c-0.6,0.7-0.6,1.5-0.6,2.4c0,8,0,16,0,23.9c0,0.9,0,1.7,0.7,2.4c5.9-3.9,11.1-8.8,16.3-13.5
	c1.1-1,0.4-1.8-0.5-2.5c-2.2-1.7-4.1-3.7-6.3-5.3c-0.4-0.3-0.8-0.6-1.2-0.9c-0.8-0.6-1.5-1.3-2.2-2C205.3,18.8,203.4,17.1,201,16.1
	C201,16.1,201,16.1,201,16.1z"/>
<path class="st22" d="M207.1,20.5c0.7,0.7,1.5,1.4,2.2,2C208.6,21.9,207.8,21.2,207.1,20.5z"/>
<path class="st22" d="M201,16.1c2.4,1,4.2,2.7,6.1,4.4C205.3,18.8,203.4,17.1,201,16.1C201,16.1,201,16.1,201,16.1
	C201,16.1,201,16.1,201,16.1z"/>
<path class="st25" d="M109.8,245.3c0-2,0-3.9,0-5.9c0-8,0-16,0-24.1c5.5-5.7,11.7-10.5,17.9-15.3c5.6-5.3,11.4-10.4,17.7-14.8v0
	c0,0,0,0,0,0c0.1-0.3,0.2-0.6,0.3-0.9c-5.5-4.7-10.9-9.5-16.4-14.2c-0.1-0.1-0.2-0.2-0.4-0.2c-0.1-0.1-0.3-0.1-0.4-0.2c0,0,0,0,0,0
	c-0.3-0.1-0.6-0.2-0.9-0.3c-4,2.8-7.7,6.1-11.4,9.3c-1.2,1.1-2.5,2.1-3.7,3.1c-0.8,0.7-1.5,1.5-2.6,1.8c-0.2,0.2-0.4,0.4-0.6,0.5
	c-2.9,2.7-6,5.4-9,7.9c-3,2.5-6,5-9.1,7.4c-6.1,5.2-11.8,10.7-18.4,15.3c0,0.2,0,0.4,0,0.6c0,0.1,0.1,0.2,0.1,0.2
	c0,0.1,0.1,0.2,0.1,0.3c0,0,0,0.1-0.1,0.1c0,0-0.1,0.1-0.1,0.1c0,8.8,0,17.5,0,26.3c0,1,0.2,2.1-0.6,3c-0.1,0.4-0.2,0.7-0.3,1
	c-0.7,1.4-1.9,2.2-3.1,3.1c-0.5,0.3-1,0.7-1.4,1.1c-1.5,1.3-3.1,2.6-4.6,4c-2.5,2.2-5.1,4.4-7.9,6.3c-4.2,4-8.5,7.8-13.1,11.3
	c-1.5,1.2-3.1,2.3-4.7,3.4c0,0,0,0,0,0c-0.3,0.6-0.7,1.1-1,1.7c1.8,0,2.9,1,4,2.1c0.2,0.2,0.4,0.4,0.6,0.7c0.4,0.4,0.8,0.9,1.3,1.2
	c1.6,1.3,3.2,2.6,4.8,3.8c2.7,2.1,5.3,4.3,7.5,7c2.8-2.3,5.5-4.6,8.3-6.7c1.4-1,2.7-2.2,3.9-3.3c0.6-0.6,1.3-1.1,1.9-1.7
	c1.5-1.3,3.1-2.6,4.9-3.6c5.3-5.2,11.3-9.6,16.8-14.5c1-0.9,1.7-0.5,2.5,0.2c2.7,2.4,5.4,4.8,8.3,7c2.9,2.2,5.2,5.3,8.8,6.6
	c0-10,0-20,0-29.9C109.8,245.7,109.8,245.5,109.8,245.3z"/>
<path class="st25" d="M68.4,280.1c-0.6,0.5-1.3,1.1-1.9,1.7C67.1,281.2,67.8,280.7,68.4,280.1z"/>
<path class="st25" d="M36,277C36,277,36,277,36,277c1.8,0,2.9,1,4,2.1C38.9,278,37.8,277,36,277z"/>
<path class="st25" d="M46.8,284.8c2.7,2.1,5.3,4.3,7.5,7c0,0,0,0,0,0C52.1,289.2,49.4,287,46.8,284.8z"/>
<path class="st25" d="M145.3,185.1c0.1-0.3,0.2-0.6,0.3-0.9c0,0,0,0,0,0C145.5,184.5,145.4,184.8,145.3,185.1
	C145.3,185.1,145.3,185.1,145.3,185.1z"/>
<path class="st24" d="M127.6,261.2c0,10.1,0,20.2,0.1,30.3c2.6-2.2,5.2-4.4,7.8-6.6c3.3-2.8,6.7-5.6,10-8.4
	C140.1,270.9,133.6,266.3,127.6,261.2z"/>
<path class="st24" d="M127.7,291.5c2.6-2.2,5.2-4.4,7.8-6.6C132.9,287.2,130.3,289.4,127.7,291.5
	C127.7,291.5,127.7,291.5,127.7,291.5z"/>
<path class="st24" d="M120.8,255.2c-2-1.7-4-3.3-6-5c-1.7-1.4-3.4-2.8-5-4.3c0,10,0,20,0,29.9c2.2-1.8,4.5-3.5,6.7-5.3
	c3.7-3,7.3-6,10.6-9.4C125.1,259,123,257,120.8,255.2z"/>
<path class="st24" d="M116.4,270.6c3.7-3,7.3-6,10.6-9.4c0,0,0,0,0,0C123.7,264.5,120.1,267.6,116.4,270.6z"/>
<path class="st24" d="M114.7,250.2c2,1.7,4.1,3.3,6,5C118.8,253.5,116.8,251.9,114.7,250.2z"/>
<path class="st25" d="M72.7,30.8c0,8.8,0,17.5,0,26.3c0,1,0.2,2.1-0.6,3c0.1,1.4-0.7,2.4-1.7,3.2c-5.4,4-10,9-15.6,12.8
	c-5.6,5.3-11.4,10.4-17.7,14.8l0,0c0,0,0,0,0,0c0,0.1-0.1,0.3-0.2,0.4c0,0,0,0,0,0.1c1.1,1.9,2.6,3.3,4.3,4.6c0.7,0.5,1.3,1,2,1.5
	c0.3,0.3,0.7,0.5,1,0.8c0.9,0.7,1.8,1.5,2.6,2.3c2.5,2.3,5,4.8,8.2,6.3c4.7-3.3,8.9-7.2,13.2-10.9c0.6-0.5,1.3-1,1.9-1.6
	c0.8-0.7,1.5-1.5,2.6-1.8c5.6-5.7,12-10.3,17.9-15.5c5.7-5,11.6-9.9,17.4-14.8c0.5-0.4,1.1-0.6,1.7-0.9c0-7.5,0.1-15.1,0.1-22.6
	c0-2.7,0-5.3,0-8c0-0.2,0-0.4,0-0.6c-3.7-1.9-6.4-5.1-9.7-7.6c-2.4-1.8-4.5-3.9-6.8-5.8c-1.4-1.1-1.7-2-0.2-3.2
	c5.4-4.4,10.7-9,16.1-13.4c0-0.4,0-0.8,0-1.3c-2-0.8-3.5-2.3-5.1-3.7c-0.5-0.5-1.1-0.9-1.6-1.4c-1-0.7-1.9-1.5-2.8-2.3
	c-2.7-2.4-5.3-4.9-8.5-6.6c-6.5,4.7-12.5,10-18.4,15.4c0,10,0,19.9,0,29.9C72.7,30.3,72.7,30.5,72.7,30.8z"/>
<path class="st25" d="M37.1,90.9c0,0.1-0.1,0.3-0.2,0.4C37,91.2,37.1,91,37.1,90.9C37.1,90.9,37.1,90.9,37.1,90.9z"/>
<path class="st24" d="M54.8,14.8c0-10.1-0.1-20.3-0.1-30.4c0,0,0,0,0,0c0,0,0,0,0,0c-5.9,5-11.9,10-17.8,15
	C42.4,5.1,48.8,9.8,54.8,14.8z"/>
<path class="st24" d="M54.8,14.8c0-10.1-0.1-20.3-0.1-30.4c0,0,0,0,0,0C54.7-5.5,54.8,4.7,54.8,14.8z"/>
<path class="st24" d="M61.6,20.9c1.7,1.4,3.4,2.7,5.1,4.1c2,1.6,4.1,3.3,6,5.1c0-10,0-19.9,0-29.9c-1.5,1.2-3,2.3-4.5,3.5
	c-4.4,3.5-8.8,7.2-12.8,11.2C57.3,17.1,59.4,19,61.6,20.9z"/>
<path class="st24" d="M68.2,3.7c-4.4,3.5-8.8,7.2-12.8,11.2c0,0,0,0,0,0C59.4,10.8,63.8,7.2,68.2,3.7z"/>
<path class="st24" d="M66.7,25c-1.7-1.4-3.4-2.7-5.1-4.1C63.3,22.3,65,23.6,66.7,25z"/>
<path class="st14" d="M109.2,0.1c4.9,2.8,8.7,7,13.1,10.3c0.9,0.7,1.8,1.4,2.7,2.2c0.9,0.7,1.8,1.5,2.7,2.2
	c5.1-4.2,10.2-8.4,15.3-12.6c0.7-0.6,1.5-1.1,2.3-1.6c0,0,0,0,0,0c0,0,0,0,0,0c0.1-0.3,0.3-0.5,0.4-0.8c-0.1-0.7-0.1-1.5-0.2-2.2
	c-1.2,0.1-2.3-0.1-3.2-1c-3.7-3.2-7.5-6.2-11.2-9.3c-2.6-2.2-4.2-2.3-6.7-0.1c-3.1,2.6-6,5.4-9.2,7.8c-0.7,0.5-1.3,1.2-2,1.8
	c-1.1,1.1-2.2,2.1-4,2.1c0,0,0,0,0,0c0,0,0,0,0,0C109.2-0.7,109.2-0.3,109.2,0.1z"/>
<path class="st159" d="M145.3,0.6c0.6,0.5,0.8,1.2,0.8,1.9c0,0.2,0,0.5,0,0.7c0,8.1,0,16.1,0,24.2c0,0.8-0.1,1.5-0.6,2.1
	c0,0.3,0,0.5,0,0.8c0.4-0.1,0.8-0.2,1.3-0.3h0c0,0,0,0,0,0c0.8-0.8,1.6-1.6,2.5-2.4c4.9-4.3,9.9-8.5,14.8-12.8
	c0-10.1-0.1-20.1-0.1-30.2c-6.1,5-12.2,10.1-18.3,15.1c0,0,0,0,0,0c0,0,0,0,0,0C145.5,0.1,145.4,0.3,145.3,0.6z"/>
<path class="st159" d="M164,14.8c0-10.1-0.1-20.1-0.1-30.2c0,0,0,0,0,0C164-5.3,164,4.8,164,14.8z"/>
<path class="st159" d="M146.8,30C146.8,30,146.8,30,146.8,30c0.8-0.8,1.6-1.6,2.5-2.4C148.4,28.3,147.6,29.2,146.8,30z"/>
<path class="st159" d="M145.3,0.6C145.3,0.6,145.3,0.6,145.3,0.6c0.1-0.3,0.3-0.5,0.4-0.8C145.5,0.1,145.4,0.3,145.3,0.6z"/>
<path class="st159" d="M200.4,14.8c0-10,0-20,0-30.1c-6,4.9-11.9,9.8-17.9,14.7c0,0.2,0,0.4,0,0.6c0,0,0,0,0,0c0,0,0,0,0,0
	C188.5,5,194.4,9.9,200.4,14.8z"/>
<path class="st159" d="M182.5-0.6c0,0.2,0,0.4,0,0.6c0,0,0,0,0,0C182.5-0.1,182.5-0.3,182.5-0.6z"/>
<path class="st159" d="M36,277C36,277,36,277,36,277c0.3-0.6,0.7-1.1,1-1.7c-0.4-0.4-0.6-0.9-0.7-1.4c0-0.2,0-0.4,0-0.6
	c0-0.1,0-0.2,0-0.3c0-8,0-16,0-24c0-0.8,0-1.7,0.6-2.4c-0.2-0.2-0.5-0.4-0.7-0.7c-5.9,4.9-11.8,9.9-17.7,14.8h0
	c0,0.2-0.1,0.3-0.2,0.5c0,5,0,10,0,15.1c0,5,0,10,0,15C24.3,286.5,30.2,281.8,36,277z"/>
<path class="st159" d="M18.4,276.3c0,5,0,10,0,15c0,0,0,0,0,0C18.5,286.3,18.5,281.3,18.4,276.3z"/>
<path class="st159" d="M36,277c-5.8,4.8-11.7,9.5-17.5,14.3l0,0C24.3,286.5,30.2,281.8,36,277C36,277,36,277,36,277
	C36,277,36,277,36,277z"/>
<path class="st159" d="M36,277L36,277c0.3-0.6,0.7-1.1,1-1.7c0,0,0,0,0,0c0,0,0,0,0,0C36.7,275.9,36.4,276.4,36,277z"/>
<polygon class="st159" points="36,277 36,277 36,277 "/>
<path class="st24" d="M-17.9,260.6c0,0.2-0.1,0.4-0.1,0.6c0,10,0,20,0.1,30.1c3.1-2.2,5.9-4.7,8.8-7.1s5.7-4.9,8.8-7
	c0.1-0.3,0.3-0.6,0.4-1C0,266,0,256-0.1,245.9C-6,250.8-12,255.7-17.9,260.6z"/>
<path class="st26" d="M18.4,261.2L18.4,261.2c0.1-0.2,0.1-0.3,0.2-0.5c-0.3-0.3-0.5-0.5-0.8-0.8c-2.5-1.3-4.6-3.1-6.6-5
	c-0.8-0.7-1.7-1.5-2.5-2.2c-0.4-0.4-0.8-0.7-1.3-1.1c-2.4-1.9-4.7-4-7-5.9c-0.1,0-0.3,0.1-0.4,0.1C0,256,0,266,0.1,276.1
	c0.8-0.6,1.7-1.2,2.5-1.9C7.9,269.9,13.1,265.5,18.4,261.2C18.4,261.2,18.4,261.2,18.4,261.2C18.4,261.2,18.4,261.2,18.4,261.2
	L18.4,261.2z"/>
<path class="st26" d="M2.6,274.2c5.3-4.3,10.5-8.7,15.8-13.1c0,0,0,0,0,0C13.1,265.5,7.9,269.9,2.6,274.2z"/>
<path class="st26" d="M18.4,261.2L18.4,261.2c0.1-0.2,0.1-0.3,0.2-0.5h0c0,0,0,0,0,0C18.5,260.9,18.5,261,18.4,261.2z"/>
<path class="st20" d="M254.8,154.6c-1.2-0.6-1.7,0.8-2.5,1.5c-4.4,3.8-8.9,7.6-13.3,11.3c-0.5,0.4-0.9,1.1-1.6,0.8
	c-0.7-0.3-0.6-1.1-0.6-1.7c0-1.2,0-2.3,0-3.5c-0.1-8.1-0.1-16.3-0.2-24.4c-6.1,5-12.1,10-18.2,14.9c-5.8,5-11.6,10.1-17.5,15.1
	c4,4.6,8.9,8.1,13.6,11.9c0.7,0.6,1.3,1.1,2,1.7c6.6,5.9,13.6,11.5,20.4,17.2c0.9-0.7,1.9-1.4,2.8-2.1c5.2-4.3,10.4-8.7,15.6-13
	c0-8.9,0-17.8,0-26.8C255.3,156.5,255.8,155.1,254.8,154.6z"/>
<path class="st18" d="M214.5,180.6c-4.6-3.9-9.6-7.4-13.6-11.9c-0.1,0-0.3,0-0.4,0c0,0,0,0-0.1,0c-6,5.1-12,10.1-17.9,15.2
	c0,0.3,0.1,0.5,0.1,0.8c6,4.9,12.2,9.6,17.7,15.1c0,0,0,0,0,0c0.1,0.1,0.2,0.2,0.4,0.3c5.2,3.5,9.7,8,14.6,11.9
	c1.2,0.9,2.3,1.8,3.5,2.7c6.3-4.9,12.3-10,18.2-15.3c-6.8-5.7-13.8-11.3-20.4-17.2C215.9,181.7,215.2,181.1,214.5,180.6z"/>
<path class="st18" d="M200.7,200.1c-0.1-0.1-0.2-0.2-0.4-0.3c0,0,0,0,0,0c0,0,0,0,0,0C200.4,199.9,200.6,200,200.7,200.1z"/>
<path class="st18" d="M182.6,184.6c0-0.3-0.1-0.5-0.1-0.8c0,0,0,0,0,0C182.6,184.1,182.6,184.4,182.6,184.6z"/>
<path class="st16" d="M200.7,200.1c0,10,0,19.9,0,29.9c6-5,12-9.9,18.1-14.9c0,0,0,0,0,0c0,0,0,0,0,0c0-0.1,0-0.3,0-0.4
	c-1.2-0.9-2.3-1.8-3.5-2.7C210.3,208.1,205.9,203.6,200.7,200.1z"/>
<path class="st16" d="M200.6,230c0-10,0-19.9,0-29.9C200.7,210,200.6,220,200.6,230C200.6,230,200.6,230,200.6,230z"/>
<path class="st16" d="M200.6,230L200.6,230c6-5,12-9.9,18.1-14.9c0,0,0,0,0,0C212.7,220.1,206.6,225,200.6,230z"/>
<polygon class="st16" points="200.6,230 200.6,230 200.6,230 "/>
<path class="st24" d="M208.1,144.5c1.5,1.2,3,2.4,4.4,3.8c1.9,1.8,4.3,3.1,5.9,5.3c6.1-5,12.1-10,18.2-14.9c0.1-0.2,0.2-0.3,0.2-0.5
	c0-0.2-0.1-0.5-0.1-0.7c-3.8-1.8-6.4-5-9.6-7.5c-2.9-2.2-5.5-4.8-8.3-7.3c-6,5.1-11.9,10.2-17.9,15.3
	C203,140.4,205.6,142.4,208.1,144.5z"/>
<path class="st22" d="M33.5,125.2c0.9-0.7,1.8-1.4,2.8-2.1c0.1-0.2,0.1-0.3,0.2-0.5c0-8.5-0.1-17.1-0.1-25.6c0-1.3,0.4-2.8-0.9-3.8
	c-4.5,3.2-8.7,6.8-12.8,10.5c-1.4,1.2-2.8,2.4-4.2,3.6c0.1,10.1,0.1,20.2,0.2,30.3C23.5,133.5,28.5,129.4,33.5,125.2z"/>
<path class="st24" d="M36.3,97c0.1,8.5,0.1,17.1,0.1,25.6c6.1-5.1,12.3-10.2,18.4-15.3c0-0.2,0.1-0.4,0.1-0.6
	c-3.2-1.5-5.6-4-8.2-6.3c-0.8-0.8-1.7-1.5-2.6-2.3c-0.3-0.3-0.7-0.5-1-0.8c-0.7-0.5-1.3-1-2-1.5c-1.6-1.3-3.2-2.7-4.3-4.6
	c-0.5,0.6-1.1,1.2-1.6,1.8C36.7,94.2,36.3,95.7,36.3,97z"/>
<path class="st157" d="M54.8,76.1c-2.6-2-5.1-4.1-7.7-6.1c-2.6-1.9-4.8-4.3-7.4-6.2c-0.9-0.6-1.8-1.2-2.7-1.7
	c-0.6,0.7-0.6,1.5-0.6,2.4c0,7.9,0,15.9,0,23.8c0,0.1,0,0.2,0,0.4c0,0.7,0.1,1.4,0.5,2c0.1,0.1,0.2,0.2,0.3,0.3
	C43.5,86.4,49.2,81.4,54.8,76.1z"/>
<path class="st157" d="M36.9,90.6c-0.5-0.6-0.5-1.3-0.5-2C36.3,89.3,36.4,90,36.9,90.6z"/>
<path class="st157" d="M-0.1,122.6c6.1,5.1,12.5,9.8,18.1,15.6c0.2-0.2,0.4-0.4,0.6-0.5c-0.1-10.1-0.1-20.2-0.2-30.3
	c-2.9,2.4-5.8,4.9-8.8,7.2c-1.2,1-2.3,2-3.5,3c-1.9,1.7-3.9,3.3-6.2,4.5l0,0l0,0C-0.1,122.3-0.1,122.4-0.1,122.6z"/>
<path class="st157" d="M6.1,117.6c-1.9,1.7-3.9,3.3-6.2,4.5l0,0C2.2,120.9,4.2,119.2,6.1,117.6z"/>
<path class="st22" d="M212.5,148.2c-1.4-1.3-2.9-2.6-4.4-3.8c-2.5-2-5.1-4-7.1-6.6c-6.1,5.2-12.3,10.3-18.4,15.5c0,0,0,0,0,0
	c0,0,0,0,0,0c0,0.2,0,0.4,0,0.5c0,0.2,0.1,0.4,0.1,0.6c3.2,0.8,5,3.5,7.4,5.3c3.6,2.8,7,5.8,10.5,8.8c0,0,0,0,0,0h0c0,0,0,0,0.1,0
	c0.1,0,0.3,0,0.4,0c5.8-5,11.6-10.1,17.5-15.1C216.8,151.4,214.4,150,212.5,148.2z"/>
<path class="st22" d="M182.6,154.6c0-0.2-0.1-0.4-0.1-0.6c0,0,0,0,0,0C182.6,154.2,182.6,154.4,182.6,154.6z"/>
<path class="st22" d="M200.5,168.7C200.5,168.7,200.5,168.7,200.5,168.7C200.5,168.7,200.5,168.7,200.5,168.7L200.5,168.7z"/>
<path class="st22" d="M208.1,144.5c-2.5-2-5.1-4-7.1-6.6h0C203,140.4,205.6,142.4,208.1,144.5z"/>
<path class="st22" d="M149,150.8c-0.9,0.7-1.8,1.4-2.8,2.1c-0.1,0.1-0.1,0.3-0.2,0.5c0,8.5,0.1,17.1,0.1,25.6c0,1.3-0.4,2.8,0.9,3.8
	c4.5-3.2,8.7-6.8,12.8-10.5c1.4-1.2,2.8-2.4,4.1-3.6c-0.1-10.1-0.1-20.2-0.2-30.3C158.9,142.5,153.9,146.7,149,150.8z"/>
<path class="st24" d="M146.1,179c-0.1-8.5-0.1-17.1-0.1-25.6c-6.1,5.1-12.3,10.2-18.4,15.3c0,0.2-0.1,0.4-0.1,0.6
	c0.3,0.1,0.6,0.2,0.9,0.3c0,0,0,0,0,0c0.1,0.1,0.3,0.1,0.4,0.2c0.1,0.1,0.3,0.1,0.4,0.2c5.5,4.7,11,9.5,16.4,14.2
	c0.5-0.5,1-0.9,1.5-1.4C145.7,181.8,146.2,180.3,146.1,179z"/>
<path class="st24" d="M128.4,169.6C128.4,169.6,128.4,169.6,128.4,169.6C128.4,169.6,128.4,169.6,128.4,169.6z"/>
<path class="st157" d="M127.6,199.9c2.6,2,5.1,4.1,7.7,6.1c1.7,1.3,3.3,2.8,4.9,4.2c0.8,0.7,1.6,1.4,2.5,2c0.9,0.6,1.8,1.2,2.8,1.7
	c0.6-0.7,0.6-1.5,0.6-2.4c0-7.9,0-15.9,0-23.8c0-0.2,0-0.5,0-0.7c0-0.6-0.1-1.2-0.5-1.6c-0.1-0.1-0.2-0.2-0.3-0.3
	C139,189.6,133.2,194.6,127.6,199.9z"/>
<path class="st157" d="M145.6,185.4c0.4,0.5,0.5,1,0.5,1.6C146.1,186.5,146,185.9,145.6,185.4z"/>
<path class="st157" d="M164.1,168.7c2.8-2.3,5.5-4.6,8.3-6.8c1.7-1.3,3.3-2.8,4.9-4.2c1.6-1.4,3.3-2.8,5.3-3.7v0c0-0.2,0-0.4,0-0.5
	c-3.9-3.1-7.8-6.2-11.6-9.4c-2.3-1.9-4.5-4-6.5-6.1c-0.2,0.2-0.4,0.4-0.6,0.5C164,148.5,164,158.6,164.1,168.7z"/>
<path class="st157" d="M182.5,153.9c-2,1-3.7,2.3-5.3,3.7C178.9,156.2,180.5,154.9,182.5,153.9C182.5,153.9,182.5,153.9,182.5,153.9
	L182.5,153.9z"/>
<path class="st157" d="M182.5,153.9c0-0.2,0-0.4,0-0.5c0,0,0,0,0,0C182.6,153.6,182.6,153.8,182.5,153.9L182.5,153.9z"/>
<path class="st16" d="M187.2,210.7c4.5-3.8,8.8-7.4,13.1-11c-5.5-5.5-11.6-10.3-17.7-15.1c0,9.8,0,19.5,0,29.9
	C184.2,213.2,185.7,212,187.2,210.7z"/>
<path class="st16" d="M200.3,199.8C200.3,199.8,200.3,199.8,200.3,199.8c-4.3,3.6-8.6,7.2-13.1,11
	C191.7,206.9,196,203.4,200.3,199.8z"/>
<path class="st157" d="M182.5,183.8c6-5.1,12-10.1,17.9-15.2c-3.5-2.9-6.9-6-10.5-8.8c-2.4-1.9-4.2-4.5-7.4-5.3
	C182.6,164.3,182.6,174.1,182.5,183.8C182.5,183.8,182.5,183.8,182.5,183.8z"/>
<path class="st157" d="M182.5,183.8C182.5,183.8,182.5,183.8,182.5,183.8c0-9.8,0.1-19.5,0.1-29.3
	C182.6,164.3,182.6,174.1,182.5,183.8C182.5,183.8,182.5,183.8,182.5,183.8z"/>
<path class="st16" d="M167.1,109.9c-2.9-2.2-2.9-2.8,0-5.2c4.3-3.6,8.6-7.2,12.9-10.8c1.8-1.5,1.8-2.6,0-4c-1.7-1.2-3.4-2.5-4.9-4
	c-3.4-3.3-7.6-5.8-10.5-9.6c-6.1,5.1-12.2,10.1-18.3,15.2c0,0,0,0.1-0.1,0.1c-0.1,0.1-0.1,0.3-0.2,0.4c0.1,8.8,0.3,17.6,0,26.3
	c0,1.3-0.1,2.5-0.2,3.8c0,0.4,0,0.7,0,1.1c0.4,7.4,0.4,14.8,0.3,22.1c0,2.5-0.1,4.9-0.1,7.4c0,0,0.1,0.1,0.2,0.2c0,0,0,0,0,0
	c0.9-0.7,1.9-1.4,2.8-2.1c5-4.1,10-8.3,14.9-12.4c0,0,0,0,0,0c0,0,0,0,0,0c0.2-0.2,0.4-0.4,0.6-0.5c5-4.3,10-8.5,14.9-12.8
	c1-0.9,2.2-1.6,2.7-3c-4.7-3.1-8.8-7.1-13.1-10.7C168.4,110.9,167.8,110.4,167.1,109.9z"/>
<path class="st16" d="M163.9,138.4c-5,4.1-10,8.3-14.9,12.4C153.9,146.7,158.9,142.5,163.9,138.4
	C163.9,138.4,163.9,138.4,163.9,138.4z"/>
<path class="st159" d="M217.2,121.2c-0.2-0.1-0.3-0.3-0.5-0.4c-5.4-4.5-10.8-9-16.2-13.4c-2.4,2-4.7,4.2-7.2,6.1
	c-0.5,0.4-0.9,0.7-1.4,1.1c-3.1,2.6-5.9,5.7-9.8,7.5c0,0,0,0,0,0c0,0,0,0,0,0c-0.5,1.4-1.7,2.1-2.7,3c-5,4.2-10,8.5-14.9,12.8
	c2.1,2.1,4.3,4.2,6.5,6.1c3.8,3.2,7.7,6.3,11.6,9.4c6.1-5.2,12.3-10.3,18.4-15.5c0,0,0,0,0,0c6-5.1,11.9-10.2,17.9-15.3
	c0-0.2,0-0.3,0-0.5c0,0,0,0,0,0c0,0,0,0,0,0C218.2,122,217.7,121.6,217.2,121.2z"/>
<path class="st159" d="M182.1,122.1c3.8-1.7,6.6-4.8,9.8-7.5C188.8,117.2,186,120.3,182.1,122.1
	C182.1,122.1,182.1,122.1,182.1,122.1z"/>
<path class="st159" d="M218.8,122.1C218.8,122.1,218.8,122.1,218.8,122.1c-0.7-0.1-1.2-0.4-1.7-0.8
	C217.7,121.6,218.2,122,218.8,122.1z"/>
<path class="st159" d="M201,137.9C201,137.9,201,137.9,201,137.9c-6.1,5.2-12.3,10.3-18.4,15.5C188.7,148.2,194.8,143.1,201,137.9
	L201,137.9z"/>
<path class="st23" d="M146,60.9c0,0.1,0,0.3,0,0.4c0.1,8.9,0.1,17.8,0.2,26.8c0,1.2,0.1,2.3,0.1,3.5c0,0,0,0,0,0h0
	c6.1-5.1,12.2-10.1,18.3-15.2c6-5.2,12-10.3,18-15.5c0-10.1-0.1-20.1-0.1-30.2c-1.2,0.3-1.9,1.3-2.8,2c-5.2,4.3-10.4,8.6-15.6,12.9
	c-1.5,1.3-2.9,2.7-4.4,4C155.2,53.4,150.6,57.2,146,60.9z"/>
<path class="st23" d="M182.5,30.7C182.5,30.7,182.5,30.7,182.5,30.7c0,10.1,0.1,20.1,0.1,30.2C182.5,50.8,182.5,40.7,182.5,30.7z"/>
<path class="st23" d="M146.2,91.6c6.1-5.1,12.2-10.1,18.3-15.2C158.5,81.4,152.3,86.5,146.2,91.6L146.2,91.6z"/>
<path class="st19" d="M132.6,41.7c-1.5,1.2-2.9,2.5-4.3,3.8c0.2,1.7,1.5,2.4,2.7,3.2c0.4,0.3,0.8,0.5,1.1,0.8
	c4.6,3.8,8.8,8.1,13.9,11.4c4.7-3.7,9.2-7.4,13.7-11.3c1.5-1.3,2.9-2.6,4.4-4c-5.1-4.3-10.3-8.5-15.4-12.8c-0.2-0.2-0.5-0.4-0.7-0.6
	c-0.6-0.6-1.1-1.3-1.2-2.3c-0.4,0.1-0.8,0.2-1.3,0.3C141.5,34.5,137,38,132.6,41.7z"/>
<path class="st19" d="M159.7,49.5c-4.4,3.9-9,7.7-13.7,11.3c0,0,0,0,0,0C150.6,57.2,155.2,53.4,159.7,49.5z"/>
<path class="st17" d="M109.8,152.7c0-9.6,0-19.2,0-28.8c0-0.4-0.1-0.8-0.1-1.2c-5.5,4.6-11.1,9.2-16.6,13.7
	c-1.6,1.3-1.9,2.9-1.9,4.8c0,9.3,0,18.6,0,28c2.9,1.6,5.3,3.9,7.7,6c0.6,0.6,1.3,1.2,2,1.7c0.5,0.4,0.9,0.8,1.4,1.1
	c2.4,1.9,4.7,4,7,5.9c0.2-0.2,0.4-0.4,0.6-0.5c0-9.8,0-19.7,0-29.5C109.8,153.5,109.8,153.1,109.8,152.7z"/>
<path class="st22" d="M54.8,230.5c-5,4.1-10,8.3-15,12.4c-0.8,0.7-1.7,1.3-2.5,1.9c0,0,0,0,0,0c-0.3,0.4-0.6,0.7-1,1.1
	c0.2,0.2,0.5,0.4,0.7,0.7c4,1.9,6.6,5.4,10.2,7.9c2.7,1.9,4.7,4.6,7.6,6.1c2.8-1.9,5.4-4.1,7.9-6.3c1.5-1.3,3-2.7,4.6-4
	c0.5-0.4,0.9-0.7,1.4-1.1c1.2-0.8,2.5-1.7,3.1-3.1c0.1-0.3,0.3-0.6,0.3-1C66.7,239.8,60.7,235.2,54.8,230.5z"/>
<path class="st22" d="M71.8,246.2c0.1-0.3,0.3-0.6,0.3-1c0,0,0,0,0,0C72,245.6,71.9,245.9,71.8,246.2z"/>
<path class="st22" d="M54.8,260.6c2.8-1.9,5.4-4.1,7.9-6.3C60.1,256.5,57.6,258.7,54.8,260.6C54.7,260.6,54.7,260.6,54.8,260.6z"/>
<path class="st21" d="M102.2,178.1c-0.5-0.4-0.9-0.7-1.4-1.1c-0.7-0.6-1.3-1.1-2-1.7c-2.4-2.2-4.8-4.4-7.7-6
	c-4.1,2.7-7.7,6.1-11.4,9.3c-1.2,1.1-2.5,2.1-3.8,3.1c-1.2,0.9-2.2,1.9-3.3,2.9c3.2,1.9,5.9,4.3,8.7,6.7c1.6,1.5,3.3,2.9,5,4.2
	c1.6,1.2,3.1,2.5,4.6,3.8c3.1-2.4,6.1-4.9,9.1-7.4c3.1-2.6,6.1-5.2,9-7.9C106.9,182,104.6,180,102.2,178.1z"/>
<path class="st21" d="M91.1,199.3c3.1-2.4,6.1-4.9,9.1-7.4C97.2,194.5,94.1,196.9,91.1,199.3C91.1,199.3,91.1,199.3,91.1,199.3z"/>
<path class="st21" d="M98.9,175.3c-2.4-2.2-4.8-4.4-7.7-6v0C94,170.9,96.4,173.1,98.9,175.3z"/>
<path class="st18" d="M56.9,197.9c-0.7,0.7-1.4,1.4-2.1,2.1c2.5,1.3,4.5,3.1,6.6,5c1.2,1.1,2.5,2.2,3.8,3.2c2.6,2,5,4.3,7.4,6.4
	c6.6-4.6,12.4-10.1,18.4-15.3c0,0,0,0,0,0c-1.5-1.3-3-2.6-4.6-3.8c-1.7-1.3-3.4-2.8-5-4.2c-2.7-2.4-5.5-4.9-8.7-6.7
	C67.5,189,62,193.2,56.9,197.9z"/>
<path class="st18" d="M91.1,199.3c-6.1,5.2-11.8,10.7-18.4,15.3c0,0,0,0,0,0C79.2,210,85,204.5,91.1,199.3
	C91.1,199.3,91.1,199.3,91.1,199.3C91.1,199.3,91.1,199.3,91.1,199.3z"/>
<path class="st18" d="M81.4,191.3c-2.7-2.4-5.5-4.9-8.7-6.7c0,0,0,0,0,0C75.9,186.4,78.7,188.8,81.4,191.3z"/>
<path class="st157" d="M54.7,260.6c-3-1.5-5-4.2-7.6-6.1c-3.5-2.5-6.2-6.1-10.2-7.9c-0.6,0.7-0.6,1.5-0.6,2.4c0,8,0,16,0,24
	c0,0.1,0,0.2,0,0.3c0,0.2,0,0.4,0,0.6c0.1,0.5,0.2,1,0.7,1.4c1.6-1.1,3.2-2.2,4.7-3.4C46.3,268.4,50.6,264.6,54.7,260.6
	C54.7,260.6,54.7,260.6,54.7,260.6z"/>
<path class="st157" d="M54.7,260.6c-4.2,4-8.5,7.8-13.1,11.3C46.3,268.4,50.6,264.6,54.7,260.6C54.7,260.6,54.7,260.6,54.7,260.6
	C54.7,260.6,54.7,260.6,54.7,260.6z"/>
<path class="st157" d="M37,275.3C37,275.3,37,275.3,37,275.3c-0.4-0.4-0.6-0.9-0.7-1.4C36.4,274.4,36.6,274.9,37,275.3z"/>
<path class="st157" d="M36.4,273.9c0-0.2,0-0.4,0-0.6C36.3,273.5,36.3,273.7,36.4,273.9z"/>
<path class="st20" d="M72.6,214.6C72.6,214.6,72.6,214.6,72.6,214.6c-2.5-2.2-4.8-4.5-7.4-6.4c-1.3-1-2.6-2.1-3.8-3.2
	c-2.1-1.9-4.1-3.7-6.6-5c0,0-0.1,0-0.1,0.1c-0.2,0.2-0.5,0.3-0.7,0.5c0.9,0.9,0.8,2,0.8,3.1c0,0.2,0,0.3,0,0.5c0,8.6,0,17.2,0,25.8
	c2.1-1.8,4.2-3.5,6.3-5.3c2.5-2.1,5.1-4.3,7.6-6.4c1.2-1,2.2-2.3,3.9-2.5c0-0.2,0-0.5,0-0.7c0,0,0,0,0,0c0,0,0,0,0,0
	C72.6,215,72.6,214.8,72.6,214.6z"/>
<path class="st20" d="M72.6,214.6c0,0.2,0,0.4,0,0.6c0,0,0,0,0,0C72.6,215,72.6,214.8,72.6,214.6C72.6,214.6,72.6,214.6,72.6,214.6
	C72.6,214.6,72.6,214.6,72.6,214.6z"/>
<path class="st24" d="M72.7,215.9L72.7,215.9L72.7,215.9C72.7,215.9,72.7,215.9,72.7,215.9c-1.7,0.1-2.7,1.5-3.9,2.4
	c-2.6,2.1-5.1,4.2-7.6,6.4c-2.1,1.8-4.2,3.5-6.3,5.3c0,0.2,0,0.4-0.1,0.5c5.9,4.7,12,9.4,17.3,14.7c0,0,0,0,0,0c0.8-0.9,0.6-2,0.6-3
	C72.7,233.4,72.7,224.7,72.7,215.9C72.7,215.9,72.7,215.9,72.7,215.9L72.7,215.9z"/>
<polygon class="st24" points="72.7,215.9 72.7,215.9 72.7,215.9 "/>
<path class="st24" d="M54.8,230.5C54.8,230.5,54.8,230.5,54.8,230.5c5.9,4.7,12,9.4,17.3,14.7c0,0,0,0,0,0c0,0,0,0,0,0
	C66.7,239.8,60.7,235.2,54.8,230.5z"/>
<path class="st24" d="M61.1,224.7c-2.1,1.8-4.2,3.5-6.3,5.3c0,0,0,0,0,0C56.9,228.2,59,226.4,61.1,224.7z"/>
<path class="st21" d="M127.6,168.7c-6-4.9-11.9-9.8-17.9-14.7c0,9.8,0,19.7,0,29.5c1.1-0.3,1.8-1.1,2.6-1.8c1.3-1,2.5-2.1,3.7-3.1
	c3.7-3.2,7.3-6.5,11.4-9.3c0,0,0,0,0,0c0,0,0,0,0,0C127.5,169.1,127.6,168.9,127.6,168.7z"/>
<path class="st21" d="M116.1,178.5c3.7-3.2,7.3-6.5,11.4-9.3c0,0,0,0,0,0C123.4,172.1,119.8,175.3,116.1,178.5z"/>
<path class="st21" d="M109.8,154c0,9.8,0,19.7,0,29.5C109.8,173.6,109.8,163.8,109.8,154L109.8,154z"/>
<path class="st24" d="M72.7,215.9C72.7,215.9,72.7,215.9,72.7,215.9C72.7,215.9,72.7,215.9,72.7,215.9c0,0,0.1,0,0.1-0.1
	c0,0,0.1-0.1,0.1-0.1c0-0.1-0.1-0.2-0.1-0.3c0-0.1-0.1-0.1-0.1-0.2C72.7,215.4,72.7,215.6,72.7,215.9z"/>
<path class="st24" d="M72.7,215.4c0,0.1,0.1,0.2,0.1,0.3C72.8,215.6,72.8,215.5,72.7,215.4z"/>
<path class="st24" d="M72.7,215.9c0,0,0.1-0.1,0.1-0.1C72.8,215.8,72.7,215.8,72.7,215.9L72.7,215.9z"/>
<polygon class="st24" points="72.7,215.9 72.7,215.9 72.7,215.9 72.7,215.9 "/>
<path class="st24" d="M72.7,215.9C72.7,215.9,72.7,215.9,72.7,215.9C72.7,215.9,72.7,215.9,72.7,215.9
	C72.7,215.9,72.7,215.9,72.7,215.9z"/>
<path class="st24" d="M72.7,215.9C72.7,215.9,72.7,215.9,72.7,215.9C72.7,215.9,72.7,215.9,72.7,215.9L72.7,215.9z"/>
<polygon class="st24" points="72.7,215.9 72.7,215.9 72.7,215.9 72.7,215.9 "/>
<path class="st17" d="M72.8,122.1c2.2-0.9,3.9-2.4,5.6-3.9c1-0.9,2-1.9,3.1-2.7c8.9-7.3,17.6-14.8,26.4-22.2
	c0.3-0.3,0.6-0.6,0.9-0.9c0.3-0.3,0.6-0.6,0.9-0.9c0-9.8,0.1-19.6,0.1-29.4c0-0.2-0.1-0.4-0.2-0.6c-0.6,0.3-1.2,0.5-1.7,0.9
	C102.2,67.2,96.3,72,90.6,77c-5.9,5.2-12.4,9.9-17.9,15.5C72.7,102.4,72.7,112.2,72.8,122.1C72.7,122.1,72.8,122.1,72.8,122.1z"/>
<path class="st24" d="M109.8,62c2.3,1.2,4.2,2.9,6.2,4.6c1.1,1,2.3,2.1,3.4,3.1c2.6,2.2,5.7,4.1,7.6,7.1c5.4-3.9,10.3-8.5,15.5-12.7
	c1.2-0.9,2.3-1.8,3.5-2.8c0,0,0,0,0,0c0-0.1,0-0.3,0-0.4c0,0,0,0,0,0c-5.1-3.2-9.3-7.6-13.9-11.4c-0.3-0.3-0.7-0.5-1.1-0.8
	c-1.2-0.8-2.4-1.5-2.7-3.2c-2.8-1.5-5.2-3.5-7.6-5.6c-0.5-0.4-0.9-0.8-1.4-1.2c-1-0.8-1.9-1.6-2.9-2.4c-2.3-1.7-4.3-3.7-6.5-5.5
	c0,2.7,0,5.3,0,8c0,7.5-0.1,15.1-0.1,22.6C109.7,61.6,109.8,61.8,109.8,62z"/>
<path class="st24" d="M109.8,30.8c0,2.7,0,5.3,0,8C109.8,36.1,109.8,33.5,109.8,30.8C109.8,30.8,109.8,30.8,109.8,30.8z"/>
<path class="st24" d="M146,60.9C146,60.9,146,60.9,146,60.9C146,60.9,146,60.9,146,60.9c0,0.1,0,0.3,0,0.4c0,0,0,0,0,0c0,0,0,0,0,0
	C146,61.2,146,61,146,60.9z"/>
<path class="st21" d="M127.7,14.8c-0.9-0.7-1.8-1.5-2.7-2.2c-0.9-0.7-1.8-1.5-2.7-2.2c-4.4-3.4-8.2-7.6-13.1-10.3
	c-5.4,4.5-10.7,9-16.1,13.4c-1.5,1.3-1.2,2.1,0.2,3.2c2.3,1.8,4.4,4,6.8,5.8c3.3,2.4,6,5.7,9.7,7.6c5.9-4.9,11.9-9.8,17.8-14.7
	C127.6,15.2,127.7,15,127.7,14.8z"/>
<path class="st22" d="M109.8,30.8c2.2,1.8,4.2,3.8,6.5,5.5c1,0.8,2,1.6,2.9,2.4c0.5,0.4,1,0.8,1.4,1.2c2.4,2.1,4.8,4.1,7.6,5.6
	c1.4-1.3,2.9-2.5,4.3-3.8c4.4-3.7,9-7.3,12.9-11.5c0-0.3,0-0.5,0-0.8c-4-1.9-6.7-5.5-10.2-7.9c-2.7-1.9-4.7-4.7-7.7-6.1
	c-5.9,4.9-11.9,9.8-17.8,14.7C109.8,30.4,109.8,30.6,109.8,30.8L109.8,30.8z"/>
<path class="st22" d="M109.8,30.8c0-0.2,0-0.4,0-0.6C109.8,30.4,109.8,30.6,109.8,30.8C109.8,30.8,109.8,30.8,109.8,30.8L109.8,30.8
	z"/>
<path class="st21" d="M54.8,107.4c6,4.9,11.9,9.8,17.9,14.7c0-9.8,0-19.7,0-29.5c-1.1,0.3-1.8,1.1-2.6,1.8c-0.6,0.5-1.3,1-1.9,1.6
	c-4.4,3.7-8.5,7.6-13.2,10.9c0,0,0,0,0,0c0,0,0,0,0,0C54.9,107,54.9,107.2,54.8,107.4z"/>
<path class="st21" d="M68.2,95.9c-4.4,3.7-8.5,7.6-13.2,10.9c0,0,0,0,0,0C59.7,103.5,63.9,99.6,68.2,95.9z"/>
<path class="st21" d="M72.7,122.1c0-9.8,0-19.7,0-29.5C72.7,102.4,72.7,112.2,72.7,122.1L72.7,122.1z"/>
<path class="st157" d="M127.6,15.4C127.6,15.4,127.6,15.4,127.6,15.4L127.6,15.4c3,1.5,5,4.2,7.7,6.1c3.5,2.5,6.2,6.1,10.2,7.9
	c0.6-0.6,0.6-1.3,0.6-2.1c0-8.1,0-16.1,0-24.2c0-0.2,0-0.5,0-0.7c-0.1-0.7-0.2-1.4-0.8-1.9c-0.8,0.5-1.6,1-2.3,1.6
	c-5.1,4.2-10.2,8.4-15.3,12.6c0,0,0,0,0,0h0C127.7,15,127.6,15.2,127.6,15.4z"/>
<path class="st157" d="M143,2.2c-5.1,4.2-10.2,8.4-15.3,12.6c0,0,0,0,0,0C132.8,10.6,137.9,6.4,143,2.2z"/>
<path class="st157" d="M127.7,14.8c0,0.2-0.1,0.4-0.1,0.6c0,0,0,0,0,0C127.6,15.2,127.7,15,127.7,14.8z"/>
<path class="st15" d="M37.2,244.8c-1.1-0.9-0.9-2.2-0.9-3.4c0-0.2,0-0.3,0-0.5c0-8.5,0-17.1,0-25.6c-6,5.1-12,10.1-18,15.2
	c0,9,0.1,18,0.1,27.1c0,0.9,0,1.7-0.6,2.4c0.3,0.3,0.5,0.5,0.8,0.8c5.9-4.9,11.8-9.9,17.7-14.8h0c0,0,0,0,0,0
	C36.6,245.5,36.9,245.1,37.2,244.8z"/>
<path class="st15" d="M18.6,260.7L18.6,260.7c5.9-4.9,11.8-9.9,17.7-14.8h0C30.4,250.8,24.5,255.8,18.6,260.7z"/>
<path class="st15" d="M17.8,259.9C17.8,259.9,17.8,259.9,17.8,259.9c0.3,0.3,0.5,0.5,0.8,0.8c0,0,0,0,0,0
	C18.3,260.4,18.1,260.2,17.8,259.9z"/>
<polygon class="st15" points="18.6,260.7 18.6,260.7 18.6,260.7 "/>
<path class="st15" d="M36.3,245.9c0.3-0.4,0.6-0.7,1-1.1c0,0,0,0,0,0c0,0,0,0,0,0C36.9,245.1,36.6,245.5,36.3,245.9z"/>
<path class="st19" d="M0,244c-0.1-0.3-0.1-0.7-0.1-1.1c0-0.5,0.1-0.9,0.1-1.4c0-8.8,0-17.6-0.1-26.4c-6,5-11.9,9.9-17.9,14.9
	c-0.2,0.4-0.4,0.8-0.7,1.2c0.6,0.7,0.7,1.5,0.7,2.4c0,8.8,0,17.6-0.1,26.4c0,0.2,0,0.4,0.1,0.5c0,0,0,0,0,0.1v0
	c5.9-4.9,11.9-9.8,17.8-14.7c0,0,0,0,0,0c0,0,0,0,0,0c0.1-0.1,0.3-0.1,0.4-0.1c0.1-0.2,0.1-0.4,0.2-0.6C0.2,244.8,0,244.4,0,244z"/>
<path class="st17" d="M17.8,259.9c0.7-0.7,0.6-1.5,0.6-2.4c0-9-0.1-18-0.1-27.1c-6,4.9-11.9,9.8-17.9,14.7c-0.1,0.2-0.1,0.4-0.2,0.6
	c2.3,2,4.6,4,7,5.9c0.4,0.3,0.9,0.7,1.3,1.1c0.8,0.7,1.7,1.5,2.5,2.2C13.2,256.8,15.3,258.6,17.8,259.9
	C17.8,259.9,17.8,259.9,17.8,259.9z"/>
<path class="st17" d="M17.8,259.9c-2.5-1.3-4.6-3.1-6.6-5C13.2,256.8,15.3,258.6,17.8,259.9C17.8,259.9,17.8,259.9,17.8,259.9
	C17.8,259.9,17.8,259.9,17.8,259.9z"/>
<path class="st17" d="M11.2,255c-0.8-0.7-1.7-1.5-2.5-2.2C9.5,253.5,10.3,254.2,11.2,255z"/>
<path class="st158" d="M-18,230c6-5,11.9-9.9,17.9-14.9c6-5.2,12-10.3,18-15.5c-2.3-2.9-5.2-5.1-8.1-7.4c-0.9-0.8-1.9-1.6-2.8-2.4
	c-1.6-1.5-3.4-2.8-5.2-4.2c-1.4-1.2-1.4-2.1,0.1-3.3c4.5-3.7,9-7.4,13.5-11.1c2.7-2.2,2.7-2.8-0.2-5c-5.1-3.9-9.6-8.7-15-12.2
	c-4.4,2-7.4,5.8-11.1,8.6c-2.5,1.9-4.8,4-7.2,6.1c-2.8,2.9-5.9,5.4-9,8v15.5c0.2,0.2,0.5,0.4,0.7,0.6c2,1.6,4,3.2,5.9,4.9
	c1.8,1.5,2,2.3,0.1,3.8c-2.3,1.9-4.5,3.8-6.8,5.7v15.7C-24.1,225.3-21.1,227.8-18,230z"/>
<path class="st159" d="M6.9,147.7c3.6-3.3,7.3-6.4,11-9.5c-5.5-5.7-11.9-10.5-18.1-15.6c-6.1,5.2-12.3,10.3-18.4,15.5c0,0,0,0,0,0
	l0,0c-2.8,2.4-5.7,4.9-8.5,7.3v15.8c3,2.5,6,5,9,7.4c2.4-2,4.7-4.2,7.2-6.1c3.7-2.8,6.8-6.6,11.1-8.6C1.8,151.1,4.7,149.7,6.9,147.7
	z"/>
<path class="st16" d="M17.9,199.6c6.1-5.1,12.2-10.1,18.3-15.2l0,0c0.1-0.2,0.1-0.3,0.2-0.5c-0.1-7.5-0.3-15-0.1-22.6
	c0.1-2.5,0.1-5,0.3-7.5c0-0.4,0-0.7,0-1.1c-0.5-8.6-0.3-17.2-0.2-25.8c0-1.2,0-2.5,0.1-3.7c0,0-0.1-0.1-0.2-0.2c0,0,0,0,0,0l0,0l0,0
	c-0.9,0.7-1.9,1.4-2.8,2.1c-5,4.1-10,8.3-14.9,12.4c0,0,0,0,0,0c0,0,0,0,0,0c-0.2,0.2-0.4,0.4-0.6,0.5c0,0,0,0,0,0c0,0,0,0,0,0
	c-3.7,3.2-7.4,6.3-11,9.5c-2.2,2-5.1,3.4-6.6,6.2c5.4,3.6,9.9,8.3,15,12.2c2.8,2.2,2.9,2.8,0.2,5c-4.5,3.7-9,7.5-13.5,11.1
	c-1.5,1.2-1.5,2.2-0.1,3.3c1.7,1.4,3.5,2.7,5.2,4.2c0.9,0.8,1.8,1.6,2.8,2.4C12.6,194.6,15.6,196.8,17.9,199.6z"/>
<path class="st16" d="M33.5,125.2c-5,4.1-10,8.3-14.9,12.4c0,0,0,0,0,0C23.5,133.5,28.5,129.4,33.5,125.2z"/>
<path class="st16" d="M18.6,137.6c-0.2,0.2-0.4,0.4-0.6,0.5c0,0,0,0,0,0C18.2,138,18.4,137.8,18.6,137.6z"/>
<path class="st20" d="M36.3,123.1c0.1,0.1,0.2,0.2,0.2,0.2c3.5,1.7,6.3,4.4,9.1,6.9c1,0.8,1.9,1.7,3,2.4c0.8,0.6,1.5,1.2,2.2,1.9
	c1.2,1.1,2.4,2.2,4,2.8c3.1-1.7,5.5-4.1,8.1-6.4c0.9-0.8,1.8-1.5,2.7-2.1c2.5-1.7,4.2-4.4,7.1-5.6c0,0,0,0,0,0l0,0
	c0-0.4,0-0.8,0-1.2l-0.1,0l0,0c-6-4.9-11.9-9.8-17.9-14.7c-6.1,5.1-12.3,10.2-18.4,15.3C36.4,122.8,36.3,122.9,36.3,123.1
	C36.3,123.1,36.3,123.1,36.3,123.1z"/>
<polygon class="st20" points="72.8,122.1 72.8,122.1 72.7,122.1 72.7,122.1 72.7,122.1 "/>
<path class="st20" d="M36.3,123.1C36.3,123.1,36.3,123.1,36.3,123.1C36.3,123.1,36.3,123.1,36.3,123.1L36.3,123.1z"/>
<path class="st20" d="M138.8,147.4c-0.3-0.3-0.7-0.5-1-0.8c-0.9-0.6-1.7-1.3-2.5-2c-2.4-2.1-4.7-4.4-7.6-5.9
	c-3.2,1.6-5.6,4.2-8.3,6.5c-0.9,0.8-1.8,1.5-2.7,2.2c-2.4,1.7-4.1,4.2-6.9,5.3c0,0,0,0,0,0c0,0.4,0,0.8,0,1.2c0,0,0,0,0,0
	c6,4.9,11.9,9.8,17.9,14.7c6.1-5.1,12.3-10.2,18.4-15.3c0-0.2,0.1-0.3,0.2-0.5c0,0,0,0,0,0c-0.1-0.1-0.2-0.2-0.2-0.2
	C142.9,151.8,141.1,149.3,138.8,147.4z"/>
<path class="st20" d="M109.8,152.7C109.8,152.7,109.8,152.7,109.8,152.7C109.8,152.7,109.8,152.7,109.8,152.7c0,0.4,0,0.8,0,1.2l0,0
	c0,0,0,0,0,0C109.8,153.5,109.8,153.1,109.8,152.7z"/>
<path class="st14" d="M146.1,88.1c-0.1-8.9-0.1-17.8-0.2-26.8c-1.2,0.9-2.3,1.8-3.5,2.8c-5.2,4.2-10,8.8-15.5,12.7
	c-5.5,5.2-11.4,9.9-17.3,14.7c-0.3,0.3-0.6,0.6-0.9,0.9c-0.3,0.3-0.6,0.6-0.9,0.9c-8.8,7.4-17.5,14.9-26.4,22.2
	c-1.1,0.9-2.1,1.8-3.1,2.7c-1.7,1.5-3.5,3-5.6,3.9h0c0,0.4,0,0.8,0,1.2l0.1,0c3.7,1.8,6.5,4.7,9.6,7.3c1,0.9,2,1.8,3.1,2.5
	c1.4,1,2.6,2.1,3.9,3.3c0.9,0.8,1.6,1.7,0.4,2.7c-5.8,4.4-10.7,9.9-17,13.6c0,0,0,0,0,0c-1.6,2.8-4.3,4.4-6.7,6.4
	c-0.3,0.3-0.7,0.6-1,0.9c-0.8,0.7-1.6,1.4-2.4,2.2c-2.4,2.2-4.8,4.3-7.7,5.9c-3.5,3.5-7.2,6.7-11,9.8c-0.9,0.8-1.8,1.5-2.8,2.3
	c-1.6,1.3-3.2,2.6-4.7,3.9c-0.1,0.2-0.2,0.3-0.2,0.5c0.1,10.1,0.2,20.2,0.2,30.3c5-4.1,10-8.3,15-12.5c0.8-0.7,1.5-1.5,2.6-1.8
	c0,0,0,0,0,0c0.2-0.2,0.5-0.3,0.7-0.5c0,0,0.1,0,0.1-0.1c0.7-0.7,1.4-1.4,2.1-2.1c5-4.7,10.6-8.9,15.8-13.4c0,0,0,0,0,0
	c1.1-1,2.1-2,3.3-2.9c1.3-1,2.5-2,3.8-3.1c3.7-3.2,7.3-6.5,11.4-9.3c0,0,0,0,0,0c0-9.3,0.1-18.6,0-28c0-1.9,0.3-3.5,1.9-4.8
	c5.6-4.5,11.1-9.1,16.6-13.7c0.7-0.6,1.4-1.3,2.2-1.9c5-4.5,10-9,15.6-12.8c3.6-3.6,7.5-6.9,11.4-10.1c2.4-1.9,4.7-3.8,7.1-5.8
	c0.1-0.1,0.1-0.3,0.2-0.4c0,0,0-0.1,0.1-0.1C146.2,90.4,146.2,89.2,146.1,88.1z"/>
<path class="st14" d="M146,92.1c0.1-0.1,0.1-0.3,0.2-0.4C146.1,91.8,146.1,91.9,146,92.1C146,92.1,146,92.1,146,92.1z"/>
<path class="st14" d="M146,61.3C146,61.3,146,61.3,146,61.3c0.1,8.9,0.1,17.8,0.2,26.8C146.1,79.1,146,70.2,146,61.3z"/>
<path class="st14" d="M79.8,178.5c3.7-3.2,7.3-6.5,11.4-9.3v0c0,0,0,0,0,0C87.1,172,83.5,175.3,79.8,178.5z"/>
<path class="st14" d="M56.9,197.9c5-4.7,10.6-8.9,15.8-13.4c0,0,0,0,0,0c0,0,0,0,0,0C67.5,189,62,193.2,56.9,197.9z"/>
<path class="st14" d="M54.1,200.5C54.1,200.5,54.1,200.5,54.1,200.5c0.2-0.2,0.4-0.3,0.7-0.5C54.5,200.2,54.3,200.3,54.1,200.5
	C54.1,200.5,54.1,200.5,54.1,200.5z"/>
<path class="st14" d="M72.8,122.1c2.2-0.9,3.9-2.4,5.6-3.9C76.7,119.7,74.9,121.1,72.8,122.1L72.8,122.1L72.8,122.1z"/>
<path class="st14" d="M108.8,92.4c-0.3,0.3-0.6,0.6-0.9,0.9C108.2,93,108.5,92.7,108.8,92.4z"/>
<path class="st14" d="M36.2,184.5L36.2,184.5C36.2,184.5,36.2,184.5,36.2,184.5c0.1-0.2,0.1-0.3,0.2-0.5c0,0,0,0,0,0
	C36.4,184.1,36.3,184.3,36.2,184.5z"/>
<path class="st14" d="M72.7,123.3L72.7,123.3c0-0.4,0-0.8,0-1.2l0,0C72.7,122.5,72.7,122.9,72.7,123.3z"/>
<path class="st20" d="M127.5,108c-5.6,3.8-10.6,8.3-15.6,12.8c-0.7,0.6-1.4,1.3-2.2,1.9c0,0.4,0.1,0.8,0.1,1.2
	c3.4,1.4,5.9,4,8.6,6.3c0.9,0.8,1.8,1.5,2.8,2.2c2.2,1.6,3.9,3.9,6.5,4.9c5.1-2.9,9-7.3,13.6-10.8c1.5-1.2,2.9-2.5,4.6-3.3
	c0,0,0,0,0,0c0-0.4,0-0.7,0-1.1c-5.7-3.6-10.3-8.6-15.7-12.6C129.3,109,128.7,108.1,127.5,108z"/>
<path class="st20" d="M145.8,123.2C145.8,123.2,145.8,123.2,145.8,123.2c0-0.4,0-0.7,0-1.1C145.8,122.5,145.8,122.9,145.8,123.2
	C145.8,123.2,145.8,123.2,145.8,123.2z"/>
<path class="st18" d="M145.8,123.2c-1.7,0.8-3.1,2.2-4.6,3.3c-4.6,3.5-8.4,8-13.6,10.8c0,0.4,0,0.8,0,1.3c0,0,0,0,0,0s0,0,0,0
	c2.8,1.6,5.1,3.9,7.6,5.9c0.8,0.7,1.6,1.4,2.5,2c0.4,0.2,0.7,0.5,1,0.8c2.3,1.9,4.1,4.5,7.2,5.4c0-2.5,0.1-4.9,0.1-7.4
	C146.2,138,146.3,130.6,145.8,123.2z"/>
<path class="st18" d="M146.1,145.3c0.1-7.4,0.2-14.8-0.3-22.1c0,0,0,0,0,0C146.3,130.6,146.2,138,146.1,145.3z"/>
<path class="st18" d="M127.7,138.6C127.7,138.6,127.7,138.6,127.7,138.6c2.8,1.6,5.1,3.9,7.6,5.9
	C132.8,142.5,130.5,140.2,127.7,138.6z"/>
<path class="st18" d="M146,92.1C146,92.1,146,92.1,146,92.1c-2.3,1.9-4.7,3.9-7.1,5.8c-3.9,3.2-7.8,6.5-11.4,10.1
	c1.2,0.1,1.8,0.9,2.6,1.6c5.4,4,10,9,15.7,12.6c0.1-1.3,0.1-2.5,0.2-3.8C146.3,109.6,146.1,100.9,146,92.1z"/>
<path class="st18" d="M146,92.1c0.1,8.8,0.3,17.6,0,26.3C146.3,109.6,146.1,100.9,146,92.1C146,92.1,146,92.1,146,92.1
	C146,92.1,146,92.1,146,92.1z"/>
<path class="st21" d="M116.7,147.4c1-0.7,1.9-1.4,2.7-2.2c2.6-2.3,5.1-4.9,8.3-6.5c0-0.4,0-0.8,0-1.3c-2.7-1-4.3-3.4-6.5-4.9
	c-1-0.7-1.9-1.4-2.8-2.2c-2.7-2.4-5.1-5-8.6-6.3c0,9.6,0,19.2,0,28.8C112.6,151.6,114.3,149.1,116.7,147.4z"/>
<path class="st21" d="M109.8,123.9c0,9.6,0,19.2,0,28.8c0,0,0,0,0,0C109.8,143.1,109.8,133.5,109.8,123.9z"/>
<path class="st21" d="M54.1,200.5c-1.1,0.3-1.7,1.1-2.6,1.8c-5,4.2-10,8.3-15,12.5c-0.1,0.2-0.1,0.3-0.1,0.5l0,0h0
	c0,8.5,0,17.1,0,25.6c0,0.2,0,0.3,0,0.5c0,1.2-0.2,2.4,0.9,3.4c0.8-0.6,1.7-1.2,2.5-1.9c5-4.1,10-8.3,15-12.4c0,0,0,0,0,0
	c0-0.2,0-0.4,0.1-0.5c0,0,0,0,0,0c0-8.6,0-17.2,0-25.8c0-0.2,0-0.3,0-0.5C54.9,202.5,55,201.4,54.1,200.5z"/>
<path class="st21" d="M54.8,230.5c-5,4.1-10,8.3-15,12.4C44.7,238.8,49.8,234.6,54.8,230.5C54.8,230.5,54.8,230.5,54.8,230.5
	C54.8,230.5,54.8,230.5,54.8,230.5z"/>
<path class="st21" d="M54.8,203.6c0-1.1,0.2-2.2-0.8-3.1c0,0,0,0,0,0C55,201.4,54.9,202.5,54.8,203.6z"/>
<path class="st21" d="M54.8,230.5L54.8,230.5c0-0.2,0-0.4,0.1-0.5c0,0,0,0,0,0c0,0,0,0,0,0C54.8,230.1,54.8,230.3,54.8,230.5z"/>
<polygon class="st21" points="54.8,230.5 54.8,230.5 54.8,230.5 "/>
<path class="st21" d="M36.3,215.3c0,8.5,0,17.1,0,25.6C36.3,232.4,36.3,223.8,36.3,215.3L36.3,215.3z"/>
<path class="st21" d="M36.3,241.4c0,1.2-0.2,2.4,0.9,3.4c0,0,0,0,0,0C36.2,243.8,36.3,242.6,36.3,241.4z"/>
<path class="st26" d="M127,76.8c-1.9-3-5-4.9-7.6-7.1c-1.2-1-2.3-2-3.4-3.1c-1.9-1.7-3.9-3.4-6.2-4.6c0,9.8-0.1,19.6-0.1,29.4
	C115.6,86.7,121.5,81.9,127,76.8z"/>
<path class="st23" d="M36.5,214.7c-0.1-10.1-0.2-20.2-0.2-30.3c-6.1,5.1-12.2,10.1-18.3,15.2c0,0,0,0,0,0c0,0,0,0,0,0
	c-6,5.2-12,10.3-18,15.5c0,8.8,0,17.6,0.1,26.4c0,0.5,0,0.9-0.1,1.4c0,0.4,0,0.7,0.1,1.1c0.1,0.4,0.2,0.8,0.5,1.2c0,0,0,0,0,0
	c0,0,0,0,0,0c6-4.9,11.9-9.8,17.9-14.7c0,0,0,0,0,0c0,0,0,0,0,0c6-5.1,12-10.1,18-15.2C36.4,215.1,36.4,214.9,36.5,214.7z"/>
<path class="st23" d="M0,244c0.1,0.4,0.2,0.8,0.5,1.2c0,0,0,0,0,0C0.2,244.8,0,244.4,0,244z"/>
<path class="st23" d="M0.5,245.2c6-4.9,11.9-9.8,17.9-14.7c0,0,0,0,0,0C12.4,235.4,6.5,240.3,0.5,245.2z"/>
<path class="st23" d="M17.9,199.6C17.9,199.6,17.9,199.6,17.9,199.6c6.1-5.1,12.2-10.1,18.3-15.2l0,0
	C30.1,189.5,24,194.6,17.9,199.6z"/>
<path class="st23" d="M36.5,214.7c-0.1-10.1-0.2-20.2-0.2-30.3c0,0,0,0,0,0C36.3,194.6,36.4,204.6,36.5,214.7z"/>
<polygon class="st23" points="36.2,184.5 36.2,184.5 36.2,184.5 "/>
<path class="st20" d="M72.8,152.7c0-0.2-0.1-0.4-0.1-0.6c-4.6-1.8-7.4-5.9-11.3-8.6c-2.2-1.5-3.9-3.9-6.5-4.9
	c-5.1,2.8-9,7.3-13.6,10.8c-1.5,1.2-2.9,2.5-4.6,3.3c0,0,0,0,0,0c0,0.4,0,0.7,0,1.1c4.8,2.9,8.6,7,13,10.4c1.7,1.4,3.2,3.1,5.4,3.7
	c2.8-1.6,5.3-3.7,7.7-5.9c0.8-0.7,1.6-1.4,2.4-2.2c0.3-0.3,0.7-0.6,1-0.9C68.4,157.2,71.1,155.5,72.8,152.7z"/>
<path class="st20" d="M36.6,152.8C36.6,152.8,36.6,152.8,36.6,152.8c0,0.4,0,0.7,0,1.1C36.6,153.5,36.6,153.2,36.6,152.8
	C36.6,152.8,36.6,152.8,36.6,152.8z"/>
<path class="st20" d="M66,159.1c2.4-1.9,5.1-3.6,6.7-6.4c0,0,0,0,0,0c0,0,0,0,0,0C71.1,155.5,68.4,157.2,66,159.1z"/>
<path class="st18" d="M49.6,164.3c-4.3-3.4-8.1-7.6-13-10.4c-0.1,2.5-0.2,5-0.3,7.5c-0.2,7.5,0,15,0.1,22.6c0,0,0,0,0,0
	c1.6-1.3,3.1-2.6,4.7-3.9c0.9-0.8,1.9-1.5,2.8-2.3c3.8-3.1,7.5-6.3,11-9.8C52.7,167.4,51.3,165.7,49.6,164.3z"/>
<path class="st18" d="M36.3,161.4c-0.2,7.5,0,15,0.1,22.6c0,0,0,0,0,0c0,0,0,0,0,0C36.4,176.4,36.2,168.9,36.3,161.4z"/>
<path class="st18" d="M44,177.8c-0.9,0.8-1.8,1.5-2.8,2.3C42.1,179.3,43,178.6,44,177.8z"/>
<path class="st18" d="M36.6,152.8c1.7-0.8,3.1-2.1,4.6-3.3c4.6-3.6,8.4-8,13.6-10.8c0-0.4,0-0.8,0-1.3c0,0,0,0,0,0s0,0,0,0
	c-1.5-0.7-2.8-1.7-4-2.8c-0.7-0.7-1.4-1.3-2.2-1.9c-1-0.7-2-1.6-3-2.4c-2.9-2.5-5.6-5.3-9.1-6.9c0,1.2,0,2.5-0.1,3.7
	C36.3,135.6,36.1,144.2,36.6,152.8z"/>
<path class="st18" d="M36.4,127c-0.1,8.6-0.3,17.2,0.2,25.8c0,0,0,0,0,0C36.1,144.2,36.3,135.6,36.4,127z"/>
<path class="st18" d="M54.8,137.4c-1.5-0.7-2.8-1.7-4-2.8C52,135.6,53.2,136.7,54.8,137.4C54.8,137.4,54.8,137.4,54.8,137.4z"/>
<path class="st21" d="M54.8,138.6c2.7,1,4.3,3.4,6.5,4.9c3.9,2.7,6.7,6.8,11.3,8.6c0-9.6,0.1-19.2,0.1-28.8c0,0-0.1,0-0.1,0
	c-2.9,1.2-4.7,3.8-7.1,5.6c-0.9,0.7-1.8,1.4-2.7,2.1c-2.6,2.3-5,4.7-8.1,6.4C54.8,137.8,54.8,138.2,54.8,138.6z"/>
<path class="st17" d="M72.7,152.1c0,0.2,0.1,0.4,0.1,0.6c6.3-3.8,11.2-9.2,17-13.6c1.2-0.9,0.4-1.9-0.4-2.7
	c-1.3-1.1-2.5-2.3-3.9-3.3c-1.1-0.8-2.1-1.6-3.1-2.5c-3-2.7-5.8-5.6-9.6-7.3C72.7,132.9,72.7,142.5,72.7,152.1z"/>
<path class="st17" d="M72.8,152.7C72.8,152.7,72.8,152.7,72.8,152.7c0-0.2-0.1-0.4-0.1-0.6C72.7,152.3,72.7,152.5,72.8,152.7z"/>
</svg>
