<?xml version="1.0" encoding="utf-8"?>
<!-- Generator: Adobe Illustrator 24.0.2, SVG Export Plug-In . SVG Version: 6.00 Build 0)  -->
<svg version="1.1" id="Capa_1" xmlns="http://www.w3.org/2000/svg" xmlns:xlink="http://www.w3.org/1999/xlink" x="0px" y="0px"
	 viewBox="0 0 288 288" style="enable-background:new 0 0 288 288;" xml:space="preserve">
<style type="text/css">
	.st0{fill:#2D2D2D;}
	.st1{fill:#002530;}
	.st2{fill:#050523;}
	.st3{fill:#707C84;}
	.st4{fill:#E9E4DE;}
	.st5{fill:#EE3133;}
	.st6{fill:#FD99AF;}
	.st7{fill:#C4C2C0;}
	.st8{fill:#F2D8A3;}
	.st9{fill:#EFCB84;}
	.st10{fill:#EF692F;}
	.st11{fill:#4B343F;}
	.st12{fill:#16B198;}
	.st13{fill:#E72D52;}
	.st14{fill:#7B536F;}
	.st15{fill:#8F4CA9;}
	.st16{fill:#E2C29F;}
	.st17{fill:#9F4687;}
	.st18{fill:#A9A0AF;}
	.st19{fill:#CC4743;}
	.st20{fill:#8677A9;}
	.st21{fill:#8E5D8E;}
	.st22{fill:#DF615C;}
	.st23{fill:#9E4742;}
	.st24{fill:#D34861;}
	.st25{fill:#B75B6D;}
	.st26{fill:#DF6482;}
	.st27{fill:#FFFFFF;}
	.st28{fill:#829CA2;}
	.st29{fill:#F2B991;}
	.st30{fill:#E56759;}
	.st31{fill:#F5F3EE;}
	.st32{fill:#DC4B3F;}
	.st33{fill:#1D5A7D;}
	.st34{fill:#459492;}
	.st35{fill:#F0A349;}
	.st36{fill:#E4EFEB;}
	.st37{fill:#E17467;}
	.st38{fill:#B6BFBD;}
	.st39{fill:#F0E2D6;}
	.st40{fill:#396D89;}
	.st41{fill:#201A21;}
	.st42{fill:#48505D;}
	.st43{fill:#0B0707;}
	.st44{fill:#D30034;}
	.st45{fill:#6C919B;}
	.st46{fill:#F68C4A;}
	.st47{fill:#E5CFCD;}
	.st48{fill:#385B4D;}
	.st49{fill:#F14206;}
	.st50{fill:#BAD2D8;}
	.st51{fill:#F70059;}
	.st52{fill:#AA000C;}
	.st53{fill:#D8B5B2;}
	.st54{fill:#E08143;}
	.st55{fill:#F2E9E9;}
	.st56{fill:#F4D085;}
	.st57{fill:#23586A;}
	.st58{fill:#17241F;}
	.st59{fill:#EAE8E1;}
	.st60{fill:#253C4F;}
	.st61{fill:#F7FCFD;}
	.st62{fill:#0E151F;}
	.st63{fill:#8D897D;}
	.st64{fill:#BDB6AA;}
	.st65{fill:#EDE1AF;}
	.st66{fill:#DF786F;}
	.st67{fill:#E8C46F;}
	.st68{fill:#B0CEAD;}
	.st69{fill:#9FC4AF;}
	.st70{fill:#B8C6A0;}
	.st71{fill:#EBEC80;}
	.st72{fill:#DD7AB2;}
	.st73{fill:#D6D2D3;}
	.st74{fill:#69BCC5;}
	.st75{fill:#D0CBC1;}
	.st76{fill:#242424;}
	.st77{fill:#525252;}
	.st78{fill:#3D3D3D;}
	.st79{fill:#6B6B6B;}
	.st80{fill:#303030;}
	.st81{fill:#8A8A8A;}
	.st82{fill:#282828;}
	.st83{fill:#E6E6E6;}
	.st84{fill:#E8E8E8;}
	.st85{fill:#A9A9A9;}
	.st86{fill:#D9D9D9;}
	.st87{fill:#CACACA;}
	.st88{fill:#9E9E9E;}
	.st89{fill:none;}
	.st90{fill:#4A4744;}
	.st91{fill:#F0BA45;}
	.st92{fill:#F1D34E;}
	.st93{fill:none;stroke:#00A591;stroke-miterlimit:10;}
	.st94{fill:#EEEEEE;}
	.st95{fill:#FBFBFB;}
	.st96{fill:#F8F2DD;}
	.st97{fill:#8DB2A6;}
	.st98{fill:#ED8C58;}
	.st99{fill:#F0C153;}
	.st100{fill:#C2B146;}
	.st101{fill:#8E6E51;}
	.st102{fill:#1C1D4C;}
	.st103{fill:#111224;}
	.st104{fill:#26687B;}
	.st105{fill:#F8494A;}
	.st106{fill:#81819B;}
	.st107{fill:#80809B;}
	.st108{fill:#0AC6BB;}
	.st109{fill:#0BC5B9;}
	.st110{fill:#686888;}
	.st111{fill:#0BC5BA;}
	.st112{fill:#FEFEFE;}
	.st113{fill:#F8F5CE;}
	.st114{fill:#EF484B;}
	.st115{fill:#F94A4A;}
	.st116{fill:#F9F6CE;}
	.st117{fill:#DFE0E3;}
	.st118{fill:#04121D;}
	.st119{fill:#6693AB;}
	.st120{fill:#89BCD7;}
	.st121{fill:#FAF509;}
	.st122{fill:#0B2E41;}
	.st123{fill:#427491;}
	.st124{fill:#2A5973;}
	.st125{fill:#184259;}
	.st126{fill:#BCE4F7;}
	.st127{fill:#02111C;}
	.st128{fill:#FCF704;}
	.st129{fill:#F4F115;}
	.st130{fill:#DFE23F;}
	.st131{fill:#BCE6FA;}
	.st132{fill:#031D2B;}
	.st133{fill:#81851A;}
	.st134{fill:#1E1E1E;}
	.st135{fill:#F5142E;}
	.st136{fill:#05ACC0;}
	.st137{fill:#F87240;}
	.st138{fill:#FA723F;}
	.st139{fill:#F67240;}
	.st140{fill:#E37547;}
	.st141{fill:#07ADC0;}
	.st142{fill:#450D0D;}
	.st143{fill:#F57240;}
	.st144{fill:#440D0D;}
	.st145{fill:#470D0D;}
	.st146{fill:#EBECCC;}
	.st147{fill:#E9EACA;}
	.st148{fill:#00ABBF;}
	.st149{fill:#F6FAD9;}
	.st150{fill:#CBC3AC;}
	.st151{fill:#E2615D;}
	.st152{fill:#FAFAF8;}
	.st153{fill:#E8E4DA;}
	.st154{fill:#123057;}
	.st155{fill:#F4D16B;}
	.st156{fill:none;stroke:#F1D34E;stroke-miterlimit:10;}
	.st157{fill:#E3834C;}
	.st158{fill:#E9A779;}
	.st159{fill:#ECB74A;}
	.st160{fill:#00A591;}
</style>
<path class="st2" d="M-152-6.5c2.9,0,5.7,0,8.6,0c-1.1,5.3-0.1,10.7-0.5,16c-0.2,2.8,0.9,3.4,3.5,3.3c5.4-0.2,10.7-0.1,16.1-0.1
	c0,2.2,0.1,4.4,0.1,6.6c0,0.6,0,1.2,0,1.8c-1.4,1.3-2.2-0.2-3.2-0.7c-3.4-1.9-6.8-4.1-10.2-6c-4.4-2.4-6.1-1.4-6.1,3.5
	c0,10,0,19.9,0,29.9c0,6.6,2.1,7.8,7.8,4.5c3.7-2.1,7.3-4.3,12.1-7.2c-1.3,4,0.7,7-1.6,9.7c-5.4,0-10.8,0-16.1,0
	c-2.2,0-3.5,0.8-2.9,3c1.3,5.2,0.1,10.6,0.8,15.8c-0.3,0.2-0.4,0.5-0.3,0.9c-0.7,1,0,1.8,0.3,2.7c3.7,11.3,7.4,22.5,11.2,33.8
	c0.9,2.6,0.8,4-2.4,3.7c-3.1-0.3-2.8,1.2-2,3.4c2.4,6.7,4.5,13.5,6.8,20.3c1.6,4.9,3.3,9.7,5.1,15.2c2.7-14-1.4-26.2-6.3-38.6
	c2.5-0.2,4.4-0.3,6.6-0.4c-4.4-13.5-8.7-26.7-13-39.9c2.2,0,4.4,0,6.6,0c2,6,3.9,12,5.9,18c0.3-0.1,0.6-0.1,0.8-0.2
	c0-5.9,0-11.9,0-17.8c6.3-0.1,12.7-0.2,19-0.2c20.4,0.1,40.7,0.2,61.1,0.3c0,0,0.2,0.2,0.2,0.2l0.2-0.2c0.1,13.3,0.3,26.7,0.4,40
	c-0.4,0.6-1.1,1.3,0,1.9c-0.1,8.7-0.2,17.3-0.1,26c0,4.1-1.8,9.4,0.8,11.8c2.5,2.5,7.8,0.6,11.8,0.7c7,1.2,14,0,21-0.2
	c6.7,0.3,13.3,0.4,20-0.1c6.7,0.6,13.4,0.7,20,0c2.2,0.1,4.4,0.2,6.6,0.3c0,0,0,0.4,0,0.4l0.3,0.1c0,15.8,0.1,31.6,0,47.5
	c-0.1,10.9,0.5,21.8-0.3,32.7c-5.1,0-10.1,0.3-15.1,0c-4.1-0.3-5.1,1.2-4.8,5c0.3,5,0.1,10.1,0.1,15.1c-6.7,0.2-13.5,0.5-20.2-0.1
	c-0.1-6.5-0.1-12.9-0.2-19.4c-5.5-1.1-11-0.2-16.4-0.5c-0.2,0-0.3,0-0.5,0c-2.2-0.4-3,0.5-3,2.8c0.2,5.7,0.1,11.4,0.2,17.1
	c-6.7,0.1-13.4,0.2-20.1,0.3c-0.1-6.9-0.2-13.7-0.3-20.6c0-25.5,0-51.1,0.1-76.6c0-3.4-1.1-3.8-4.1-3.5c-7.1,0.7-13.5,3.1-19.3,7.1
	c-9.4,6.6-14.8,15.8-17.1,28.3c-0.6-2.5-1-3.7-1.3-4.9c-4.2-17.7-21.5-31.3-38.2-30.1c-2.8-0.1-5.6-0.3-8.3-0.4
	c0.2-2.3-0.8-4.3-1.5-6.4c-3.7-11.2-7.5-22.5-11.3-34c1.6-0.1,2.7-0.3,3.8-0.3c1.9,0.1,2.7-0.6,2.1-2.5
	c-4.1-12.2-7.9-24.4-12.4-36.4c-0.8-2.2-1-3.4,0.2-5.1c1.9-3.1,4-6.2,5.5-9.5c2-4.3,0.6-6.1-4.1-6.1c-3.1,0-6.2,0-9.8,0
	c4.5-5,12.7-4.9,14.2-11.1c1.4-5.7,0.3-12,0.3-18c0-0.2,0-0.3,0-0.5c0.4-2.6-0.8-4.1-3-5.3c-3.9-2.1-7.8-4.5-12.8-7.4
	c3.1,0,4.7,0,6.2,0c1.6,0,3.2,0,4.8,0c4.7,0,6.1-2.1,4-6.5c-1.1-2.3-2.7-4.3-3.8-6.6C-150.5-2.3-152.9-3.7-152-6.5z M-96.4,143.1
	c-0.8-1.8-2.4-1.6-3.9-1.6c-3.5,0-7.1-0.1-10.6-0.2c0-2.1-0.3-4.2,0-6.2c1-5.9-1.8-9.6-6.8-13c0,8.3,0,16,0,23.7
	c0,1.2-0.3,2.5,1.8,2.5c8-0.1,16,0,24.3,0C-93.5,146.3-95,144.7-96.4,143.1z M23.7,196.2c0-7.8-0.1-15.5,0.1-23.3
	c0.1-2.9-0.6-4.2-3.9-4.2c-15.4,0.2-30.8,0.1-46.2,0c-2.9,0-3.8,0.9-3.8,3.8c0.1,15.4,0.2,30.8,0,46.2c0,3.3,1.2,3.9,4.1,3.9
	c15.2-0.1,30.5-0.1,45.7,0c3,0,4.2-0.8,4.1-4C23.5,211.1,23.7,203.6,23.7,196.2z M-50.3,121.9c-4.8,3.3-7.4,6.6-7,12.3
	c0.6,7.3,0.1,7.8-7.3,7.2c-5.8-0.5-8.9,2.4-12.3,6.9c8.5,0,16.5,0,24.5,0c1.7,0,2.1-0.9,2.1-2.4C-50.3,138.2-50.3,130.4-50.3,121.9z
	 M-76.8,81.2c5.7,6.7,5.7,6.7,13.7,6.7c6.4,0,6.8,0,6.3,6.4c-0.4,5.6,0.8,10,6.5,13c0-8.1-0.1-15.8,0.1-23.5
	c0.1-2.6-1.2-2.8-3.2-2.7C-61,81.2-68.6,81.2-76.8,81.2z M-117.7,107.3c6.3-3.4,7.6-8.5,6.7-14.4c-0.7-4.4,1.1-5.6,5.1-5
	c6,0.9,11.1-0.5,14.3-6.7c-8,0-15.8,0-23.5,0c-1.6,0-2.6,0.2-2.6,2.2C-117.7,91.3-117.7,99.1-117.7,107.3z"/>
<path class="st3" d="M30.1,154.9c-6.7,0.8-13.4,0.7-20,0c-4-12-7.9-24.1-12-36.1c-1-3-0.8-4.4,2.9-4.2c4.3,0.2,8.6,0,12.9,0.1
	c2.4,0.1,3-0.5,2.2-3c-4-11.5-7.8-23.1-11.6-34.7c-0.6-1.8-1.5-2.6-3.4-2.5c-5.7,0.1-11.4,0-17.6,0c4.5,13.6,8.8,26.7,13.3,40.2
	c-5.9,0-10.9,0.1-16,0c-3-0.1-4.3,0.3-3,3.8c4.3,12.1,8.3,24.3,12.4,36.5c-7,0.2-14,1.4-21,0.2c-2.9-13.3-7.9-25.8-12.4-38.6
	c-1.1-0.6-0.5-1.3,0-1.9c5.2,0,10.4-0.1,15.6,0.1c3.8,0.2,4.1-1.2,2.9-4.4c-3.4-9.8-7-19.6-9.7-29.6c-1.5-5.3-3.9-7.4-9.2-6.2
	l-0.2,0.2c0,0-0.2-0.2-0.2-0.2c-1.3-1.8-3.2-1-4.8-1c-14.7,0-29.5,0-44.2,0c-1.8,0-3.6,0-5.6,0c0.7-2.1,2.1-2.2,3.1-2.9
	c1.2,0,2.5,0,3.7,0c1.2,0.1,2.5,0.3,3.2-0.9c0.2-0.3-0.8-1.2-1.3-1.9c0.9-0.1,1.9-0.2,2.8-0.3c0.3-0.1,0.5-0.2,0.8-0.4
	c0.1,0,0-0.3,0-0.4c-0.2,0.1-0.4,0.2-0.6,0.2c-1.2,0-2.4,0.1-3.7,0.1c-0.4-0.4-0.8-0.8-1.2-1.3c0.6-0.1,1.3-0.1,1.9-0.2
	c0.2-0.1,0.4-0.2,0.6-0.3c-0.2-0.1-0.4-0.2-0.6-0.4c-1,0.1-2.1-0.4-2.7,0.8c0,0.7,0,1.4,0,2.1c-1,0-1.9,0-2.9,0
	c-1.2-0.9-2.4-1.4-3.9-1.1c0-0.6-0.1-1.2-0.1-1.8c0.1-0.4,0.1-0.8,0.2-1.2c0.7,0,1.5,0.2,1.7-0.8c1,0,2,0,3.1,0
	c0.6,2.5,1.5,0.6,2.3,0.2c-0.8,0-1.5-0.1-2.3-0.1c1.7-1.2-0.9-3.5,2.4-4.8c-3.3,0-5.3,0-7.2,0l0.1,0.1c-0.2-1.2-1.2-0.8-2-1l0.1,0.1
	c0.6-2.6,1.3-5.1,1.9-7.7l0,0c0.3-0.3,0.7-0.7,1-1l0,0c0.3-0.3,0.7-0.7,1-1c0,0,0,0,0,0c0.3-0.3,0.7-0.7,1-1l0,0
	c0.3-0.3,0.7-0.7,1-1c0,0,0,0,0,0c0.3-0.3,0.7-0.7,1-1c0,0,0,0,0,0c0.3-0.3,0.7-0.7,1-1c0,0,0,0,0,0c0.3-0.3,0.7-0.7,1-1
	c0,0,0,0,0,0c0.3-0.3,0.7-0.7,1-1l0,0c0.3-0.3,0.7-0.7,1-1c0,0,0,0,0,0c0.3-0.3,0.7-0.7,1-1l0,0c0.3-0.3,0.7-0.7,1-1l0,0
	c0.3-0.3,0.7-0.7,1-1c0,0,0,0,0,0c0.3-0.3,0.7-0.7,1-1c0,0,0,0,0,0c1-0.3,1.7-0.9,1.9-1.9l0,0c0.3-0.3,0.7-0.7,1-1l0,0
	c0.3-0.3,0.7-0.7,1-1l0,0c0.3-0.3,0.7-0.7,1-1l0,0c0.3-0.3,0.7-0.7,1-1l0,0c0.3-0.3,0.7-0.7,1-1l0,0c0.3-0.3,0.7-0.7,1-1l0,0
	c0.3-0.3,0.7-0.7,1-1l0,0c0.3-0.3,0.7-0.7,1-1l0,0c0.3-0.3,0.7-0.7,1-1l0,0c0.3-0.3,0.7-0.7,1-1l0,0c0.3-0.3,0.7-0.7,1-1
	c0,0,0,0,0,0c0.3-0.3,0.7-0.7,1-1l0,0c0.3-0.3,0.7-0.7,1-1l0,0c0.3-0.3,0.7-0.7,1-1l0,0c0.3-0.3,0.7-0.7,1-1l0,0
	c5.1-3.1,7.2-9.3,12.4-12.4c5.1-5.1,10.2-10.2,15.2-15.3c26.7,0,53.4,0,80.1,0c0.2,0.9,0.4,1.7,0.6,2.6c-0.4,1.4-0.4,2.7,0,4.1
	c-0.4,0.8-0.2,1.6,0.3,2.3c0,1.4,0,2.9-0.1,4.3c-0.6,0.7-0.5,1.4,0,2.1c-0.3,1.5-0.8,3-0.2,4.6c0,0.7,0,1.3,0,2
	c-0.5,1.5-0.5,3.1,0,4.7c0,0.6,0,1.3,0,1.9c-0.5,1.5-0.5,3.1-0.1,4.7c0.1,0.6,0.1,1.2,0.2,1.8c0,1.6,0,3.1-0.1,4.7
	c0.1,0.5,0.1,1.1,0.2,1.6c-0.1,1.7-0.2,3.3-0.3,5c-0.3,0.6-0.2,1.1,0.2,1.5c-0.1,1.7-0.1,3.4-0.2,5.1c0,0.5,0,1,0,1.5
	c0,1.4,0,2.9,0,4.3c0,0.7,0,1.5,0,2.3c-0.5,1.7-0.5,3.5,0,5.2c0,0.4,0.1,0.9,0.1,1.3c-0.1,3-0.1,5.9-0.4,8.9
	c-0.3,3.2,0.7,4.6,4.1,4.5c9.8-0.1,19.5,0,29.3,0c-0.7,0.3-1.4,0.7-2.1,0.9C54.4,78.2,41.7,90.8,38.7,105c-0.5-0.1-1.1-0.1-1.6-0.2
	c0-7.1,0.1-14.3,0.1-21.4c0-9.2,0-9-9-9c-4,0-3.9,1.4-2.8,4.5c3.7,10.8,7.1,21.7,10.9,32.4c1.1,3,0.2,3.6-2.6,3.5
	c-4-0.1-8,0.2-11.9-0.1c-4.1-0.3-4.4,1-3.2,4.6C22.5,131,26.3,143,30.1,154.9z M-50.1,37.2c-0.2,0.3-0.4,0.5-0.6,0.8
	c0.4-0.1,0.7-0.2,1.1-0.3c0.1-0.2,0.1-0.5,0.2-0.7C-49.7,37.1-49.9,37.1-50.1,37.2z M-78.9,51.4c-0.6,0.3-1.3,0.6-1.9,0.9
	c-0.5,0.3-0.9,0.6-1.4,0.9c0.8,0.7,1.3,0.2,1.9-0.3c0.6-0.3,1.3-0.6,1.9-1c0.5-0.2,1.5-0.1,1.1-0.9C-77.7,50.4-78.4,50.9-78.9,51.4z
	 M-62.2,49.1c0.7-0.3,1.3-0.6,2-0.8c1-0.2,2-0.2,2.7-1.1c0.7-0.3,1.3-0.6,2-0.8c1-0.2,2-0.2,2.7-1.1c0.6-0.1,1.1-0.3,1.7-0.4
	c0,0,0-0.6-0.1-0.6c-0.8-0.3-1.4-0.1-2,0.5c-0.9,0.4-1.8,0.7-2.7,1.1c-0.7,0.3-1.3,0.6-2,0.9c-1,0.2-2,0.2-2.7,1.1
	c-0.7,0.3-1.3,0.5-2,0.8c-0.4,0.3-1.4,0.2-0.9,0.9C-63.3,50-62.6,49.5-62.2,49.1z M-57.3,41.5c0.6-0.3,1.3-0.6,1.9-0.9
	c1.3-0.2,2.5-0.5,3.3-1.9c-1.7-0.3-2.8,0.6-3.8,1.4c-0.6,0.3-1.3,0.6-1.9,1c-0.5,0.2-1.5,0.1-1.1,0.9
	C-58.5,42.5-57.8,42.1-57.3,41.5z M-3.3,70.9c11.1,0,22.3-0.1,33.4,0.1c2.8,0,3.9-0.6,3.9-3.7C33.9,45,33.9,22.8,34,0.5
	c0-2.9-0.9-3.8-3.8-3.8C8-3.2-14.3-3.2-36.5-3.3c-2.8,0-3.9,0.6-3.9,3.7c0.1,22.2,0.1,44.5,0,66.7c0,2.9,0.9,3.8,3.8,3.8
	C-25.5,70.8-14.4,70.9-3.3,70.9z M-89.8,63.1c0.3-0.1,0.5-0.2,0.8-0.3c-0.2-0.1-0.4-0.4-0.6-0.4c-0.3,0-0.6,0.3-0.9,0.4
	C-90.3,62.9-90,63-89.8,63.1z M-83.5,54.1c-0.1-0.1-0.2-0.3-0.3-0.3c-0.1,0-0.2,0.2-0.4,0.2c0.1,0.1,0.2,0.3,0.3,0.3
	C-83.7,54.4-83.6,54.2-83.5,54.1z M-85.4,55.1c-0.1-0.1-0.2-0.3-0.3-0.3c-0.1,0-0.2,0.2-0.3,0.2c0.1,0.1,0.2,0.3,0.3,0.3
	C-85.6,55.3-85.5,55.2-85.4,55.1z M-87.7,56.3c0.1-0.1,0.2-0.2,0.3-0.3c-0.1-0.1-0.2-0.3-0.3-0.3c-0.1,0-0.2,0.2-0.3,0.2
	C-87.9,56.1-87.8,56.2-87.7,56.3z M-89.2,57c-0.1-0.1-0.2-0.3-0.3-0.3c-0.1,0-0.2,0.2-0.3,0.3c0.1,0.1,0.2,0.3,0.3,0.3
	C-89.5,57.2-89.3,57.1-89.2,57z M-91.1,57.9c-0.1-0.1-0.2-0.3-0.3-0.3c-0.1,0-0.2,0.2-0.3,0.3c0.1,0.1,0.2,0.3,0.3,0.3
	C-91.4,58.2-91.2,58-91.1,57.9z"/>
<path class="st2" d="M234.2-6.5c14.3,0,28.6,0.1,42.9-0.1c2.4,0,2.9,0.5,2.9,2.9c-0.1,26.1-0.1,52.1-0.1,78.2
	c-11.1,0-22.3,0.1-33.4,0.1c-0.6,0-1.2,0-1.8,0c-0.6,0-1.3,0-1.9,0c-0.6,0-1.2,0-1.9,0c-0.6,0-1.3,0-1.9,0c-0.7,0-1.3,0-2,0
	c-0.6-0.1-1.1-0.2-1.7-0.3c-25.3-3.9-36.2-23.6-36.5-40.8c0.1-1.2,0.1-2.5,0.2-3.7c1.7-10,5.6-18.9,13.4-25.9
	C218.7-1.7,226.2-4.6,234.2-6.5z"/>
<path class="st3" d="M280,235.7c0,26.1,0,52.1,0.1,78.2c0,2.4-0.5,3-2.9,2.9c-12.4-0.1-24.8-0.1-37.2-0.1c0-12.9,0-25.8,0-39.8
	c-0.7,1.5-1,1.9-1,2.3c0,12.5,0,25,0.1,37.6c-13.7,0-27.3,0-41,0c1.6-15.9-2.8-29.7-13.9-41.5c-6.8-7.2-11.5-15.5-11-26
	c0.2-4.4-0.1-8.9-0.1-13.3c8.7-0.1,17.3-0.2,26-0.3c11.9,0.1,23.8,0.3,35.7,0.1c3.4,0,4.3,1,4.2,4.3c-0.2,10.2-0.1,20.3-0.1,30.5
	c0,1.6-0.4,3.2,0.7,4.9c1.5-1.8,0.9-3.4,0.9-4.9c0.1-10.2,0.2-20.3,0-30.5c-0.1-3.3,1-4.3,4.3-4.3C256.5,236,268.2,235.8,280,235.7z
	 M208.5,274.8c0.6,1.2,1.1,1.1,1.5-0.1c0-6.8,0-13.6,0-20.5c-0.5,0-1,0-1.5,0C208.5,261.1,208.5,268,208.5,274.8z M209.3,298.8
	c0.5,0.5,0.8,0.7,0.8-0.3c0.1-7.1,0.1-14.2,0.2-21.3c0.6,0.2,1.1,0.3,1.7,0.5c-0.5,7.7-0.7,15.3,1.2,23c0-7.7,0-15.3,0-23
	c-0.8-1.4-2-0.1-3-0.5c-0.5,0.2-1.5,0.5-1.5,0.7C208.6,284.9,207.5,291.9,209.3,298.8z M265.7,274.8c0.6,1.2,1.1,1.1,1.6-0.1
	c0-7.5,0-15,0-22.5c-0.5,0-1.1,0-1.6,0C265.7,259.8,265.7,267.3,265.7,274.8z M215.2,274.8c0.4,0.4,0.9,0.7,1.3,1.1
	c-2.8,8.9-1.5,17.9-0.7,26.9c0.6,0.5,1,0.6,1-0.4c0-8.1,0-16.3,0-24.4c0.4,0,0.8,0,1.2,0c1.1,8.8-0.6,17.8,1.5,26.5
	c0.6-6.8,0.6-13.6,0.6-20.4c0-2.9,0.5-6-2.1-8.3c0.8-0.3,2-0.2,2-1.6c0-8.5,0-17.1,0-25.6c-0.7,0-1.3,0-2,0c0,9.1,0,18.1,0,27.2
	c-0.5,0.5-1,0.6-1.5,0.1c0.1-0.4,0.2-0.8,0.3-1.2c0-8.1,0-16.3,0-24.4c-0.5,0-1,0-1.6,0C215.2,258.5,215.2,266.6,215.2,274.8z
	 M260.6,274.7c0-8.9,0-17.8,0-26.6c-0.5,0-1,0-1.6,0c0,8.9,0,17.8,0,26.7C259.6,276,260.2,276,260.6,274.7z M257.1,274.8
	c0-9.4,0-18.8,0-28.2c-0.5,0-1,0-1.5,0c0,9.4,0,18.7,0,28.1c0,1-0.1,2.1-0.1,3.1c0,9.5,0,18.9,0.1,28.4c0.4,1.5,1,1,1.5,0.1
	c0-6.5,0.2-13,0.1-19.5c-0.1-3.1,0.9-6.3-0.8-9.2C256.6,276.7,256.8,275.7,257.1,274.8z M250.4,274.8c0-6.7,0.2-13.5,0-20.2
	c-0.1-4.2,0.9-8.4-0.7-12.5c-0.6-0.5-1-0.6-1,0.4c-0.1,10.8-0.1,21.6-0.2,32.4c-2.4-0.9-1.2-3-1.3-4.4c-0.2-8.9-0.2-17.7-0.3-26.6
	c0-1.2,0.4-2.7-1.5-4.2c0,10.6,0.2,20.5-0.1,30.4c-0.1,3,0.6,5.1,3.1,6.6c0.1,11.1,0.1,22.2,0.2,33.3c0.5,1.6,1,1.1,1.6,0.1
	c0-9.9,0.1-19.8,0.1-29.7c0-1.7,0-3.2-2-3.7c-0.5-0.6-0.5-1.3,0-1.9C249.1,275.6,249.8,276,250.4,274.8z M223.3,246
	c-0.3,0-0.6,0.1-0.9,0.1c0,20.2,0,40.4,0,60.6c0.3,0,0.6,0,0.9,0C223.3,286.5,223.3,266.3,223.3,246z M242.4,314.4
	c0.3,0,0.6,0,0.9,0c0-12.3,0-24.6,0-36.9c-0.3,0-0.6,0-0.9,0C242.4,289.8,242.4,302.1,242.4,314.4z M243.2,238.2c-0.2,0-0.4,0-0.6,0
	c0,12.3,0,24.7,0,37c0.2,0,0.4,0,0.6,0C243.2,262.9,243.2,250.5,243.2,238.2z M236.7,277.5c-0.3,0-0.6,0-0.8,0c0,12.3,0,24.6,0,36.9
	c0.3,0,0.6,0,0.8,0C236.7,302.2,236.7,289.8,236.7,277.5z M235.7,275.2c0.3,0,0.6,0,0.9,0c0-12.3,0-24.6,0-37c-0.3,0-0.6,0-0.9,0
	C235.7,250.6,235.7,262.9,235.7,275.2z M229.9,277.5c-0.2,0-0.4,0-0.7,0c0,11,0,22.1,0,33.1c0.2,0,0.4,0,0.7,0
	C229.9,299.6,229.9,288.5,229.9,277.5z M245.9,312.3c0.3,0,0.6,0,0.8,0c0-11.4,0-22.8,0-34.3c-0.3,0-0.6,0-0.8,0
	C245.9,289.5,245.9,300.9,245.9,312.3z M229.1,275.2c0.3,0,0.6,0,0.9,0c0-11,0-22,0-33c-0.3,0-0.6,0-0.9,0
	C229.1,253.2,229.1,264.2,229.1,275.2z M252.6,275.2c0.3,0,0.6,0,0.9-0.1c0-10.3,0-20.6,0-31c-0.3,0-0.6,0-0.9,0
	C252.6,254.5,252.6,264.9,252.6,275.2z M252.6,308.6c0.3,0,0.5,0,0.8,0c0-10.2,0-20.4,0-30.5c-0.3,0-0.5,0-0.8,0
	C252.6,288.2,252.6,298.4,252.6,308.6z M259.1,304.6c0.3,0,0.6,0,0.9,0c0-8.8,0-17.7,0-26.5c-0.3,0-0.6,0-0.9,0
	C259.1,286.9,259.1,295.8,259.1,304.6z M263.5,277.7c-0.2,0-0.5,0-0.7,0c0,8.2,0,16.3,0,24.5c0.2,0,0.5,0,0.7,0
	C263.5,294,263.5,285.8,263.5,277.7z M262.2,275.2c0.4,0,0.9,0,1.3,0c0-8.2,0-16.5,0-24.7C261.8,258.7,262.2,266.9,262.2,275.2z
	 M266.9,277.6c-0.3,0-0.6,0-0.9,0c0,7.7,0,15.4,0,23.1c0.3,0,0.6,0,0.9,0C266.9,293,266.9,285.3,266.9,277.6z M213.1,252.3
	c-0.3,0-0.6,0.1-0.9,0.1c0,7.6,0,15.2,0,22.8c0.3,0,0.6,0,0.9,0C213.1,267.6,213.1,260,213.1,252.3z M233.4,240.2
	c-0.3,0-0.6,0-0.8,0.1c0,11.5,0,23.1,0,34.6c0.3,0,0.6,0,0.8,0C233.4,263.4,233.4,251.8,233.4,240.2z M272.7,275.3
	c2.2-5.8,1.8-16.9,0-19.2C272.7,262.5,272.7,268.9,272.7,275.3z M206.4,256.1c-0.3,0-0.6,0.1-0.9,0.1c0,6.3,0,12.7,0,19
	c0.3,0,0.6,0,0.9,0C206.4,268.9,206.4,262.5,206.4,256.1z M273.6,277.9c-0.3,0-0.6,0-0.9,0c0,6.3,0,12.6,0,19c0.3,0,0.6,0,0.9,0
	C273.6,290.5,273.6,284.2,273.6,277.9z M205.4,296.4c0.3,0,0.6,0,0.9,0.1c0-6.2,0-12.4,0-18.5c-0.3,0-0.6,0-0.9,0
	C205.4,284.1,205.4,290.3,205.4,296.4z M233.2,278.1c-0.2,0-0.5,0-0.7,0c0,11.4,0,22.9,0,34.3c0.2,0,0.5,0,0.7,0
	C233.2,300.9,233.2,289.5,233.2,278.1z M226.4,244.2c-0.2,0-0.5,0-0.7,0c0,10.3,0,20.6,0,30.9c0.2,0,0.5,0,0.7,0
	C226.4,264.8,226.4,254.5,226.4,244.2z M225.7,308.4c0.2,0,0.5,0,0.7,0c0-10.1,0-20.3,0-30.4c-0.2,0-0.5,0-0.7,0
	C225.7,288.1,225.7,298.3,225.7,308.4z M269.4,298.2c0.3,0,0.5,0,0.8,0c0-6.7,0-13.4,0-20c-0.3,0-0.5,0-0.8,0
	C269.4,284.9,269.4,291.5,269.4,298.2z M269.3,275c0.3,0,0.5,0,0.8-0.1c0-6.8,0-13.7,0-20.5c-0.3,0-0.5,0-0.8,0
	C269.3,261.3,269.3,268.2,269.3,275z"/>
<path class="st4" d="M83.5,316.8c-4.8,0-9.5,0-14.3,0c-0.6-1.7-2.3-1.4-3.5-1.8c-7.1-2.3-13.1-6.2-18.2-11.7
	c-5.5-6-8.3-13.3-10.7-21c0,4.8,0,9.6,0,14.5c-6.3,0-12.7,0-19,0c-0.3-0.3-0.6-0.6-0.8-1c0-6.3-0.1-12.7-0.1-19c0,0-0.1,0.1-0.1,0.1
	c6.8-1.1,13.6,0.5,20.4-0.9c1.1-0.9,0.8-2,0.4-3.2c0.1-1.5,0.2-3.1,0.2-4.6c5.6-18.6,17.6-29.8,37.2-32.3c2.3,0,4.7,0.1,7,0.1
	c16.6,2.7,28.3,11.5,34.2,27.5c0.2,0.7,0.7,1,1.4,1.1c0.1,0.8,0.1,1.6,0.2,2.4c-0.6,0.5-0.4,0.8,0.2,1.2c0.4,6.6,0.4,13.1-0.3,19.7
	c-2,0.5-1.7,2.5-2.3,3.9c-4.3,10.1-11.4,17.4-21.4,21.7C90.5,314.9,86.9,315.7,83.5,316.8z"/>
<path class="st3" d="M172.2,316.8c-0.3,0-0.6,0-1,0c0.9-14.4-1.9-27.7-12-38.8c-6.4-7.1-12.2-14.5-13.8-24.3c0,21,0,42.1,0,63.1
	c-0.6,0-1.3,0-1.9,0c0.2-1.1,0.5-2.1,0.6-3.2c1.2-15.3-4.4-28.1-14.8-39.1c-7.2-7.6-10.7-16.6-10.6-27.1c0.1-3.8-0.2-7.6-0.3-11.4
	c9-0.1,18.1-0.3,27.1-0.4l0.3,0l0.3,0c8.7,0.1,17.4,0.3,26.2,0.4c-0.1,1.9-0.2,3.8-0.2,5.7C172.2,266.7,172.2,291.7,172.2,316.8z"/>
<path class="st5" d="M246.5,74.7c11.1,0,22.3-0.1,33.4-0.1c0,27,0,54,0,81c-1.4-0.2-2.9-0.3-4.3-0.5c-1.1-8.4,0.1-16.9-1.7-25.3
	c0,8.5,0,16.9,0,25.4c-0.7,0-1.4,0-2.1,0c-1-8.8-0.5-17.7-1.2-26.5c-1.2,8.8-1.3,17.7-0.5,26.5c-1.7,0-3.4,0-5.1,0
	c-1.6-0.4-0.9-2.6-2.5-3c-0.3,1-0.7,2-1,3c-0.4,0-0.8,0-1.2,0c-2.6-7.7-1.9-15.8-2.7-23.7c-0.9,6.3-1.1,12.6,0.2,18.8
	c0.7,3.4,0,4.9-3.6,4.4c-3.4,0.1-6.7,1.4-10.2,0.8c-2.3-11-4.1-22.1-0.2-33.2l0,0.1c1.4-0.9,1.9-2.3,2-3.9l0,0.1
	c1.3-1.1,1.3-2.4,1-3.9l0,0.1c1.9-2.1,1.8-4.8,2.1-7.4C249.7,96.3,246.9,85.5,246.5,74.7z M248.6,120.5c1.3-2.1,2.3-4.3,2.5-6.7
	c-0.4-0.1-0.8-0.2-1.2-0.3c-0.6,2.2-1.2,4.4-1.7,6.7c-1.1,1.1-1.6,2.4-1.9,3.8c-4.3,9-2.9,18,0,26.9c-0.9-8.8-1.5-17.6,0.8-26.3
	C247.9,123.3,248.6,122,248.6,120.5z M254.8,122.9c-3.8,9.3-2.9,18.7-0.5,28.1c-0.6-9.2-0.6-18.5,1-27.6c0.5-0.4,0.8-0.9,0.3-1.5
	C255.4,122.2,255.1,122.6,254.8,122.9z M266.2,149c0.9-7.2,0.1-14.5,1.1-21.7c0.4-2.9,0.4-5.7,5.3-4.8c-1.8-2.1-2.9-3.4-4.6-5.3
	C264.7,128.1,265.6,138.6,266.2,149z M251,123.1c-3.3,7.7-4.1,15.5-1.1,23.5C248.8,138.7,250,130.9,251,123.1z M254.1,83.7
	c0.4,7.9,0.3,15.9,1,23.9C256.6,99.6,255.5,91.7,254.1,83.7z M262.5,130.5c-0.4,0-0.8,0.1-1.2,0.1c-0.5,5.3-0.6,10.7,1.2,15.9
	C262.5,141.2,262.5,135.8,262.5,130.5z M273,80.8c-0.1,0-0.2,0-0.3,0c0,10.1,0,20.3,0,30.4c0.1,0,0.2,0,0.3,0
	C273,101.1,273,90.9,273,80.8z M257.6,112.7c2.3-5.3,1-10.8,1-16.2C258.5,101.9,257.7,107.3,257.6,112.7z M266.1,93.9
	c-0.4,4.9,0,9.9-1,14.8C266.9,103.9,266.4,98.9,266.1,93.9z M275.7,114.1c-0.4,4-0.9,7.9-1.3,11.9
	C276.3,122.2,276,118.2,275.7,114.1z M262.1,107.7c0.1,0,0.3,0,0.4,0c0-5.6,0-11.2,0-16.8c-0.1,0-0.3,0-0.4,0
	C262.1,96.4,262.1,102.1,262.1,107.7z M259,88.9c-0.4-3.7-0.9-7.4-1.3-11.2c-0.5,0.1-0.9,0.1-1.4,0.2
	C257.7,81.5,256.4,85.5,259,88.9z"/>
<path class="st2" d="M118.5,236c0.1,3.8,0.3,7.6,0.3,11.4c-0.2,10.5,3.4,19.5,10.6,27.1c10.4,11,16,23.8,14.8,39.1
	c-0.1,1.1-0.4,2.1-0.6,3.2c-8.6,0-17.2,0-25.7,0c0-9.6,0.8-19.3-0.4-28.9c0.7-6.5,0.7-13.1,0.3-19.7c-0.1-0.4-0.1-0.8-0.2-1.2
	c-0.1-0.8-0.1-1.6-0.2-2.4c1.3-9.6,0.1-19.2,0.6-28.8l-0.2-0.1C118.1,235.9,118.3,236,118.5,236z"/>
<path class="st2" d="M172.2,316.8c0-25,0-50.1,0-75.1c0-1.9,0.1-3.8,0.2-5.7c0,0-0.2-0.2-0.2-0.2l0.5,0.1l0.5,0L173,236
	c0.1,4.4,0.3,8.9,0.1,13.3c-0.5,10.5,4.2,18.8,11,26c11.1,11.8,15.5,25.6,13.9,41.5C189.4,316.8,180.8,316.8,172.2,316.8z"/>
<path class="st2" d="M145.5,316.8c0-21,0-42.1,0-63.1c1.5,9.9,7.4,17.3,13.8,24.3c10,11.1,12.8,24.4,12,38.8
	C162.7,316.8,154.1,316.8,145.5,316.8z"/>
<path class="st4" d="M271.8,155.2c0.7,0,1.4,0,2.1,0c0.6,0,1.2-0.1,1.7-0.1c1.4,0.2,2.9,0.3,4.3,0.5c0,6.7,0,13.3,0,20
	c-4.5,0-8.9,0-13.4,0l0.1,0.1c0-1.7-0.2-3.5-0.1-5.2c0.2-3.8-2.8-2.6-4.3-2.3c-3.1,0.7-8.4-2.7-8.8,2.2c-0.4,5.1-2.3,5.5-6.2,5.1
	c-1.4-0.2-2.9-0.2-4.3,0c-2.7,0.3-3.7-0.6-3.5-3.4c0.1-1.3,1.1-3.7-1.2-3.9c-3.6-0.4-7.3-0.1-10.9-0.1c-1.3,0-1.5,1.1-1.3,2.1
	c1.3,5.8-2.4,5.5-6.2,5.3c-2.5-0.1-5.1,0.1-7.6,0.1l0.1,0.1c0.3-7.6,0.3-7.6-7.2-7.6c-2,0-4.1,0.1-6.1,0.1c0-1,0-2.1,0-3.1
	c3.6,0,7.3,0.1,10.9,0.1c1,0,2.1,0.3,2.6-1.3c1.4-4.6-0.3-7.1-4.9-7.1c-2.8,0-5.7,0.1-8.5,0.1c0-0.4-0.1-0.8-0.1-1.2
	c6.6-0.2,13.2-0.5,19.8-0.7c0.5,0.5,1,0.7,1.5,0c0.5-0.1,1-0.1,1.6-0.2c0.7,0.9,1.4,1.3,2.2,0c0.5,0,1,0,1.5,0
	c0.4,0.9,1.2,0.8,1.9,0.7c0.5-0.6,0.9-1.1,1.4-1.7c0.5,0.5,1,1.1,1.5,1.6c2.9-0.3,6,0.9,8.8-0.7l0,0c0.4-0.1,0.7-0.1,1.1-0.2
	c0.9,0,1.7,0,2.6,0c0.4,0.3,0.8,0.6,1.3,0.9c3.5,0.6,6.8-0.7,10.2-0.8c1.9,1.4,4,1,6.1,0.6c0.4,0,0.8,0,1.2,0c1.1,0,2.3,0,3.4,0
	c1.7,0,3.4,0,5.1,0C270.7,155.2,271.2,155.2,271.8,155.2z M232.6,165.2c1.6,0,3.2,0,4.8,0c0.7,0,1.9,0.2,2-0.7
	c0.2-2.2,0.5-4.5,0-6.6c-0.5-2.1-2.7-1-4.1-1.1c-1.7-0.2-3.5,0.2-5.2-0.1c-3.6-0.5-4.4,0.9-4.6,4.4c-0.3,4.2,1.8,4.3,4.7,4
	C231,165.1,231.8,165.2,232.6,165.2z M259.9,165.2c1.6,0,3.1,0,4.7,0c1,0,1.6-0.1,2-1.3c1.3-5-0.2-7.1-5.3-7.1c-1.4,0-2.9,0.2-4.2,0
	c-3.6-0.6-3.9,1.3-4,4.3c0,3.1,0.5,4.8,4,4.2C258,165,259,165.2,259.9,165.2z"/>
<path class="st4" d="M280,200.5c0,1.6,0,3.2,0,4.8c-4.5,0.6-8.9,0.9-13.4-0.1l0.1,0.1c-0.2-1.4,0.3-3.6-2.3-3c-3.7,0.8-8-2-11.2,1.6
	c-0.2,0.3,0,0.9,0,1.4l0.1-0.1c-4.5,0.9-9,0.8-13.5,0l0.1,0.1c-0.2-2.1-1-3.3-3.5-3.1c-3.3,0.3-6.6,0.2-10,0.2
	c-1.5,0.6-0.6,1.9-0.9,2.9l0.1-0.1c-4.5,0.8-9,0.9-13.5,0l0.1,0.1c0.4-2,0-3.3-2.5-3.1c-3.6,0.2-7.2,0.1-10.8,0.1c0-2.2,0-4.5,0-6.7
	c4.3,0.1,8.6,0.3,13,0.4c0.1,3.5,1.5,5.3,5.4,4.5c2-0.4,4.1-0.1,6.1,0c1.7,0.1,2.6-0.4,2.5-2.3c0-1.8-0.5-2.6-2.4-2.5
	c-3.9,0.3-7.9-0.4-11.7,0.4c1.7-4,0.4-5.7-4-5.2c-2.9,0.3-5.9,0.1-8.9,0.1c0-1.9,0-3.8,0-5.7c4.4,0,8.9,0,13.3,0
	c0,0-0.1-0.1-0.1-0.1c-0.1,3.1,1.1,4.5,4.4,4c2-0.3,4.1-0.2,6.1,0c3.3,0.3,3.8-1.2,2.9-3.9l-0.1,0.1c4.8,0,9.6,0,14.4,0l-0.1-0.1
	c-0.8,2.6-0.4,4.3,2.9,3.9c2-0.2,4.1-0.3,6.1,0c3.3,0.5,4.5-0.9,4.4-4c0,0-0.1,0.1-0.1,0.1c4.5,0,9,0,13.5,0l-0.1-0.1
	c-0.3,2.7,0.2,4.3,3.6,4c3.2-0.3,6.5-0.1,9.8-0.1c0,2.2,0,4.4,0,6.7c-4.5,0-9,0.1-13.5,0.1c0.9-4.2-0.8-5.7-4.9-5
	c-1.2,0.2-2.5,0.2-3.8,0c-4.3-0.5-5.8,1-4.2,5.2c-4.5-0.2-8.9-0.4-13.4-0.6c-0.3-4-2.5-5.3-6.4-4.6c-1.7,0.3-3.5,0.1-5.2,0
	c-1.9-0.1-2.8,0.3-2.8,2.6c0.1,2,0.9,2.3,2.6,2.3c3.9-0.2,7.9-0.2,11.8-0.3c-2,3.8-0.9,5.5,3.5,5.1c1.4-0.1,2.9-0.3,4.3,0
	c3.8,0.8,5.4-0.8,5.4-4.5c4.4-0.1,8.7-0.2,13.1-0.2c-0.8,3.8,0.5,5.3,4.5,4.8C274.1,200.1,277,200.4,280,200.5z"/>
<path class="st3" d="M234.2-6.5c-8,1.9-15.5,4.8-21.8,10.4c-7.7,7-11.6,15.8-13.4,25.9c-0.1-0.8-0.2-1.6-0.2-2.3
	c0.2-7.2,0.2-7.2-6.8-7.2c-2.2,0-4.4,0-6.6-0.1c0-4.5,0-8.9,0.1-13.4c0,0-0.1,0.1-0.1,0.1c4.2-0.2,9.6,1.7,12.3-0.7
	c3-2.7,0.6-8.3,1-12.6C210.7-6.5,222.4-6.5,234.2-6.5z"/>
<path class="st4" d="M280,235.7c-11.8,0.1-23.5,0.2-35.3,0.1c-3.3,0-4.4,0.9-4.3,4.3c0.2,10.2,0.1,20.3,0,30.5
	c0,1.5,0.5,3.1-0.9,4.9c-1.1-1.7-0.7-3.4-0.7-4.9c0-10.2-0.1-20.3,0.1-30.5c0.1-3.3-0.8-4.4-4.2-4.3c-11.9,0.2-23.8,0-35.7-0.1
	c0-3.1,0.1-6.3,0.1-9.4c4.4,0,8.8,0,13.3-0.1c0,0-0.1-0.1-0.1-0.1c0.1,1.6,0.2,3.1,0.3,4.7c-0.3,1.1-0.7,2.2,0.4,3.2
	c1.7,0.1,3.4,0.2,5.1,0.2c7.9,0,7.9,0,8.1-8c4.6,0,9.3,0,13.9,0l0,0c-0.1,1.1-0.1,2.2-0.3,3.3c-0.7,3.8,0.7,5.6,4.7,4.9
	c0.9-0.2,1.9-0.2,2.8,0c5,0.9,6.8-1.3,5.9-6.1c0.1-0.7,0.1-1.3,0.2-2l0,0c4.5,0,8.9,0,13.4,0l0,0c0.1,8.6,0.1,8.6,8.7,8.6
	c1.6,0,3.1,0,4.7,0C280,235.1,280,235.4,280,235.7z"/>
<path class="st4" d="M280,211.9c0,1.3,0,2.5,0,3.8c-4.5,0-8.9,0-13.4-0.1l0.1,0.1c0.1-1.8-0.6-2.7-2.5-2.3c-4,0.8-8-1.2-12.2,1.9
	c-2.3,1.7-7.6,1.5-10.9-0.2c-5.3-2.7-10.2-1.9-15.6-0.7c-4.6,1.1-9.1,2.8-14.2-0.7c-2.8-1.9-8-0.4-12.1-0.4c0-2.6-0.1-5.3-0.1-7.9
	c4.5,0.2,8.9,0.5,13.4-0.2c0,0-0.1-0.1-0.1-0.1c0.1,0.8,0.4,1.6,0.2,2.3c-0.6,3.6,0.9,4.9,4.4,4.3c0.9-0.2,1.9,0,2.8,0
	c6.7,0,6.7,0,6-6.6c0,0-0.1,0.1-0.1,0.1c0,0,0.2,0.4,0.2,0.4l0.4-0.1c4.6,0.1,9.2,0.5,13.8-0.2c0,0-0.1-0.1-0.1-0.1
	c-0.6,6.6-0.6,6.6,6,6.6c6.9,0,6.9,0,7.5-6.6l-0.1,0.1c4.5,0.6,9,0.6,13.5,0c0,0-0.1-0.1-0.1-0.1c0,6.6,0,6.6,6.7,6.6
	C275.5,211.8,277.8,211.9,280,211.9z"/>
<path class="st4" d="M280,223.3c0,1,0,1.9,0,2.9c-4.5,0-8.9,0-13.4-0.1l0,0c-0.1-0.4,0-1.3-0.2-1.3c-4.4-1-8.8-1.1-13.1,0
	c-0.1,0,0,0.8,0,1.3c0,0,0,0,0,0c-0.2-0.1-0.5-0.1-0.7-0.2c-4.2,0.1-8.5,0.1-12.7,0.2c0,0,0,0,0,0c-2.8-2.7-11.9-2.8-15.3-0.1
	c-4.1,0-8.3,0.1-12.4,0.1l0.1,0.1c0.5-2.4-1.3-1.9-2.5-2c-3.6-0.1-7.1,0-10.7,0c0-2.9,0-5.7,0-8.6c3.5,0,7,0.1,10.5,0
	c2-0.1,3.5,0.2,3,2.7c-0.8,4.2,1.3,5.3,5,4.7c1.2-0.2,2.6-0.2,3.8,0c3.5,0.5,5.4-0.5,4.7-4.5c-0.4-2.2,0.5-3.2,2.8-2.9
	c1.4,0.2,2.9,0.1,4.3,0c3.9-0.2,6.5-0.6,7,5.4c0.4,4.6,6.3,1,9.6,1.9c1.6,0.4,3.9,0.5,3.4-2.3c-0.9-4.9,1.7-5.4,5.6-5
	c2.7,0.3,5.4,0.1,8.1,0.1l-0.1-0.1c0,0.6,0.1,1.3,0,1.9c-0.8,4.4,0.7,6.3,5.4,5.6C274.6,222.8,277.3,223.3,280,223.3z"/>
<path class="st4" d="M280,177.6c0,2.5,0,5.1,0,7.6c-4.5,0-8.9,0-13.4-0.1l0.1,0.1c-0.3-6-0.3-5.9-10.4-5.8c-5.4,0-2.5,3.7-3.1,5.8
	l0.1-0.1c-4.5,0.4-9,0.4-13.5,0c0,0,0.1,0.1,0.1,0.1c-1.2-1.7,0.8-5-1.3-5.4c-3.8-0.7-7.9-0.7-11.7,0c-2.1,0.4-0.1,3.7-1.4,5.4
	l0.1-0.1c-4.5,0.4-9,0.4-13.5,0l0.1,0.1c0.8-4.4-0.3-6.7-5.4-5.8c-2.6,0.4-5.3,0.1-7.9,0.1c0-1.4,0-2.7,0-4.1
	c4.4,0.1,8.8,0.2,13.3,0.3l-0.1-0.1c0.1,2.4,1.9,1.9,3.4,2.1c5,0.5,9.9-0.6,14.9-1.2c6.4-0.7,12.7,2.3,19.1,1.1
	c5.7-1,11.4-1.3,17.1-1.9l-0.1-0.1c-0.3,2.2,1.2,2.1,2.6,2C272.8,177.6,276.4,177.6,280,177.6z"/>
<path class="st3" d="M36.8,316.8c0.5-6.7,0.5-13.4,0-20.1c0-4.8,0-9.6,0-14.5c2.5,7.7,5.2,15,10.7,21c5,5.5,11,9.5,18.2,11.7
	c1.2,0.4,2.9,0.2,3.5,1.8C58.4,316.8,47.6,316.8,36.8,316.8z"/>
<path class="st3" d="M117.4,287.9c1.2,9.6,0.5,19.3,0.4,28.9c-11.4,0-22.9,0-34.3,0c3.4-1.1,6.9-1.9,10.2-3.3
	c10-4.3,17.1-11.6,21.4-21.7C115.7,290.4,115.5,288.5,117.4,287.9z"/>
<path class="st6" d="M131.2-6.5c4.8,0,9.5,0,14.3,0c-0.1,3.9-0.3,7.8-0.4,11.7c-0.1,0.5-0.3,1-0.4,1.5c-4.5,0-9,0.1-13.6,0.1
	l0.1,0.1C131.2,2.5,131.2-2,131.2-6.5z"/>
<path class="st6" d="M158.9-6.5c4.5,0,8.9,0,13.4,0c0,4.5,0,8.9,0,13.4l0.1-0.1c-4.5,0-8.9,0-13.4,0.1C158.9,2.5,158.9-2,158.9-6.5z
	"/>
<path class="st3" d="M172.2,6.9c0-4.5,0-8.9,0-13.4c4.5,0,8.9,0,13.4,0c0,4.5,0,8.9,0,13.4c0,0,0.1-0.1,0.1-0.1
	C181.1,6.9,176.7,6.9,172.2,6.9z"/>
<path class="st3" d="M158.9-6.5c0,4.5,0,8.9,0,13.4c0,0,0.1-0.1,0.1-0.1c-4.5,0-8.9,0-13.4,0c0,0,0,0,0,0c-0.1-0.5-0.3-1.1-0.4-1.6
	c0.1-3.9,0.3-7.8,0.4-11.7C150-6.5,154.4-6.5,158.9-6.5z"/>
<path class="st6" d="M185.5,6.9c0-4.5,0-8.9,0-13.4c4.5,0,8.9,0,13.4,0c-0.4,4.3,2,9.9-1,12.6C195.2,8.7,189.8,6.7,185.5,6.9z"/>
<path class="st3" d="M131.2-6.5c0,4.5,0,8.9,0,13.4c-4.4,0-8.9-0.1-13.3-0.1c0-1.5-0.1-2.9-0.1-4.4c0-0.8,0-1.5,0-2.3
	c0-1.3,0-2.7,0-4c0-0.9,0-1.7,0-2.6C122.3-6.5,126.8-6.5,131.2-6.5z"/>
<path class="st2" d="M266.6,226.2c4.5,0,8.9,0,13.4,0.1c0,2.9,0,5.7,0,8.6c-1.6,0-3.1,0-4.7,0C266.7,234.8,266.7,234.8,266.6,226.2z
	"/>
<path class="st2" d="M280,223.3c-2.7-0.1-5.4-0.5-8-0.2c-4.7,0.7-6.2-1.2-5.4-5.6c0.1-0.6,0-1.3,0-1.9c4.5,0,8.9,0,13.4,0.1
	C280,218.3,280,220.8,280,223.3z"/>
<path class="st2" d="M280,211.9c-2.2,0-4.4-0.1-6.7-0.1c-6.7,0-6.7,0-6.7-6.6c4.5,1,8.9,0.7,13.4,0.1C280,207.4,280,209.7,280,211.9
	z"/>
<path class="st2" d="M280,200.5c-2.9,0-5.9-0.3-8.8,0c-4,0.5-5.3-1-4.5-4.8c0,0-0.1,0.1-0.1,0.1c4.5,0,9-0.1,13.5-0.1
	C280,197.3,280,198.9,280,200.5z"/>
<path class="st2" d="M266.6,185.1c4.5,0,8.9,0,13.4,0.1c0,1.3,0,2.5,0,3.8c-3.3,0-6.6-0.3-9.8,0.1
	C266.8,189.5,266.2,187.8,266.6,185.1z"/>
<path class="st4" d="M239,316.8c0-12.5-0.1-25-0.1-37.6c0-0.4,0.4-0.8,1-2.3c0,14,0,26.9,0,39.8C239.6,316.8,239.3,316.8,239,316.8z
	"/>
<path class="st2" d="M280,177.6c-3.6,0-7.2,0-10.7,0.1c-1.5,0-2.9,0.1-2.6-2c4.5,0,8.9,0,13.4,0C280,176.3,280,176.9,280,177.6z"/>
<path class="st4" d="M30.1,154.9c-3.9-11.9-7.6-23.8-11.6-35.6c-1.2-3.5-0.9-4.9,3.2-4.6c3.9,0.3,7.9,0,11.9,0.1
	c2.8,0.1,3.6-0.4,2.6-3.5c-3.8-10.8-7.2-21.6-10.9-32.4c-1.1-3.1-1.2-4.5,2.8-4.5c9,0.1,9-0.1,9,9c0,7.1,0,14.3-0.1,21.4
	c-0.3,1.6-0.6,3.3,0.4,5.7c0.5-2.3,0.9-3.9,1.2-5.5c3-14.3,15.7-26.8,29.8-29.6c0.7-0.1,1.4-0.6,2.1-0.9c4.6,0,9.2,0,13.9,0
	c9.2,2.3,17.4,6.3,23.8,13.6c3.9,4.5,6.1,9.8,8.7,15c1.3,6.6,1.1,13.3,0.7,19.9c-0.4,0.4-0.6,0.8-0.2,1.2c0,0.6-0.1,1.1-0.1,1.7
	c-0.8,0.3-1.1,0.9-1.4,1.7c-6.1,16.1-17.7,25.1-34.8,27.2c-2.2,0-4.5,0-6.7,0c-0.6,0-1.2,0-1.8-0.1c-1.1,0-2.3-0.1-3.4-0.1
	c-0.5-0.3-1-0.8-1.6-1c-15.3-4.4-25.1-14.2-29.2-29.7c-0.3-1.2-0.8-2.3-1.4-3.6c-0.3,11.7,0.5,23.1-0.4,34.5
	C34.5,155,32.3,154.9,30.1,154.9z M77.6,128.1c7.7,0.1,13.7-5.8,13.6-13.4c0-7.3-6-13.3-13.3-13.4c-7.5-0.1-13.6,5.9-13.5,13.5
	C64.4,122.4,70,128.1,77.6,128.1z"/>
<path class="st5" d="M74.5,155c2.2,0,4.5,0,6.7,0c12.3,0.1,24.6,0.2,36.9,0.3c0,0-0.2,0.2-0.2,0.2c0.1,0.4,0.2,0.7,0.2,1.1
	c0,22.2,0,44.5,0,66.7c-0.1,4.1-0.2,8.3-0.2,12.4c0,0,0.2,0.1,0.2,0.1c-12,0.1-24.1,0.1-36.1,0.2c-2.3,0-4.7-0.1-7-0.1
	c-12.7,0-25.5-0.1-38.2-0.1l0,0c0.8-10.9,0.3-21.8,0.3-32.7c0.1-15.8,0-31.6,0-47.4c4.5-0.1,9.1-0.1,13.6-0.3
	c6.2-0.2,12.4,0.6,18.5-0.5c1.1,0,2.3,0.1,3.4,0.1C73.3,155.4,73.9,155.4,74.5,155z M51.9,221.3c-0.5,0.1-0.9,0.2-0.3,0.8
	c0.2-0.2,0.3-0.4,0.5-0.6c0.4-0.3,0.7-0.5,1.1-0.8c5.1-3.8,10.3-7.6,15.4-11.5c-1.8,6.8-3.6,13.6-5.4,20.4c0.2,0.1,0.3,0.2,0.5,0.3
	c3.7-6.1,7.3-12.3,11-18.4c0.9,7.1,1.7,14.2,2.6,21.3c0.3,0,0.6,0,0.8,0.1c0.9-7.1,1.8-14.1,2.7-21.2c3.7,6.2,7.3,12.4,11,18.6
	c0.2-0.1,0.3-0.1,0.5-0.2c-1.7-6.7-3.5-13.4-5.2-20.1c6,2.4,9.9,7.9,16.1,10.3c-3.7-5-7.5-10-11.2-15c6.1-0.3,11.5,3.6,19.1,3.6
	c-6.5-3.9-11.8-7.1-17.2-10.3c7.2-1,14.5-1.9,21.7-2.9c0-0.2-0.1-0.4-0.1-0.6c-7.3-0.9-14.6-1.8-21.8-2.7c5.9-3.5,11.9-7,17.8-10.5
	c-0.1-0.2-0.2-0.4-0.3-0.6c-6.6,1.7-13.1,3.4-19.7,5.1c3.8-5.1,7.6-10.2,11.4-15.3c0.1-0.3,0.3-0.6,0.4-1c-0.3,0.1-0.7,0.2-1,0.3
	c-5.5,3.2-9.5,8.6-15.7,10.9c1.9-6.4,3.8-12.9,5.7-19.3c-0.3-0.1-0.6-0.2-0.9-0.3c-3.5,5.9-7,11.8-10.5,17.8
	c-0.9-7.2-1.9-14.5-2.8-21.7c-0.2,0-0.5,0.1-0.7,0.1c-0.9,7.2-1.7,14.5-2.6,21.7c-3.6-6-7.1-12-10.7-18c-0.2,0.1-0.4,0.2-0.6,0.2
	c1.7,6.7,3.4,13.3,5.1,20c-5.1-3.8-10.1-7.6-15.2-11.4c-0.2,0.2-0.5,0.5-0.7,0.7c3.8,5.1,7.6,10.1,11.3,15.2
	c-6.6-1.7-13.2-3.3-19.8-5c-0.1,0.2-0.1,0.4-0.2,0.6c6,3.5,11.9,7,17.9,10.6c-7.2,0.9-14.4,1.8-21.7,2.7c0,0.2,0,0.5,0,0.7
	c7.2,0.9,14.4,1.9,21.6,2.8c-6.2,3.6-12.3,7.3-19.6,11.5c8.1-1.3,14.4-4.3,21.3-5.1c-2.8,5.5-7.6,9.6-10.8,14.9
	C52.4,220.5,52.1,220.9,51.9,221.3z"/>
<path class="st3" d="M23.7,196.2c0,7.5-0.1,14.9,0.1,22.4c0.1,3.2-1,4-4.1,4c-15.2-0.1-30.5-0.1-45.7,0c-2.9,0-4.2-0.6-4.1-3.9
	c0.2-15.4,0.1-30.8,0-46.2c0-2.9,0.9-3.8,3.8-3.8c15.4,0.1,30.8,0.1,46.2,0c3.3,0,4,1.2,3.9,4.2C23.6,180.6,23.7,188.4,23.7,196.2z"
	/>
<path class="st4" d="M-9.9,154.9c-4.1-12.2-8.1-24.4-12.4-36.5c-1.2-3.5,0-3.9,3-3.8c5.1,0.2,10.2,0,16,0
	c-4.5-13.5-8.8-26.6-13.3-40.2c6.2,0,11.9,0,17.6,0c1.9,0,2.8,0.8,3.4,2.5c3.8,11.6,7.6,23.2,11.6,34.7c0.8,2.4,0.3,3-2.2,3
	c-4.3-0.1-8.6,0.2-12.9-0.1c-3.6-0.2-3.9,1.1-2.9,4.2c4.1,12,8,24.1,12,36.1C3.4,155.4-3.2,155.3-9.9,154.9z"/>
<path class="st4" d="M-3.3,255.8c6.7,0.6,13.5,0.3,20.2,0.1c0,0-0.1-0.1-0.1-0.1c-0.1,0.1-0.2,0.2-0.2,0.4c0,0.2,0.2,0.4,0.3,0.6
	c-0.1,6.7-0.1,13.4-0.2,20c0,0,0.1-0.1,0.1-0.1c-6.3-0.1-12.7-0.2-19-0.2c-0.4-0.2-0.7-0.4-1.1-0.7c0-6.7,0-13.4,0-20.1L-3.3,255.8z
	"/>
<path class="st4" d="M16.9,255.9c0-5.1,0.3-10.1-0.1-15.1c-0.2-3.8,0.7-5.3,4.8-5c5,0.4,10.1,0,15.1,0c0,0,0,0,0,0
	c0.6,6.8,0.6,13.5,0,20.3c-6.3,0-12.6,0-18.9,0c-0.4-0.1-0.7-0.2-1.1-0.3L16.9,255.9z"/>
<path class="st3" d="M69.3,154.9c-6.2,1.1-12.4,0.2-18.5,0.5c-4.5,0.2-9.1,0.2-13.6,0.3c0,0-0.3-0.1-0.3-0.1s0-0.4,0-0.4
	c0.9-11.4,0.1-22.8,0.4-34.5c0.5,1.4,1.1,2.5,1.4,3.6c4.1,15.5,13.9,25.2,29.2,29.7C68.3,154.1,68.7,154.5,69.3,154.9z"/>
<path class="st6" d="M84.5,74.6c-4.6,0-9.2,0-13.9,0c-9.8,0-19.5-0.2-29.3,0c-3.5,0.1-4.4-1.4-4.1-4.5c0.3-3,0.3-5.9,0.4-8.9
	c0.8-0.5,1.8-0.8,2.1-1.8c0.6,0,1-0.3,1-1c0.8,0.1,1.6,0,1.9-1c0.6,0,1-0.3,0.9-1c0.9,0.1,1.6,0,1.9-0.9c0.6,0,1-0.3,1-1
	c0.9,0.1,1.6,0,1.9-0.9c0.6,0,1-0.3,0.9-1c0.5-0.1,1-0.3,1.6-0.4c-0.1-0.2-0.2-0.4-0.3-0.6c-0.4,0.3-0.8,0.7-1.3,1
	c-0.6,0-1,0.3-1,0.9c-0.8-0.1-1.5,0.1-1.9,1c-0.6,0-1,0.3-1,1c-0.8-0.1-1.6,0.1-1.9,1c-0.6,0-1,0.3-1,0.9c-0.9-0.1-1.5,0.1-1.9,1
	c-0.6,0-1,0.3-1,1c-0.7,0.2-1.5,0.3-2.2,0.5c-0.5-1.7-0.5-3.5,0-5.2c1.5-0.7,3.2-1.4,4.3-2.8c0.2-0.3,0.4-0.5,0.6-0.8
	c-0.3,0.1-0.7,0.2-1,0.4c-1.4,0-2.3,1.9-3.9,0.9c0-1.4,0-2.9,0-4.3c1.1-0.6,2.2-1.3,3.4-1.9c0.4-0.2,0.8-0.5,1.2-0.7
	c0.6-0.3,1.2-0.6,1.9-1c0.6-0.3,1.3-0.7,1.9-1c0.6-0.3,1.2-0.7,1.9-1c3.3-1.2,6.5-2.8,9.4-4.9c0.6-0.3,1.2-0.7,1.9-1
	c0.6-0.3,1.3-0.7,1.9-1c0.4-0.2,0.8-0.4,1.2-0.7c0.6-0.3,1.2-0.7,1.8-1c3.3-1.2,6.5-2.8,9.4-4.9c0.6-0.3,1.2-0.7,1.9-1
	c1.2-0.3,2.3-0.6,3.5-1c1.2,1.2,2.5,2,4.7,2c-1.2-1.8-2.7-2.1-4.2-2.6c-1.9-1.5-3.2-0.1-4.5,0.9c-0.6,0.4-1.2,0.7-1.8,1.1
	c-3.4,1.2-6.5,2.8-9.4,4.9c-0.6,0.3-1.3,0.7-1.9,1c-0.4,0.2-0.8,0.5-1.2,0.7c-0.6,0.3-1.3,0.6-1.9,0.9c-0.6,0.4-1.2,0.7-1.8,1.1
	c-3.3,1.3-6.5,2.8-9.4,4.9c-0.6,0.3-1.2,0.7-1.9,1c-0.6,0.3-1.3,0.6-1.9,1c-0.6,0.3-1.3,0.7-1.9,1c-0.4,0.2-0.8,0.4-1.2,0.7
	c-0.9,0.3-1.8,0.6-2.8,0.9c0.1-1.7,0.1-3.4,0.2-5.1c10-4.6,20.1-9.3,30.1-13.9c6.4-4.1,12.8-4.5,19.3-0.3c0.9,0.4,1.7,0.8,2.6,1.3
	c3.1,1.8,6.3,3.4,9.8,4.5c5.9,2.8,11.8,5.6,17.6,8.5c0.2-0.5,0.4-1,0.6-1.4c-5.9-2.6-11.8-5.2-17.7-7.8c-3.1-1.9-6.3-3.5-9.8-4.5
	c-0.9-0.4-1.7-0.9-2.6-1.3c-1.7-0.8-3.3-1.8-5-2.5c-2.3-1-4.5-3-7.4-1.4c-2.7,1.5-5.5,2.8-8.3,4.2c-9.9,4.4-19.8,8.8-29.7,13.2
	c0.1-1.7,0.2-3.3,0.3-5c12.1-4.7,24.2-9.4,36.3-14.2c2.7-1.1,5-1.1,7.7,0.1C92,25,102.5,29.2,113,33.2c1.4,0.5,3.1,2.8,4.9,0.4
	c0,0,0,0,0,0c2.2,0.1,4.4,0.2,6.6,0.2c7.6-0.1,6.9,0.9,6.9-6.8c0-6.6,0-6.6-6.7-6.6c-2.2,0-4.4,0-6.7,0.1c-13-3.5-25.9-7-38.9-10.5
	c-1.4-0.4-2.8,0-4.2,0.3c-12.5,3.3-25.1,6.7-37.6,10c-0.5-1.6-0.4-3.1,0-4.7c7.6-1.5,15.2-3.2,22.8-4.4C68.6,9.7,76.7,6.4,85.5,9
	c5.1,1.5,10.5,2.5,15.8,3.3c5.5,0.9,10.8,2.6,17.2,2.8c-1.6-2.1-3.2-2.2-4.6-2.5c-7.6-1.5-15.2-3.2-22.8-4.5
	C85.6,7.2,80.3,5,74.7,6.1c-12.4,2.4-24.8,5-37.2,7.4c-0.6-1.6-0.1-3.1,0.2-4.6c6.9-0.8,13.8-1.9,20.7-2.5C67,5.6,75.5,3,84.6,4.7
	c9.8,1.8,19.7,2.7,29.5,3.9c1.3,0.2,3.8,1.5,3.8-1.7l0,0c4.4,0,8.9,0.1,13.3,0.1c0,0-0.1-0.1-0.1-0.1c0.4,4.2-0.8,9.6,1.4,12.3
	c2.6,3.1,8.2,0.8,12.5,1.1c0,0,0.4-0.1,0.4-0.1l0,0c0,4.5,0,8.9,0.1,13.4c-1.4,0-2.8,0.1-4.3,0.1c-10.2,0-10.1,0-9.4,10.1
	c0.2,2.4,0.9,3.3,3.4,3.4c3.4,0.1,7-0.7,10.3,0.7c0,4.5-0.1,9-0.1,13.4c0,0-0.3-0.1-0.3-0.1c-3.3,0-6.6,0-9.9-0.2
	c-2.4-0.1-3.4,0.8-3.4,3.3c0.1,3.3,0,6.6,0.1,9.9c-0.3,0-0.6,0-1,0l-0.2-0.2l-0.2,0.3c-2.8,0-5.5,0-8.3,0l-0.1-0.2l-0.1,0.2
	c-1.4,0.1-2.8,0.2-4.2,0.4C106.8,74.6,95.6,74.6,84.5,74.6z M44.7,50.1c0.5-0.2,1.5-0.2,1-1c-0.4-0.6-1.1,0-1.4,0.5
	c-0.2,0.3-0.4,0.5-0.6,0.8C44,50.3,44.4,50.2,44.7,50.1z M111.6,43.7c-0.4-0.2-0.8-0.4-1.2-0.7c-1.1-1.1-2.3-1.7-3.8-2
	c-0.6-0.3-1.2-0.7-1.9-1c-0.5-0.6-1.1-1.1-1.8-0.4c0.4,0.3,0.9,0.6,1.3,1c0.6,0.4,1.2,0.7,1.9,1.1c1.3,0.6,2.5,1.2,3.8,1.9
	c0.4,0.2,0.8,0.5,1.2,0.7c0.6,0.3,1.3,0.7,1.9,1c0.6,0.3,1.2,0.7,1.9,1c0.9,0.9,1.9,1.5,3.1,1.7c-0.1,4.3-0.2,8.7-0.3,13l0.2,0.1
	l0.3-0.1c3.5,0,7,0,10.4,0.1c2,0,2.7-0.8,2.9-2.8c1.2-10.4,0.9-10.7-9.3-10.6c-1.4,0-2.8,0.2-4.2,0.3c0.1-1.8-1.4-1.9-2.6-2.3
	c-0.6-0.3-1.3-0.7-1.9-1C112.8,44.3,112.2,44,111.6,43.7z M93.5,34.2c-0.4-0.2-0.8-0.5-1.2-0.7c-2.3-1.6-4.5-3.2-8.3-3.9
	c2.7,2.5,5.2,3.6,7.7,4.5c0.4,0.2,0.8,0.4,1.3,0.6c0.6,0.3,1.3,0.7,1.9,1c0.6,0.3,1.3,0.6,1.9,1c1.2,1.1,2.5,2,4.6,1.3
	c-1.3-0.6-2.7-1.2-4-1.9c-0.6-0.3-1.2-0.7-1.9-1C94.7,34.7,94.1,34.4,93.5,34.2z M85.4,39.3c0-0.7-0.4-0.9-1-1
	c-0.6-1.1-1.6-1.7-2.9-1.9c-0.4-0.9-1-1.1-1.9-1c-0.2-1-0.9-1.5-1.9-1.5c-0.1,0-0.5,0.4-0.4,0.5c0.5,1,1.4,0.9,2.3,1
	c0.3,1,1.1,1.1,1.9,0.9c0.4,1.5,1.4,2,2.9,1.9C84.4,39,84.8,39.3,85.4,39.3c0.6,1.2,1.6,1.7,2.8,1.9c0.6,1.1,1.6,1.7,2.9,1.9
	c0.3,0.3,0.7,0.5,1,0.8c0.1-0.2,0.2-0.4,0.3-0.6c-0.4-0.1-0.9-0.1-1.3-0.2c-0.3-1.6-1.4-1.9-2.8-2C87.9,39.8,86.8,39.3,85.4,39.3z"
	/>
<path class="st2" d="M-3.3,70.9c-11.1,0-22.3-0.1-33.4,0.1c-2.9,0-3.8-0.8-3.8-3.8c0.1-22.2,0.1-44.5,0-66.7c0-3,1.1-3.7,3.9-3.7
	c22.2,0.1,44.5,0.1,66.7,0c2.9,0,3.8,0.9,3.8,3.8c-0.1,22.2-0.1,44.5,0,66.7c0,3.1-1.1,3.7-3.9,3.7C19,70.8,7.9,70.9-3.3,70.9z
	 M-3.2,69.7c10.3,0,20.6-0.1,31,0.1c3.4,0.1,4.7-0.7,4.7-4.4c-0.2-21-0.2-41.9,0-62.9c0-3.4-1.1-4.2-4.3-4.2
	c-20.8,0.1-41.6,0.1-62.4,0c-3.2,0-4.4,0.6-4.4,4.1c0.2,21.1,0.1,42.2,0,63.4c0,3.2,1,4.1,4.1,4C-24.2,69.6-13.7,69.7-3.2,69.7z"/>
<path class="st6" d="M37.5,33.3c0-1.6,0-3.1,0.1-4.7c12-4,24-7.9,36-12c2.8-1,5.4-1,8.2-0.1c12,4.1,24,8,36,12c0,1.7,0,3.3,0.1,5
	c0,0,0,0,0,0c-11.7-4.7-23.5-9.3-35.2-14.2c-3.7-1.6-6.8-1.3-10.3,0.2C60.8,24.3,49.1,28.8,37.5,33.3z"/>
<path class="st6" d="M37.4,26.8c-0.4-1.6-0.4-3.1,0.1-4.7c12.4-3.2,24.8-6.4,37.2-9.8c2.3-0.6,4.3-0.5,6.5,0.1
	c12.2,3.3,24.5,6.5,36.7,9.7c0,1.5,0,3.1,0,4.6C106,22.8,94,19,82.2,14.9c-3.2-1.1-6-1-9.2,0.1C61.2,19,49.3,22.9,37.4,26.8z"/>
<path class="st6" d="M117.8,2.5c0,1.5,0.1,2.9,0.1,4.4c0,0,0,0,0,0c-6.6-0.9-13.1-2-19.7-2.7c-9.1-0.9-18-3.4-27.3-1.9
	C59.8,4,48.7,5.3,37.6,6.8c0-1.4,0-2.9,0.1-4.3C64.4-0.1,91.1-0.1,117.8,2.5z"/>
<path class="st6" d="M117.8-3.8c0,1.3,0,2.7,0,4c-2-0.2-4.1-0.3-6.1-0.4C99.4-1,87.1-2.3,74.8-2.2C62.3-2.1,49.9-0.6,37.4,0.2
	c-0.5-1.4-0.4-2.7,0-4.1C64.2-3.8,91-3.8,117.8-3.8z"/>
<path class="st5" d="M37.4,0.2c12.5-0.9,24.9-2.4,37.4-2.4C87.1-2.3,99.4-1,111.7-0.3c2,0.1,4.1,0.3,6.1,0.4c0,0.8,0,1.5,0,2.3
	c-26.7-2.5-53.4-2.6-80.2,0C37.3,1.8,37,1.1,37.4,0.2z"/>
<path class="st5" d="M37.6,6.8C48.7,5.3,59.8,4,70.9,2.3c9.3-1.4,18.2,1,27.3,1.9c6.6,0.7,13.1,1.8,19.7,2.7c0,3.2-2.4,1.9-3.8,1.7
	c-9.9-1.2-19.8-2.1-29.5-3.9C75.5,3,67,5.6,58.3,6.5C51.4,7.1,44.5,8.1,37.6,9C37.1,8.2,37,7.5,37.6,6.8z"/>
<path class="st5" d="M37.4,13.5c12.4-2.5,24.8-5,37.2-7.4C80.3,5,85.6,7.2,91,8.1c7.6,1.3,15.2,3,22.8,4.5c1.5,0.3,3,0.4,4.6,2.5
	c-6.4-0.2-11.8-1.9-17.2-2.8C96,11.5,90.6,10.6,85.5,9c-8.8-2.6-16.9,0.7-25.2,2.1C52.6,12.4,45,14,37.4,15.5
	C37.4,14.9,37.4,14.2,37.4,13.5z"/>
<path class="st5" d="M117.8,22.1c-12.2-3.2-24.5-6.4-36.7-9.7c-2.2-0.6-4.2-0.7-6.5-0.1c-12.4,3.4-24.8,6.5-37.2,9.8
	c0-0.6,0-1.3,0-1.9c12.5-3.3,25.1-6.6,37.6-10c1.4-0.4,2.8-0.7,4.2-0.3c13,3.5,25.9,7,38.9,10.5C118,21,117.9,21.5,117.8,22.1z"/>
<path class="st5" d="M37.4,26.8C49.3,22.9,61.2,19,73.1,15c3.1-1.1,5.9-1.2,9.2-0.1C94,19,106,22.8,117.9,26.7c0,0.6,0,1.3,0,1.9
	c-12-4-24-7.9-36-12c-2.9-1-5.4-0.9-8.2,0.1c-12,4.1-24,8-36,12C37.5,28,37.4,27.4,37.4,26.8z"/>
<path class="st5" d="M37.5,33.3c11.6-4.6,23.3-9,34.9-13.8c3.6-1.5,6.6-1.8,10.3-0.2c11.6,5,23.4,9.5,35.2,14.2
	c-1.8,2.3-3.5,0.1-4.9-0.4c-10.5-4-21-8.1-31.4-12.4c-2.7-1.1-4.9-1.2-7.7-0.1c-12,4.9-24.2,9.5-36.3,14.2
	C37.6,34.4,37.6,33.9,37.5,33.3z"/>
<path class="st5" d="M67.8,27.5c-10,4.6-20.1,9.3-30.1,13.9c-0.5-0.4-0.6-0.9-0.2-1.5c9.9-4.4,19.8-8.8,29.7-13.2
	C67.3,26.9,67.6,27.2,67.8,27.5z"/>
<path class="st5" d="M41.7,51.8c-1.1,1.4-2.7,2-4.3,2.8c0-0.8,0-1.5,0-2.3c1.6,1,2.5-0.9,3.9-0.9C41.4,51.6,41.6,51.7,41.7,51.8z"/>
<path class="st7" d="M38.7,105c-0.4,1.6-0.7,3.2-1.2,5.5c-0.9-2.4-0.7-4-0.4-5.7C37.6,104.9,38.1,105,38.7,105z"/>
<path class="st5" d="M37.5,46.5c0.9-0.3,1.8-0.6,2.8-0.9c0.2,0.2,0.4,0.4,0.6,0.6c-1.1,0.6-2.2,1.2-3.4,1.9
	C37.4,47.5,37.4,47,37.5,46.5z"/>
<path class="st5" d="M39.7,59.3c-0.3,1-1.3,1.3-2.1,1.8c0-0.4-0.1-0.9-0.1-1.3C38.2,59.6,38.9,59.5,39.7,59.3
	C39.7,59.3,39.7,59.3,39.7,59.3z"/>
<path class="st3" d="M198.9,33.6c0.2,17.2,11.1,36.9,36.5,40.8c-0.1,0.2-0.2,0.3-0.3,0.4c-0.6,0-1.1-0.1-1.7-0.1
	c-0.6,0-1.2-0.1-1.8-0.1c-0.7,0-1.4,0-2.1,0c-0.6,0-1.1,0-1.7,0c-0.7,0-1.4,0-2.1,0c-0.6,0-1.1,0-1.7,0c-9.7-0.2-19.3-0.3-29,0.8
	c-3-2-6.4-0.4-9.5-1.1c0-4.4,0-8.7,0-13.1c3.5-0.1,7-0.2,10.5-0.1c1.9,0,2.8-0.6,3-2.7c1.2-10.8,0.9-11.1-9.7-11.2
	c-1.3,0-2.5-0.1-3.8-0.1c0-4.5,0-9,0.1-13.5C190,33.6,194.4,33.6,198.9,33.6z"/>
<path class="st5" d="M231.5,74.6c0.6,0,1.2,0.1,1.8,0.1c0.2,2.5,0.3,5,0.6,7.5c1.4,12.3,6.2,24.6-0.8,37.9c2.8-1.7,3.3-3.4,3.8-5
	c1.5-4.7,2.2-9.5,1.5-14.5c-1.2-8.6-2.3-17.2-3.4-25.9c0.1-0.1,0.2-0.3,0.3-0.4c0.6,0.1,1.1,0.2,1.7,0.3c0.2,2.4,0.3,4.7,0.7,7.1
	c1.8,11.6,4.2,23.1,1.2,34.8l0-0.1c-1,0.3-1,1.1-1,2l0-0.1c-0.9,0.4-1.1,1.1-1,2l0-0.1c-10.7,10.6-5.7,22.5-3,34.3
	c-4.6-10.4-8.5-20.8-2-32.1c-3.5,2.9-5.2,6.4-5.6,10.7c-0.5,6.2,1.3,11.9,3.4,17.5c0.6,1.5,2,3,0.4,4.7c-0.5-0.5-1-1.1-1.5-1.6
	c-2.6-9.4-6.8-18.7-2.5-28.8c-4.1,3.8-4.7,8.3-4,13.4c0.8,6,4.2,11.2,5.1,17.1c-0.8,0.1-1.5,0.1-1.9-0.7c-3.2-10-7.9-19.9-2.7-30.7
	l-0.1,0.1c1.9,0.6,2.2-2,3.9-1.9c0.2,0.6,0.5,1.2,0.7,1.8c0.3-0.3,0.9-0.6,0.9-0.9c0.1-1.2-1.2-0.3-1.6-0.9c0-0.6,0-1.3,0-1.9
	l-0.1,0.1c0.7,0,0.9-0.4,1-1l0,0.1c0.9-0.4,1.2-1.1,1-2l0,0c1.8-0.9,1.9-2.8,2.3-4.4c1.3-5.3,0.9-10.7,0.1-16
	c-1.1-7.5-3.4-14.8-3.2-22.5c0.6,0,1.1,0,1.7,0c0,3,0.3,5.9,0.7,8.9c1.7,10.8,5.3,21.5,1.7,32.6c-0.3,0.6-0.6,1.3-0.9,1.9
	c-0.1,0.4-0.2,0.8-0.3,1.2c0.3-0.2,0.6-0.4,0.9-0.6c0.3-0.6,0.7-1.3,1-1.9c3.2-5.9,2.8-12.1,2.1-18.4
	C233.7,90.5,231.4,82.7,231.5,74.6z M229.9,120.4c-0.1,0.1-0.3,0.2-0.3,0.3c0,0.1,0.2,0.2,0.2,0.3c0.1-0.1,0.3-0.2,0.3-0.3
	C230.2,120.7,230,120.6,229.9,120.4z"/>
<path class="st5" d="M242.7,154.6c-0.9,0-1.7,0-2.6,0c-2.3-9.9-5.1-19.9-1.4-30.2c-2.9,2.7-3.4,6-3.7,9.5
	c-0.5,7.3,1.6,14.1,3.9,20.9c0,0,0,0,0,0c-1.9,0.3-2.4-0.9-2.9-2.4c-2.4-6.8-3.5-13.8-2.9-21c0.4-4.1,3.2-7.2,3.9-11.1l0,0.1
	c1.2-0.2,1.3-1,1-2l0,0.1c1.3-0.1,1.2-1,1-2c0,0,0,0.1,0,0.1c1.7-0.6,1.6-2.1,1.9-3.4c1.6-6.1,1.2-12.2,0.5-18.3
	c-0.8-6.7-2.5-13.3-2.4-20.1c0.6,0,1.3,0,1.9,0c0.6,11.3,3.8,22.3,3.5,33.7c1.6-3.9,1.1-7.7,0.8-11.6c-0.6-7.4-2.5-14.6-2.4-22.1
	c0.6,0,1.3,0,1.9,0c1.2,13.3,4.3,26.5,1.9,40c0,0,0-0.1,0-0.1c-1.2,1.1-1.3,2.4-1,3.9c0,0,0-0.1,0-0.1c-1.8,0.7-2,2.2-2,3.9
	c0,0,0-0.1,0-0.1c-2.9,1.8-3.1,4.9-3.8,7.7C237.9,138.5,240.4,146.5,242.7,154.6z M240.7,121.9c0.2-0.9-0.2-1.4-0.6-1.1
	c-0.4,0.2-0.7,0.9-0.9,1.4c-0.1,0.4-0.1,1,0.5,0.8C240.2,122.7,240.5,122.1,240.7,121.9z"/>
<path class="st6" d="M198.9,33.6c-4.4,0-8.9,0-13.3,0l0.1,0.1c0-4.5,0-8.9,0-13.4l-0.1,0.1c2.2,0,4.4,0.1,6.6,0.1
	c6.9,0,6.9,0,6.8,7.2c0,0.8,0.1,1.6,0.2,2.3C199,31.1,198.9,32.3,198.9,33.6z"/>
<path class="st6" d="M239,74.7c-0.1,6.8,1.6,13.4,2.4,20.1c0.7,6.1,1.1,12.3-0.5,18.3c-0.3,1.3-0.3,2.9-1.9,3.4
	c2.9-11.7,0.6-23.3-1.2-34.8c-0.4-2.3-0.5-4.7-0.7-7.1C237.7,74.7,238.4,74.7,239,74.7z"/>
<path class="st6" d="M242.8,74.7c-0.1,7.5,1.8,14.7,2.4,22.1c0.3,3.9,0.8,7.7-0.8,11.6c0.3-11.4-2.9-22.4-3.5-33.7
	C241.5,74.7,242.2,74.7,242.8,74.7z"/>
<path class="st6" d="M246.6,114.7c2.5-13.5-0.7-26.7-1.9-40c0.6,0,1.2,0,1.8,0c0.4,10.9,3.1,21.6,2.1,32.6
	C248.4,109.9,248.5,112.5,246.6,114.7z"/>
<path class="st6" d="M199.1,175.4c0,1.4,0,2.7,0,4.1c0,1.9,0,3.8,0,5.7c0,1.9,0,3.8,0,5.7c0,1.5,0,3.1,0,4.6c0,2.2,0,4.5,0,6.7
	c0,1.1,0,2.1,0,3.2c0,2.6,0.1,5.3,0.1,7.9c0,0.8-0.1,1.5-0.1,2.3c0,2.9,0,5.7,0,8.6c0,0.7,0,1.3,0,2c0,3.1-0.1,6.3-0.1,9.4
	c-8.7,0.1-17.3,0.2-26,0.3c0,0,0.2-0.1,0.2-0.1c-1.5-16.6,3.5-30.7,15.2-42.8c5.6-5.7,9.5-12.7,9.7-21.1c0.1-5.4,0-10.8,0-16.2
	c0.3-0.1,0.5-0.1,0.8-0.2l0.1,0.1c0,0.4,0.1,0.8,0.1,1.2c0,2.7,0,5.5-0.1,8.2c0,1,0,2.1,0,3.1C199,170.6,199,173,199.1,175.4z"/>
<path class="st4" d="M223.3,246c0,20.2,0,40.4,0,60.7c-0.3,0-0.6,0-0.9,0c0-20.2,0-40.4,0-60.6C222.7,246.1,223,246.1,223.3,246z"/>
<path class="st4" d="M216.5,275.9c0.5,0.4,1,0.4,1.5-0.1l0,0c2.6,2.3,2.1,5.3,2.1,8.3c0,6.8,0,13.6-0.6,20.4
	c-2.1-8.7-0.4-17.7-1.5-26.5c-0.4,0-0.8,0-1.2,0c0,8.1,0,16.3,0,24.4c-0.3,0.1-0.6,0.3-1,0.4C215,293.8,213.8,284.8,216.5,275.9
	C216.5,275.9,216.5,275.9,216.5,275.9z"/>
<path class="st4" d="M242.4,314.4c0-12.3,0-24.6,0-36.9c0.3,0,0.6,0,0.9,0c0,12.3,0,24.6,0,36.9C243,314.4,242.7,314.4,242.4,314.4z
	"/>
<path class="st4" d="M243.2,238.2c0,12.3,0,24.7,0,37c-0.2,0-0.4,0-0.6,0c0-12.3,0-24.7,0-37C242.8,238.2,243,238.2,243.2,238.2z"/>
<path class="st4" d="M236.7,277.5c0,12.3,0,24.6,0,37c-0.3,0-0.6,0-0.8,0c0-12.3,0-24.6,0-36.9C236.2,277.6,236.4,277.5,236.7,277.5
	z"/>
<path class="st4" d="M235.7,275.2c0-12.3,0-24.6,0-37c0.3,0,0.6,0,0.9,0c0,12.3,0,24.6,0,37C236.3,275.3,236,275.3,235.7,275.2z"/>
<path class="st4" d="M229.9,277.5c0,11,0,22.1,0,33.1c-0.2,0-0.4,0-0.7,0c0-11,0-22.1,0-33.1C229.4,277.5,229.6,277.5,229.9,277.5z"
	/>
<path class="st4" d="M245.9,312.3c0-11.4,0-22.8,0-34.2c0.3,0,0.6,0,0.8,0c0,11.4,0,22.8,0,34.3
	C246.4,312.3,246.2,312.3,245.9,312.3z"/>
<path class="st4" d="M229.1,275.2c0-11,0-22,0-33c0.3,0,0.6,0,0.9,0c0,11,0,22,0,33C229.7,275.2,229.4,275.2,229.1,275.2z"/>
<path class="st4" d="M248.5,276.8c2,0.5,2,2,2,3.7c-0.1,9.9-0.1,19.8-0.1,29.7c-0.5,0-1.1,0-1.6-0.1
	C248.7,298.9,248.6,287.8,248.5,276.8L248.5,276.8z"/>
<path class="st4" d="M248.5,276.7c-2.5-1.5-3.2-3.6-3.1-6.6c0.3-9.9,0.1-19.9,0.1-30.4c1.9,1.5,1.5,2.9,1.5,4.2
	c0.1,8.9,0.1,17.7,0.3,26.6c0,1.5-1.2,3.6,1.3,4.4c0,0,0-0.1,0-0.1l-0.1,0C248,275.5,248,276.1,248.5,276.7
	C248.5,276.8,248.5,276.7,248.5,276.7z"/>
<path class="st4" d="M249.7,242.1c1.6,4.1,0.6,8.3,0.7,12.5c0.2,6.7,0,13.5,0,20.2c-0.6,0-1.2,0-1.8,0c0,0,0,0.1,0,0.1
	c0.1-10.8,0.1-21.6,0.2-32.4C249.1,242.4,249.4,242.2,249.7,242.1z"/>
<path class="st4" d="M252.6,275.2c0-10.3,0-20.7,0-31c0.3,0,0.6,0,0.9,0c0,10.3,0,20.6,0,31C253.1,275.2,252.9,275.2,252.6,275.2z"
	/>
<path class="st4" d="M252.6,308.6c0-10.2,0-20.4,0-30.5c0.3,0,0.5,0,0.8,0c0,10.2,0,20.4,0,30.5
	C253.2,308.6,252.9,308.6,252.6,308.6z"/>
<path class="st4" d="M255.5,306.2c0-9.5,0-18.9-0.1-28.4c0.3,0,0.6-0.1,0.9-0.2c1.8,2.9,0.7,6.1,0.8,9.2c0.1,6.5,0,13-0.1,19.5
	C256.5,306.2,256,306.2,255.5,306.2z"/>
<path class="st4" d="M255.6,274.7c0-9.4,0-18.7,0-28.1c0.5,0,1,0,1.5,0c0,9.4,0,18.8,0,28.2C256.6,274.8,256.1,274.7,255.6,274.7z"
	/>
<path class="st4" d="M259,274.8c0-8.9,0-17.8,0-26.7c0.5,0,1,0,1.6,0c0,8.9,0,17.8,0,26.6C260.1,274.7,259.6,274.8,259,274.8z"/>
<path class="st4" d="M218,275.8c0-9.1,0-18.1,0-27.2c0.7,0,1.3,0,2,0c0,8.5,0,17.1,0,25.6C220,275.5,218.8,275.4,218,275.8
	C218,275.8,218,275.8,218,275.8z"/>
<path class="st4" d="M259.1,304.6c0-8.8,0-17.7,0-26.5c0.3,0,0.6,0,0.9,0c0,8.8,0,17.7,0,26.5C259.7,304.6,259.4,304.6,259.1,304.6z
	"/>
<path class="st4" d="M263.5,277.7c0,8.2,0,16.3,0,24.5c-0.2,0-0.5,0-0.7,0c0-8.2,0-16.3,0-24.5C263,277.7,263.2,277.7,263.5,277.7z"
	/>
<path class="st4" d="M262.2,275.2c0-8.2-0.4-16.5,1.3-24.7c0,8.2,0,16.5,0,24.7C263.1,275.2,262.7,275.2,262.2,275.2z"/>
<path class="st4" d="M215.2,274.8c0-8.2,0-16.3,0-24.5c0.5,0,1,0,1.6,0c0,8.1,0,16.3,0,24.4C216.2,274.7,215.7,274.8,215.2,274.8z"
	/>
<path class="st4" d="M266.9,277.6c0,7.7,0,15.4,0,23.1c-0.3,0-0.6,0-0.9,0c0-7.7,0-15.4,0-23.1C266.3,277.6,266.6,277.6,266.9,277.6
	z"/>
<path class="st4" d="M213.1,252.3c0,7.6,0,15.3,0,22.9c-0.3,0-0.6,0-0.9,0c0-7.6,0-15.2,0-22.8C212.5,252.4,212.8,252.3,213.1,252.3
	z"/>
<path class="st4" d="M213.2,277.7c0,7.7,0,15.3,0,23c-1.9-7.6-1.7-15.3-1.2-23C212.3,277.7,212.8,277.7,213.2,277.7z"/>
<path class="st4" d="M265.7,274.8c0-7.5,0-15,0-22.5c0.5,0,1.1,0,1.6,0c0,7.5,0,15,0,22.5C266.8,274.7,266.3,274.8,265.7,274.8z"/>
<path class="st4" d="M210.2,277.3c-0.1,7.1-0.1,14.2-0.2,21.3c-0.3,0-0.5,0.1-0.8,0.3c-1.8-6.9-0.6-13.9-0.6-20.9
	C208.7,277.7,209.7,277.5,210.2,277.3C210.2,277.3,210.2,277.3,210.2,277.3z"/>
<path class="st4" d="M233.4,240.2c0,11.6,0,23.1,0,34.7c-0.3,0-0.6,0-0.8,0c0-11.5,0-23.1,0-34.6
	C232.8,240.3,233.1,240.2,233.4,240.2z"/>
<path class="st4" d="M208.5,274.8c0-6.9,0-13.7,0-20.6c0.5,0,1,0,1.5,0c0,6.8,0,13.6,0,20.5C209.5,274.7,209,274.8,208.5,274.8z"/>
<path class="st4" d="M272.7,275.3c0-6.4,0-12.7,0-19.2C274.5,258.4,274.9,269.5,272.7,275.3z"/>
<path class="st4" d="M206.4,256.1c0,6.4,0,12.7,0,19.1c-0.3,0-0.6,0-0.9,0c0-6.3,0-12.7,0-19C205.8,256.2,206.1,256.2,206.4,256.1z"
	/>
<path class="st4" d="M273.6,277.9c0,6.3,0,12.6,0,18.9c-0.3,0-0.6,0-0.9,0c0-6.3,0-12.6,0-19C273,277.9,273.3,277.9,273.6,277.9z"/>
<path class="st4" d="M205.4,296.4c0-6.2,0-12.3,0-18.5c0.3,0,0.6,0,0.9,0c0,6.2,0,12.4,0,18.5C206,296.5,205.7,296.5,205.4,296.4z"
	/>
<ellipse class="st4" cx="232.8" cy="295.2" rx="0.5" ry="24.3"/>
<ellipse class="st4" cx="226.1" cy="259.7" rx="0.5" ry="21.9"/>
<path class="st4" d="M225.7,308.4c0-10.1,0-20.3,0-30.4c0.2,0,0.5,0,0.7,0c0,10.1,0,20.3,0,30.4
	C226.2,308.4,225.9,308.4,225.7,308.4z"/>
<path class="st4" d="M269.4,298.2c0-6.7,0-13.4,0-20c0.3,0,0.5,0,0.8,0c0,6.7,0,13.4,0,20C270,298.2,269.7,298.2,269.4,298.2z"/>
<path class="st4" d="M269.3,275c0-6.8,0-13.7,0-20.5c0.3,0,0.5,0,0.8,0c0,6.8,0,13.7,0,20.5C269.9,275,269.6,275,269.3,275z"/>
<path class="st7" d="M255.6,274.7c0.5,0,1,0.1,1.5,0.1c-0.3,0.9-0.5,1.8-0.8,2.8c-0.3,0.1-0.6,0.2-0.9,0.2
	C255.5,276.8,255.5,275.7,255.6,274.7z"/>
<path class="st7" d="M210.2,277.3C210.2,277.3,210.2,277.3,210.2,277.3c1,0.3,2.2-0.9,3,0.5c-0.4,0-0.8,0-1.2,0
	C211.4,277.6,210.8,277.4,210.2,277.3z"/>
<path class="st7" d="M265.7,274.8c0.5,0,1.1-0.1,1.6-0.1C266.9,275.9,266.3,276,265.7,274.8z"/>
<path class="st7" d="M259,274.8c0.5,0,1-0.1,1.6-0.1C260.2,276,259.6,276,259,274.8z"/>
<path class="st7" d="M248.6,274.8c0.6,0,1.2,0,1.8,0C249.8,276,249.1,275.6,248.6,274.8C248.5,274.8,248.6,274.8,248.6,274.8z"/>
<path class="st7" d="M215.2,274.8c0.5,0,1-0.1,1.6-0.1c-0.1,0.4-0.2,0.8-0.3,1.2c0,0,0,0,0,0C216.1,275.5,215.6,275.2,215.2,274.8z"
	/>
<path class="st7" d="M208.5,274.8c0.5,0,1-0.1,1.5-0.1C209.6,275.9,209.1,276.1,208.5,274.8z"/>
<path class="st7" d="M249.7,242.1c-0.3,0.1-0.6,0.3-1,0.4C248.7,241.5,249.1,241.6,249.7,242.1z"/>
<path class="st2" d="M17.9,256.1c6.3,0,12.6,0,18.9,0c1,4-0.4,8.1,0.9,12.1c-0.1,1.5-0.2,3.1-0.2,4.6c-0.8,1-0.6,2.1-0.4,3.2
	c-6.7,1.4-13.6-0.2-20.4,0.9c0.1-6.7,0.1-13.4,0.2-20C17.2,256.6,17.6,256.3,17.9,256.1z"/>
<path class="st2" d="M-2.2,276.4c6.3,0.1,12.7,0.2,19,0.2c0,6.3,0.1,12.7,0.1,19c-0.1,0.3-0.1,0.7-0.2,1c0,0,0.1-0.1,0.1-0.1
	c-6.7,0-13.5,0-20.2,0.1c0,0,0.1,0.1,0.1,0.1c0-6.7,0-13.5,0.1-20.2l-0.1,0.1C-2.9,276.6-2.5,276.5-2.2,276.4z"/>
<path class="st3" d="M37.7,268.2c-1.4-3.9,0.1-8.1-0.9-12.1c0.6-6.8,0.6-13.5,0-20.3c12.7,0,25.5,0.1,38.2,0.1
	C55.3,238.4,43.3,249.6,37.7,268.2z"/>
<path class="st3" d="M81.9,236c12-0.1,24.1-0.1,36.1-0.2c-0.5,9.6,0.7,19.2-0.6,28.8c-0.7-0.1-1.1-0.4-1.4-1.1
	C110.2,247.5,98.5,238.7,81.9,236z"/>
<path class="st3" d="M37.1,275.9c-0.2-1.1-0.5-2.2,0.4-3.2C37.8,273.9,38.1,275,37.1,275.9z"/>
<path class="st3" d="M117.6,267.1c0.1,0.4,0.1,0.8,0.2,1.2C117.2,267.9,117,267.5,117.6,267.1z"/>
<path class="st6" d="M117.9,235.8c0.1-4.1,0.2-8.3,0.2-12.4c0.6,0.3,1.5,2.1,1.6-0.2c0.3-10.4,5.1-18.7,11.7-26.3
	c6.4-7.4,12.1-15,12.9-25.3c0.4-5.4,0.2-10.7,0.2-16.1c0,0-0.1-0.3-0.1-0.3c0.4,0,0.9,0,1.3,0c0,0-0.1,0.3-0.1,0.3
	c0,24.4,0,48.8,0,73.1c-0.2-13.3,5.7-23.8,14.2-33.4c5.4-6.1,10.3-12.8,11.1-21.2c0.6-6.1,0.3-12.4,0.3-18.5l-0.1-0.3
	c0.4,0,0.9,0,1.3,0l-0.1,0.3c0,26.8-0.1,53.6-0.1,80.4c0,0,0.2,0.2,0.2,0.2c-8.7-0.1-17.4-0.3-26.2-0.4c0-0.9,0.4-1.9-0.3-2.7
	c-0.7,0.8-0.4,1.8-0.3,2.7c-9,0.1-18.1,0.3-27.1,0.4C118.3,236,118.1,235.9,117.9,235.8z"/>
<path class="st4" d="M145.6,235.6c0-0.9-0.4-1.9,0.3-2.7c0.7,0.9,0.3,1.8,0.3,2.7c0,0-0.3,0-0.3,0L145.6,235.6z"/>
<path class="st6" d="M242.7,154.6c-2.3-8-4.9-16.1-2.8-24.6c0.7-2.8,0.9-5.9,3.8-7.7c-3.9,11.1-2.1,22.1,0.2,33.2
	C243.6,155.1,243.2,154.8,242.7,154.6z"/>
<path class="st6" d="M266.2,149c-0.6-10.4-1.5-20.9,1.9-31.8c1.6,1.9,2.8,3.2,4.6,5.3c-4.9-0.9-4.9,1.8-5.3,4.8
	C266.3,134.5,267,141.8,266.2,149z"/>
<path class="st6" d="M271.8,155.2c-0.6,0-1.1,0-1.7,0c-0.8-8.8-0.7-17.7,0.5-26.5C271.2,137.6,270.7,146.4,271.8,155.2z"/>
<path class="st6" d="M255.4,123.4c-1.6,9.2-1.6,18.4-1,27.6c-2.4-9.4-3.3-18.7,0.5-28.1C255,123.1,255.2,123.2,255.4,123.4z"/>
<path class="st6" d="M247.1,124.6c-2.3,8.7-1.7,17.5-0.8,26.3c-2.9-9-4.3-17.9,0-26.9C246.6,124.1,246.9,124.4,247.1,124.6z"/>
<path class="st6" d="M251,123.1c-1,7.8-2.2,15.6-1.1,23.5C246.9,138.6,247.7,130.8,251,123.1z"/>
<path class="st6" d="M254.1,83.7c1.3,8,2.5,15.9,1,23.9C254.4,99.7,254.5,91.6,254.1,83.7z"/>
<path class="st6" d="M260.3,155.2c-2.1,0.4-4.2,0.9-6.1-0.6c3.6,0.5,4.3-1,3.6-4.4c-1.3-6.2-1.1-12.5-0.2-18.8
	C258.4,139.4,257.7,147.5,260.3,155.2z"/>
<path class="st6" d="M262.5,130.5c0,5.3,0,10.7,0,16c-1.8-5.2-1.7-10.6-1.2-15.9C261.7,130.6,262.1,130.5,262.5,130.5z"/>
<ellipse class="st6" cx="272.8" cy="96" rx="0.2" ry="21.5"/>
<path class="st6" d="M275.7,155.1c-0.6,0-1.2,0.1-1.7,0.1c0-8.5,0-16.9,0-25.4C275.7,138.3,274.6,146.7,275.7,155.1z"/>
<path class="st6" d="M257.6,112.7c0.1-5.4,0.9-10.8,1-16.2C258.7,101.9,259.9,107.4,257.6,112.7z"/>
<path class="st6" d="M266.1,93.9c0.3,5,0.8,10-1,14.8C266.1,103.8,265.7,98.9,266.1,93.9z"/>
<path class="st6" d="M275.7,114.1c0.3,4,0.7,8.1-1.3,11.9C274.8,122.1,275.2,118.1,275.7,114.1z"/>
<path class="st6" d="M262.1,107.7c0-5.6,0-11.2,0-16.8c0.1,0,0.3,0,0.4,0c0,5.6,0,11.2,0,16.8C262.4,107.7,262.3,107.7,262.1,107.7z
	"/>
<path class="st6" d="M259,88.9c-2.6-3.3-1.2-7.3-2.8-10.9c0.5-0.1,0.9-0.1,1.4-0.2C258.1,81.5,258.5,85.2,259,88.9z"/>
<path class="st6" d="M248.2,120.1c0.6-2.2,1.2-4.4,1.7-6.7c0.4,0.1,0.8,0.2,1.2,0.3c-0.2,2.4-1.2,4.6-2.5,6.7
	C248.5,120.3,248.4,120.2,248.2,120.1z"/>
<path class="st6" d="M265,155.3c-1.1,0-2.3,0-3.4,0c0.3-1,0.6-1.9,1-3C264,152.7,263.4,154.9,265,155.3z"/>
<path class="st6" d="M246.3,123.9c0.3-1.5,0.8-2.8,1.9-3.8c0.1,0.1,0.3,0.2,0.4,0.4c0,1.6-0.7,2.8-1.5,4.1
	C246.9,124.4,246.6,124.1,246.3,123.9z"/>
<path class="st6" d="M243.7,122.3c-0.1-1.7,0.1-3.2,2-3.9C245.6,120,245.2,121.4,243.7,122.3z"/>
<path class="st6" d="M245.6,118.5c-0.3-1.5-0.3-2.8,1-3.9C247,116.1,246.9,117.4,245.6,118.5z"/>
<path class="st6" d="M254.8,122.9c0.3-0.3,0.5-0.7,0.8-1c0.6,0.6,0.3,1-0.3,1.5C255.2,123.2,255,123.1,254.8,122.9z"/>
<path class="st4" d="M172.2,235.8c0-26.8,0.1-53.6,0.1-80.4c4.7-0.1,9.3-0.1,14-0.2c0.5,0,0.9,0,1.4,0c0.5,0,1,0,1.4,0
	c3,0.2,5.9,0.4,8.9,0.5c0,5.4,0.1,10.8,0,16.2c-0.2,8.4-4.1,15.4-9.7,21.1c-11.7,12-16.7,26.2-15.2,42.8c0,0-0.5,0-0.5,0
	L172.2,235.8z"/>
<path class="st6" d="M227.7,74.6c-0.2,7.7,2,15,3.2,22.5c0.8,5.3,1.2,10.7-0.1,16c-0.4,1.6-0.5,3.5-2.3,4.4c-1-2.1,1.6-4.2,0.1-6.9
	c-1.3,2.9-2.2,5.3-3.3,7.6c-0.2,0.5-0.9,1.1-1.4,0.4c-0.3-0.4,0.1-1.2,0.3-1.8c5.5-11.6-0.7-22.2-2.4-33.1c-0.3,2.5,0.2,4.9,0.7,7.4
	c1.7,8.3,3.9,16.6,1.1,25.2c-1.4,1.2-1.6,3.4-3.6,4.1c0.1-0.8,0.3-1.7,0.4-2.5c0.2-0.4,0.4-0.8,0.6-1.3c1.1-1.7,1.8-3.4,1.4-5.7
	c-2,1.5-1.3,3.6-1.9,5.2c-0.2,0.4-0.5,0.8-0.7,1.2c-1.2,1.1-2.1,2.2,0.2,3c-1.8,1-3.5,2.6-5.7,1c1.2-0.5,1.9-1.4,2.1-2.6
	c0.2-0.4,0.5-0.8,0.7-1.2c1.1-1.3,1.9-2.6,1.3-4.6c-1.6,1.2-1.2,2.9-1.5,4.3c-0.3,0.4-0.5,0.7-0.8,1.1c-1,0.8-2,1.5-1.8,2.9
	c-1.8,0.1-3.8-0.2-5.2,1.6c1.3,1,3.2-0.4,4.2,1.3c-0.4,0.3-0.7,0.6-1.1,0.8c-0.3,0.3-0.6,0.6-1,0.9c-0.3,0.3-0.6,0.7-0.9,1
	c-1.5,1.5-2.3,3.3-2.5,6.4c2.2-2,2.2-4.2,3-5.8c0.3-0.4,0.6-0.7,0.8-1.1c0.3-0.3,0.6-0.7,0.9-1c0.3-0.3,0.6-0.7,1-1
	c1.3-0.2,1.7,0.4,1.5,1.6c-0.7,0.7-2.1,1.4-0.8,2.3c0.8,0.5,1-1.1,1.5-1.7c0.6-0.4,1.2-0.7,1.8-1.1c0.3,0.3,0.5,0.5,0.8,0.8
	c-2.8,5.4-2.4,10.9-0.7,16.5c1.2,4.1,3.7,7.7,4.2,12c-0.5,0.1-1,0.1-1.6,0.2l-0.3-0.3c-0.2-0.5-0.3-0.9-0.5-1.4
	c-0.4-0.9-0.8-1.8-1.2-2.6c-0.3-0.6-0.6-1.3-0.9-1.9c-1.3-3.6-2.6-7.3-3.9-10.9c-1,4.5,1.5,7.9,3.1,11.5c0.3,0.6,0.6,1.3,1,1.9
	c0.4,0.9,0.8,1.8,1.2,2.6c0,0.3,0.1,0.5,0.2,0.8l-0.2,0.3c-6.6,0.2-13.2,0.5-19.8,0.7c0,0-0.1-0.1-0.1-0.1c-3-1.5-6.4-1.1-9.5-1.7
	c-5.2-0.4-10.5-0.5-15.7-1.2c-13.4-1.6-26.6-3.8-38.8-10c-4.7-2.4-9.8-5.2-9.8-11.2c0-6,5.2-8.7,9.9-11.1
	c11.2-5.6,23.3-7.9,35.6-9.5c9.2-1.2,18.5-1.9,28.7-2c-2.4-1.3-4.2-0.8-5.9-0.8c-21.6,0-43.2-0.1-64.8,0.1c-3.5,0-4-1.1-3-4
	c1-3.1,2.6-5.7,4.8-8.1c4.1-4.4,9.1-7.4,14.4-9.9c16-7.3,32.9-10.1,50.3-10.7c9.6-1,19.3-0.9,29-0.8c-0.1,7.2,1.5,14.2,3.7,21.1
	c-0.1-7.1-2.6-14-2.1-21.1C226.3,74.6,227,74.6,227.7,74.6z M213.2,118.4c0.6-0.3,0.9-0.7,0.7-1.3c0-0.1-0.2-0.1-0.4-0.2
	C213.5,117.5,213.4,118,213.2,118.4c-0.2,0.1-0.4,0.2-0.6,0.3c0.1,0.1,0.2,0.3,0.3,0.4C213,118.9,213.1,118.7,213.2,118.4z
	 M205.6,120.3c0.3-0.4,1.3-0.5,0.3-1.2C205.8,119.6,205.7,120,205.6,120.3c-0.3,0.4-0.6,0.7-0.9,1c-0.9,0.3-2.1,0.4-2.1,1.7
	c0,0.3,0.7,0.8,1,0.7c1.5-0.3,0.3-1.8,1-2.5C205,121,205.3,120.7,205.6,120.3z M205.6,98.4c0,0.7,0.1,1.4,0.2,2.4
	C206.8,99.7,206.4,99,205.6,98.4c-0.1-0.9-0.2-1.8-0.3-2.7C204.6,96.7,204.7,97.6,205.6,98.4z M200.9,129.9
	c-2.5,2.1-1.3,4.5-0.1,6.8C200.8,134.4,200.8,132.2,200.9,129.9c0.7-1.1,1.5-2.2,2.3-3.2C201.5,127.2,200.4,128.1,200.9,129.9z
	 M214.4,116c1.4-3.8,2.1-6.4,0-8.9C214.4,109.6,214.4,112.1,214.4,116z M204,146.8c-0.1-3.8-1.6-5.7-3.2-8.7
	C200.9,141.7,202,143.8,204,146.8z M207.4,104.1c-0.1-0.4-0.2-0.8-0.3-1.2c-0.1,0.2-0.3,0.4-0.4,0.6c0,0.3,0.1,0.5,0.1,0.8
	C207,104.2,207.2,104.2,207.4,104.1z M207.4,123.8c-0.1-0.1-0.1-0.2-0.2-0.3c-0.1,0-0.2,0.1-0.3,0.2c0.1,0.1,0.1,0.2,0.2,0.3
	C207.1,124,207.3,123.9,207.4,123.8z"/>
<path class="st2" d="M266.7,175.7c-5.7,0.6-11.4,0.9-17.1,1.9c-6.4,1.1-12.7-1.9-19.1-1.1c-4.9,0.6-9.8,1.7-14.9,1.2
	c-1.5-0.1-3.3,0.4-3.4-2.1c2.5,0,5.1-0.2,7.6-0.1c3.8,0.2,7.6,0.5,6.2-5.3c-0.2-0.9,0-2,1.3-2.1c3.6-0.1,7.3-0.3,10.9,0.1
	c2.3,0.2,1.3,2.6,1.2,3.9c-0.2,2.8,0.8,3.7,3.5,3.4c1.4-0.2,2.9-0.2,4.3,0c3.9,0.4,5.8,0,6.2-5.1c0.4-4.9,5.8-1.5,8.8-2.2
	c1.5-0.3,4.5-1.5,4.3,2.3C266.5,172.2,266.6,174,266.7,175.7z"/>
<path class="st6" d="M237.1,120.3c-0.6,3.9-3.5,7-3.9,11.1c-0.7,7.3,0.5,14.2,2.9,21c0.5,1.5,1,2.7,2.9,2.4
	c-2.8,1.7-5.8,0.4-8.8,0.7c1.7-1.7,0.2-3.2-0.4-4.7c-2.1-5.7-3.9-11.4-3.4-17.5c0.3-4.3,2.1-7.8,5.6-10.7c-6.5,11.3-2.6,21.7,2,32.1
	C231.4,142.9,226.4,130.9,237.1,120.3z"/>
<path class="st5" d="M219.9,120.4c2-0.6,2.2-2.9,3.6-4.1c0.2,0.2,0.5,0.4,0.7,0.6c-0.1,0.6-0.5,1.4-0.3,1.8c0.5,0.7,1.2,0.1,1.4-0.4
	c1.1-2.4,2.1-4.7,3.3-7.6c1.5,2.7-1.1,4.7-0.1,6.9c0,0,0,0,0,0c-1.2,0.2-1.4,0.9-1,2c0,0,0-0.1,0-0.1c-0.9-0.2-1,0.3-1,1l0.1-0.1
	c-1.9,0.7-2.9,2.3-3.9,3.9c0,0,0.1-0.1,0.1-0.1c-6.1,4.3-5.7,10.5-4.1,16.6c1.3,4.8,3.5,9.4,5.3,14.1c-0.7,1.3-1.5,0.9-2.2,0
	c-0.5-4.3-3-7.9-4.2-12c-1.7-5.7-2.1-11.1,0.7-16.5c0.5-0.4,0.9-1,0.4-1.5c-0.7-0.6-0.9,0.3-1.2,0.7c-0.6,0.4-1.2,0.7-1.8,1.1
	c-0.2-0.2-0.4-0.4-0.7-0.6c0.2-1.2-0.2-1.8-1.5-1.6l-0.3-0.3c-1-1.6-2.9-0.3-4.2-1.3c1.4-1.8,3.3-1.5,5.2-1.6c0,0,0,0,0,0
	C216.4,123,218.1,121.4,219.9,120.4C219.9,120.4,219.9,120.4,219.9,120.4z"/>
<path class="st2" d="M232.6,165.2c-0.8,0-1.6-0.1-2.4,0c-3,0.3-5,0.2-4.7-4c0.2-3.5,1-4.9,4.6-4.4c1.7,0.2,3.5-0.1,5.2,0.1
	c1.4,0.1,3.6-1,4.1,1.1c0.5,2.1,0.2,4.4,0,6.6c-0.1,0.9-1.3,0.7-2,0.7C235.7,165.2,234.2,165.2,232.6,165.2z"/>
<path class="st2" d="M199,165.1c0-2.7,0-5.5,0.1-8.2c2.8,0,5.7-0.1,8.5-0.1c4.6,0,6.3,2.5,4.9,7.1c-0.5,1.6-1.6,1.3-2.6,1.3
	C206.3,165.2,202.6,165.1,199,165.1z"/>
<path class="st2" d="M259.9,165.2c-0.9,0-1.9-0.1-2.8,0c-3.5,0.6-4.1-1.1-4-4.2c0-3,0.3-4.9,4-4.3c1.4,0.2,2.8,0,4.2,0
	c5.2,0,6.7,2.1,5.3,7.1c-0.3,1.3-1,1.3-2,1.3C263.1,165.2,261.5,165.2,259.9,165.2z"/>
<path class="st2" d="M199.1,175.4c0-2.4,0-4.8-0.1-7.2c2,0,4.1-0.1,6.1-0.1c7.5,0,7.5,0,7.2,7.6
	C207.9,175.6,203.5,175.5,199.1,175.4z"/>
<path class="st6" d="M223.9,154.8c-1.8-4.7-4-9.3-5.3-14.1c-1.6-6.1-2-12.2,4.1-16.6c-5.2,10.8-0.6,20.7,2.7,30.7
	C224.9,154.8,224.4,154.8,223.9,154.8z"/>
<path class="st6" d="M227.4,155.5c-0.9-5.9-4.3-11.1-5.1-17.1c-0.7-5.1,0-9.6,4-13.4c-4.4,10.1-0.1,19.4,2.5,28.8
	C228.3,154.4,227.8,155,227.4,155.5z"/>
<path class="st6" d="M239,154.7c-2.3-6.8-4.5-13.6-3.9-20.9c0.2-3.5,0.8-6.8,3.7-9.5c-3.7,10.3-0.9,20.2,1.4,30.2
	C239.8,154.6,239.4,154.7,239,154.7z"/>
<path class="st6" d="M220.2,155c-0.5,0.6-1,0.5-1.5,0c0,0,0.2-0.3,0.2-0.3c0.3,0,0.7,0,1,0L220.2,155z"/>
<path class="st2" d="M225.7,205.2c0.7,6.6,0.7,6.6-6,6.6c-0.9,0-1.9-0.1-2.8,0c-3.5,0.6-5-0.7-4.4-4.3c0.1-0.7-0.1-1.6-0.2-2.3
	C216.7,206,221.2,206,225.7,205.2z"/>
<path class="st2" d="M253.4,205.1c-0.6,6.6-0.6,6.6-7.5,6.6c-6.6,0-6.6,0-6-6.6C244.4,206,248.9,206,253.4,205.1z"/>
<path class="st2" d="M225.6,185.2c1.3-1.7-0.8-5,1.4-5.4c3.8-0.7,7.9-0.7,11.7,0c2.1,0.4,0.1,3.7,1.3,5.4
	C235.2,185.2,230.4,185.2,225.6,185.2z"/>
<path class="st2" d="M253.2,185.3c0.6-2.1-2.3-5.8,3.1-5.8c10.1,0,10.1-0.2,10.4,5.8C262.2,185.3,257.7,185.3,253.2,185.3z"/>
<path class="st2" d="M199,185.3c0-1.9,0-3.8,0-5.7c2.7,0,5.4,0.3,7.9-0.1c5.1-0.9,6.2,1.5,5.4,5.8
	C207.9,185.3,203.4,185.3,199,185.3z"/>
<path class="st2" d="M199,195.6c0-1.5,0-3.1,0-4.6c3,0,6,0.2,8.9-0.1c4.4-0.4,5.7,1.2,4,5.2l0.1-0.1
	C207.7,195.8,203.3,195.7,199,195.6z"/>
<path class="st2" d="M240.4,195.3c-3.9,0.1-7.9,0.2-11.8,0.3c-1.7,0.1-2.6-0.3-2.6-2.3c-0.1-2.2,0.9-2.7,2.8-2.6
	c1.7,0.1,3.5,0.3,5.2,0C237.8,190.1,239.9,191.4,240.4,195.3C240.3,195.4,240.4,195.3,240.4,195.3z"/>
<path class="st2" d="M253.7,196c-1.7-4.2-0.1-5.7,4.2-5.2c1.2,0.2,2.6,0.2,3.8,0c4.1-0.7,5.8,0.8,4.9,5c0,0,0.1-0.1,0.1-0.1
	c-4.4,0.1-8.7,0.2-13.1,0.2C253.6,196,253.7,196,253.7,196z"/>
<path class="st2" d="M211.9,196.1c3.9-0.8,7.8-0.1,11.7-0.4c1.9-0.1,2.4,0.7,2.4,2.5c0,2-0.8,2.4-2.5,2.3c-2-0.1-4.1-0.3-6.1,0
	C213.5,201.2,212.1,199.5,211.9,196.1C212,196,211.9,196.1,211.9,196.1z"/>
<path class="st2" d="M253.6,196c0,3.7-1.6,5.3-5.4,4.5c-1.4-0.3-2.9-0.2-4.3,0c-4.3,0.4-5.4-1.3-3.5-5.1c0,0-0.1,0.1-0.1,0.1
	C244.7,195.6,249.2,195.8,253.6,196C253.7,196,253.6,196,253.6,196z"/>
<path class="st2" d="M212.2,185.1c4.5,0.5,9,0.4,13.5,0c0.8,2.7,0.4,4.2-2.9,3.9c-2-0.2-4.1-0.3-6.1,0
	C213.3,189.6,212.1,188.2,212.2,185.1z"/>
<path class="st2" d="M239.9,185.1c4.5,0.4,9,0.4,13.5,0c0.1,3.1-1.1,4.5-4.4,4c-2-0.3-4.1-0.2-6.1,0
	C239.5,189.4,239.1,187.8,239.9,185.1z"/>
<path class="st2" d="M266.7,205.3c-4.5,0.6-9,0.6-13.5,0c0-0.5-0.3-1.1,0-1.4c3.3-3.6,7.5-0.8,11.2-1.6
	C267,201.7,266.5,203.8,266.7,205.3z"/>
<path class="st2" d="M199,205.5c0-1.1,0-2.1,0-3.2c3.6,0,7.2,0.1,10.8-0.1c2.6-0.1,2.9,1.1,2.5,3.1C207.9,206,203.4,205.6,199,205.5
	z"/>
<path class="st2" d="M240,205.3c-4.6,0.7-9.2,0.3-13.8,0.2c0.1-1,0.2-2.1,0.3-3.1c3.3-0.1,6.7,0.1,10-0.2
	C239,201.9,239.8,203.1,240,205.3z"/>
<path class="st3" d="M226.5,202.3c-0.1,1-0.2,2.1-0.3,3.1c0,0-0.4,0.1-0.4,0.1s-0.2-0.4-0.2-0.4C225.9,204.3,225,202.9,226.5,202.3z
	"/>
<path class="st6" d="M172.2,6.9c4.5,0,8.9,0,13.4-0.1c0,4.5,0,8.9-0.1,13.4c0,0,0.1-0.1,0.1-0.1c-4.5,0-8.9,0-13.4,0.1
	C172.2,15.8,172.2,11.3,172.2,6.9L172.2,6.9z"/>
<path class="st2" d="M239.9,226.1c4.2-0.1,8.5-0.1,12.7-0.2c0.2,0.7,0.4,1.5,0.5,2.2c0.9,4.8-0.9,7-5.9,6.1c-0.9-0.2-1.9-0.2-2.8,0
	c-4,0.7-5.4-1-4.7-4.9C239.8,228.3,239.8,227.2,239.9,226.1z"/>
<path class="st2" d="M212.2,226.2c4.1,0,8.3-0.1,12.4-0.1c0.5,0.1,0.9,0.1,1.4,0.2c-0.1,8-0.1,8-8.1,8c-1.7,0-3.4-0.1-5.1-0.2
	c-0.1-1.1-0.3-2.1-0.4-3.2C212.4,229.3,212.3,227.7,212.2,226.2z"/>
<path class="st3" d="M226,226.2c-0.5-0.1-0.9-0.1-1.4-0.2c3.4-2.7,12.5-2.6,15.3,0.1C235.3,226.2,230.6,226.2,226,226.2z"/>
<path class="st3" d="M199,226.3c0-0.7,0-1.3,0-2c3.6,0,7.1-0.1,10.7,0c1.2,0,3.1-0.5,2.5,2C207.9,226.2,203.5,226.3,199,226.3z"/>
<path class="st3" d="M253.3,226.2c0-0.4-0.1-1.2,0-1.3c4.4-1.2,8.8-1,13.1,0c0.2,0,0.1,0.8,0.2,1.3
	C262.2,226.2,257.7,226.2,253.3,226.2z"/>
<path class="st3" d="M212.5,230.9c0.1,1.1,0.3,2.1,0.4,3.2C211.8,233.1,212.2,232,212.5,230.9z"/>
<path class="st3" d="M253.1,228.2c-0.2-0.7-0.4-1.5-0.5-2.2c0.2,0.1,0.5,0.1,0.7,0.2C253.2,226.9,253.2,227.5,253.1,228.2z"/>
<path class="st2" d="M199,215.7c0-0.8,0.1-1.5,0.1-2.3c4.1,0,9.2-1.5,12.1,0.4c5.1,3.5,9.6,1.7,14.2,0.7c5.4-1.2,10.3-2,15.6,0.7
	c3.3,1.7,8.6,1.9,10.9,0.2c4.2-3.1,8.2-1.1,12.2-1.9c1.9-0.4,2.6,0.6,2.5,2.3c-2.7,0-5.4,0.2-8.1-0.1c-3.8-0.4-6.5,0.1-5.6,5
	c0.5,2.8-1.8,2.8-3.4,2.3c-3.3-0.9-9.2,2.7-9.6-1.9c-0.5-5.9-3.1-5.6-7-5.4c-1.4,0.1-2.9,0.2-4.3,0c-2.4-0.3-3.2,0.7-2.8,2.9
	c0.7,4-1.2,5-4.7,4.5c-1.2-0.2-2.6-0.2-3.8,0c-3.7,0.6-5.8-0.5-5-4.7c0.5-2.5-0.9-2.8-3-2.7C206,215.8,202.5,215.7,199,215.7z"/>
<path class="st3" d="M145.1,20.3c-4.3-0.3-9.9,2-12.5-1.1c-2.2-2.7-1.1-8.1-1.4-12.3c4.5,0,9-0.1,13.6-0.1c0.3,0.1,0.5,0.1,0.8,0.1
	c0,0,0,0,0,0c0,4.2-0.1,8.4-0.1,12.5C145.3,19.7,145.2,20,145.1,20.3z"/>
<path class="st7" d="M145.5,6.9c-0.3,0-0.5,0-0.8-0.1c0.1-0.5,0.3-1,0.4-1.5C145.3,5.8,145.4,6.4,145.5,6.9z"/>
<path class="st3" d="M172.3,6.9c0,4.5,0,8.9-0.1,13.4c0,0,0.1-0.1,0.1-0.1c-4.5,0-8.9,0-13.4,0l0.1,0.1c0-4.5,0-8.9,0-13.4
	c0,0-0.1,0.1-0.1,0.1C163.3,6.9,167.8,6.9,172.3,6.9z"/>
<path class="st6" d="M158.9,6.9c0,4.5,0,8.9,0,13.4c-4.5,0-8.9,0-13.4-0.1c0,0,0,0,0,0c0-0.3,0-0.5-0.1-0.8c0-4.2,0.1-8.4,0.1-12.5
	C150,6.9,154.4,6.9,158.9,6.9z"/>
<path class="st2" d="M195,75.4c-17.4,0.6-34.3,3.4-50.3,10.7c-5.4,2.5-10.3,5.5-14.4,9.9c-2.2,2.4-3.8,5-4.8,8.1c-0.9,2.9-0.5,4,3,4
	c21.6-0.2,43.2-0.1,64.8-0.1c1.7,0,3.4-0.5,5.9,0.8c-10.1,0.1-19.4,0.8-28.7,2c-12.3,1.7-24.4,3.9-35.6,9.5
	c-4.7,2.4-9.9,5.1-9.9,11.1c0,6,5.1,8.8,9.8,11.2c12.2,6.2,25.5,8.4,38.8,10c5.2,0.6,10.4,0.8,15.7,1.2c-0.1,0.5-0.1,0.9-0.2,1.4
	c-0.5,0-1,0-1.4,0c-0.4-0.6-0.9-0.6-1.4,0c-4.7,0.1-9.3,0.1-14,0.2c0,0,0.1-0.3,0.1-0.3c-0.4-0.4-0.9-0.4-1.3,0c0,0,0.1,0.3,0.1,0.3
	c-8.5-0.5-17.1-0.5-25.6,0c0,0,0.1-0.3,0.1-0.3c-0.4-0.4-0.9-0.4-1.3,0c0,0,0.1,0.3,0.1,0.3c-7.2-0.1-14.4-0.2-21.7-0.3
	c-0.5-0.5-0.9-0.5-1.4,0c-0.9,0.1-1.9,0.2-2.8,0.2l-0.4-0.2l-0.3,0.3c0,0,0.2-0.2,0.2-0.2c0-2.7,0-5.4-0.1-8.1
	c-0.3-7.1,0.8-14.2-0.6-21.2c0-0.6,0.1-1.1,0.1-1.7c0.5-0.3,0.5-0.8,0.2-1.2c0.4-6.7,0.6-13.3-0.7-19.9c1.3-0.6,1-1.9,1-2.9
	c0-8.5-0.1-17.1-0.1-25.6c1.4-0.1,2.8-0.2,4.2-0.4c0,0,0.2,0,0.2,0c2.8,0,5.5,0,8.3,0c0,0,0.4,0,0.4,0c0.3,0,0.6,0,1,0
	c4.5,0,9.1,0.1,13.6,0.1c4.4,0,8.8,0,13.2-0.1c4.5,2.3,9,0.7,13.5,0c4.4,0,8.8,0,13.2,0C188.6,75.1,192,73.4,195,75.4z"/>
<path class="st3" d="M77.6,128.1c-7.5-0.1-13.2-5.7-13.2-13.3c0-7.6,6-13.6,13.5-13.5c7.3,0.1,13.3,6.1,13.3,13.4
	C91.2,122.3,85.3,128.2,77.6,128.1z"/>
<path class="st3" d="M117.4,126.1c1.4,7,0.3,14.1,0.6,21.2c0.1,2.7,0.1,5.4,0.1,8.1c-12.3-0.1-24.6-0.2-36.9-0.3
	c17.1-2.1,28.7-11.1,34.8-27.2C116.3,127.1,116.6,126.4,117.4,126.1z"/>
<path class="st3" d="M117.9,74.7c0,8.5,0.1,17.1,0.1,25.6c0,1,0.3,2.3-1,2.9c-2.6-5.2-4.8-10.5-8.7-15c-6.4-7.3-14.6-11.3-23.8-13.6
	C95.6,74.6,106.8,74.6,117.9,74.7z"/>
<path class="st3" d="M74.5,155c-0.6,0.4-1.2,0.4-1.8-0.1C73.3,155,73.9,155,74.5,155z"/>
<path class="st3" d="M117.8,123.1c0.3,0.5,0.3,0.9-0.2,1.2C117.2,123.9,117.3,123.5,117.8,123.1z"/>
<path class="st2" d="M80.8,179.5c3.5-5.9,7-11.8,10.5-17.8c0.3,0.1,0.6,0.2,0.9,0.3c-1.9,6.4-3.8,12.9-5.7,19.3
	c-0.1,0.6-0.1,1.3-0.3,1.9c-1.2,5.3-1.2,5.3,4,3.8c0.4-0.1,0.8-0.4,1.2-0.6c6.6-1.7,13.1-3.4,19.7-5.1c0.1,0.2,0.2,0.4,0.3,0.6
	c-5.9,3.5-11.9,7-17.8,10.5c-1.7,0.9-3.5,1.8-5.4,2.8c1.8,1.9,3.6,2.8,5.6,3.4c5.3,3.2,10.7,6.4,17.2,10.3c-7.5,0-12.9-3.9-19.1-3.6
	c-1.8-1.3-4.2-3-6-1.7c-1.8,1.3,0.7,3.7,0.5,5.7c0,0.2,0.3,0.5,0.5,0.8c1.7,6.7,3.5,13.4,5.2,20.1c-0.2,0.1-0.3,0.1-0.5,0.2
	c-3.7-6.2-7.3-12.4-11-18.6c-0.7-2-1.4-4-3.6-5.4c-0.9,1.9-1.8,3.6-2.6,5.3c-3.7,6.1-7.3,12.3-11,18.4c-0.2-0.1-0.3-0.2-0.5-0.3
	c1.8-6.8,3.6-13.6,5.4-20.4c0.6-1.8,2.4-4.1,1.1-5.5c-1.4-1.5-3.7,0.6-5.6,0.8c-0.2,0-0.4,0.4-0.6,0.6c-6.9,0.8-13.2,3.7-21.3,5.1
	c7.3-4.3,13.4-7.9,19.6-11.5c2-0.8,4.1-1.4,5.4-3.6c-1.9-1-3.6-1.8-5.3-2.6c-6-3.5-11.9-7-17.9-10.6c0.1-0.2,0.1-0.4,0.2-0.6
	c6.6,1.7,13.2,3.3,19.8,5c2,0.7,4.4,2.6,5.9,1.1c1.1-1.1-0.5-3.7-1.3-5.6c-1.7-6.7-3.4-13.3-5.1-20c0.2-0.1,0.4-0.2,0.6-0.2
	c3.6,6,7.1,12,10.7,18c0.9,1.7,1.7,3.5,3,6.1C79.1,183.1,80,181.3,80.8,179.5z"/>
<path class="st4" d="M118.6,155.4c0.9-0.1,1.9-0.2,2.8-0.2c0.5,0,0.9,0,1.4,0c7.2,0.1,14.4,0.2,21.7,0.3c0,5.4,0.2,10.7-0.2,16.1
	c-0.8,10.3-6.5,17.9-12.9,25.3c-6.6,7.6-11.4,15.9-11.7,26.3c-0.1,2.3-1,0.5-1.6,0.2c0-22.2,0-44.5,0-66.7
	C118.3,156.2,118.5,155.8,118.6,155.4z"/>
<path class="st3" d="M61.7,192.5c1.7,0.8,3.4,1.7,5.3,2.6c-1.4,2.2-3.5,2.8-5.4,3.6c-7.2-0.9-14.4-1.9-21.6-2.8c0-0.2,0-0.5,0-0.7
	C47.3,194.3,54.5,193.4,61.7,192.5z"/>
<path class="st3" d="M80.8,179.5c-0.9,1.8-1.8,3.6-3.1,6.2c-1.3-2.6-2.2-4.4-3-6.1c0.9-7.2,1.7-14.5,2.6-21.7c0.2,0,0.5-0.1,0.7-0.1
	C78.9,165.1,79.9,172.3,80.8,179.5z"/>
<path class="st3" d="M74.7,211.5c0.8-1.7,1.6-3.4,2.6-5.3c2.2,1.4,2.8,3.5,3.6,5.4c-0.9,7.1-1.8,14.1-2.7,21.2c-0.3,0-0.6,0-0.8-0.1
	C76.4,225.7,75.6,218.6,74.7,211.5z"/>
<path class="st3" d="M93.9,198.7c-1.9-0.6-3.7-1.5-5.6-3.4c1.9-1,3.7-1.9,5.4-2.8c7.3,0.9,14.6,1.8,21.8,2.7c0,0.2,0.1,0.4,0.1,0.6
	C108.4,196.8,101.1,197.7,93.9,198.7z"/>
<path class="st3" d="M87.1,210.1c-0.2-0.3-0.5-0.5-0.5-0.8c0.2-2-2.3-4.4-0.5-5.7c1.7-1.2,4.1,0.4,6,1.7c3.7,5,7.5,10,11.2,15
	C97,218,93.1,212.4,87.1,210.1z"/>
<path class="st3" d="M68.5,181.8c0.8,1.8,2.4,4.5,1.3,5.6c-1.5,1.5-3.9-0.4-5.9-1.1c-3.8-5.1-7.6-10.1-11.3-15.2
	c0.2-0.2,0.5-0.5,0.7-0.7C58.4,174.2,63.5,178,68.5,181.8z"/>
<path class="st3" d="M63.4,205.1c0.2-0.2,0.4-0.6,0.6-0.6c2-0.2,4.2-2.3,5.6-0.8c1.3,1.4-0.4,3.7-1.1,5.5
	c-5.1,3.8-10.3,7.6-15.4,11.5c-0.2-0.2-0.4-0.4-0.7-0.6C55.7,214.8,60.5,210.7,63.4,205.1z"/>
<path class="st3" d="M91.5,186.4c-0.4,0.2-0.8,0.5-1.2,0.6c-5.2,1.5-5.2,1.5-4-3.8c0.1-0.6,0.2-1.2,0.3-1.9
	c6.1-2.3,10.1-7.8,15.7-10.9c0.2,0.2,0.4,0.4,0.6,0.7C99,176.2,95.3,181.3,91.5,186.4z"/>
<path class="st3" d="M52.1,221.5c-0.2,0.2-0.3,0.4-0.5,0.6c-0.5-0.6-0.1-0.7,0.3-0.8C51.9,221.3,52.1,221.5,52.1,221.5z"/>
<path class="st3" d="M51.9,221.3c0.2-0.4,0.4-0.8,0.6-1.3c0.2,0.2,0.4,0.4,0.6,0.6c-0.4,0.3-0.7,0.5-1.1,0.8
	C52.1,221.5,51.9,221.3,51.9,221.3z"/>
<path class="st3" d="M102.2,170.5c0.3-0.1,0.7-0.2,1-0.3c-0.1,0.3-0.3,0.6-0.4,1C102.6,170.9,102.4,170.7,102.2,170.5z"/>
<path class="st6" d="M118.6,155.4c-0.2,0.4-0.3,0.8-0.5,1.2c-0.1-0.4-0.2-0.7-0.2-1.1c0,0,0.3-0.3,0.3-0.3S118.6,155.4,118.6,155.4z
	"/>
<path class="st3" d="M17.9,256.1c-0.3,0.2-0.7,0.5-1,0.7c-0.1-0.2-0.2-0.4-0.3-0.6c0-0.1,0.1-0.2,0.2-0.4
	C17.2,255.9,17.5,256,17.9,256.1z"/>
<path class="st3" d="M145.4,61.3c0-4.5,0.1-9,0.1-13.4c0,0-0.1,0.1-0.1,0.1c4.4-0.9,9,0.5,13.4-1c0,4.8,0,9.6-0.1,14.4l0.1-0.1
	C154.4,61.2,149.9,61.3,145.4,61.3L145.4,61.3z"/>
<path class="st3" d="M145.5,47.9c-3.4-1.4-6.9-0.6-10.3-0.7c-2.5-0.1-3.2-1-3.4-3.4c-0.6-10.1-0.7-10.1,9.4-10.1
	c1.4,0,2.8-0.1,4.3-0.1c0,0-0.1-0.1-0.1-0.1C145.5,38.3,145.5,43.1,145.5,47.9L145.5,47.9z"/>
<path class="st3" d="M117.9,47.9c1.4-0.1,2.8-0.3,4.2-0.3c10.2-0.1,10.5,0.2,9.3,10.6c-0.2,2-0.9,2.8-2.9,2.8
	c-3.5-0.1-7-0.1-10.4-0.1c0,0-0.2-0.2-0.2-0.2l-0.3,0.2C117.7,56.6,117.8,52.3,117.9,47.9C117.9,47.9,117.9,47.9,117.9,47.9z"/>
<path class="st3" d="M145.5,20.2c4.5,0,8.9,0,13.4,0.1c0,0-0.1-0.1-0.1-0.1c0,4.5,0,8.9,0.1,13.4c-4.5,0-8.9,0-13.4-0.1
	c0,0,0.1,0.1,0.1,0.1C145.5,29.2,145.5,24.7,145.5,20.2z"/>
<path class="st3" d="M117.8,28.6c0-0.6,0-1.3,0-1.9c0-1.5,0-3.1,0-4.6c0.1-0.6,0.2-1.1,0.3-1.7c2.2,0,4.4-0.1,6.7-0.1
	c6.7,0,6.7,0,6.7,6.6c0,7.7,0.7,6.8-6.9,6.8c-2.2,0-4.4-0.1-6.6-0.2C117.9,31.9,117.9,30.3,117.8,28.6z"/>
<path class="st3" d="M145.5,74.4c-4.5,0-9.1-0.1-13.6-0.1c0-3.3,0.1-6.6-0.1-9.9c-0.1-2.4,0.9-3.4,3.4-3.3c3.3,0.1,6.6,0.1,9.9,0.2
	c0.1,0.3,0.2,0.6,0.2,0.9c0,3.5,0,7.1,0,10.6l-0.2,0.4l0.3,0.3C145.5,73.7,145.5,74,145.5,74.4z"/>
<path class="st5" d="M67.1,26.7c2.8-1.4,5.6-2.7,8.3-4.2c2.9-1.6,5.1,0.4,7.4,1.4c1.7,0.7,3.4,1.7,5,2.5c-0.2,0.3-0.5,0.5-0.7,0.8
	c-6.5-4.2-12.9-3.8-19.3,0.3C67.6,27.2,67.3,26.9,67.1,26.7z"/>
<path class="st5" d="M100.2,32.1c5.9,2.6,11.8,5.2,17.7,7.8c-0.2,0.5-0.4,1-0.6,1.4c-5.9-2.8-11.8-5.6-17.6-8.5
	C99.7,32.6,99.9,32.4,100.2,32.1z"/>
<path class="st5" d="M63.3,33.4c2.9-2.1,6-3.7,9.4-4.9c0.2,0.2,0.4,0.4,0.5,0.6c-2.9,2.1-6,3.7-9.4,4.9
	C63.7,33.8,63.5,33.6,63.3,33.4z"/>
<path class="st5" d="M47.1,41.9c2.9-2.2,6.1-3.7,9.4-4.9c0.2,0.2,0.4,0.4,0.5,0.6c-2.9,2.2-6,3.7-9.4,4.9
	C47.4,42.3,47.3,42.1,47.1,41.9z"/>
<path class="st5" d="M99.5,32.9c-3.5-1-6.7-2.7-9.8-4.5c0.2-0.3,0.5-0.5,0.7-0.8c3.5,1,6.7,2.6,9.8,4.5
	C99.9,32.4,99.7,32.6,99.5,32.9z"/>
<path class="st5" d="M91.7,34c-2.5-0.9-4.9-1.9-7.7-4.5c3.7,0.7,6,2.3,8.3,3.9C92.1,33.6,91.9,33.8,91.7,34z"/>
<path class="st5" d="M97.2,36.1c1.3,0.6,2.7,1.2,4,1.9c-2,0.8-3.4-0.1-4.6-1.3C96.9,36.5,97.1,36.3,97.2,36.1z"/>
<path class="st5" d="M79.1,26.5c1.4,0.5,3,0.8,4.2,2.6c-2.1,0-3.4-0.9-4.7-2C78.8,26.9,78.9,26.7,79.1,26.5z"/>
<path class="st5" d="M79.7,35.5c-0.9-0.1-1.8-0.1-2.3-1c0-0.1,0.3-0.6,0.4-0.5C78.8,34,79.5,34.5,79.7,35.5
	C79.7,35.5,79.7,35.5,79.7,35.5z"/>
<path class="st5" d="M78.6,27.1c-1.2,0.3-2.3,0.6-3.5,1c-0.2-0.2-0.4-0.4-0.6-0.7c1.4-0.9,2.7-2.3,4.5-0.9
	C78.9,26.7,78.8,26.9,78.6,27.1z"/>
<path class="st5" d="M115.3,45.6c1.2,0.4,2.7,0.5,2.6,2.3c0,0,0,0,0,0c-1.2-0.2-2.3-0.8-3.1-1.7C115,46,115.2,45.8,115.3,45.6z"/>
<path class="st5" d="M106.6,41c1.4,0.3,2.7,0.9,3.8,2c-0.2,0.2-0.4,0.4-0.6,0.6c-1.3-0.6-2.5-1.2-3.8-1.9
	C106.2,41.5,106.4,41.2,106.6,41z"/>
<path class="st5" d="M81.6,36.4c1.3,0.2,2.2,0.8,2.9,1.9c0,0,0,0,0,0C83,38.5,82,37.9,81.6,36.4L81.6,36.4z"/>
<path class="st5" d="M91.2,43.1c-1.3-0.2-2.2-0.8-2.9-1.9c0,0,0.1-0.1,0.1-0.1C89.7,41.2,90.8,41.6,91.2,43.1L91.2,43.1z"/>
<path class="st5" d="M85.4,39.3c1.4-0.1,2.4,0.5,2.9,1.9c0,0-0.1,0.1-0.1,0.1C87,41.1,86,40.5,85.4,39.3L85.4,39.3z"/>
<path class="st5" d="M87.8,26.4c0.9,0.4,1.7,0.9,2.6,1.3c-0.2,0.3-0.4,0.5-0.7,0.8c-0.9-0.4-1.7-0.8-2.6-1.3
	C87.4,26.9,87.6,26.6,87.8,26.4z"/>
<path class="st5" d="M49.2,52.7c0.4-0.3,0.8-0.7,1.3-1c0.1,0.2,0.2,0.4,0.3,0.6C50.2,52.4,49.7,52.5,49.2,52.7L49.2,52.7z"/>
<path class="st5" d="M72.7,28.5c0.6-0.4,1.2-0.7,1.8-1.1c0.2,0.2,0.4,0.4,0.6,0.7c-0.6,0.3-1.2,0.7-1.9,1
	C73.1,28.9,72.9,28.7,72.7,28.5z"/>
<path class="st5" d="M63.9,34c-0.6,0.3-1.2,0.7-1.8,1c-0.2-0.2-0.4-0.4-0.6-0.6c0.6-0.3,1.3-0.7,1.9-1C63.5,33.6,63.7,33.8,63.9,34z
	"/>
<path class="st5" d="M94.8,35.7c-0.6-0.3-1.3-0.7-1.9-1c0.2-0.2,0.4-0.3,0.5-0.5c0.6,0.3,1.3,0.6,1.9,0.9
	C95.2,35.3,95,35.5,94.8,35.7z"/>
<path class="st5" d="M60.8,35.6c-0.6,0.3-1.3,0.7-1.9,1c-0.2-0.2-0.4-0.4-0.6-0.7c0.6-0.3,1.3-0.6,1.9-0.9
	C60.4,35.3,60.6,35.4,60.8,35.6z"/>
<path class="st5" d="M81.6,36.5c-0.9,0.1-1.6,0-1.9-0.9c0,0,0,0,0,0C80.6,35.4,81.3,35.6,81.6,36.5C81.6,36.4,81.6,36.5,81.6,36.5z"
	/>
<path class="st5" d="M96.7,36.7c-0.6-0.3-1.3-0.6-1.9-1c0.2-0.2,0.4-0.4,0.6-0.7c0.6,0.3,1.2,0.7,1.9,1
	C97.1,36.3,96.9,36.5,96.7,36.7z"/>
<path class="st5" d="M56.5,37c0.6-0.4,1.2-0.7,1.8-1.1c0.2,0.2,0.4,0.4,0.5,0.7c-0.6,0.3-1.2,0.7-1.9,1C56.8,37.4,56.6,37.2,56.5,37
	z"/>
<path class="st5" d="M104.2,40.6c-0.4-0.3-0.9-0.6-1.3-1c0.8-0.7,1.3-0.2,1.8,0.4C104.5,40.2,104.4,40.4,104.2,40.6z"/>
<path class="st5" d="M106,41.7c-0.6-0.4-1.2-0.7-1.9-1.1c0.2-0.2,0.4-0.4,0.5-0.6c0.6,0.3,1.2,0.7,1.9,1
	C106.4,41.2,106.2,41.5,106,41.7z"/>
<path class="st7" d="M117.6,60.9l0.3-0.2c0,0,0.2,0.2,0.2,0.2c0,0-0.3,0.1-0.3,0.1L117.6,60.9z"/>
<path class="st5" d="M45.2,43c0.6-0.3,1.2-0.7,1.9-1c0.2,0.2,0.3,0.4,0.5,0.6c-0.6,0.3-1.2,0.7-1.9,1C45.6,43.3,45.4,43.1,45.2,43z"
	/>
<path class="st5" d="M40.6,58.4c0.4-0.9,1-1.1,1.9-1c0,0,0,0,0,0C42.2,58.4,41.5,58.5,40.6,58.4L40.6,58.4z"/>
<path class="st5" d="M45.8,43.5c-0.6,0.3-1.3,0.7-1.9,1c-0.2-0.2-0.4-0.4-0.5-0.6c0.6-0.3,1.3-0.6,1.9-1
	C45.4,43.1,45.6,43.3,45.8,43.5z"/>
<path class="st5" d="M91.1,43.2c0.4,0.1,0.9,0.1,1.3,0.2c-0.1,0.2-0.2,0.4-0.3,0.6C91.8,43.6,91.5,43.4,91.1,43.2
	C91.2,43.1,91.1,43.2,91.1,43.2z"/>
<path class="st5" d="M43.9,44.5c-0.6,0.3-1.2,0.6-1.9,1c-0.2-0.2-0.4-0.4-0.5-0.5c0.6-0.3,1.3-0.7,1.9-1
	C43.5,44.1,43.7,44.3,43.9,44.5z"/>
<path class="st5" d="M112.9,45.2c-0.6-0.3-1.3-0.7-1.9-1c0.2-0.2,0.4-0.4,0.6-0.6c0.6,0.3,1.2,0.6,1.8,1
	C113.3,44.8,113.1,45,112.9,45.2z"/>
<path class="st5" d="M45.4,55.5c-0.3,0.9-1.1,1.1-1.9,0.9l0,0C43.8,55.6,44.5,55.4,45.4,55.5C45.4,55.5,45.4,55.5,45.4,55.5z"/>
<path class="st5" d="M114.8,46.2c-0.6-0.3-1.2-0.7-1.9-1c0.2-0.2,0.3-0.4,0.5-0.6c0.6,0.3,1.3,0.7,1.9,1
	C115.2,45.8,115,46,114.8,46.2z"/>
<path class="st5" d="M48.3,53.6c-0.3,0.9-1.1,1.1-1.9,0.9l0,0C46.7,53.7,47.4,53.5,48.3,53.6C48.2,53.6,48.3,53.6,48.3,53.6z"/>
<path class="st5" d="M44.3,49.7c0.4-0.6,1.1-1.1,1.4-0.5c0.5,0.8-0.6,0.7-1,1C44.6,49.9,44.4,49.8,44.3,49.7z"/>
<path class="st5" d="M41.3,51.4c0.3-0.1,0.7-0.2,1-0.4c-0.2,0.3-0.4,0.5-0.6,0.8C41.6,51.7,41.4,51.6,41.3,51.4z"/>
<path class="st5" d="M44.7,50.1c-0.3,0.1-0.7,0.2-1,0.4c0.2-0.3,0.4-0.5,0.6-0.8C44.4,49.8,44.6,49.9,44.7,50.1z"/>
<path class="st5" d="M49.2,52.7c0.1,0.7-0.3,0.9-0.9,1c0,0,0,0,0,0C48.2,52.9,48.6,52.7,49.2,52.7C49.2,52.7,49.2,52.7,49.2,52.7z"
	/>
<path class="st5" d="M46.3,54.6c0.1,0.7-0.3,0.9-1,1c0,0,0,0,0,0C45.4,54.8,45.7,54.6,46.3,54.6C46.3,54.6,46.3,54.6,46.3,54.6z"/>
<path class="st5" d="M42,45.5c-0.4,0.2-0.8,0.5-1.2,0.7c-0.2-0.2-0.4-0.4-0.6-0.6c0.4-0.2,0.8-0.5,1.2-0.7
	C41.6,45.1,41.8,45.3,42,45.5z"/>
<path class="st5" d="M43.5,56.5c0.1,0.7-0.4,0.9-0.9,1c0,0,0,0,0,0C42.5,56.7,42.9,56.5,43.5,56.5C43.5,56.5,43.5,56.5,43.5,56.5z"
	/>
<path class="st5" d="M111,44.2c-0.4-0.2-0.8-0.5-1.2-0.7c0.2-0.2,0.4-0.4,0.6-0.6c0.4,0.2,0.8,0.4,1.2,0.7
	C111.4,43.9,111.2,44.1,111,44.2z"/>
<path class="st5" d="M40.6,58.4c0,0.7-0.3,0.9-1,1c0,0,0,0,0,0C39.6,58.7,40,58.4,40.6,58.4C40.6,58.4,40.6,58.4,40.6,58.4z"/>
<path class="st7" d="M145.4,62.1c-0.1-0.3-0.2-0.6-0.2-0.9c0,0,0.3,0.1,0.3,0.1c0,0,0,0,0,0C145.5,61.6,145.4,61.9,145.4,62.1z"/>
<path class="st5" d="M85.4,39.3c-0.6,0-1-0.3-0.9-1c0,0,0,0,0,0C85.1,38.4,85.5,38.6,85.4,39.3C85.4,39.3,85.4,39.3,85.4,39.3z"/>
<polygon class="st7" points="122.3,74.3 122,74.3 122.2,74.1 "/>
<polygon class="st7" points="131,74.3 130.6,74.3 130.8,74.1 "/>
<path class="st5" d="M62,35c-0.4,0.2-0.8,0.4-1.2,0.7c-0.2-0.2-0.4-0.4-0.6-0.5c0.4-0.2,0.8-0.5,1.2-0.7C61.6,34.6,61.8,34.8,62,35z
	"/>
<path class="st5" d="M92.3,33.4c0.4,0.2,0.8,0.5,1.2,0.7c-0.2,0.2-0.4,0.4-0.5,0.5c-0.4-0.2-0.8-0.4-1.3-0.6
	C91.9,33.8,92.1,33.6,92.3,33.4z"/>
<path class="st7" d="M145.3,19.4c0.1,0.3,0.1,0.5,0.1,0.8c0,0-0.4,0.1-0.4,0.1C145.2,20,145.3,19.7,145.3,19.4z"/>
<path class="st3" d="M-3.2,69.7c-10.5,0-21-0.1-31.4,0.1c-3.1,0-4.1-0.8-4.1-4c0.1-21.1,0.2-42.2,0-63.4c0-3.5,1.2-4.1,4.4-4.1
	c20.8,0.1,41.6,0.1,62.4,0c3.2,0,4.4,0.7,4.3,4.2c-0.2,21-0.2,41.9,0,62.9c0,3.7-1.2,4.5-4.7,4.4C17.4,69.5,7.1,69.7-3.2,69.7z
	 M-35.7,33.6c0,9.7,0.1,19.4-0.1,29c-0.1,3,0.7,4.1,4,4.1c19.1-0.1,38.1-0.1,57.2,0c3,0,4.2-0.7,4.1-4c-0.2-19.2-0.1-38.4,0-57.6
	c0-3.1-0.9-4-4-4c-19.1,0.1-38.1,0.2-57.2,0c-3.6,0-4.1,1.3-4.1,4.4C-35.6,14.9-35.8,24.3-35.7,33.6z"/>
<path class="st6" d="M185.5,47c1.3,0,2.5,0.1,3.8,0.1c10.6,0.1,10.9,0.4,9.7,11.2c-0.2,2.1-1.1,2.7-3,2.7c-3.5,0-7,0.1-10.5,0.1
	c0,0,0.1,0.1,0.1,0.1c0-4.6,0-9.2,0-13.8L185.5,47L185.5,47z"/>
<path class="st6" d="M185.5,33.6c0,4.5,0,9-0.1,13.5c0,0,0,0,0,0c-0.3,0.1-0.5,0.2-0.7,0.4c-4.2,0.2-8.5,0.3-12.7,0.5c0,0,0,0,0,0
	s0.1-0.5,0.1-0.5c0-4.3,0.1-8.7,0.1-13c0.3,0,0.5-0.2,0.6-0.4C177.2,33.8,181.4,33.7,185.5,33.6L185.5,33.6z"/>
<path class="st6" d="M185.5,74.3c-4.4,0-8.8,0-13.2,0c0-4.4,0-8.7,0-13.1l-0.1,0.1c4.5,0,8.9,0,13.4,0c0,0-0.1-0.1-0.1-0.1
	C185.5,65.6,185.5,70,185.5,74.3z"/>
<path class="st6" d="M235.1,74.8c1.1,8.6,2.3,17.2,3.4,25.9c0.7,5-0.1,9.8-1.5,14.5c-0.5,1.6-1,3.3-3.8,5c7-13.3,2.1-25.6,0.8-37.9
	c-0.3-2.5-0.4-5-0.6-7.5C233.9,74.7,234.5,74.8,235.1,74.8z"/>
<path class="st6" d="M231.9,116.2c3.6-11.1-0.1-21.8-1.7-32.6c-0.5-3-0.7-5.9-0.7-8.9c0.7,0,1.4,0,2.1,0c-0.1,8.1,2.2,15.9,3.2,23.8
	c0.8,6.3,1.1,12.6-2.1,18.4C232.4,116.6,232.1,116.4,231.9,116.2z"/>
<path class="st5" d="M225.6,74.6c-0.5,7.1,2,14,2.1,21.1c-2.2-6.9-3.8-13.8-3.7-21.1C224.5,74.7,225.1,74.6,225.6,74.6z"/>
<path class="st6" d="M222.7,124.2c1-1.6,2-3.2,3.9-3.9c0,0.6,0,1.3,0,1.9l0,0C224.9,122.2,224.6,124.8,222.7,124.2z"/>
<path class="st6" d="M226.6,122.3c0.4,0.6,1.7-0.3,1.6,0.9c0,0.3-0.6,0.6-0.9,0.9C227.1,123.5,226.8,122.9,226.6,122.3
	C226.6,122.2,226.6,122.3,226.6,122.3z"/>
<path class="st6" d="M238,118.4c0.3,1,0.2,1.8-1,2C237,119.5,237.2,118.8,238,118.4z"/>
<path class="st6" d="M227.5,119.4c-0.4-1-0.2-1.7,1-2C228.7,118.4,228.4,119.1,227.5,119.4z"/>
<path class="st6" d="M239,116.5c0.2,0.9,0.3,1.8-1,2C238,117.6,238,116.8,239,116.5z"/>
<path class="st6" d="M232.6,116.8c-0.3,0.6-0.7,1.3-1,1.9c-0.2-0.2-0.4-0.4-0.6-0.6c0.3-0.6,0.6-1.3,0.9-1.9
	C232.1,116.4,232.4,116.6,232.6,116.8z"/>
<path class="st6" d="M231.6,118.7c-0.3,0.2-0.6,0.4-0.9,0.6c0.1-0.4,0.2-0.8,0.3-1.2C231.2,118.3,231.4,118.5,231.6,118.7z"/>
<path class="st6" d="M226.6,120.4c0-0.7,0.1-1.2,1-1C227.5,120,227.3,120.4,226.6,120.4z"/>
<path class="st6" d="M229.9,120.4c0.1,0.1,0.2,0.2,0.2,0.3c0,0.1-0.2,0.2-0.3,0.3c-0.1-0.1-0.2-0.2-0.2-0.3
	C229.6,120.6,229.8,120.5,229.9,120.4z"/>
<path class="st6" d="M240.7,121.9c-0.2,0.2-0.5,0.8-1,1c-0.6,0.2-0.6-0.4-0.5-0.8c0.2-0.5,0.5-1.1,0.9-1.4
	C240.5,120.6,240.9,121,240.7,121.9z"/>
<path class="st3" d="M185.6,33.6c-4.2,0.1-8.4,0.2-12.7,0.3c-0.2-0.1-0.5-0.3-0.7-0.4l0.1,0.1c0-4.5,0-9,0-13.4c0,0-0.1,0.1-0.1,0.1
	c4.5,0,8.9,0,13.4-0.1C185.6,24.7,185.6,29.1,185.6,33.6z"/>
<path class="st3" d="M189.1,155.2c0.1-0.5,0.1-0.9,0.2-1.4c3.2,0.7,6.5,0.2,9.5,1.7c-0.3,0.1-0.5,0.1-0.8,0.2
	C195.1,155.6,192.1,155.4,189.1,155.2z"/>
<path class="st4" d="M145.6,155.5c8.5-0.5,17.1-0.5,25.6,0c-0.1,6.2,0.3,12.4-0.3,18.5c-0.9,8.4-5.7,15-11.1,21.2
	c-8.4,9.6-14.4,20.1-14.2,33.4C145.6,204.2,145.6,179.8,145.6,155.5z"/>
<path class="st3" d="M171.1,155.2c0.4-0.4,0.9-0.4,1.3,0C172,155.2,171.5,155.2,171.1,155.2z"/>
<path class="st3" d="M144.4,155.2c0.4-0.4,0.9-0.5,1.3,0C145.3,155.2,144.8,155.2,144.4,155.2z"/>
<path class="st3" d="M186.3,155.2c0.5-0.5,0.9-0.6,1.4,0C187.2,155.2,186.8,155.2,186.3,155.2z"/>
<path class="st5" d="M223.5,116.3c2.8-8.5,0.6-16.8-1.1-25.2c-0.5-2.4-1-4.9-0.7-7.4c1.7,11,8,21.5,2.4,33.1
	C223.9,116.7,223.7,116.5,223.5,116.3z"/>
<path class="st5" d="M216.6,149.4c-1.6-3.7-4.1-7-3.1-11.5c1.3,3.6,2.6,7.3,3.9,10.9C217.1,148.9,216.8,149.2,216.6,149.4z"/>
<path class="st5" d="M214.4,116c0-3.9,0-6.4,0-8.9C216.5,109.6,215.8,112.2,214.4,116z"/>
<path class="st5" d="M204,146.8c-2-3-3.1-5.1-3.2-8.7C202.4,141.1,203.9,143,204,146.8z"/>
<path class="st5" d="M200.8,129.9c0,2.3,0,4.6,0,6.8C199.6,134.4,198.4,132.1,200.8,129.9L200.8,129.9z"/>
<path class="st5" d="M220.5,116.1c0.5-1.7-0.1-3.7,1.9-5.2c0.4,2.3-0.3,4.1-1.4,5.7C220.8,116.5,220.6,116.3,220.5,116.1z"/>
<path class="st5" d="M210.8,127.5c-0.9,1.6-0.9,3.8-3.1,5.8c0.2-3,1-4.8,2.5-6.4C210.4,127.1,210.6,127.3,210.8,127.5z"/>
<path class="st5" d="M216.8,117.2c0.3-1.4-0.1-3,1.5-4.3c0.7,2-0.1,3.3-1.3,4.6C217.1,117.5,216.8,117.2,216.8,117.2z"/>
<path class="st5" d="M200.9,129.9c-0.5-1.9,0.6-2.7,2.3-3.2C202.4,127.8,201.6,128.8,200.9,129.9
	C200.8,129.9,200.9,129.9,200.9,129.9z"/>
<path class="st5" d="M204.6,121.3c-0.7,0.7,0.5,2.2-1,2.5c-0.3,0.1-1-0.5-1-0.7C202.6,121.8,203.7,121.6,204.6,121.3
	C204.7,121.4,204.6,121.3,204.6,121.3z"/>
<path class="st5" d="M220.3,117.9c-0.1,0.8-0.3,1.7-0.4,2.5c0,0,0,0,0,0c-2.3-0.9-1.4-1.9-0.2-3
	C219.9,117.5,220.1,117.7,220.3,117.9z"/>
<path class="st5" d="M215.7,126.6c-0.5,0.7-0.7,2.3-1.5,1.7c-1.3-0.9,0.1-1.7,0.8-2.3C215.2,126.2,215.5,126.3,215.7,126.6z"/>
<path class="st5" d="M205.6,98.4c-0.9-0.7-1-1.7-0.3-2.7C205.4,96.6,205.5,97.5,205.6,98.4C205.6,98.4,205.6,98.4,205.6,98.4z"/>
<path class="st5" d="M216.3,118.7c-0.3,1.2-0.9,2.2-2.1,2.6c0,0,0,0,0,0c-0.1-1.5,0.9-2.2,1.8-2.9
	C216.1,118.5,216.2,118.6,216.3,118.7z"/>
<path class="st5" d="M205.6,98.4c0.8,0.6,1.3,1.2,0.2,2.3C205.7,99.8,205.7,99.1,205.6,98.4C205.6,98.4,205.6,98.4,205.6,98.4z"/>
<path class="st5" d="M207.4,104.1c-0.3,0.1-0.4,0.1-0.6,0.2c0-0.3-0.2-0.6-0.1-0.8c0-0.2,0.2-0.4,0.4-0.6
	C207.2,103.3,207.3,103.7,207.4,104.1z"/>
<path class="st5" d="M218.7,153.9c-0.4-0.9-0.8-1.8-1.2-2.7c0.2-0.2,0.5-0.4,0.7-0.6c0.4,0.9,0.8,1.8,1.2,2.6
	C219.2,153.5,219,153.7,218.7,153.9z"/>
<path class="st5" d="M217.3,148.7c0.3,0.6,0.6,1.3,0.9,1.9c-0.2,0.2-0.5,0.4-0.7,0.6c-0.3-0.6-0.6-1.3-1-1.9
	C216.8,149.2,217.1,148.9,217.3,148.7z"/>
<path class="st5" d="M205.7,120.4c0.1-0.4,0.2-0.8,0.2-1.3C206.9,119.8,205.9,120,205.7,120.4L205.7,120.4z"/>
<path class="st5" d="M213.3,118.5c0.1-0.5,0.2-1,0.3-1.6c0.1,0.1,0.3,0.1,0.4,0.2C214.1,117.8,213.8,118.2,213.3,118.5L213.3,118.5z
	"/>
<path class="st5" d="M219.9,154.7c-0.3,0-0.7,0-1,0c-0.1-0.2-0.2-0.5-0.2-0.8c0.2-0.2,0.5-0.4,0.7-0.6
	C219.6,153.8,219.8,154.2,219.9,154.7z"/>
<path class="st5" d="M220.9,116.6c-0.2,0.4-0.4,0.8-0.6,1.3c-0.2-0.2-0.4-0.4-0.6-0.6c0.2-0.4,0.5-0.8,0.7-1.2
	C220.6,116.3,220.8,116.5,220.9,116.6z"/>
<path class="st5" d="M216,118.4c0.3-0.4,0.5-0.7,0.8-1.1c0,0,0.3,0.3,0.3,0.3c-0.2,0.4-0.5,0.8-0.7,1.2
	C216.2,118.6,216.1,118.5,216,118.4z"/>
<path class="st5" d="M213.2,118.4c-0.1,0.2-0.2,0.5-0.3,0.7c-0.1-0.1-0.2-0.3-0.3-0.4C212.8,118.6,213,118.6,213.2,118.4
	C213.3,118.5,213.2,118.4,213.2,118.4z"/>
<path class="st5" d="M205.6,120.3c-0.3,0.3-0.6,0.6-1,1c0,0,0.1,0.1,0.1,0.1C205,121,205.3,120.7,205.6,120.3
	C205.7,120.4,205.6,120.3,205.6,120.3z"/>
<path class="st5" d="M207.4,123.8c-0.1,0.1-0.2,0.2-0.3,0.2c-0.1,0-0.2-0.2-0.2-0.3c0.1-0.1,0.2-0.2,0.3-0.2
	C207.2,123.5,207.3,123.7,207.4,123.8z"/>
<path class="st5" d="M213.5,124.4c-0.3,0.3-0.6,0.7-1,1c-0.2-0.1-0.3-0.3-0.4-0.4c0.4-0.3,0.7-0.6,1.1-0.8
	C213.2,124.1,213.5,124.4,213.5,124.4z"/>
<path class="st5" d="M212.6,125.4c-0.3,0.3-0.6,0.7-0.9,1c-0.2-0.2-0.3-0.3-0.5-0.5c0.3-0.3,0.6-0.6,1-0.9
	C212.3,125.1,212.4,125.3,212.6,125.4z"/>
<path class="st5" d="M211.6,126.4c-0.3,0.4-0.6,0.7-0.8,1.1c-0.2-0.2-0.4-0.4-0.6-0.6c0.3-0.3,0.6-0.7,0.9-1
	C211.3,126.1,211.5,126.2,211.6,126.4z"/>
<path class="st6" d="M217.4,125.5c0.3-0.4,0.5-1.3,1.2-0.7c0.5,0.4,0.1,1.1-0.4,1.5C218,126,217.7,125.7,217.4,125.5z"/>
<path class="st6" d="M172.3,20.2c0,4.5,0,9,0,13.4c-4.5,0-9-0.1-13.4-0.1l0.1,0.1c0-4.5,0-8.9-0.1-13.4
	C163.3,20.2,167.8,20.2,172.3,20.2z"/>
<path class="st3" d="M172.3,61.2c0,4.4,0,8.7,0,13.1c-4.5,0.6-9,2.2-13.5,0c0.1-4.4,0.1-8.7,0.2-13.1c0,0-0.1,0.1-0.1,0.1
	C163.3,61.3,167.8,61.2,172.3,61.2z"/>
<path class="st6" d="M158.9,61.2c-0.1,4.4-0.1,8.7-0.2,13.1c-4.4,0-8.8,0-13.2,0.1c0-0.3-0.1-0.7-0.1-1c0-0.2,0-0.4-0.1-0.6
	c0-3.5,0-7.1,0-10.6c0.1-0.3,0.1-0.6,0.1-0.8C149.9,61.3,154.4,61.2,158.9,61.2z"/>
<path class="st3" d="M122.8,155.2c-0.5,0-0.9,0-1.4,0C121.9,154.6,122.4,154.6,122.8,155.2z"/>
<path class="st6" d="M172.3,61.2c-4.5,0-8.9,0-13.4,0.1c0-4.8,0-9.6,0.1-14.4c0,0-0.1,0.1-0.1,0.1c4.2,0.2,8.4,0.4,12.7,0.6
	c0.2,0.2,0.4,0.3,0.7,0.3c0,0,0,0,0,0C172.2,52.3,172.2,56.8,172.3,61.2L172.3,61.2z"/>
<path class="st6" d="M145.5,33.5c4.5,0,8.9,0,13.4,0.1c0,0-0.1-0.1-0.1-0.1c0,4.5,0,8.9,0,13.4c0,0,0.1-0.1,0.1-0.1
	c-4.4,1.5-9,0.1-13.4,1C145.5,43.1,145.5,38.3,145.5,33.5z"/>
<path class="st7" d="M145.3,72.7c0.1,0.2,0.1,0.4,0.1,0.6c0,0-0.3-0.3-0.3-0.3L145.3,72.7z"/>
<path class="st2" d="M-35.7,33.6c0-9.4,0.1-18.7-0.1-28.1c-0.1-3.1,0.5-4.4,4.1-4.4c19,0.2,38.1,0.2,57.2,0c3.1,0,4,0.9,4,4
	c-0.1,19.2-0.1,38.4,0,57.6c0,3.3-1.2,4-4.1,4c-19.1-0.1-38.1-0.1-57.2,0c-3.2,0-4-1.1-4-4.1C-35.6,53-35.7,43.3-35.7,33.6z
	 M27.5,34.1c0-9.2,0-18.4,0-27.6c0-1.5,0.3-3.8-2.1-3.2c-2.6,0.6-4.9-0.2-7.3-0.2C2,3.1-14,3.1-30.1,3c-2.8,0-3.9,0.6-3.9,3.7
	c0.1,18.1,0.1,36.2,0,54.3c0,2.8,0.7,3.9,3.7,3.9c18-0.1,35.9-0.1,53.9,0c3.3,0,4-1.2,3.9-4.2C27.4,51.9,27.5,43,27.5,34.1z"/>
<path class="st3" d="M172.2,61.3c0-4.5,0-8.9,0-13.4c4.2-0.2,8.5-0.3,12.7-0.5c0,0,0.3,0.2,0.3,0.2l0.4-0.1c0,4.6,0,9.2,0,13.8
	C181.1,61.3,176.7,61.3,172.2,61.3z"/>
<path class="st7" d="M185.6,47.5l-0.4,0.1c0,0-0.3-0.2-0.3-0.2c0.2-0.2,0.4-0.3,0.7-0.4C185.5,47,185.6,47.5,185.6,47.5z"/>
<path class="st3" d="M158.8,47c0-4.5,0-8.9,0-13.4c4.5,0,9,0.1,13.4,0.1c0,0-0.1-0.1-0.1-0.1c0,0.3,0,0.5,0.1,0.8
	c0,4.3-0.1,8.7-0.1,13c-0.3-0.1-0.5-0.1-0.7,0.2C167.3,47.3,163.1,47.1,158.8,47z"/>
<path class="st7" d="M171.5,47.5c0.2-0.2,0.5-0.3,0.7-0.2c0,0-0.1,0.5-0.1,0.5C171.9,47.8,171.7,47.7,171.5,47.5z"/>
<path class="st7" d="M172.4,34.4c-0.1-0.2-0.2-0.5-0.1-0.8c0.3,0.1,0.5,0.2,0.7,0.4C172.8,34.2,172.6,34.3,172.4,34.4z"/>
<path class="st3" d="M27.5,34.1c0,8.9-0.1,17.8,0.1,26.7c0.1,3-0.6,4.2-3.9,4.2c-18-0.1-35.9-0.1-53.9,0c-3,0-3.7-1.1-3.7-3.9
	c0.1-18.1,0.1-36.2,0-54.3c0-3,1-3.7,3.9-3.7c16,0.1,32.1,0.1,48.1,0c2.4,0,4.8,0.8,7.3,0.2c2.5-0.6,2.1,1.7,2.1,3.2
	C27.5,15.6,27.5,24.9,27.5,34.1z M-31.6,33.6c0,8.2,0.1,16.5,0,24.7c0,2.7,0.6,3.9,3.7,3.9c16.5-0.1,33-0.1,49.5,0
	c2.9,0,3.8-0.8,3.8-3.8c-0.1-16.3-0.1-32.7,0-49c0-2.5-0.5-3.7-3.4-3.7c-16.7,0.1-33.3,0.1-50,0c-2.7,0-3.6,0.8-3.5,3.5
	C-31.5,17.4-31.6,25.5-31.6,33.6z"/>
<path class="st2" d="M-31.6,33.6c0-8.1,0.1-16.2,0-24.3c0-2.7,0.8-3.5,3.5-3.5c16.7,0.1,33.3,0.1,50,0c2.9,0,3.4,1.2,3.4,3.7
	c-0.1,16.3-0.1,32.7,0,49c0,2.9-0.9,3.8-3.8,3.8c-16.5-0.1-33-0.1-49.5,0c-3.1,0-3.7-1.2-3.7-3.9C-31.5,50.1-31.6,41.8-31.6,33.6z
	 M-29.1,34.1c0,7.5,0.1,14.9,0,22.4c0,2.5,0.5,3.7,3.4,3.7c14.9-0.1,29.9-0.1,44.8,0c3,0,3.7-1.1,3.7-3.9c-0.1-14.9-0.1-29.9,0-44.8
	c0-2.6-0.7-3.6-3.5-3.6C4.4,7.9-10.6,8-25.5,7.8c-3.1,0-3.7,1.1-3.6,3.9C-29,19.1-29.1,26.6-29.1,34.1z"/>
<path class="st3" d="M-29.1,34.1c0-7.5,0.1-14.9-0.1-22.4c-0.1-2.8,0.6-3.9,3.6-3.9c14.9,0.1,29.9,0.1,44.8,0c2.8,0,3.5,1,3.5,3.6
	c-0.1,14.9-0.1,29.9,0,44.8c0,2.8-0.7,3.9-3.7,3.9C4.1,60-10.8,60-25.7,60.1c-2.9,0-3.4-1.1-3.4-3.7C-29,49-29.1,41.5-29.1,34.1z
	 M-3.3,10c-6.7,0-13.3,0.1-20-0.1c-2.8-0.1-3.9,0.7-3.9,3.7c0.2,13.5,0.2,27,0,40.5c0,3.1,1.2,3.6,3.9,3.6c13.3-0.1,26.7-0.1,40,0
	c2.8,0,3.9-0.7,3.9-3.7c-0.1-13.5-0.2-27,0-40.5c0-3.2-1.3-3.7-4-3.6C10.1,10.1,3.4,10-3.3,10z"/>
<path class="st2" d="M-3.3,10c6.7,0,13.3,0.1,20,0c2.7-0.1,4,0.4,4,3.6c-0.2,13.5-0.1,27,0,40.5c0,3-1.1,3.7-3.9,3.7
	c-13.3-0.1-26.7-0.1-40,0c-2.7,0-4-0.5-3.9-3.6c0.2-13.5,0.1-27,0-40.5c0-3,1-3.8,3.9-3.7C-16.6,10.1-9.9,10-3.3,10z M-24.3,33.6
	c0,6,0.1,12.1,0,18.1c-0.1,2.5,0.6,3.7,3.4,3.7c11.7-0.1,23.5-0.1,35.2,0c3,0,3.7-1.1,3.7-3.9c-0.1-11.7-0.1-23.5,0-35.2
	c0-2.6-0.7-3.6-3.5-3.6c-11.7,0.1-23.5,0.1-35.2,0c-3,0-3.8,1.1-3.7,3.9C-24.2,22.2-24.3,27.9-24.3,33.6z"/>
<path class="st3" d="M-24.3,33.6c0-5.7,0.1-11.4-0.1-17.1c-0.1-2.8,0.6-3.9,3.7-3.9c11.7,0.2,23.5,0.1,35.2,0c2.8,0,3.5,1,3.5,3.6
	c-0.1,11.7-0.1,23.5,0,35.2c0,2.8-0.7,3.9-3.7,3.9c-11.7-0.1-23.5-0.1-35.2,0c-2.8,0-3.5-1.1-3.4-3.7
	C-24.2,45.6-24.3,39.6-24.3,33.6z M-3.7,53.5c5.4,0,10.8-0.1,16.2,0c2.8,0.1,4-0.8,4-3.8c-0.1-10.6-0.1-21.3,0-31.9
	c0-2.4-0.6-3.4-3.2-3.4c-10.8,0.1-21.6,0.1-32.4,0c-2.3,0-3.4,0.5-3.4,3.2c0.1,11,0.1,21.9,0,32.9c0,2.3,0.9,3,3.1,3
	C-14.2,53.4-9,53.5-3.7,53.5z"/>
<path class="st2" d="M-3.7,53.5c-5.2,0-10.5-0.1-15.7,0c-2.2,0-3.1-0.7-3.1-3c0.1-11,0.1-21.9,0-32.9c0-2.6,1.1-3.2,3.4-3.2
	c10.8,0.1,21.6,0.1,32.4,0c2.6,0,3.2,1,3.2,3.4c-0.1,10.6-0.1,21.3,0,31.9c0,3-1.2,3.8-4,3.8C7.1,53.4,1.7,53.5-3.7,53.5z M13.1,34
	c0-4.4-0.1-8.9,0-13.3c0.1-2.5-0.8-3.3-3.3-3.3c-8.7,0.1-17.5,0.1-26.2,0c-2.5,0-3.3,0.9-3.2,3.3c0.1,8.9,0.1,17.8,0,26.7
	c0,2.2,0.7,3.1,3,3.1c8.9-0.1,17.8-0.1,26.7,0c2.3,0,3.1-0.9,3-3.1C13,42.9,13.1,38.5,13.1,34z"/>
<path class="st3" d="M13.1,34c0,4.4-0.1,8.9,0,13.3c0.1,2.2-0.8,3.1-3,3.1c-8.9-0.1-17.8-0.1-26.7,0c-2.3,0-3-0.8-3-3.1
	c0.1-8.9,0.1-17.8,0-26.7c0-2.4,0.7-3.4,3.2-3.3c8.7,0.1,17.5,0.1,26.2,0c2.5,0,3.4,0.8,3.3,3.3C13,25.1,13.1,29.6,13.1,34z
	 M-3.2,19c-4,0-7.9,0.1-11.9,0c-2.5-0.1-3.3,0.9-3.3,3.3c0.1,7.8,0.1,15.6,0,23.3c0,2.1,0.3,3.3,2.8,3.2c8.3-0.1,16.5-0.1,24.8,0
	c2.1,0,2.8-0.8,2.7-2.8c-0.1-8.1-0.1-16.2,0-24.3c0-2-0.8-2.8-2.8-2.8C5,19.1,0.9,19-3.2,19z"/>
<path class="st2" d="M-3.2,19c4.1,0,8.3,0.1,12.4,0c2,0,2.8,0.8,2.8,2.8c-0.1,8.1-0.1,16.2,0,24.3c0,2-0.7,2.8-2.7,2.8
	c-8.3-0.1-16.5-0.1-24.8,0c-2.5,0-2.8-1.2-2.8-3.2c0.1-7.8,0.1-15.6,0-23.3c0-2.4,0.7-3.4,3.3-3.3C-11.2,19.1-7.2,19-3.2,19z
	 M8.2,34.2c0-0.3,0-0.6,0-0.9c0-11.1,0-11.1-11.1-11.1c-11.9,0-11.9,0-11.9,12.2c0,11.3,0,11.3,11.3,11.3
	C8.2,45.7,8.2,45.7,8.2,34.2z"/>
<path class="st3" d="M8.2,34.2c0,11.5,0,11.5-11.6,11.5c-11.3,0-11.3,0-11.3-11.3c0-12.2,0-12.2,11.9-12.2c11.1,0,11.1,0,11.1,11.1
	C8.2,33.6,8.2,33.9,8.2,34.2z M-13.7,33.9c0,10.5,0,10.5,10.2,10.5c10.8,0,10.8,0,10.8-10.9c0-10.4,0-10.4-10.3-10.4
	C-13.7,23.1-13.7,23.1-13.7,33.9z"/>
<path class="st2" d="M-13.7,33.9c0-10.8,0-10.8,10.8-10.8c10.3,0,10.3,0,10.3,10.4c0,10.9,0,10.9-10.8,10.9
	C-13.7,44.4-13.7,44.4-13.7,33.9z M2.3,27.6c0-0.2,0-0.3,0-0.5c-2.8,0-5.7,0.2-8.5,0C-9,26.9-9.6,28-9.7,30.6
	C-9.9,41-10,41,0.3,40.9c0.6,0,1.1-0.1,2.6-0.1C-9.9,40.3-9.8,40.3-9.3,31c0.1-2.4,0.8-3.5,3.3-3.4C-3.2,27.7-0.5,27.6,2.3,27.6z"/>
<path class="st3" d="M2.3,27.6c-2.8,0-5.5,0.1-8.3,0c-2.5-0.1-3.2,0.9-3.3,3.4c-0.5,9.3-0.5,9.3,12.3,9.8c-1.5,0.1-2.1,0.1-2.6,0.1
	C-10,41-9.9,41-9.7,30.6c0.1-2.6,0.7-3.7,3.5-3.5c2.8,0.2,5.7,0,8.5,0C2.3,27.3,2.3,27.5,2.3,27.6z"/>
</svg>
