<?xml version="1.0" encoding="utf-8"?>
<!-- Generator: Adobe Illustrator 24.0.2, SVG Export Plug-In . SVG Version: 6.00 Build 0)  -->
<svg version="1.1" id="Capa_1" xmlns="http://www.w3.org/2000/svg" xmlns:xlink="http://www.w3.org/1999/xlink" x="0px" y="0px"
	 viewBox="0 0 288 288" style="enable-background:new 0 0 288 288;" xml:space="preserve">
<style type="text/css">
	.st0{fill:#2D2D2D;}
	.st1{fill:#002530;}
	.st2{fill:#050523;}
	.st3{fill:#707C84;}
	.st4{fill:#E9E4DE;}
	.st5{fill:#EE3133;}
	.st6{fill:#FD99AF;}
	.st7{fill:#C4C2C0;}
	.st8{fill:#F2D8A3;}
	.st9{fill:#EFCB84;}
	.st10{fill:#EF692F;}
	.st11{fill:#4B343F;}
	.st12{fill:#16B198;}
	.st13{fill:#E72D52;}
	.st14{fill:#7B536F;}
	.st15{fill:#8F4CA9;}
	.st16{fill:#E2C29F;}
	.st17{fill:#9F4687;}
	.st18{fill:#A9A0AF;}
	.st19{fill:#CC4743;}
	.st20{fill:#8677A9;}
	.st21{fill:#8E5D8E;}
	.st22{fill:#DF615C;}
	.st23{fill:#9E4742;}
	.st24{fill:#D34861;}
	.st25{fill:#B75B6D;}
	.st26{fill:#DF6482;}
	.st27{fill:#FFFFFF;}
	.st28{fill:#829CA2;}
	.st29{fill:#F2B991;}
	.st30{fill:#E56759;}
	.st31{fill:#F5F3EE;}
	.st32{fill:#DC4B3F;}
	.st33{fill:#1D5A7D;}
	.st34{fill:#459492;}
	.st35{fill:#F0A349;}
	.st36{fill:#E4EFEB;}
	.st37{fill:#E17467;}
	.st38{fill:#B6BFBD;}
	.st39{fill:#F0E2D6;}
	.st40{fill:#396D89;}
	.st41{fill:#201A21;}
	.st42{fill:#48505D;}
	.st43{fill:#0B0707;}
	.st44{fill:#D30034;}
	.st45{fill:#6C919B;}
	.st46{fill:#F68C4A;}
	.st47{fill:#E5CFCD;}
	.st48{fill:#385B4D;}
	.st49{fill:#F14206;}
	.st50{fill:#BAD2D8;}
	.st51{fill:#F70059;}
	.st52{fill:#AA000C;}
	.st53{fill:#D8B5B2;}
	.st54{fill:#E08143;}
	.st55{fill:#F2E9E9;}
	.st56{fill:#F4D085;}
	.st57{fill:#23586A;}
	.st58{fill:#17241F;}
	.st59{fill:#EAE8E1;}
	.st60{fill:#253C4F;}
	.st61{fill:#F7FCFD;}
	.st62{fill:#0E151F;}
	.st63{fill:#8D897D;}
	.st64{fill:#BDB6AA;}
	.st65{fill:#EDE1AF;}
	.st66{fill:#DF786F;}
	.st67{fill:#E8C46F;}
	.st68{fill:#B0CEAD;}
	.st69{fill:#9FC4AF;}
	.st70{fill:#B8C6A0;}
	.st71{fill:#EBEC80;}
	.st72{fill:#DD7AB2;}
	.st73{fill:#D6D2D3;}
	.st74{fill:#69BCC5;}
	.st75{fill:#D0CBC1;}
	.st76{fill:#242424;}
	.st77{fill:#525252;}
	.st78{fill:#3D3D3D;}
	.st79{fill:#6B6B6B;}
	.st80{fill:#303030;}
	.st81{fill:#8A8A8A;}
	.st82{fill:#282828;}
	.st83{fill:#E6E6E6;}
	.st84{fill:#E8E8E8;}
	.st85{fill:#A9A9A9;}
	.st86{fill:#D9D9D9;}
	.st87{fill:#CACACA;}
	.st88{fill:#9E9E9E;}
	.st89{fill:none;}
	.st90{fill:#4A4744;}
	.st91{fill:#F0BA45;}
	.st92{fill:#F1D34E;}
	.st93{fill:none;stroke:#00A591;stroke-miterlimit:10;}
	.st94{fill:#EEEEEE;}
	.st95{fill:#FBFBFB;}
	.st96{fill:#F8F2DD;}
	.st97{fill:#8DB2A6;}
	.st98{fill:#ED8C58;}
	.st99{fill:#F0C153;}
	.st100{fill:#C2B146;}
	.st101{fill:#8E6E51;}
	.st102{fill:#1C1D4C;}
	.st103{fill:#111224;}
	.st104{fill:#26687B;}
	.st105{fill:#F8494A;}
	.st106{fill:#81819B;}
	.st107{fill:#80809B;}
	.st108{fill:#0AC6BB;}
	.st109{fill:#0BC5B9;}
	.st110{fill:#686888;}
	.st111{fill:#0BC5BA;}
	.st112{fill:#FEFEFE;}
	.st113{fill:#F8F5CE;}
	.st114{fill:#EF484B;}
	.st115{fill:#F94A4A;}
	.st116{fill:#F9F6CE;}
	.st117{fill:#DFE0E3;}
	.st118{fill:#04121D;}
	.st119{fill:#6693AB;}
	.st120{fill:#89BCD7;}
	.st121{fill:#FAF509;}
	.st122{fill:#0B2E41;}
	.st123{fill:#427491;}
	.st124{fill:#2A5973;}
	.st125{fill:#184259;}
	.st126{fill:#BCE4F7;}
	.st127{fill:#02111C;}
	.st128{fill:#FCF704;}
	.st129{fill:#F4F115;}
	.st130{fill:#DFE23F;}
	.st131{fill:#BCE6FA;}
	.st132{fill:#031D2B;}
	.st133{fill:#81851A;}
	.st134{fill:#1E1E1E;}
	.st135{fill:#F5142E;}
	.st136{fill:#05ACC0;}
	.st137{fill:#F87240;}
	.st138{fill:#FA723F;}
	.st139{fill:#F67240;}
	.st140{fill:#E37547;}
	.st141{fill:#07ADC0;}
	.st142{fill:#450D0D;}
	.st143{fill:#F57240;}
	.st144{fill:#440D0D;}
	.st145{fill:#470D0D;}
	.st146{fill:#EBECCC;}
	.st147{fill:#E9EACA;}
	.st148{fill:#00ABBF;}
	.st149{fill:#F6FAD9;}
	.st150{fill:#CBC3AC;}
	.st151{fill:#E2615D;}
	.st152{fill:#FAFAF8;}
	.st153{fill:#E8E4DA;}
	.st154{fill:#123057;}
	.st155{fill:#F4D16B;}
	.st156{fill:none;stroke:#F1D34E;stroke-miterlimit:10;}
	.st157{fill:#E3834C;}
	.st158{fill:#E9A779;}
	.st159{fill:#ECB74A;}
	.st160{fill:#00A591;}
</style>
<g>
	<path class="st65" d="M300.7,291.7c-1,1.9-2.8,0.9-4.2,0.9c-71.9,0.1-143.8,0.1-215.8,0.1c-30.6,0-61.3,0-91.9,0.1
		c-2.9,0-3.5-0.6-3.5-3.5c0.1-98,0.1-195.9,0.2-293.9c0-0.9-1.5-2.7,0.8-3.2c0.1,3.9,0.2,7.8,0.2,11.7c0,0.7,0,1.4,0,2.1
		c0,5.2,0,10.5,0,15.7c-0.1,3.5-0.1,7-0.2,10.6c0,1.6,0.4,2.9,1.8,3.9c5.5,3.8,10.9,7.8,17.5,9.7c0.5,2.1,2.3,1.6,3.8,1.7
		c0.1,0.3,0.1,0.7,0.2,1c0.4,4.9,0.8,9.7,0.3,14.6c-0.5,0.2-1,0.3-1.5,0.5c-6.9-2.3-12.5-7-18.9-10.2c-2.7-1.3-3.1-0.7-3,1.8
		c0.1,4.4,0.2,8.9,0.2,13.3c0,4.9-0.1,9.9-0.1,14.8c0,0.7,0,1.3,0,1.9c0,5,0,9.9,0,14.9c0,5,0,10.1,0,15.1c0,4.6-0.1,9.2,0,13.8
		c0,1.5-0.2,3.3,1.4,4.1c7.5,3.8,14.1,9,21.9,12.2c0.1,2.6,0.3,5.2,0.3,7.8c-0.1,6.8-1,7.3-7,3.9c-5.4-3.1-10.7-6.2-16.5-9.5
		c0,6.4,0,12.1,0,17.7c0,5.7-0.1,11.5-0.1,17.2c0,4.9,0,9.8,0,14.7C-14,213-14,213-0.2,220.3c0.4,0.2,0.8,0.4,1.2,0.6
		c7.7,4.2,7.5,4.2,8.7-4.6c0.3-2.7-0.8-6,2.5-7.9c8.3-4.6,16.6-9.3,24.9-14c0,0.6,0,1.2,0.1,1.8c-0.3,3.5-0.7,6.9-0.9,10.3
		c-0.2,2.4,1.1,4.2,3.1,5.2c6.7,3.3,12.8,7.8,19.5,11.1c4.2,2.1,4.3,0.4,4.3-2.9c0-3.6-0.5-7.4,0.7-10.9c1.9-0.6,3.6-1.5,5.4-2.5
		c7-4.1,14.1-8,21.1-11.9l0.1-0.1c0.6,4.9,0.3,9.9,0.2,14.8c-1,0.2-1.5,0.9-1.5,1.9c-2.3,0.1-2.8,1.7-3,3.6
		c-8.3,1.3-14.8,6.5-20.8,11.6c-3.3,2.8-2,8.6-2.1,13.1c0,0.5-0.1,0.9-0.1,1.4c-4.5-0.2-7.6-3.5-11.3-5.5c-4.8-2.6-9.3-5.6-14.5-7.5
		c-0.3-0.6-0.7-1.2-1-1.9c0-3.1,0-6.2-0.1-9.3c-0.1-5.1-0.1-5.1-4.6-2.9c-4.6,2.3-9.2,4.8-13.8,7.2c-6.4,3.4-10.4,7.9-7.7,15.8
		c0.5,1.4-0.5,3.3-0.8,4.9c-0.7-0.2-1.7-0.1-2.2-0.5c-5.1-4-11-6.5-16.5-9.8c-3.9-2.4-4.4-0.9-4.2,2.6c0.2,3.7,0.1,7.4,0.2,11.1
		c0,1.3,0,2.6,0,3.8c0,4.1,0,8.1,0,12.2c0,4.9,0,9.8,0,14.8c0,0.9,0,1.8,0,2.7c0,3.2,0.1,6.4-0.1,9.6c-0.1,2.6,0.8,3.5,3.4,3.4
		c5.6-0.2,11.2-0.1,16.9-0.1c4.2,0.1,2.7-2.4,1.9-4.5c0.6-3.4,1.2-6.7,0.8-10.2c0-0.9,0-1.8,0.1-2.7c0.3-0.3,0.7-0.7,1-1
		c3-1.1,5.7-2.8,8.5-4.4c5.9-3.4,11.6-7.2,18-9.7c0.1,4.7,0.1,9.4,0.2,14.1c-0.3,0.9-0.6,1.8-0.9,2.7c0,0,0,0,0,0
		c-1.4-0.1-2.5,0.2-3,1.6c-2-0.2-3.5,1.2-5,2.1c-4.7,2.8-9.2,5.9-13.7,9.1c-1.4,1-2.1,2.9,0.8,2.8c7-0.2,14.1,0.9,21.1-0.7
		c8.8,1.5,17.7,0.5,26.5,0.6c9,0.2,18,0.8,26.9-0.8c0.9,1.1,2.2,1,3.4,1c7.5,0,15-0.1,22.5-0.2c1.7,0.3,3.3,0,4.8-1
		c8,1.7,16,1.1,24,0.8c8.9,0.1,17.7,0.1,26.6,0.2c7.1,0,14.2,0,21.3,0c1.3,0,2.6,0,3.8,0c1.2-0.1,2.4-0.1,3.6-0.2
		c8.3,0,16.5,0.1,24.8,0.1c9.1,0,18.2,0,27.4,0c9,0,18,0,27,0C286.3,291.5,293.5,291.6,300.7,291.7z"/>
	<path class="st66" d="M300.7,101.1c0,5.5,0,11.1,0,16.6c-5.7,1.7-10.2,5.5-15.1,8.6c-1.7,1.1-3.3,2.8-5.4,2
		c-2.4-0.9-1.4-3.4-1.6-5.3c-0.1-1.4-0.2-2.8,0-4.2c0.8-4.5-1.5-6.9-5.3-8.5c-4.1-1.7-7.8-4.1-11.4-6.8c-2.7-2-5.6-3.8-9.1-4.4
		c-0.7-3-1.1-6-1.1-9.1c0-2.1,1.2-5-0.8-6c-2.3-1.3-4.3,1.4-6.5,2.4c-0.1,0.1-0.2,0.2-0.4,0.3c-6.1,3.4-11.7,7.6-18.5,9.8
		c-0.9-0.3-1.4-1-1.5-2c0.3-1.3,0.7-2.7,0.8-4c0.3-5.6-0.6-10.7-6.6-13c-5.1-2-9.1-5.6-13.9-8.1c-1.9-1-3.5-2.6-5.8-2.6
		c-0.4-0.6-0.8-1.2-1.2-1.8c0.2-4.6,0.4-9.2,0.7-13.8c0.1-0.5,0.1-1,0.2-1.5c9,5,18.1,9.6,26.6,15.4c0.9,3.1,0.7,6.4,0.8,9.6
		c0,1.6-0.9,3.8,1,4.5c1.5,0.6,3.1-0.8,4.6-1.6c6.9-3.6,13.1-8.5,20.6-10.9c0.2,2.1,0.8,4.3,0.5,6.3c-0.9,6,1.1,10,6.8,12.6
		c6.9,3.1,12.8,8.1,19.9,10.9c0.2,0.6,0.3,1.2,0.5,1.7c-0.2,2.4-0.4,4.9-0.7,7.3c-0.3,1.9-0.3,3.9,1.2,5.1c1.7,1.4,3.4-0.1,5-1
		C290.1,106.6,295.3,103.6,300.7,101.1z"/>
	<path class="st67" d="M198-8c4,0,8,0,12,0c4.6,2.5,9.3,4.9,13.9,7.4c0,4.2,1.4,8.3,0.9,12.6c-0.2,1.5-0.1,3.3,1.8,3.7
		c1.8,0.4,3.2-0.4,3.9-2.3c0.3,0,0.5-0.1,0.8-0.1c2.9-1.7,6.5-2.3,8.4-5.5c0.3,0,0.6-0.1,0.9-0.1c4.6-0.5,7.9-4.1,12.1-5.4
		c-0.3,5.5-1.4,11,0.8,16.4c-0.5,0.1-1,0.1-1.5,0.2c-3.7,0.1-6.4,2.5-9.4,4.1c-5.4,2.9-10,7.5-16.6,8c-1.6-2.2-0.9-4.7-1.2-7.1
		c-0.4-3-0.1-6.3-3-8.3c-7.2-5-15.1-8.7-22.8-12.8c-0.3-0.5-0.6-0.9-0.8-1.4C198.2-1.8,198.1-4.9,198-8z"/>
	<path class="st65" d="M252,18.8c0.5-0.1,1-0.1,1.5-0.2c8.8,3.7,16.6,9.1,24.7,13.9c0.4,0.1,0.8,0.1,1.2,0.2c0,3.8,0,7.7,0,11.5
		c0,2.6,0.6,3.8,3.5,2.2c5.8-3.2,11.8-6.1,17.8-9.1c0,5.2,0,10.5,0,15.7c-6.6,3.7-13.2,7.4-19.8,11.1c-0.7-0.1-1.5-0.2-2.3-0.2
		c0-0.2,0-0.4,0-0.7c0-3.4-0.1-6.8,0.1-10.2c0.1-2.7-0.9-4.3-3.1-6c-7.2-5.4-15.7-8.5-23-13.6C252.4,28.6,252.2,23.7,252,18.8z"/>
	<path class="st66" d="M300.7,133.5c0,5.2,0,10.5,0,15.7c-7.7,2.2-13,8.6-20.4,11.4c-0.5,0.2-1.1,1.3-1,1.9
		c0.2,3.9-1.4,7.8,0.3,11.7c-1.8,3.8-3.9,0.8-5.5,0.1c-5.5-2.5-10-6.7-15.9-8.4c-0.2-0.1-0.4-0.1-0.6-0.1c-0.9-2.3-2.7-3.3-5.1-3.4
		c0.1-5.3,0.1-10.6,0.2-15.9c0.9,0.3,1.8,0.4,2.6,0.8c6.4,3.6,12.8,7.3,19.2,11c2.9,1.7,4.6,1.5,4.5-2.5c-0.1-3.7,0-7.4,0.1-11.1
		c2.1-0.6,4-1.5,5.8-2.6C289.8,138.9,294.7,135.2,300.7,133.5z"/>
	<path class="st67" d="M300.7,133.5c-5.9,1.7-10.9,5.4-16,8.6c-1.8,1.1-3.7,2-5.8,2.6c-0.2-0.2-0.3-0.5-0.4-0.8
		c0-0.8,0.1-1.5,0.1-2.3c0.1-12.4,0.1-12.5-10.7-18.5c-4.3-2.4-8.1-5.9-13.4-6.2c-0.6,0.2-1.2,0.5-1.8,0.7c-0.2-1.2-0.5-2.3-0.7-3.5
		c-0.1-1.6-0.2-3.1-0.2-4.7c1.9-3.2,0.2-6.9,1.1-10.2c3.4,0.6,6.4,2.4,9.1,4.4c3.6,2.6,7.3,5.1,11.4,6.8c3.8,1.6,6.1,4,5.3,8.5
		c-0.2,1.3-0.1,2.8,0,4.2c0.2,1.9-0.9,4.4,1.6,5.3c2,0.7,3.7-1,5.4-2c4.9-3.1,9.4-6.9,15.1-8.6C300.7,123,300.7,128.3,300.7,133.5z"
		/>
	<path class="st68" d="M257.5,165.7c0.2,0,0.4,0,0.6,0.1c1.7,3.4,3.5,6.8,7.3,8.3c2.3,0.9,1.9,1.8,0.2,2.6c-1.2,0.6-2.4,1.3-1.3,2.7
		c1.3,1.7,2.4,0.4,3.4-0.5c0.5-0.4,0.9-0.8,1.3-1.3c1.7-2,3.6-1.7,5.8-0.7c2.1,0.9,2.4,2.2,2,4.4c-0.4,2,0,4,2.3,4.9
		c0.1,1,0.2,2,0.2,2.9c0.1,1.3,0.5,3,1.9,2.4c3.9-1.6,9-1.1,11.1-6c0.6-0.1,1.3-0.2,1.9-0.3c1.5-0.1,2.4-0.9,2.8-2.4
		c1.2-0.1,2.4-0.3,3.7-0.4c0,5.2,0,10.5,0,15.7c-2.1-0.1-3.7,1.1-5.5,2.1c-4.9,2.8-9.9,5.4-14.9,8c-1.6-2.3-0.7-4.6-0.3-7.1
		c0.7-4.1-0.1-7.6-4.2-9.6c-1-0.9-2.4-1.3-2.9-2.8c-1-3.1-3.6-1.4-5.5-1.9c-0.6-1.1-1.6-1.7-2.8-2c-0.2-1.3-1-2-2.2-2.6
		c-5-2.6-8.9-5.7-8.4-12.3C254.2,167.3,254.6,165.9,257.5,165.7z"/>
	<path class="st66" d="M76.9-8c4.6,0,9.2,0,13.9,0c0,3.3-0.1,6.6-0.1,9.8C84.8,5.1,79,8.5,73.1,11.7c-3.2,1.7-6,4.4-10,4.2
		c0.1-5.5,0.2-11,0.2-16.5C68.4-2,72.7-5,76.9-8z"/>
	<path class="st67" d="M90.7,1.8c0-3.3,0.1-6.6,0.1-9.8c4.3,0,8.6,0,12.9,0c4.1,3.4,7.9,7.2,13.8,6.5c0.3,0.3,0.6,0.7,0.9,1
		c-1.2,3.6-1,7.3-0.8,11c0,1.7,0,3.3,0,5c0,0,0,0.4,0,0.4c-5.4,0.5-9.3-3.1-12.7-6C100.7,6,95.6,4.2,90.7,1.8z"/>
	<path class="st65" d="M63.4-0.6c-0.1,5.5-0.2,11-0.2,16.5c0,0-0.1,0.1-0.1,0.1c-2.6-0.5-4.6-2.2-6.9-3.4c-6.3-3.5-12.6-7-19-10.4
		c-0.3-0.3-0.6-0.7-1-1c0-3.1,0-6.2,0-9.3c4.9,0,9.9,0,14.8,0c3.4,3.4,7,6.3,11.8,7.3C63-0.7,63.2-0.6,63.4-0.6z"/>
	<path class="st65" d="M252.6-8c4.9,0,9.9,0,14.8,0c2.6,4.8,7.5,5.9,12.1,7.5c-1.5,5,1.1,9.7,1,14.6c0,0.4,0,0.7,0,1.1
		c-0.4,0.4-0.7,0.7-1.1,1.1c-8.6-4.8-17.2-9.5-25.8-14.3c-0.1-1-0.7-1.5-1.7-1.7c0-0.9,0-1.8,0-2.7C253.1-4.1,252.4-6.1,252.6-8z"/>
	<path class="st68" d="M198-8c0.1,3.1,0.1,6.2,0.2,9.4c-1.9-0.3-3.1,0.8-4.5,1.9c-6.5,5.4-14.6,8.2-21.6,12.8
		c0.1-1.6-0.1-3.1-0.9-4.6c0.9-4.1-0.1-8.1-0.9-12.1c0.3-0.3,0.6-0.6,0.9-0.9c4.3,0.2,7.4-3.3,11.5-3.8c0.9-0.1,1.3-1.5,1.4-2.6
		C188.8-8,193.4-8,198-8z"/>
	<path class="st68" d="M300.7,230.6c0,5.2,0,10.5,0,15.7c-1.7-0.2-2.8,1-4.2,1.6c-2.9,1.2-5.1,4-8.6,4.1c-1.7-0.1-2.7,0.7-3,2.4
		c-1.8,1-3.7,2-5.5,3c-0.4-5.8,0.9-11.7-0.9-17.4c-0.3-5.3,1-10.6-1.1-15.8c0.4,0,0.8-0.1,1.2-0.1c1.9,0.4,3.6-0.6,5.4-0.9
		c-4.3,4.7-4.3,10.2-3.3,15.5C288.2,237.3,294.3,233.6,300.7,230.6z"/>
	<path class="st66" d="M-13.5,3.7c-0.1-3.9-0.2-7.8-0.2-11.7c3.1,0,6.2,0,9.2,0C0.1-5.4,4.2-1.9,9.4-0.6c0,1,0,2.1,0.8,2.8
		c0,2.2,0,4.4,0,6.6c-1,1.7-1,3.6-0.7,5.4c-0.1,0.6-0.1,1.2-0.2,1.7c-1.2-0.3-2.4-0.6-3.6-0.9l0,0C-0.2,10.6-6.9,7.2-13.5,3.7z"/>
	<path class="st65" d="M300.7,262.1c0,5.5,0,11.1,0,16.6c-2.6,0.5-4.8,2-7,3.3c-4.7,2.9-9.4,5.6-14.5,7.7c-0.1-0.2-0.3-0.5-0.5-0.7
		c-0.7-5.2,0.9-10.3,0.8-15.5C286.6,269.7,293.6,265.9,300.7,262.1z"/>
	<path class="st68" d="M300.7,37.3c-5.9,3-11.9,6-17.8,9.1c-2.9,1.6-3.5,0.4-3.5-2.2c0-3.8,0-7.7,0-11.5c7.2-3.9,13.4-9.5,21.3-12.1
		C300.7,26.2,300.7,31.8,300.7,37.3z"/>
	<path class="st65" d="M284,223.3c-1.8,0.3-3.5,1.2-5.4,0.9c-0.1-4.6,0.9-9.1,0-13.7c1-0.3,1.6-1,1.7-2c5-2.7,10-5.3,14.9-8
		c1.8-1,3.3-2.2,5.5-2.1c0,5.2,0,10.5,0,15.7c-3.4,0.9-6.3,2.8-9.2,4.7c-1.2,0-1.7,0.6-1.9,1.7C287.7,221.4,285.9,222.3,284,223.3z"
		/>
	<path class="st66" d="M300.7,262.1c-7.1,3.8-14.1,7.6-21.2,11.4c-0.2-0.4-0.3-0.8-0.5-1.2c0.3-4,0.7-8-0.1-12.1
		c0.2-0.9,0.3-1.8,0.5-2.8l0,0c1.8-1,3.7-2,5.5-3c1.8,0.2,2.5-1,3-2.4c3.5-0.1,5.6-2.9,8.6-4.1c1.4-0.6,2.5-1.8,4.2-1.6
		C300.7,251.6,300.7,256.8,300.7,262.1z"/>
	<path class="st69" d="M170.3-0.6c0.8,4,1.9,8,0.9,12.1c-3.1,0.3-5.9-0.8-8.7-2c-3.8-1.5-6.9-4.4-10.9-5.2c-0.8-0.4-1.7-0.7-2.5-1.1
		c-1-1.9-2.3-3.5-4.6-3.8c-0.3-2.5-0.6-5-0.9-7.5c4.3,0,8.6,0,12.9,0C161.1-5.5,165.7-3.1,170.3-0.6z"/>
	<path class="st69" d="M279.6,174.2c-1.7-3.8-0.2-7.8-0.3-11.7c0-0.6,0.5-1.7,1-1.9c7.4-2.8,12.7-9.2,20.4-11.4c0,5.2,0,10.5,0,15.7
		c-3.8,1.4-7.6,2.9-10.2,6.3c-0.6,0.1-1.2,0.1-1.7,0.2C285.5,171.7,283.2,175.1,279.6,174.2z"/>
	<path class="st68" d="M143.5-8c0.3,2.5,0.6,5,0.9,7.5c-0.3,0.9-0.6,1.7-0.9,2.6l0,0.2c-2.3-0.1-3.9,1.3-5.8,2.4
		c-6.5,3.9-13,7.9-20,10.8c0-1.7,0-3.3,0-5c2.8-3.6,5.5-7.2,5.4-12.1c1.8-3.5,6-3.7,8.4-6.4C135.5-8,139.5-8,143.5-8z"/>
	<path class="st66" d="M280.9,64.2c6.6-3.7,13.2-7.4,19.8-11.1c0,5.2,0,10.5,0,15.7c-1.7,1-3.4,2-5.2,2.9
		c-5.5,2.8-10.6,6.4-16.9,7.1c0-0.5,0-1.1,0.1-1.6c1.1-1.5,0.7-3.2,0.7-4.8C279.4,69.5,279,66.6,280.9,64.2z"/>
	<path class="st68" d="M279.7,98.4c-0.2-0.6-0.3-1.2-0.5-1.7c1.4-4.3-0.6-8.7,0.3-13.1c5.2-1.1,9.7-2.8,13-7.6
		c1.7-2.4,4.8-4.2,8.2-4.4c0,4.3,0,8.6,0,12.9c-3.2,0.5-7-0.3-7.4,4.8C292.6,96.6,286.8,100.3,279.7,98.4z"/>
	<path class="st69" d="M291.5,218.7c2.9-2,5.8-3.8,9.2-4.7c0,5.5,0,11.1,0,16.6c-6.4,3-12.5,6.7-19.9,8.2c-1-5.3-1-10.8,3.3-15.5
		c1.8-0.9,3.7-1.9,5.5-2.8C290.7,220.4,291.3,219.8,291.5,218.7z"/>
	<path class="st69" d="M251.8-2.4c0,0.9,0,1.8,0,2.7c-4.1,1.9-9.2,2.3-11.3,7.3c-0.3,0.1-0.6,0.1-0.9,0.1c-3.3,1-7.3,1.1-8.4,5.5
		c-0.3,0.1-0.5,0.1-0.8,0.1c-2.9,0.2-4.1-1.1-3.9-4c0.2-3.3,0-6.6,0-9.9c3.9-2.6,9.3-2.8,12-7.4c3.7,0,7.4,0,11.1,0
		C249.8-5.9,249.9-3.9,251.8-2.4z"/>
	<path class="st67" d="M280.4,14.1c0.1-4.9-2.5-9.6-1-14.6c0-0.3,0-0.6,0-0.9c4.6-2.2,9.2-4.4,13.8-6.6c7.4,0,7.4,0,7.4,7.4
		c0,1.5,0,3.1,0,4.6c-2.5,0.2-4.6,1.6-6.9,2.4C288.8,8.1,285.5,12.7,280.4,14.1z"/>
	<path class="st69" d="M279.7,98.4c7.2,2,13-1.8,13.6-9.1c0.4-5.1,4.2-4.3,7.4-4.8c0,5.5,0,11.1,0,16.6c-5.4,2.5-10.5,5.5-15.6,8.6
		c-1.5,0.9-3.2,2.5-5,1c-1.4-1.2-1.5-3.2-1.2-5.1C279.3,103.2,279.4,100.8,279.7,98.4z"/>
	<path class="st67" d="M288.7,171.5c0.6-0.1,1.2-0.1,1.7-0.2c3.8,0,6.4-3.6,10.2-3.5c0,4.9,0,9.9,0,14.8c-1.2,0.1-2.4,0.3-3.7,0.4
		c-1.9-0.3-2.6,0.8-2.8,2.4c-0.6,0.1-1.3,0.2-1.9,0.3c-4,2.4-8.4,3.4-13,3.6c-0.1-1-0.2-2-0.2-2.9c0.4-4.9,1.2-9.5,6.8-11.3
		C287.4,174.4,288.5,173.2,288.7,171.5z"/>
	<path class="st69" d="M300.7,20.7c-7.9,2.6-14.1,8.2-21.3,12.1c-0.4-0.1-0.8-0.1-1.2-0.2c2.2-5.3,0.7-10.9,1.1-16.3
		c0.4-0.4,0.7-0.7,1.1-1.1c1.8,0,3.7-0.1,5.5-0.1c4.8-2,11.1-0.7,14.3-6.4c0-0.1,0.3-0.1,0.4-0.1C300.7,12.7,300.7,16.7,300.7,20.7z
		"/>
	<path class="st69" d="M36.2-8c0,3.1,0,6.2,0,9.3C31,4.9,25.7,8.5,19.5,10.5c1.2-3,0.9-4.9-2.9-4.9c-1.5,0-2.9-0.4-4.4-0.6
		c0-1,0-2.1-0.9-2.8c4.4-2.7,8.1-6.6,13.4-7.4C26.6-5.5,28-5.7,27.9-8C30.7-8,33.5-8,36.2-8z"/>
	<path class="st69" d="M279.2,289.7c5.1-2.1,9.8-4.8,14.5-7.7c2.2-1.4,4.4-2.8,7-3.3c0,4.3,0,8.6,0,12.9c-7.2-0.1-14.4-0.2-21.6-0.3
		C279.1,290.8,279.1,290.3,279.2,289.7z"/>
	<path class="st70" d="M300.7,71.5c-3.4,0.2-6.6,2-8.2,4.4c-3.3,4.8-7.8,6.6-13,7.6c-0.3-1.2-0.7-2.5-1-3.7c0.1-0.4,0.1-0.7,0.2-1.1
		c6.3-0.7,11.5-4.3,16.9-7.1c1.7-0.9,3.4-1.9,5.2-2.9C300.7,69.7,300.7,70.6,300.7,71.5z"/>
	<path class="st70" d="M285.9,15.1c-1.8,0-3.7,0.1-5.5,0.1c0-0.4,0-0.7,0-1.1c5.1-1.4,8.3-6.1,13.4-7.7c2.3-0.7,4.4-2.1,6.9-2.4
		c0,0.6,0,1.2,0,1.8C295,7.8,290.1,10.9,285.9,15.1z"/>
	<path class="st68" d="M285.9,15.1c4.2-4.2,9.1-7.3,14.8-9.3c0,0.9,0,1.8,0,2.8c-0.2,0-0.4,0-0.4,0.1
		C297,14.4,290.8,13.2,285.9,15.1z"/>
	<path class="st70" d="M9.4-0.6c0-0.3,0-0.5,0.1-0.8C15.6-1,19-6.4,24.2-8c1.2,0,2.5,0,3.7,0c0.1,2.3-1.3,2.5-3.2,2.8
		c-5.4,0.7-9,4.7-13.4,7.4c-0.3,0-0.7,0-1,0C9.4,1.4,9.4,0.4,9.4-0.6z"/>
	<path class="st67" d="M37.2,196.1c0-0.6,0-1.2-0.1-1.8c-0.3-2.6-0.8-5.2-0.8-7.8c0-8-0.5-8.3-7.8-4.3c-0.8,0.4-1.5,1.1-2.4,1.4
		c-5.8,2.5-10.3,7.2-16.4,9.1c0.1-5.3-1.6-10.4-0.9-15.7c0.5-0.2,1-0.5,1.5-0.7c6.5-3.5,13-7,19.5-10.5c5.9-2.4,7.2-2.2,6.8,2.3
		c-0.7,7.5,1.3,12.4,8.7,14.6c0.3,0.1,0.4,0.5,0.7,0.6c4.9,2.4,9.2,5.8,14.4,7.5c0.3,0.1,0.6,0.1,0.9,0.1c1.4,0.9,1.8,0,1.9-1.2
		c0-2.5,0-4.9,0-7.4c-1.4-4.4,2.8-5.7,4.6-8.3c0.6,0,1.2-0.1,1.8-0.1c1.2,0.1,1.8-0.6,2-1.7c0.9-0.4,1.7-0.8,2.6-1.2
		c6.3-1.4,10.9-6.1,16.7-8.3c0.6,0,1.2,0.1,1.8,0.1c2.8,3.6,7.1,4.3,11,5.7c0.3,0,0.5,0.1,0.8,0.1c3.5,4.2,8.3,6.4,13.2,8.3
		c-0.1,5.2-0.1,10.5-0.2,15.7c-6-1.8-11-5.5-16.3-8.6c-3.3-1.9-6.3-4.3-10.4-3.7c-0.2-2.4-1.3-3.2-3.2-1.6c-4.5,3.9-9.8,6.2-14.9,9
		c-9.6,5.2-9.6,5.3-9.6,16.4c0,1.4,0,2.8,0,4.1c-4.5-0.1-7.9-3-11.7-4.8C46.5,201.4,43.2,196.2,37.2,196.1z"/>
	<path class="st67" d="M9.8,145.5C2,142.3-4.7,137-12.1,133.2c-1.6-0.8-1.4-2.6-1.4-4.1c0-4.6,0-9.2,0-13.8C-9,117.8-5,121,0,122.5
		c0.4,2.1,1.8,2.8,3.8,2.7c0.6,0.3,1.2,0.6,1.8,1c0.9,1.4,1.9,2.7,2.9,0c1.7-4-0.8-8,0.1-11.9c1.1-0.2,1.7-0.9,1.8-2
		c3.4-1.7,6.8-3.5,10.2-5.2c5.1-2.7,9.9-6.2,15.5-7.8c1.2,5.2,1.1,10.5,0.6,15.8c-6.7,1.2-11.1,7-17.1,9.3
		c-10,3.8-10.3,11.3-9.3,19.9C10.2,144.6,10,145,9.8,145.5z"/>
	<path class="st66" d="M9.9,63.1c0.5-4.9,0.1-9.7-0.3-14.6c0.9-0.2,1.9-0.3,2.6-0.8c5.4-4.4,11.8-7,17.8-10.4
		c4.3-2.4,7-4.8,6.5-10.2c-0.2-2.6-0.1-5.4-0.1-8.2c0.3-0.1,0.6-0.2,0.9-0.3c2.8,0.1,5.1,1.5,7.4,3c5,3.1,10.2,5.7,15.4,8.5
		c4.6,3.7,2.7,8.9,3,13.6c0.3,3.9-1.3,4.2-4.3,2.4C53.4,43,48,39.7,42.5,36.8c-5.5-2.9-6.4-2.3-6.2,4.1c0.1,4.1,1.2,8.2-2.9,11.2
		c-7,2.6-12.8,7.4-19.5,10.5c-0.2,0.2-0.5,0.4-0.7,0.6c-0.8,0.1-1.5,0.4-1.9,1.2C10.8,63.9,10.4,63.5,9.9,63.1z"/>
	<path class="st66" d="M9.7,192.8c6.1-1.9,10.7-6.6,16.4-9.1c0.8-0.4,1.6-1,2.4-1.4c7.3-4,7.8-3.7,7.8,4.3c0,2.6,0.5,5.2,0.8,7.8
		c-8.3,4.7-16.6,9.4-24.9,14c-3.4,1.9-2.2,5.2-2.5,7.9c-1.2,8.8-1,8.9-8.7,4.6c-0.4-0.2-0.8-0.4-1.2-0.6C-14,213-14,213-13.5,197.2
		c1.3-0.1,2.3,0.5,3.3,1.2c5.4,3.4,10.5,7.3,16.7,9.2c4.9,1.1,3.5-3,3.4-4.8C9.8,199.5,9.2,196.2,9.7,192.8z"/>
	<path class="st66" d="M9.8,145.5c0.2-0.4,0.4-0.9,0.6-1.3c1.8-0.8,3.6-1.6,5.4-2.5c6.6-3.6,13.1-7.2,19.7-10.9c0,0,0.4,0,0.4,0
		l0.4,0c0.1,5,0.3,10,0.4,15c-6.7,3-12.9,6.9-19.2,10.6c-8.2,4.9-10.1,10.4-7.1,20c-0.5,0.2-1,0.5-1.5,0.7c-1-0.4-2-0.8-2.9-1.3
		c-6.5-3.4-12.5-7.6-19.3-10.4c0-5.6,0-11.3,0-17.7c5.8,3.3,11.1,6.4,16.5,9.5c6,3.4,6.9,3,7-3.9C10.1,150.6,9.9,148.1,9.8,145.5z"
		/>
	<path class="st69" d="M90.8,180.5c4.1-0.6,7.2,1.8,10.4,3.7c5.3,3.1,10.3,6.8,16.3,8.6c0,0,0,0.4,0,0.4c0,4.1,0.1,8.3,0.1,12.4
		c0,2.6,0.9,3.4,3.3,1.9c3.6-2.3,7.4-4.2,11.4-5.6c1.1,0,1.8-0.6,1.9-1.7c2.8-1.3,5.5-2.7,8.3-4c0.1,0.9,0.3,1.6,1.1,2.1
		c0,1.2,0,2.4,0,3.6c-2.2,3.1-0.6,6.3-0.1,9.4c0,0.3,0,0.6-0.1,0.8c-4.2,2.8-9.4,2.9-13.8,5.7c-3.9,2.5-7.4,5.5-11.2,8.1
		c-0.3,0-0.5,0-0.8-0.1c-0.1-0.6-0.2-1.2-0.3-1.8c0.1-1.8-0.1-3.7,0.2-5.5c1.2-6.5-1.5-10.4-7.5-13.3c-2.8-1.4-6.6-1.7-8.3-5.1
		c3-0.8,5.1-3.2,7.6-4.9c0.7-0.5,1.7-1.1,1-2.1c-0.6-0.8-1.8-0.7-2.5-0.1c-2.4,2-5.1,3.8-6.1,7c-1.6,0.1-2.7-0.9-4-1.7
		c-2.4-1.5-4.3-3.7-7.4-4c0,0-0.1,0.1-0.1,0.1C89.9,189.9,89.3,185.2,90.8,180.5z M99.1,195.4c2.2,0,3.1-0.9,2.6-2.6
		c-0.6-1.9-0.5-4.6-3.6-4.6c-1.7,0-3.7,0.5-3.3,2.8C95.3,193.4,96.7,195.3,99.1,195.4z"/>
	<path class="st68" d="M63,240.9c0-0.5,0.1-0.9,0.1-1.4c0.1-4.5-1.2-10.3,2.1-13.1c6-5.1,12.5-10.2,20.9-11.6
		c5.2,0.8,2.5,4.7,2.7,7.3c0.1,1.4-1.1,3.1,0.4,4.3c3.8,3.2,7.1,7.5,13,6.9c0.6,0.3,1.2,0.7,1.7,1c0.1,1.2,0.8,1.8,1.9,1.8
		c0.3,0,0.6,0,0.8,0.1c0.2,1.1,0.5,2.1,1.9,0.9c0.6,0,1.2,0.1,1.8,0.1c1.2,3.8,1.3,8.1,3.9,11.2c1.8,2.2,2.6,4.4,2.5,7.1
		c-4.7,0.2-8.7-2.4-12.6-4.2c-3.8-1.8-7.4-4.4-11.4-5.9c0-1.5-1.2-2.4-1.9-3.6c0.1-2.6-0.1-5.1,0.5-7.7c0.7-3-1.9-5.6-5.1-5
		c-1.8,0.3-3.4,1.1-5,2.2c-3,2-6,4.2-9.2,5.7c-4.3,2-7.6,4.4-7.1,9.7c0.1,1.3,0.2,2.8-1.5,3.4C63.2,247,63.1,243.9,63,240.9z"/>
	<path class="st66" d="M36.9,259.1c-6.4,2.5-12.1,6.3-18,9.7c-2.8,1.6-5.5,3.3-8.5,4.4c-1.4-5.5-1.5-11.1-0.1-16.6
		c9.2-3.1,16.7-9.1,25-13.8c0.6,0.4,1.2,0.8,1.8,1.2c-0.1,0.2-0.1,0.3,0,0.5c0,1,0.1,1.9,0.1,2.9c0,1.9,0,3.7-0.1,5.6
		c0,2.1,0,4.2-0.1,6.3L36.9,259.1z"/>
	<path class="st68" d="M-13.4,165.4c6.8,2.8,12.8,7,19.3,10.4c0.9,0.5,1.9,0.9,2.9,1.3c-0.7,5.3,1,10.4,0.9,15.7
		c-0.6,3.4,0.1,6.7,0.2,10.1c0.1,1.8,1.5,5.9-3.4,4.8c0.5-0.8,1.2-1.5,1.4-2.3c0.7-2.1,1.2-4.4-0.1-6.2c-1.3-1.7-2.6,0.5-4,0.8
		c-1.1,0.2-2.2,0.2-2.9-0.8c-1-1.2-1-2.7,0.1-3.8c3.3-3.3,0.6-5.5-1.6-7c-3.9-2.6-8.1-4.9-12.9-5.7
		C-13.5,176.8-13.4,171.1-13.4,165.4z"/>
	<path class="st66" d="M90.8,180.5c-1.5,4.6-0.9,9.3-0.5,14c-7,4-14.1,7.9-21.1,11.9c-1.7,1-3.4,2-5.4,2.5c-0.2-0.2-0.5-0.4-0.7-0.5
		c0-1.4,0-2.8,0-4.1c0-11.1,0-11.2,9.6-16.4c5.1-2.8,10.4-5.1,14.9-9C89.5,177.3,90.6,178.2,90.8,180.5z"/>
	<path class="st66" d="M90.4,194.5c3,0.3,5,2.5,7.4,4c1.3,0.8,2.3,1.8,4,1.7l0.1,0.1c1.7,3.4,5.5,3.7,8.3,5.1
		c5.9,2.9,8.6,6.8,7.5,13.3c-0.3,1.8-0.2,3.7-0.2,5.5c-4.1,0.6-7.1-1.7-10.1-3.8c-5.5-3.9-12-6.2-16.8-11
		C90.6,204.4,91,199.4,90.4,194.5z"/>
	<path class="st67" d="M90.6,209.3c4.8,4.8,11.3,7.1,16.8,11c3,2.1,6,4.4,10.1,3.8c0.1,0.6,0.2,1.2,0.3,1.8c0,1.6-0.1,3.1-0.1,4.7
		c0,1.5,0,3.1,0.1,4.6c0,2-0.1,3.9-0.1,5.9c0,0,0.1,0.4,0.1,0.4c-3.7,0.7-4.3-4.1-7.5-4.3c-0.6,0-1.2-0.1-1.8-0.1
		c-0.6-0.3-1.2-0.6-1.9-0.9c-0.3-0.1-0.5-0.1-0.8-0.1c-0.2-1.1-0.8-1.7-1.9-1.8c-0.6-0.3-1.2-0.7-1.7-1c-1.9-2.5-4.5-3.9-7.2-5.3
		c-3.5-1.9-4.9-4.8-3.8-8.4c1-3.4,0-6-2-8.4C89.1,210.2,89.5,209.5,90.6,209.3z"/>
	<path class="st67" d="M36.3,18.9c0,2.7-0.1,5.5,0.1,8.2c0.5,5.4-2.2,7.8-6.5,10.2c-6,3.4-12.4,6-17.8,10.4
		c-0.7,0.5-1.7,0.5-2.6,0.8c-0.1-0.3-0.1-0.7-0.2-1c0.9-2.8,1.1-5.6,0.5-8.6c-1.1-4.9,0.5-7.3,5.3-8.9c1.8-0.6,3.2-1.7,4.8-2.7
		C25.2,24.2,29.9,20,36.3,18.9z"/>
	<path class="st69" d="M37.1,273.2c-0.1-4.7-0.1-9.4-0.2-14.1c0,0,0.1,0.1,0.1,0.1c1.6,0,3.3-1.1,4.3,1.5c1.1,2.7,4,3.4,6.9,3.2
		c3.6,3.8,8.3,5.5,13,7.4c0.7,0.9,1.3,1.9,2,2.8c-2.6,4.9,1,9.8,0,14.7l-0.1,0.1c-1.3,0.1-2.3-0.3-3.4-1c-6.5-4-13.1-8-19.7-12
		C40,273.9,39.1,273.1,37.1,273.2z"/>
	<path class="st67" d="M37.1,244.4c0-0.2,0-0.3,0-0.5c0-5.3,0.1-10.7,0.1-16c5.2,1.8,9.7,4.9,14.5,7.5c3.7,2,6.8,5.3,11.3,5.5
		c0.1,3.1,0.2,6.1,0.3,9.2c0,1.2,0,2.4-0.1,3.7c0,0.6-0.1,1.2-0.1,1.8c-3.2,2-5.1-1.1-7.2-2.2C49.7,250.2,44,245.9,37.1,244.4z"/>
	<path class="st69" d="M63.1,208.5c0.3,0.1,0.5,0.3,0.7,0.5c-1.2,3.6-0.7,7.3-0.7,10.9c0,3.3-0.1,4.9-4.3,2.9
		c-6.7-3.3-12.8-7.8-19.5-11.1c-2-1-3.3-2.8-3.1-5.2c0.3-3.5,0.6-6.9,0.9-10.3c6,0.1,9.4,5.3,14.2,7.6
		C55.2,205.5,58.6,208.3,63.1,208.5z"/>
	<path class="st66" d="M-13.4,68.6c-0.1-4.4-0.1-8.9-0.2-13.3c-0.1-2.5,0.3-3.2,3-1.8c6.5,3.1,12.1,7.8,18.9,10.1
		C9.7,69,9.7,74.5,8.5,80c-1.4-0.1-2.6-0.9-3.8-1.4C-1.6,75.8-6.7,70.7-13.4,68.6z"/>
	<path class="st67" d="M-13.4,245.2c0-3.7,0-7.4-0.2-11.1c-0.2-3.5,0.3-5,4.2-2.6c5.5,3.3,11.4,5.9,16.5,9.8
		c0.5,0.4,1.5,0.3,2.2,0.5c0,0,0.2,0,0.2,0c0,4,0,8,0,12c-1.4,2.4-2.8,3.2-5.3,1.1C-1,250.6-7.4,248.2-13.4,245.2z"/>
	<path class="st69" d="M-13.5,21.6c0-5.2,0-10.5,0-15.7c2.2,1.3,4.3,3,6.7,3.9c4.3,1.7,7.2,6.3,12.6,5.4c0,0,0,0,0,0
		c0.1,2.4,1.7,2.9,3.7,2.8c1.9,4-0.5,8,0,12c-1.2,1-0.9,2.4-0.9,3.7c-4-2.7-7.8-5.6-12.8-6.2c-0.2,0-0.5-0.4-0.6-0.7
		C-6.7,23.1-10,22.3-13.5,21.6z"/>
	<path class="st69" d="M5.7,126.2c-0.6-0.3-1.2-0.6-1.8-1c-0.4-2.2-2-2.6-3.8-2.7c-5-1.5-9.1-4.7-13.5-7.2c0-5,0-10.1,0-15.1
		c3.4,2.6,9.7,1.2,10.8,7.3c0,0.3,0.8,0.6,1.1,0.5c3.4-0.3,6.6,2.9,10,0.4c0.1,1.9,0.1,3.8,0.2,5.7c-0.9,4,1.6,8-0.1,11.9
		C7.6,126.2,6.6,126.2,5.7,126.2z"/>
	<path class="st67" d="M-13.4,68.6c6.7,2.1,11.7,7.2,18.1,10C6,79.1,7.1,79.9,8.5,80c-0.1,3.4,1.1,6.8,0.1,10.4
		c-1.2,4.4-1.6,4.7-5.7,2.5c-2.8-1.5-4.9-4.1-8.3-4.5c-0.6-0.1-1.1-0.1-1.7-0.2c-0.6-1.9-2.1-2.5-3.8-2.6c-0.3-0.1-0.6-0.1-0.9-0.1
		c-0.1-1-0.7-1.6-1.6-2C-13.4,78.5-13.4,73.5-13.4,68.6z"/>
	<path class="st68" d="M-7.1,88.1c0.6,0.1,1.1,0.1,1.7,0.2c1.1,2.8,3.9,3.8,6.1,5.1c4.7,2.8,9.4,5.2,7.3,12
		c-0.3,0.9,0.2,2.1,0.4,3.1c-3.4,2.4-6.6-0.7-10-0.4c-0.4,0-1.1-0.3-1.1-0.5c-1.1-6.1-7.3-4.7-10.8-7.3c0-5,0-9.9,0-14.9
		c0.6,0,1.1,0,1.7,0c0.3,0,0.6,0.1,0.9,0.1C-10.5,87.6-8.9,88-7.1,88.1z"/>
	<path class="st68" d="M-13.5,21.6c3.4,0.7,6.8,1.6,8.5,5.1c0.1,0.3,0.4,0.6,0.6,0.7c5,0.6,8.9,3.5,12.8,6.2
		c-1.2,2.8-2.5,5.5-0.7,8.5c1.4,2.4-1.3,2.5-2.1,3.7c-6.6-1.9-12-5.9-17.5-9.7c-1.4-1-1.8-2.3-1.8-3.9
		C-13.6,28.6-13.5,25.1-13.5,21.6z"/>
	<path class="st69" d="M-13.5,182.6c4.8,0.9,9,3.2,12.9,5.7c2.3,1.5,4.9,3.7,1.6,7c-1.1,1.1-1.1,2.5-0.1,3.8c0.8,0.9,1.8,1,2.9,0.8
		c1.4-0.3,2.7-2.5,4-0.8c1.3,1.8,0.8,4.1,0.1,6.2c-0.3,0.8-0.9,1.6-1.4,2.3c-6.2-1.9-11.4-5.7-16.7-9.2c-1.1-0.7-2-1.3-3.3-1.2
		C-13.5,192.3-13.5,187.5-13.5,182.6z"/>
	<path class="st66" d="M279.2,289.7c0,0.6-0.1,1.1-0.1,1.7c-9,0-18,0-27,0c-0.1-4.9-0.3-9.7-0.4-14.6c1-1.4,2.2-2.3,3.8-1
		c5.3,4.3,12.1,6.3,17.5,10.5c1.6,1.3,3.5,2.4,5.8,2.6C278.9,289.2,279,289.5,279.2,289.7z"/>
	<path class="st66" d="M171.1,291.5c-8.9-0.1-17.7-0.1-26.6-0.2c-0.6-4.9,0.8-10-1.9-14.6c0.4-0.5,0.8-1.1,1.2-1.6
		c3.3,0.4,6.1,2.2,8.8,3.8c6,3.6,12,7.3,18.5,10.3C171.1,289.9,171.1,290.7,171.1,291.5z"/>
	<path class="st69" d="M9.4,274.1c0,0.9,0,1.8-0.1,2.7c-6.2,0.5-7.3,1.9-5.5,7.4c-2,0-4-0.6-5.7-1.6c-3.9-2.3-7.3-5.3-11.7-6.8
		c0-4.9,0-9.8,0-14.8c5.6,2.2,10.2,6.1,15.1,9.5c2,1.4,3.5,2.7,6,2.4C8.2,273.5,8.8,273.8,9.4,274.1z"/>
	<path class="st68" d="M7.6,273.2c-2.5,0.3-4-1-6-2.4c-4.9-3.4-9.5-7.3-15.1-9.5c0-4.1,0-8.1,0-12.2c7.5-0.4,11.9,5.7,17.8,8.6
		c1.7,0.8,1.3,2.3-0.9,2.6c-2.8,0.3-2.2,1.6-0.8,2.9C5.7,265.9,6.7,269.5,7.6,273.2z"/>
	<path class="st70" d="M9.3,241.8c0.3-1.6,1.3-3.5,0.8-4.9c-2.7-7.9,1.2-12.4,7.7-15.8c4.6-2.4,9.1-4.9,13.8-7.2
		c4.5-2.2,4.5-2.2,4.6,2.9c-1.7-0.1-2.7-2.8-4.9-1c-2.1,1.8-0.8,3.4-0.1,5.3c0.6,1.8,0.4,3.9,0.5,5.9c-1,2.7-2.2,5.2-5.5,5.5
		c0.2-3.3-2.6-4.6-4.4-6.6c-0.9-1.1-2-2-3.6-1.2c-1.3,0.7-2.1,1.8-2.2,3.3c-0.1,3.1,0,6.1,0,9.2c0.3,4.9-3.5,4.2-6.4,4.7L9.3,241.8z
		"/>
	<path class="st66" d="M39.9,275.9c6.6,4,13.1,8,19.7,12c1.1,0.7,2.2,1.1,3.4,1c0,0.8,0,1.7-0.1,2.5c-8.8-0.1-17.7,0.9-26.5-0.6
		c-0.1-0.7-0.2-1.3-0.3-2c0-3.1-0.1-6.1-0.1-9.2c0-0.6,0-1.3,0-1.9c0-0.6,0-1.2,0.1-1.9c0,0,0,0,0,0
		C37.4,275.9,38.7,275.9,39.9,275.9z"/>
	<path class="st67" d="M224.7,291.4c-8.3,0-16.5-0.1-24.8-0.1c-0.8-5.4-1.1-10.8-0.9-16.3c8.4,4.7,16.7,9.4,25.1,14.1
		c0.3,0.3,0.6,0.5,0.9,0.8C224.9,290.4,224.8,290.9,224.7,291.4z"/>
	<path class="st69" d="M63,291.4c0-0.8,0-1.7,0.1-2.5c0,0,0.1-0.1,0.1-0.1c3,0.5,5.2-1.3,7.6-2.6c4.8-2.5,9.1-6,14.3-7.8
		c2.3-0.2,3.9,1.3,5.8,2.1c-0.3,3.3-0.6,6.7-0.9,10C81,292.3,72,291.6,63,291.4z"/>
	<path class="st68" d="M224.7,291.4c0.1-0.5,0.2-1.1,0.2-1.6c0.3-0.3,0.6-0.6,0.9-0.9c0.8-0.1,1.6,0.1,2.3-0.2
		c4.8-2.4,9.4-5.1,14.2-7.4c3.1-1.5,5.7-4,9.3-4.5c0.1,4.9,0.3,9.7,0.4,14.6C242.9,291.4,233.8,291.4,224.7,291.4z"/>
	<path class="st67" d="M142.7,276.7c2.7,4.6,1.3,9.7,1.9,14.6c-8,0.3-16.1,0.8-24-0.8c0.1-0.8,0.7-1.1,1.3-1.6
		c3.3-2.7,7.4-4.4,9.9-8c0.5,0,1.1-0.1,1.6-0.1C137.4,281.7,139.1,277,142.7,276.7z"/>
	<path class="st70" d="M5.6,45.8c0.8-1.2,3.5-1.3,2.1-3.7c-1.8-3-0.4-5.8,0.7-8.5c0.1-1.3-0.2-2.7,0.9-3.7c4.2-1.2,6.7-3.9,7.5-8.3
		c0.6-3.2,3.6-4.1,6.8-2.5c3.7,1.8,7.2,0,7.8-4.1c0.2-1.4,0.2-2.8,0-4.1c-0.6-4.3,0.9-5.2,4.6-3.1c0.1,3.7-0.8,7.4,1,10.9
		c-0.3,0.1-0.6,0.2-0.9,0.3c-6.4,1-11.1,5.2-16.4,8.4c-1.6,1-3,2-4.8,2.7c-4.8,1.6-6.4,4-5.3,8.9c0.6,3,0.4,5.8-0.5,8.6
		C7.9,47.4,6.2,47.9,5.6,45.8z"/>
	<path class="st68" d="M89.9,290.6c0.3-3.3,0.6-6.7,0.9-10c3.1-0.7,6.3-1.2,9.4-0.1c0.3,0,0.5,0.1,0.8,0.2c0.7,3.1,3,4.2,5.9,4.4
		c1.3-0.1,2.4,0.4,3.4,1.2c0.4,2.7,2.5,3.2,4.7,3.6l0,0c0.3,0.6,0.6,1.1,0.8,1.7c-7.5,0.1-15,0.1-22.5,0.2
		C92.1,291.6,90.8,291.7,89.9,290.6z"/>
	<path class="st69" d="M36.2,288.9c0.1,0.7,0.2,1.3,0.3,2c-7,1.6-14.1,0.5-21.1,0.7c-2.9,0.1-2.2-1.8-0.8-2.8
		c4.4-3.2,9-6.2,13.7-9.1c1.5-0.9,2.9-2.3,5-2.1c1,0.1,1.9,0.1,2.9,0.2c0,0.6,0,1.3,0,1.9C32.8,281.7,32.9,285.5,36.2,288.9z"/>
	<path class="st70" d="M8.4,108.6c-0.1-1-0.7-2.2-0.4-3.1c2.1-6.9-2.6-9.3-7.3-12c-2.2-1.3-5.1-2.3-6.1-5.1c3.4,0.4,5.6,3,8.3,4.5
		c4.1,2.3,4.5,1.9,5.7-2.5c1-3.6-0.2-6.9-0.1-10.4c1.2-5.5,1.2-11-0.2-16.4c0.5-0.2,1-0.3,1.5-0.5c0.5,0.4,0.9,0.8,1.4,1.2
		c0.9,4.8-0.5,9.8,0.9,14.6c-1.8,4.1-0.7,8.4-0.8,12.7c-0.1,1.9,1.5,2.1,2.9,2.2c-3.2,3.4-4.5,7.3-4,12c0.3,2.1,0.1,4.3,0.2,6.4
		c-0.2,1.1-0.8,1.8-1.8,2C8.6,112.4,8.5,110.5,8.4,108.6z"/>
	<path class="st69" d="M171.1,291.5c0-0.8,0-1.6,0-2.3c0,0,0.2-0.2,0.2-0.2c1.1,0.1,2-0.4,3-0.8c4-1.6,7.2-5.1,11.7-5.7
		c1.5,1.4,1.9,4.3,4.4,3.9c1.7-0.2,3.2-1.7,3-4c6.4-3.9,2.5,2.4,3.7,3.7c-2.2,1.2-4.3,2.5-4.7,5.3
		C185.4,291.5,178.2,291.5,171.1,291.5z"/>
	<path class="st66" d="M6.6,291.5c-5.6,0-11.3-0.1-16.9,0.1c-2.6,0.1-3.5-0.8-3.4-3.4c0.2-3.2,0.1-6.4,0.1-9.6
		C-6.1,281.9,0.4,286.4,6.6,291.5z"/>
	<path class="st70" d="M7.6,273.2c-0.9-3.7-1.9-7.3-4.9-10c-1.4-1.3-2-2.6,0.8-2.9c2.2-0.2,2.5-1.7,0.9-2.6
		c-5.9-2.9-10.3-9.1-17.8-8.6c0-1.3,0-2.6,0-3.8c6,3,12.4,5.4,17.6,9.7c2.5,2.1,4,1.2,5.3-1.1c0.9,0.7,0.9,1.7,0.8,2.7
		c-1.4,5.5-1.3,11.1,0.1,16.6c-0.3,0.3-0.7,0.7-1,1C8.8,273.8,8.2,273.5,7.6,273.2z"/>
	<path class="st70" d="M89,211.2c2,2.5,3.1,5,2,8.4c-1.1,3.6,0.2,6.5,3.8,8.4c2.6,1.4,5.3,2.8,7.2,5.3c-5.8,0.6-9.1-3.7-13-6.9
		c-1.5-1.2-0.2-2.9-0.4-4.3c-0.2-2.6,2.5-6.5-2.7-7.3C86.2,212.9,86.7,211.3,89,211.2z"/>
	<path class="st70" d="M6.6,291.5c-6.2-5.1-12.8-9.7-20.2-12.9c0-0.9,0-1.8,0-2.7c4.4,1.4,7.9,4.4,11.7,6.8c1.7,1,3.6,1.6,5.7,1.6
		c1,1.9,2.5,2.9,4.7,2.8C9.3,289.1,10.9,291.6,6.6,291.5z"/>
	<path class="st70" d="M197.1,286.1c-1.1-1.3,2.7-7.6-3.7-3.7c-0.7-1.1-1-2.4-1-3.7c1.3-2.2,3.3-3.3,5.8-3.8c0.2,0,0.5,0,0.7,0.1
		c-0.1,5.5,0.2,10.9,0.9,16.3c-1.2,0.1-2.4,0.1-3.6,0.2C196.6,289.7,196.8,287.9,197.1,286.1z"/>
	<path class="st68" d="M31.6,226.9c-0.1-2,0.1-4.1-0.5-5.9c-0.7-1.9-2-3.5,0.1-5.3c2.2-1.9,3.2,0.8,4.9,1c0,3.1,0,6.2,0.1,9.3
		c-0.6,0.3-1.2,0.6-1.8,0.9C33.5,226.9,32.5,226.9,31.6,226.9z"/>
	<path class="st68" d="M8.6,287c-2.2,0.2-3.7-0.9-4.7-2.8c-1.8-5.5-0.7-6.9,5.5-7.4C9.7,280.3,9.1,283.7,8.6,287z"/>
	<path class="st70" d="M115.7,291.4c-0.3-0.6-0.6-1.1-0.8-1.7c1.8,0,2.5-1.2,3-2.7c2,0.3,3.4-0.6,5-1.8c2.6-2,5.4-4,8.9-4.4
		c-2.5,3.6-6.6,5.4-9.9,8c-0.6,0.5-1.2,0.8-1.3,1.6C119,291.4,117.5,291.7,115.7,291.4z"/>
	<path class="st70" d="M5.8,15.1C0.4,16-2.6,11.4-6.8,9.7c-2.4-0.9-4.5-2.6-6.7-3.9c0-0.7,0-1.4,0-2.1C-6.9,7.2-0.2,10.6,5.8,15.1z"
		/>
	<path class="st70" d="M34.4,226.9c0.6-0.3,1.2-0.6,1.8-0.9c0.3,0.6,0.7,1.2,1,1.9c0,5.3-0.1,10.7-0.1,16c-0.6-0.4-1.2-0.8-1.8-1.2
		C35,237.4,34.7,232.2,34.4,226.9z"/>
	<path class="st68" d="M197.1,286.1c-0.3,1.8-0.5,3.6-0.8,5.4c-1.3,0-2.6,0-3.8,0C192.8,288.6,194.9,287.3,197.1,286.1z"/>
	<path class="st70" d="M39.9,275.9c-1.2,0-2.5,0-3.7,0c0.3-0.9,0.6-1.8,0.9-2.7C39.1,273.1,40,273.9,39.9,275.9z"/>
	<path class="st70" d="M36.2,277.8c-1-0.1-1.9-0.1-2.9-0.2c0.5-1.4,1.6-1.8,3-1.6C36.2,276.5,36.2,277.2,36.2,277.8z"/>
	<path class="st67" d="M197.5,65c0.4,0.6,0.8,1.2,1.2,1.8c0.1,5.3,0.2,10.5,0.4,15.8c-0.3,0.2-0.6,0.5-0.9,0.7
		c-6.1,1.1-10.9,5.1-16.1,7.9c-3.4,1.8-6.5,3.9-10.4,4.4c-0.2-2.5-0.3-5-0.5-7.5c0-1.5,0-3.1,0-4.6c1.2-1.6,0.8-3.8,3.3-5
		C182.5,74.6,190.2,70.2,197.5,65z"/>
	<path class="st65" d="M224.9,65.1c-8.5-5.8-17.6-10.5-26.6-15.4c-0.1-3.5-0.1-7-0.2-10.5c0.1-2-0.6-4.2,1.7-5.5
		c8,4.8,15.9,9.8,24.3,14c0.5,0.3,1,0.6,1.5,0.8c1,2.1-1.5,4.3,0.1,6.5c0,1.9,0.1,3.7,0.1,5.6c0,1.5,0,3,0,4.5
		C225.5,65,225.2,65.1,224.9,65.1z"/>
	<path class="st65" d="M198.2,83.3c0.3-0.2,0.6-0.5,0.9-0.7c4.9,0.8,8.2,4.6,12.4,6.5c4.2,1.9,7.5,5.9,12.6,5.6
		c0.1,0.9,0.6,1.6,1.5,2c-0.2,5.2,1.1,10.6-0.9,15.7c-4.8-1.5-8.4-5-12.8-7.2C198.4,98.5,198.4,98.5,198.2,83.3z"/>
	<path class="st68" d="M197.5,65c-7.3,5.2-15,9.6-23,13.5c-2.5,1.2-2.1,3.4-3.3,5c-5.1-3.4-10.3-6.7-14.8-11
		c4.3,0.3,6.9,3.7,10.5,5.4c2.9,1.4,4.2,0.6,4.3-2.3c0.2-3.5,0.1-7.1,0.1-10.6c0.6-0.3,1.2-0.6,1.8-1c2.1-0.3,4.1-1.3,5.9-2.2
		c3.8-1.7,7.9-3.9,10.4-7c2.6-3.3,4.8-5.1,8.9-3.8C198,55.8,197.7,60.4,197.5,65z"/>
	<path class="st65" d="M278.5,79.8c0.3,1.2,0.7,2.5,1,3.7c-0.8,4.3,1.2,8.7-0.3,13.1c-7.1-2.8-13-7.8-19.9-10.9
		c-5.7-2.6-7.7-6.6-6.8-12.6c0.3-2-0.3-4.2-0.5-6.3c0.2-0.2,0.5-0.4,0.7-0.6c0.6,0,1.2,0,1.8,0c1.5,0.9,3,1.8,4.5,2.8
		c0.3,1,0.9,1.7,2,1.7c1.4,0.9,2.7,2.3,4.2,2.8C269.9,74.8,273.1,79.5,278.5,79.8z"/>
	<path class="st68" d="M224.8,112.3c2-5.2,0.6-10.5,0.9-15.7c6.7-2.2,12.4-6.4,18.5-9.8c0.1-0.1,0.2-0.2,0.4-0.3
		c2.1-1,4.2-3.6,6.5-2.4c2,1.1,0.8,4,0.8,6c0,3.1,0.4,6.1,1.1,9.1c-0.8,3.4,0.8,7-1.1,10.2c-1.8-2.2-0.7-4.7-1-7.1
		c-0.2-1.1-0.4-2.2-1.5-2.7c-1.4-0.5-1.8,0.4-2.3,1.5c-1.2,2.7-3.3,2.1-4.8,0.7c-2.6-2.5-3.2-1.4-3.4,1.4c-0.2,1.7,0.8,5-2.6,3.7
		c-2.9-1.1-2.2,4.1-5,2.2c-1.9-1.3-2.3,0.2-2.9,1.5c-0.6,1.5-0.7,3.4-2.5,4.2C224.8,114.3,224.8,113.3,224.8,112.3z"/>
	<path class="st67" d="M252.6,66c-0.2,0.2-0.5,0.4-0.7,0.6c-7.5,2.4-13.7,7.3-20.6,10.9c-1.5,0.8-3,2.2-4.6,1.6c-2-0.8-1-3-1-4.5
		c-0.1-3.2,0.1-6.4-0.8-9.6c0.3,0,0.6-0.1,0.8-0.1c6-3.5,12.9-5.6,17.5-11.1c0.6-0.1,1.2-0.1,1.9-0.2c4.1-1.1,7.1-1.2,6.8,4.6
		C251.9,60.8,252.6,63.5,252.6,66z"/>
	<path class="st68" d="M224.1,94.6c-5.2,0.4-8.4-3.7-12.6-5.6c-4.3-1.9-7.6-5.7-12.4-6.5c-0.1-5.3-0.2-10.5-0.4-15.8
		c2.3,0,3.9,1.6,5.8,2.6c4.8,2.5,8.8,6.1,13.9,8.1c6,2.3,6.9,7.5,6.6,13C224.9,92,224.4,93.3,224.1,94.6z"/>
	<path class="st69" d="M198.2,51.2c-4.1-1.3-6.3,0.5-8.9,3.8c-2.5,3.2-6.6,5.3-10.4,7c-1.8,0.8-3.8,1.8-5.9,2.2
		c0.1-3.5-0.2-7.1,0.4-10.5c1.2-7.1,16.2-15.7,24.7-14.5c0.1,3.5,0.1,7,0.2,10.6C198.3,50.2,198.2,50.7,198.2,51.2z"/>
	<path class="st65" d="M172.2,16c7-4.6,15.1-7.4,21.6-12.8c1.4-1.1,2.6-2.2,4.5-1.9c0.3,0.5,0.6,0.9,0.8,1.4
		c-0.1,4.7-0.2,9.4-0.2,14.1c-0.3,0.5-0.6,1-0.8,1.5c-8.9,2.5-15.9,8.9-24.2,12.6c-1.9,0.8-2.8,3-2.6,5.5c0.2,3.7,0,7.3,0,11
		c0,0,0.1-0.1,0.1-0.1c-2,0.4-3.5-0.8-5.1-1.7c-6.9-3.8-13.9-7.7-20.8-11.5c-0.1-1.4,0.1-3-1.8-3.6c0-3.9,0-7.8,0-11.7
		c0,0,0.1-0.2,0.1-0.2c8.7,1.2,15.3,7.2,22.9,10.8c3.2,1.5,4.5,1.2,4.7-2.4c0.1-3.7,0-7.3,0-11C171.5,16.2,171.9,16.1,172.2,16z"/>
	<path class="st66" d="M225.6,48.4c-0.5-0.3-1-0.6-1.5-0.8c0-5.1,0.1-10.2,0.1-15.3c0.6-0.4,1.2-0.8,1.8-1.3
		c6.6-0.5,11.1-5.2,16.6-8c3-1.6,5.7-4.1,9.4-4.1c0.2,4.9,0.3,9.8,0.5,14.7c-0.4,0.5-0.7,1-1.1,1.5c-0.9,0.4-1.8,0.7-2.7,1.1
		c-4.3,2.5-8.6,4.9-13,7.4c-1.3,0.2-2.2,0.9-2.9,2c-0.3,0.2-0.6,0.4-0.9,0.7C229.9,46.9,227.7,47.7,225.6,48.4z"/>
	<path class="st66" d="M279.3,16.3c-0.4,5.4,1,11-1.1,16.3c-8.1-4.9-15.9-10.3-24.7-13.9c-2.2-5.4-1.1-10.9-0.8-16.4
		c0.3,0,0.5-0.1,0.8-0.2C262.1,6.8,270.7,11.5,279.3,16.3z"/>
	<path class="st68" d="M226,31c-0.6,0.4-1.2,0.8-1.8,1.3c-3.3-5.5-10-5.8-14.7-9.2c-2.3-1.6-4.2-4.7-7.8-4.3c-1-0.6-2-1.3-2.9-1.9
		c0.1-4.7,0.2-9.4,0.2-14.1c7.7,4.1,15.6,7.8,22.8,12.8c2.9,2,2.6,5.3,3,8.3C225.2,26.3,224.5,28.8,226,31z M221,18.3
		c-0.2-1.2-1-2-2.4-2.1c-1,0-1.9,0.3-1.8,1.4c0.1,1.5,1,2.5,2.6,2.6C220.5,20.3,220.9,19.4,221,18.3z"/>
	<path class="st70" d="M225.7-0.7c0.4,0,0.7,0,1.1,0.1c0,3.3,0.2,6.6,0,9.9c-0.2,2.9,1,4.2,3.9,4c-0.6,1.9-2.1,2.7-3.9,2.3
		c-1.9-0.4-2-2.2-1.8-3.7c0.4-4.3-1-8.4-0.9-12.6C224.5-0.6,225.1-0.6,225.7-0.7z"/>
	<path class="st70" d="M253.5,2c-0.2,0.1-0.5,0.2-0.8,0.2c-4.3,1.3-7.5,4.9-12.1,5.4c2.1-5,7.1-5.4,11.3-7.3
		C252.8,0.5,253.4,1,253.5,2z"/>
	<path class="st70" d="M231.3,13.3c1.1-4.4,5.1-4.4,8.4-5.5C237.8,10.9,234.2,11.5,231.3,13.3z"/>
	<path class="st68" d="M235.8,43.5c4.3-2.5,8.6-4.9,13-7.4c0.7,1.1,1.7,1.2,2.9,1.2c0.1,6.6,2.1,12.3,7.8,16.2
		c4.6,3.2,10.7,3.9,14.3,8.9c1,1.4,3.2,0.7,4.8,0.9c0.1,0.2,0.1,0.4,0,0.7c-1.4,4.4-1.8,8.8,0.1,13.2c0,0.5,0,1.1-0.1,1.6
		c-0.1,0.4-0.1,0.7-0.2,1.1c-5.3-0.3-8.5-5-13.3-6.5c-1.5-0.5-2.8-1.8-4.2-2.8c-0.1-1.2-0.8-1.7-2-1.7c-1.5-0.9-3-1.8-4.5-2.8
		c0.2-3.7-0.6-7.3-0.6-10.9c0-2.8,0.2-5.2-2.7-6.4c-3.5-1.4-3.7,2.3-5.3,3.7c-0.3,0.3-0.4,0.8-0.6,1.2c-0.6,0.1-1.2,0.1-1.9,0.2
		c-1.9-1.7-3,0.2-4.4,0.9c-4.2,2.3-8.7,4-13.2,5.7c0-1.9-0.1-3.7-0.1-5.6c3-2.3,5-5.3,6.4-8.8c0.3-0.2,0.6-0.4,0.9-0.7
		C234.4,45.7,235.8,45.6,235.8,43.5z"/>
	<path class="st69" d="M278.6,63.3c-1.6-0.2-3.8,0.6-4.8-0.9c-3.6-4.9-9.7-5.7-14.3-8.9c-5.7-3.9-7.7-9.6-7.8-16.2
		c-0.1-0.8-0.1-1.5-0.2-2.3c0.4-0.5,0.7-1,1.1-1.5c7.3,5.1,15.8,8.2,23,13.6c2.3,1.7,3.3,3.3,3.1,6
		C278.5,56.5,278.6,59.9,278.6,63.3z"/>
	<path class="st70" d="M278.7,77.2c-1.9-4.4-1.5-8.8-0.1-13.2c0.8,0.1,1.5,0.2,2.3,0.2c-1.8,2.5-1.5,5.4-1.5,8.2
		C279.4,74,279.7,75.7,278.7,77.2z"/>
	<path class="st67" d="M252.6,146.4c-0.1,5.3-0.1,10.6-0.2,15.9c-0.3,0.5-0.5,1-0.8,1.5c-6.9,1.4-12.4,5.6-18.3,9.1
		c-7.9,4.6-10.1,10.6-7.6,19.7c-0.2,0.1-0.4,0.1-0.6,0.1c-0.4,0-0.8,0-1.1,0l0,0c-0.3-0.3-0.6-0.5-0.9-0.8
		c-4.6-1.9-9.1-3.9-13.7-5.8c-2.6-4.1-6.2-6.5-11.2-6.4c0.3-5.2-1.1-10.5,0.9-15.6c3.1-0.2,5.9,0.3,8,3c0.7,1,1.7,1.7,3.1,1.6
		c0.9,0.4,1.7,0.7,2.6,1.1c1.3,2.7,4.7,1.8,6.5,3.8c0.6,0.3,1.2,0.6,1.8,0.9c1.1,2.1,2.1,2.4,3.1-0.1c0-0.9,0.1-1.7,0.1-2.6
		c1.8-0.7,1.8-2.2,1.7-3.8c-0.2-2.8-0.6-5.6-0.9-8.4c2.1,0,4.1-0.1,4.8-2.6c0.5-0.1,1.1-0.1,1.6-0.2c1.8-0.2,2.8-1.3,3.7-2.8
		c1.6,0,2.8-0.8,4.1-1.7c4.1-2.5,7.9-5.5,12.6-6.8C252.1,145.8,252.3,146.1,252.6,146.4z"/>
	<path class="st65" d="M252.6,146.4c-0.3-0.3-0.5-0.6-0.8-0.9c0-0.6,0-1.2-0.1-1.8c1.8-0.6,1.7-1.2,0.1-2c0-0.6,0-1.2,0-1.7
		c1.4-3.1,0.6-6.3,0.6-9.4c0,0,0,0,0,0c0.7,0,1.3,0,2,0.1c0.9,2,2.7,2,4.5,2c4.2,4.4,9.8,6.8,14.9,9.9c1.5,0.5,3.1,0.9,4.6,1.4
		c0.1,0.3,0.2,0.5,0.4,0.8c0,3.7-0.2,7.4,0,11.1c0.1,3.9-1.5,4.2-4.5,2.5c-6.4-3.7-12.8-7.4-19.2-11
		C254.4,146.8,253.4,146.7,252.6,146.4z"/>
	<path class="st70" d="M288.7,171.5c-0.3,1.7-1.3,3-2.8,3.5c-5.6,1.8-6.4,6.4-6.8,11.3c-2.3-0.9-2.8-2.9-2.4-4.9
		c0.5-2.1,0.2-3.4-2-4.4c-2.2-1-4.1-1.2-5.8,0.7c-0.4,0.5-0.9,0.9-1.3,1.3c-1,0.9-2.1,2.3-3.4,0.5c-1-1.4,0.1-2.1,1.3-2.7
		c1.7-0.9,2.1-1.7-0.2-2.6c-3.8-1.5-5.6-4.9-7.3-8.3c5.9,1.7,10.4,6,15.9,8.4c1.7,0.8,3.8,3.7,5.5-0.1
		C283.2,175.1,285.5,171.7,288.7,171.5z"/>
	<path class="st70" d="M251.6,163.8c0.3-0.5,0.5-1,0.8-1.5c2.4,0.2,4.2,1.1,5.1,3.4c-2.9,0.2-3.3,1.6-3.5,4.5
		c-0.4,6.6,3.5,9.7,8.4,12.3c1.2,0.6,2,1.3,2.2,2.6c-4.2-0.5-6.7-4.9-11.2-4.6c-0.1-1.1-0.7-1.7-1.8-1.9
		C251.5,173.7,252.6,168.8,251.6,163.8z"/>
	<path class="st66" d="M224.8,112.3c0.1,1,0.1,2,1,2.7c0,0.6,0.1,1.2,0.1,1.9c-0.2,2.4-0.6,4.9-0.6,7.3c0,1.3,0.1,3,1.7,3.5
		c1.5,0.5,2.7-0.1,3.4-1.6c2-1.1,4-2.1,5.9-3.2c5.1-3.1,10-6.7,15.7-8.7c0.2,1.2,0.5,2.3,0.7,3.5c-0.1,4.3-0.2,8.6-0.2,12.9
		c0,0,0,0,0,0c-6,1.9-11.4,4.7-15.9,9.2c-2.8,0.2-4.4,2.7-7.1,3.2c-1.3,0.3-2.6,0.6-3.8,0.9c0-2-0.3-4.1,0-6
		c1.2-6.2-1.5-9.9-6.9-12.5c-6.9-3.3-13-8.1-20.4-10.6c-0.1-2.1-0.3-4.2-0.4-6.2c0.2-1.9,1.2-3.6,0.8-5.6c0.1-1.8-0.3-3.4-2.3-3.6
		c-1.7-0.1-4-1.1-4.8,1.7c-0.6,0.3-1.3,0.7-1.9,1c-3.4,1.3-6.2,3.5-8.7,6.2c-0.8,0.4-1.6,0.7-2.4,1.1c-2.7,0.5-4.5,3.1-7.5,2.8
		c-0.3-0.3-0.5-0.6-0.8-0.9c1.1-5.2-0.2-10.5,1.2-15.6c3.9-0.5,7-2.6,10.4-4.4c5.3-2.8,10-6.8,16.1-7.9c0.2,15.2,0.2,15.1,13.8,21.9
		C216.4,107.4,220,110.9,224.8,112.3z"/>
	<path class="st69" d="M252,114.2c-5.7,2-10.6,5.6-15.7,8.7c-1.9,1.2-4,2.2-5.9,3.2c-2.9-0.1-3.5-1.7-3-4.3c0.4-1.8,1.3-4-1.5-4.9
		c0-0.6-0.1-1.2-0.1-1.9c1.8-0.8,1.9-2.7,2.5-4.2c0.6-1.3,1-2.9,2.9-1.5c2.8,1.9,2-3.3,5-2.2c3.5,1.3,2.5-2,2.6-3.7
		c0.3-2.8,0.9-3.9,3.4-1.4c1.6,1.5,3.6,2,4.8-0.7c0.5-1.1,0.9-2.1,2.3-1.5c1.1,0.4,1.3,1.5,1.5,2.7c0.3,2.4-0.8,5,1,7.1
		C251.8,111,251.9,112.6,252,114.2z"/>
	<path class="st68" d="M259,132.7c-1.8,0-3.6,0-4.5-2c0-4.6,0-9.1,0-13.7c5.3,0.3,9.1,3.8,13.4,6.2c10.8,6,10.7,6.1,10.7,18.5
		c0,0.8,0,1.5-0.1,2.3c-1.5-0.5-3.1-0.9-4.6-1.4c0-1.8-0.4-4.2-1.8-4.4C267.2,137.4,264.2,132.2,259,132.7z"/>
	<path class="st70" d="M254.5,116.9c0,4.6,0,9.2,0,13.7c-0.7,0-1.3,0-2-0.1c0.1-4.3,0.2-8.6,0.2-12.9
		C253.3,117.4,253.9,117.1,254.5,116.9z"/>
	<path class="st67" d="M253.5,180.5c4.5-0.3,7,4.1,11.2,4.6c1.2,0.3,2.2,0.9,2.8,2c1.2,2.5,3.5,1.6,5.5,1.9c0.5,1.4,2,1.8,2.9,2.8
		c0.9,2.4,2.1,4.8,2.6,7.3c0.9,4.9-1.1,7.1-5.6,6.9c-4.2-2.1-8.8-3.6-12.3-6.9c-2.6-2.5-5.4-3.9-9-3.8c0.4-3.6,1.6-7.1,0.2-10.9
		C251.3,183,252.1,181.5,253.5,180.5z"/>
	<path class="st70" d="M272.9,206c4.4,0.2,6.4-2.1,5.6-6.9c-0.4-2.5-1.7-4.9-2.6-7.3c4.1,2,4.9,5.5,4.2,9.6
		c-0.4,2.4-1.3,4.8,0.3,7.1c-0.1,1.1-0.6,1.8-1.7,2C277.3,208.2,273.5,209.2,272.9,206z"/>
	<path class="st70" d="M279.4,189.2c4.6-0.2,9-1.1,13-3.6c-2.1,4.9-7.2,4.4-11.1,6C279.9,192.2,279.5,190.5,279.4,189.2z"/>
	<path class="st70" d="M272.9,189c-1.9-0.2-4.3,0.6-5.5-1.9C269.4,187.6,272,185.9,272.9,189z"/>
	<path class="st65" d="M90.7,1.8c4.9,2.4,10,4.2,14.4,8c3.3,2.9,7.3,6.5,12.7,6c0,5.3-0.1,10.7-0.1,16c-0.3,0.1-0.5,0.1-0.8,0.2
		c-4.5-1.9-8.6-4.7-12.9-7c-4.3-2.2-7.9-6-13-6.4c-2.2-1.5-3.7,0.4-5.3,1.3c-6.2,3.5-12.5,6.9-18.6,10.6c-1.7,1-2.7,0.9-3.8-0.6
		c-0.1-4.6-0.1-9.2-0.2-13.8c0,0,0.1-0.1,0.1-0.1c4,0.2,6.8-2.5,10-4.2C79,8.5,84.8,5.1,90.7,1.8z"/>
	<path class="st66" d="M117.6,31.9c0-5.3,0.1-10.7,0.1-16c0,0,0-0.4,0-0.4c7.1-2.9,13.5-6.9,20-10.8c1.8-1.1,3.5-2.5,5.8-2.4
		c1.7,5.5,0.8,11,0.2,16.5c0,0-0.1,0.2-0.1,0.2c-5.2,1.8-9.8,4.7-14.6,7.4C125.3,28.5,122.1,31.6,117.6,31.9z"/>
	<path class="st70" d="M118.5-0.5c1.5-0.4,3.1-0.7,4.6-1.1c0.2,4.9-2.5,8.6-5.4,12.1C117.5,6.8,117.3,3.1,118.5-0.5z"/>
	<path class="st69" d="M63,16.1c0.1,4.6,0.1,9.2,0.2,13.8c-1,0.1-2.1,0.2-3.1,0.2c-5.1-2.8-10.4-5.4-15.4-8.5
		c-2.4-1.5-4.6-2.9-7.4-3c-1.9-3.5-0.9-7.3-1-10.9c0.3-1.8,0.6-3.7,1-5.5c6.3,3.5,12.7,6.9,19,10.4C58.4,13.9,60.4,15.6,63,16.1z"/>
	<path class="st68" d="M37.2,2.2c-0.3,1.8-0.6,3.7-1,5.5c-3.7-2.1-5.2-1.2-4.6,3.1c0.2,1.4,0.2,2.8,0,4.1c-0.6,4.1-4.1,6-7.8,4.1
		c-3.3-1.6-6.2-0.7-6.8,2.5c-0.8,4.4-3.3,7.1-7.5,8.3c-0.5-4,1.9-8,0-12c0-0.7-0.1-1.3-0.1-2c0.1-0.6,0.1-1.2,0.2-1.7
		c0.9-0.5,1.8-0.5,2.6,0c2.2-0.4,4.3-1,4.7-3.7c0.9,0,1.8,0,2.7,0C25.7,8.5,31,4.9,36.2,1.3C36.5,1.6,36.8,1.9,37.2,2.2z"/>
	<path class="st70" d="M172.2,16c-0.3,0.1-0.6,0.1-0.9,0.2c-7.3-2.7-14.5-5.7-19.7-11.9c4.1,0.8,7.2,3.7,10.9,5.2
		c2.9,1.2,5.6,2.2,8.7,2C172.1,12.9,172.2,14.4,172.2,16z"/>
	<path class="st67" d="M278.5,240c1.8,5.7,0.5,11.6,0.9,17.4c0,0,0,0,0,0c-4.7-0.3-7.7-4.3-11.9-5.6c-1-2.5-3.4-3-5.7-3.5
		c-0.9-0.4-1.8-0.7-2.7-1.1c-1-3.3-3.6-4.4-6.7-4.5c0-5.2,0.1-10.4,0.1-15.6c3.6,0.3,6,3,8.9,4.5C267.1,234.5,271.8,239.3,278.5,240
		z"/>
	<path class="st69" d="M272.9,206c0.6,3.2,4.4,2.2,5.8,4.5c0.9,4.6-0.2,9.1,0,13.7c-0.4,0-0.8,0.1-1.2,0.1c-0.6-0.1-1.1-0.2-1.7-0.3
		c-0.9-2.1-2.6-3.1-4.7-3.5c-5.2-2.8-10.4-5.7-15.6-8.5c-2.8-2-5.1-5-4-8.1c1-3,0.3-5.6,0.3-8.3l0-0.2c3.6-0.2,6.4,1.3,9,3.8
		C264.1,202.4,268.7,203.8,272.9,206z"/>
	<path class="st65" d="M255.4,212c5.2,2.8,10.4,5.7,15.6,8.5c0.6,2.5,2.4,3.3,4.7,3.5c0.6,0.1,1.1,0.2,1.7,0.3
		c2,5.1,0.8,10.5,1.1,15.8c-6.7-0.8-11.4-5.5-17-8.4c-3-1.5-5.3-4.2-8.9-4.5c0,0-0.1-0.3-0.1-0.3c0-2.1,0-4.2,0-6.3
		c0.1-1.8,0.2-3.6,0.2-5.3C252.5,213.1,253.4,212.1,255.4,212z"/>
	<path class="st70" d="M287.9,252c-0.5,1.4-1.2,2.6-3,2.4C285.2,252.8,286.2,251.9,287.9,252z"/>
	<path class="st70" d="M19.5,10.5c-0.9,0-1.8,0-2.7,0c-4.1-2-4.4,0.9-4.7,3.7c-0.9-0.5-1.7-0.5-2.6,0c-0.2-1.9-0.3-3.7,0.7-5.4
		c0.6-1.3,1.3-2.5,1.9-3.8c1.5,0.2,2.9,0.6,4.4,0.6C20.4,5.6,20.8,7.5,19.5,10.5z"/>
	<path class="st68" d="M12.2,5c-0.6,1.3-1.3,2.5-1.9,3.8c0-2.2,0-4.4,0-6.6c0.3,0,0.7,0,1,0C12.2,2.9,12.2,3.9,12.2,5z"/>
	<path class="st70" d="M9.3,15.9c0,0.7,0.1,1.3,0.1,2c-2,0.1-3.5-0.4-3.7-2.8C6.9,15.3,8.1,15.6,9.3,15.9z"/>
	<path class="st69" d="M251.7,276.9c-3.6,0.5-6.2,3-9.3,4.5c-4.8,2.3-9.5,4.9-14.2,7.4c-0.6,0.3-1.5,0.2-2.3,0.2
		c-0.1-0.7-0.2-1.3-0.2-2c0-0.9,0-1.7,0-2.6c1.5-1.5,1.5-3.1,0.1-4.6c0-1.5,0-3-0.1-4.5c0.3-0.7,0.7-1.3,1-2
		c1.2-1.6,3.4-0.5,4.6-1.9c2.8-1.3,6-2,7.5-5.2c4.8-2.2,9.4-4.7,13.7-7.8c3.6,0.6,5.5,4.3,8.6,5.3c3.5,1.1,5.6,4.4,9.3,5.1
		c1,0.2,1.1,3.2,3.3,2.2c1.8-0.8,0.8-2.7,1.1-4.2c0.4-2.1-1.5-5.3,2.7-5.6c0.8,3.6-1.6,7.7,1.5,11.1c0.2,0.4,0.3,0.8,0.5,1.2
		c0.1,5.2-1.5,10.3-0.8,15.5c-2.2-0.1-4.1-1.3-5.8-2.6c-5.4-4.3-12.2-6.2-17.5-10.5C253.8,274.6,252.6,275.4,251.7,276.9z"/>
	<path class="st68" d="M277.5,261.2c-4.2,0.2-2.3,3.5-2.7,5.6c-0.3,1.4,0.6,3.3-1.1,4.2c-2.1,1-2.2-1.9-3.3-2.2
		c-3.7-0.8-5.8-4-9.3-5.1c-3.1-1-5-4.7-8.6-5.3c0-3.7,0.1-7.4,0.1-11c2.2-0.9,4.4-0.7,6.5-0.1c0.9,0.4,1.8,0.7,2.7,1.1
		c0.6,3.2,3.4,2.9,5.7,3.5c4.3,1.3,7.2,5.2,11.9,5.6c-0.2,0.9-0.3,1.8-0.5,2.8C278.5,260.5,278,260.9,277.5,261.2z"/>
	<path class="st70" d="M277.5,261.2c0.5-0.3,0.9-0.7,1.4-1c0.8,4,0.4,8,0.1,12.1C275.9,268.9,278.4,264.8,277.5,261.2z"/>
	<path class="st67" d="M151.5,4.3c5.2,6.2,12.3,9.3,19.7,11.9c0,3.7,0.2,7.3,0,11c-0.1,3.5-1.5,3.8-4.7,2.4
		C159,26,152.4,20,143.7,18.8c0.6-5.5,1.5-11-0.1-16.5c0,0,0-0.2,0-0.2c1.8,0.4,3.7,0.8,5.5,1.2C149.9,3.6,150.7,3.9,151.5,4.3z"/>
	<path class="st70" d="M149,3.2c-1.8-0.4-3.7-0.8-5.5-1.2c0.3-0.9,0.6-1.7,0.9-2.6C146.7-0.2,148,1.3,149,3.2z"/>
	<path class="st69" d="M10.3,176.4c-3-9.6-1.2-15.1,7.1-20c6.3-3.8,12.5-7.6,19.2-10.6c0.2,0.4,0.4,0.8,0.6,1.1
		c-0.1,4.8-0.3,9.6-0.4,14.3c-3.3,0.1-5.8,1.3-7,4.6C23.3,169.4,16.8,172.9,10.3,176.4z"/>
	<path class="st66" d="M117.5,192.8c0.1-5.2,0.1-10.5,0.2-15.7c0,0,0,0,0,0c6.4-3.3,12.8-6.5,18.5-10.8c2.2-1.6,4.5-3.2,7.5-3.1
		c-0.1,5.4-0.1,10.9-0.2,16.3c-1.6,0.1-2.8,1-4.2,1.8c-7.3,4-14.2,8.6-21.8,11.9L117.5,192.8z"/>
	<path class="st70" d="M29.8,165.9c1.1-3.3,3.7-4.5,7-4.6c6.1,5.4,13.5,8.7,20.4,12.7c5.4,3.1,5.6,2.9,6.2-3.4
		c1.5,1.2,2.9,2.5,4.4,3.7c-1.8,2.6-6,3.9-4.6,8.3c-1.9-0.2-1.7-1.8-2.2-3c-0.5-1.1-1.4-1.6-2.6-1.5c-1.6,0.2-0.8,1.5-1.2,2.3
		c-2.2,4.6,1.6,7.2,3.1,10.6c-5.2-1.7-9.5-5.1-14.4-7.5c-0.3-0.1-0.4-0.5-0.7-0.6c-7.4-2.2-9.4-7.1-8.7-14.6
		C36.9,163.6,35.7,163.5,29.8,165.9z"/>
	<path class="st69" d="M67.7,174.2c-1.5-1.2-2.9-2.5-4.4-3.7c0-1.2,0-2.5,0-3.7c3-1.9,1-4.9,1.6-7.4c0.6-0.1,1.2-0.1,1.8-0.2
		c5.2-1.4,9-5.9,15-5.7c2.7,0.1,1.2-2.2-0.2-3.3c1-1.5,3.5-1.4,3.7-3.7c1.2,0,2.5,0,3.7,0c2,0.9,1.8,3.1,2.8,4.6
		c-1.1,1-1.1,1.9,0,2.8c0,0.9,0,1.8,0,2.7c-0.3,1.6-0.7,3.1-1,4.7c-5.1,0.1-8,4.7-12.4,6.2c-1.8,0.6-3.9,1.3-4.3,3.7
		c-0.9,0.4-1.7,0.8-2.6,1.2c-1.1,0-1.8,0.5-2,1.7C68.9,174.2,68.3,174.2,67.7,174.2z"/>
	<path class="st70" d="M91.8,151.1c-1-1.5-0.8-3.7-2.8-4.6c-1.3-2.2-0.9-4.7-0.9-7c-0.1-2.4-0.5-4.5-3.2-5.3c0.9-1.6,2-2.9,4-2.3
		c2.2,0.6,1.8,2.6,1.9,4.2c0.1,2,0.1,4,0,6c-0.1,2.3,0.7,3.8,2.7,4.9c6.8,3.8,13.5,7.8,20.3,11.7c1.7,1,3.2,1.2,4-1.1
		c2-0.1,4-0.6,5.6-1.8c7.1-5.1,15.1-8.5,22.9-12.1c5.9,1.3,9,6.2,12.9,10.1c-3.7-1.2-6.9-3.3-9.8-5.7c-2.1-1.6-4-2.1-6.3-0.9
		c-5.2,2.6-10.3,5.4-15.6,7.7c-8.1,3.7-11.7,9.5-9.9,18.5c0.2,1.2,0.1,2.4,0.1,3.7c0,0,0,0,0,0c-4.9-1.9-9.7-4-13.2-8.3
		c2.7,1.5,5.3,0.9,8.1-0.2c2.8-1.1,2.3-3.3,2.2-5.4c0-1.5-0.7-2.8-2.5-2.7c-2.2,0.2-3.1,1.6-3.1,3.8c0,0.9-0.1,2.1-1.3,2
		c-1.5-0.1-1.4-1.4-1.4-2.5c0.1-4.3-1.2-7.8-5.1-10c-1.1-0.6-2.6-1.5-3,0.3c-1,4.7-3.9,3.2-6.7,2.5c0-0.9,0-1.8,0-2.7
		c1.9-0.1,4.3-0.5,3.9-2.8C95.2,149.2,93.1,150.6,91.8,151.1z"/>
	<path class="st68" d="M91.7,156.6c2.8,0.7,5.7,2.2,6.7-2.5c0.4-1.7,1.9-0.9,3-0.3c3.9,2.2,5.2,5.8,5.1,10c0,1-0.1,2.4,1.4,2.5
		c1.2,0.1,1.3-1.1,1.3-2c0-2.2,0.8-3.6,3.1-3.8c1.7-0.1,2.4,1.1,2.5,2.7c0,2.1,0.6,4.3-2.2,5.4c-2.7,1-5.3,1.6-8.1,0.2
		c-0.3,0-0.5,0-0.8-0.1c-1.8-3.4-7.3-6.2-11-5.7c-0.6,0-1.2-0.1-1.8-0.1c0-0.5,0-1.1-0.1-1.6C91.1,159.7,91.4,158.2,91.7,156.6z"/>
	<path class="st68" d="M60.3,191c-1.5-3.4-5.3-6.1-3.1-10.6c0.4-0.8-0.4-2.1,1.2-2.3c1.2-0.1,2.1,0.4,2.6,1.5c0.5,1.2,0.3,2.8,2.2,3
		c0,2.5,0,4.9,0,7.4c-0.8,0.1-1.5,0.4-1.9,1.2C60.8,191.1,60.5,191.1,60.3,191z"/>
	<path class="st70" d="M90.8,161.3c0,0.5,0,1.1,0.1,1.6c-5.8,2.2-10.5,6.9-16.7,8.3c0.4-2.5,2.5-3.1,4.3-3.7
		C82.8,166,85.6,161.4,90.8,161.3z"/>
	<path class="st70" d="M92.7,163c3.7-0.5,9.3,2.3,11,5.7C99.8,167.3,95.5,166.7,92.7,163z"/>
	<path class="st70" d="M69.5,174.1c0.2-1.1,0.8-1.7,2-1.7C71.3,173.5,70.7,174.2,69.5,174.1z"/>
	<path class="st70" d="M61.1,191.1c0.4-0.8,1.1-1.1,1.9-1.2C62.9,191.1,62.6,192,61.1,191.1z"/>
	<path class="st66" d="M10.5,112.3c-0.1-2.1,0.1-4.3-0.2-6.4c-0.6-4.7,0.8-8.6,4-12c0.3,0,0.5-0.1,0.7-0.1c0.7-0.1,1.6,0,2.2-0.4
		c4.9-3.1,9.8-6.2,15.1-8.7c1.6-0.7,3.9-2.1,3.8-4.8c0-1.2,0-2.5,0-3.7c0-1.2,0-2.5,0.1-3.7c0-1.5,0-3.1,0-4.6
		c0.4-0.4,0.8-0.8,1.1-1.2c2.2,0.4,4,1.4,5.9,2.5c5.4,3.2,10.9,6.3,16.4,9.5c2.4,1.4,3.7,1.2,3.6-2c-0.1-3.8,0.1-7.7,0.2-11.6
		c8.9-4.5,17.1-10.4,26.4-14.1c1.8,5.2-0.4,10.6,0.8,15.8c-0.1,0.2-0.2,0.4-0.1,0.6c-2,0.6-4.2,0.2-6.1,1.6
		c-4.2,3.1-8.9,5.2-13.4,7.9c-3.1,1.8-7.7,2.6-7.7,7.6c0,3.7,0.1,7.4,0.2,11c-0.2,0.3-0.3,0.7-0.5,1c-1.2-0.3-2.5-0.4-3.5-1.1
		c-5.7-3.9-12.3-6.2-17.7-10.6c-1.1-0.9-2.3-1.7-3.8-1c-1.2,0.6-1.9,1.9-1.6,3.1c1.4,4.2-0.9,8.2-0.3,12.3l0,0
		c-5.7,1.6-10.4,5.1-15.5,7.8C17.3,108.8,13.9,110.5,10.5,112.3z"/>
	<path class="st68" d="M62.9,96.6c0.2-0.3,0.3-0.7,0.5-1c7.1-2.7,13.2-7.1,20.1-10.2c2.4-1.1,4.5-2.8,7.2-2.8l0.1,0
		c-0.7,4.9-1.2,9.9-1,14.9c-4,4.4-9.6,6.4-14.7,9.1c-11.9,6.4-11.9,6.2-12.2,19.6c-6.1,0.3-10.7-4-16.4-5.1c-4-0.8-5.9-4.7-9.5-6
		l-0.3,0c0.4-5.3,0.5-10.6-0.6-15.8c0,0,0,0,0,0c1.7,0.1,3.4-0.3,4.9,0.9c4.9,4.1,11.3,6,16.1,10.3c1.3,1.1,2.9,1.2,4.4,0.7
		c2-0.6,1.5-2.5,1.5-3.9C63.1,103.6,63,100.1,62.9,96.6z"/>
	<path class="st65" d="M35.4,130.8c-6.5,3.6-13.1,7.3-19.7,10.9c-1.7,0.9-3.6,1.7-5.4,2.5c-1-8.5-0.7-16.1,9.3-19.8
		c6-2.3,10.4-8,17.1-9.3c0,0,0.3,0,0.3,0c0,4.3,0,8.6-0.1,12.9C36.5,128.9,35.9,129.8,35.4,130.8z"/>
	<path class="st70" d="M0,122.5c1.8,0.1,3.4,0.5,3.8,2.7C1.8,125.4,0.4,124.7,0,122.5z"/>
	<path class="st70" d="M5.7,126.2c1,0,1.9,0,2.9,0C7.6,128.8,6.6,127.5,5.7,126.2z"/>
	<path class="st70" d="M37.3,66.7c-0.4,0.4-0.8,0.8-1.1,1.2c-0.6-0.3-1.2-0.6-1.8-0.9c0.8-5,2.7-10.1-0.9-14.9
		c4.1-2.9,3-7.1,2.9-11.2c-0.2-6.4,0.7-7,6.2-4.1c5.5,2.9,10.9,6.2,16.2,9.4c3,1.8,4.6,1.5,4.3-2.4c-0.4-4.7,1.6-9.9-3-13.6
		c1-0.1,2.1-0.1,3.1-0.2c1,1.5,2.1,1.6,3.8,0.6c6.1-3.7,12.4-7.1,18.6-10.6c1.6-0.9,3.1-2.8,5.3-1.3c-1,6-2.5,12,2,17.4
		c-2.6,1.9,1.5,5.2-1.5,6.9c-1.8-2.7,0-7.6-5.1-8.3c-1.4-1.3-2.2-2.5-0.3-4.1c1.2-1,3-2.3,1.1-4.1C85.6,25,83.7,25,82,26.2
		c-2,1.4-4.3,2.2-6.5,3.3c-3.4,1.7-6.6,4-9.2,6.9c-2.9,3.2-1.7,5.8,2.2,7c3.1,0.9,4.1-2.7,6.6-2.3c-0.6,2.8-3,3.6-5.1,4.7
		c-6.8,3.4-8.1,5.9-6.6,13.4c0.3,1.7,0.4,3.3-0.5,4.8c-1.3,0.1-2.3-0.4-3.4-1c-6-3.4-12-6.8-18-10.2c-4.1-2.3-4.4-2.1-4.4,2.7
		C37.1,59.3,37.2,63,37.3,66.7z M51,48.9c-0.1-4.7-5.9-10-10.8-9.7c-1.3,0.1-2.5,0.8-1.6,1.9c2.7,3.6,4.8,7.8,9.1,10.1
		C49.9,52.5,51.1,51.9,51,48.9z M61.2,52.6c-0.1-1.8,0-3.9-2.3-3.8c-2,0-3.9,1.2-4.1,3.6c-0.3,3.1,2.4,2.7,4.1,3.1
		C61.4,56,61.1,54,61.2,52.6z"/>
	<path class="st69" d="M33.4,52c3.6,4.7,1.8,9.8,0.9,14.9c-1,0.4-2.3,0.4-3,1.2C26.3,74,18.8,75.7,12.2,79c-1.4-4.8,0-9.8-0.9-14.6
		c0.4-0.8,1.1-1.1,1.9-1.2c0.2-0.2,0.5-0.4,0.7-0.6C20.6,59.4,26.4,54.6,33.4,52z"/>
	<path class="st70" d="M13.9,62.6c-0.2,0.2-0.5,0.4-0.7,0.6C13.4,63,13.7,62.8,13.9,62.6z"/>
	<path class="st65" d="M37.1,146.9c-0.2-0.4-0.4-0.8-0.6-1.1c-0.1-5-0.3-10-0.4-15c0.6,0,1.3,0,1.9,0c0.6,0,1.1,0.1,1.7,0.1
		c1.1,3.1,4,3.6,6.6,4.5c0.3,0.1,0.6,0.1,0.9,0.1c0.5,1.9,2,2.4,3.8,2.6c0.3,0.1,0.6,0.2,0.8,0.2c2.1,3.4,6,4,9.3,5.5
		c0.6,0.1,1.2,0.2,1.9,0.2l0.1,0.4c0,3.5,0.1,6.9,0.1,10.4c0,1,0,1.9,0,2.9c-0.1,0.9-0.2,1.8-0.3,2.7c-0.8-0.4-1.6-0.7-2.5-1.1
		C52.6,155.3,45.6,149.7,37.1,146.9z"/>
	<path class="st70" d="M38.1,130.7c-0.6,0-1.3,0-1.9,0c0,0-0.4,0-0.4,0s-0.4,0-0.4,0c0.6-0.9,1.1-1.9,1.7-2.8
		C38.1,128.6,38.1,129.7,38.1,130.7z"/>
	<path class="st66" d="M143.7,201.9c0-1.2,0-2.4,0-3.6c0.9-1,0.8-2,0-2.9c0.3-0.2,0.5-0.5,0.8-0.7c3.1,0.5,5.4,2.7,8.1,4
		c6.3,3.1,11.7,7.6,18.4,9.8c0.2,2.7,0.4,5.4,0.6,8c0,1.3,0,2.7-0.1,4c-0.5,2.9,0,4.6,3.4,2.6c7.7-4.3,15.5-8.5,23.2-12.8
		c0.2,0.3,0.5,0.7,0.7,1c-0.1,3.3-0.8,6.6-0.2,10c0.3,2,0.1,4.9-2.1,6.2c-8.1,4.6-15.8,9.9-24.5,13.4c-0.3-0.1-0.6-0.1-0.9-0.1
		c0-4.1,0-8.2,0.1-12.4c0-1.6-0.1-3-1.7-3.9c-8.3-4.5-16.6-9-24.9-13.5C144,208.1,145.2,204.8,143.7,201.9z"/>
	<path class="st65" d="M144.4,194.6c-0.3,0.2-0.5,0.5-0.8,0.7c-0.4,0.3-0.8,0.6-1.1,0.8c-2.8,1.3-5.5,2.7-8.3,4
		c-1.1,0-1.7,0.6-1.9,1.7c-4,1.4-7.8,3.3-11.4,5.6c-2.4,1.5-3.3,0.7-3.3-1.9c0-4.1,0-8.3-0.1-12.4c7.6-3.3,14.5-7.9,21.8-11.9
		c1.4-0.7,2.6-1.6,4.2-1.8c0.3,0.1,0.6,0.1,0.9,0.2C144.4,184.7,144.4,189.7,144.4,194.6z"/>
	<path class="st65" d="M144.6,211.1c8.3,4.5,16.6,9.1,24.9,13.5c1.7,0.9,1.8,2.3,1.7,3.9c0,4.1,0,8.2-0.1,12.4
		c-0.6,0.3-1.2,0.6-1.8,0.8c-1.7-2-3.4-4-6.4-3.7c-0.2-1.1-0.8-1.7-1.9-1.8c-0.3,0-0.5-0.1-0.8-0.1c-0.3-1.1-1.1-1.7-2.1-2.2
		c-4.9-2.6-9.7-5.3-14.5-7.9c0-1.2,0-2.4,0-3.6c1.2-1.9,1.1-3.7,0-5.6c0-1.5,0-3.1,0-4.6c0-0.3,0.1-0.5,0.1-0.8
		C143.9,211.2,144.3,211.2,144.6,211.1z"/>
	<path class="st68" d="M143.6,222.3c0,1.2,0,2.4,0,3.6c-2-0.1-4,0-5.9-0.2c-1.2-0.1-2.7-1-3.4,0.2c-2.3,4.2-5.8,6.6-10,8.9
		c-2.7,1.5-4.2,2.1-6.5,0.4c0-1.5,0-3.1-0.1-4.6c2.9-1.1,1.4-3,0.9-4.7c3.8-2.6,7.3-5.6,11.2-8.1c4.4-2.8,9.6-2.9,13.8-5.7
		c0,1.5,0,3.1,0,4.6C140.9,218.6,141,220.5,143.6,222.3z"/>
	<path class="st68" d="M99.1,195.4c-2.4-0.1-3.7-2-4.2-4.4c-0.5-2.3,1.6-2.8,3.3-2.8c3-0.1,3,2.6,3.6,4.6
		C102.2,194.5,101.2,195.4,99.1,195.4z"/>
	<path class="st68" d="M101.7,200.2c1-3.3,3.7-5,6.1-7c0.7-0.6,1.9-0.7,2.5,0.1c0.8,1-0.2,1.6-1,2.1c-2.5,1.6-4.5,4-7.6,4.9
		C101.8,200.3,101.7,200.2,101.7,200.2z"/>
	<path class="st70" d="M144.6,211.1c-0.4,0.1-0.7,0.1-1.1,0.2c-0.5-3.1-2.1-6.3,0.1-9.4C145.2,204.8,144,208.1,144.6,211.1z"/>
	<path class="st70" d="M118.5,226c0.5,1.7,2.1,3.6-0.9,4.7c0-1.6,0.1-3.1,0.1-4.7C118,226,118.3,226,118.5,226z"/>
	<path class="st70" d="M142.5,196.2c0.4-0.3,0.7-0.6,1.1-0.8c0.8,1,0.9,2,0,2.9C142.8,197.8,142.6,197.1,142.5,196.2z"/>
	<path class="st70" d="M132.3,201.9c0.2-1.1,0.8-1.7,1.9-1.7C134.1,201.3,133.5,201.9,132.3,201.9z"/>
	<path class="st70" d="M37.1,244.4c7,1.6,12.6,5.8,18.8,9c2.2,1.1,4,4.2,7.2,2.2c0.6,0,1.2,0,1.7,0c5.9-3.3,11.8-6.8,17.8-10
		c2.6-1.4,4.9-3.6,8.1-3.8c0.6,1.2,1.9,2.1,1.9,3.6c-0.1,2.7-0.8,5.2-0.4,8.2c0.9,6.1,6.1,8.3,10,10.5c4.4,2.5,9.2,6.4,15.3,4.5
		c0.3,1.6-0.4,3.4,1,4.7c-0.3,0.6-0.5,1.1-0.8,1.7c-4.6-3.4-10-5.6-15-8.3c-3.9-2.1-7.1-5.8-12-6c-0.6-0.3-1.2-0.5-1.8-0.8
		c2.3-3.8,0-7.8,0.7-11.7c0.2-1.3,0.5-2.5-0.8-3.3c-1.2-0.7-2,0.3-2.9,0.9c-5.6,3.7-11.6,6.8-17.6,9.9c-5.1,2.6-6.4,12.5-2.4,17
		c-0.7,0.8-1.6,1.4-2.7,1.5c-0.7-0.9-1.3-1.9-2-2.8c0-3.4,0-6.7-0.1-10.1c0-1.6-0.8-3.1-2.6-3.3c-1.6-0.2-1.7,1.3-2,2.5
		c-0.6,2.3-2,3.3-3.9,1.5c-3.3-3.1-4-1.1-4.3,2c-2.9,0.1-5.7-0.5-6.9-3.2c-1.1-2.6-2.7-1.5-4.3-1.5c0-2.1,0-4.2,0.1-6.3
		c2.2-0.3,3.6,1.4,5.3,2.4c2.5,1.4,4.8,2.5,7.7,2.2c1-0.1,2.3,0,2.5-1.4c0.2-1-0.5-2.1-1.2-2.3c-5.4-0.9-8.5-6.6-14.2-6.5
		C37.1,246.3,37.1,245.3,37.1,244.4z"/>
	<path class="st69" d="M90.8,241.8c-3.2,0.2-5.5,2.4-8.1,3.8c-6,3.2-11.9,6.7-17.8,10c-0.1-1-0.6-1.7-1.6-1.9c0-1.2,0-2.4,0.1-3.7
		c1.8-0.6,1.7-2.1,1.5-3.4c-0.5-5.4,2.8-7.7,7.1-9.7c3.2-1.5,6.2-3.7,9.2-5.7c1.6-1.1,3.2-1.8,5-2.2c3.2-0.6,5.8,2,5.1,5
		C90.7,236.6,90.9,239.2,90.8,241.8z"/>
	<path class="st69" d="M117.6,268.6c-6,1.9-10.9-2-15.3-4.5c-3.9-2.2-9.1-4.4-10-10.5c-0.4-2.9,0.3-5.4,0.4-8.2
		c4,1.6,7.6,4.1,11.4,5.9c3.9,1.8,7.9,4.4,12.6,4.2c0.1,1,0,2.1,0.9,2.8C117.5,261.8,117.6,265.2,117.6,268.6z"/>
	<path class="st70" d="M117.5,258.4c-0.9-0.7-0.8-1.8-0.9-2.8c0-2.7-0.7-4.9-2.5-7.1c-2.6-3.1-2.7-7.4-3.9-11.2
		c3.2,0.2,3.8,5,7.5,4.3c0.4,5.1-1.1,10.3,0.9,15.4C118.2,257.4,117.9,257.9,117.5,258.4z"/>
	<path class="st70" d="M106.5,236.2c0.6,0.3,1.2,0.6,1.9,0.9C107,238.3,106.7,237.3,106.5,236.2z"/>
	<path class="st70" d="M103.7,234.3c1.1,0.1,1.8,0.7,1.9,1.8C104.5,236.1,103.9,235.5,103.7,234.3z"/>
	<path class="st69" d="M34.4,226.9c0.3,5.2,0.6,10.5,0.9,15.7c-8.3,4.7-15.8,10.8-25,13.8c0-1,0-2-0.8-2.7c0-4,0-8,0-12
		c2.9-0.4,6.7,0.2,6.4-4.7c4.4,0.7,7-2.7,10.2-4.7c3.4-0.3,4.5-2.8,5.5-5.5C32.5,226.9,33.5,226.9,34.4,226.9z"/>
	<path class="st68" d="M37.2,247.3c5.7-0.1,8.8,5.7,14.2,6.5c0.8,0.1,1.4,1.3,1.2,2.3c-0.2,1.4-1.5,1.3-2.5,1.4
		c-2.9,0.3-5.3-0.8-7.7-2.2c-1.6-0.9-3-2.7-5.3-2.4C37.1,251,37.1,249.1,37.2,247.3z"/>
	<path class="st66" d="M118.6,256.9c-2-5-0.5-10.2-0.9-15.4c0,0-0.1-0.4-0.1-0.4c7.1-2.8,13.8-6.4,20-10.8c1.6-1.1,3.2-2.3,5-1.2
		c1.5,0.9,1.4,3,1.4,4.6c-0.1,3.2-0.5,6.4-0.7,9.6c-1.7,0.9-3.5,1.9-5.2,2.8C131.6,249.8,125.5,254.1,118.6,256.9z"/>
	<path class="st70" d="M143.3,243.4c0.2-3.2,0.6-6.4,0.7-9.6c0.1-1.6,0.1-3.7-1.4-4.6c-1.8-1.1-3.4,0.1-5,1.2
		c-6.2,4.4-12.9,8-20,10.8c0-2,0.1-3.9,0.1-5.9c2.3,1.7,3.8,1.1,6.5-0.4c4.2-2.4,7.7-4.7,10-8.9c0.7-1.2,2.2-0.3,3.4-0.2
		c2,0.2,4,0.2,5.9,0.2c4.8,2.6,9.7,5.3,14.5,7.9c1,0.5,1.8,1.1,2.1,2.2c-1.4-0.5-2.8-1.1-4.3-1.4c-1.8-0.5-4.1-1-5.1,0.6
		c-1.9,3-5.7,4.5-6.5,8.3C144,243.5,143.6,243.4,143.3,243.4z"/>
	<path class="st65" d="M88.9,260c0.6,0.3,1.2,0.5,1.8,0.8c-0.1,4.5-0.2,8.9-0.3,13.4c-1.8,1.5-4.6,1.7-5.5,4.4
		c-5.2,1.8-9.5,5.3-14.3,7.8c-2.4,1.3-4.6,3-7.6,2.6c1-4.9-2.5-9.8,0-14.7c1.1-0.1,2-0.6,2.7-1.5C73.5,268.5,81.2,264.2,88.9,260z"
		/>
	<path class="st68" d="M48.2,263.9c0.4-3,1.1-5,4.3-2c1.9,1.8,3.3,0.8,3.9-1.5c0.3-1.2,0.4-2.7,2-2.5c1.8,0.2,2.5,1.7,2.6,3.3
		c0.1,3.4,0,6.7,0.1,10.1C56.6,269.4,51.8,267.7,48.2,263.9z"/>
	<path class="st68" d="M63.3,253.7c1,0.2,1.5,0.8,1.6,1.9c-0.6,0-1.2,0-1.7,0C63.2,255,63.2,254.3,63.3,253.7z"/>
	<path class="st67" d="M171.1,289.2c-6.4-3-12.4-6.7-18.5-10.3c-2.7-1.6-5.5-3.4-8.8-3.8c-0.2,0-0.3,0-0.5,0
		c0.1-0.6,0.2-1.1,0.3-1.7c3.3-1.9,0.3-4.4,0.7-6.6c0.3-1.6-0.5-3.6,1-4.8c1.8-1.3,3,0.6,4.5,1.2c3.6,1.4,6.6,4,10.1,5.4
		c3.9,1.6,6.6,5.6,11.3,5.6c0,5,0.1,9.9,0.1,14.9C171.4,289,171.1,289.2,171.1,289.2z"/>
	<path class="st70" d="M142.7,276.7c-3.6,0.4-5.2,5.1-9.4,4c3.1-2.4,5.5-5.9,10.1-5.7c0.2,0,0.3,0,0.5,0
		C143.5,275.6,143.1,276.1,142.7,276.7z"/>
	<path class="st68" d="M26.1,232.4c-3.2,2-5.8,5.4-10.2,4.7c0-3.1,0-6.1,0-9.2c0-1.5,0.8-2.6,2.2-3.3c1.6-0.8,2.7,0.1,3.6,1.2
		C23.4,227.8,26.3,229.1,26.1,232.4z"/>
	<path class="st70" d="M36.2,288.9c-3.4-3.3-3.4-7.1-0.1-9.2C36.2,282.7,36.2,285.8,36.2,288.9z"/>
	<path class="st66" d="M225.7,275.1c0,1.5,0,3,0.1,4.5c-1.1,1.5-1.2,3.1-0.1,4.6c0,0.9,0,1.7,0,2.6c-1.1,0.3-1.5,1.1-1.6,2.2
		c-8.4-4.7-16.7-9.4-25.1-14.1c-0.2-0.1-0.4-0.1-0.7-0.1c0-4.9,0-9.7,0-14.6c3.1-0.5,5.2,2.4,8.1,2.5c0.3,0.1,0.5,0.2,0.8,0.2
		c5.3,4.5,10.8,8.4,17.7,10.1l0,0C225.1,273.8,225.4,274.5,225.7,275.1z"/>
	<path class="st70" d="M224,289.1c0.1-1.1,0.5-1.8,1.6-2.2c0.1,0.7,0.2,1.3,0.2,2c-0.3,0.3-0.6,0.6-0.9,0.9
		C224.6,289.6,224.3,289.3,224,289.1z"/>
	<path class="st70" d="M85,278.5c0.9-2.6,3.6-2.9,5.5-4.4c3.1,2.4,7.1,3.4,9.8,6.4c-3.1-1.1-6.3-0.6-9.4,0.1
		C88.9,279.8,87.2,278.3,85,278.5z"/>
	<path class="st69" d="M143.4,275c-4.6-0.3-7,3.3-10.1,5.7c-0.5,0-1.1,0.1-1.6,0.1c-3.5,0.4-6.2,2.4-8.9,4.4c-1.6,1.2-3,2.1-5,1.8
		c-0.1-2.2-0.1-4.4-0.2-6.5c0.9-0.9,0.9-1.7,0-2.6c0-1,0-1.9,0.1-2.9c0.3-0.6,0.5-1.1,0.8-1.7c6.4-3.5,12.9-6.9,19.3-10.4
		c1.8,0,3.2-1.1,4.7-1.8c0,4.1-0.1,8.2,1.1,12.2C143.6,273.9,143.5,274.5,143.4,275z"/>
	<path class="st66" d="M117.7,280.5c0,2.2,0.1,4.4,0.2,6.5c-0.4,1.5-1.1,2.8-3,2.7c0,0,0,0,0,0c-0.8-2.2-2.6-3.1-4.7-3.6
		c-1-0.7-2.1-1.2-3.4-1.2c-1.6-2-3.3-3.8-5.9-4.4c-0.2-0.1-0.5-0.1-0.8-0.2c-2.7-3-6.7-4-9.8-6.4c0.1-4.5,0.2-8.9,0.3-13.4
		c4.9,0.2,8.1,3.9,12,6c5,2.7,10.4,4.9,15,8.3c0,1,0,1.9-0.1,2.9C116.7,278.7,116.7,279.6,117.7,280.5z"/>
	<path class="st70" d="M100.9,280.6c2.6,0.6,4.3,2.4,5.9,4.4C103.9,284.9,101.7,283.8,100.9,280.6z"/>
	<path class="st70" d="M110.2,286.2c2.1,0.5,3.9,1.4,4.7,3.6C112.7,289.4,110.6,288.9,110.2,286.2z"/>
	<path class="st68" d="M12.2,79c6.6-3.2,14.1-4.9,19.2-10.9c0.6-0.7,1.9-0.8,3-1.2c0.6,0.3,1.2,0.6,1.8,0.9c0,1.5,0,3.1,0,4.6
		c-2.5,1.2-2.5,2.4-0.1,3.7c0,1.2,0,2.5,0,3.7c-3.5,1.6-7.4,2.4-10.1,5.7c-1.3,1.6-3.6,2.4-5.9,0.9c-1-0.7-2.4-0.9-2.3,0.7
		c0.1,2.8-2.7,4.1-2.9,6.6c-0.2,0.1-0.5,0.1-0.7,0.1c-1.4-0.2-2.9-0.4-2.9-2.2C11.5,87.4,10.4,83.1,12.2,79z"/>
	<path class="st65" d="M198.3,260.4c0,4.9,0,9.7,0,14.6c-2.5,0.4-4.5,1.5-5.8,3.8c-2.9,0.1-5.3,0.8-6.5,3.8
		c-4.5,0.6-7.7,4.1-11.7,5.7c-1,0.4-1.9,0.9-3,0.8c0-5-0.1-9.9-0.1-14.9c0.9-0.6,1.8-1.2,2.8-1.9c5.9-2.9,11.2-6.6,16.6-10.2
		C193.1,261.3,195.4,259.5,198.3,260.4z"/>
	<path class="st68" d="M186,282.5c1.1-3,3.6-3.7,6.5-3.8c-0.1,1.3,0.3,2.6,1,3.7c0.2,2.3-1.3,3.7-3,4
		C188,286.7,187.5,283.8,186,282.5z"/>
	<path class="st69" d="M156.4,72.6c4.5,4.3,9.6,7.6,14.8,11c0,1.5,0,3.1,0,4.6c-1.3,0.3-1.8,1.2-1.7,2.4c0.3,3.8-1,3.8-4.3,2.7
		c-5.7-2-10.4-5.7-15.6-8.6c-3.7-2.1-6-1.1-6.1,3.1c-0.1,3.8,0,7.7,0,11.5c-1.6,0.1-3,0.5-4.3,1.3c-5.4,3.1-10.4,6.8-16.2,9.2
		c-4.4,1.8-5.3,1.6-5.4-3.2c0-3.4,0.1-6.8,0.1-10.1l-0.1,0.1c8.8-3.3,16.1-9.2,24.6-13.1c1.7-0.8,2.3-2.7,2.2-4.8
		c-0.2-4,0-7.9,0.7-11.8C149.3,67.9,152.7,70.5,156.4,72.6z"/>
	<path class="st68" d="M143.5,99.3c0-3.8-0.1-7.7,0-11.5c0.1-4.2,2.4-5.2,6.1-3.1c5.1,2.9,9.8,6.6,15.6,8.6c3.2,1.1,4.6,1.1,4.3-2.7
		c-0.1-1.2,0.4-2.1,1.7-2.4c0.2,2.5,0.3,5,0.5,7.5c-1.4,5.1-0.1,10.5-1.2,15.6c-2.6,0.2-4.5-1.1-6.7-2.3c-6.3-3.5-12-8.3-19.4-9.5
		C144,99.5,143.7,99.4,143.5,99.3z"/>
	<path class="st69" d="M201.7,18.8c3.5-0.4,5.5,2.7,7.8,4.3c4.8,3.3,11.4,3.7,14.7,9.2c0,5.1-0.1,10.2-0.1,15.4
		c-8.4-4.1-16.2-9.2-24.2-14c0-1.2,0-2.4-1.5-2.8c0.1-1.5,0.2-3.1,0.3-4.6C200.4,24,201.8,21.7,201.7,18.8z"/>
	<path class="st70" d="M198.4,30.8c1.5,0.4,1.5,1.6,1.5,2.8c-2.3,1.3-1.6,3.5-1.7,5.5c-8.5-1.2-23.5,7.5-24.7,14.5
		c-0.6,3.4-0.3,7-0.4,10.5c-0.6,0.3-1.2,0.6-1.8,1c-0.7-0.5-1.3-1.1-2-1.6c1.7-1.1,1.9-2.9,1.9-4.8c0-3.8,0-7.5,0-11.3
		c0,0-0.1,0.1-0.1,0.1c1.2-0.2,2.7,0.1,3.5-0.6c4.3-3.8,10.1-5.1,14.3-8.7C192,35.6,196.9,35.3,198.4,30.8z"/>
	<path class="st70" d="M225.8,60.5c4.5-1.7,9-3.3,13.2-5.7c1.3-0.8,2.5-2.6,4.4-0.9c-4.7,5.6-11.5,7.7-17.5,11.1
		C225.8,63.5,225.8,62,225.8,60.5z"/>
	<path class="st70" d="M232,46.1c-1.4,3.4-3.3,6.5-6.4,8.8c-1.6-2.1,0.9-4.3-0.1-6.5C227.7,47.7,229.9,46.9,232,46.1z"/>
	<path class="st65" d="M169.4,63.5c0.6,0.5,1.3,1.1,2,1.6c0,3.5,0.1,7.1-0.1,10.6c-0.1,2.9-1.5,3.7-4.3,2.3
		c-3.5-1.7-6.2-5.2-10.5-5.4c-3.7-2.1-7.1-4.7-11.4-5.7c-0.5-0.1-0.9-0.2-1.4-0.3c0-4.8-0.1-9.7-0.1-14.5c0-0.7,0-1.4,0.1-2
		c1.3,0.1,2.2,0.8,3.3,1.3C154.7,54.9,161.4,60.4,169.4,63.5z"/>
	<path class="st70" d="M245.2,53.7c0.2-0.4,0.3-0.9,0.6-1.2c1.6-1.5,1.7-5.2,5.3-3.7c2.9,1.2,2.7,3.6,2.7,6.4
		c0,3.6,0.9,7.2,0.6,10.9c-0.6,0-1.2,0-1.8,0c0-2.6-0.7-5.2-0.6-7.7C252.2,52.5,249.3,52.6,245.2,53.7z"/>
	<path class="st70" d="M258.9,68.8c1.1,0,1.8,0.5,2,1.7C259.8,70.5,259.2,69.9,258.9,68.8z"/>
	<path class="st66" d="M169.4,63.5c-8-3.1-14.7-8.6-22.4-12.2c-1.1-0.5-2.1-1.3-3.3-1.3c0-1.1,0-2.3,0-3.4c0-2.4,0.1-4.9,0.1-7.3
		c1.3-1.4,0.2-3.7,1.7-5c6.9,3.8,13.9,7.6,20.8,11.5c1.6,0.9,3,2.1,5.1,1.7c0,3.8,0,7.5,0,11.3C171.3,60.6,171.1,62.4,169.4,63.5z"
		/>
	<path class="st66" d="M198.4,30.8c-1.5,4.5-6.4,4.8-9.4,7.4c-4.2,3.6-10,4.9-14.3,8.7c-0.8,0.7-2.3,0.4-3.5,0.6c0-3.7,0.2-7.4,0-11
		c-0.2-2.5,0.7-4.6,2.6-5.5c8.4-3.7,15.3-10.1,24.2-12.6c0.4,2.6-0.4,5.3,0.7,7.8C198.6,27.8,198.5,29.3,198.4,30.8z"/>
	<path class="st69" d="M117.6,31.9c4.6-0.3,7.7-3.4,11.4-5.5c4.8-2.7,9.4-5.6,14.6-7.4c0,3.9,0,7.8,0,11.7c-0.4,1.3-0.7,2.6-1.1,3.9
		c-5.9,2.7-12.5,4.1-17.3,9.1c-1.9,2-4.5,3.7-7.6,3.9l-0.1-0.1c0.7-5.2-1.2-10.3-0.8-15.4C117.1,32,117.3,31.9,117.6,31.9z"/>
	<path class="st70" d="M198.7,26.2c-1.2-2.5-0.3-5.2-0.7-7.8c0.3-0.5,0.6-1,0.8-1.5c1,0.6,1.9,1.3,2.9,1.9
		C201.8,21.7,200.4,24,198.7,26.2z"/>
	<path class="st70" d="M142.6,34.6c0.4-1.3,0.7-2.6,1.1-3.9c1.8,0.6,1.6,2.1,1.8,3.6c-1.4,1.4-0.4,3.6-1.7,5
		C142.1,38,142.7,36.2,142.6,34.6z"/>
	<path class="st70" d="M251.5,35c0.1,0.8,0.1,1.5,0.2,2.3c-1.1,0-2.2-0.1-2.9-1.2C249.7,35.7,250.6,35.4,251.5,35z"/>
	<path class="st70" d="M235.8,43.5c0,2.1-1.4,2.1-2.9,2C233.6,44.4,234.6,43.7,235.8,43.5z"/>
	<path class="st69" d="M221,18.3c-0.1,1.1-0.5,2-1.6,2c-1.6-0.1-2.4-1.1-2.6-2.6c-0.1-1.2,0.8-1.5,1.8-1.4
		C220,16.2,220.8,17,221,18.3z"/>
	<path class="st68" d="M171.6,216.5c-0.2-2.7-0.4-5.4-0.6-8c0.1-5.3,0.2-10.5,0.2-15.8c5.1-1.4,9.4-4.3,13.9-6.9
		c4.2-2.3,8-5.6,13-6.2c5-0.1,8.6,2.3,11.2,6.4c-1.9,0.2-3-1.4-4.5-2c-2.2-0.9-4.5-1.1-5.5,1.4c-1.2,2.9-2.1,5.9,1.2,8.5
		c1.4,1.1,3.7,1.1,4,3.4c-2.4-0.1-5.2-2-6.4,1.9c-2.6-2.2-4.6-1.8-7.7,0.2c-3.6,2.4-6.4,7.1-11,6.9c-5.3-0.2-6.7,2.3-7.1,6.6
		C172.2,214.2,171.9,215.3,171.6,216.5z"/>
	<path class="st65" d="M198.2,179.6c-5,0.6-8.8,3.9-13,6.2c-4.5,2.5-8.9,5.4-13.9,6.9c0-0.3-0.1-0.5-0.1-0.8
		c0.4-5.1-0.5-10.4,1-15.4c2.6-0.6,4.7-2.1,7-3.3c6.4-3.3,12-7.8,18.8-10.4c0.4,0.4,0.7,0.7,1.1,1.1
		C197.1,169.1,198.5,174.4,198.2,179.6z"/>
	<path class="st65" d="M253.5,180.5c-1.4,0.9-2.2,2.4-1.6,4c1.3,3.7,0.2,7.2-0.2,10.9c0,0,0,0.2,0,0.2c-7.7,2.9-14.7,7.2-21.3,12
		c-3.7,0.4-4.8-1.5-4.7-4.9c0.1-3.3,0.5-6.7-0.6-9.9c0.2,0,0.4-0.1,0.6-0.1c0.8-0.3,1.7-0.5,2.5-0.9c8.2-3.7,15.2-9.5,23.4-13
		C252.8,178.9,253.4,179.4,253.5,180.5z"/>
	<path class="st66" d="M251.7,178.7c-8.3,3.5-15.3,9.3-23.4,13c-0.8,0.4-1.7,0.6-2.5,0.9c-2.5-9.1-0.3-15.1,7.6-19.7
		c5.9-3.5,11.4-7.6,18.3-9.1C252.6,168.8,251.5,173.7,251.7,178.7z"/>
	<path class="st69" d="M204.5,197.3c-0.3-2.3-2.7-2.3-4-3.4c-3.3-2.6-2.4-5.6-1.2-8.5c1-2.5,3.3-2.3,5.5-1.4c1.5,0.6,2.6,2.3,4.5,2
		c4.6,1.9,9.1,3.9,13.7,5.8c0.3,0.3,0.6,0.5,0.9,0.8c0,0,0,0,0,0c0,3.6,0,7.2,0,10.8c0,1.6,0.3,3.5-1.9,4c-0.6-0.1-1.2-0.2-1.8-0.3
		c-0.2-1-0.8-1.5-1.8-1.6c-1.8-1.1-3.3-2.7-5.5-3c-1.4-2.7-3.8-3.9-6.6-4.4C205.7,198,205.1,197.7,204.5,197.3z"/>
	<path class="st69" d="M229.5,143c2.6-0.5,4.3-3,7.1-3.2c2.2,0.2,3.7-1.1,5.3-2.2c3.4-2.5,6.4-3.6,8.6,1.4c0.2,0.5,0.9,0.7,1.4,1.1
		c0,0.6,0,1.2,0,1.7c0,0.7,0,1.3-0.1,2c0,0.6,0,1.2,0.1,1.8c-4.7,1.3-8.6,4.3-12.6,6.8c-1.3,0.8-2.5,1.7-4.1,1.7
		c-2.9-1.3-3.2,0.8-3.7,2.8c-0.5,0.1-1.1,0.1-1.6,0.2c-2.4-0.8-2.9-2.6-2.6-4.7C227.6,149,227.6,145.8,229.5,143z"/>
	<path class="st68" d="M221,174.4c-0.6-0.3-1.2-0.6-1.8-0.9c1.3-4.2,0-5.6-4.2-3.9c-0.7,0.3-1.5,0.1-2.3,0.2
		c-0.9-0.4-1.7-0.7-2.6-1.1c-1.4-3.4-3.5-6-7.5-6.4c-1.5-0.1-2.9-0.5-2.5-2.4c0.3-1.8,1.3-3.1,3.5-2.7c1.3,0.2,3.1,1.1,3.3-0.9
		c0.3-2.1-1.6-2.1-3.2-2.3c-4.4-0.6-4.8-1.6-2.5-5.9c1.1,0.4,2.2,0.8,3.3,1.2c0.2,1.9,1.2,2.8,3.2,2.6l0.3-0.1l0.3,0.1
		c0.1,2.7,1.8,3.1,4,2.7c0.5,0.1,1,0.2,1.5,0.2c0.2,1.2,0.9,1.8,2.1,1.7c0.2,0,0.5,0,0.7,0.1c0.2,1.9,1.3,3.3,3,3.5
		c3,0.4,3.4,2.3,3.5,4.8c0.1,2.2,0.7,4.5,1,6.7c0,0.9-0.1,1.7-0.1,2.6C223,174.3,222,174.3,221,174.4z"/>
	<path class="st70" d="M201.2,148c-2.3,4.3-1.9,5.3,2.5,5.9c1.5,0.2,3.5,0.3,3.2,2.3c-0.3,2-2.1,1.2-3.3,0.9
		c-2.2-0.4-3.1,0.9-3.5,2.7c-0.3,1.9,1,2.2,2.5,2.4c4,0.4,6,3,7.5,6.4c-1.3,0.1-2.3-0.6-3.1-1.6c-2-2.7-4.9-3.2-8-3
		c-0.4-0.4-0.7-0.8-1.1-1.1c0.1-4.4,0.1-8.8,0.3-13.3C198.3,147.8,198.5,145.4,201.2,148z"/>
	<path class="st70" d="M229.5,143c-1.8,2.8-1.9,6-2.3,9.2c-0.3,2.1,0.2,4,2.6,4.7c-0.8,2.5-2.7,2.6-4.8,2.6c0,0-0.1,0-0.1,0
		c0-4.9,0-9.9,0.1-14.8c0.2-0.2,0.4-0.5,0.7-0.7C226.9,143.6,228.2,143.3,229.5,143z"/>
	<path class="st70" d="M222,207.6c2.3-0.6,1.9-2.4,1.9-4c0-3.6,0-7.2,0-10.8c0.4,0,0.8,0,1.1,0c1.2,3.3,0.7,6.6,0.6,9.9
		c-0.1,3.4,1,5.3,4.7,4.9c-0.7,2.3-3.3,2.2-4.7,3.6C224.9,209.5,222.5,209.6,222,207.6z"/>
	<path class="st70" d="M224.1,171.7c-0.4-2.2-1-4.5-1-6.7c-0.1-2.5-0.5-4.4-3.5-4.8c-1.8-0.3-2.8-1.7-3-3.5c3,0.3,5,3.5,8.3,2.8
		c0,0,0.1,0,0.1,0c0.3,2.8,0.6,5.6,0.9,8.4C225.9,169.4,225.9,171,224.1,171.7z"/>
	<path class="st70" d="M212.7,169.7c0.8-0.1,1.6,0.1,2.3-0.2c4.3-1.7,5.6-0.3,4.2,3.9C217.4,171.5,214,172.4,212.7,169.7z"/>
	<path class="st70" d="M231.4,156.7c0.4-2,0.8-4.1,3.7-2.8C234.2,155.4,233.2,156.6,231.4,156.7z"/>
	<path class="st70" d="M221,174.4c1,0,2-0.1,3.1-0.1C223.1,176.7,222.1,176.4,221,174.4z"/>
	<path class="st70" d="M223.9,192.7c-0.3-0.3-0.6-0.5-0.9-0.8C223.3,192.2,223.6,192.4,223.9,192.7z"/>
	<path class="st70" d="M251.9,140c-0.5-0.4-1.2-0.6-1.4-1.1c-2.2-5-5.2-3.9-8.6-1.4c-1.6,1.2-3.1,2.5-5.3,2.2
		c4.5-4.5,9.9-7.3,15.9-9.2C252.4,133.7,253.3,136.9,251.9,140z"/>
	<path class="st70" d="M259,132.7c5.3-0.4,8.2,4.8,13.1,5.5c1.4,0.2,1.8,2.6,1.8,4.4C268.8,139.4,263.2,137.1,259,132.7z"/>
	<path class="st70" d="M251.7,143.7c0-0.7,0-1.3,0.1-2C253.5,142.5,253.5,143.1,251.7,143.7z"/>
	<path class="st65" d="M225.6,143.9c-0.2,0.2-0.4,0.5-0.7,0.7c-6.8-3.1-13.3-6.6-19.6-10.6c-2.2-1.4-4.1-3.9-7.3-3l0-0.3
		c0.1-5.3,0.2-10.6,0.3-15.8c7.3,2.5,13.5,7.2,20.4,10.6c5.5,2.7,8.1,6.3,6.9,12.5C225.3,139.8,225.6,141.9,225.6,143.9z"/>
	<path class="st65" d="M144.3,99.5c7.4,1.2,13.1,6,19.4,9.5c2.2,1.2,4.1,2.5,6.7,2.3c0.3,0.3,0.5,0.6,0.8,0.9
		c-0.1,5.4,0.5,10.7-0.3,16.1c-4.9-1.5-8.7-5.1-13.4-6.9C147.3,117.4,142,110.8,144.3,99.5z"/>
	<path class="st69" d="M198.3,114.8c-0.1,5.3-0.2,10.6-0.3,15.8c-5-0.6-7.4,3.8-11.1,5.7c-3.3-2-3.9,0.5-4.6,2.8
		c-0.3,0-0.5,0.1-0.8,0.1c-1.8-0.1-3.2,0.9-4.7,1.7c-2.8,1.5-3.9,0.5-3.8-2.5c0.1-3.2-0.1-6.4,0.9-9.5c3.1-3.7,5.9-7.9,11.9-6.6
		c1.2,0.3,2.4-0.6,3.1-1.6c2.4-3.3,6.5-5.5,6.6-10.3c0-1.2,1.2-1.7,2.4-1.8C198.1,110.7,198.2,112.7,198.3,114.8z"/>
	<path class="st68" d="M197.9,108.6c-1.1,0.1-2.3,0.6-2.4,1.8c-0.1,4.8-4.2,7-6.6,10.3c-0.7,1-1.9,1.9-3.1,1.6
		c-6-1.3-8.8,2.8-11.9,6.6c-1.9-3.8-0.5-7.8-0.8-11.7c-0.1-1,0.4-2,1.5-2c4-0.1,4.2-2.8,4-5.7c0.8-0.4,1.6-0.7,2.4-1.1
		c5.2,1.2,7.6-1.6,8.7-6.2c0.6-0.3,1.3-0.7,1.9-1c3-1.6,4.6,1.8,7.1,1.9C199.1,105,198.1,106.7,197.9,108.6z"/>
	<path class="st70" d="M178.6,109.5c0.2,3,0,5.6-4,5.7c-1,0-1.6,1-1.5,2c0.3,3.9-1.1,7.9,0.8,11.7c-1.1,3.1-0.9,6.3-0.9,9.5
		c-0.1,3,1,4,3.8,2.5c1.5-0.8,2.9-1.8,4.7-1.7c-0.5,2.5-2.7,2.8-4.5,3.3c-3.7,0.9-5.4,2.9-5,6.9c0.2,2.4,0.5,4.9-0.5,7.3
		c-0.5,1.1-1,2.3-2.4,2.5c-1.7,0.2-2.4-1-2.8-2.4c2.8-0.1,3.4-1.9,2.9-4.1c-0.6-2.8,0-5.5,0.1-8.2c1.5-0.3,1.8-1.4,1.8-2.7
		c0.1-4.5,0.4-9-0.3-13.5c0.8-5.3,0.2-10.7,0.3-16.1C174.1,112.6,176,109.9,178.6,109.5z"/>
	<path class="st70" d="M189.7,102.2c-1.1,4.5-3.5,7.4-8.7,6.2C183.5,105.7,186.3,103.5,189.7,102.2z"/>
	<path class="st68" d="M225.8,116.9c2.8,0.9,1.8,3.2,1.5,4.9c-0.5,2.6,0.1,4.2,3,4.3c-0.7,1.5-1.9,2.1-3.4,1.6
		c-1.6-0.5-1.7-2.2-1.7-3.5C225.3,121.8,225.6,119.3,225.8,116.9z"/>
	<path class="st70" d="M198.7,103c-2.5-0.1-4.1-3.5-7.1-1.9c0.8-2.8,3.1-1.8,4.8-1.7C198.4,99.6,198.9,101.2,198.7,103z"/>
	<path class="st66" d="M116.8,32c-0.4,5.2,1.5,10.2,0.8,15.4c-1.8,0-3.5,0-5.3-1c-6.4-3.6-12.9-6.9-19.4-10.4
		c-4.5-5.3-3-11.4-2-17.4c5.2,0.4,8.8,4.2,13,6.4C108.2,27.3,112.3,30.1,116.8,32z"/>
	<path class="st69" d="M12.2,14.2c0.3-2.8,0.6-5.7,4.7-3.7C16.4,13.2,14.3,13.8,12.2,14.2z"/>
	<path class="st66" d="M252.6,227.1c0,5.2-0.1,10.4-0.1,15.6c-0.9,0.6-1.8,1.1-2.6,1.7c-7,3.9-14.1,7.7-21.1,11.6
		c-1.6-0.5-2.8-1.6-2.8-3.2c0-4.6-2.3-9.6,1.9-13.6l0.4,0l0.4-0.1c1.4,0,2.5-0.3,3-1.8c1.8,0.1,3.1-0.7,4.6-1.5
		c5.4-2.9,10.3-6.9,16.3-8.9L252.6,227.1z"/>
	<path class="st70" d="M249.8,244.4c0.9-0.6,1.8-1.1,2.6-1.7c3.2,0.2,5.7,1.2,6.7,4.5c-2.2-0.7-4.4-0.9-6.5,0.1
		C252,246,251.6,244.6,249.8,244.4z"/>
	<path class="st70" d="M267.5,251.8c-2.2-0.6-5-0.4-5.7-3.5C264.1,248.8,266.5,249.3,267.5,251.8z"/>
	<path class="st68" d="M225.7,211.2c1.4-1.4,4-1.3,4.7-3.6c6.6-4.9,13.5-9.2,21.3-12c0,2.8,0.7,5.3-0.3,8.3c-1.1,3.2,1.3,6.1,4,8.1
		c-2,0.1-2.9,1.1-2.8,3.1c0.1,1.8-0.1,3.6-0.2,5.3c-2-0.6-1.7-2.4-1.7-3.8c0.1-3.5-1.1-4.1-4.1-2.2c-4.4,2.8-10.5,2.7-13.6,7.8
		c-0.4,0.6-1.1,0.5-1.6,0.1c-1.9-1.3-2.4,0.1-2.9,1.5c-0.4,1.3-1.3,2-2.7,2.2c0-0.3-0.1-0.7-0.1-1
		C225.7,220.4,225.7,215.8,225.7,211.2z"/>
	<path class="st68" d="M275.8,224c-2.3-0.2-4.2-1-4.7-3.5C273.2,220.9,274.9,221.9,275.8,224z"/>
	<path class="st69" d="M225.9,226.1c1.3-0.2,2.2-0.9,2.7-2.2c0.5-1.4,1-2.8,2.9-1.5c0.6,0.4,1.3,0.5,1.6-0.1
		c3.2-5.1,9.2-4.9,13.6-7.8c2.9-1.9,4.2-1.3,4.1,2.2c0,1.5-0.4,3.2,1.7,3.8c0,2.1,0,4.2,0,6.3c-6,2-10.8,6-16.3,8.9
		c-1.5,0.8-2.9,1.6-4.6,1.5c-1.5-0.2-2.4,0.5-3,1.8l-0.4,0.1c0,0-0.4,0-0.4,0c-2.2-0.6-2.1-2.3-2.1-4
		C225.8,232.1,225.8,229.1,225.9,226.1z"/>
	<path class="st65" d="M249.8,244.4c1.7,0.2,2.2,1.7,2.8,2.9c0,3.7-0.1,7.4-0.1,11c-4.3,3.1-8.9,5.6-13.7,7.8
		c-2.9,1.1-6.3,1.7-7.5,5.2c-1.2,1.4-3.5,0.3-4.6,1.9c-0.6,0-1.2,0-1.9,0c0,0,0,0,0,0c0.4-1.8,1.2-3.6,0.8-5.6c0-0.9,0-1.8,0-2.7
		c0-3.3,0-6.6,3.1-8.9C235.8,252.1,242.8,248.3,249.8,244.4z"/>
	<path class="st68" d="M231.3,271.3c1.2-3.6,4.6-4.1,7.5-5.2C237.3,269.3,234.1,270,231.3,271.3z"/>
	<path class="st70" d="M225.6,284.3c-1.1-1.6-1-3.1,0.1-4.6C227.1,281.2,227.2,282.8,225.6,284.3z"/>
	<path class="st70" d="M224.8,273.2c0.6,0,1.2,0,1.9,0c-0.3,0.7-0.7,1.3-1,2C225.4,274.5,225.1,273.8,224.8,273.2z"/>
	<path class="st66" d="M37.1,146.9c8.4,2.9,15.5,8.4,23.4,12.3c0.8,0.4,1.6,0.8,2.5,1.1c0.1,2.2,0.2,4.3,0.4,6.5c0,1.2,0,2.5,0,3.7
		c-0.6,6.4-0.8,6.6-6.2,3.4c-6.9-4-14.3-7.3-20.4-12.7C36.9,156.5,37,151.7,37.1,146.9z"/>
	<path class="st67" d="M166.4,156.8c0.4,1.4,1.1,2.6,2.8,2.4c1.4-0.2,1.9-1.4,2.4-2.5c0.9-2.4,0.7-4.9,0.5-7.3c-0.4-3.9,1.2-6,5-6.9
		c1.8-0.5,4.1-0.7,4.5-3.3c0.3,0,0.5-0.1,0.8-0.1c1.9-0.2,3.2-1.6,4.6-2.8c3.7-1.8,6.1-6.3,11.1-5.7c0,0,0,0.3,0,0.3
		c0,2.8-0.2,5.5,0.1,8.3c0.5,4.4-2,7.3-5.4,8.7c-5,2.1-9.2,5.5-14.1,7.7c-5.8,2.6-9.8,6.8-8.4,14c0.3,1.8,0.1,3.7,0.1,5.5
		c-5.8-1.2-10.5-4.7-15.5-7.6c-3.5-2-6.8-4.8-11.2-4.5c-2.9-0.1-5.3,1.5-7.5,3.1c-5.8,4.3-12.2,7.5-18.5,10.8c0-1.2,0.1-2.5-0.1-3.7
		c-1.8-8.9,1.8-14.8,9.9-18.5c5.3-2.4,10.4-5.2,15.6-7.7c2.3-1.2,4.3-0.7,6.3,0.9c3,2.4,6.1,4.5,9.8,5.7c0.8,0.1,1.7,0.1,2.5,0.2
		c0.5,1.5,1.3,2.6,3,2.6C165.3,156.7,165.9,156.8,166.4,156.8z"/>
	<path class="st70" d="M143.7,163.2c4.5-0.3,7.7,2.4,11.2,4.5c5,2.9,9.7,6.4,15.5,7.6c0.6,0.4,1.2,0.9,1.8,1.3
		c-1.5,5.1-0.6,10.3-1,15.4c-6.7-1-12.4-3.9-16.8-9.2c4.7,0.2,7.7,3.9,11.7,5.7c3,1.4,3.2,0.7,3.4-2c0.4-3.8-1.9-5.4-4.1-8
		c-4.6-5.4-10.7-8.2-16.4-11.7c-1.5-0.9-3.1-1.5-3.7,1.3c-1.1,5.8,0,8.7,5,11.9c1.1,0.7,1.9,1.5,2.4,2.7c-3.6,1.1-5.2-3.2-8.4-3
		c-0.3-0.1-0.6-0.1-0.9-0.2C143.5,174,143.6,168.6,143.7,163.2z"/>
	<path class="st68" d="M63.2,157.6c0-1,0-1.9-0.1-2.9c3.2-1.1,5-2.7,3.8-6.5c-0.5-1.4-0.2-3-0.2-4.6c0.5-0.1,0.9-0.3,1.4-0.4
		c5.1,1,8.8,4.8,13.4,6.8c1.4,1.1,2.9,3.4,0.2,3.3c-6.1-0.2-9.8,4.3-15,5.7c-0.6,0.2-1.2,0.2-1.8,0.2
		C64.8,158.4,64.3,157.7,63.2,157.6z"/>
	<path class="st70" d="M81.5,150.1c-4.6-2.1-8.3-5.9-13.4-6.8c4.7-3.6,10-6.2,15.2-8.9c-0.1,1.4,0.4,2.7,1,4
		c1.5,3.3,0.3,4.7-3.2,4.1c-0.7-0.1-1.5-0.7-1.9,0.5c1,2.8,4.3,1.8,6,3.5C85,148.7,82.5,148.7,81.5,150.1z"/>
	<path class="st68" d="M85.2,146.5c-1.7-1.6-5-0.6-6-3.5c0.4-1.2,1.2-0.6,1.9-0.5c3.5,0.5,4.7-0.8,3.2-4.1c-0.6-1.3-1.1-2.5-1-4
		c0.5-0.1,1-0.2,1.5-0.3c2.7,0.8,3.1,2.9,3.2,5.3c0.1,2.4-0.4,4.8,0.9,7C87.7,146.4,86.5,146.5,85.2,146.5z"/>
	<path class="st70" d="M63.2,157.6c1.1,0.1,1.5,0.8,1.6,1.8c-0.6,2.4,1.4,5.4-1.6,7.4c-0.1-2.2-0.2-4.3-0.4-6.5
		C63.1,159.4,63.2,158.5,63.2,157.6z"/>
	<path class="st68" d="M91.8,151.1c1.4-0.4,3.4-1.9,3.9,0.1c0.5,2.2-1.9,2.7-3.9,2.8C90.6,153,90.7,152,91.8,151.1z"/>
	<path class="st66" d="M84.8,134.1c-0.5,0.1-1,0.2-1.5,0.3c-5.3,2.7-10.5,5.3-15.2,8.9c-0.5,0.1-0.9,0.3-1.4,0.4
		c-1.2,0.5-2.3,1.1-3.7,0.6c0,0-0.1-0.4-0.1-0.4c0.1-5,0.2-9.9,0.2-14.9c7.9-3.4,15.2-8,22.3-13c1.7,0,3.3,0,5,0
		c0,3.7,0.1,7.3,0.1,11c0,1.5-0.2,3.1,1.6,4c8.5,4.4,16.4,10,25.2,13.9c0.1,4.2,0.2,8.4,0.2,12.6c-0.8,2.3-2.4,2-4,1.1
		c-6.8-3.9-13.5-7.8-20.3-11.7c-2-1.1-2.8-2.6-2.7-4.9c0.1-2,0.1-4,0-6c-0.1-1.6,0.3-3.6-1.9-4.2C86.8,131.2,85.7,132.6,84.8,134.1z
		"/>
	<path class="st69" d="M117.7,157.6c-0.1-4.2-0.2-8.4-0.2-12.6c0.1-0.7,0.2-1.4,0.3-2.1c0.6,0,1.1,0,1.7-0.1
		c4.8-1.2,8.6-4.6,12.9-6.7c3.7-1.8,6.3-6,11.1-5.3c0.8,2.4,1.1,4.9,0.9,7.4c-0.9,0.9-1.2,2,0.2,2.6c1.3,0.7,1.7,1.7,1.7,3
		c-7.8,3.6-15.8,7-22.9,12.1C121.7,157,119.8,157.5,117.7,157.6z"/>
	<path class="st68" d="M146.3,143.7c0-1.3-0.4-2.3-1.7-3c-1.3-0.6-1.1-1.7-0.2-2.6c1.5,0,3.1,0.2,4.2-1.2c1.5-1.9,3.2-0.9,3.4,0.5
		c0.5,3.9,3.6,4.5,6.2,5.9c1.4,0.7,2.6,0.9,2.4,3.1c-0.2,1.8,1.8,2.3,3.2,2.6c1.7,0.3,2.4-0.9,2.8-2.3c0.2-0.8,0.8-1.6,1.3-2.3
		c0.5,0.1,1,0.2,1.5,0.2c-0.1,2.7-0.7,5.4-0.1,8.2c0.5,2.2-0.1,4-2.9,4.1c-0.6-0.1-1.1-0.1-1.7-0.2c-0.2-1.8-1.1-2.8-3-2.6
		c-0.8-0.1-1.7-0.1-2.5-0.2C155.3,149.9,152.2,145,146.3,143.7z"/>
	<path class="st67" d="M86.3,34.7c5.1,0.7,3.3,5.6,5.1,8.3c0,0.5,0,1.1,0,1.6c-1.1,2-1.6,4.1-1.6,6.4c-9.3,3.7-17.5,9.6-26.4,14.1
		c-0.1-0.4-0.2-0.7-0.3-1.1c0.9-1.5,0.8-3.1,0.5-4.8c-1.5-7.6-0.2-10,6.6-13.4c2.2-1.1,4.6-1.9,5.1-4.7c1.5-0.1,2.4-1.3,3.6-2
		c1.8,0.1,3.6,0.3,4.6-1.8C84.3,36.4,85.3,35.6,86.3,34.7z"/>
	<path class="st65" d="M90.4,67.4c0-0.2,0-0.4,0.1-0.6c1,0.4,2,0.8,2.9,1.3c6.3,3.4,12.6,6.8,19.4,9.1c0.9,2.1,2.6,3.1,4.7,3.6
		c0,5.2,0,10.5,0,15.7c0,0,0.1-0.1,0.1-0.1c-6.5-1.8-11.6-6.4-17.5-9.4c-3.1-1.6-5.6-4.2-9.3-4.5c0,0-0.1,0-0.1,0
		C90.6,77.5,90.5,72.5,90.4,67.4z"/>
	<path class="st69" d="M90.4,67.4c0.1,5.1,0.2,10.1,0.3,15.2c-2.8,0-4.9,1.8-7.2,2.8c-6.9,3.1-13,7.5-20.1,10.2
		c-0.1-3.7-0.3-7.4-0.2-11c0-5,4.6-5.8,7.7-7.6c4.5-2.6,9.2-4.8,13.4-7.9C86.2,67.6,88.4,68,90.4,67.4z"/>
	<path class="st67" d="M62.9,96.6c0.1,3.5,0.2,7.1,0.1,10.6c0,1.5,0.5,3.3-1.5,3.9c-1.5,0.5-3.1,0.4-4.4-0.7
		c-4.8-4.3-11.2-6.2-16.1-10.3c-1.5-1.2-3.2-0.8-4.9-0.9c-0.6-4.1,1.7-8.1,0.3-12.3c-0.4-1.1,0.3-2.5,1.6-3.1c1.5-0.7,2.6,0.1,3.8,1
		c5.4,4.4,12,6.7,17.7,10.6C60.4,96.1,61.8,96.2,62.9,96.6z"/>
	<path class="st65" d="M63,64.1c0.1,0.4,0.2,0.7,0.3,1.1c-0.1,3.9-0.2,7.7-0.1,11.6c0.1,3.2-1.2,3.4-3.6,2
		c-5.4-3.2-10.9-6.3-16.4-9.5c-1.9-1.1-3.7-2.2-5.9-2.5c-0.1-3.7-0.2-7.4-0.2-11.1c0-4.8,0.3-5,4.4-2.7c6,3.4,12,6.7,18,10.2
		C60.7,63.7,61.8,64.1,63,64.1z"/>
	<path class="st70" d="M112.9,77.2c-6.8-2.3-13.1-5.7-19.4-9.1c-0.9-0.5-1.9-0.8-2.9-1.3c-1.2-5.2,1-10.6-0.8-15.8
		c0-2.3,0.5-4.4,1.6-6.4c2.4,2.5-1.2,5.9,1.3,8.4c0,3.5-1.7,6.8-0.2,10.4c1.4,3.3,4.6,3.7,6.7,3.6c1.8-0.1-0.3-2.7-0.6-4.1
		c-0.5-1.9,0.6-2.9,1.7-3.9c0.7-0.7,1.5-1.2,2.5-0.6c1.5,0.9,2.1,2.2,1.9,3.9c-0.2,1.4-0.6,2.7-0.8,4c-0.1,1.2-0.3,2.6,1.2,3.1
		c1.2,0.4,2-0.3,2.7-1.1c0.9-1,1.7-2.6,3.3-1.8c1.7,0.8,0.8,2.7,1,4.2c0,2.2-0.3,4.4,0.9,6.4L112.9,77.2z"/>
	<path class="st70" d="M15,93.7c0.2-2.5,3.1-3.8,2.9-6.6c-0.1-1.6,1.3-1.4,2.3-0.7c2.2,1.5,4.5,0.8,5.9-0.9
		c2.7-3.3,6.5-4.2,10.1-5.7c0.1,2.6-2.2,4-3.8,4.8c-5.3,2.5-10.2,5.6-15.1,8.7C16.6,93.7,15.7,93.6,15,93.7z"/>
	<path class="st70" d="M36.2,76.2c-2.5-1.3-2.5-2.5,0.1-3.7C36.2,73.7,36.2,74.9,36.2,76.2z"/>
	<path class="st66" d="M90.9,82.6c3.7,0.3,6.2,3,9.3,4.5c5.9,3,10.9,7.6,17.5,9.4c0,3.4-0.1,6.8-0.1,10.1c0,4.9,1,5.1,5.4,3.2
		c5.8-2.4,10.9-6.1,16.2-9.2c1.4-0.8,2.8-1.3,4.3-1.3c0.2,0.1,0.5,0.2,0.8,0.2c-2.2,11.3,3,17.9,13.2,21.9c4.7,1.8,8.5,5.4,13.4,6.9
		c0.7,4.5,0.4,9,0.3,13.5c0,1.3-0.3,2.4-1.8,2.7c-0.5-0.1-1-0.2-1.5-0.2c-3.7-2.9-7.8-5.1-11.9-7.4c-6.2-3.5-13.8-6.1-11.7-15.9
		c0.3-1.6,1-4.2-1.3-4.8c-2-0.6-4.2,0.2-5.4,2.4c-0.5,0.3-1,0.6-1.6,1c-1.2,0.5-2.5,1.1-3.7,1.6c-5.2,2-9.1,6.4-14.7,7.7l0-0.1
		c0-4-0.1-8,0-11.9c0-1.8-0.3-3.4-2-4.3c-8.2-4.3-15.6-10.2-24.5-13.3c-0.4-0.6-0.8-1.1-1.3-1.7C89.6,92.5,90.2,87.5,90.9,82.6z"/>
	<path class="st65" d="M89.9,97.5c0.4,0.6,0.8,1.1,1.3,1.7c-1.7,2.1-1.4,4.7-1.2,7.1c0.3,4.2-0.1,7.8-4.4,9.8
		c-7.1,5-14.3,9.6-22.3,13c-0.1-1-0.1-2-0.2-2.9c0.3-13.4,0.3-13.2,12.2-19.6C80.3,103.8,85.8,101.8,89.9,97.5z"/>
	<path class="st69" d="M63,126.1c0.1,1,0.1,2,0.2,2.9c-0.1,5-0.2,9.9-0.2,14.9c-0.6-0.1-1.2-0.1-1.9-0.2c-1.2-5.1-5.7-4.4-9.3-5.5
		c-0.3-0.1-0.6-0.1-0.8-0.2c-0.5-2-2.1-2.4-3.8-2.6c-0.3,0-0.6-0.1-0.9-0.1c-1.5-2.5-3.3-4.7-6.6-4.5c-0.6,0-1.1-0.1-1.7-0.1
		c0-1.1,0-2.1-1-2.8c0-4.3,0-8.6,0.1-12.9c3.6,1.3,5.5,5.3,9.5,6C52.3,122.1,57,126.4,63,126.1z"/>
	<path class="st69" d="M92.7,53c-2.5-2.5,1.1-5.9-1.3-8.4c0-0.5,0-1.1,0-1.6c3-1.8-1.1-5.1,1.5-6.9c6.5,3.4,13,6.8,19.4,10.4
		c1.8,1,3.4,1.1,5.3,1c0,0,0.1,0.1,0.1,0.1c0,4.6,0,9.2,0,13.8c-0.6,0.9-1.2,1.9-1.8,2.8c-2.4-0.3-3.9-2-5.8-3.4
		C104.8,57,99.7,52.8,92.7,53z"/>
	<path class="st68" d="M78.8,39.1c-1.2,0.7-2.1,1.9-3.6,2c-2.6-0.3-3.6,3.2-6.6,2.3c-3.9-1.2-5.1-3.8-2.2-7c2.6-2.9,5.7-5.2,9.2-6.9
		c2.2-1.1,4.5-1.9,6.5-3.3c1.8-1.3,3.6-1.2,5.1,0.2c1.9,1.8,0,3.1-1.1,4.1c-1.9,1.7-1.1,2.9,0.3,4.1c-1,0.9-2,1.8-3,2.6
		C81.7,37.6,79.5,36.5,78.8,39.1z"/>
	<path class="st68" d="M51,48.9c0.1,2.9-1.1,3.6-3.4,2.4c-4.2-2.3-6.3-6.5-9.1-10.1c-0.9-1.1,0.3-1.8,1.6-1.9
		C45.1,38.9,50.9,44.2,51,48.9z"/>
	<path class="st68" d="M61.2,52.6c-0.1,1.4,0.2,3.5-2.3,2.9c-1.7-0.4-4.5,0-4.1-3.1c0.3-2.3,2.1-3.5,4.1-3.6
		C61.2,48.7,61.2,50.8,61.2,52.6z"/>
	<path class="st70" d="M63.1,144.3c1.3,0.5,2.5-0.2,3.7-0.6c0.1,1.5-0.2,3.2,0.2,4.6c1.2,3.7-0.6,5.4-3.8,6.5
		C63.2,151.3,63.1,147.8,63.1,144.3z"/>
	<path class="st70" d="M51.9,138.2c3.5,1.1,8.1,0.4,9.3,5.5C57.9,142.2,54,141.7,51.9,138.2z"/>
	<path class="st70" d="M39.8,130.8c3.3-0.2,5.1,2,6.6,4.5C43.8,134.4,40.9,134,39.8,130.8z"/>
	<path class="st70" d="M47.2,135.5c1.7,0.2,3.3,0.6,3.8,2.6C49.3,137.9,47.8,137.4,47.2,135.5z"/>
	<path class="st67" d="M172,241c8.7-3.5,16.4-8.8,24.5-13.4c2.3-1.3,2.5-4.2,2.1-6.2c-0.6-3.4,0.1-6.7,0.2-10
		c2.2-0.5,3.8,0.2,5.4,1.7c1.9,1.8,4.1,3.2,6.5,4.3c4.7,2.2,9.4,4.3,13.3,7.7c0,2.4,0,4.9,0,7.3c-0.1,5.7-2,7-7,4.3
		c-4.3-2.3-8.3-5-12.5-7.4c-2.3-1.3-5-3.5-6.2,1.2c0,1.5,0,3,0,4.6c-0.3,4.5-2.5,7.7-6.7,9.5c-1.9,0.8-3.3,2.2-3.8,4.3
		c-0.6,0.1-1.1,0.1-1.7,0.2c-1.8,0-2.6,1-2.8,2.6c-2.1,0-3.1,1.8-4.6,2.7c-0.6,0-1.2,0-1.8,0.1c-3.7,0.4-6-0.2-4.8-5
		C172.7,247,172.1,243.9,172,241z"/>
	<path class="st65" d="M224,225.2c-3.9-3.4-8.7-5.5-13.3-7.7c-2.4-1.1-4.6-2.5-6.5-4.3c-1.6-1.5-3.2-2.3-5.4-1.7
		c-0.2-0.3-0.5-0.7-0.7-1c0-3.7,0-7.4,0-11.2c1.2-3.9,4-2,6.4-1.9c0.6,0.3,1.2,0.7,1.7,1c1.5,2.6,3.7,4,6.6,4.4
		c2.2,0.3,3.7,1.9,5.5,3c0.2,1.1,0.7,1.6,1.8,1.6c0.6,0.1,1.2,0.2,1.8,0.3c0.5,2,2.9,2,3.7,3.6c0,4.6,0,9.2,0,13.8
		C225.2,225.1,224.6,225.1,224,225.2z"/>
	<path class="st67" d="M154.4,182.8c4.4,5.2,10.1,8.1,16.8,9.2c0,0.3,0,0.5,0.1,0.8c-0.1,5.3-0.2,10.5-0.2,15.8
		c-6.7-2.2-12.2-6.7-18.4-9.8c-2.7-1.3-5-3.5-8.1-4c0-5,0-10-0.1-14.9c3.2-0.2,4.8,4.2,8.4,3C153.3,182.7,153.8,182.8,154.4,182.8z"
		/>
	<path class="st69" d="M198.1,199.2c0,3.7,0,7.4,0,11.2c-7.7,4.3-15.5,8.5-23.2,12.8c-1.1-0.9-2.3-1.8-3.4-2.6c0-1.3,0-2.7,0.1-4
		c0.3-1.2,0.6-2.4,0.7-3.6c0.5-4.3,1.9-6.8,7.1-6.6c4.7,0.2,7.4-4.5,11-6.9C193.5,197.4,195.5,197,198.1,199.2z"/>
	<path class="st70" d="M172,241c0,2.9,0.6,6-0.1,8.7c-1.2,4.8,1.1,5.4,4.8,5c0.6-0.1,1.2-0.1,1.8-0.1c-2.5,2.9-5.9,2.7-9.2,2.8
		c0-5.2,0-10.5,0-15.7c0.6-0.3,1.2-0.6,1.8-0.8C171.5,240.9,171.8,240.9,172,241z"/>
	<path class="st68" d="M171.5,220.6c1.1,0.9,2.3,1.8,3.4,2.6C171.6,225.2,171.1,223.5,171.5,220.6z"/>
	<path class="st68" d="M169.4,241.7c0,5.2,0,10.5,0,15.7c0,0,0,0,0,0c-2.6-0.7-2.3-4.8-5.7-4.6c-4,0.2-6.8-2.1-9.6-4.6
		c-2.4-2.2-5.1-4.7-8.9-2.7c-0.3-0.6-0.5-1.3-0.8-1.9c0.8-3.8,4.6-5.3,6.5-8.3c1-1.7,3.3-1.1,5.1-0.6c1.5,0.4,2.9,1,4.3,1.4
		c0.3,0,0.5,0,0.8,0.1c0.1,1.2,0.8,1.8,1.9,1.8C166,237.7,167.7,239.7,169.4,241.7z"/>
	<path class="st70" d="M143.6,222.3c-2.6-1.8-2.7-3.7,0-5.6C144.7,218.6,144.8,220.5,143.6,222.3z"/>
	<path class="st70" d="M163,238c-1.2,0-1.8-0.7-1.9-1.8C162.2,236.3,162.8,236.9,163,238z"/>
	<path class="st65" d="M144.3,243.6c0.3,0.6,0.5,1.3,0.8,1.9c-1.2,4.6,0.6,9.2,0,13.7c-0.9,0.3-1.7,0.7-2.6,1
		c-2.1-0.1-4.2,0-4.7,2.6c-6.4,3.5-12.9,6.9-19.3,10.4c-1.4-1.4-0.7-3.1-1-4.7c0-3.4,0-6.8,0-10.2c0.3-0.5,0.7-1,1-1.5
		c6.9-2.8,13.1-7.1,19.5-10.7c1.7-1,3.5-1.9,5.2-2.8C143.6,243.4,144,243.5,144.3,243.6z"/>
	<path class="st66" d="M88.9,260c-7.7,4.2-15.4,8.5-23.1,12.7c-4-4.5-2.7-14.4,2.4-17c6-3.1,11.9-6.2,17.6-9.9
		c0.9-0.6,1.7-1.5,2.9-0.9c1.4,0.8,1.1,2,0.8,3.3C88.9,252.1,91.2,256.2,88.9,260z"/>
	<path class="st70" d="M142.6,260.3c0.9-0.3,1.7-0.7,2.6-1c5.6-0.3,9.5,3.4,13.8,5.9c3.9,2.3,7.3,5.6,12.3,5.3
		c0.9,0.6,1.9,1.2,2.8,1.8c-0.9,0.6-1.8,1.2-2.8,1.9c-4.7,0.1-7.4-4-11.3-5.6c-3.5-1.4-6.5-4-10.1-5.4c-1.5-0.6-2.7-2.5-4.5-1.2
		c-1.5,1.2-0.7,3.2-1,4.8c-0.4,2.2,2.6,4.8-0.7,6.6c-1.2-4-1.1-8.1-1.1-12.2C142.6,260.9,142.6,260.6,142.6,260.3z"/>
	<path class="st69" d="M225.6,264.9c0,0.9,0,1.8,0,2.7c-2.6,3.5-5.2,2.6-8.3,0.4c-3.1-2.1-5.9-5.1-10.1-4.9c-0.3,0-0.6-0.1-0.8-0.2
		c-1-4.5-5.9-3.1-8.3-5.4c0-0.9,0.1-1.9,0-2.8c-0.9-9.1,3-11.3,11.2-6.4c4.2,2.5,7.9,6.2,12.9,7.3
		C224.4,258.3,222.7,262.4,225.6,264.9z"/>
	<path class="st70" d="M207.2,263.1c4.2-0.2,7.1,2.8,10.1,4.9c3.2,2.2,5.7,3.1,8.3-0.4c0.5,2-0.4,3.7-0.8,5.6
		C218,271.5,212.4,267.6,207.2,263.1z"/>
	<path class="st70" d="M198,257.5c2.4,2.4,7.3,1,8.3,5.4c-2.9-0.2-5-3-8.1-2.5c-2.8-0.9-5.1,0.9-7.6,1.7
		C191.7,258.2,195.7,259.2,198,257.5z"/>
	<path class="st68" d="M142.6,260.3c0,0.3,0,0.6,0,0.9c-1.6,0.6-2.9,1.8-4.7,1.8C138.4,260.3,140.4,260.2,142.6,260.3z"/>
	<path class="st70" d="M117.7,280.5c-1-0.9-1-1.7,0-2.6C118.6,278.7,118.6,279.6,117.7,280.5z"/>
	<path class="st68" d="M198,257.5c-2.3,1.7-6.4,0.7-7.4,4.6c-5.4,3.6-10.8,7.3-16.6,10.2c-0.9-0.6-1.9-1.2-2.8-1.8
		c-0.5-4.4,1.3-9-1.8-13c0,0,0,0,0,0c3.3-0.2,6.8,0.1,9.2-2.8c1.6-0.9,2.5-2.7,4.6-2.7c1.7-0.1,2.6-1,2.8-2.6
		c0.6-0.1,1.1-0.1,1.7-0.2c4.9,0.4,7.9-2.6,11-5.7c2.9-2.9,2.5-5.6-0.5-8.1c0-1.5,0-3,0-4.6c1.7-0.4,3.2-1.2,5.2,0.2
		c5.1,3.5,10.4,6.7,15.8,9.7c4.8,2.6,6.5,10.3,2.9,15.1c-5-1.1-8.7-4.7-12.9-7.3c-8.1-4.9-12.1-2.7-11.2,6.4
		C198.1,255.6,198,256.6,198,257.5z"/>
	<path class="st66" d="M117.6,96.6c0-5.2,0-10.5,0-15.7c0.1-0.2,0.2-0.5,0.2-0.7c1.2-0.2,2.3-0.8,3.4-1.4c7.5-4.1,15-8.1,22.5-12.2
		c0.5,0.1,0.9,0.2,1.4,0.3c-0.7,3.9-0.9,7.9-0.7,11.8c0.1,2-0.5,4-2.2,4.8C133.7,87.3,126.3,93.3,117.6,96.6z"/>
	<path class="st67" d="M143.7,66.6c-7.5,4-15.1,8.1-22.5,12.2c-1.1,0.6-2.1,1.2-3.4,1.4c0-1.1,0-2.2-0.1-3.2
		c-1-7.4,0.2-13.5,8.5-16.3c6.2-2.1,10.3-8.3,17.4-8.6C143.6,56.9,143.6,61.7,143.7,66.6z"/>
	<path class="st70" d="M143.5,52c-7.1,0.3-11.2,6.6-17.4,8.6c-8.3,2.8-9.5,8.8-8.5,16.3c0.1,1.1,0.1,2.1,0.1,3.2
		c-0.1,0.2-0.1,0.5-0.2,0.7c-2.1-0.6-3.8-1.5-4.7-3.6c0,0,0.1-0.1,0.1-0.1c4.1-0.8,2.3-4.1,2.8-6.4c0-2.2,0-4.3,0-6.5
		c0.6-0.9,1.2-1.9,1.8-2.8c1.6-0.2,2.4-1.1,2.9-2.6c0.5-1.6,1.6-2.3,3.2-1.7c2.3,0.9,3.2-1.1,4.8-1.8c5.4-2.4,8.5-8.7,15.1-8.8
		c0,1.1,0,2.3,0,3.4C143.6,50.7,143.6,51.3,143.5,52z"/>
	<path class="st68" d="M143.6,46.6c-6.6,0.1-9.7,6.4-15.1,8.8c-1.5,0.7-2.4,2.7-4.8,1.8c-1.6-0.6-2.7,0.1-3.2,1.7
		c-0.5,1.5-1.3,2.4-2.9,2.6c0-4.6,0-9.2,0-13.8c3.1-0.2,5.8-1.9,7.6-3.9c4.8-5.1,11.3-6.4,17.3-9.1c0.1,1.6-0.5,3.5,1.1,4.7
		C143.7,41.7,143.6,44.2,143.6,46.6z"/>
	<path class="st66" d="M172.2,176.5c-0.6-0.4-1.2-0.9-1.8-1.3c0-1.8,0.2-3.7-0.1-5.5c-1.4-7.2,2.6-11.4,8.4-14
		c4.9-2.2,9.1-5.6,14.1-7.7c3.4-1.4,5.9-4.3,5.4-8.7c-0.3-2.7-0.1-5.5-0.1-8.3c3.2-0.9,5.1,1.6,7.3,3c6.2,4.1,12.8,7.5,19.6,10.6
		c0,4.9,0,9.9-0.1,14.8c-3.3,0.7-5.3-2.5-8.3-2.8c-0.2-0.1-0.4-0.2-0.7-0.1c-0.3-1-0.9-1.7-2.1-1.7c-0.5-0.1-1-0.2-1.5-0.2
		c-0.8-1.6-2.3-2.4-4-2.7l-0.3-0.1c0,0-0.3,0.1-0.3,0.1c-0.6-1.4-1.5-2.5-3.2-2.6c-1.1-0.4-2.2-0.8-3.3-1.2c-2.7-2.6-2.9-0.2-3,1.6
		c-0.2,4.4-0.2,8.8-0.3,13.3c-6.8,2.5-12.4,7.1-18.8,10.4C176.9,174.4,174.7,175.9,172.2,176.5z"/>
	<path class="st68" d="M212.9,202.7c-2.9-0.4-5.2-1.8-6.6-4.4C209.1,198.8,211.5,200.1,212.9,202.7z"/>
	<path class="st70" d="M220.2,207.3c-1.1,0.1-1.7-0.5-1.8-1.6C219.4,205.8,220.1,206.3,220.2,207.3z"/>
	<path class="st70" d="M208.3,151.8c1.7,0.3,3.2,1.1,4,2.7C210.1,154.9,208.4,154.5,208.3,151.8z"/>
	<path class="st70" d="M204.5,149.2c1.7,0.1,2.6,1.1,3.2,2.6C205.8,152,204.7,151.1,204.5,149.2z"/>
	<path class="st70" d="M213.8,154.8c1.2,0,1.8,0.7,2.1,1.7C214.6,156.6,213.9,156,213.8,154.8z"/>
	<path class="st70" d="M187,136.3c-1.4,1.2-2.7,2.5-4.6,2.8C183.1,136.9,183.7,134.4,187,136.3z"/>
	<path class="st70" d="M222.1,255.6c3.6-4.8,1.9-12.5-2.9-15.1c-5.4-2.9-10.7-6.2-15.8-9.7c-2-1.3-3.4-0.5-5.2-0.2
		c1.2-4.8,3.9-2.5,6.2-1.2c4.2,2.4,8.2,5.1,12.5,7.4c5,2.7,6.9,1.4,7-4.3c0-2.4,0-4.9,0-7.3c0.6,0,1.2-0.1,1.7-0.2
		c0,0.3,0.1,0.7,0.1,1c0,3,0,6.1,0,9.1c0,1.7-0.1,3.4,2.1,4c-4.2,4-1.9,9-1.9,13.6c0,1.7,1.2,2.7,2.8,3.2c-3.1,2.2-3.2,5.5-3.1,8.9
		C222.7,262.4,224.4,258.3,222.1,255.6z"/>
	<path class="st70" d="M228.6,239.1c0.5-1.4,1.5-2,3-1.8C231.1,238.8,230,239.1,228.6,239.1z"/>
	<path class="st70" d="M161.7,154c1.9-0.1,2.8,0.8,3,2.6C163,156.6,162.2,155.5,161.7,154z"/>
	<path class="st69" d="M154.4,182.8c-0.5,0-1,0-1.6,0c-0.5-1.1-1.4-2-2.4-2.7c-5-3.3-6.1-6.2-5-11.9c0.5-2.8,2.1-2.3,3.7-1.3
		c5.7,3.5,11.7,6.3,16.4,11.7c2.3,2.6,4.5,4.2,4.1,8c-0.3,2.7-0.5,3.4-3.4,2C162.1,186.7,159.1,183,154.4,182.8z"/>
	<path class="st67" d="M85.5,116.1c4.3-2,4.8-5.7,4.4-9.8c-0.2-2.4-0.5-4.9,1.2-7.1c8.9,3.1,16.3,9,24.5,13.3c1.7,0.9,2,2.5,2,4.3
		c-0.1,4,0,8,0,11.9c-7.4-2.5-14-6.7-20.7-10.6c-1.9-1.1-3.6-3.6-6.4-2C88.9,116,87.2,116.1,85.5,116.1z"/>
	<path class="st65" d="M90.5,116c2.8-1.6,4.5,0.9,6.4,2c6.7,3.9,13.3,8.1,20.7,10.6c0,0,0,0.1,0,0.1c0,0.9,0,1.9,0,2.8
		c0,2.8,0,5.6,0,8.4c0,0.9,0.1,1.9,0.1,2.8c-0.1,0.7-0.2,1.4-0.3,2.1c-8.8-3.9-16.7-9.5-25.2-13.9c-1.7-0.9-1.5-2.5-1.6-4
		C90.6,123.4,90.6,119.7,90.5,116z"/>
	<path class="st68" d="M117.7,140c0-2.8,0-5.6,0-8.4c6.5-1.2,10.3-7.4,16.6-9.1c1.2-0.3,1.7-1.7,1.7-3c0.5-0.3,1-0.6,1.6-1
		c4.3-1.4,5.4,0.5,5,4.5c-0.2,2.6-0.5,5.3,0.8,7.7c-4.9-0.8-7.5,3.4-11.1,5.3c-4.3,2.2-8.1,5.5-12.9,6.7
		C119.4,141.4,119.3,140.2,117.7,140z"/>
	<path class="st70" d="M143.5,130.7c-1.4-2.4-1.1-5.1-0.8-7.7c0.4-4-0.7-5.9-5-4.5c1.2-2.2,3.4-3,5.4-2.4c2.3,0.6,1.6,3.2,1.3,4.8
		c-2.1,9.8,5.5,12.3,11.7,15.9c4.1,2.3,8.2,4.5,11.9,7.4c-0.4,0.8-1,1.5-1.3,2.3c-0.4,1.5-1.1,2.7-2.8,2.3c-1.5-0.3-3.4-0.8-3.2-2.6
		c0.2-2.2-1-2.3-2.4-3.1c-2.5-1.3-5.7-2-6.2-5.9c-0.2-1.5-1.9-2.4-3.4-0.5c-1.1,1.4-2.7,1.2-4.2,1.2
		C144.6,135.6,144.2,133.1,143.5,130.7z"/>
	<path class="st70" d="M117.7,140c1.7,0.2,1.8,1.4,1.8,2.7c-0.6,0-1.1,0-1.7,0.1C117.7,141.9,117.7,140.9,117.7,140z"/>
	<path class="st70" d="M78.8,39.1c0.7-2.6,2.9-1.5,4.6-1.8C82.4,39.4,80.5,39.2,78.8,39.1z"/>
	<path class="st68" d="M115.8,64.2c0,2.2,0,4.3,0,6.5c-1.2,0-2.5,0-3.7,0c-0.2-1.4,0.7-3.3-1-4.2c-1.6-0.8-2.4,0.8-3.3,1.8
		c-0.7,0.9-1.5,1.6-2.7,1.1c-1.5-0.6-1.3-2-1.2-3.1c0.1-1.4,0.6-2.7,0.8-4c0.2-1.7-0.4-3-1.9-3.9c-1-0.6-1.8-0.1-2.5,0.6
		C99.2,60,98,61,98.5,62.8c0.4,1.5,2.4,4.1,0.6,4.1c-2.1,0.1-5.3-0.3-6.7-3.6c-1.5-3.6,0.2-6.9,0.2-10.4c7-0.2,12.1,4,17.3,7.8
		C111.9,62.2,113.4,63.9,115.8,64.2z"/>
	<path class="st69" d="M112,70.6c1.2,0,2.5,0,3.7,0c-0.4,2.4,1.3,5.6-2.8,6.4C111.7,75.1,112.1,72.8,112,70.6z"/>
	<path class="st70" d="M136.1,119.5c0,1.3-0.6,2.7-1.7,3c-6.3,1.7-10.1,7.9-16.6,9.1c0-0.9,0-1.9,0-2.8c5.6-1.3,9.4-5.8,14.7-7.7
		C133.6,120.6,134.8,120,136.1,119.5z"/>
	<path class="st70" d="M198.3,235.2c2.9,2.5,3.4,5.2,0.5,8.1c-3.1,3.1-6.2,6.1-11,5.7c0.5-2.1,1.9-3.5,3.8-4.3
		C195.8,242.9,198,239.8,198.3,235.2z"/>
	<path class="st70" d="M186.1,249.3c-0.2,1.7-1.1,2.5-2.8,2.6C183.5,250.3,184.3,249.3,186.1,249.3z"/>
	<path class="st69" d="M169.4,257.5c3.2,4,1.4,8.6,1.8,13c-5,0.2-8.4-3.1-12.3-5.3c-4.4-2.5-8.3-6.2-13.8-5.9
		c0.6-4.6-1.2-9.2,0-13.7c3.8-2,6.5,0.5,8.9,2.7c2.8,2.5,5.7,4.8,9.6,4.6C167.1,252.7,166.8,256.8,169.4,257.5z"/>
</g>
<polygon class="st90" points="163.6,30.9 163.8,29.4 162.3,30 "/>
</svg>
