<?xml version="1.0" encoding="utf-8"?>
<!-- Generator: Adobe Illustrator 24.0.2, SVG Export Plug-In . SVG Version: 6.00 Build 0)  -->
<svg version="1.1" id="Capa_1" xmlns="http://www.w3.org/2000/svg" xmlns:xlink="http://www.w3.org/1999/xlink" x="0px" y="0px"
	 viewBox="0 0 288 288" style="enable-background:new 0 0 288 288;" xml:space="preserve">
<style type="text/css">
	.st0{fill:#2D2D2D;}
	.st1{fill:#002530;}
	.st2{fill:#050523;}
	.st3{fill:#707C84;}
	.st4{fill:#E9E4DE;}
	.st5{fill:#EE3133;}
	.st6{fill:#FD99AF;}
	.st7{fill:#C4C2C0;}
	.st8{fill:#F2D8A3;}
	.st9{fill:#EFCB84;}
	.st10{fill:#EF692F;}
	.st11{fill:#4B343F;}
	.st12{fill:#16B198;}
	.st13{fill:#E72D52;}
	.st14{fill:#7B536F;}
	.st15{fill:#8F4CA9;}
	.st16{fill:#E2C29F;}
	.st17{fill:#9F4687;}
	.st18{fill:#A9A0AF;}
	.st19{fill:#CC4743;}
	.st20{fill:#8677A9;}
	.st21{fill:#8E5D8E;}
	.st22{fill:#DF615C;}
	.st23{fill:#9E4742;}
	.st24{fill:#D34861;}
	.st25{fill:#B75B6D;}
	.st26{fill:#DF6482;}
	.st27{fill:#FFFFFF;}
	.st28{fill:#829CA2;}
	.st29{fill:#F2B991;}
	.st30{fill:#E56759;}
	.st31{fill:#F5F3EE;}
	.st32{fill:#DC4B3F;}
	.st33{fill:#1D5A7D;}
	.st34{fill:#459492;}
	.st35{fill:#F0A349;}
	.st36{fill:#E4EFEB;}
	.st37{fill:#E17467;}
	.st38{fill:#B6BFBD;}
	.st39{fill:#F0E2D6;}
	.st40{fill:#396D89;}
	.st41{fill:#201A21;}
	.st42{fill:#48505D;}
	.st43{fill:#0B0707;}
	.st44{fill:#D30034;}
	.st45{fill:#6C919B;}
	.st46{fill:#F68C4A;}
	.st47{fill:#E5CFCD;}
	.st48{fill:#385B4D;}
	.st49{fill:#F14206;}
	.st50{fill:#BAD2D8;}
	.st51{fill:#F70059;}
	.st52{fill:#AA000C;}
	.st53{fill:#D8B5B2;}
	.st54{fill:#E08143;}
	.st55{fill:#F2E9E9;}
	.st56{fill:#F4D085;}
	.st57{fill:#23586A;}
	.st58{fill:#17241F;}
	.st59{fill:#EAE8E1;}
	.st60{fill:#253C4F;}
	.st61{fill:#F7FCFD;}
	.st62{fill:#0E151F;}
	.st63{fill:#8D897D;}
	.st64{fill:#BDB6AA;}
	.st65{fill:#EDE1AF;}
	.st66{fill:#DF786F;}
	.st67{fill:#E8C46F;}
	.st68{fill:#B0CEAD;}
	.st69{fill:#9FC4AF;}
	.st70{fill:#B8C6A0;}
	.st71{fill:#EBEC80;}
	.st72{fill:#DD7AB2;}
	.st73{fill:#D6D2D3;}
	.st74{fill:#69BCC5;}
	.st75{fill:#D0CBC1;}
	.st76{fill:#242424;}
	.st77{fill:#525252;}
	.st78{fill:#3D3D3D;}
	.st79{fill:#6B6B6B;}
	.st80{fill:#303030;}
	.st81{fill:#8A8A8A;}
	.st82{fill:#282828;}
	.st83{fill:#E6E6E6;}
	.st84{fill:#E8E8E8;}
	.st85{fill:#A9A9A9;}
	.st86{fill:#D9D9D9;}
	.st87{fill:#CACACA;}
	.st88{fill:#9E9E9E;}
	.st89{fill:none;}
	.st90{fill:#4A4744;}
	.st91{fill:#F0BA45;}
	.st92{fill:#F1D34E;}
	.st93{fill:none;stroke:#00A591;stroke-miterlimit:10;}
	.st94{fill:#EEEEEE;}
	.st95{fill:#FBFBFB;}
	.st96{fill:#F8F2DD;}
	.st97{fill:#8DB2A6;}
	.st98{fill:#ED8C58;}
	.st99{fill:#F0C153;}
	.st100{fill:#C2B146;}
	.st101{fill:#8E6E51;}
	.st102{fill:#1C1D4C;}
	.st103{fill:#111224;}
	.st104{fill:#26687B;}
	.st105{fill:#F8494A;}
	.st106{fill:#81819B;}
	.st107{fill:#80809B;}
	.st108{fill:#0AC6BB;}
	.st109{fill:#0BC5B9;}
	.st110{fill:#686888;}
	.st111{fill:#0BC5BA;}
	.st112{fill:#FEFEFE;}
	.st113{fill:#F8F5CE;}
	.st114{fill:#EF484B;}
	.st115{fill:#F94A4A;}
	.st116{fill:#F9F6CE;}
	.st117{fill:#DFE0E3;}
	.st118{fill:#04121D;}
	.st119{fill:#6693AB;}
	.st120{fill:#89BCD7;}
	.st121{fill:#FAF509;}
	.st122{fill:#0B2E41;}
	.st123{fill:#427491;}
	.st124{fill:#2A5973;}
	.st125{fill:#184259;}
	.st126{fill:#BCE4F7;}
	.st127{fill:#02111C;}
	.st128{fill:#FCF704;}
	.st129{fill:#F4F115;}
	.st130{fill:#DFE23F;}
	.st131{fill:#BCE6FA;}
	.st132{fill:#031D2B;}
	.st133{fill:#81851A;}
	.st134{fill:#1E1E1E;}
	.st135{fill:#F5142E;}
	.st136{fill:#05ACC0;}
	.st137{fill:#F87240;}
	.st138{fill:#FA723F;}
	.st139{fill:#F67240;}
	.st140{fill:#E37547;}
	.st141{fill:#07ADC0;}
	.st142{fill:#450D0D;}
	.st143{fill:#F57240;}
	.st144{fill:#440D0D;}
	.st145{fill:#470D0D;}
	.st146{fill:#EBECCC;}
	.st147{fill:#E9EACA;}
	.st148{fill:#00ABBF;}
	.st149{fill:#F6FAD9;}
	.st150{fill:#CBC3AC;}
	.st151{fill:#E2615D;}
	.st152{fill:#FAFAF8;}
	.st153{fill:#E8E4DA;}
	.st154{fill:#123057;}
	.st155{fill:#F4D16B;}
	.st156{fill:none;stroke:#F1D34E;stroke-miterlimit:10;}
	.st157{fill:#E3834C;}
	.st158{fill:#E9A779;}
	.st159{fill:#ECB74A;}
	.st160{fill:#00A591;}
</style>
<path class="st76" d="M59.6,332.2c-10.1-0.9-20.6,3.1-30.3-2.5c5.4-3.1,1.9-5.8-0.5-8.2c-13.9-14-28.1-27.7-41.6-42
	c-3.9-4.1-7.8-2.6-11.8-2.9c0-8.4,0-16.9-0.1-25.3c1.2-1,2.3-2,3.5-3c13.3,15.6,13,15.3,23.6,5.2c6-5.8,7.3-9.7,0.1-15.5
	c-5.9-4.8-10.5-12.1-17.7-1.9c-1.8,2.5-4,4.8-6,7.1c-0.9,0-1.9,0-2.8-0.1c0-9.9,0-19.8,0.1-29.7c5,3.5,8.3,1.7,12.3-2.6
	c11-11.8,22.7-23,34.1-34.4c13.9-13.9,13.9-21.8,0-35.5C11,129.7-0.8,118.6-11.6,106.7c-4.1-4.5-7.9-4.5-12.7-3.5
	c0-9-0.1-18.1-0.1-27.1c1.1-0.5,2.3-0.9,3.4-1.4c5.2,4.1,7.5,14.2,15.8,11.4c5.6-1.9,10.1-8.3,13.7-13.6c0.7-1-5.2-6.5-8.2-9.8
	c-1.2-1.3-2.7-2.2-4.1-3.3c-2.6-4.7-5.1-3.9-7.4,0.3c-3.3,3.2-6.6,6.4-9.8,9.6c-1.1-0.4-2.2-0.7-3.4-1.1c0.4-10.8-1.4-21.7,2-32.3
	c0,0-0.3-0.1-0.3-0.1c2.1,10.3,6.4,5.7,10.5,1.5C1.1,24,14,10.4,27.7-2.4c4.3-4,3.5-8.7,4.8-13.1c8.8,0.1,17.6,0.2,26.4,0.3
	c0.1,6.3-5.7,8.5-9,12.4c-2,2.4-4.2,4-2.2,7.9C54.2,17.9,63,19.2,73,9.3c5.6-5.5,5.1-9.2-0.4-14c-3.2-2.8-7.6-5.1-7.1-10.5
	c8.8-0.1,17.5-0.1,26.3-0.2c0.6,6.8,3.5,11.9,8.7,16.7c10.8,9.9,21,20.6,31.4,31c12.9,12.8,21.4,13,34,0.4
	c11.4-11.4,22.5-23,34.3-33.9c4.5-4.2,5.8-8.6,5.2-14.1c8.8,0,17.5-0.1,26.3-0.1c2.8,5.3-2,7.5-4.8,9.5c-7.8,5.9-7,10.6-0.1,16.8
	c6,5.4,10.1,8.7,17.4,1c7-7.3,8.8-12.3-0.1-18.9c-2.5-1.8-6.6-3.9-4-8.5c8.8,0,17.6,0.1,26.4,0.1c-0.8,5.6,0.7,10,5.1,14.1
	c12.8,12.3,25.4,24.8,37.6,37.6c4.1,4.3,8.4,5.9,14,5c0.1,8.8,0.2,17.6,0.2,26.4c-2.2,1.4-4.3,0.9-5.8-1.1
	c-9.7-13.2-18.1-8.8-26,1.9c-3.7,0.7-7.8-3.2-11,0.8c-0.8,1.1-0.9,3.8-0.1,4.9c3.4,4.6,6.9-0.1,10.4-0.4c12,14.5,12,14.5,26.5,3.2
	c1.9-1.5,3.5-2.6,5.9-1.1c-0.1,8.8-0.1,17.6-0.2,26.4c-4.9-0.5-9-0.2-13,3.9c-13.1,13.7-26.7,27-40.2,40.4c-2.9,2.9-6,5.7-1.7,9.9
	c-2.5,6.8-0.8,11.9,4.6,17c11.7,10.9,22.9,22.2,33.8,33.9c4.7,5.1,10,7.8,16.7,8.4c-0.1,8.8-0.2,17.6-0.3,26.4
	c-4.3,0.6-6.7-2.5-8.7-5.2c-5.9-7.9-11.2-8.8-17.7-0.4c-2.8,3.7-5.9,9.6-12.9,5.1c-2.6-1.7-5.3,0.7-5.1,4c0.2,3.3,3.1,4.9,5.7,3.2
	c3.1-2,5.5-2.9,7.8,0.6c9.2,14.1,18.1,11.9,27.2-0.2c0.6-0.8,2.5-0.5,3.7-0.8c0,9.6,0,19.1,0,28.7c-4.9-2.1-8.8-1.7-12.9,2.6
	c-12.9,13.6-26.4,26.7-39.6,40.1c-2.3,2.3-6.2,4.5-3,8.9c-0.2,1.1-0.5,2.1-0.7,3.2c-4.5,0.1-8.9,0.3-13.4,0.4c-1.9,0-3.8,0-5.7,0
	c-2.7-0.1-5.4-0.2-8-0.3c0.2-1.9,0.5-3.8,0.7-5.7c3.6-4.6,13.7-6.2,8.6-15c-7.8-13.8-14-13.9-24.6-2.1c-9.5,10.6,3.3,11.9,6.6,17.2
	c0.3,1.9,2.3,3.6,0.8,5.7c-9.1-0.1-18.1-0.2-27.2-0.3c0.8-4.4,1.1-8-2.8-11.8c-13.9-13.3-27.2-27.1-40.9-40.7c-3-3-6.3-7.6-10.2-0.7
	c-4.6-1.4-8.4-5.3-13.8,0.7c-12.9,14.2-26.8,27.5-40.6,40.9c-3.9,3.8-4.6,7.1-1.7,11.4c-10,0.1-20,0.1-30,0.2
	c0.9-5.9,6.2-8.4,9.8-11.9c4.9-4.7,2.6-8.1-1.2-10.8c-4.4-3.2-6.2-12.2-14-8.4c-13,6.5-14,14.2-4,24.7
	C57.2,327.7,60.1,328.9,59.6,332.2z M59.1,118.8c0.2,0.1,0.4,0.2,0.6,0.3c-0.3,0-0.5,0-0.8,0l0.4,0.3L59.1,118.8z M128.6,115.6
	c-0.7,0.8-1.4,1.5-2.1,2.3c-2.6,1.3-4.5,3.2-5.5,5.9c-2.7,0.9-4.5,2.8-5.7,5.4c-2.6,1.2-4.5,3-5.4,5.7c-2.5,0.9-4.4,2.5-5.3,5.1
	c-2.7,1-4.4,2.9-5.3,5.6c-6.6,5.8-8.3,19.4-2.6,25.2c10.8,11.2,22,22,33,33c6.6,6.6,12.6,14.6,23.9,10.3c5.6,3.3,6.7-2.7,9-4.9
	c11.8-10.9,23.1-22.2,34.7-33.4c14.7-1.6,11.1-10.4,7.6-19.2c1.5-3.3,0.7-5.8-1.9-8.3c-14.6-14.4-29.1-28.9-43.5-43.5
	c-2.6-2.6-5.2-3-8.4-1.9c2.5-7.1-5.6-17.1,6.1-21.7c8.1,9.7,13.6,4.3,20.2-2.5c7.7-7.9,0.7-11.2-3.3-16.3
	c-7.5-9.8-12.3-3.5-17.8,2.1c-2.7,2.7-6.4,9.4-10.5,3.4c-10.5-15.4-19.4-10.6-28.1,1c-1.6,2.1-5.5,0.1-5.5,3.7
	c6.8,0.6,9.3,6.6,13.1,10.6c4.3,4.6,7.9,5.1,12.4,1c11.6,2,6.8,11.2,7.9,17.9c-4.6-0.4-7.3,2.1-9.1,6c-0.8,0.7-1.7,1.4-2.5,2.1
	C132.2,112,130.4,113.8,128.6,115.6z M236.3,194.4c-3.6,1.6-6.2,3.8-2.8,7.7c0.7,0.8,3.8,0.9,4.6,0.1c3.6-3.7,1.1-6-2.5-7.7
	c16.6-19.6,16.6-19.6,0.2-34.7c-16.9,15.6-16.9,15.6-1,32.5C235.5,192.8,235.8,193.7,236.3,194.4z M182.9,244.2
	c-4.7-4.3-9.2-9.5-14.6-13.1c-4.5-3-6.5,3-9.7,4.9c-4.1,2.4-7.7,12-12.4,5.9c-11.6-15.1-20.2-10.3-29.8,1.3c-1.2,1.4-5,0.8-7.6,0.9
	c-2.6,0.2-0.9,1.5-0.6,2.3c0.2,0.6,0.7,1.1,1.1,1.6c9.3-6.6,10.8,4.3,14.6,7.6c5.7,4.9,9.3,8,14.7,0.5c6.8-9.3,13.5-9.8,20.8-0.1
	c2,2.7,4.7,8.1,9.5,4.1C173.9,255.8,179.4,251.8,182.9,244.2z M79.2,71.7c-5.8-5.3-9.6-14.2-16.6-14.3c-7-0.1-14.8,7.9-15,14.5
	c-0.2,6.7,7.7,14.6,14.6,14.9C69.4,87,73.1,77.7,79.2,71.7z M78.9,245.7c-5.6-5.8-9.5-15-16.6-14.6c-6.7,0.3-14.7,8.1-14.6,14.8
	c0.2,6.5,7.8,14.6,14.8,14.6C69.3,260.3,73.6,251.7,78.9,245.7z M78.8,140.9c-5.7-5.4-11-14.3-16.5-14.5c-5.9-0.2-14.4,8.1-14.6,15
	c-0.2,7,7.8,14.9,14.5,14.9C69.2,156.4,73.5,147.6,78.8,140.9z M62.8,193c5.1-6.3,14.6-9.8,14.1-17.4c-0.5-7.2-8.1-14.3-15.6-13.2
	c-6.2,0.9-14.6,7.7-13.8,14.3C48.3,183.3,56.4,188,62.8,193z M235.9,122.7c-2.9,6-8.4,10.1-13.1,14.7c-3.6,3.6-2.7,6.9,0.7,8.8
	c4.9,2.8,5.3,12.5,13.6,9.5c13.3-4.8,15.5-14.3,6-24C240.4,128.9,237,126.6,235.9,122.7z M124.6,49c-0.8-1.5-1-2.5-1.6-3
	C111.5,34.3,99.9,22.6,88.3,11c-1.7-1.6-4-2-5.8,0.1c-1.6,1.9-1.9,4.1-0.1,6c11.5,11.7,23.1,23.4,34.9,34.9c1,0.9,3.5,1.2,4.8,0.6
	C123.2,52,123.9,50,124.6,49z M252.1,71.2c-6-4.9-9.4-14.6-17-13.6c-6.1,0.8-14.1,8-13.8,14.4c0.4,6.9,8.1,14.8,14.9,14.6
	C243,86.4,247.9,78.4,252.1,71.2z M298.1,48.9c-0.2-0.7-0.1-1.2-0.4-1.5c-12.2-12.4-24.4-24.7-36.6-37c-1.7-1.7-3.3-0.3-4.7,0.6
	c-1.7,1.1-2.6,3.3-1.3,4.6c12.1,12.5,24.1,24.9,36.7,36.9C294.6,55.1,297.4,52.4,298.1,48.9z M217.5,130c-0.5-1.1-0.7-2.1-1.3-2.7
	c-11.6-11.7-23.3-23.3-35-34.9c-1.7-1.6-3.9-2.4-5.9-0.5c-1.8,1.7-2.4,4-0.6,5.9c11.6,11.7,23.2,23.4,34.9,35c1.8,1.8,4,1.9,6,0.2
	C216.5,132.2,216.9,130.9,217.5,130z M298.8,95.4c-1.1-1.5-1.9-3.3-3.2-4c-2.9-1.6-5,0.7-6.9,2.5c-10.4,10.4-20.8,20.7-31.1,31.2
	c-2.1,2.1-5.2,4.3-1.4,7.6c3.3,2.9,5.5,0.9,7.8-1.5c10.3-10.4,20.7-20.8,31.1-31.3C296.4,98.8,297.3,97.3,298.8,95.4z M177.9,53.3
	c1.1-0.4,2.6-0.6,3.4-1.4c11.7-11.6,23.3-23.2,34.8-34.9c1.9-1.9,1.6-4-0.4-5.8c-2.7-2.5-5-1-6.9,1C197.8,23,186.7,33.9,175.8,45
	C172.6,48.3,173,51.4,177.9,53.3z M251.1,247c0.2-3.9-12.8-17.5-15.3-16.3c-6.5,3.1-13.7,8.4-14.2,14.7c-0.6,6.9,7.5,13.9,13.5,14.6
	C242.5,260.8,246.5,251.7,251.1,247z M43.7,303.4c-0.8-1.3-1.2-2.6-2.1-3.5c-11.3-11.4-22.6-22.7-34-34c-1.6-1.6-3.7-2.4-5.9-0.4
	c-2.5,2.4-2,4.9,0.1,7c11.3,11.4,22.6,22.6,34.1,33.9c1.6,1.6,3.9,2.4,5.9,0.4C42.7,305.9,43,304.6,43.7,303.4z M124.9,268.8
	c-1.1-1.5-1.7-2.9-2.7-3.5c-2.9-1.9-5,0.2-6.9,2c-10.4,10.3-20.8,20.6-31.2,31c-2.1,2.1-5,4.7-1.9,7.9c3.7,3.9,6.4,0.4,8.8-2
	c10.1-10,20.1-20.1,30.1-30.2C122.7,272.5,123.7,270.6,124.9,268.8z M44.1,188.2c-1.2-1.5-1.9-3.2-3.3-3.9c-3-1.6-4.9,0.7-6.8,2.6
	C23.8,197,13.6,207.1,3.5,217.2c-2,2.1-5.4,4.3-2.3,7.8c3.8,4.3,6.5,0.5,8.8-1.8c10.3-10,20.3-20.2,30.4-30.4
	C41.7,191.7,42.6,190.1,44.1,188.2z M85.5,182.8c-1.6,1.4-3.4,2.3-4,3.6c-1.5,3,1,5,2.8,6.8c10,10.1,20.1,20.1,30.3,30
	c2.4,2.4,5,6.1,8.7,2c3.1-3.4-0.1-5.7-2.2-7.8c-9.9-10.1-20-20.2-30-30.3C89.5,185.7,87.7,184.5,85.5,182.8z M177.6,264.2
	c-2,2.1-6.1,3.6-2.7,7.2c11.4,11.9,23.3,23.4,35,35c1.9,1.8,3.9,1.7,5.8-0.2c2-1.9,1.9-4,0-5.8c-11.4-11.4-22.7-22.7-34.2-34
	C180.6,265.6,179.3,265.2,177.6,264.2z M298.3,222.8c-0.8-1.2-1.4-2.8-2.6-4c-10.9-11.1-22-22-33-33.1c-1.7-1.7-3.6-2.8-5.8-1.1
	c-2.8,2.1-2.2,4.7-0.2,6.8c11.3,11.4,22.5,22.7,34,33.9C293.8,228.2,296.5,227.1,298.3,222.8z M216.6,189.7c1.3-3-0.5-4.3-1.7-5.2
	c-2.1-1.5-4.2-0.5-5.9,1.2c-10.7,10.7-21.4,21.5-32.1,32.2c-2.3,2.3-4.4,5-1.1,7.9c3.5,3,5.6-0.4,7.7-2.4
	c10.2-10,20.3-20.1,30.3-30.2C215.1,191.9,216.1,190.4,216.6,189.7z M298.5,268.9c-1-1.4-1.5-2.9-2.5-3.5c-2.9-1.8-5,0.3-6.9,2.2
	c-10.4,10.3-20.8,20.6-31.1,31c-2.2,2.2-4.6,4.7-1.3,7.8c3.5,3.2,5.7-0.2,7.7-2.1c10.1-10,20-20.1,30-30.2
	C296,272.5,297.1,270.7,298.5,268.9z M43.3,129.9c-0.5-1-0.6-2-1.2-2.6C30.4,115.5,18.7,103.8,7,92.1c-2-2-4.2-1.3-5.7,0.8
	c-1.7,2.2-0.7,4.2,1,5.9c11,11.1,22.1,22.2,33.2,33.3c1.6,1.6,3.6,2.9,5.8,1C42.2,132.2,42.7,130.9,43.3,129.9z M4.3,53.1
	c0.9-0.3,1.9-0.5,2.5-1C18.6,40.4,30.3,28.8,42,17c1.7-1.7,1.8-4.1-0.3-5.8c-1.6-1.2-3.5-1.3-4.9,0.1C24.9,22.9,13.1,34.4,1.5,46.3
	C-1.7,49.6,1,51.8,4.3,53.1z M84.8,133.8c0.9-0.2,2-0.1,2.5-0.6c12.1-11.9,24.2-23.9,36.1-36c1.1-1.1,1.2-3.4-0.4-4.8
	c-2.1-1.9-4.2-1.4-5.9,0.3c-11.5,11.3-23,22.6-34.3,34.1C80,129.5,80.7,132.4,84.8,133.8z M253.9,37.8c-2.9,1.2-5.2,2.2-5.2,5.5
	c0,3.4,13.5,16.6,16.6,16c2.9-0.6,5.5-3.2,4.2-5.6C265.8,47.1,260.3,42,253.9,37.8z M49.5,217.5c-1-3.3-2.6-6.6-5.4-5
	c-6.5,3.6-12.6,8.3-15.2,15.6c-0.9,2.5,2.6,5.5,5.1,4.4C41,229.4,45.4,223.3,49.5,217.5z M208.1,59.3c5.6-4.3,11.5-9.1,14.8-15.9
	c1.2-2.5-2.1-5.8-4.7-4.7c-7.1,2.9-12.3,8.7-15.6,15.5C201.4,56.7,204.2,58.9,208.1,59.3z M81.1,105.4c4.8-4.8,11.9-8.4,14.3-16
	c0.7-2.2-2.1-4.8-4.2-3.7c-6.8,3.5-12.6,8.5-15.3,15.8C75.1,103.3,77.5,105.2,81.1,105.4z M222.9,217.6c-0.9-3.3-2.2-6.1-4.5-5
	c-6.9,3.3-12.3,8.8-15.5,15.8c-0.8,1.8,1.9,4.7,4.2,3.8C214.3,229.2,218.4,222.8,222.9,217.6z M96.2,53.5
	c-4.1-5.5-8.8-11.4-15.7-14.7c-2.7-1.3-6,1.7-4.9,4.3c2.9,7.2,8.6,12.4,15.2,16.1C92.8,60.3,95.7,57.8,96.2,53.5z M49.2,43.9
	c-0.6-3.4-2.5-5.9-4.4-4.9c-6.9,3.3-12.5,8.4-15.4,15.6c-0.8,2.1,1.9,4.8,4.1,3.9C40.7,55.6,44.7,49.1,49.2,43.9z M268.9,227.6
	c-0.3-3.3-13.5-15.5-16.2-14.8c-2.6,0.7-4.3,3.2-2.9,5c4.2,5.6,8.3,11.8,15.4,14.2C267.2,232.7,269.1,230.3,268.9,227.6z M254.1,279
	c2.8-0.2,15.7-13.7,15.1-16.2c-0.5-2.3-2.3-4.8-4.6-3.6c-6.7,3.6-12.4,8.6-15,15.9C248.9,277,251.4,279,254.1,279z M206.7,85.1
	c-2.2,0.8-4.8,2.6-3.7,4.7c3.4,6.8,8.7,12.3,15.8,15.3c0.7,0.3,3-1.8,3.5-3.2C223.4,98.8,210.2,84.8,206.7,85.1z M270,89
	c-1.8-1.4-2.9-3-4.4-3.4c-3.1-0.9-17.1,12.8-16.4,16c0.5,2.2,2.7,4.8,4.7,3.6C260.6,101.5,265.4,95.8,270,89z M29.3,91.5
	c4.6,4.4,8.5,11,15.8,14c1.3,0.5,4.8-2.3,3.7-4.4c-3.3-6.8-8.5-12.4-15.7-15.3C31.1,84.9,29.3,87.4,29.3,91.5z M75.6,217.5
	c4.1,5.7,8.4,12,15.7,14.7c2,0.7,4.9-2.1,4-4c-3.3-6.9-8.6-12.2-15.6-15.3C77.8,212,75.8,214.3,75.6,217.5z M29.2,264.9
	c4.2,5.3,8.3,11.8,16,14c2,0.6,4-1.8,4.1-4.4c0.1-3.6-13.7-16.4-16.9-15.6C29.7,259.6,29,261.5,29.2,264.9z M95.2,264.3
	c0.2-2.6-0.5-4.5-2.4-4.7c-4.6-0.6-7.2,2.9-9.7,5.8c-2.7,3.2-7.9,4.9-7.2,10.2c0.3,2.3,2.8,4.1,5,2.9
	C87.1,275,91.6,269.7,95.2,264.3z M222.3,272.7c-4.5-4-9.5-8.9-15.1-13.1c-1.7-1.2-4.8,1.8-3.8,3.8c3.2,6.5,8.3,11.6,14.7,14.8
	C220.2,279.3,221.9,276.8,222.3,272.7z"/>
<path class="st82" d="M323.3,111.3c-0.1,8.1-0.3,16.1-0.3,24.2c0,5.8,1.1,11.2-8.1,11.8c-7,0.5-4,7.9-4.1,12.2
	c-0.1,3.9-2.6,10.5,4,10.9c9,0.5,8.2,6.1,8.2,11.9c0,8.5,0.1,17,0.2,25.5c-20.4-12.6-35.3-31-50.8-48.8l-0.1-0.7
	c14.7-15.1,29.3-30.2,44-45.2C318.2,111.1,320.4,109.4,323.3,111.3z"/>
<path class="st76" d="M-24.3,208.2c0-9.8,0.4-19.7-0.3-29.5c-0.5-7.1,3.3-8.2,8.7-8.3c6.5-7.8,6.3-15.6-0.2-23.3
	c-5.7,0-9-1.7-8.5-8.5c0.6-9.4,0.1-18.8,0.1-28.2c5.6-0.8,7.5,4.2,10.5,7.1c13.9,13.3,27.6,26.8,42.4,41.2
	C9.7,174.8-4.2,194.7-24.3,208.2z"/>
<path class="st0" d="M153.8-2c1.3-0.3,3.5-0.4,3.7-1.1c5.8-18.3,20.9-10.7,32.8-12c2.2-0.2,4.4-0.2,6.6-0.3c2.5,2.9,0.4,4.9-1.4,6.7
	C181,5.5,166.5,19.6,152,33.8c-0.5-7.2-1-14.4-1.5-21.8c-7,4.7,1.3,15-7.8,18.5C130,18,117.2,5.5,104.5-7.1c-2.1-2.1-6.8-4.3-2-8.4
	c8,0.1,16.2,0.9,24.1,0.2c9.5-0.8,11.9,3.5,10.7,11.7C142.6-0.2,147,12.1,153.8-2z"/>
<path class="st87" d="M-24.3,208.2c20.1-13.5,34-33.4,52.7-49.7C13.7,144.1,0,130.6-13.9,117.3c-3-2.9-4.9-7.8-10.5-7.1
	c-1.1-2.4-3.4-4.8,0.1-7.1c4.8-1,8.6-0.9,12.7,3.5c10.9,11.9,22.7,23,34.1,34.3c13.9,13.7,13.9,21.6,0,35.5
	C11,187.9-0.7,199.1-11.7,210.9c-4,4.3-7.3,6-12.3,2.6C-26.6,211.8-26.8,210.1-24.3,208.2z"/>
<path class="st86" d="M102.5-15.5c-4.8,4.1-0.1,6.3,2,8.4c12.6,12.6,25.5,25,38.3,37.5c1.5,5.6,4.1,7.8,9.2,3.3
	c14.5-14.2,29-28.3,43.5-42.5c1.8-1.8,3.9-3.8,1.4-6.7c2.8,0.1,5.6,0.1,8.4,0.2c0.6,5.6-0.7,9.9-5.2,14.1
	c-11.8,10.9-22.9,22.6-34.3,33.9c-12.6,12.5-21.1,12.4-34-0.4c-10.4-10.4-20.6-21.1-31.4-31c-5.2-4.7-8.1-9.9-8.7-16.7
	C95.3-15.4,98.9-15.4,102.5-15.5z"/>
<path class="st80" d="M275.1-15.3c7.1,0.1,14.2,0,21.3,0.2c6.6,0.2,15.1-2.7,15,8.8c22,8.7,7.6,27.6,11.6,41.3
	c-18.8-12.9-32.6-31-48.6-46.8C273.9-12.2,274.8-14.1,275.1-15.3z"/>
<path class="st80" d="M-22.7,35.7c0,0,0.3,0.1,0.3,0.1c-4.3-10.8-4.1-23-1-32.6c2.2-7,9.3-16.9,19.7-18.1c9.2-1.1,18.7-0.4,28.1-0.5
	c1.9,5.2-2.9,7.1-5.4,9.7C5.2,8.3-8.8,22-22.7,35.7z"/>
<path class="st0" d="M323.3,283.6c-0.1,7.6-0.1,15.1-0.3,22.7c-0.2,6.6,2.8,15.3-9,14.8c-9.3,21.2-27.7,7.8-41.8,10.9
	c0.1-0.9,0.2-1.8,0.2-2.7c12.5-12.1,24.9-24.3,37.5-36.1C314,289.5,316.3,283.2,323.3,283.6z"/>
<path class="st80" d="M151.1,319.7c-5.7,2.1-15.5-1.7-14.4,10.5c0.2,2.6-4.3,2.3-6.9,2.3c-10.7-0.2-21.4-0.5-32.2-0.7
	c7.7-7.9,15.1-16.2,23.3-23.5c10.1-9,17.5-21.1,30.3-27c0.3,0.9,0.5,1.8,0.8,2.8C151.7,295.9,151.4,307.8,151.1,319.7z"/>
<path class="st0" d="M26.1,329.5c-11.3,6.4-24.9,5.2-34.5,1.2c-5.1-2.1-19-9.3-16.3-23.2c1.5-7.8,0.3-16.1,0.3-24.2
	c5.4-0.4,7.3,4.5,10.3,7.4C-0.6,303.5,12.7,316.6,26.1,329.5z"/>
<path class="st76" d="M151.1,319.7c0.3-11.9,0.6-23.8,0.9-35.7c16.6,15.3,32.7,31,47.6,48c-7.5,0.1-15,0.5-22.4,0.2
	c-6.9-0.3-16.4,4.2-16.9-9.2C160.1,319.1,154,321.6,151.1,319.7z"/>
<path class="st87" d="M199.6,332.1c-14.9-17-31-32.8-47.6-48c-0.3-0.9-0.5-1.8-0.8-2.8c-0.4-0.7-0.6-1.4-0.4-2.2
	c3.9-6.8,7.2-2.3,10.2,0.7c13.6,13.5,27,27.4,40.9,40.7c4,3.8,3.7,7.5,2.8,11.8C203,334.8,201.2,334.7,199.6,332.1z"/>
<path class="st86" d="M323.2,248.9c-1.3,0.2-3.1,0-3.7,0.8c-9.1,12.1-18,14.3-27.2,0.2c-2.3-3.5-4.7-2.5-7.8-0.6
	c-2.6,1.6-5.5,0.1-5.7-3.2c-0.2-3.3,2.5-5.6,5.1-4c7.1,4.5,10.1-1.4,12.9-5.1c6.5-8.4,11.8-7.5,17.7,0.4c2,2.7,4.4,5.8,8.7,5.2
	C323.2,244.7,323.2,246.8,323.2,248.9z"/>
<path class="st87" d="M275.1-15.3c-0.2,1.3-1.1,3.2-0.6,3.7c16,15.8,29.9,33.8,48.6,46.8c0,2.2,0.1,4.3,0.1,6.5
	c-5.6,0.9-9.9-0.7-14-5c-12.2-12.8-24.8-25.4-37.6-37.6c-4.3-4.1-5.8-8.5-5.1-14.1C269.3-15.2,272.2-15.3,275.1-15.3z"/>
<path class="st87" d="M323.3,111.3c-3-1.9-5.2-0.1-7.1,1.8c-14.7,15-29.4,30.1-44,45.2c-1.4-0.5-2.8-1-4.2-1.5l0.2,0
	c-4.3-4.1-1.2-7,1.7-9.9c13.4-13.4,27-26.7,40.2-40.4c3.9-4.1,8.1-4.4,13-3.9C323.2,105.5,323.3,108.4,323.3,111.3z"/>
<path class="st86" d="M150.9,279.1c-0.2,0.8-0.1,1.5,0.4,2.2c-12.8,6-20.2,18-30.3,27c-8.2,7.3-15.6,15.6-23.3,23.5
	c-0.9,0.1-1.9,0.2-2.8,0.3c-2.9-4.3-2.2-7.7,1.7-11.4c13.8-13.4,27.7-26.7,40.6-40.9C142.5,273.8,146.2,277.7,150.9,279.1z"/>
<path class="st86" d="M323.3,283.6c-7-0.4-9.4,5.9-13.3,9.6c-12.7,11.9-25,24.1-37.5,36.1c-1.6-0.1-3.2-0.1-4.8-0.2
	c-3.2-4.4,0.8-6.6,3-8.9c13.1-13.4,26.6-26.5,39.6-40.1c4.1-4.3,8-4.8,12.9-2.6C323.2,279.6,323.3,281.6,323.3,283.6z"/>
<path class="st86" d="M-22.7,35.7C-8.8,22,5.2,8.3,18.9-5.6c2.5-2.6,7.3-4.4,5.4-9.7c2.8,0,5.5-0.1,8.3-0.1C31.2-11,32-6.4,27.7-2.4
	C14,10.4,1.1,24-12.2,37.3C-16.4,41.4-20.7,46-22.7,35.7z"/>
<path class="st86" d="M268.3,156.8c0,0-0.2,0-0.2,0c0.2,3.2,2.9,1.5,4.3,2.2c15.5,17.7,30.4,36.1,50.8,48.8c0.1,2.8,0.1,5.6,0.2,8.4
	c-6.7-0.6-11.9-3.3-16.7-8.4c-10.9-11.7-22.1-23-33.8-33.9C267.5,168.7,265.8,163.6,268.3,156.8z"/>
<path class="st87" d="M26.1,329.5c-13.4-13-26.7-26-40.2-38.8c-3-2.9-4.8-7.8-10.3-7.4c-3.1-2.1-1.4-4.5-0.3-6.8
	c4.1,0.2,8-1.2,11.8,2.9c13.5,14.3,27.8,28,41.6,42c2.4,2.4,5.9,5.1,0.5,8.2C28.2,329.6,27.2,329.6,26.1,329.5z"/>
<path class="st86" d="M65.4-15.2c-0.4,5.4,4,7.7,7.1,10.5c5.5,4.8,6,8.5,0.4,14c-10,9.9-18.8,8.6-25.2-4.1c-2-3.9,0.2-5.5,2.2-7.9
	c3.3-3.9,9-6.1,9-12.4C61.2-15.2,63.3-15.2,65.4-15.2z"/>
<path class="st86" d="M240.1-15.3c-2.6,4.6,1.6,6.7,4,8.5c8.9,6.5,7.1,11.6,0.1,18.9c-7.3,7.6-11.4,4.4-17.4-1
	c-6.9-6.2-7.8-10.9,0.1-16.8c2.7-2.1,7.5-4.2,4.8-9.5C234.5-15.3,237.3-15.3,240.1-15.3z"/>
<path class="st80" d="M153.8-2c-6.9,14.1-11.3,1.8-16.5-1.5C142.8-3,148.3-2.5,153.8-2z"/>
<path class="st0" d="M204.8,156.6c3.4,8.8,7,17.6-7.6,19.2c1.5-4.5,9.2-7.1,4.1-13.9c-15.9,15.4-31.7,30.8-47.5,46.2
	c-5.6,2.5-9.1-0.3-11.9-4.8c4.6-2.9,7.1-7.3,6.1-12.3c-1.2-6.5-2.7-12.9-2.3-19.6c10.3,0.4,16.6-1.1,16.2-14.8
	c-0.3-14.6-10.1-8.4-16.2-10.6c0.4-9.8,1.7-19.8-8-26.5c0.5-1.3,1-2.7,1.5-4c2.9-1.6,5.6-3.5,6.8-6.8c5.7-2.2,7.9,2.7,10.9,5.6
	c12,11.9,23.9,24.1,36,35.9C196.1,153.4,198.5,158.9,204.8,156.6z"/>
<path class="st86" d="M182.9,244.2c-3.5,7.6-9,11.6-14,15.8c-4.8,4.1-7.5-1.4-9.5-4.1c-7.3-9.7-14-9.2-20.8,0.1
	c-5.4,7.5-9,4.4-14.7-0.5c-3.8-3.3-5.3-14.2-14.6-7.6c-0.4-0.5-0.9-1-1.1-1.6c-0.3-0.8-2-2.1,0.6-2.3c2.6-0.2,6.4,0.5,7.6-0.9
	c9.6-11.5,18.2-16.3,29.8-1.3c4.7,6.1,8.3-3.5,12.4-5.9c3.2-1.9,5.2-7.8,9.7-4.9C173.8,234.7,178.2,239.8,182.9,244.2z"/>
<path class="st86" d="M137.8,84.3c-4.5,4-8.1,3.6-12.4-1c-3.7-3.9-6.2-9.9-13.1-10.6c0-3.6,3.9-1.6,5.5-3.7
	c8.7-11.7,17.6-16.5,28.1-1c4,5.9,7.8-0.7,10.5-3.4c5.6-5.6,10.3-11.9,17.8-2.1c3.9,5.1,11,8.4,3.3,16.3
	c-6.6,6.8-12.1,12.2-20.2,2.5C148.1,66,143.5,78.4,137.8,84.3z"/>
<path class="st86" d="M141.8,203.3c2.8,4.5,6.3,7.3,11.9,4.8c-0.1,2-0.2,4-0.3,6c-11.3,4.4-17.3-3.6-23.9-10.3
	c-11-11-22.1-21.9-33-33c-5.6-5.8-4-19.4,2.6-25.2c0,0,0.7,0.6,0.7,0.6c0.2,2.3,0.9,4.3,3.1,5.5c-4.8,4.9-5.2,9,0.5,14.2
	C116.7,178,129.1,190.8,141.8,203.3z"/>
<path class="st86" d="M204.8,156.6c-6.3,2.2-8.7-3.3-11.9-6.5c-12.1-11.8-23.9-24-36-35.9c-3-2.9-5.2-7.8-10.9-5.6
	c-3.1-0.2-6.3-0.3-9.4-0.5c1.7-3.9,4.5-6.4,9.1-6c1.6,1.3,2.8,5.5,5.4,0.8c3.2-1.1,5.8-0.7,8.4,1.9c14.4,14.6,28.9,29.1,43.5,43.5
	C205.5,150.9,206.4,153.4,204.8,156.6z"/>
<path class="st86" d="M79.2,71.7c-6.1,6-9.8,15.2-17,15c-6.9-0.2-14.7-8.2-14.6-14.9c0.2-6.6,8-14.5,15-14.5
	C69.6,57.5,73.4,66.4,79.2,71.7z"/>
<path class="st86" d="M78.9,245.7c-5.3,6-9.5,14.6-16.4,14.7c-7,0.1-14.6-8.1-14.8-14.6c-0.2-6.7,7.9-14.4,14.6-14.8
	C69.4,230.7,73.2,239.8,78.9,245.7z"/>
<path class="st86" d="M78.8,140.9c-5.3,6.7-9.6,15.5-16.5,15.4c-6.7-0.1-14.7-7.9-14.5-14.9c0.2-6.9,8.6-15.2,14.6-15
	C67.9,126.6,73.1,135.5,78.8,140.9z"/>
<path class="st86" d="M62.8,193c-6.4-5-14.5-9.7-15.3-16.4c-0.8-6.6,7.6-13.4,13.8-14.3c7.5-1.1,15.2,6.1,15.6,13.2
	C77.4,183.2,67.9,186.6,62.8,193z"/>
<path class="st86" d="M235.9,122.7c1.1,3.9,4.5,6.2,7.2,9.1c9.5,9.7,7.3,19.2-6,24c-8.3,3-8.7-6.7-13.6-9.5
	c-3.4-1.9-4.3-5.2-0.7-8.8C227.5,132.7,233,128.7,235.9,122.7z"/>
<path class="st87" d="M124.6,49c-0.7,1-1.4,3-2.7,3.5c-1.3,0.6-3.9,0.3-4.8-0.6c-11.7-11.5-23.3-23.2-34.9-34.9
	c-1.8-1.8-1.5-4.1,0.1-6c1.9-2.2,4.2-1.7,5.8-0.1c11.7,11.6,23.2,23.3,34.8,34.9C123.7,46.6,123.9,47.5,124.6,49z"/>
<path class="st86" d="M-21.2,248.4c0-1.7,0-3.5,0-5.2c2-2.4,4.2-4.6,6-7.1c7.2-10.2,11.7-2.9,17.7,1.9c7.2,5.8,6,9.8-0.1,15.5
	C-8.2,263.6-7.9,264-21.2,248.4z"/>
<path class="st86" d="M252.1,71.2c-4.2,7.2-9.2,15.2-15.9,15.4c-6.9,0.2-14.6-7.7-14.9-14.6c-0.3-6.5,7.7-13.6,13.8-14.4
	C242.8,56.6,246.1,66.3,252.1,71.2z"/>
<path class="st83" d="M-21,74.7c0-1.8,0-3.6,0-5.5c3.3-3.2,6.6-6.4,9.8-9.6c2.5-0.1,4.9-0.2,7.4-0.3c1.4,1.1,3,2,4.1,3.3
	c3,3.3,8.8,8.8,8.2,9.8C4.8,77.8,0.3,84.1-5.3,86.1C-13.5,88.9-15.8,78.8-21,74.7z"/>
<path class="st83" d="M236.3,194.4c-0.5-0.8-0.9-1.6-1.5-2.2c-15.8-16.8-15.8-16.8,1-32.5c16.4,15.1,16.4,15.1-0.2,34.7
	C235.7,194.4,236.3,194.4,236.3,194.4z"/>
<path class="st87" d="M298.1,48.9c-0.7,3.6-3.5,6.2-6.4,3.6c-12.6-11.9-24.6-24.4-36.7-36.9c-1.2-1.3-0.4-3.5,1.3-4.6
	c1.4-0.9,3-2.3,4.7-0.6c12.2,12.3,24.4,24.7,36.6,37C298,47.7,298,48.2,298.1,48.9z"/>
<path class="st87" d="M217.5,130c-0.5,0.9-1,2.2-1.9,3c-1.9,1.7-4.2,1.6-6-0.2c-11.7-11.6-23.3-23.3-34.9-35
	c-1.8-1.9-1.2-4.2,0.6-5.9c2-1.9,4.3-1.2,5.9,0.5c11.7,11.6,23.4,23.2,35,34.9C216.8,127.9,217,128.8,217.5,130z"/>
<path class="st87" d="M298.8,95.4c-1.5,1.9-2.4,3.4-3.6,4.6c-10.3,10.4-20.7,20.8-31.1,31.3c-2.4,2.4-4.6,4.3-7.8,1.5
	c-3.8-3.3-0.7-5.5,1.4-7.6c10.3-10.4,20.7-20.8,31.1-31.2c1.9-1.9,3.9-4.1,6.9-2.5C296.9,92.1,297.6,93.9,298.8,95.4z"/>
<path class="st87" d="M177.9,53.3c-4.9-1.9-5.3-5-2.1-8.2c10.9-11.1,22-22,33.1-32.9c2-1.9,4.2-3.5,6.9-1c1.9,1.8,2.2,3.9,0.4,5.8
	c-11.5,11.7-23.1,23.4-34.8,34.9C180.5,52.7,178.9,52.9,177.9,53.3z"/>
<path class="st83" d="M251.1,247c-4.6,4.7-8.5,13.8-16,13c-6-0.7-14.1-7.7-13.5-14.6c0.5-6.4,7.7-11.6,14.2-14.7
	C238.3,229.4,251.3,243.1,251.1,247z"/>
<path class="st87" d="M43.7,303.4c-0.6,1.2-1,2.5-1.9,3.4c-2,1.9-4.3,1.2-5.9-0.4c-11.4-11.2-22.8-22.5-34.1-33.9
	c-2.1-2.1-2.6-4.6-0.1-7c2.1-2,4.2-1.2,5.9,0.4c11.4,11.3,22.7,22.6,34,34C42.4,300.8,42.9,302.1,43.7,303.4z"/>
<path class="st87" d="M124.9,268.8c-1.2,1.7-2.3,3.7-3.7,5.2c-10,10.1-20,20.2-30.1,30.2c-2.5,2.5-5.1,5.9-8.8,2
	c-3.1-3.2-0.2-5.8,1.9-7.9c10.3-10.4,20.7-20.7,31.2-31c1.9-1.9,4-3.9,6.9-2C123.3,266,123.8,267.3,124.9,268.8z"/>
<path class="st87" d="M44.1,188.2c-1.4,1.9-2.3,3.5-3.6,4.7c-10.1,10.2-20.2,20.4-30.4,30.4c-2.4,2.3-5.1,6.1-8.8,1.8
	c-3.1-3.5,0.2-5.8,2.3-7.8C13.6,207.1,23.8,197,34,186.9c1.9-1.9,3.8-4.2,6.8-2.6C42.1,185,42.9,186.7,44.1,188.2z"/>
<path class="st87" d="M85.5,182.8c2.1,1.7,4,2.8,5.5,4.3c10.1,10,20.1,20.1,30,30.3c2.1,2.1,5.3,4.4,2.2,7.8c-3.7,4.1-6.3,0.4-8.7-2
	c-10.1-9.9-20.2-19.9-30.3-30c-1.8-1.8-4.3-3.7-2.8-6.8C82.2,185.1,83.9,184.3,85.5,182.8z"/>
<path class="st86" d="M177.6,264.2c1.7,1,3.1,1.4,4,2.3c11.4,11.3,22.8,22.6,34.2,34c1.8,1.8,2,3.9,0,5.8c-1.9,1.9-4,2-5.8,0.2
	c-11.7-11.6-23.6-23.1-35-35C171.4,267.8,175.6,266.3,177.6,264.2z"/>
<path class="st83" d="M153.5,214.1c0.1-2,0.2-4,0.3-6.1c15.8-15.4,31.7-30.7,47.5-46.2c5.1,6.8-2.6,9.4-4.1,13.9
	c-11.5,11.2-22.9,22.5-34.7,33.4C160.2,211.4,159.1,217.4,153.5,214.1z"/>
<path class="st86" d="M298.3,222.8c-1.8,4.2-4.5,5.4-7.5,2.5c-11.5-11.2-22.8-22.5-34-33.9c-2.1-2.1-2.7-4.7,0.2-6.8
	c2.2-1.7,4.1-0.6,5.8,1.1c11,11,22,22,33,33.1C296.9,220,297.6,221.7,298.3,222.8z"/>
<path class="st87" d="M216.6,189.7c-0.6,0.7-1.6,2.2-2.8,3.5c-10.1,10.1-20.2,20.2-30.3,30.2c-2.1,2.1-4.3,5.4-7.7,2.4
	c-3.3-2.9-1.2-5.6,1.1-7.9c10.7-10.8,21.4-21.5,32.1-32.2c1.7-1.7,3.8-2.6,5.9-1.2C216.2,185.4,217.9,186.6,216.6,189.7z"/>
<path class="st86" d="M298.5,268.9c-1.4,1.8-2.5,3.6-4.1,5.1c-9.9,10.1-19.9,20.3-30,30.2c-2,2-4.3,5.3-7.7,2.1
	c-3.3-3.1-0.9-5.6,1.3-7.8c10.4-10.4,20.7-20.7,31.1-31c1.9-1.9,3.9-4,6.9-2.2C297,266,297.5,267.5,298.5,268.9z"/>
<path class="st86" d="M43.3,129.9c-0.6,1-1.2,2.3-2.1,3.1c-2.2,1.9-4.2,0.6-5.8-1C24.4,121,13.3,109.9,2.3,98.7
	c-1.7-1.7-2.7-3.7-1-5.9c1.6-2,3.7-2.7,5.7-0.8c11.8,11.6,23.5,23.4,35.2,35.1C42.7,127.8,42.9,128.8,43.3,129.9z"/>
<path class="st86" d="M4.3,53.1c-3.3-1.3-6-3.5-2.8-6.8c11.5-11.8,23.4-23.4,35.2-34.9c1.4-1.4,3.3-1.3,4.9-0.1
	c2.2,1.7,2.1,4.1,0.3,5.8C30.3,28.8,18.6,40.4,6.8,52C6.2,52.6,5.2,52.7,4.3,53.1z"/>
<path class="st86" d="M84.8,133.8c-4.1-1.4-4.8-4.3-2-7.1c11.3-11.5,22.8-22.8,34.3-34.1c1.7-1.7,3.9-2.2,5.9-0.3
	c1.6,1.5,1.6,3.7,0.4,4.8c-11.9,12.1-24,24.1-36.1,36C86.8,133.7,85.6,133.6,84.8,133.8z"/>
<path class="st88" d="M253.9,37.8c6.5,4.2,11.9,9.4,15.6,15.9c1.3,2.4-1.3,5-4.2,5.6c-3.1,0.6-16.7-12.6-16.6-16
	C248.7,40,251,39,253.9,37.8z"/>
<path class="st85" d="M49.5,217.5c-4,5.8-8.5,11.9-15.5,15c-2.5,1.1-6-1.9-5.1-4.4c2.6-7.3,8.6-12,15.2-15.6
	C46.8,210.9,48.4,214.2,49.5,217.5z"/>
<path class="st85" d="M208.1,59.3c-3.9-0.4-6.7-2.6-5.4-5.1c3.3-6.8,8.5-12.5,15.6-15.5c2.6-1.1,5.9,2.2,4.7,4.7
	C219.6,50.2,213.7,55,208.1,59.3z"/>
<path class="st87" d="M81.1,105.4c-3.5-0.2-6-2.1-5.3-4c2.7-7.4,8.6-12.3,15.3-15.8c2.1-1.1,4.9,1.5,4.2,3.7
	C93,97,85.8,100.6,81.1,105.4z"/>
<path class="st87" d="M222.9,217.6c-4.4,5.2-8.6,11.6-15.8,14.6c-2.3,0.9-5-2-4.2-3.8c3.2-7,8.5-12.5,15.5-15.8
	C220.7,211.4,222,214.3,222.9,217.6z"/>
<path class="st85" d="M96.2,53.5c-0.4,4.3-3.3,6.7-5.4,5.6c-6.6-3.6-12.3-8.9-15.2-16.1c-1-2.6,2.2-5.6,4.9-4.3
	C87.4,42.2,92.1,48.1,96.2,53.5z"/>
<path class="st87" d="M49.2,43.9c-4.5,5.2-8.5,11.8-15.8,14.6c-2.2,0.9-4.9-1.8-4.1-3.9c2.9-7.2,8.6-12.3,15.4-15.6
	C46.7,38,48.6,40.5,49.2,43.9z"/>
<path class="st86" d="M268.9,227.6c0.2,2.7-1.7,5.1-3.7,4.4c-7.1-2.4-11.2-8.6-15.4-14.2c-1.3-1.8,0.4-4.3,2.9-5
	C255.4,212.1,268.6,224.3,268.9,227.6z"/>
<path class="st0" d="M151,102.9c-2.5,4.7-3.7,0.5-5.4-0.8c-1.1-6.6,3.7-15.9-7.9-17.9c5.7-5.8,10.4-18.2,19.3-3
	C145.5,85.8,153.5,95.8,151,102.9z"/>
<path class="st87" d="M254.1,279c-2.7,0-5.2-2.1-4.5-3.9c2.6-7.4,8.4-12.3,15-15.9c2.2-1.2,4.1,1.3,4.6,3.6
	C269.7,265.4,256.9,278.9,254.1,279z"/>
<path class="st87" d="M206.7,85.1c3.6-0.3,16.8,13.7,15.6,16.8c-0.5,1.4-2.9,3.5-3.5,3.2c-7.2-3.1-12.4-8.5-15.8-15.3
	C201.9,87.7,204.4,85.9,206.7,85.1z"/>
<path class="st87" d="M270,89c-4.6,6.8-9.4,12.5-16,16.2c-2.1,1.2-4.2-1.4-4.7-3.6c-0.8-3.3,13.2-17,16.4-16
	C267.1,86,268.2,87.5,270,89z"/>
<path class="st87" d="M29.3,91.5c0-4.1,1.8-6.6,3.8-5.8c7.2,2.9,12.3,8.5,15.7,15.3c1,2.1-2.5,5-3.7,4.4
	C37.8,102.5,33.8,95.9,29.3,91.5z"/>
<path class="st87" d="M75.6,217.5c0.2-3.1,2.2-5.5,4.1-4.6c6.9,3.2,12.3,8.5,15.6,15.3c0.9,1.9-2,4.8-4,4
	C84,229.4,79.7,223.2,75.6,217.5z"/>
<path class="st85" d="M29.2,264.9c-0.2-3.4,0.6-5.3,3.2-5.9c3.2-0.8,17.1,12,16.9,15.6c-0.1,2.5-2.1,4.9-4.1,4.4
	C37.5,276.7,33.4,270.1,29.2,264.9z"/>
<path class="st87" d="M95.2,264.3c-3.6,5.4-8.1,10.7-14.4,14.1c-2.2,1.2-4.6-0.5-5-2.9c-0.7-5.3,4.5-7.1,7.2-10.2
	c2.5-2.9,5.1-6.4,9.7-5.8C94.6,259.8,95.3,261.7,95.2,264.3z"/>
<path class="st83" d="M222.3,272.7c-0.4,4.1-2,6.6-4.2,5.6c-6.5-3.2-11.6-8.3-14.7-14.8c-1-2,2.2-5,3.8-3.8
	C212.8,263.8,217.8,268.7,222.3,272.7z"/>
<path class="st81" d="M291.7,68.9c-0.2,1.8-0.5,3.5-0.7,5.3c-3.5,0.3-7,5-10.4,0.4c-0.8-1.1-0.7-3.9,0.1-4.9
	C283.9,65.7,288,69.6,291.7,68.9z"/>
<path class="st87" d="M236.3,194.4c0,0-0.7,0-0.7,0c3.5,1.7,6.1,4,2.5,7.7c-0.8,0.8-3.9,0.7-4.6-0.1
	C230.1,198.2,232.7,196,236.3,194.4z"/>
<path class="st87" d="M115.3,129.2c1.2-2.6,3-4.5,5.7-5.4c1.3,2.7,3.7,3.5,6.4,3.7c-2.3,2.3-4.6,4.5-6.9,6.8
	c-0.6-0.6-1.2-1.1-1.8-1.7c-0.8-0.8-1.6-1.6-2.5-2.5C115.9,129.8,115.6,129.5,115.3,129.2z"/>
<path class="st86" d="M127.4,127.5c-2.7-0.2-5.1-1-6.4-3.7c1-2.8,2.9-4.7,5.5-5.9c0.4,2.8,1.1,5.3,3.6,6.9
	C129.2,125.7,128.3,126.6,127.4,127.5z"/>
<path class="st87" d="M109.9,134.9c0.9-2.7,2.8-4.5,5.4-5.7c0.3,0.3,0.7,0.7,1,1c0.8,0.8,1.6,1.6,2.5,2.5c0.6,0.6,1.2,1.1,1.8,1.7
	c-2.3,2.3-4.6,4.6-6.9,7C113.4,138.6,112.6,136.2,109.9,134.9z"/>
<path class="st86" d="M109.9,134.9c2.7,1.3,3.5,3.7,3.7,6.4c-0.9,0.9-1.8,1.8-2.7,2.7c-1.2-2.2-3.2-2.9-5.5-3.1l-0.8-0.9
	C105.5,137.4,107.4,135.8,109.9,134.9z"/>
<path class="st87" d="M136.6,108.1c3.1,0.2,6.3,0.3,9.4,0.5c-1.3,3.3-3.9,5.2-6.8,6.8c-0.5-0.6-1.1-1.1-1.6-1.6
	c-0.8-0.8-1.6-1.6-2.5-2.5c-0.4-0.3-0.7-0.7-1.1-1C134.9,109.6,135.7,108.8,136.6,108.1z"/>
<path class="st87" d="M139.2,115.4c-0.5,1.3-1,2.7-1.5,4c-1.2,0.5-2.4,1-3.7,1.5c-0.6-0.6-1.2-1.2-1.8-1.8c-0.8-0.8-1.6-1.6-2.5-2.5
	c-0.4-0.4-0.7-0.7-1.1-1.1c1.8-1.8,3.6-3.5,5.4-5.3c0.3,0.4,0.7,0.7,1.1,1c0.8,0.8,1.6,1.6,2.5,2.5
	C138.1,114.3,138.7,114.9,139.2,115.4z"/>
<path class="st87" d="M130.1,124.8c-2.5-1.6-3.3-4.2-3.6-6.9c0.7-0.8,1.4-1.5,2.1-2.3c0.4,0.4,0.7,0.8,1.1,1.1
	c0.8,0.8,1.6,1.6,2.5,2.5c0.6,0.6,1.2,1.2,1.8,1.8C132.7,122.2,131.4,123.5,130.1,124.8z"/>
<path class="st86" d="M99.3,145.6c0.9-2.7,2.6-4.6,5.3-5.6c0,0,0.8,0.9,0.8,0.9c0.7,2.2,1.4,4.4,2.1,6.6l-0.8,0.9
	c-2.2-0.7-4.4-1.4-6.6-2.2L99.3,145.6z"/>
<path class="st86" d="M58.9,119.2c0.3,0,0.5,0,0.8,0c-0.2-0.1-0.4-0.2-0.6-0.3L58.9,119.2z"/>
<path class="st86" d="M59.1,118.8l0.2,0.6c0,0-0.4-0.3-0.4-0.3C58.9,119.2,59.1,118.8,59.1,118.8z"/>
<path class="st76" d="M272.4,158.9c-1.5-0.6-4.1,1.1-4.3-2.2c1.4,0.5,2.8,1,4.2,1.5C272.3,158.2,272.4,158.9,272.4,158.9z"/>
<path class="st80" d="M152,33.8c-5.1,4.5-7.8,2.2-9.2-3.3c9.1-3.4,0.7-13.7,7.8-18.5C151,19.4,151.5,26.6,152,33.8z"/>
<path class="st76" d="M130.1,124.8c1.3-1.3,2.6-2.6,3.9-3.8c1.2-0.5,2.4-1,3.7-1.5c9.7,6.7,8.3,16.8,8,26.5c-9.3-0.6-8.9,5.8-8.6,12
	c0.3,6.1-2.1,13.9,8.6,13.4c-0.4,6.7,1,13.1,2.3,19.6c1,5-1.6,9.5-6.1,12.3c-12.7-12.5-25.2-25.3-38.3-37.4
	c-5.7-5.3-5.3-9.3-0.5-14.2c1.2-1.1,2.4-2.2,3.5-3.3c0,0,0.8-0.9,0.8-0.9c1.1-1.2,2.3-2.3,3.4-3.5c0.9-0.9,1.8-1.8,2.7-2.7
	c2.3-2.3,4.6-4.6,6.9-7c2.3-2.3,4.6-4.5,6.9-6.8C128.3,126.6,129.2,125.7,130.1,124.8z"/>
<path class="st83" d="M145.7,171.4c-10.7,0.5-8.3-7.3-8.6-13.4c-0.3-6.3-0.7-12.6,8.6-12c6.1,2.2,15.9-4,16.2,10.6
	C162.2,170.3,155.9,171.8,145.7,171.4z"/>
<path class="st87" d="M106.6,148.4c-1.2,1.1-2.4,2.2-3.5,3.3c-2.2-1.2-2.8-3.2-3.1-5.5C102.2,146.9,104.4,147.7,106.6,148.4z"/>
<path class="st86" d="M118.7,132.6c-0.8-0.8-1.6-1.6-2.5-2.5C117.1,131,117.9,131.8,118.7,132.6z"/>
<path class="st87" d="M110.9,144c-1.1,1.2-2.3,2.3-3.4,3.5c-0.7-2.2-1.4-4.4-2.1-6.6C107.7,141.1,109.7,141.8,110.9,144z"/>
<path class="st86" d="M137.6,113.8c-0.8-0.8-1.6-1.6-2.5-2.5C135.9,112.1,136.7,113,137.6,113.8z"/>
<path class="st86" d="M132.2,119.2c-0.8-0.8-1.6-1.6-2.5-2.5C130.5,117.5,131.4,118.3,132.2,119.2z"/>
</svg>
