<?xml version="1.0" encoding="utf-8"?>
<!-- Generator: Adobe Illustrator 24.0.2, SVG Export Plug-In . SVG Version: 6.00 Build 0)  -->
<svg version="1.1" id="Capa_1" xmlns="http://www.w3.org/2000/svg" xmlns:xlink="http://www.w3.org/1999/xlink" x="0px" y="0px"
	 viewBox="0 0 288 288" style="enable-background:new 0 0 288 288;" xml:space="preserve">
<style type="text/css">
	.st0{fill:#2D2D2D;}
	.st1{fill:#002530;}
	.st2{fill:#050523;}
	.st3{fill:#707C84;}
	.st4{fill:#E9E4DE;}
	.st5{fill:#EE3133;}
	.st6{fill:#FD99AF;}
	.st7{fill:#C4C2C0;}
	.st8{fill:#F2D8A3;}
	.st9{fill:#EFCB84;}
	.st10{fill:#EF692F;}
	.st11{fill:#4B343F;}
	.st12{fill:#16B198;}
	.st13{fill:#E72D52;}
	.st14{fill:#7B536F;}
	.st15{fill:#8F4CA9;}
	.st16{fill:#E2C29F;}
	.st17{fill:#9F4687;}
	.st18{fill:#A9A0AF;}
	.st19{fill:#CC4743;}
	.st20{fill:#8677A9;}
	.st21{fill:#8E5D8E;}
	.st22{fill:#DF615C;}
	.st23{fill:#9E4742;}
	.st24{fill:#D34861;}
	.st25{fill:#B75B6D;}
	.st26{fill:#DF6482;}
	.st27{fill:#FFFFFF;}
	.st28{fill:#829CA2;}
	.st29{fill:#F2B991;}
	.st30{fill:#E56759;}
	.st31{fill:#F5F3EE;}
	.st32{fill:#DC4B3F;}
	.st33{fill:#1D5A7D;}
	.st34{fill:#459492;}
	.st35{fill:#F0A349;}
	.st36{fill:#E4EFEB;}
	.st37{fill:#E17467;}
	.st38{fill:#B6BFBD;}
	.st39{fill:#F0E2D6;}
	.st40{fill:#396D89;}
	.st41{fill:#201A21;}
	.st42{fill:#48505D;}
	.st43{fill:#0B0707;}
	.st44{fill:#D30034;}
	.st45{fill:#6C919B;}
	.st46{fill:#F68C4A;}
	.st47{fill:#E5CFCD;}
	.st48{fill:#385B4D;}
	.st49{fill:#F14206;}
	.st50{fill:#BAD2D8;}
	.st51{fill:#F70059;}
	.st52{fill:#AA000C;}
	.st53{fill:#D8B5B2;}
	.st54{fill:#E08143;}
	.st55{fill:#F2E9E9;}
	.st56{fill:#F4D085;}
	.st57{fill:#23586A;}
	.st58{fill:#17241F;}
	.st59{fill:#EAE8E1;}
	.st60{fill:#253C4F;}
	.st61{fill:#F7FCFD;}
	.st62{fill:#0E151F;}
	.st63{fill:#8D897D;}
	.st64{fill:#BDB6AA;}
	.st65{fill:#EDE1AF;}
	.st66{fill:#DF786F;}
	.st67{fill:#E8C46F;}
	.st68{fill:#B0CEAD;}
	.st69{fill:#9FC4AF;}
	.st70{fill:#B8C6A0;}
	.st71{fill:#EBEC80;}
	.st72{fill:#DD7AB2;}
	.st73{fill:#D6D2D3;}
	.st74{fill:#69BCC5;}
	.st75{fill:#D0CBC1;}
	.st76{fill:#242424;}
	.st77{fill:#525252;}
	.st78{fill:#3D3D3D;}
	.st79{fill:#6B6B6B;}
	.st80{fill:#303030;}
	.st81{fill:#8A8A8A;}
	.st82{fill:#282828;}
	.st83{fill:#E6E6E6;}
	.st84{fill:#E8E8E8;}
	.st85{fill:#A9A9A9;}
	.st86{fill:#D9D9D9;}
	.st87{fill:#CACACA;}
	.st88{fill:#9E9E9E;}
	.st89{fill:none;}
	.st90{fill:#4A4744;}
	.st91{fill:#F0BA45;}
	.st92{fill:#F1D34E;}
	.st93{fill:none;stroke:#00A591;stroke-miterlimit:10;}
	.st94{fill:#EEEEEE;}
	.st95{fill:#FBFBFB;}
	.st96{fill:#F8F2DD;}
	.st97{fill:#8DB2A6;}
	.st98{fill:#ED8C58;}
	.st99{fill:#F0C153;}
	.st100{fill:#C2B146;}
	.st101{fill:#8E6E51;}
	.st102{fill:#1C1D4C;}
	.st103{fill:#111224;}
	.st104{fill:#26687B;}
	.st105{fill:#F8494A;}
	.st106{fill:#81819B;}
	.st107{fill:#80809B;}
	.st108{fill:#0AC6BB;}
	.st109{fill:#0BC5B9;}
	.st110{fill:#686888;}
	.st111{fill:#0BC5BA;}
	.st112{fill:#FEFEFE;}
	.st113{fill:#F8F5CE;}
	.st114{fill:#EF484B;}
	.st115{fill:#F94A4A;}
	.st116{fill:#F9F6CE;}
	.st117{fill:#DFE0E3;}
	.st118{fill:#04121D;}
	.st119{fill:#6693AB;}
	.st120{fill:#89BCD7;}
	.st121{fill:#FAF509;}
	.st122{fill:#0B2E41;}
	.st123{fill:#427491;}
	.st124{fill:#2A5973;}
	.st125{fill:#184259;}
	.st126{fill:#BCE4F7;}
	.st127{fill:#02111C;}
	.st128{fill:#FCF704;}
	.st129{fill:#F4F115;}
	.st130{fill:#DFE23F;}
	.st131{fill:#BCE6FA;}
	.st132{fill:#031D2B;}
	.st133{fill:#81851A;}
	.st134{fill:#1E1E1E;}
	.st135{fill:#F5142E;}
	.st136{fill:#05ACC0;}
	.st137{fill:#F87240;}
	.st138{fill:#FA723F;}
	.st139{fill:#F67240;}
	.st140{fill:#E37547;}
	.st141{fill:#07ADC0;}
	.st142{fill:#450D0D;}
	.st143{fill:#F57240;}
	.st144{fill:#440D0D;}
	.st145{fill:#470D0D;}
	.st146{fill:#EBECCC;}
	.st147{fill:#E9EACA;}
	.st148{fill:#00ABBF;}
	.st149{fill:#F6FAD9;}
	.st150{fill:#CBC3AC;}
	.st151{fill:#E2615D;}
	.st152{fill:#FAFAF8;}
	.st153{fill:#E8E4DA;}
	.st154{fill:#123057;}
	.st155{fill:#F4D16B;}
	.st156{fill:none;stroke:#F1D34E;stroke-miterlimit:10;}
	.st157{fill:#E3834C;}
	.st158{fill:#E9A779;}
	.st159{fill:#ECB74A;}
	.st160{fill:#00A591;}
</style>
<path class="st77" d="M87.6,229c-25.1-0.3-25.1-0.3-25.1-25.6c0-25.6,0-25.6,25.3-25.6c25.7,0.1,25.7,0.1,25.7,25.2
	C113.6,229.4,113.6,229.4,87.6,229z M107.2,204c0-19.8,0-19.9-18.9-19.7c-21.2,0.3-19.2-3.3-19.3,19c-0.1,19.3,0,19.3,20.2,19.3
	C107.2,222.6,107.2,222.6,107.2,204z"/>
<path class="st77" d="M200.1,188c-3.9,4.1-8,8.5-12.2,12.8c-22.3,22.6-22.6,22.9-44.6,0.4c-15.9-16.3-17.1-11-0.6-28
	c22.4-22.9,22.7-22.8,45.7,0.6C192.6,177.9,198.1,181,200.1,188z M163.9,156.7c-5.6,7.5-8.9,14.2-14.1,18.4
	c-10.3,8.4-10.5,14.4-0.2,23.5c16.4,14.4,16,15.2,31.8-1.3c3.4-3.6,11.6-6.7,7.6-12.6C182.9,175.7,174.4,168.2,163.9,156.7z"/>
<path class="st77" d="M237.4,19.1c-1,4.4-4.7,6.7-7.7,9.4c-9.1,8.2-16.1,24.2-27.2,23.2c-9.4-0.9-17.1-15.5-26.4-23
	c-9-7.2-8.2-13,0.4-19.3c2.2-1.6,4-3.9,6.1-5.7c7.3-6.2,15.6-20.9,20.7-18c12.8,7.1,22.4,20.1,33.2,30.8
	C237.1,17,237.2,18.1,237.4,19.1z M228.2,19.3c0.2-2.9-21.6-24.8-24.7-24.9c-3-0.1-25.1,21.5-25.2,24.6c-0.1,2.8,21.9,24.9,24.8,25
	C205.8,44,228,22.3,228.2,19.3z"/>
<path class="st77" d="M43.5,107.3c-1.9,2.5-3.4,4.8-5.3,6.6c-38.3,35.2-20.2,37.2-58.6,0.7c-5.6-5.3-6.6-9-0.2-14.5
	C-13,93.5-6,86.1,0.8,78.4c5.1-5.7,8.9-6.8,14.5-0.6c7.1,7.9,15,15.2,22.4,22.8C39.6,102.6,41.3,104.7,43.5,107.3z M33.7,106.2
	c-3.9-4-8.9-8.6-13.1-13.9c-7.7-9.7-13.8-11.9-23.5-1c-18.2,20.4-17.6,12.9,0.6,32.2c3.3,3.5,6,8.5,11.7,9
	C11.1,132.7,33.3,109.8,33.7,106.2z"/>
<path class="st77" d="M161.6,275.6c-3.1,3.4-6.4,7.2-9.9,10.7c-24.4,24.5-23.9,24-48.9,0.5c-9.9-9.4-12.1-15.9-0.1-24.4
	c9-6.4,14.6-21.5,24.1-21.1c11,0.5,17.6,14.8,26.4,22.8C156.4,267.2,160.6,269.7,161.6,275.6z M124.1,247.4
	c-4.2,5.1-8.1,11.8-13.7,16.2c-10.1,8-8.3,13.7,0.4,21.6c16.8,15.4,15.8,15.1,33.3-0.4c9.9-8.7,8.7-14.1-0.6-21.2
	C137.6,259.4,133.9,252.5,124.1,247.4z"/>
<path class="st77" d="M243.4,229c-24.3-0.3-24.3-0.3-24.3-24.9c0-26.4,0-26.4,25.9-26.2c25.1,0.2,25.1,0.2,25.1,25.8
	C270.1,229.3,270.1,229.3,243.4,229z M243.7,222.5c23.3,0.2,20,1.2,20-13.7c-0.1-28.3,2.9-24.5-16.3-24.4c-9.6,0-23.9-6.5-22.5,14.5
	C226.5,222.4,225.2,222.4,243.7,222.5z"/>
<path class="st77" d="M24.8-1.3c-0.1,25.9-0.1,25.9-26.5,25.8c-24.4-0.1-24.4-0.1-24.4-25.1c0-26.4,0-26.4,25.9-26.2
	C24.9-26.7,24.9-26.7,24.8-1.3z M-0.1-20.3C-19.8-20.5-20-20.5-19.9-7.4c0.2,28.1-2.6,25.9,14.5,24.8c8.7-0.6,24.8,9.8,24.2-12.5
	C18-20.1,18.7-20.2-0.1-20.3z"/>
<path class="st77" d="M277.2,100.9c-15,0-25.3-10.4-25.2-25.5c0.1-13.9,10.9-25,24.6-25.2c14.1-0.2,26.1,11.4,26.2,25.3
	C302.9,89.9,291.9,100.9,277.2,100.9z M277.7,56.8c-9.9-0.3-18.7,8.1-19.1,18.2c-0.4,10.4,7.4,19.1,17.6,19.6
	c10.7,0.5,20.1-8.3,20.1-18.7C296.3,66.1,287.5,57.1,277.7,56.8z"/>
<path class="st77" d="M93.1-12.3C93-27,103.9-38.1,118.3-38c14.2,0.1,25.7,11.8,25.5,25.9c-0.2,13.3-11.7,24.8-25.1,25
	C104.1,13.1,93.2,2.4,93.1-12.3z M137-12.5c-0.2-10.1-8.6-18.6-18.6-18.8c-10.7-0.2-19.2,8.7-18.9,19.6c0.3,10,9,18.3,19.1,18.2
	C128.5,6.1,137.2-2.7,137-12.5z"/>
<path class="st77" d="M277.5,306.1c-13.7,0.4-24.8-10.2-25.4-24.2c-0.6-14.8,9.7-26.2,24.2-26.7c14.4-0.5,26.2,10.5,26.5,24.7
	C303.1,294.1,291.8,305.7,277.5,306.1z M296,280.9c0.2-9.8-8.2-18.7-18-19.2c-10.5-0.6-19.5,8-19.6,18.7c-0.1,10.1,8,18.9,17.7,19.3
	C286.5,300.1,295.9,291.2,296,280.9z"/>
<path class="st77" d="M8.1,174.6c14.7-0.2,25.5,10.3,25.8,25.2c0.3,13.7-10.3,24.9-24.1,25.5c-14.3,0.6-26.1-10.3-26.7-24.6
	C-17.4,186.3-6.4,174.8,8.1,174.6z M8.9,180.9c-10.2-0.2-18.6,7.8-18.9,18.3c-0.3,10.6,7.2,19.1,17.5,19.6
	c10.6,0.5,19.8-8.3,19.7-19C27.3,189.5,19.1,181.1,8.9,180.9z"/>
<path class="st77" d="M62.3,82.1c-8.7-15-16.4-27.9-23.9-41c-2.5-4.4-1-7,4.3-7c12.9,0,25.9,0,38.8,0c6.1,0,7.2,3.1,4.4,8
	C78.4,54.7,71,67.3,62.3,82.1z M62.2,67.3c6.5-5.6,8.5-13.5,12.9-19.8c2.8-4,2.5-7.3-3.2-7c-7.5,0.4-17.5-3.8-22,2.1
	c-3.8,5.2,4.2,12,7.3,17.8C58.5,62.8,60.4,64.8,62.2,67.3z"/>
<path class="st77" d="M100.4,155.2c-14.2,0.1-25.8-11.4-25.7-25.6c0-14.3,11.4-25.3,26-25.1c14.1,0.1,24.4,10.4,24.7,24.7
	C125.7,143.7,114.8,155.1,100.4,155.2z M100.4,148.7c10.7-0.2,19.1-9.1,18.7-19.8c-0.3-9.9-8.9-18-19-18c-10.5,0-19.3,9.2-18.8,19.6
	C81.8,140.4,90.7,148.8,100.4,148.7z"/>
<path class="st77" d="M193.8,108.3c0.1-28.4,0.2-28.6,23.8-15c7.3,4.2,19.7,6.5,19.7,14.5c0,6.6-12.3,9.5-19.4,13.5
	c-7.2,4-15.7,13.7-21.4,10.4C189.3,127.5,195.4,115.6,193.8,108.3z M228.3,106.8c-7.7-4.5-13.7-7.9-19.6-11.5
	c-6.9-4.2-9.2-1.4-8.6,5.6c0.6,6.8-3.2,16.4,1.8,19.6c5.5,3.6,11.7-5,17.9-7.6C222.2,111.9,224.2,109.8,228.3,106.8z"/>
<path class="st77" d="M169,77.9c-1,6.9,4,18.4-2.5,22.1c-6.5,3.6-14.4-5.8-21.4-9.7c-25.2-14.3-25.1-14.5-0.1-28.8
	C168.6,47.9,168.6,47.9,169,77.9z M163.2,75.5c-2.7-4.1,3.7-14.1-4.9-13c-8,1-17.1,5.7-22.1,13.9c-0.7,1.2,21.1,14.6,23.2,13.7
	C166.4,86.9,161.2,80.5,163.2,75.5z"/>
<path class="st77" d="M225.6,282.9c-0.9,6.5,3.6,18.1-1.8,21.2c-6.8,4-14.6-5.2-21.6-9.1c-25.1-14.3-25-14.5,0.3-29
	c23-13.2,23-13.2,23,13C225.6,279.9,225.6,280.8,225.6,282.9z M220.2,280.1c-3.6-3.6,3.3-13.2-4.7-12.4c-7.8,0.7-20.4,5.9-20.4,13.1
	c0,7.2,12.6,12.3,20.4,13C223.4,294.4,217.3,285,220.2,280.1z"/>
<path class="st77" d="M292.8,122c27.8-0.1,28,0,14.3,23.5c-4.3,7.4-7,20.3-14.2,20.3c-7.6,0-10.3-12.9-14.6-20.4
	C264.8,122.2,264.9,122.1,292.8,122z M292.4,157.1c3.4-5.2,6.1-8.4,7.7-12c2.3-5.3,9.4-10.5,6.5-15.4c-2.9-5-11-1.5-16.7-2.1
	c-11-1.2-15,1.9-7.7,12.4C285.6,144.7,288.3,150,292.4,157.1z"/>
<path class="st77" d="M13.9,254.8c8.6,2,20.1-3.8,23.8,3.3c3.4,6.5-5.8,14.5-9.9,21.5c-13.7,23.8-14,23.8-27.4-0.1
	c-4-7.1-13.7-15.2-10.2-21.4C-5.7,250.6,6.2,257.2,13.9,254.8z M14.7,289.7c4.2-7.3,7.2-13,10.6-18.4c4.9-7.7,2.9-10.7-6-10
	c-6.3,0.5-16.2-1.6-18.1,1.5c-3.8,6.1,4.7,11.6,7.1,17.7C9.3,283.4,11.8,285.7,14.7,289.7z"/>
<path class="st77" d="M263.6,31.4c0-16.5-0.1-29.9,0-43.3c0-3.1,0.5-6.3,1-11.5c14.3,8.2,27.5,15.6,40.5,23.1
	c4.8,2.8,4.1,5.6-0.3,8.1C292.2,15.2,279.4,22.5,263.6,31.4z M270.2-12.5c0.3,11.7-4.5,25.4,2.1,29.1c6.1,3.5,16.8-5.8,24-13.3
	C289.1-3.2,280.7-7.3,270.2-12.5z"/>
<path class="st83" d="M107.2,204c0,18.6,0,18.6-18.1,18.6c-20.2,0-20.3,0-20.2-19.3c0.1-22.3-1.9-18.8,19.3-19
	C107.1,184,107.1,184.2,107.2,204z"/>
<path class="st94" d="M163.9,156.7c10.5,11.5,19,19,25.1,28c4,5.9-4.2,9.1-7.6,12.6c-15.8,16.5-15.4,15.7-31.8,1.3
	c-10.3-9.1-10.1-15.2,0.2-23.5C155,170.9,158.3,164.3,163.9,156.7z"/>
<path class="st94" d="M228.2,19.3c-0.2,3-22.4,24.8-25.1,24.7c-2.9-0.1-24.9-22.2-24.8-25c0.1-3.1,22.2-24.6,25.2-24.6
	C206.5-5.5,228.3,16.4,228.2,19.3z"/>
<path class="st84" d="M33.7,106.2c-0.4,3.5-22.5,26.5-24.3,26.3c-5.7-0.5-8.4-5.5-11.7-9c-18.2-19.3-18.8-11.8-0.6-32.2
	c9.7-10.9,15.8-8.8,23.5,1C24.7,97.6,29.8,102.2,33.7,106.2z"/>
<path class="st84" d="M124.1,247.4c9.8,5,13.5,11.9,19.3,16.3c9.3,7.1,10.5,12.5,0.6,21.2c-17.5,15.5-16.5,15.7-33.3,0.4
	c-8.7-7.9-10.5-13.6-0.4-21.6C116,259.2,119.9,252.5,124.1,247.4z"/>
<path class="st84" d="M243.7,222.5c-18.5-0.1-17.1-0.2-18.8-23.6c-1.4-21,12.9-14.5,22.5-14.5c19.1,0,16.2-3.9,16.3,24.4
	C263.7,223.8,267,222.7,243.7,222.5z"/>
<path class="st83" d="M-0.1-20.3C18.7-20.2,18-20.1,18.7,4.9C19.4,27.2,3.3,16.8-5.4,17.4c-17.1,1.1-14.3,3.3-14.5-24.8
	C-20-20.5-19.8-20.5-0.1-20.3z"/>
<path class="st84" d="M277.7,56.8c9.8,0.3,18.6,9.3,18.6,19c0,10.5-9.4,19.2-20.1,18.7c-10.1-0.5-18-9.2-17.6-19.6
	C258.9,64.9,267.7,56.5,277.7,56.8z"/>
<path class="st84" d="M137-12.5c0.2,9.9-8.5,18.7-18.5,18.9c-10,0.2-18.8-8.1-19.1-18.2c-0.3-10.9,8.3-19.8,18.9-19.6
	C128.4-31.2,136.9-22.6,137-12.5z"/>
<path class="st83" d="M296,280.9c-0.2,10.3-9.6,19.2-19.9,18.8c-9.7-0.4-17.8-9.2-17.7-19.3c0.1-10.7,9.2-19.3,19.6-18.7
	C287.9,262.2,296.2,271.1,296,280.9z"/>
<path class="st84" d="M8.9,180.9c10.2,0.2,18.3,8.6,18.4,18.9c0.1,10.7-9.1,19.5-19.7,19c-10.3-0.5-17.9-9-17.5-19.6
	C-9.6,188.7-1.3,180.7,8.9,180.9z"/>
<path class="st86" d="M62.2,67.3c-1.8-2.4-3.7-4.4-4.9-6.8c-3.1-5.9-11.1-12.7-7.3-17.8c4.4-6,14.4-1.7,22-2.1c5.6-0.3,6,2.9,3.2,7
	C70.7,53.8,68.7,61.6,62.2,67.3z"/>
<path class="st84" d="M100.4,148.7c-9.7,0.2-18.5-8.3-19-18.2c-0.5-10.4,8.3-19.6,18.8-19.6c10.1,0,18.6,8.1,19,18
	C119.4,139.6,111,148.5,100.4,148.7z"/>
<path class="st86" d="M228.3,106.8c-4.1,3-6.1,5.1-8.5,6.1c-6.2,2.6-12.3,11.2-17.9,7.6c-5-3.2-1.2-12.8-1.8-19.6
	c-0.6-7,1.7-9.8,8.6-5.6C214.5,98.9,220.5,102.3,228.3,106.8z"/>
<path class="st86" d="M163.2,75.5c-2,5,3.2,11.4-3.8,14.6c-2,0.9-23.9-12.5-23.2-13.7c5-8.3,14.1-12.9,22.1-13.9
	C166.9,61.3,160.5,71.3,163.2,75.5z"/>
<path class="st83" d="M220.2,280.1c-2.9,4.9,3.2,14.3-4.6,13.6c-7.8-0.7-20.4-5.8-20.4-13c0-7.2,12.6-12.3,20.4-13.1
	C223.5,266.9,216.6,276.4,220.2,280.1z"/>
<path class="st86" d="M292.4,157.1c-4.2-7.1-6.8-12.4-10.2-17.2c-7.4-10.5-3.4-13.6,7.7-12.4c5.8,0.6,13.8-2.9,16.7,2.1
	c2.9,5-4.2,10.1-6.5,15.4C298.5,148.7,295.8,151.9,292.4,157.1z"/>
<path class="st86" d="M14.7,289.7c-2.9-4-5.4-6.3-6.5-9.1c-2.4-6.2-10.9-11.7-7.1-17.7c1.9-3.1,11.9-1,18.1-1.5
	c8.9-0.7,10.9,2.4,6,10C21.9,276.8,18.9,282.4,14.7,289.7z"/>
<path class="st86" d="M270.2-12.5c10.5,5.2,18.9,9.3,26.1,15.8c-7.2,7.5-17.9,16.8-24,13.3C265.7,12.9,270.5-0.9,270.2-12.5z"/>
</svg>
