<?xml version="1.0" encoding="utf-8"?>
<!-- Generator: Adobe Illustrator 24.0.2, SVG Export Plug-In . SVG Version: 6.00 Build 0)  -->
<svg version="1.1" id="Capa_1" xmlns="http://www.w3.org/2000/svg" xmlns:xlink="http://www.w3.org/1999/xlink" x="0px" y="0px"
	 viewBox="0 0 288 288" style="enable-background:new 0 0 288 288;" xml:space="preserve">
<style type="text/css">
	.st0{fill:#2D2D2D;}
	.st1{fill:#002530;}
	.st2{fill:#050523;}
	.st3{fill:#707C84;}
	.st4{fill:#E9E4DE;}
	.st5{fill:#EE3133;}
	.st6{fill:#FD99AF;}
	.st7{fill:#C4C2C0;}
	.st8{fill:#F2D8A3;}
	.st9{fill:#EFCB84;}
	.st10{fill:#EF692F;}
	.st11{fill:#4B343F;}
	.st12{fill:#16B198;}
	.st13{fill:#E72D52;}
	.st14{fill:#7B536F;}
	.st15{fill:#8F4CA9;}
	.st16{fill:#E2C29F;}
	.st17{fill:#9F4687;}
	.st18{fill:#A9A0AF;}
	.st19{fill:#CC4743;}
	.st20{fill:#8677A9;}
	.st21{fill:#8E5D8E;}
	.st22{fill:#DF615C;}
	.st23{fill:#9E4742;}
	.st24{fill:#D34861;}
	.st25{fill:#B75B6D;}
	.st26{fill:#DF6482;}
	.st27{fill:#FFFFFF;}
	.st28{fill:#829CA2;}
	.st29{fill:#F2B991;}
	.st30{fill:#E56759;}
	.st31{fill:#F5F3EE;}
	.st32{fill:#DC4B3F;}
	.st33{fill:#1D5A7D;}
	.st34{fill:#459492;}
	.st35{fill:#F0A349;}
	.st36{fill:#E4EFEB;}
	.st37{fill:#E17467;}
	.st38{fill:#B6BFBD;}
	.st39{fill:#F0E2D6;}
	.st40{fill:#396D89;}
	.st41{fill:#201A21;}
	.st42{fill:#48505D;}
	.st43{fill:#0B0707;}
	.st44{fill:#D30034;}
	.st45{fill:#6C919B;}
	.st46{fill:#F68C4A;}
	.st47{fill:#E5CFCD;}
	.st48{fill:#385B4D;}
	.st49{fill:#F14206;}
	.st50{fill:#BAD2D8;}
	.st51{fill:#F70059;}
	.st52{fill:#AA000C;}
	.st53{fill:#D8B5B2;}
	.st54{fill:#E08143;}
	.st55{fill:#F2E9E9;}
	.st56{fill:#F4D085;}
	.st57{fill:#23586A;}
	.st58{fill:#17241F;}
	.st59{fill:#EAE8E1;}
	.st60{fill:#253C4F;}
	.st61{fill:#F7FCFD;}
	.st62{fill:#0E151F;}
	.st63{fill:#8D897D;}
	.st64{fill:#BDB6AA;}
	.st65{fill:#EDE1AF;}
	.st66{fill:#DF786F;}
	.st67{fill:#E8C46F;}
	.st68{fill:#B0CEAD;}
	.st69{fill:#9FC4AF;}
	.st70{fill:#B8C6A0;}
	.st71{fill:#EBEC80;}
	.st72{fill:#DD7AB2;}
	.st73{fill:#D6D2D3;}
	.st74{fill:#69BCC5;}
	.st75{fill:#D0CBC1;}
	.st76{fill:#242424;}
	.st77{fill:#525252;}
	.st78{fill:#3D3D3D;}
	.st79{fill:#6B6B6B;}
	.st80{fill:#303030;}
	.st81{fill:#8A8A8A;}
	.st82{fill:#282828;}
	.st83{fill:#E6E6E6;}
	.st84{fill:#E8E8E8;}
	.st85{fill:#A9A9A9;}
	.st86{fill:#D9D9D9;}
	.st87{fill:#CACACA;}
	.st88{fill:#9E9E9E;}
	.st89{fill:none;}
	.st90{fill:#4A4744;}
	.st91{fill:#F0BA45;}
	.st92{fill:#F1D34E;}
	.st93{fill:none;stroke:#00A591;stroke-miterlimit:10;}
	.st94{fill:#EEEEEE;}
	.st95{fill:#FBFBFB;}
	.st96{fill:#F8F2DD;}
	.st97{fill:#8DB2A6;}
	.st98{fill:#ED8C58;}
	.st99{fill:#F0C153;}
	.st100{fill:#C2B146;}
	.st101{fill:#8E6E51;}
	.st102{fill:#1C1D4C;}
	.st103{fill:#111224;}
	.st104{fill:#26687B;}
	.st105{fill:#F8494A;}
	.st106{fill:#81819B;}
	.st107{fill:#80809B;}
	.st108{fill:#0AC6BB;}
	.st109{fill:#0BC5B9;}
	.st110{fill:#686888;}
	.st111{fill:#0BC5BA;}
	.st112{fill:#FEFEFE;}
	.st113{fill:#F8F5CE;}
	.st114{fill:#EF484B;}
	.st115{fill:#F94A4A;}
	.st116{fill:#F9F6CE;}
	.st117{fill:#DFE0E3;}
	.st118{fill:#04121D;}
	.st119{fill:#6693AB;}
	.st120{fill:#89BCD7;}
	.st121{fill:#FAF509;}
	.st122{fill:#0B2E41;}
	.st123{fill:#427491;}
	.st124{fill:#2A5973;}
	.st125{fill:#184259;}
	.st126{fill:#BCE4F7;}
	.st127{fill:#02111C;}
	.st128{fill:#FCF704;}
	.st129{fill:#F4F115;}
	.st130{fill:#DFE23F;}
	.st131{fill:#BCE6FA;}
	.st132{fill:#031D2B;}
	.st133{fill:#81851A;}
	.st134{fill:#1E1E1E;}
	.st135{fill:#F5142E;}
	.st136{fill:#05ACC0;}
	.st137{fill:#F87240;}
	.st138{fill:#FA723F;}
	.st139{fill:#F67240;}
	.st140{fill:#E37547;}
	.st141{fill:#07ADC0;}
	.st142{fill:#450D0D;}
	.st143{fill:#F57240;}
	.st144{fill:#440D0D;}
	.st145{fill:#470D0D;}
	.st146{fill:#EBECCC;}
	.st147{fill:#E9EACA;}
	.st148{fill:#00ABBF;}
	.st149{fill:#F6FAD9;}
	.st150{fill:#CBC3AC;}
	.st151{fill:#E2615D;}
	.st152{fill:#FAFAF8;}
	.st153{fill:#E8E4DA;}
	.st154{fill:#123057;}
	.st155{fill:#F4D16B;}
	.st156{fill:none;stroke:#F1D34E;stroke-miterlimit:10;}
	.st157{fill:#E3834C;}
	.st158{fill:#E9A779;}
	.st159{fill:#ECB74A;}
	.st160{fill:#00A591;}
</style>
<path class="st82" d="M240.8,17.3c-8,15-16.4,29.8-23.8,45.1c-4.2,8.6-6.9,7.6-12,0.6c-22.3-30.8-44.8-61.6-67.7-91.9
	c-5.4-7.1-4.2-10.7,2.4-15.5c6.3-4.6,9.8-3.9,14.4,2.5c15.6,21.9,32.1,43.2,47.6,65.2c5.8,8.2,8.5,7.2,12.7-1.1
	c10.6-21,21.9-41.6,33.8-64c6.9,13.6,8.4,26.5,12,38.8c5.7,19.6,10.2,39.6,16.2,59.1c2.6,8.7-2.4,9.1-8,10.8
	c-5.7,1.8-10.5,3.5-12.6-4.9c-3.6-14.8-7.8-29.4-11.8-44.2C243,17.6,241.9,17.4,240.8,17.3z"/>
<path class="st76" d="M145.8,297.4c-35.3-21.7-67.2-41.4-99.3-60.9c-6.2-3.8-5.4-7.2-1.7-12.2c3.6-4.8,5.3-11.2,13.5-5.4
	c8.3,5.9,17.3,10.7,28.9,14.2c-5.9-10.9-12.1-21.7-17.8-32.8c-4.5-8.9-16.2-19.1-12.1-26.2c3.8-6.6,18.6-2.1,28.5-2.1
	c24.1,0.2,48.2,1.1,72.4,1.2c8.3,0,11.2,2.6,11,11.3c-0.2,8.4-3.5,9.9-10.9,9.7c-19-0.6-38.1-0.2-57.1-1c-9.9-0.4-11.3,2-6.4,10.5
	c16.2,28.1,31.8,56.6,47.7,84.9C143.5,290,143.8,291.7,145.8,297.4z"/>
<path class="st82" d="M144,156.9c-9.6-14.6-19.2-29.2-28.8-43.8c-10.4-15.9-20.5-32-31.3-47.7c-4.3-6.2-3.2-9.6,2.9-13.1
	c5.4-3.1,9.7-6.9,14.7,1.2c9.1,14.8,19,29.1,29.6,45.1c5.6-12.1,4.2-22.9,6.2-33c2-9.9,1.2-20.3,5.2-32.1
	c23.4,16.9,46.4,33,68.9,49.7c7.4,5.5-0.8,9.5-2.9,13.8c-2.6,5.2-6.1,5.7-11.1,2c-12.1-9.1-24.7-17.8-39.4-28.3
	c-3.8,30-7.2,57.6-10.7,85.3C146.3,156.4,145.2,156.7,144,156.9z"/>
<path class="st82" d="M61.9,136.3c-28.1-19.5-53.1-36.8-78-54.1c0.2-1,0.5-2,0.7-3c18.6,1.1,37.2,2.1,55.7,3.2
	c7.9,0.5,15.7,1.6,23.6,1.8c8.4,0.2,14.8,0.1,14,12.4c-0.9,12.4-8.1,8.2-14.4,8.2c-1.4,0-2.7,0.3-7.8,0.8
	c19.2,13.6,36.2,25.6,55.5,39.3c-38.7,10.1-74.5,19.3-110.1,28.8c-8.9,2.4-8.4-4.4-10.1-9.2c-2.5-6.6-0.4-10.1,6.8-11.8
	C18,148,38,142.5,61.9,136.3z"/>
<path class="st82" d="M195.1,206.8c-10.3-32.3-19.4-61.4-28.9-90.4c-2.7-8.3,2.9-9,8.3-10.9c6.1-2.1,10.1-2.4,12.3,5.6
	c3.8,14.3,8.9,28.2,14.5,45.9c16.5-26.8,31.6-51.1,46.6-75.4c1.1,0.2,2.1,0.4,3.2,0.6c3.3,24,6.5,48.1,9.7,72.1
	c0.6,4.6,0.6,9.4,1.8,13.8c2.7,9.5-0.9,12.8-10.3,14.2c-10.7,1.6-9.8-5.3-10.7-11.6c-1.2-9-2.4-18-6.5-28.1
	C222.5,162.9,209.7,183.4,195.1,206.8z"/>
<path class="st82" d="M90.2-1.5c-20.8,24.8-39.9,47.6-59,70.4c-0.9-0.3-1.8-0.6-2.7-1c2.9-33.4,5.8-66.9,8.8-100.3
	c0.8-8.4,7.2-5.1,11.7-5.3c5.1-0.3,9.3,1.1,8.8,7.6c-0.9,11-1.8,21.9-0.2,34.3C70.5-11,83.4-26.4,98-43.9c3.2,9.1,5.8,16.2,8.1,23.3
	c6.3,18.9,12.1,38,18.8,56.7c2.7,7.4,0,9.7-6.6,11.6c-6.2,1.7-11.1,4-13.7-5.1C100.7,28.5,95.6,14.8,90.2-1.5z"/>
<path class="st82" d="M230,191.1c31,13.2,61.9,26.5,93.1,39.3c7.6,3.1,6.6,7.1,4.2,12.9c-2.6,6.2-5.3,10.8-13.1,6.3
	c-3.4-2-7.5-2.8-13.5-5c7.6,16.3,20.9,25.6,29,39.9c-23.5,5.2-45.6,9.9-67.6,14.9c-8,1.8-8.3-3.9-9.1-8.7
	c-0.8-4.6-3.7-10.3,4.6-11.9c10.8-2.1,21.6-4.7,34.8-7.6c-22.4-27-43.5-52.4-64.5-77.8C228.5,192.6,229.3,191.9,230,191.1z"/>
<path class="st82" d="M65.4,279.7c-25.6,5.9-49.8,11.3-74,17c-8.3,1.9-7.6-4.7-8.8-9.2c-1.4-5.1-2.3-10,5.3-11.5
	c10-1.9,19.7-5.1,29.8-6.7c9.3-1.5,8.3-4.6,3.2-10.3c-12.9-14.6-25.3-29.6-38.1-44.2c-4.3-5-6.9-8.3,1.8-11.7
	c19-7.4,37.8-15.3,56.4-23.5c7.1-3.1,9.8-0.7,12.3,5.8c2.4,6.3,4.3,11-4.2,13.9c-9.2,3.2-17.9,7.7-27.1,10.9
	c-9.1,3.1-10.6,6.5-3.6,14.1c13.8,15,26.8,30.7,40,46.2C60.5,272.8,62.2,275.5,65.4,279.7z"/>
<path class="st76" d="M228.2,212.4c0,27.6-0.2,55.2,0.1,82.8c0.1,9.3-6.2,7.1-11.3,7.4c-5.7,0.4-9.7-0.2-9.2-7.9
	c0.7-10,0.2-20.1-3-31.8c-9.7,10.6-19.6,21.1-28.9,32c-5.9,6.9-9.1,6.9-13.4-1.7c-10.5-20.6-21.6-40.9-33.1-61
	c-3.8-6.7-3.3-10.1,3.7-14c7.4-4.2,11.2-3.4,14.9,4.4c4.9,10.5,11,20.4,16.5,30.5c7.9,14.6,7.9,14.6,18.6,2.9c13.6-15,27.3-30,41-45
	C225.4,211.6,226.8,212,228.2,212.4z"/>
<path class="st82" d="M268.1,109.5c19.4,1.4,38.8,3.4,58.2,3.9c11,0.3,9.7,6.8,10,13.9c0.4,9.4-5.9,7.2-11.3,7.3
	c-4,0-8.1-1.8-12.8,1.1c4.1,10.4,12.4,17.9,18.8,26.6c3.1,4.3,5.1,8.4,5.3,13.8c0.7,18.8-7.4,30-25.8,36.5c-7.1,2.5-7.6-3-10-6.4
	c-2.7-3.7-5.8-7-0.4-11.8c5.8-5.2,18.6-5.3,16.8-15.2c-1.4-7.3-9.4-13.4-14.5-20c-12.1-15.5-24.2-31-36.4-46.5
	C266.6,111.5,267.3,110.5,268.1,109.5z"/>
<path class="st80" d="M336.1,27.1c-22.5-17.9-42-33.4-61.5-48.8c0.1-1.3,0.3-2.7,0.4-4c18.9,0,37.9-0.1,56.8,0.1
	c3.6,0,4.3,2.9,4.3,5.9C336.2-5.4,336.1,9,336.1,27.1z"/>
<path class="st0" d="M-21.9,1.6c12.3,9.6,23.1,18.3,34,26.6c5.3,4,5.5,6.8-0.9,9.6c-6.3,2.8-12.5,6-18.7,9
	c-17.2,8.2-17.7,8.1-15.8-11.5C-22.3,24.9-25.5,14.4-21.9,1.6z"/>
<path class="st82" d="M-3.4,115.6c4.6,0.4,9.2,1.1,13.7,1.1c8.2-0.1,11.2,2.9,10.4,11.6c-0.8,8.9-4.9,10.5-12.6,9.4
	c-7.7-1.1-15.6-1.9-23.4-2c-6.6-0.1-8.2-2.6-8.6-9c-0.6-9.5,2-13.9,12.1-11.6c2.7,0.6,5.5,0.4,8.3,0.6
	C-3.4,115.7-3.4,115.7-3.4,115.6z"/>
</svg>
