<?xml version="1.0" encoding="utf-8"?>
<!-- Generator: Adobe Illustrator 24.0.2, SVG Export Plug-In . SVG Version: 6.00 Build 0)  -->
<svg version="1.1" id="Capa_1" xmlns="http://www.w3.org/2000/svg" xmlns:xlink="http://www.w3.org/1999/xlink" x="0px" y="0px"
	 viewBox="0 0 288 288" style="enable-background:new 0 0 288 288;" xml:space="preserve">
<style type="text/css">
	.st0{fill:#2D2D2D;}
	.st1{fill:#002530;}
	.st2{fill:#050523;}
	.st3{fill:#707C84;}
	.st4{fill:#E9E4DE;}
	.st5{fill:#EE3133;}
	.st6{fill:#FD99AF;}
	.st7{fill:#C4C2C0;}
	.st8{fill:#F2D8A3;}
	.st9{fill:#EFCB84;}
	.st10{fill:#EF692F;}
	.st11{fill:#4B343F;}
	.st12{fill:#16B198;}
	.st13{fill:#E72D52;}
	.st14{fill:#7B536F;}
	.st15{fill:#8F4CA9;}
	.st16{fill:#E2C29F;}
	.st17{fill:#9F4687;}
	.st18{fill:#A9A0AF;}
	.st19{fill:#CC4743;}
	.st20{fill:#8677A9;}
	.st21{fill:#8E5D8E;}
	.st22{fill:#DF615C;}
	.st23{fill:#9E4742;}
	.st24{fill:#D34861;}
	.st25{fill:#B75B6D;}
	.st26{fill:#DF6482;}
	.st27{fill:#FFFFFF;}
	.st28{fill:#829CA2;}
	.st29{fill:#F2B991;}
	.st30{fill:#E56759;}
	.st31{fill:#F5F3EE;}
	.st32{fill:#DC4B3F;}
	.st33{fill:#1D5A7D;}
	.st34{fill:#459492;}
	.st35{fill:#F0A349;}
	.st36{fill:#E4EFEB;}
	.st37{fill:#E17467;}
	.st38{fill:#B6BFBD;}
	.st39{fill:#F0E2D6;}
	.st40{fill:#396D89;}
	.st41{fill:#201A21;}
	.st42{fill:#48505D;}
	.st43{fill:#0B0707;}
	.st44{fill:#D30034;}
	.st45{fill:#6C919B;}
	.st46{fill:#F68C4A;}
	.st47{fill:#E5CFCD;}
	.st48{fill:#385B4D;}
	.st49{fill:#F14206;}
	.st50{fill:#BAD2D8;}
	.st51{fill:#F70059;}
	.st52{fill:#AA000C;}
	.st53{fill:#D8B5B2;}
	.st54{fill:#E08143;}
	.st55{fill:#F2E9E9;}
	.st56{fill:#F4D085;}
	.st57{fill:#23586A;}
	.st58{fill:#17241F;}
	.st59{fill:#EAE8E1;}
	.st60{fill:#253C4F;}
	.st61{fill:#F7FCFD;}
	.st62{fill:#0E151F;}
	.st63{fill:#8D897D;}
	.st64{fill:#BDB6AA;}
	.st65{fill:#EDE1AF;}
	.st66{fill:#DF786F;}
	.st67{fill:#E8C46F;}
	.st68{fill:#B0CEAD;}
	.st69{fill:#9FC4AF;}
	.st70{fill:#B8C6A0;}
	.st71{fill:#EBEC80;}
	.st72{fill:#DD7AB2;}
	.st73{fill:#D6D2D3;}
	.st74{fill:#69BCC5;}
	.st75{fill:#D0CBC1;}
	.st76{fill:#242424;}
	.st77{fill:#525252;}
	.st78{fill:#3D3D3D;}
	.st79{fill:#6B6B6B;}
	.st80{fill:#303030;}
	.st81{fill:#8A8A8A;}
	.st82{fill:#282828;}
	.st83{fill:#E6E6E6;}
	.st84{fill:#E8E8E8;}
	.st85{fill:#A9A9A9;}
	.st86{fill:#D9D9D9;}
	.st87{fill:#CACACA;}
	.st88{fill:#9E9E9E;}
	.st89{fill:none;}
	.st90{fill:#4A4744;}
	.st91{fill:#F0BA45;}
	.st92{fill:#F1D34E;}
	.st93{fill:none;stroke:#00A591;stroke-miterlimit:10;}
	.st94{fill:#EEEEEE;}
	.st95{fill:#FBFBFB;}
	.st96{fill:#F8F2DD;}
	.st97{fill:#8DB2A6;}
	.st98{fill:#ED8C58;}
	.st99{fill:#F0C153;}
	.st100{fill:#C2B146;}
	.st101{fill:#8E6E51;}
	.st102{fill:#1C1D4C;}
	.st103{fill:#111224;}
	.st104{fill:#26687B;}
	.st105{fill:#F8494A;}
	.st106{fill:#81819B;}
	.st107{fill:#80809B;}
	.st108{fill:#0AC6BB;}
	.st109{fill:#0BC5B9;}
	.st110{fill:#686888;}
	.st111{fill:#0BC5BA;}
	.st112{fill:#FEFEFE;}
	.st113{fill:#F8F5CE;}
	.st114{fill:#EF484B;}
	.st115{fill:#F94A4A;}
	.st116{fill:#F9F6CE;}
	.st117{fill:#DFE0E3;}
	.st118{fill:#04121D;}
	.st119{fill:#6693AB;}
	.st120{fill:#89BCD7;}
	.st121{fill:#FAF509;}
	.st122{fill:#0B2E41;}
	.st123{fill:#427491;}
	.st124{fill:#2A5973;}
	.st125{fill:#184259;}
	.st126{fill:#BCE4F7;}
	.st127{fill:#02111C;}
	.st128{fill:#FCF704;}
	.st129{fill:#F4F115;}
	.st130{fill:#DFE23F;}
	.st131{fill:#BCE6FA;}
	.st132{fill:#031D2B;}
	.st133{fill:#81851A;}
	.st134{fill:#1E1E1E;}
	.st135{fill:#F5142E;}
	.st136{fill:#05ACC0;}
	.st137{fill:#F87240;}
	.st138{fill:#FA723F;}
	.st139{fill:#F67240;}
	.st140{fill:#E37547;}
	.st141{fill:#07ADC0;}
	.st142{fill:#450D0D;}
	.st143{fill:#F57240;}
	.st144{fill:#440D0D;}
	.st145{fill:#470D0D;}
	.st146{fill:#EBECCC;}
	.st147{fill:#E9EACA;}
	.st148{fill:#00ABBF;}
	.st149{fill:#F6FAD9;}
	.st150{fill:#CBC3AC;}
	.st151{fill:#E2615D;}
	.st152{fill:#FAFAF8;}
	.st153{fill:#E8E4DA;}
	.st154{fill:#123057;}
	.st155{fill:#F4D16B;}
	.st156{fill:none;stroke:#F1D34E;stroke-miterlimit:10;}
	.st157{fill:#E3834C;}
	.st158{fill:#E9A779;}
	.st159{fill:#ECB74A;}
	.st160{fill:#00A591;}
</style>
<rect class="st0" width="288" height="289"/>
<path class="st82" d="M71.8,147.3c-0.3-4.4-0.5-8.8-0.8-13.2c2.4-24.6,2.4-24.6-14.2-25.9c0.3-1.2,0.6-2.3,1-3.5
	c6.1-3.2,11-7.4,9.9-15.1c-1.1-8-6.8-11.3-14-13.1c-0.1-1.5-0.2-2.9-0.3-4.4c2.1-0.3,4.3-0.5,6.4-0.8c3-0.2,6.1-0.3,8.3-2.9
	c1,0.5,2,1.1,3,1.6c0.8,1.1,1.7,2.2,2.5,3.3c3.8,1.9,7.8,1.2,11.8,0.5c3.2-0.2,6.5-0.9,9.7-0.5c9.4,1.2,14.2-1.9,12.6-12
	c1.2-0.1,2.4-0.2,3.6-0.3c8.2,9.5,16.2,11.1,23.3,4.8c7.5-6.7,6.3-14.9-3.4-24.1c0.1-1.4,0.2-2.8,0.3-4.1c8.8-1.9,12.4,1.2,12,10.6
	c-0.5,10.4-1.3,20.9,0.8,31.2c0,0,0.3,0.2,0.3,0.2c-1.8,4.4-6.2,9.4,2.4,11.7c0.1,1,0.2,2,0.3,3c-2.9,3.5-3.5,7-0.2,10.6
	c-6.9,8.4-6.8,17.3,0.3,24.9c-2.7,3.5-4.3,7-0.7,10.8c0.2,1.3,0.4,2.6,0.6,3.8c-2.1,0-4.2,0-6.3,0c-7.3-2.4-14-2.3-19.2,4.4
	c-4.7-4.4-8.7-2.5-12.5,1.4c0.1-2.5-0.8-4.3-3.5-5c-1.6,0-3.6-0.7-4.3,1.4c-0.5,1.6,1,2.2,2.3,2.6c2,9.3-2.8,10.8-10.4,9.1
	c-1.6-3.4,0.3-9.2-6.3-9.1c-4.5-4.1-8.9-4-13.2,0.2c0.2-0.7,0-1.3-0.5-1.8C72.7,147.7,72.3,147.5,71.8,147.3z M106,137.3
	c16.1,0.6,29.2-11.4,29.8-27.3c0.5-15.9-11.5-28.9-27.5-29.8c-15.7-0.9-29.6,12.5-30,28.6C78,123.9,90.5,136.7,106,137.3z
	 M94.4,146.8c-0.1,0.3-0.2,0.6-0.3,0.9c0.3,0.1,0.7,0.3,0.8,0.2c0.2-0.2,0.2-0.6,0.3-0.9C94.9,146.9,94.7,146.8,94.4,146.8z"/>
<path class="st76" d="M142.1,286.4c-33.2,0.2-66.4,0.2-99.6,0.7c-9.9,0.2-5.9-6.9-7.1-11.4c0.2-8.2,0.4-16.4,0.7-24.5l-0.2,0.1
	c4.4,0.1,8.9,0.2,13.3,0.2c24.1-0.1,24.1-0.1,21.8-24.7c1.6-3.7-2.5-9.8,4.7-11.3c6.9,5.8,12.6,1.5,18.4-2.1c2.7-0.2,5.4-0.3,8-0.5
	c1.6,0.2,3.2,0.4,4.8,0.5c5.8,6.6,13,6.5,19.6-0.3c0.1-1,0.2-2.1,0.3-3.1c4,3.9,8.2,5.8,12.9,1c1.1,0.1,2.1,0.2,3.2,0.3
	c0.2,2.3,1,4.2,3.7,4.6c0.2,0.9,0.4,1.8,0.6,2.7c-3.9,4.7-2.6,9.8-0.9,14.9c-8.2,2.8-2.4,9-3.3,13.5c-2.7,4.4,3.8,6,3,9.8
	c-7.7,2.6,0,6.8-1,10.1c-0.6,1.4-1.2,2.8-1.9,4.2c-0.3,1.5-0.7,3-1,4.6c-2.7,2.2-2.5,4.4,0,6.6C142.1,283.5,142.1,284.9,142.1,286.4
	z M135.9,252.1c0.3-15.9-12.2-29-28-29.4c-15.7-0.4-29.2,12.3-29.6,27.9c-0.3,15.7,12.4,29,28.1,29.4
	C122.3,280.4,135.6,267.8,135.9,252.1z M67.9,269.8c0.1-8.1-6.2-14.8-13.9-14.6c-8.5,0.2-13.8,4.6-14.3,13.4
	c-0.5,8.4,5.9,15.1,14.2,14.6C62.5,282.8,66.9,277.6,67.9,269.8z"/>
<path class="st0" d="M250.2,59.1c-2.2,11.6,2.7,14.5,14.1,14c21.6-0.9,21.7-0.2,21.7,21.8c0,13.2,0.1,26.5-0.1,39.7
	c0,3.4,1.6,7.5-2.3,10.1c-1.3-0.1-2.7-0.3-4-0.4c-6.4-3.6-11,0.3-15.8,3.6c-4.6-2-8.8-2.5-11.2,3.2c-2-3.3-2.7-8.1-8.4-6.8
	c-6.4-3.2-11.3-0.1-16.1,3.8c-3.8-2.1-7.4-2.3-10.4,1.4c-1.1-0.2-2.2-0.5-3.3-0.7c0.2-2.2,0.4-4.4,0.6-6.6c0.2-2,0.3-4,0.5-6
	c1.2-5.5-2.3-9.4-4.9-13.6c3.2-3.5,2.5-6.9-0.4-10.3c7.3-6.2,7.5-17.6,0.1-25.3c2.9-3.3,2.6-6.7-0.1-10c0.4-1.4,0.9-2.9,1.3-4.3
	c5.7-3.5,1.2-9.5,3.3-13.8c1.1-0.1,2.1-0.1,3.2-0.2c9,14.6,19.3,14.6,28.6,0.1C247.6,59,248.9,59.1,250.2,59.1z M250.7,137.4
	c15.2-0.2,28.1-13.3,28.1-28.4c0-15.6-13.3-28.7-29.1-28.7c-15.9,0-28.5,12.9-28.3,29.1C221.7,125.4,234.4,137.6,250.7,137.4z"/>
<path class="st82" d="M284.1,198c3.5,6.5,1.6,13.5,1.7,20.2c0.4,19.8-0.1,39.6,0.3,59.5c0.1,6.9-1.5,9.6-9.1,9.4
	c-22.8-0.5-45.6-0.2-68.5-0.2c4.9-6,3.5-12.1-0.1-18.1c7.7,0.7,6.5-4.7,6.4-9.3c-0.1-4.2,1-9.6-6.4-7.8c3.2-6,4.5-12,0.5-18.2
	c11.7-1.9,3.9-10.5,5.5-15.9c0.3-0.6,0.6-1.1,1-1.5c6.8-1.2,15.8,4.1,19.4-6.5c4.8,8.6,9.1,2.2,13.6-0.4l0.6,0.5l0.7-0.3
	c2.4,8.8,12.9,9.7,21,1.8c4.2,3.4,8.5,4,12.1-0.6c3.3-4.3,0.4-7.2-2.9-9.7C281.3,199.8,282.7,198.9,284.1,198z M249.7,280
	c15.7,0.2,28.9-12.7,29.2-28.4c0.3-15.2-13.1-28.8-28.6-29c-15.7-0.2-28.8,12.6-28.8,28.4C221.4,267.1,233.8,279.9,249.7,280z"/>
<path class="st81" d="M210.4,122.7c2.6,4.2,6.1,8,4.9,13.6c-4.5-1.5-6-9-12.4-6.7c-4.4,1.6-3.5,5.8-3.7,9.3
	c-5.2,8.6-15.6,9.3-23.8,1.6c0.9-4.1,1.3-8.1-3.1-10.5c-2.5-1.3-5.3-1.4-7.1,0.5c-2.9,2.9-2.4,6.6-0.7,10.1
	c-4.7,5.9-10.8,5.8-17.3,4.1c-0.2-1.3-0.4-2.6-0.6-3.8c4.3-0.3,10.5,1.7,10.8-5.1c0.3-6.6-5.2-6.3-10.1-5.7
	c-7.1-7.6-7.2-16.5-0.3-24.9c4.7,0.6,10.5,1.6,10.5-5.2c0-6.2-5.3-6.6-10.3-5.4c-0.1-1-0.2-2-0.3-3c0.6-1.1,1.2-2.3,1.8-3.4
	c8,0.4,10.7-3.4,8.7-10.9c7.4-7.2,16.3-7.3,24.9-0.4c-0.2,3.8-2.7,8.1,2.3,10.6c2.5,1.2,5.1,0.6,7.1-1.3c4-3.9,1.2-7.2-1.2-10.5
	c6.7-2.6,13.4-5.3,20.8-2.7c-0.4,1.4-0.9,2.9-1.3,4.3c-4.6-0.7-10.2-2.5-10.2,5c0,7.8,5.9,5.2,10.3,5c7.4,7.7,7.2,19.1-0.1,25.3
	c-5.8-1.2-10.9-0.8-10.3,6.8C200.5,128.2,206.8,121.8,210.4,122.7z M203.2,106.1c4-0.3,8.2-0.8,8.7-5.2c0.5-4.2-2.7-6.8-6.8-6.9
	c-3.9-0.2-5.9,2.6-5.7,6.4C199.7,102.8,198.5,106.7,203.2,106.1z M151.6,111.6c-4.2,0.5-6.3,3.3-6.1,6.7c0.2,3.9,3.4,5.6,7.1,5.2
	c3.2-0.4,5.7-2.3,5.4-5.8C157.6,114,155.2,111.9,151.6,111.6z M193.7,118.4c-0.1-4-2.4-6.3-6-6.6c-3.9-0.4-6,2-6,6
	c0,3.4,1.6,5.6,5.1,5.8C190.4,123.8,193,122.2,193.7,118.4z M175.4,82.3c-0.3-3.2-2.2-5.5-5.4-5.7c-3.9-0.3-5.9,2.2-5.8,6.1
	c0,3.5,2.1,5.3,5.5,5C172.9,87.5,175,85.7,175.4,82.3z M175.8,100.3c-0.2-3.7-2.4-6.2-5.9-6.5c-3.8-0.3-6,2.2-6.1,5.9
	c0,3.1,1.4,5.6,5,5.8C172.6,105.8,175,104.1,175.8,100.3z M193.3,99.4c-1-3.3-3.2-5.5-7-5c-3.7,0.4-4.5,3.1-4.2,6.3
	c0.3,3.6,2.5,5.2,5.9,4.6C191,104.9,193.2,103.1,193.3,99.4z M175.4,118.2c-0.1-2.8-1.4-5.2-4.6-6c-3.2-0.8-5.9,0.3-6.5,3.8
	c-0.6,3.5,0.1,6.7,4.5,7.1C172.1,123.5,174.4,122,175.4,118.2z M182.1,133.8c-0.1,5.7,2.2,7.3,5.4,7.2c3.1-0.1,5.8-1.7,5.7-5.2
	c-0.1-3.6-2.5-6.1-6.2-5.9C183.6,130,182.1,132.5,182.1,133.8z"/>
<path class="st76" d="M177.8,66.4c-16-0.2-28.6-13.3-28.2-29.3c0.4-16,13.3-28.6,29.3-28.5c15.6,0,28.8,13.3,28.8,29
	C207.7,54,194.6,66.6,177.8,66.4z"/>
<path class="st76" d="M6.8,180.8c-0.2-16.7,12.4-29.5,28.9-29.5c16,0,28.8,12.4,29,28.3c0.3,16.3-12.6,29.6-28.9,29.7
	C20.1,209.3,7,196.5,6.8,180.8z"/>
<path class="st80" d="M246.3,21.3c-0.9,9.5-7,13.6-15.7,12.9c-7.6-0.6-12.8-5.5-13-13.7c-0.2-7.4,3.5-13,10.8-14.5
	c9-1.9,15.7,1.5,17.9,11.3C246.2,18.6,246.3,20,246.3,21.3z"/>
<path class="st0" d="M111.2,14.8c4.1-8,10.4-11.5,19-8.3c6.5,2.4,9.8,7.6,9.2,14.7c-0.6,6.6-4.4,10.8-10.6,12.6
	c-8,2.3-13.5-1.3-17.4-8C111.3,22.1,111.3,18.4,111.2,14.8z"/>
<path class="st77" d="M246.3,21.3c0-1.3-0.1-2.7-0.1-4c0.9-0.5,2.1-0.9,2.6-1.7c2.5-4.2-2.1-11.1,2.6-13.1
	c5.8-2.6,12.9-1.3,19.5-0.4c0,1.2,0,2.4-0.1,3.7c-3.2,0.8-6.7,0.9-9.5,2.4c-7.1,3.6-9.2,12.1-5,18.9c4,6.7,12.8,8.7,19.3,4.3
	c5.2-3.4,6.3-8.8,6.6-14.4c1.2-0.7,2.5-1.5,3.7-2.2c0.2,2.9,0.4,5.8,0.5,8.7c0.4,8.5,1.5,17.5-12.1,15c-2.6-0.5-5,1.5-3.1,4.9
	c-2.4,0-4.7,0-7.1,0c-1.8-10.4-9.2-3.3-13.9-4.5c0,0-1-0.3-1-0.3l-0.2-1C248.7,32.1,252.1,26,246.3,21.3z"/>
<path class="st82" d="M31.3,275.3c-3.7,6.3-9.1,9.4-16.5,7.9c-6-1.2-9.6-5-10.9-10.9c-1.6-7.5,1.6-12.7,7.9-16.4
	C30.3,255.2,32.2,257.1,31.3,275.3z"/>
<path class="st0" d="M9.5,105.1c-10-16.1-9-19.3,8.8-29.2c1.6-0.9,0.5-2.5-0.1-3.7c0.7,0.3,1.5,0.5,2.2,0.8c0.7,0,1.3-0.1,1.8-0.5
	c-1.4,1.2-4.4,2-0.7,4.2c3.3,2.1,6.4,4.4,9.6,6.7C33.7,100.2,28.1,105.7,9.5,105.1z"/>
<path class="st0" d="M263.8,43.4c2.4,0,4.7,0,7.1,0c9.1,1.3,12.5,6.9,10.9,15.5c-1.4,7.7-7.1,11.2-14.4,11
	c-7.9-0.2-13.5-4.7-13.9-12.9C253.2,50.2,254.5,43.4,263.8,43.4z"/>
<path class="st82" d="M40.1,226.8c9.5-10.4,16.7-10.4,26.9,0.1c1.6,8.5,0.8,16.3-8.6,19.8c-6.4,2.4-12.2,0.5-16.4-5.1
	C38.6,237,40.1,231.8,40.1,226.8z"/>
<path class="st82" d="M66.7,134c-10.2,9.4-14.1,9.6-25.1,1.6c-2.6-7.6-3.6-15,4.1-20.5c5.4-3.9,11-3.4,16.2,0.3
	C68.5,120.1,68.3,126.9,66.7,134z"/>
<path class="st78" d="M36.4,136.3c0.3,6.2-1.8,8.8-8.8,8.9c-28.5,0.4-28.2,0.7-27.9-27.7c0.1-7.6,3.2-9.4,9.5-9.5
	c8.9,0.5,17.8,1.5,26.7-0.5c0,0-0.3,0.2-0.3,0.2c0,5.1-0.1,10.2-0.1,15.3c-1.3,0-2.6,0-3.8,0c-3.9-7.5-9.1-12.8-18.4-9.5
	c-6.2,2.2-9.3,7-9.2,13.6c0.1,6.8,3.9,11.1,10,13c8.1,2.6,13.1-2,16.9-8.5c1.5-1.3,3.1-2.7,4.6-4C35.9,130.5,36.1,133.4,36.4,136.3z
	"/>
<path class="st78" d="M11.3,251.6c-8.9,1.5-13-1.7-11.5-11.1c0.5-3.2,0.2-6.6,0.1-9.9c-0.1-15.1-0.1-15.1,15.8-15.3
	c5.1-0.1,10.3,0.1,15.4,0.2c3.1,0,4.9,1.3,4.3,4.7c-2.2,0.1-4.4,0.2-6.6,0.3c-3.6-0.3-7.3-0.8-10.9-0.7
	c-10.3,0.2-16.8,9.8-12.9,19.2c1.9,4.7,5.6,7.6,10.7,8.4c7.8,1.2,12.2-3.5,15.8-9.4c1.3-0.7,2.6-1.4,3.9-2.1
	c0.1,5.1,0.3,10.3,0.4,15.4c0,0,0.2-0.1,0.2-0.1C27.8,251.3,19.6,251.5,11.3,251.6z"/>
<path class="st81" d="M181.7,282.4c-1.4,1.6-2.9,3.3-4.3,4.9c-0.9-1.8-1.8-3.6-2.8-5.4c0.6-2.1,1.3-4.2,0.1-6.3
	c-0.1-2.3,0.6-4.7-1.2-6.6c4.4-6,3.3-12-0.2-17.9c3.3-5.8,3.2-11.5,0-17.3c1.6-4.6,3.2-9.2,4.7-13.8c0,0,0.5,0,0.5,0
	c1.3,0.2,2.6,0.3,3.9,0.5c-1.8,7,0.4,11,8.2,10.5c-4.2,6.3-13.3,11.1-6.4,20.9c-4.7,5.8-1.1,11.6,0.1,17.4
	C181.3,273.2,181.5,277.8,181.7,282.4z"/>
<path class="st78" d="M104.8,2.1c5.1,3.2,2,8.2,2.7,12.3c-1.2,4-1,7.9,0.1,11.9c0,2.8,0,5.6,0,8.4c-1.7,0.4-2.5,1.5-2.7,3.1
	c-4.5,0.2-9.1-1.3-13.6,0.7C84,38.2,76.8,38,69.5,37.8c-0.8-0.3-1.7-0.7-2.5-1c-0.1-0.7-0.1-1.5-0.1-2.2c5.7-4.5-1.8-10.4,1.5-15.1
	c1.6,0,3.3,0.1,4.9,0.1c4.3,13,16.2,18.4,24.9,11c7.7-6.5,5.5-14.3,1.8-22C101.6,6.4,103.2,4.3,104.8,2.1z"/>
<path class="st87" d="M35.9,251.3c-0.1-5.1-0.3-10.3-0.4-15.4c0.3-3,0.6-6.1,0.9-9.1c1.2,0,2.4,0,3.6,0c0,5-1.5,10.2,1.9,14.7
	c4.2,5.6,10,7.5,16.4,5.1c9.4-3.5,10.2-11.2,8.6-19.8c1.4,0,2.7-0.1,4.1-0.1c2.3,24.6,2.3,24.6-21.8,24.7
	C44.8,251.5,40.3,251.3,35.9,251.3z"/>
<path class="st87" d="M35.6,123c0-5.1,0.1-10.2,0.1-15.3c7,2.8,14,2,21.1,0.6c16.6,1.3,16.6,1.3,14.2,25.9c-1.4-0.1-2.9-0.1-4.3-0.2
	c1.6-7.1,1.8-13.9-4.9-18.6c-5.2-3.7-10.8-4.3-16.2-0.3c-7.6,5.6-6.7,12.9-4.1,20.5c-1.7,0.2-3.4,0.5-5.1,0.7
	c-0.3-2.9-0.5-5.8-0.8-8.7C35.6,126.1,35.6,124.5,35.6,123z"/>
<path class="st81" d="M198.1,287.6c-1.8-1.4-3.6-2.8-5.4-4.2c3.9-5.3,0.1-9.7-1.7-14.4c4.1-5.8,3.5-11.6,0.1-17.5
	c4.8-5.3,1.5-12.4,4.2-18.2c0.6,0,1.2,0,1.9,0c5.8,6.8,0.3,15.1,2.9,22.3c-1.4,5,1,9.5,2.2,14.2C197.4,275,201.6,282.2,198.1,287.6z
	"/>
<path class="st80" d="M94,213.4c-5.8,3.6-11.5,7.9-18.4,2.1c0-4.2-4.8-8-1.1-12.6c4.7-3.4,9.4-0.4,14.1,0c0.1,0.7,0.3,1.4,0.8,2
	C87.5,209.6,91.1,211.3,94,213.4z"/>
<path class="st83" d="M36,107.5c-8.9,1.9-17.8,0.9-26.7,0.5c0.1-0.9,0.1-1.9,0.2-2.8c18.7,0.6,24.2-5,21.6-21.7
	c1.3-0.1,2.7-0.1,4-0.2C35.4,91.3,35.7,99.4,36,107.5z"/>
<path class="st79" d="M86.9,149.6c6.6,0,4.7,5.7,6.3,9.1c-2.8,2.9,0.9,4.7,1.1,7.1c-6.7,4.9,1.4,10.2-0.3,15.2
	c-1.6-0.2-3.2-0.3-4.8-0.5c0,0,0,0,0,0c0-4.3,0.1-8.6-0.1-12.8c-0.3-5.5-2.7-6.1-6.7-2.6c-3.1-0.6-5.4,1.2-7.9,2.3
	c-2.4-5.7-5.1-11.5-2.9-17.9c0.5-0.5,1.1-1,1.6-1.5c0.5,0.5,0.7,1.1,0.5,1.8c-0.5,5.5,1.3,10.3,7.3,9.9
	C86.3,159.4,87.2,154.3,86.9,149.6z"/>
<path class="st79" d="M88.6,202.9c-4.7-0.4-9.4-3.4-14.1,0c-3.1-7.4-7-14.7-1.2-22.5c0.8,1,1.6,2,2.5,3c-3.2,5.2-2.9,9.7,3.3,11.9
	c3.5,1.3,5.9-1.5,7.4-4.6c2.1-4.5-3.8-5.5-4-9c-0.5-1-0.1-1.4,0.9-1.3c1.9,0,3.8,0,5.7,0c0,0,0,0,0,0
	C88.9,187.9,88.8,195.4,88.6,202.9z"/>
<path class="st80" d="M111.2,61.2c-1.2,0.1-2.4,0.2-3.6,0.3c-0.2-7.5-0.4-14.9-0.6-22.4c0.7-0.7,1.4-1.4,2-2.1
	c7.5,0.2,14.9,0.5,22.4,0.7c-0.1,1.4-0.2,2.8-0.3,4.1C115.5,40.7,110.8,45.3,111.2,61.2z"/>
<path class="st86" d="M198.1,287.6c3.5-5.5-0.7-12.6,4-17.8c2.2-0.3,4.4-0.6,6.5-0.8c0,0-0.1-0.2-0.1-0.2c3.6,6,5,12,0.1,18.1
	C205.3,289.8,201.7,289.3,198.1,287.6z"/>
<path class="st78" d="M142.1,282c-2.4-2.2-2.7-4.4,0-6.6c2.9,0.4,4.4-1.4,5.7-3.6c3.7-2.3,6.9-0.9,10,1.4c0.7,1.5,1.4,3,2.1,4.5
	c0.2,0.7,0.3,1.4,0.5,2.1c-1.2,2.9-3.9,4.2-6.2,5.9c-2.4-0.6-4.8-1.2-7.2-1.7C146.1,281.3,144.3,281.3,142.1,282z"/>
<path class="st77" d="M0.4,54.7c0.7-6-3.4-12.6,2.3-17.9c2.4,0.5,4.6,0.5,6.2-1.8c0.8-0.1,1.7-0.3,2.5-0.4c1.3,3.8,4.2,2.7,6.9,2.2
	c0,5.9-0.1,11.9-0.1,17.8l0.1-0.1c-2.8-0.1-5.5-0.2-8.3-0.3c3.9-3.3,8.9-6.3,3.7-12.2c-2.9-3.2-6.7-3.7-9.3,0
	c-4,5.6-1.6,9.4,4.4,11.5C6,53.9,3.2,54.3,0.4,54.7z"/>
<path class="st85" d="M11.3,251.6c8.2-0.2,16.5-0.3,24.7-0.5c-0.2,8.2-0.4,16.4-0.7,24.5c-1.4-0.1-2.8-0.3-4.1-0.4
	c0.9-18.2-0.9-20.1-19.5-19.4C11.6,254.4,11.5,253,11.3,251.6z"/>
<path class="st77" d="M4.4,20.2C-4.8,17.5,0.6,10,0.2,5c-0.5-5.7,5.1-3.1,8.2-3.2c3.3,0,7.2-1.9,9.9,1.9c0,5.2,0,10.4,0,15.5
	C13.7,20.1,8.9,17.9,4.4,20.2z M15.9,11.6c-0.6-4-2.6-6.9-6.7-7.4c-4-0.4-5.9,2.4-6.4,5.9c-0.6,3.7,1.1,6.4,5,7
	C12,17.8,14.6,15.5,15.9,11.6z"/>
<path class="st78" d="M15,68.7c-4,4.2-8.5,4-12.4,0.3c-3.3-3-3.7-6.8,0.1-10.1C13,56,15.5,57.9,15,68.7z"/>
<path class="st79" d="M280,160.5c12.9,6.8,4.3,16.2,2.9,24.7c-3.4-0.3-6-3.5-9.7-2.3c-0.7-2.6-2.8-2.2-4.7-2.3
	c0.1-4.5,0.1-9,0.2-13.4l1,0.2l1.1,0c-0.5,4.6-0.3,9.1,5.1,10.5c3.1,0.8,5.8-1.5,6.9-4.2c2.2-5.2-2.6-6.8-5.4-9.2
	C278.2,163,279.1,161.7,280,160.5z"/>
<path class="st80" d="M75.8,183.4c-0.8-1-1.6-2-2.5-3c4.3-4-3-9,1.1-13c2.5-1.1,4.9-3,7.9-2.3c8.3,4.6,2.1,10.2,1,15.4
	c-1.1-0.1-1.5,0.3-0.9,1.3C80,181.5,77.8,182,75.8,183.4z"/>
<path class="st80" d="M191,269c1.8,4.7,5.6,9.1,1.7,14.4c-3.9,2.3-7.6,3-11-1c-0.2-4.6-0.4-9.2,2.7-13.1
	C186.6,269.2,188.8,269.1,191,269z"/>
<path class="st77" d="M35.6,3.5c6.1-2.8,12.2-3.1,18.3,0.1c0,5.2-0.1,10.4-0.1,15.7c-6,0-11.9,0-17.9,0C35.8,14,35.7,8.8,35.6,3.5z
	 M45,4.1c-4,0-6.3,2.4-6.9,5.8c-0.8,4.4,1.9,6.9,6.1,7.3c3.8,0.4,6.5-1.9,7-5.5C51.8,7.5,48.8,5.3,45,4.1z"/>
<path class="st78" d="M157.4,77.3c2,7.5-0.7,11.3-8.7,10.9c-2.7-2.1-4.9-4.5-4.2-8.3c0,0-0.3-0.2-0.3-0.2
	C147.9,74.9,152,72.7,157.4,77.3z"/>
<path class="st85" d="M53.7,19.3c0-5.2,0.1-10.4,0.1-15.7c1.6,0.2,3.2,0.5,4.8,0.7c-2,3.8-5.3,7.7-0.4,11.5c2.5,2,5.5,1.9,8.1,0
	c5.2-3.8,1.8-7.7-0.1-11.4c1.7-0.2,3.4-0.5,5-0.7c0,3.2,0,6.5,0,9.6c3.3,1.2,4.2-2.9,6.9-2.5c0.9,4.3-3.8,5.5-4.9,8.7
	c-1.6,0-3.3-0.1-4.9-0.1c0,0-0.4-0.2-0.4-0.2c-4.8,0-9.6,0-14.4-0.1L53.7,19.3z"/>
<path class="st0" d="M248.7,37.7l0.2,1c0,0,1,0.3,1,0.3c0,4.4,0,8.8,0,13.2c-1.2,0.1-2.4,0.1-3.6,0.2c-1.8-5.5-5.8-9-11-11.2
	c0-1.2,0.1-2.4,0.1-3.6C239.9,37.6,244.3,37.6,248.7,37.7z"/>
<path class="st80" d="M280,160.5c-0.9,1.3-1.8,2.5-2.7,3.8c-1,0-2.1-0.1-3.1-0.1c-6.3-12.8-5.5-15.4,5.2-16.7
	c1.3,0.8,2.5,1.7,3.8,2.5C285.8,154.6,281.2,157,280,160.5z"/>
<path class="st80" d="M11.4,34.6c-0.8,0.1-1.7,0.3-2.5,0.4c-2.1-0.8-4.2-1.6-6.2-2.4c-1.6-4.2-0.1-7.7,2.4-11
	c4.4,0.1,8.7,0.7,10.4,5.6C16.9,31,14.5,33,11.4,34.6z"/>
<path class="st78" d="M21,4.3c3.3-0.5,6.6-1.1,9.9,0.2c1.5,3.5,4.9,6.8,1,10.7c-2.3,2.3-5,3-7.9,1.6c-4.1-2-4-5.6-3.2-9.3
	C20.9,6.5,20.9,5.4,21,4.3z"/>
<path class="st78" d="M273.1,182.8c3.7-1.2,6.4,2.1,9.7,2.3c1.6,2.6,1.2,5.3,0.5,8c-3.4,1.6-6.4,4.1-10.5,2.9
	c-0.7-0.5-1.4-0.9-2.1-1.4C270.8,190.6,269.3,186.1,273.1,182.8z"/>
<path class="st80" d="M66.3,4.4c2,3.8,5.3,7.6,0.1,11.4c-2.6,2-5.6,2-8.1,0c-4.9-3.9-1.7-7.7,0.4-11.5C61.2,4.4,63.8,4.4,66.3,4.4z"
	/>
<path class="st0" d="M285.7,14.7c-1.2,0.7-2.5,1.5-3.7,2.2c-1.7-5.8-5.7-9.3-11.3-11.2c0-1.2,0-2.4,0.1-3.7
	C286,1.5,286,1.5,285.7,14.7z"/>
<path class="st0" d="M214.8,54.5c-0.1-1.1-0.3-2.2-0.4-3.3c-0.7-14.1-0.7-14.1,14-13.6c0.1,1.2,0.1,2.4,0.2,3.7
	c-6.2,2.3-9.5,7.1-11.1,13.3C216.6,54.5,215.7,54.5,214.8,54.5z"/>
<path class="st80" d="M190.6,75.7c2.4,3.3,5.2,6.6,1.2,10.5c-2,1.9-4.6,2.6-7.1,1.3c-5.1-2.5-2.5-6.8-2.3-10.6
	C184.8,74.9,187.5,74.2,190.6,75.7z"/>
<path class="st86" d="M154.1,285.7c2.3-1.7,5-3,6.2-5.9c5.1-1.9,8.5,8,14.3,2.1c0.9,1.8,1.8,3.6,2.8,5.4
	C169.3,290.9,161.7,288.1,154.1,285.7z"/>
<path class="st80" d="M78.3,10.8c-2.7-0.4-3.6,3.7-6.9,2.5c0-3.1,0-6.4,0-9.6c4-3.7,8.8-1.5,13.2-1.8c0,1.3,0.1,2.7,0.1,4
	C82.6,7.6,80.4,9.2,78.3,10.8z"/>
<path class="st85" d="M21,4.3c-0.1,1.1-0.1,2.2-0.3,3.2c-0.7,3.8-0.8,7.3,3.2,9.3c2.9,1.4,5.7,0.7,7.9-1.6c3.9-3.9,0.5-7.3-1-10.7
	c1.6-0.3,3.1-0.6,4.7-1c0.1,5.3,0.2,10.5,0.3,15.8c0,0,0.2-0.2,0.2-0.2c-6,0-11.9,0-17.9,0l0.1,0.1c0-5.2,0-10.4,0-15.5
	C19.2,3.9,20.1,4.1,21,4.3z"/>
<path class="st88" d="M15,68.7C15.5,57.9,13,56,2.7,59c-0.8-1.4-1.6-2.8-2.3-4.3c2.8-0.4,5.6-0.8,8.4-1.2c0.6-0.1,1,0.1,1.2,0.7
	c2.8,0.1,5.5,0.2,8.3,0.3c0.8,6.1-2.2,12.7,2.1,18.5c-0.7-0.3-1.5-0.5-2.2-0.8C17.1,71,16.1,69.9,15,68.7z"/>
<path class="st85" d="M11.4,34.6c3.1-1.5,5.5-3.6,4.1-7.5c-1.7-4.9-6-5.5-10.4-5.6c-0.7-0.2-0.9-0.7-0.6-1.4
	c4.5-2.4,9.3-0.1,13.9-0.9c0,0-0.1-0.1-0.1-0.1c0,5.9,0,11.9,0,17.8l0.1-0.1C15.6,37.3,12.7,38.4,11.4,34.6z"/>
<path class="st77" d="M36.4,226.7c-0.3,3-0.6,6.1-0.9,9.1c-1.3,0.7-2.6,1.4-3.9,2.1c0.7-6.1-1.9-11.6-2.7-17.5
	c2.2-0.1,4.4-0.2,6.6-0.3C35.8,222.3,36.1,224.5,36.4,226.7z"/>
<path class="st77" d="M84.7,6c0-1.3-0.1-2.7-0.1-4c6.7,0,13.5,0.1,20.2,0.1c-1.6,2.2-3.2,4.3-4.8,6.5C95.3,5.4,89.8,6.6,84.7,6z"/>
<path class="st85" d="M272.8,196.1c4.1,1.2,7.2-1.3,10.5-2.9c0.2,1.6,0.4,3.2,0.7,4.8c-1.4,0.9-2.7,1.9-4.1,2.8
	C276.8,200.4,272.9,201.2,272.8,196.1z"/>
<path class="st88" d="M107.6,26.3c-1.1-4-1.3-7.9-0.1-11.9c1.2,0.1,2.5,0.3,3.7,0.4c0.1,3.6,0.1,7.3,0.2,10.9
	C110.1,25.9,108.9,26.1,107.6,26.3z"/>
<path class="st77" d="M228.6,41.3c-0.1-1.2-0.1-2.4-0.2-3.7c2.3-1.1,4.6-0.8,7-0.1c0,1.2-0.1,2.4-0.1,3.6
	C233.1,41.2,230.8,41.3,228.6,41.3z"/>
<path class="st77" d="M246.3,52.4c1.2-0.1,2.4-0.1,3.6-0.2c1.2,2.3,1.1,4.6,0.2,6.9c-1.3,0-2.5-0.1-3.8-0.1
	C246.4,56.8,246.3,54.6,246.3,52.4z"/>
<path class="st77" d="M214.8,54.5c0.9,0,1.8,0,2.7,0.1c0.1,1.4,0.2,2.9,0.2,4.3c-1.1,0.1-2.1,0.1-3.2,0.2
	C213.1,57.5,213.1,55.9,214.8,54.5z"/>
<path class="st85" d="M2.6,32.6c2.1,0.8,4.2,1.6,6.2,2.4c-1.5,2.4-3.8,2.3-6.2,1.8C2.7,35.4,2.7,34,2.6,32.6z"/>
<path class="st81" d="M283.3,150c-1.3-0.8-2.5-1.7-3.8-2.5c0-1.1,0-2.1,0-3.2c1.3,0.1,2.7,0.3,4,0.4
	C283.4,146.5,283.3,148.2,283.3,150z"/>
<path class="st88" d="M109,37.1c-0.7,0.7-1.4,1.4-2,2.1c-0.7-0.4-1.5-0.9-2.2-1.3c0.2-1.6,1.1-2.7,2.7-3.1
	C108,35.5,108.5,36.3,109,37.1z"/>
<path class="st85" d="M142.1,282c2.2-0.8,4-0.7,4.9,1.9c-1.6,0.8-3.3,1.6-4.9,2.4C142.1,284.9,142.1,283.5,142.1,282z"/>
<path class="st80" d="M73.2,147.9c-0.5,0.5-1.1,1-1.6,1.5c-0.3-0.7-0.3-1.4,0.2-2.1C72.3,147.5,72.7,147.7,73.2,147.9z"/>
<path class="st84" d="M178.6,220c0,0-0.5,0-0.5,0c-5.5-1.8-11-4.5-15.9,1.2c-2-11-10-4.3-15.5-5.3c-2.6-0.4-3.5-2.3-3.7-4.6
	c3.6-6.7,0.3-12.2-3.2-17.7c2.3-3.7,1.8-7.1-1-10.3c7.6-7.4,7.9-14.9,0.9-25.2c2.4-3.5,2.1-6.9-0.7-10.1c0.6-1.1,1.3-2.2,1.9-3.3
	c2.1,0,4.2,0,6.3,0c6.5,1.7,12.6,1.9,17.3-4.1c3.7,3.2,7.3,2.7,10.9-0.1c8.3,7.7,18.6,7,23.8-1.6c3.7,8.3,10.9,0.1,15.7,3.3
	c-0.2,2.2-0.4,4.4-0.6,6.6c-1.3,2.5-1,5-0.3,7.5c-1.8,4.7,2.4,6.3,4.6,9c-3.7,4.3-2.8,8.5,0.4,12.6c-3,0.4-5.1,1.7-5.4,5
	c-0.1,1.3-0.2,2.6-0.3,3.9c-0.1,2.3-0.1,4.6-0.2,6.8c-0.1,4.3,3.7,4.7,6.3,6.3c-5.1,3.6-6.5,7.6-1.4,12.3c-0.8,1.2-1.7,2.5-2.5,3.7
	c-0.4,0.5-0.8,1-1,1.5c-1.4,0.5-2.9,1-4.3,1.4c-3.7-2-7.3-2.4-10.3,1.2C192.2,213.1,183.3,213.1,178.6,220z M207.6,180.1
	c-0.3-16.5-13.5-29.1-30-28.8c-15.8,0.4-28.4,13.6-28.2,29.4c0.2,15.5,13.8,28.6,29.4,28.3C194.7,208.9,207.9,195.5,207.6,180.1z"/>
<path class="st94" d="M106,137.3c-15.5-0.6-28-13.4-27.7-28.5c0.3-16.2,14.3-29.5,30-28.6c16,0.9,28,13.9,27.5,29.8
	C135.2,125.9,122.1,137.9,106,137.3z"/>
<path class="st81" d="M140.8,144.7c-0.6,1.1-1.3,2.2-1.9,3.3c-3.9-1-7.7-1.8-10.5,2.5c-1.7,2.6-1,4.6,0.6,6.8
	c3.3,4.4,7,1.9,10.6,0.7c7,10.3,6.8,17.9-0.9,25.2c-4-1-7.9-1.7-10.6,2.9c-1.6,2.7-0.8,4.7,1,6.9c3.4,4.4,7,2.4,10.7,0.5
	c3.4,5.5,6.8,11,3.2,17.7c-1.1-0.1-2.1-0.2-3.2-0.3c0.6-4.7,0.4-9.7-5.5-10.1c-5.6-0.4-6.8,4.5-7.5,9.1c-0.1,1-0.2,2.1-0.3,3.1
	c-8.2-0.7-2.9-6.7-3.8-10.2c-0.8-3.1,3.8-6.8-0.8-9.8c0.9-5.7-0.3-9.9-7.2-10.3c-3.8-0.2-3.6-2.5-2.7-5.1c5.2,0.5,9.7-0.4,10.2-6.6
	c0.3-3.2-2.3-5.8-5.3-5.9c-6.1-0.2-8,3.7-7.3,9.3c-1.8-0.3-3.7-0.7-5.5-1c1.5-8.6-3.4-9.1-9.8-7.7c-0.2-2.4-4-4.2-1.1-7.1
	c7.6,1.7,12.4,0.1,10.4-9.1c0.7-1.3,1.4-2.7,2-4c2.6,0.6,3.6,2.4,3.5,5c0.4,4.7,1.8,8.8,7.5,8.3c5.9-0.6,6.1-5,5-9.6
	C126.8,142.4,133.5,142.4,140.8,144.7z M140,171.1c-0.6-3.7-2.8-6.1-6.5-5.8c-3.8,0.2-6,3.1-5.7,6.7c0.3,3,2.7,5.5,5.9,5.4
	C137.3,177.2,139.8,175.1,140,171.1z"/>
<path class="st77" d="M20.4,73c-4.3-5.8-1.3-12.3-2.1-18.5c0,0-0.1,0.1-0.1,0.1c2.6,0.7,5.1,1,6.5-2.1c1.6,0,3.1-0.1,4.7-0.1
	c3.5,4.4,5.9,3.5,6.4-1.7c0.5-4.6,0.1-9.2,0.1-13.9c2.6,0.5,5.4,1.5,6.7-2.1c1.5,0,2.9,0,4.4-0.1c1.3,3.6,4.2,2.5,6.8,2.3l-0.1-0.1
	c0,5.9,0,11.8-0.1,17.7c0,0,0.1-0.1,0.1-0.1c-2.3,0-4.9,0.9-6.4-1.9c5.3-3.2,5.9-7.2,1.3-11.3c-3.3-3-6.8-2.4-9.1,1.5
	c-3.3,5.6-0.8,8.8,4.8,10.4c-0.9,1.3-1.8,2.5-2.7,3.8l0,0c-7-1.8-5.8,3.6-5.8,7.1c0.1,3.6-2.1,9.7,5.8,8.2c6-0.2,7.4-4.5,8.3-9.3
	c0.5,0.1,1.1,0.3,1.6,0.6c0,1.5,0,2.9,0.1,4.4c0.6,1.5,1.3,2.9,1.9,4.4c0.1,1.5,0.2,2.9,0.3,4.4c-9,2.4-15.5,7.1-13.3,17.5
	c1.9,9.1,8.8,11.5,17.3,10.7c-0.3,1.2-0.6,2.4-1,3.5c-7.1,1.4-14.1,2.2-21.1-0.6c0,0,0.3-0.2,0.3-0.2c-0.3-8.1-0.6-16.2-0.9-24.3
	c0.4-4.4,1.7-9.4-5.4-9.7c-0.1-1.1-0.1-2.1-0.2-3.2c4.6-3,5.8-6.4,1.7-10.7c-2.6-2.7-5.5-3.8-8.5-0.5c-3.6,4-3.7,7.8,1.2,11
	c0.8,1.8,0.1,2.5-1.7,2.4C21.6,72.9,21,73,20.4,73z"/>
<path class="st78" d="M85.4,74c-4,0.7-7.9,1.3-11.8-0.5c4.3-6.1,2.5-12.6,1-19c1.9-8.8,7.1-13.8,16.5-13.9c7.4,2.7,13.2,7,12.5,15.7
	c-0.7,9.1-6.6,13.3-15.5,13.6C85,70,84.3,71.3,85.4,74z"/>
<path class="st83" d="M111.2,61.2c-0.5-15.9,4.3-20.5,19.9-19.3c9.7,9.2,10.9,17.4,3.4,24.1C127.4,72.3,119.4,70.6,111.2,61.2z"/>
<path class="st83" d="M57.7,104.8c-8.5,0.9-15.4-1.5-17.3-10.7C38.2,83.7,44.7,79,53.7,76.6c7.1,1.7,12.9,5.1,14,13.1
	C68.7,97.4,63.8,101.6,57.7,104.8z"/>
<path class="st87" d="M85.4,74c-1.1-2.6-0.4-4,2.7-4.1c8.9-0.3,14.8-4.5,15.5-13.6c0.7-8.7-5.1-13-12.5-15.7c0-0.7,0-1.4,0.2-2.1
	c4.4-2,9.1-0.4,13.6-0.7c0.7,0.4,1.5,0.9,2.2,1.3c0.2,7.5,0.4,14.9,0.6,22.4c1.6,10.1-3.2,13.2-12.6,12C91.9,73.1,88.6,73.8,85.4,74
	z"/>
<path class="st83" d="M68.1,68.6c-2.2,2.6-5.3,2.7-8.3,2.9c-1.3-1.2-2.5-2.5-3.8-3.7c-0.2-5,0.8-10.2,6.9-9.6
	C68.7,58.6,69.8,63.4,68.1,68.6z"/>
<path class="st79" d="M68.1,68.6c1.7-5.2,0.6-10-5.2-10.5c-6.1-0.6-7.1,4.6-6.9,9.6c-1.5,0-3,0.1-4.6,0.1c0-1.5,0-2.9-0.1-4.4
	c3.5-2.3,1.9-5.9,2.2-9c0,0-0.1,0.1-0.1,0.1c2.5,0.4,5,0.9,6.6-2c1.7,0.1,3.5,0.2,5.2,0.3c1.8,0.7,3.5,1.5,5.3,2.2
	c2,5,0.6,10.1,0.5,15.1C70.1,69.7,69.1,69.1,68.1,68.6z"/>
<path class="st86" d="M86.9,149.6c0.4,4.8-0.5,9.8-5.9,10.2c-6,0.4-7.8-4.4-7.3-9.9C78,145.6,82.4,145.5,86.9,149.6z"/>
<path class="st83" d="M147.2,130c4.8-0.6,10.3-0.9,10.1,5.7c-0.3,6.8-6.4,4.9-10.8,5.1C142.9,137,144.5,133.5,147.2,130z"/>
<path class="st86" d="M121.6,149.1c1.1,4.6,0.9,9-5,9.6c-5.7,0.6-7.1-3.5-7.5-8.3C112.9,146.6,116.9,144.8,121.6,149.1z"/>
<path class="st86" d="M147.1,94.6c5-1.2,10.3-0.8,10.3,5.4c0,6.7-5.8,5.7-10.5,5.2C143.7,101.6,144.3,98.1,147.1,94.6z"/>
<path class="st87" d="M71.1,70.2c0.1-5.1,1.6-10.2-0.5-15.1c1.3-0.2,2.6-0.4,3.9-0.6c1.6,6.4,3.3,12.9-1,19
	C72.8,72.4,71.9,71.3,71.1,70.2z"/>
<path class="st88" d="M144.5,79.8c-0.6,3.8,1.5,6.2,4.2,8.3c-0.6,1.1-1.2,2.3-1.8,3.4C138.3,89.2,142.7,84.3,144.5,79.8z"/>
<path class="st80" d="M51.5,67.9c1.5,0,3-0.1,4.6-0.1c1.3,1.2,2.5,2.5,3.8,3.7c-2.1,0.3-4.3,0.5-6.4,0.8
	C52.7,70.8,52.1,69.3,51.5,67.9z"/>
<path class="st80" d="M105.6,145.5c-0.7,1.3-1.4,2.7-2,4c-1.3-0.4-2.8-1-2.3-2.6C102,144.9,104,145.5,105.6,145.5z"/>
<path class="st80" d="M94.4,146.8c0.3,0.1,0.5,0.2,0.8,0.3c-0.1,0.3-0.2,0.6-0.3,0.9c-0.1,0.1-0.5-0.2-0.8-0.2
	C94.2,147.3,94.3,147,94.4,146.8z"/>
<path class="st94" d="M135.9,252.1c-0.3,15.7-13.6,28.3-29.5,27.9c-15.7-0.4-28.5-13.7-28.1-29.4c0.3-15.6,13.8-28.3,29.6-27.9
	C123.7,223.1,136.1,236.2,135.9,252.1z"/>
<path class="st83" d="M67.9,269.8c-0.9,7.9-5.4,13-14,13.5c-8.3,0.4-14.7-6.2-14.2-14.6c0.6-8.8,5.8-13.2,14.3-13.4
	C61.7,255,68,261.6,67.9,269.8z"/>
<path class="st79" d="M146.6,215.9c5.4,1,13.5-5.7,15.5,5.3c0.8,4.1,1.5,8.2,2.3,12.3c0,6,0,11.9,0,17.9c-0.4,6.2,0.1,12.3,2.3,18.2
	c-1.5,0.6-3,1.2-4.4,1.7c-5.2-5.1-4.9-11.4-3.4-17.6c0.7-2.9,2.2-5.3-1.2-7.2c-0.1-2.6-0.2-5.2-0.2-7.8c5.1-3.1,2.2-6.4,0.3-9.7
	c1.8-8.7-2.2-11.6-10.4-10.4C147,217.7,146.8,216.8,146.6,215.9z"/>
<path class="st87" d="M157.6,246.5c3.4,1.9,1.9,4.3,1.2,7.2c-1.5,6.2-1.8,12.5,3.4,17.6c0,0.7,0,1.3-0.1,2c-1.5,0-3,0-4.4,0
	c-3.1-2.3-6.3-3.7-10-1.4c-1.6-0.3-3.1-0.6-4.7-0.9c0.6-1.4,1.2-2.8,1.9-4.2c5.3-2.9-0.1-6.8,1-10.1c0.8-3.8-5.7-5.4-3-9.8
	c0.8-0.3,1.5-0.5,2.3-0.8c1.2,1.1,2.3,2.1,3.5,3.2c0.3,1.8,0.7,3.7,3,3.9c3,0.2,3.5-1.9,3.7-4.2
	C156.2,248.1,156.9,247.3,157.6,246.5z"/>
<path class="st78" d="M121.9,193.1c4.7,3,0,6.7,0.8,9.8c0.9,3.4-4.4,9.5,3.8,10.2c-6.6,6.8-13.9,6.9-19.6,0.3
	c7.8-1.8-0.4-7.5,2.6-10.5c1.3-0.9,2.5-1.9,3.8-2.8c3-0.3,7.6,1.4,6.1-4.7C120.3,194.6,121.1,193.9,121.9,193.1z"/>
<path class="st86" d="M147.2,218.6c8.2-1.2,12.2,1.7,10.4,10.4c-3.3,0.5-4.3,2.9-4.6,5.7c-1.4,0.2-2.7,0.4-4.1,0.6
	c-0.9-0.6-1.7-1.3-2.6-1.9C144.6,228.3,143.4,223.3,147.2,218.6z"/>
<path class="st86" d="M94,213.4c-2.9-2.1-6.6-3.8-4.7-8.5c4.4-3.2,9.2-4.9,14.7-4.5c0.3,4.3,0.6,8.6-2,12.5
	C99.4,213,96.7,213.2,94,213.4z"/>
<path class="st86" d="M126.8,210c0.6-4.6,1.9-9.5,7.5-9.1c5.8,0.4,6.1,5.4,5.5,10.1C135.1,215.8,130.9,214,126.8,210z"/>
<path class="st81" d="M102.1,212.9c2.7-3.8,2.3-8.2,2-12.5c1.8,0.8,3.6,1.7,5.4,2.5c-3,3,5.2,8.7-2.6,10.5
	C105.3,213.2,103.7,213.1,102.1,212.9z"/>
<path class="st88" d="M146.3,233.4c0.9,0.6,1.7,1.3,2.6,1.9c-1.7,3.4-5.8,6-3.6,10.8c-0.8,0.3-1.5,0.5-2.3,0.8
	C143.9,242.4,138.1,236.2,146.3,233.4z"/>
<path class="st85" d="M146,256.7c-1.1,3.3,4.3,7.2-1,10.1C146,263.4,138.2,259.3,146,256.7z"/>
<path class="st85" d="M143.1,270.9c1.5,0.3,3.1,0.6,4.7,0.9c-1.2,2.3-2.7,4-5.7,3.6C142.5,273.9,142.8,272.4,143.1,270.9z"/>
<path class="st94" d="M250.7,137.4c-16.3,0.3-29-12-29.2-28c-0.2-16.2,12.3-29.1,28.3-29.1c15.8,0,29.1,13.1,29.1,28.7
	C278.8,124.1,265.9,137.1,250.7,137.4z"/>
<path class="st83" d="M217.8,58.9c-0.1-1.4-0.2-2.9-0.2-4.3c1.6-6.2,4.8-11,11.1-13.3c2.2,0,4.5-0.1,6.7-0.1
	c5.3,2.1,9.2,5.6,11,11.2c0,2.2,0,4.4,0.1,6.6C237.1,73.5,226.8,73.4,217.8,58.9z"/>
<path class="st88" d="M213.6,182.9c0.3-3.2,2.4-4.6,5.4-5c4.2,1.2,7.7,0,10.1-3.6c2.7-4.1-0.4-6.6-2.9-9.1c3-3,6-6,9-8.9
	c1.9,2,3.7,4,5.6,6l-0.1,0.1c4.2-4.3,12.8-7.6,3.4-15c0-1-0.1-2.1-0.1-3.1c5.7-1.3,6.5,3.5,8.4,6.8c0.3,2.3,0.6,4.6,0.9,6.8
	c-2,1-2.6,2.8-2.5,4.9c-2.7-0.2-5.5-0.8-7.1,2.4c-2.6-0.1-5.3-0.2-7.9-0.3c-4.2,2.2-2.3,6-2.3,9.2c-0.2,2.1-0.4,4.1-0.6,6.2
	c-2.6,0.2-5.5-0.6-7,2.7c-2.8-0.1-5.7-0.2-8.5-0.4C216.2,182.8,214.9,182.9,213.6,182.9z"/>
<path class="st79" d="M250.8,162.8c-0.1-2.1,0.4-3.9,2.5-4.9c3.6,3.8,7.3,2,10.4-0.5c3.7-2.9,1.9-6.4,0-9.6
	c4.8-3.3,9.5-7.2,15.8-3.6c0,1.1,0,2.1,0,3.2c-10.7,1.3-11.5,3.9-5.2,16.7c-0.8,0.3-1.5,0.6-2.3,0.9c-1.2,0-2.3,0-3.5-0.1
	c-2.4-2.9-4.3-2.1-5.9,0.8c-1.9-0.4-3.7-0.8-5.6-1.2c-1.6-2.3-4-2-6.3-1.9L250.8,162.8z"/>
<path class="st79" d="M244,144.3c0,1,0.1,2.1,0.1,3.1c-6.8-0.9-9.2,2.7-8.9,8.9c-3,3-6,6-9,8.9c-2.5,0-5.1,0.1-7.6,0.1
	c-2.2-2.6-6.4-4.2-4.6-9c1.1-0.1,2.3-0.1,3.4-0.2c2.5,3,5.2,5.1,9.4,2.4c4.7-3.1,3.2-6.8,1.2-10.5
	C232.6,144.2,237.5,141.1,244,144.3z"/>
<path class="st78" d="M214.9,142.3c-4.8-3.3-12,5-15.7-3.3c0.2-3.5-0.7-7.7,3.7-9.3c6.4-2.4,7.9,5.1,12.4,6.7
	C215.2,138.3,215,140.3,214.9,142.3z"/>
<path class="st87" d="M263.6,147.9c2,3.2,3.7,6.7,0,9.6c-3.1,2.4-6.8,4.3-10.4,0.5c-0.3-2.3-0.6-4.6-0.9-6.8
	C254.8,145.4,259,145.9,263.6,147.9z"/>
<path class="st86" d="M227.9,148.1c2,3.8,3.5,7.4-1.2,10.5c-4.1,2.7-6.8,0.6-9.4-2.4c0.1-2.2,0.1-4.5,0.2-6.7
	C220.6,145.8,224.1,146,227.9,148.1z"/>
<path class="st86" d="M210.4,122.7c-3.7-0.9-10,5.4-10.7-3.4c-0.6-7.6,4.5-8.1,10.3-6.8C213,115.8,213.6,119.2,210.4,122.7z"/>
<path class="st83" d="M210.1,87.2c-4.4,0.2-10.3,2.8-10.3-5c0-7.5,5.6-5.7,10.2-5C212.8,80.5,213,83.8,210.1,87.2z"/>
<path class="st81" d="M217.6,149.5c-0.1,2.2-0.1,4.5-0.2,6.7c-1.1,0.1-2.3,0.1-3.4,0.2c-0.7-2.5-1-5.1,0.3-7.5
	C215.3,149.1,216.5,149.3,217.6,149.5z"/>
<path class="st94" d="M249.7,280c-15.9-0.2-28.3-12.9-28.2-29c0.1-15.8,13.1-28.6,28.8-28.4c15.5,0.2,28.9,13.8,28.6,29
	C278.5,267.3,265.3,280.2,249.7,280z"/>
<path class="st86" d="M199.9,255.6c-2.5-7.2,3-15.5-2.8-22.3c-0.3-0.7-0.6-1.4-0.9-2.2c0.3-0.6,0.4-1.3,0.4-2
	c1.1-0.1,2.3-0.1,3.4-0.2c0.7,0.8,1.4,1.7,2,2.5c0.6,6.4,4,3.4,7,2.1c4,6.2,2.6,12.2-0.5,18.2c-0.3,0.5-0.2,0.9,0.3,1.3
	C205.3,252.3,202.2,252.7,199.9,255.6z"/>
<path class="st85" d="M273.1,182.8c-3.9,3.3-2.3,7.8-2.4,11.9c0,5.5,0,11,0,16.5c-8.1,7.9-18.6,7-21-1.8c1,0,2,0,3.1,0
	c2.6,4.4,5.9,6.6,10.3,2.5c4.8-4.5,2.7-8.2-2-11.2c10.2-3.9,6.6-12.8,7.4-20.2l-0.1,0.1C270.4,180.6,272.5,180.2,273.1,182.8z"/>
<path class="st86" d="M270.8,211.1c0-5.5,0-11,0-16.5c0.7,0.5,1.4,0.9,2.1,1.4c0,5.1,3.9,4.4,7.1,4.7c3.4,2.5,6.3,5.4,2.9,9.7
	C279.3,215.2,275,214.6,270.8,211.1z"/>
<path class="st88" d="M215.5,216c0.8-1.2,1.7-2.5,2.5-3.7c4.4,1.8,8.3,1.8,11.2-2.7c2.8-4.4-0.9-6.4-3.2-8.9
	c1.8-4.2,7.3-0.9,9.3-4.7c1.5,0,2.9,0,4.4,0.1c0.1,1.3,0.3,2.5,0.4,3.8c-5.5,1.3-4.3,6-5.1,9.8C231.3,220.1,222.3,214.8,215.5,216z"
	/>
<path class="st83" d="M234.9,209.5c0.8-3.7-0.4-8.5,5.1-9.8c1.4,0.2,2.7,0.4,4.1,0.6c1.5,2.2,3,4.4,4.5,6.5c0,0.7,0,1.5,0,2.2
	C244.1,211.7,239.7,218.1,234.9,209.5z"/>
<path class="st88" d="M208.9,233.5c-2.9,1.3-6.4,4.3-7-2.1c8.6-0.3,13.3-3.1,8.2-12.4c1.4-0.5,2.9-1,4.3-1.4
	C212.9,223,220.7,231.6,208.9,233.5z"/>
<path class="st85" d="M208.7,253c-0.5-0.3-0.6-0.8-0.3-1.3c7.5-1.8,6.3,3.6,6.4,7.8c0.2,4.6,1.3,10-6.4,9.3c0,0,0.1,0.2,0.1,0.2
	C214.7,263.7,213.1,258.3,208.7,253z"/>
<path class="st79" d="M248.5,209.2c0-0.7,0-1.5,0-2.2c1.5-1.5,3-2.9,4.4-4.4c0,2.2-0.1,4.5-0.1,6.7c-1,0-2,0-3.1,0
	c0,0-0.7,0.3-0.7,0.3L248.5,209.2z"/>
<path class="st78" d="M175.4,140.6c-3.6,2.9-7.3,3.4-10.9,0.1c-1.7-3.5-2.2-7.2,0.7-10.1c1.8-1.9,4.7-1.9,7.1-0.5
	C176.7,132.5,176.3,136.5,175.4,140.6z"/>
<path class="st80" d="M203.2,106.1c-4.7,0.6-3.6-3.3-3.7-5.8c-0.3-3.8,1.7-6.6,5.7-6.4c4,0.2,7.2,2.7,6.8,6.9
	C211.4,105.3,207.2,105.8,203.2,106.1z"/>
<path class="st80" d="M151.6,111.6c3.6,0.3,6.1,2.4,6.4,6.1c0.3,3.5-2.1,5.5-5.4,5.8c-3.7,0.4-6.9-1.3-7.1-5.2
	C145.3,114.9,147.4,112.2,151.6,111.6z"/>
<path class="st80" d="M193.7,118.4c-0.7,3.8-3.3,5.4-6.9,5.2c-3.4-0.3-5.1-2.4-5.1-5.8c0-4,2.1-6.4,6-6
	C191.2,112.1,193.6,114.4,193.7,118.4z"/>
<path class="st83" d="M175.4,82.3c-0.4,3.5-2.5,5.2-5.7,5.4c-3.5,0.2-5.5-1.6-5.5-5c-0.1-3.8,1.9-6.4,5.8-6.1
	C173.1,76.8,175.1,79,175.4,82.3z"/>
<path class="st80" d="M175.8,100.3c-0.8,3.8-3.2,5.5-6.9,5.3c-3.6-0.2-5-2.7-5-5.8c0-3.8,2.3-6.3,6.1-5.9
	C173.4,94.2,175.6,96.6,175.8,100.3z"/>
<path class="st83" d="M193.3,99.4c-0.1,3.7-2.2,5.5-5.3,5.9c-3.4,0.5-5.6-1.1-5.9-4.6c-0.3-3.2,0.5-5.9,4.2-6.3
	C190.1,94,192.3,96.1,193.3,99.4z"/>
<path class="st83" d="M175.4,118.2c-1,3.8-3.4,5.2-6.6,4.9c-4.4-0.4-5.1-3.6-4.5-7.1c0.6-3.6,3.3-4.6,6.5-3.8
	C174.1,113,175.4,115.5,175.4,118.2z"/>
<path class="st83" d="M182.1,133.8c0.1-1.3,1.6-3.8,4.9-3.9c3.7-0.2,6.1,2.3,6.2,5.9c0.1,3.4-2.6,5.1-5.7,5.2
	C184.2,141.1,182,139.4,182.1,133.8z"/>
<path class="st83" d="M270.8,5.7c5.6,1.9,9.5,5.5,11.3,11.2c-0.3,5.7-1.4,11-6.6,14.4c-6.5,4.3-15.2,2.3-19.3-4.3
	c-4.1-6.8-2.1-15.3,5-18.9C264.1,6.7,267.6,6.5,270.8,5.7z"/>
<path class="st94" d="M29.7,73.5c7.1,0.3,5.8,5.3,5.4,9.7c-1.3,0.1-2.7,0.1-4,0.2c-3.2-2.2-6.3-4.6-9.6-6.7c-3.6-2.3-0.6-3,0.7-4.2
	c1.8,0,2.5-0.7,1.7-2.4c0,0-0.2-0.1-0.2-0.1C23.1,75.7,26.8,73.9,29.7,73.5z"/>
<path class="st83" d="M30.9,131.6c-3.8,6.5-8.7,11.1-16.9,8.5c-6.1-1.9-9.9-6.2-10-13c-0.1-6.6,3-11.4,9.2-13.6
	c9.3-3.3,14.5,2,18.4,9.5C31.5,125.9,31.2,128.7,30.9,131.6z"/>
<path class="st77" d="M30.9,131.6c0.3-2.9,0.5-5.7,0.8-8.6c1.3,0,2.6,0,3.8,0c0,1.5,0,3.1,0,4.6C34,128.9,32.5,130.3,30.9,131.6z"/>
<path class="st83" d="M28.9,220.4c0.8,5.9,3.4,11.4,2.7,17.5c-3.7,5.9-8,10.6-15.8,9.4c-5.1-0.8-8.8-3.6-10.7-8.4
	c-3.8-9.4,2.6-19,12.9-19.2C21.7,219.7,25.3,220.2,28.9,220.4z"/>
<path class="st80" d="M196.5,229.1c0,0.7-0.1,1.4-0.4,2c-0.3,0.7-0.6,1.5-0.9,2.2c-2.7,5.8,0.6,12.9-4.2,18.2
	c-2.3,0.1-4.5,0.3-6.8,0.4c-6.9-9.7,2.3-14.5,6.4-20.9c0.8-0.7,1.7-1.3,2.5-2C194.3,229.1,195.4,229.1,196.5,229.1z"/>
<path class="st78" d="M164.4,233.5c-0.8-4.1-1.5-8.2-2.3-12.3c4.9-5.7,10.4-3,15.9-1.2c-1.6,4.6-3.1,9.2-4.7,13.8
	C170.3,233.7,167.4,233.6,164.4,233.5z"/>
<path class="st86" d="M164.4,233.5c3,0.1,5.9,0.2,8.9,0.3c3.1,5.8,3.3,11.5,0,17.3c-3,0.1-5.9,0.2-8.9,0.2
	C164.4,245.4,164.4,239.4,164.4,233.5z"/>
<path class="st78" d="M164.4,251.3c3-0.1,5.9-0.2,8.9-0.2c3.5,5.9,4.6,11.9,0.2,17.9c-2.3,0.2-4.5,0.3-6.8,0.5
	C164.5,263.6,163.9,257.6,164.4,251.3z"/>
<path class="st86" d="M184.2,251.9c2.3-0.1,4.5-0.3,6.8-0.4c3.4,5.8,4,11.7-0.1,17.5c-2.2,0.1-4.4,0.2-6.6,0.3
	C183.1,263.5,179.6,257.7,184.2,251.9z"/>
<path class="st86" d="M193.2,229.1c-0.8,0.7-1.7,1.3-2.5,2c-7.8,0.4-10-3.5-8.2-10.5C191.6,217.1,193.6,218.7,193.2,229.1z"/>
<path class="st79" d="M193.2,229.1c0.4-10.4-1.6-12-10.7-8.6c-1.3-0.2-2.6-0.3-3.9-0.5c4.7-7,13.6-6.9,21.3,0.2
	c0,2.9,0.1,5.8,0.1,8.7c-1.1,0.1-2.3,0.1-3.4,0.2C195.4,229.1,194.3,229.1,193.2,229.1z"/>
<path class="st94" d="M174.6,281.9c-5.7,5.9-9.1-4-14.3-2.1c-0.2-0.7-0.3-1.4-0.5-2.1c0.7-0.8,1.5-1.6,2.2-2.4
	c4.2-0.8,8.5-2.3,12.6,0.3C175.9,277.7,175.2,279.8,174.6,281.9z"/>
<path class="st86" d="M174.7,275.6c-4.1-2.6-8.4-1.1-12.6-0.3c0.2-0.7,0.2-1.4,0.1-2.1c0-0.7,0-1.3,0.1-2c1.5-0.6,3-1.2,4.4-1.7
	c2.3-0.2,4.5-0.3,6.8-0.5C175.3,271,174.5,273.4,174.7,275.6z"/>
<path class="st83" d="M84.7,6c5.1,0.6,10.6-0.6,15.3,2.6c3.7,7.7,5.9,15.4-1.8,22c-8.7,7.4-20.6,2-24.9-11c1.2-3.2,5.9-4.3,4.9-8.7
	C80.4,9.2,82.6,7.6,84.7,6z"/>
<path class="st86" d="M74.6,54.5c-1.3,0.2-2.6,0.4-3.9,0.6c-1.8-0.7-3.5-1.5-5.3-2.2c5-2.5,4.8-6.5,3-10.9c0.4-1.4,0.8-2.8,1.2-4.2
	c7.2,0.2,14.5,0.5,21.7,0.7c-0.2,0.7-0.2,1.4-0.2,2.1C81.7,40.7,76.5,45.7,74.6,54.5z"/>
<path class="st86" d="M68,19.2c0,0,0.5,0.2,0.4,0.2c-3.3,4.8,4.2,10.6-1.5,15.1c-0.7,0-1.4,0-2,0.3c-1.6,0-3.2,0.1-4.8,0.1
	c-6.3-7.4-5.3-11.3,3.5-13.1C65.4,21.4,68.3,23.1,68,19.2z"/>
<path class="st88" d="M60.1,34.9c1.6,0,3.2-0.1,4.8-0.1c0,1.4,0.9,1.9,2.2,1.9c0.8,0.3,1.7,0.7,2.5,1c-0.4,1.4-0.8,2.8-1.2,4.2
	c-3.9-2.1-7.8-4.7-11.1,0.8c-2.7,4.4-1.5,7.5,2.9,9.8c-1.5,2.8-4.1,2.3-6.6,2c0-5.9,0-11.8,0.1-17.7C56.1,37.1,58.7,37.9,60.1,34.9z
	"/>
<path class="st77" d="M67,36.7c-1.3-0.1-2.1-0.5-2.2-1.9c0.7-0.2,1.3-0.3,2-0.3C66.9,35.2,67,36,67,36.7z"/>
<path class="st80" d="M208.7,253c4.4,5.4,6,10.7-0.1,16c-2.2,0.3-4.4,0.6-6.5,0.8c-1.2-4.7-3.6-9.1-2.2-14.2
	C202.2,252.7,205.3,252.3,208.7,253z"/>
<path class="st79" d="M195.2,233.3c0.3-0.7,0.6-1.5,0.9-2.2c0.3,0.7,0.6,1.4,0.9,2.2C196.4,233.3,195.8,233.3,195.2,233.3z"/>
<path class="st88" d="M109.5,202.9c-1.8-0.8-3.6-1.7-5.4-2.5c-5.5-0.5-10.3,1.3-14.7,4.5c-0.4-0.6-0.7-1.3-0.8-2
	c0.2-7.5,0.3-15,0.5-22.5c1.6,0.2,3.2,0.3,4.8,0.5c-0.1,0.8-0.3,1.6-0.4,2.4c-2.5,3.5-3.7,6.9,0,10.5c3.9,3.9,7.1,2.2,10.3-0.7
	c3.1,2.3,6.3,4.6,9.4,6.9C112,201,110.8,202,109.5,202.9z"/>
<path class="st86" d="M93.5,183.4c0.1-0.8,0.3-1.6,0.4-2.4c1.8-5-6.3-10.3,0.3-15.2c6.4-1.5,11.3-0.9,9.8,7.7c-2,3-6.8,3.7-7,8.3
	C95.9,182.3,94.7,182.8,93.5,183.4z"/>
<path class="st88" d="M83.4,180.4c1-5.2,7.3-10.8-1-15.4c3.9-3.5,6.4-2.9,6.7,2.6c0.2,4.3,0.1,8.6,0.1,12.8
	C87.2,180.5,85.3,180.4,83.4,180.4z"/>
<path class="st86" d="M75.8,183.4c2-1.5,4.2-2,6.6-1.7c0.2,3.5,6.1,4.5,4,9c-1.4,3.1-3.9,5.9-7.4,4.6
	C72.9,193.2,72.7,188.6,75.8,183.4z"/>
<path class="st85" d="M162.2,273.3c0.1,0.7,0.1,1.4-0.1,2.1c-0.7,0.8-1.5,1.6-2.2,2.4c-0.7-1.5-1.4-3-2.1-4.5
	C159.2,273.3,160.7,273.3,162.2,273.3z"/>
<path class="st85" d="M35.9,36.8c0,4.6,0.3,9.3-0.1,13.9c-0.5,5.2-2.9,6.1-6.4,1.7c5.2-2.7,5.7-6.3,1.9-10.4
	c-2.4-2.6-5.5-4.2-8.4-0.8c-3.7,4.3-4.3,8.5,1.8,11.4c-1.4,3.1-3.8,2.9-6.5,2.1c0-5.9,0.1-11.9,0.1-17.8c0,0-0.1,0.1-0.1,0.1
	c6,0,11.9,0,17.9,0L35.9,36.8z"/>
<path class="st86" d="M10,54.2c-0.2-0.6-0.7-0.8-1.2-0.7c-6-2.1-8.4-5.9-4.4-11.5c2.6-3.7,6.4-3.2,9.3,0
	C18.9,47.9,13.9,50.9,10,54.2z"/>
<path class="st86" d="M15.9,11.6c-1.3,3.9-3.9,6.2-8.1,5.5c-3.9-0.6-5.6-3.3-5-7c0.5-3.5,2.4-6.3,6.4-5.9
	C13.3,4.7,15.3,7.6,15.9,11.6z"/>
<path class="st86" d="M272,165.1c0.8-0.3,1.5-0.6,2.3-0.9c1,0,2.1,0.1,3.1,0.1c2.9,2.5,7.7,4.1,5.4,9.2c-1.2,2.7-3.8,5-6.9,4.2
	c-5.4-1.3-5.7-5.9-5.1-10.5C271.1,166.5,271.6,165.8,272,165.1z"/>
<path class="st88" d="M262.6,165.8c1.6-2.9,3.5-3.7,5.9-0.8c-0.1,0.7,0,1.4,0.1,2c-0.1,4.5-0.1,9-0.2,13.4c0,0,0.1-0.1,0.1-0.1
	c-2.5,0.2-5.4-0.6-6.9,2.4c-1.5-0.2-3-0.3-4.6-0.5c-1.6-2.3-4-1.8-6.3-1.8c0.1-2.4-1.1-5.3,2.2-6.7c2.5,3.3,5,6.3,9.6,2.6
	C267.2,172.8,266.5,169.4,262.6,165.8z"/>
<path class="st80" d="M268.6,167.1c-0.1-0.7-0.2-1.4-0.1-2c1.2,0,2.3,0,3.5,0.1c-0.4,0.7-0.8,1.4-1.3,2.1c0,0-1.1,0-1.1,0
	L268.6,167.1z"/>
<path class="st86" d="M45,4.1c3.7,1.2,6.8,3.4,6.2,7.7c-0.5,3.6-3.2,5.8-7,5.5c-4.2-0.4-6.9-2.9-6.1-7.3C38.7,6.5,41,4.1,45,4.1z"/>
<path class="st85" d="M42.6,34.7c-1.3,3.6-4.1,2.6-6.7,2.1c0,0,0.2,0.2,0.2,0.2c0-5.9,0-11.9,0-17.8c0,0-0.2,0.2-0.2,0.2
	c6,0,11.9,0,17.9,0c0,0-0.2-0.2-0.2-0.2c-0.4,3.1,1.4,6.7-2.2,9c-2-5.2-5.2-8.9-10.6-4.6C35.9,27.5,36.8,31.8,42.6,34.7z"/>
<path class="st77" d="M51.4,28.2c3.6-2.3,1.8-5.9,2.2-9c4.8,0,9.6,0,14.4,0.1c0.3,3.9-2.5,2.2-4.3,2.6c-8.8,1.8-9.8,5.7-3.5,13.1
	c-1.4,3.1-4,2.2-6.5,2c0,0,0.1,0.1,0.1,0.1c-0.4-2.4,0.8-5.4-2.4-6.9C51.2,29.4,51.2,28.8,51.4,28.2z"/>
<path class="st77" d="M36,19.1c0,5.9,0,11.9,0,17.8c-6,0-11.9,0-17.9,0c0-5.9,0-11.9,0-17.8C24.1,19.1,30.1,19.1,36,19.1z
	 M33.6,29.1c-0.4-4.5-3-7-7.1-7c-3.7,0-5.9,2.6-6.1,6.3c-0.2,3.9,1.8,6.4,5.6,6.6C30.1,35.3,33,33.3,33.6,29.1z"/>
<path class="st76" d="M207.6,180.1c0.2,15.5-13,28.8-28.7,29c-15.7,0.2-29.2-12.9-29.4-28.3c-0.2-15.9,12.4-29.1,28.2-29.4
	C194.1,150.9,207.3,163.6,207.6,180.1z"/>
<path class="st79" d="M235.3,195.9c-1.9,3.8-7.5,0.6-9.3,4.7c-2.2-0.2-4.4-0.4-6.6-0.7c-2.5-1.7-6.4-2.1-6.3-6.3
	c1.9-1.3,3.6-1.9,5.6,0c3.2,3,6.5,2.6,9.4-0.7c3.8-4.3,0.9-7.1-2.2-9.9c1.4-3.3,4.4-2.5,7-2.7C236.4,185.2,234.8,190.7,235.3,195.9z
	"/>
<path class="st80" d="M219.4,200c2.2,0.2,4.4,0.4,6.6,0.7c2.3,2.5,6,4.5,3.2,8.9c-2.9,4.5-6.8,4.5-11.2,2.7
	C212.8,207.6,214.3,203.6,219.4,200z"/>
<path class="st86" d="M226,183c3.1,2.8,6,5.6,2.2,9.9c-2.9,3.3-6.2,3.7-9.4,0.7c-2.1-1.9-3.8-1.3-5.6,0c0.1-2.3,0.1-4.6,0.2-6.8
	c4.7,1.9,4.1-1.4,4.2-4.2C220.3,182.8,223.1,182.9,226,183z"/>
<path class="st78" d="M139.8,193.6c-3.6,1.9-7.2,4-10.7-0.5c-1.7-2.2-2.6-4.2-1-6.9c2.7-4.6,6.5-3.8,10.6-2.9
	C141.7,186.5,142.1,189.9,139.8,193.6z"/>
<path class="st80" d="M218.5,165.4c2.5,0,5.1-0.1,7.6-0.1c2.5,2.6,5.6,5,2.9,9.1c-2.4,3.6-5.9,4.8-10.1,3.6
	C215.7,173.9,214.8,169.7,218.5,165.4z"/>
<path class="st80" d="M139.6,158.1c-3.6,1.1-7.3,3.7-10.6-0.7c-1.6-2.2-2.3-4.2-0.6-6.8c2.8-4.3,6.6-3.5,10.5-2.5
	C141.7,151.2,142,154.5,139.6,158.1z"/>
<path class="st80" d="M199.9,228.9c0-2.9-0.1-5.8-0.1-8.7c3.1-3.6,6.6-3.2,10.3-1.2c5.1,9.3,0.4,12.1-8.2,12.4
	C201.3,230.6,200.6,229.7,199.9,228.9z"/>
<path class="st79" d="M217.4,182.7c-0.1,2.7,0.5,6.1-4.2,4.2c0.1-1.3,0.2-2.6,0.3-3.9C214.9,182.9,216.2,182.8,217.4,182.7z"/>
<path class="st86" d="M121.9,193.1c-0.8,0.8-1.6,1.5-2.5,2.3c-6.2,0.8-9.4-2.3-10.2-8.2c0-4.2,0.1-8.4,0.1-12.7
	c0.9,1,1.8,2.1,2.7,3.1c-0.9,2.7-1.1,4.9,2.7,5.1C121.6,183.2,122.8,187.4,121.9,193.1z"/>
<path class="st80" d="M112,177.7c-0.9-1-1.8-2.1-2.7-3.1c0,0,0.3-0.1,0.3-0.1c-0.7-5.6,1.2-9.5,7.3-9.3c3,0.1,5.5,2.6,5.3,5.9
	C121.7,177.2,117.2,178.2,112,177.7z"/>
<path class="st86" d="M140,171.1c-0.2,4-2.7,6.1-6.3,6.2c-3.3,0.1-5.6-2.4-5.9-5.4c-0.4-3.6,1.8-6.5,5.7-6.7
	C137.2,165,139.4,167.4,140,171.1z"/>
<path class="st79" d="M109.6,174.5c0,0-0.3,0.1-0.3,0.1c0,4.2-0.1,8.4-0.1,12.7c-1.5-1.5-3-3-4.5-4.6c-2.5-0.3-5-0.6-7.5-0.9
	c0.1-4.6,4.9-5.3,7-8.3C105.9,173.8,107.8,174.1,109.6,174.5z"/>
<path class="st80" d="M51.4,28.2c-0.2,0.6-0.2,1.3,0,1.9c-0.5,2.4-2.4,3.6-4.4,4.6c-1.5,0-2.9,0-4.4,0.1c-5.8-2.9-6.7-7.2-1.8-11.1
	C46.2,19.3,49.4,22.9,51.4,28.2z"/>
<path class="st80" d="M24.7,52.5c-6.1-2.9-5.5-7.1-1.8-11.4c2.9-3.4,6-1.8,8.4,0.8c3.8,4.2,3.2,7.8-1.9,10.4
	C27.8,52.4,26.2,52.5,24.7,52.5z"/>
<path class="st86" d="M44.3,53.1c-5.6-1.7-8.1-4.9-4.8-10.4c2.3-3.9,5.7-4.5,9.1-1.5c4.6,4.1,4,8.1-1.3,11.3
	C46.2,52.7,45.2,52.9,44.3,53.1z"/>
<path class="st86" d="M23.7,70c0,0,0.2,0.1,0.2,0.1c-4.8-3.2-4.7-6.9-1.1-11c2.9-3.3,5.8-2.2,8.5,0.5c4.2,4.3,2.9,7.8-1.7,10.7
	C27.6,70.2,25.6,70.1,23.7,70z"/>
<path class="st80" d="M41.6,56.9C41.6,56.9,41.5,56.9,41.6,56.9c3.9,0.4,7.6,1.2,8.3,6c-0.9,4.8-2.2,9.1-8.3,9.3
	C37.9,67.1,37.5,62,41.6,56.9z"/>
<path class="st81" d="M49.8,62.9c-0.7-4.9-4.4-5.6-8.3-6c0.9-1.3,1.8-2.5,2.7-3.8c1-0.2,2-0.4,3-0.5c1.5,2.8,4.1,1.9,6.4,1.9
	c-0.3,3.1,1.2,6.7-2.2,9C50.9,63.2,50.4,63,49.8,62.9z"/>
<path class="st81" d="M41.6,56.9c-4,5.1-3.7,10.2,0,15.3c-7.8,1.4-5.7-4.6-5.8-8.2C35.7,60.4,34.6,55.1,41.6,56.9z"/>
<path class="st85" d="M46.9,34.6c2.1-1,3.9-2.1,4.4-4.6c3.1,1.5,1.9,4.5,2.4,6.9C51.1,37.1,48.2,38.3,46.9,34.6z"/>
<path class="st81" d="M23.7,70c1.9,0.1,3.9,0.2,5.8,0.3c0.1,1.1,0.1,2.1,0.2,3.2C26.8,73.9,23.1,75.7,23.7,70z"/>
<path class="st78" d="M60.1,52.6c-4.3-2.3-5.5-5.4-2.9-9.8c3.4-5.5,7.2-2.9,11.1-0.8c1.7,4.4,1.9,8.3-3,10.9
	C63.6,52.8,61.9,52.7,60.1,52.6z"/>
<path class="st80" d="M145.3,246.1c-2.2-4.7,1.9-7.4,3.6-10.8c1.4-0.2,2.7-0.4,4.1-0.6c1.5,1.3,2.9,2.6,4.4,3.9
	c0.1,2.6,0.2,5.2,0.2,7.8c-0.7,0.8-1.4,1.6-2.1,2.4c-2.3,0.1-4.5,0.2-6.8,0.3C147.6,248.2,146.4,247.1,145.3,246.1z"/>
<path class="st88" d="M157.4,238.6c-1.5-1.3-2.9-2.6-4.4-3.9c0.3-2.9,1.3-5.3,4.6-5.7C159.6,232.2,162.5,235.6,157.4,238.6z"/>
<path class="st88" d="M148.8,249.3c2.3-0.1,4.5-0.2,6.8-0.3c-0.2,2.3-0.7,4.4-3.7,4.2C149.5,252.9,149.1,251.1,148.8,249.3z"/>
<path class="st81" d="M104.7,182.7c1.5,1.5,3,3,4.5,4.6c0.9,5.9,4,8.9,10.2,8.2c1.5,6.2-3.1,4.4-6.1,4.7c-3.1-2.3-6.3-4.6-9.4-6.9
	C104.1,189.7,104.4,186.2,104.7,182.7z"/>
<path class="st78" d="M235.3,195.9c-0.4-5.2,1.1-10.8-2.3-15.6c0.2-2.1,0.4-4.1,0.6-6.2c0.4,0,0.8-0.1,1.3-0.2c1,1.2,2,2.5,3,3.7
	c-0.7,4.9,2.9,4.7,6,5.1c6.4,4.6,5.2,8.9-0.7,12.9l-1,0c-0.9,0.1-1.7,0.2-2.6,0.3C238.2,196,236.7,196,235.3,195.9z"/>
<path class="st78" d="M235.1,156.3c-0.2-6.2,2.1-9.8,8.9-8.9c9.4,7.4,0.8,10.7-3.4,15c0,0,0.1-0.1,0.1-0.1
	C238.9,160.3,237,158.3,235.1,156.3z"/>
<path class="st86" d="M237.8,177.8c-1-1.2-2-2.5-3-3.7c0.4-3,0.7-6,1.1-9.1c2.6,0.1,5.3,0.2,7.9,0.3
	C249.8,174,248.8,176,237.8,177.8z"/>
<path class="st79" d="M237.8,177.8c11-1.8,12-3.8,5.9-12.5c1.5-3.2,4.4-2.6,7.1-2.4c0,0-0.1-0.1-0.1-0.1c-0.1,2.5-0.6,5,2.1,6.5
	c0,1.5,0.1,3.1,0.1,4.6c-3.3,1.4-2.1,4.3-2.2,6.7c0,0,0.1-0.1,0.1-0.1c-2.6,0.1-5.5-0.7-7,2.4C240.7,182.5,237.1,182.7,237.8,177.8z
	"/>
<path class="st79" d="M235.9,165c-0.4,3-0.7,6-1.1,9.1c-0.4,0.1-0.8,0.1-1.3,0.2C233.6,170.9,231.7,167.2,235.9,165z"/>
<path class="st86" d="M240.7,162.3C240.7,162.3,240.7,162.4,240.7,162.3C240.7,162.4,240.7,162.3,240.7,162.3z"/>
<path class="st80" d="M252.9,173.9c0-1.5-0.1-3.1-0.1-4.6c1.4-1.5,2.8-3.1,4.2-4.6c1.9,0.4,3.7,0.8,5.6,1.2c3.9,3.6,4.6,7,0,10.7
	C257.9,180.2,255.5,177.2,252.9,173.9z"/>
<path class="st88" d="M257,164.6c-1.4,1.5-2.8,3.1-4.2,4.6c-2.7-1.5-2.3-4.1-2.1-6.5C253,162.6,255.4,162.3,257,164.6z"/>
<path class="st77" d="M261.7,182.8c1.6-3,4.4-2.2,6.9-2.4c-0.7,7.3,2.9,16.3-7.4,20.2c-2.8,0.4-6.1-1.2-8.2,2
	c-1.5,1.5-3,2.9-4.4,4.4c-1.5-2.2-3-4.4-4.5-6.5c0.2-0.6,0.2-1.1,0.1-1.7c12.4-2.4,4.2-12.3,6.7-18.3c0,0-0.1,0.1-0.1,0.1
	c2.3-0.1,4.7-0.6,6.3,1.8c-5.1,3-6.3,7.1-2.5,11.7c2.6,3.1,5.8,2.3,8.6-0.3C268,189.3,265.1,186,261.7,182.8z"/>
<path class="st80" d="M253,202.5c2.1-3.1,5.4-1.6,8.2-2c4.7,3,6.8,6.7,2,11.2c-4.4,4.1-7.7,1.9-10.3-2.5
	C252.9,207,253,204.8,253,202.5z"/>
<path class="st79" d="M244.2,198.7c0.1,0.6,0,1.1-0.1,1.7c-1.4-0.2-2.7-0.4-4.1-0.6c-0.1-1.3-0.3-2.5-0.4-3.8
	c0.9-0.1,1.7-0.2,2.6-0.3c0.1,0.5,0.3,0.9,0.5,1.3C243.2,197.6,243.7,198.2,244.2,198.7z"/>
<path class="st78" d="M104.7,182.7c-0.3,3.5-0.5,7-0.8,10.6c-3.3,2.9-6.5,4.5-10.3,0.7c-3.7-3.7-2.5-7,0-10.5
	c1.2-0.5,2.4-1.1,3.6-1.6C99.7,182.1,102.2,182.4,104.7,182.7z"/>
<path class="st86" d="M261.7,182.8c3.4,3.2,6.3,6.5,1.6,10.9c-2.8,2.7-6.1,3.4-8.6,0.3c-3.9-4.6-2.6-8.7,2.5-11.7
	C258.6,182.5,260.1,182.6,261.7,182.8z"/>
<path class="st86" d="M33.6,29.1c-0.6,4.2-3.5,6.2-7.6,6c-3.8-0.2-5.9-2.7-5.6-6.6c0.2-3.8,2.5-6.4,6.1-6.3
	C30.6,22.1,33.2,24.6,33.6,29.1z"/>
<path class="st88" d="M250.9,180.5c-2.5,6,5.8,15.9-6.7,18.3c-0.5-0.6-1-1.1-1.5-1.7c0.4-0.4,0.6-0.8,0.5-1.4c5.9-4,7-8.2,0.7-12.9
	C245.4,179.8,248.3,180.6,250.9,180.5z"/>
<path class="st77" d="M243.2,195.7c0.1,0.6-0.1,1-0.5,1.4c-0.2-0.5-0.4-0.9-0.5-1.4C242.2,195.7,243.2,195.7,243.2,195.7z"/>
</svg>
