<?xml version="1.0" encoding="utf-8"?>
<!-- Generator: Adobe Illustrator 24.0.2, SVG Export Plug-In . SVG Version: 6.00 Build 0)  -->
<svg version="1.1" id="Capa_1" xmlns="http://www.w3.org/2000/svg" xmlns:xlink="http://www.w3.org/1999/xlink" x="0px" y="0px"
	 viewBox="0 0 288 288" style="enable-background:new 0 0 288 288;" xml:space="preserve">
<style type="text/css">
	.st0{fill:#2D2D2D;}
	.st1{fill:#002530;}
	.st2{fill:#050523;}
	.st3{fill:#707C84;}
	.st4{fill:#E9E4DE;}
	.st5{fill:#EE3133;}
	.st6{fill:#FD99AF;}
	.st7{fill:#C4C2C0;}
	.st8{fill:#F2D8A3;}
	.st9{fill:#EFCB84;}
	.st10{fill:#EF692F;}
	.st11{fill:#4B343F;}
	.st12{fill:#16B198;}
	.st13{fill:#E72D52;}
	.st14{fill:#7B536F;}
	.st15{fill:#8F4CA9;}
	.st16{fill:#E2C29F;}
	.st17{fill:#9F4687;}
	.st18{fill:#A9A0AF;}
	.st19{fill:#CC4743;}
	.st20{fill:#8677A9;}
	.st21{fill:#8E5D8E;}
	.st22{fill:#DF615C;}
	.st23{fill:#9E4742;}
	.st24{fill:#D34861;}
	.st25{fill:#B75B6D;}
	.st26{fill:#DF6482;}
	.st27{fill:#FFFFFF;}
	.st28{fill:#829CA2;}
	.st29{fill:#F2B991;}
	.st30{fill:#E56759;}
	.st31{fill:#F5F3EE;}
	.st32{fill:#DC4B3F;}
	.st33{fill:#1D5A7D;}
	.st34{fill:#459492;}
	.st35{fill:#F0A349;}
	.st36{fill:#E4EFEB;}
	.st37{fill:#E17467;}
	.st38{fill:#B6BFBD;}
	.st39{fill:#F0E2D6;}
	.st40{fill:#396D89;}
	.st41{fill:#201A21;}
	.st42{fill:#48505D;}
	.st43{fill:#0B0707;}
	.st44{fill:#D30034;}
	.st45{fill:#6C919B;}
	.st46{fill:#F68C4A;}
	.st47{fill:#E5CFCD;}
	.st48{fill:#385B4D;}
	.st49{fill:#F14206;}
	.st50{fill:#BAD2D8;}
	.st51{fill:#F70059;}
	.st52{fill:#AA000C;}
	.st53{fill:#D8B5B2;}
	.st54{fill:#E08143;}
	.st55{fill:#F2E9E9;}
	.st56{fill:#F4D085;}
	.st57{fill:#23586A;}
	.st58{fill:#17241F;}
	.st59{fill:#EAE8E1;}
	.st60{fill:#253C4F;}
	.st61{fill:#F7FCFD;}
	.st62{fill:#0E151F;}
	.st63{fill:#8D897D;}
	.st64{fill:#BDB6AA;}
	.st65{fill:#EDE1AF;}
	.st66{fill:#DF786F;}
	.st67{fill:#E8C46F;}
	.st68{fill:#B0CEAD;}
	.st69{fill:#9FC4AF;}
	.st70{fill:#B8C6A0;}
	.st71{fill:#EBEC80;}
	.st72{fill:#DD7AB2;}
	.st73{fill:#D6D2D3;}
	.st74{fill:#69BCC5;}
	.st75{fill:#D0CBC1;}
	.st76{fill:#242424;}
	.st77{fill:#525252;}
	.st78{fill:#3D3D3D;}
	.st79{fill:#6B6B6B;}
	.st80{fill:#303030;}
	.st81{fill:#8A8A8A;}
	.st82{fill:#282828;}
	.st83{fill:#E6E6E6;}
	.st84{fill:#E8E8E8;}
	.st85{fill:#A9A9A9;}
	.st86{fill:#D9D9D9;}
	.st87{fill:#CACACA;}
	.st88{fill:#9E9E9E;}
	.st89{fill:none;}
	.st90{fill:#4A4744;}
	.st91{fill:#F0BA45;}
	.st92{fill:#F1D34E;}
	.st93{fill:none;stroke:#00A591;stroke-miterlimit:10;}
	.st94{fill:#EEEEEE;}
	.st95{fill:#FBFBFB;}
	.st96{fill:#F8F2DD;}
	.st97{fill:#8DB2A6;}
	.st98{fill:#ED8C58;}
	.st99{fill:#F0C153;}
	.st100{fill:#C2B146;}
	.st101{fill:#8E6E51;}
	.st102{fill:#1C1D4C;}
	.st103{fill:#111224;}
	.st104{fill:#26687B;}
	.st105{fill:#F8494A;}
	.st106{fill:#81819B;}
	.st107{fill:#80809B;}
	.st108{fill:#0AC6BB;}
	.st109{fill:#0BC5B9;}
	.st110{fill:#686888;}
	.st111{fill:#0BC5BA;}
	.st112{fill:#FEFEFE;}
	.st113{fill:#F8F5CE;}
	.st114{fill:#EF484B;}
	.st115{fill:#F94A4A;}
	.st116{fill:#F9F6CE;}
	.st117{fill:#DFE0E3;}
	.st118{fill:#04121D;}
	.st119{fill:#6693AB;}
	.st120{fill:#89BCD7;}
	.st121{fill:#FAF509;}
	.st122{fill:#0B2E41;}
	.st123{fill:#427491;}
	.st124{fill:#2A5973;}
	.st125{fill:#184259;}
	.st126{fill:#BCE4F7;}
	.st127{fill:#02111C;}
	.st128{fill:#FCF704;}
	.st129{fill:#F4F115;}
	.st130{fill:#DFE23F;}
	.st131{fill:#BCE6FA;}
	.st132{fill:#031D2B;}
	.st133{fill:#81851A;}
	.st134{fill:#1E1E1E;}
	.st135{fill:#F5142E;}
	.st136{fill:#05ACC0;}
	.st137{fill:#F87240;}
	.st138{fill:#FA723F;}
	.st139{fill:#F67240;}
	.st140{fill:#E37547;}
	.st141{fill:#07ADC0;}
	.st142{fill:#450D0D;}
	.st143{fill:#F57240;}
	.st144{fill:#440D0D;}
	.st145{fill:#470D0D;}
	.st146{fill:#EBECCC;}
	.st147{fill:#E9EACA;}
	.st148{fill:#00ABBF;}
	.st149{fill:#F6FAD9;}
	.st150{fill:#CBC3AC;}
	.st151{fill:#E2615D;}
	.st152{fill:#FAFAF8;}
	.st153{fill:#E8E4DA;}
	.st154{fill:#123057;}
	.st155{fill:#F4D16B;}
	.st156{fill:none;stroke:#F1D34E;stroke-miterlimit:10;}
	.st157{fill:#E3834C;}
	.st158{fill:#E9A779;}
	.st159{fill:#ECB74A;}
	.st160{fill:#00A591;}
</style>
<path class="st80" d="M257.2,217c-7,5.1-13.3,8.7-18.3,13.6c-24.1,23.4-24,23.5-48.2-0.3c-16.3-16-16.3-16-0.2-31.9
	c25-24.8,25-24.8,50.4,1.3C245.3,204.3,249.6,209,257.2,217z M227.3,214.5c-0.8-7.1-4.2-12.3-12-12.4c-7.7-0.1-12,4.4-12,12.2
	c0,6.9,3.7,11.3,10.8,11.6C221.7,226.2,226.3,222.5,227.3,214.5z"/>
<path class="st80" d="M1.5,172c-32.1-1-27.3,4.6-27.6-28c-0.3-29.2-0.1-29.5,29.4-29.1c29.7,0.4,27.7-7.1,27.6,27.7
	C30.8,171.9,30.6,171.9,1.5,172z M14,143.1c-0.4-6.8-4-11.2-11-11.5c-7.8-0.4-12.5,4.2-12.6,11.7c-0.1,6.8,4.2,11.5,11.1,11.8
	C9,155.4,13.6,151.3,14,143.1z"/>
<path class="st80" d="M2.8-26.9C31.1-27,31.1-27,31,1.9c-0.1,28.1-0.1,28.1-27.4,28.1c-29.8,0-29.8,0-29.7-30.6
	C-26.2-26.7-26.2-26.7,2.8-26.9z M14.1,1.2c-1-6.9-4.7-11.9-12.5-11.6c-7,0.3-10.9,4.8-11,11.7c0,7.7,4.4,12.3,12.2,12
	C9.7,13,13.3,8.5,14.1,1.2z"/>
<path class="st80" d="M253.8,71.8c-1.7,2.4-3.2,4.6-4.9,6.7c-29.1,36.2-36.1,36.2-66.8,1.7c-5.9-6.6-5-10.1,0.5-16
	c32.2-34.9,34.4-35,65.6,1.1C250,67.3,251.7,69.4,253.8,71.8z M227.4,72.3c-1.6-6.1-4.1-11.9-12.4-11.9c-7.4,0-10.9,4.7-11.5,11.3
	c-0.6,7.9,3.7,12.2,11.7,12.2C222.5,83.9,226,79.6,227.4,72.3z"/>
<path class="st80" d="M145,114.8c27.6,0.2,27.6,0.2,27.6,27.7c-0.1,29.3-0.1,29.3-29.4,29.3c-27.6,0-27.6,0-27.5-27.9
	C115.9,114.5,115.9,114.5,145,114.8z M156.3,142.8c-1.3-6.7-5-11.3-11.9-11.3c-7.5,0-12.4,4.4-12.2,12.3c0.2,7,4.8,11.2,11.5,11.3
	C151.4,155.2,155.4,150.3,156.3,142.8z"/>
<path class="st80" d="M35.6,216.1c-0.4-5,2.6-6.9,4.7-9.3c31.3-36.2,31.1-36,64.2-1.9c6.9,7.1,7.4,11,0.3,18.3
	c-33.1,34.2-33.4,34.4-64.6-1.8C38.5,219.4,36.7,217.4,35.6,216.1z M73.8,202.1c-7.2,0.1-11.4,3.6-12.1,10.7
	c-0.8,7.9,3,12.5,11.1,12.9c7,0.3,11.5-3.2,12.2-10.3C85.8,207.2,81,203.5,73.8,202.1z"/>
<path class="st80" d="M172.6,3.1c0,26.9,0,26.9-27.1,26.8c-29.8-0.1-29.8-0.1-29.7-29.3c0.1-27.4,0.1-27.4,28.1-27.6
	C172.6-27.1,172.6-27.1,172.6,3.1z M156.4,1.2c-1-8.2-5.8-12.3-13.2-11.8c-6.5,0.4-11.1,4.6-11.1,11.7c0,7.8,4.8,12.2,12.2,12.3
	C152,13.4,155.6,8.2,156.4,1.2z"/>
<path class="st80" d="M74.5,110.3c-5.8-0.6-8.1-4.8-11.2-7.7c-31.3-29.9-30.9-29.5-1.2-59.9c8.5-8.6,13.4-10.2,21.5-0.2
	c8.5,10.5,25.9,17.8,26,29.7c0.1,12.1-17,19.7-26.1,29.8C80.7,105.2,77.2,107.8,74.5,110.3z M73.4,60.3c-8.1,0.6-11.9,5.1-11.7,12.8
	c0.1,7.4,4.9,10.7,11.6,10.8C80.3,84,84.6,79.9,85,73C85.4,65.3,80.9,61.1,73.4,60.3z"/>
<path class="st87" d="M227.3,214.5c-1,8-5.6,11.7-13.2,11.4c-7.1-0.3-10.8-4.6-10.8-11.6c0-7.8,4.2-12.3,12-12.2
	C223.1,202.2,226.5,207.4,227.3,214.5z"/>
<path class="st86" d="M14,143.1c-0.4,8.1-5,12.3-12.6,11.9c-6.9-0.3-11.2-5-11.1-11.8c0.1-7.6,4.8-12.1,12.6-11.7
	C10,131.9,13.6,136.3,14,143.1z"/>
<path class="st86" d="M14.1,1.2C13.3,8.5,9.7,13,2.8,13.2C-5,13.5-9.4,8.9-9.4,1.2c0-6.8,4-11.4,11-11.7C9.4-10.8,13.1-5.7,14.1,1.2
	z"/>
<path class="st80" d="M290.8-26.9C319.1-27,319.1-27,319,1.9c-0.1,28.1-0.1,28.1-27.4,28.1c-29.8,0-29.8,0-29.7-30.6
	C261.8-26.7,261.8-26.7,290.8-26.9z M302.1,1.2c-1-6.9-4.7-11.9-12.5-11.6c-7,0.3-10.9,4.8-11,11.7c0,7.7,4.4,12.3,12.2,12
	C297.7,13,301.3,8.5,302.1,1.2z"/>
<path class="st86" d="M302.1,1.2c-0.8,7.3-4.4,11.8-11.3,12.1c-7.8,0.3-12.2-4.3-12.2-12c0-6.8,4-11.4,11-11.7
	C297.4-10.8,301.1-5.7,302.1,1.2z"/>
<path class="st86" d="M227.4,72.3c-1.4,7.4-4.9,11.7-12.1,11.6c-8-0.1-12.4-4.3-11.7-12.2c0.5-6.5,4.1-11.3,11.5-11.3
	C223.3,60.3,225.8,66.2,227.4,72.3z"/>
<path class="st86" d="M156.3,142.8c-0.9,7.5-4.9,12.4-12.6,12.3c-6.7-0.1-11.4-4.3-11.5-11.3c-0.2-7.8,4.7-12.2,12.2-12.3
	C151.3,131.5,155,136.1,156.3,142.8z"/>
<path class="st86" d="M73.8,202.1c7.2,1.4,12,5.1,11.2,13.2c-0.7,7.1-5.2,10.6-12.2,10.3c-8-0.3-11.8-5-11.1-12.9
	C62.4,205.7,66.6,202.2,73.8,202.1z"/>
<path class="st87" d="M156.4,1.2c-0.8,7-4.4,12.2-12.1,12.2c-7.5,0-12.2-4.5-12.2-12.3c0-7.1,4.6-11.3,11.1-11.7
	C150.6-11.1,155.4-7,156.4,1.2z"/>
<path class="st80" d="M172.6,291.1c0,26.9,0,26.9-27.1,26.8c-29.8-0.1-29.8-0.1-29.7-29.3c0.1-27.4,0.1-27.4,28.1-27.6
	C172.6,260.9,172.6,260.9,172.6,291.1z M156.4,289.2c-1-8.2-5.8-12.3-13.2-11.8c-6.5,0.4-11.1,4.6-11.1,11.7
	c0,7.8,4.8,12.2,12.2,12.3C152,301.4,155.6,296.2,156.4,289.2z"/>
<path class="st87" d="M156.4,289.2c-0.8,7-4.4,12.2-12.1,12.2c-7.5,0-12.2-4.5-12.2-12.3c0-7.1,4.6-11.3,11.1-11.7
	C150.6,276.9,155.4,281,156.4,289.2z"/>
<path class="st86" d="M73.4,60.3c7.5,0.8,12,5,11.6,12.7c-0.4,6.9-4.7,11-11.7,10.9c-6.8-0.1-11.5-3.4-11.6-10.8
	C61.5,65.4,65.3,60.9,73.4,60.3z"/>
<path class="st80" d="M1.5,314c-32.1-1-27.3,4.6-27.6-28c-0.3-29.2-0.1-29.5,29.4-29.1c29.7,0.4,27.7-7.1,27.6,27.7
	C30.8,313.9,30.6,313.9,1.5,314z M14,285.2c-0.4-6.8-4-11.2-11-11.5c-7.8-0.4-12.5,4.2-12.6,11.7c-0.1,6.8,4.2,11.5,11.1,11.8
	C9,297.4,13.6,293.3,14,285.2z"/>
<path class="st86" d="M14,285.2c-0.4,8.1-5,12.3-12.6,11.9c-6.9-0.3-11.2-5-11.1-11.8c0.1-7.6,4.8-12.1,12.6-11.7
	C10,274,13.6,278.3,14,285.2z"/>
<path class="st80" d="M289.5,172c-32.1-1-27.3,4.6-27.6-28c-0.3-29.2-0.1-29.5,29.4-29.1c29.7,0.4,27.7-7.1,27.6,27.7
	C318.8,171.9,318.6,171.9,289.5,172z M302,143.1c-0.4-6.8-4-11.2-11-11.5c-7.8-0.4-12.5,4.2-12.6,11.7c-0.1,6.8,4.2,11.5,11.1,11.8
	C297,155.4,301.6,151.3,302,143.1z"/>
<path class="st86" d="M302,143.1c-0.4,8.1-5,12.3-12.6,11.9c-6.9-0.3-11.2-5-11.1-11.8c0.1-7.6,4.8-12.1,12.6-11.7
	C298,131.9,301.6,136.3,302,143.1z"/>
<path class="st80" d="M289.5,314c-32.1-1-27.3,4.6-27.6-28c-0.3-29.2-0.1-29.5,29.4-29.1c29.7,0.4,27.7-7.1,27.6,27.7
	C318.8,313.9,318.6,313.9,289.5,314z M302,285.2c-0.4-6.8-4-11.2-11-11.5c-7.8-0.4-12.5,4.2-12.6,11.7c-0.1,6.8,4.2,11.5,11.1,11.8
	C297,297.4,301.6,293.3,302,285.2z"/>
<path class="st86" d="M302,285.2c-0.4,8.1-5,12.3-12.6,11.9c-6.9-0.3-11.2-5-11.1-11.8c0.1-7.6,4.8-12.1,12.6-11.7
	C298,274,301.6,278.3,302,285.2z"/>
</svg>
