<?xml version="1.0" encoding="utf-8"?>
<!-- Generator: Adobe Illustrator 24.0.2, SVG Export Plug-In . SVG Version: 6.00 Build 0)  -->
<svg version="1.1" id="Capa_1" xmlns="http://www.w3.org/2000/svg" xmlns:xlink="http://www.w3.org/1999/xlink" x="0px" y="0px"
	 viewBox="0 0 288 288" style="enable-background:new 0 0 288 288;" xml:space="preserve">
<style type="text/css">
	.st0{fill:#2D2D2D;}
	.st1{fill:#002530;}
	.st2{fill:#050523;}
	.st3{fill:#707C84;}
	.st4{fill:#E9E4DE;}
	.st5{fill:#EE3133;}
	.st6{fill:#FD99AF;}
	.st7{fill:#C4C2C0;}
	.st8{fill:#F2D8A3;}
	.st9{fill:#EFCB84;}
	.st10{fill:#EF692F;}
	.st11{fill:#4B343F;}
	.st12{fill:#16B198;}
	.st13{fill:#E72D52;}
	.st14{fill:#7B536F;}
	.st15{fill:#8F4CA9;}
	.st16{fill:#E2C29F;}
	.st17{fill:#9F4687;}
	.st18{fill:#A9A0AF;}
	.st19{fill:#CC4743;}
	.st20{fill:#8677A9;}
	.st21{fill:#8E5D8E;}
	.st22{fill:#DF615C;}
	.st23{fill:#9E4742;}
	.st24{fill:#D34861;}
	.st25{fill:#B75B6D;}
	.st26{fill:#DF6482;}
	.st27{fill:#FFFFFF;}
	.st28{fill:#829CA2;}
	.st29{fill:#F2B991;}
	.st30{fill:#E56759;}
	.st31{fill:#F5F3EE;}
	.st32{fill:#DC4B3F;}
	.st33{fill:#1D5A7D;}
	.st34{fill:#459492;}
	.st35{fill:#F0A349;}
	.st36{fill:#E4EFEB;}
	.st37{fill:#E17467;}
	.st38{fill:#B6BFBD;}
	.st39{fill:#F0E2D6;}
	.st40{fill:#396D89;}
	.st41{fill:#201A21;}
	.st42{fill:#48505D;}
	.st43{fill:#0B0707;}
	.st44{fill:#D30034;}
	.st45{fill:#6C919B;}
	.st46{fill:#F68C4A;}
	.st47{fill:#E5CFCD;}
	.st48{fill:#385B4D;}
	.st49{fill:#F14206;}
	.st50{fill:#BAD2D8;}
	.st51{fill:#F70059;}
	.st52{fill:#AA000C;}
	.st53{fill:#D8B5B2;}
	.st54{fill:#E08143;}
	.st55{fill:#F2E9E9;}
	.st56{fill:#F4D085;}
	.st57{fill:#23586A;}
	.st58{fill:#17241F;}
	.st59{fill:#EAE8E1;}
	.st60{fill:#253C4F;}
	.st61{fill:#F7FCFD;}
	.st62{fill:#0E151F;}
	.st63{fill:#8D897D;}
	.st64{fill:#BDB6AA;}
	.st65{fill:#EDE1AF;}
	.st66{fill:#DF786F;}
	.st67{fill:#E8C46F;}
	.st68{fill:#B0CEAD;}
	.st69{fill:#9FC4AF;}
	.st70{fill:#B8C6A0;}
	.st71{fill:#EBEC80;}
	.st72{fill:#DD7AB2;}
	.st73{fill:#D6D2D3;}
	.st74{fill:#69BCC5;}
	.st75{fill:#D0CBC1;}
	.st76{fill:#242424;}
	.st77{fill:#525252;}
	.st78{fill:#3D3D3D;}
	.st79{fill:#6B6B6B;}
	.st80{fill:#303030;}
	.st81{fill:#8A8A8A;}
	.st82{fill:#282828;}
	.st83{fill:#E6E6E6;}
	.st84{fill:#E8E8E8;}
	.st85{fill:#A9A9A9;}
	.st86{fill:#D9D9D9;}
	.st87{fill:#CACACA;}
	.st88{fill:#9E9E9E;}
	.st89{fill:none;}
	.st90{fill:#4A4744;}
	.st91{fill:#F0BA45;}
	.st92{fill:#F1D34E;}
	.st93{fill:none;stroke:#00A591;stroke-miterlimit:10;}
	.st94{fill:#EEEEEE;}
	.st95{fill:#FBFBFB;}
	.st96{fill:#F8F2DD;}
	.st97{fill:#8DB2A6;}
	.st98{fill:#ED8C58;}
	.st99{fill:#F0C153;}
	.st100{fill:#C2B146;}
	.st101{fill:#8E6E51;}
	.st102{fill:#1C1D4C;}
	.st103{fill:#111224;}
	.st104{fill:#26687B;}
	.st105{fill:#F8494A;}
	.st106{fill:#81819B;}
	.st107{fill:#80809B;}
	.st108{fill:#0AC6BB;}
	.st109{fill:#0BC5B9;}
	.st110{fill:#686888;}
	.st111{fill:#0BC5BA;}
	.st112{fill:#FEFEFE;}
	.st113{fill:#F8F5CE;}
	.st114{fill:#EF484B;}
	.st115{fill:#F94A4A;}
	.st116{fill:#F9F6CE;}
	.st117{fill:#DFE0E3;}
	.st118{fill:#04121D;}
	.st119{fill:#6693AB;}
	.st120{fill:#89BCD7;}
	.st121{fill:#FAF509;}
	.st122{fill:#0B2E41;}
	.st123{fill:#427491;}
	.st124{fill:#2A5973;}
	.st125{fill:#184259;}
	.st126{fill:#BCE4F7;}
	.st127{fill:#02111C;}
	.st128{fill:#FCF704;}
	.st129{fill:#F4F115;}
	.st130{fill:#DFE23F;}
	.st131{fill:#BCE6FA;}
	.st132{fill:#031D2B;}
	.st133{fill:#81851A;}
	.st134{fill:#1E1E1E;}
	.st135{fill:#F5142E;}
	.st136{fill:#05ACC0;}
	.st137{fill:#F87240;}
	.st138{fill:#FA723F;}
	.st139{fill:#F67240;}
	.st140{fill:#E37547;}
	.st141{fill:#07ADC0;}
	.st142{fill:#450D0D;}
	.st143{fill:#F57240;}
	.st144{fill:#440D0D;}
	.st145{fill:#470D0D;}
	.st146{fill:#EBECCC;}
	.st147{fill:#E9EACA;}
	.st148{fill:#00ABBF;}
	.st149{fill:#F6FAD9;}
	.st150{fill:#CBC3AC;}
	.st151{fill:#E2615D;}
	.st152{fill:#FAFAF8;}
	.st153{fill:#E8E4DA;}
	.st154{fill:#123057;}
	.st155{fill:#F4D16B;}
	.st156{fill:none;stroke:#F1D34E;stroke-miterlimit:10;}
	.st157{fill:#E3834C;}
	.st158{fill:#E9A779;}
	.st159{fill:#ECB74A;}
	.st160{fill:#00A591;}
</style>
<path class="st80" d="M123.6,26.7c-8.5,19.7-17.1,39.5-25.6,59.2c-1.9,4.4-4.4,3.7-7.3,0.9C80.9,77,71,67.4,61.3,57.4
	c-5.1-5.2-0.3-6.9,3.6-8.6c18.6-8.1,37.2-16.1,55.8-24.2C121.7,25.3,122.6,26,123.6,26.7z"/>
<path class="st0" d="M316.8,70.9c-9.7,22.7-18,41.7-26.1,60.8c-2.4,5.7-4.8,7-9.6,1.9c-8.9-9.4-18.2-18.3-27.4-27.3
	c-4-3.9-3.9-6.8,1.6-9.2C274.7,88.9,294.1,80.6,316.8,70.9z"/>
<path class="st0" d="M219.3,50.9c-8.4,19.3-16.8,38.6-25.1,57.9c-2.2,5-5.1,4.5-8.4,1.1c-9.1-9.2-18.2-18.4-27.5-27.5
	c-5-4.9-3.4-7.3,2.3-9.8c18.7-7.8,37.3-16,55.9-24C217.5,49.4,218.4,50.2,219.3,50.9z"/>
<path class="st82" d="M166.4,22c-12-13.2-22.1-24.5-32.4-35.7c-4-4.3-3.3-6.7,2.1-9c19.1-8.1,38.1-16.4,60.9-26.3
	C186.4-24.5,177.4-3.6,166.4,22z"/>
<path class="st0" d="M173.1,214.6c-10,23.1-18.3,42.2-26.3,61.3c-2.4,5.7-5.2,5.6-9.1,1.6c-10-10.3-27.7-20.3-28-30.9
	c-0.3-11.9,21.4-12.5,33-18.8C151.1,223.2,160.3,220.1,173.1,214.6z"/>
<path class="st0" d="M149,118.8c-9.9,23-18.4,42.8-26.9,62.5c-2.5,5.9-5.5,3.2-8.3,0.4c-9.2-9.1-18.2-18.4-27.4-27.5
	c-3.8-3.7-4.9-6.5,1.2-9C107,137,126.3,128.6,149,118.8z"/>
<path class="st0" d="M51.6,98.6c-8.4,19.3-16.8,38.7-25,58c-2.2,5.2-5.1,4.6-8.3,1.4C9,148.9-0.1,139.7-9.3,130.6
	c-4.6-4.6-3.9-7.3,2.3-9.9c18.7-7.8,37.3-16.1,55.9-24.1C49.8,97.2,50.7,97.9,51.6,98.6z"/>
<path class="st0" d="M267.1,242.8c-8.3,19.3-16.7,38.7-25,58c-2.3,5.3-5,4.1-8.2,0.9c-9.1-9.1-18.3-18.3-27.6-27.3
	c-5-4.8-3.4-7.6,2.2-9.9c18.7-7.9,37.3-15.9,55.9-23.9C265.4,241.3,266.2,242.1,267.1,242.8z"/>
<path class="st77" d="M249.1,141.1c-9.7,22.4-19.6,44.7-29.1,67.1c-3.1,7.5-6.1,6.3-10.8,1.5c-10.3-10.6-20.8-20.9-31.3-31.3
	c-3.6-3.6-6.8-7.1,0.5-10.2c22.8-9.8,45.6-19.6,68.3-29.5C247.5,139.5,248.3,140.3,249.1,141.1z M238.3,149.3
	c-19,8.2-33.7,14.7-48.6,21c-5.7,2.4-5.5,5.1-1.5,9c6.9,6.8,13.7,13.8,20.6,20.6c3.1,3.1,5.9,4.4,8.3-1.1
	C223.4,183.6,230,168.5,238.3,149.3z"/>
<path class="st77" d="M33.1-2.3C23.1,20.8,13.1,43.9,3,66.9c-2.5,5.7-5.6,2.7-8.4,0c-11.1-11.1-22.2-22.3-33.3-33.4
	c-2.8-2.8-5.8-5.7,0-8.3c23-10.1,46.1-20.1,69.2-30.1C31.4-4,32.2-3.2,33.1-2.3z M22.5,5.8C11.6,10.4,4,13.5-3.5,16.7
	c-32.7,14.1-32.6,14-4.8,38c5.6,4.9,8.1,4.4,10.8-2C8.6,38.2,14.8,23.8,22.5,5.8z"/>
<path class="st80" d="M315.7,203.2c0,7.4,0.9,14.9-0.3,22.1c-1,6.6-4.8,9.9-11.1,3.4c-8.3-8.6-17-17-25.5-25.4
	c-4.7-4.6-5.8-8.2,1.8-10.7c3.9-1.3,7.7-3.2,11.5-4.9C316.2,177.2,316.2,177.2,315.7,203.2z"/>
<path class="st77" d="M296.9-26.4c-9.5,22-19.2,44-28.6,66.1c-2.7,6.4-5.6,7.9-10.9,2.5C246.8,31.2,236,20.5,225.1,9.7
	c-3.9-3.9-4.4-6.9,1.3-9.3c22.8-9.8,45.5-19.7,68.3-29.5C295.4-28.2,296.2-27.3,296.9-26.4z M286.2-18C267.1-10,252-3.6,237,2.7
	c-4.9,2-4.7,4.8-1.4,8.2c7.1,7.2,14.3,14.4,21.4,21.5c2.6,2.6,5.3,4.3,7.4-0.4C271.2,16.7,277.8,1.3,286.2-18z"/>
<path class="st77" d="M83,184.9c-11.4,26.6-21.2,49.1-30.7,71.6c-2.7,6.4-5.7,6.3-10.1,1.8c-10.7-10.9-21.6-21.6-32.4-32.4
	c-4.5-4.5-4.1-7.7,2-10.3C34.1,206,56.5,196.3,83,184.9z M70.4,197.5c-11,4.7-18.6,7.8-26,11.1c-30.8,13.5-30.6,13.4-6,36.8
	c5.8,5.5,9.1,6.9,12.5-1.7C56.6,229.5,62.7,215.6,70.4,197.5z"/>
<path class="st0" d="M5.3,262.6c-7.5,17.3-12.2,31.8-19.9,44.6c-5.5,9.2-16.9,3.9-25.4,3.7c-6.5-0.2-2.8-7.4-3.6-11.4
	c-2.3-11.7,2.4-18.6,14.2-22.2C-18.6,274-8.6,268.6,5.3,262.6z"/>
<path class="st78" d="M99.9,286.9c-7.6,24.3-7.6,24.3-28.7,24.6c-7.3,0.1-14.5,0-22.3-2.6C65,301.9,81.2,295,99.9,286.9z"/>
<path class="st83" d="M238.3,149.3c-8.3,19.1-14.9,34.2-21.3,49.4c-2.3,5.5-5.2,4.2-8.3,1.1c-6.9-6.8-13.7-13.8-20.6-20.6
	c-3.9-3.9-4.2-6.6,1.5-9C204.6,164.1,219.3,157.5,238.3,149.3z"/>
<path class="st83" d="M22.5,5.8c-7.7,18-13.9,32.4-20,46.9c-2.7,6.4-5.2,6.9-10.8,2c-27.8-24.1-28-23.9,4.8-38
	C4,13.5,11.6,10.4,22.5,5.8z"/>
<path class="st83" d="M286.2-18c-8.4,19.3-15,34.7-21.8,50c-2,4.6-4.8,2.9-7.4,0.4c-7.2-7.2-14.3-14.3-21.4-21.5
	c-3.3-3.4-3.5-6.1,1.4-8.2C252-3.6,267.1-10,286.2-18z"/>
<path class="st83" d="M70.4,197.5c-7.6,18.1-13.8,32-19.5,46.2c-3.4,8.6-6.8,7.2-12.5,1.7c-24.6-23.5-24.8-23.3,6-36.8
	C51.8,205.3,59.3,202.2,70.4,197.5z"/>
</svg>
