<?xml version="1.0" encoding="utf-8"?>
<!-- Generator: Adobe Illustrator 24.0.2, SVG Export Plug-In . SVG Version: 6.00 Build 0)  -->
<svg version="1.1" id="Capa_1" xmlns="http://www.w3.org/2000/svg" xmlns:xlink="http://www.w3.org/1999/xlink" x="0px" y="0px"
	 viewBox="0 0 288 288" style="enable-background:new 0 0 288 288;" xml:space="preserve">
<style type="text/css">
	.st0{fill:#2D2D2D;}
	.st1{fill:#002530;}
	.st2{fill:#050523;}
	.st3{fill:#707C84;}
	.st4{fill:#E9E4DE;}
	.st5{fill:#EE3133;}
	.st6{fill:#FD99AF;}
	.st7{fill:#C4C2C0;}
	.st8{fill:#F2D8A3;}
	.st9{fill:#EFCB84;}
	.st10{fill:#EF692F;}
	.st11{fill:#4B343F;}
	.st12{fill:#16B198;}
	.st13{fill:#E72D52;}
	.st14{fill:#7B536F;}
	.st15{fill:#8F4CA9;}
	.st16{fill:#E2C29F;}
	.st17{fill:#9F4687;}
	.st18{fill:#A9A0AF;}
	.st19{fill:#CC4743;}
	.st20{fill:#8677A9;}
	.st21{fill:#8E5D8E;}
	.st22{fill:#DF615C;}
	.st23{fill:#9E4742;}
	.st24{fill:#D34861;}
	.st25{fill:#B75B6D;}
	.st26{fill:#DF6482;}
	.st27{fill:#FFFFFF;}
	.st28{fill:#829CA2;}
	.st29{fill:#F2B991;}
	.st30{fill:#E56759;}
	.st31{fill:#F5F3EE;}
	.st32{fill:#DC4B3F;}
	.st33{fill:#1D5A7D;}
	.st34{fill:#459492;}
	.st35{fill:#F0A349;}
	.st36{fill:#E4EFEB;}
	.st37{fill:#E17467;}
	.st38{fill:#B6BFBD;}
	.st39{fill:#F0E2D6;}
	.st40{fill:#396D89;}
	.st41{fill:#201A21;}
	.st42{fill:#48505D;}
	.st43{fill:#0B0707;}
	.st44{fill:#D30034;}
	.st45{fill:#6C919B;}
	.st46{fill:#F68C4A;}
	.st47{fill:#E5CFCD;}
	.st48{fill:#385B4D;}
	.st49{fill:#F14206;}
	.st50{fill:#BAD2D8;}
	.st51{fill:#F70059;}
	.st52{fill:#AA000C;}
	.st53{fill:#D8B5B2;}
	.st54{fill:#E08143;}
	.st55{fill:#F2E9E9;}
	.st56{fill:#F4D085;}
	.st57{fill:#23586A;}
	.st58{fill:#17241F;}
	.st59{fill:#EAE8E1;}
	.st60{fill:#253C4F;}
	.st61{fill:#F7FCFD;}
	.st62{fill:#0E151F;}
	.st63{fill:#8D897D;}
	.st64{fill:#BDB6AA;}
	.st65{fill:#EDE1AF;}
	.st66{fill:#DF786F;}
	.st67{fill:#E8C46F;}
	.st68{fill:#B0CEAD;}
	.st69{fill:#9FC4AF;}
	.st70{fill:#B8C6A0;}
	.st71{fill:#EBEC80;}
	.st72{fill:#DD7AB2;}
	.st73{fill:#D6D2D3;}
	.st74{fill:#69BCC5;}
	.st75{fill:#D0CBC1;}
	.st76{fill:#242424;}
	.st77{fill:#525252;}
	.st78{fill:#3D3D3D;}
	.st79{fill:#6B6B6B;}
	.st80{fill:#303030;}
	.st81{fill:#8A8A8A;}
	.st82{fill:#282828;}
	.st83{fill:#E6E6E6;}
	.st84{fill:#E8E8E8;}
	.st85{fill:#A9A9A9;}
	.st86{fill:#D9D9D9;}
	.st87{fill:#CACACA;}
	.st88{fill:#9E9E9E;}
	.st89{fill:none;}
	.st90{fill:#4A4744;}
	.st91{fill:#F0BA45;}
	.st92{fill:#F1D34E;}
	.st93{fill:none;stroke:#00A591;stroke-miterlimit:10;}
	.st94{fill:#EEEEEE;}
	.st95{fill:#FBFBFB;}
	.st96{fill:#F8F2DD;}
	.st97{fill:#8DB2A6;}
	.st98{fill:#ED8C58;}
	.st99{fill:#F0C153;}
	.st100{fill:#C2B146;}
	.st101{fill:#8E6E51;}
	.st102{fill:#1C1D4C;}
	.st103{fill:#111224;}
	.st104{fill:#26687B;}
	.st105{fill:#F8494A;}
	.st106{fill:#81819B;}
	.st107{fill:#80809B;}
	.st108{fill:#0AC6BB;}
	.st109{fill:#0BC5B9;}
	.st110{fill:#686888;}
	.st111{fill:#0BC5BA;}
	.st112{fill:#FEFEFE;}
	.st113{fill:#F8F5CE;}
	.st114{fill:#EF484B;}
	.st115{fill:#F94A4A;}
	.st116{fill:#F9F6CE;}
	.st117{fill:#DFE0E3;}
	.st118{fill:#04121D;}
	.st119{fill:#6693AB;}
	.st120{fill:#89BCD7;}
	.st121{fill:#FAF509;}
	.st122{fill:#0B2E41;}
	.st123{fill:#427491;}
	.st124{fill:#2A5973;}
	.st125{fill:#184259;}
	.st126{fill:#BCE4F7;}
	.st127{fill:#02111C;}
	.st128{fill:#FCF704;}
	.st129{fill:#F4F115;}
	.st130{fill:#DFE23F;}
	.st131{fill:#BCE6FA;}
	.st132{fill:#031D2B;}
	.st133{fill:#81851A;}
	.st134{fill:#1E1E1E;}
	.st135{fill:#F5142E;}
	.st136{fill:#05ACC0;}
	.st137{fill:#F87240;}
	.st138{fill:#FA723F;}
	.st139{fill:#F67240;}
	.st140{fill:#E37547;}
	.st141{fill:#07ADC0;}
	.st142{fill:#450D0D;}
	.st143{fill:#F57240;}
	.st144{fill:#440D0D;}
	.st145{fill:#470D0D;}
	.st146{fill:#EBECCC;}
	.st147{fill:#E9EACA;}
	.st148{fill:#00ABBF;}
	.st149{fill:#F6FAD9;}
	.st150{fill:#CBC3AC;}
	.st151{fill:#E2615D;}
	.st152{fill:#FAFAF8;}
	.st153{fill:#E8E4DA;}
	.st154{fill:#123057;}
	.st155{fill:#F4D16B;}
	.st156{fill:none;stroke:#F1D34E;stroke-miterlimit:10;}
	.st157{fill:#E3834C;}
	.st158{fill:#E9A779;}
	.st159{fill:#ECB74A;}
	.st160{fill:#00A591;}
</style>
<path class="st76" d="M183.1-36c12,0.3,27.8-3.8,34.9,2.2c8.5,7.2,2.8,23.5,2.8,35.9c0.3,102.1-0.1,204.2,0.4,306.3
	c0.1,12-2.4,17.1-15.1,15.4c-7.8-1.1-15.7-0.3-23.6-0.4c-0.3-5.5-0.9-11-0.9-16.6c-0.1-73.2,0-146.4-0.2-219.6
	c0-5.1,2.4-11.1-3.8-16.2c-4,5.1-2.7,10.8-2.7,16c-0.3,78.8-0.5,157.5-0.7,236.3c-12.9,0-25.9,1.9-38.8-1.1c0.6-0.6,0.6-1.2-0.1-1.7
	c0.1-61.1,0.4-122.2,0.2-183.3c0-8.8,1-16.6,8.1-22.4c8.9-7.3,6.3-13-1.2-20c-11.2-10.4-9.8-28.6,1.9-38.5
	c8.5-7.2,18.4-13,24.4-22.9c0,0,0,0,0,0c0.9,1.3,1.9,1.4,3,0.4c8.3-3,9.8-9.3,10-17.4C182-1.2,179.8-18.7,183.1-36z"/>
<path class="st76" d="M40.4,322.8c-24.6,0.2-49.1,0.1-73.7,0.9c-8.7,0.3-10.9-2.4-10.8-10.9c0.5-33.8,0.2-67.7,0.2-101.6
	c0-77.9,0.2-155.8-0.3-233.7c-0.1-10.9,2.8-15,13.8-13.7c8.2,0.9,16.7,0.3,25,0.4c0.3,5.5,0.8,11.1,0.8,16.6
	C-4.4,65.2-3.7,149.7-5,234.1c-0.3,19.7,6.4,31.4,22.8,39.4c6.6,9.3,20.6,11.5,23.5,24.4C41,306.2,40.7,314.5,40.4,322.8z"/>
<path class="st76" d="M271.9-36c10.2,0,20.4,0.1,30.6-0.1c5.9-0.1,8.6,2.2,8.2,8.2c-0.2,3.2,0,6.5,0,9.7c0,108.1,0,216.2,0,324.3
	c0,19,3.3,17.3-18,17.4c-7,0-13.9-0.2-20.9-0.2c-0.2-4.2-0.6-8.3-0.6-12.5c0-111,0-222,0-333C271.1-26.8,271.6-31.4,271.9-36z"/>
<path class="st76" d="M265.9,322.4c-40.3,3.2-40.3,3.2-40.3-35.9c0-102.2,0.2-204.4-0.3-306.5c-0.1-12.3,2.5-18.1,15.9-16.2
	c7.7,1.1,15.8,0.4,23.6,0.5c0.3,6,0.8,12,0.8,18C265.7,95.6,265.8,209,265.9,322.4z"/>
<path class="st76" d="M47-35.9c12.4,0,24.8,0,37.1-0.1c0.4,5.5,1.1,11.1,1.1,16.6c0.1,88.7,0,177.4,0.1,266.1
	c0,9.7,0.7,19.4,1.1,29.1c-1,11.3-8.8,22-17.3,21.3c-8.5-0.6-21.4-5.4-23.8-18.6c0.3-4.6,0.7-9.2,0.7-13.8c0-94.7,0-189.4,0.1-284
	C46.1-24.9,46.7-30.4,47-35.9z"/>
<path class="st76" d="M2-36.1c12.4,0.1,24.9,0.2,37.3,0.3c0.3,2.3,0.9,4.6,0.9,6.9c0,102.4-0.2,204.9-0.3,307.3
	c-7.9,0.9-11.1-8-18.1-8.9c-2.1-1.8-3.9-4.2-6.3-5.2c-12.4-5.4-14.9-14.7-14.7-27.7c0.7-61.7,0.2-123.3,0.4-185
	C1.3,22.2,1.8-7,2-36.1z"/>
<path class="st76" d="M91.6-35.9c12.5-0.1,24.9-0.2,37.4-0.3c0.4,5.9,1,11.8,1.2,17.8c1,22.8-1.6,45.8,1.3,68.6
	c-0.9,7-6.8,9.4-11.6,12.8c-14.7,10.3-14.7,10.3-2.1,22c18.7,17.3,18.4,26.7-1.2,43.4c-2.1,0.2-4.9-0.4-4.8,2.8
	c0,0.8,2.7,1.5,4.1,2.3c1.8,1.9,3.5,3.8,5.3,5.7c0.4,5.5,4.4,5.5,8.4,5.5c1.4,42.7,1.5,85.5-0.1,128.2c-4.4,0.8-8.7,1.6-13.1,2.4
	c-2.1-0.7-4.3-1.5-6.4-2.2c-0.7-6.9-4-5.5-7.8-2.5c-4.2,0.2-7.1,5.5-12,3c0.2-71.7,0.4-143.4,0.6-215.1C91.1,27,91.4-4.4,91.6-35.9z
	"/>
<path class="st82" d="M136.5-35.7c12.4-0.1,24.7-0.2,37.1-0.3c0.9,21.7,4.6,43.4-2.4,64.8c-1.9,0.9-5.4,0.9-2.6,4.5c0,0,0,0,0,0
	c-5.2-4.5-7.3,1.3-10.8,3c-7.5,3.7-12,14-22.7,11C135.6,19.6,136.1-8,136.5-35.7z"/>
<path class="st85" d="M174.2,323.1c0.2-78.8,0.4-157.5,0.7-236.3c0-5.2-1.3-10.9,2.7-16c6.3,5.1,3.8,11.1,3.8,16.2
	c0.2,73.2,0.1,146.4,0.2,219.6c0,5.5,0.6,11,0.9,16.6C179.7,325.6,176.9,325.8,174.2,323.1z"/>
<path class="st86" d="M265.9,322.4c-0.1-113.4-0.2-226.8-0.3-340.2c0-6-0.5-12-0.8-18c2.4,1.8,4.4-9.3,7.1-0.3
	c-0.3,4.6-0.8,9.2-0.8,13.9c0,111,0,222,0,333c0,4.2,0.4,8.3,0.6,12.5C269.3,325.9,267.4,325.3,265.9,322.4z"/>
<path class="st87" d="M2-36.1C1.8-7,1.3,22.2,1.3,51.4c-0.1,61.7,0.4,123.4-0.4,185c-0.2,13,2.3,22.3,14.7,27.7
	c2.4,1,4.2,3.4,6.3,5.2c-1.4,1.4-2.7,2.7-4.1,4.1c-16.5-8-23.1-19.6-22.8-39.4c1.3-84.4,0.6-168.8,0.5-253.3
	c0-5.5-0.5-11.1-0.8-16.6C-2.9-35.9-0.4-36,2-36.1z"/>
<path class="st87" d="M40.1,278.3C40.2,175.8,40.3,73.4,40.3-29c0-2.3-0.6-4.6-0.9-6.9c2.5,0,5.1,0,7.6-0.1
	c-0.3,5.5-0.9,11.1-0.9,16.6c-0.1,94.7,0,189.4-0.1,284c0,4.6-0.5,9.2-0.7,13.8C43.5,278.5,41.8,278.4,40.1,278.3z"/>
<path class="st87" d="M91.6-35.9C91.4-4.4,91.1,27,91,58.5c-0.3,71.7-0.4,143.4-0.6,215.1c-0.6,2-2.2,2.3-4,2.2
	c-0.4-9.7-1.1-19.4-1.1-29.1c-0.1-88.7,0-177.4-0.1-266.1c0-5.5-0.7-11.1-1.1-16.6C86.6-36,89.1-35.9,91.6-35.9z"/>
<path class="st82" d="M116.5,275.3c4.4-0.8,8.7-1.6,13.1-2.4c3,15.6-0.1,31.4,1.5,47c-0.5,1-1,2.1-1.5,3.1
	c-12.6,3.5-25.5,3.5-38.4,2.5c-0.3-9.2-0.7-18.4-1-27.6c0.5-13.9,6.6-17.6,19.2-12.1c3.2,1.4,7.3,6.5,10.5,1.2
	C122.3,283,121.7,278,116.5,275.3z"/>
<path class="st85" d="M171.2,28.8c7-21.4,3.3-43.1,2.4-64.8c3.2,0,6.3,0,9.5,0c-3.3,17.3-1.1,34.8-1.4,52.3
	c-0.2,8.2-1.7,14.4-10,17.4C171.5,32,171.4,30.4,171.2,28.8z"/>
<path class="st87" d="M136.5-35.7c-0.5,27.7-0.9,55.3-1.4,83c-1.2,1-2.4,1.9-3.5,2.9c-3-22.8-0.4-45.7-1.3-68.6
	c-0.3-5.9-0.8-11.8-1.2-17.8C131.5-36,134-35.9,136.5-35.7z"/>
<path class="st86" d="M135.4,320.3c-1.4-0.2-2.9-0.3-4.3-0.5c-1.6-15.6,1.5-31.4-1.5-47c1.6-42.7,1.5-85.5,0.1-128.2
	c0.7-3.5,2.9-7.8-0.8-10c-3.4-2-4.6,3.6-7.6,4.5c-1.8-1.9-3.5-3.8-5.3-5.7c0.2-1.7,0.4-3.4,0.6-5.1c19.6-16.7,19.9-26,1.2-43.4
	c-12.6-11.7-12.6-11.6,2.1-22c4.8-3.4,10.8-5.8,11.6-12.8c1.2-1,2.4-1.9,3.5-2.9c10.8,3,15.2-7.3,22.7-11c3.5-1.7,5.6-7.5,10.8-3
	c-6,9.9-15.9,15.7-24.4,22.9c-11.7,9.9-13,28.1-1.9,38.5c7.5,6.9,10.1,12.6,1.2,20c-7.1,5.8-8.1,13.6-8.1,22.4
	C135.7,198.1,135.5,259.2,135.4,320.3z"/>
<path class="st86" d="M171.2,28.8c0.1,1.6,0.3,3.2,0.4,4.9c-1.2,1-2.2,0.9-3-0.4C165.8,29.6,169.3,29.6,171.2,28.8z"/>
<path class="st83" d="M90.2,297.9c-2.3,0.2-4.3,0.8-5.3,3.2c-12.8,18.4-24.4,9.3-35.8-1.7c-0.6-0.6-1.7-0.7-2.5-1.1
	c-1.8-0.2-3.5-0.3-5.3-0.5c-2.8-12.9-16.9-15-23.5-24.4c1.4-1.4,2.7-2.7,4.1-4.1c7,1,10.2,9.8,18.1,8.9c1.7,0.1,3.5,0.2,5.2,0.3
	c2.4,13.2,15.3,17.9,23.8,18.6c8.5,0.6,16.3-10.1,17.3-21.3c1.8,0.1,3.3-0.2,4-2.2c4.9,2.5,7.8-2.8,12-3c2.3,1.9,4.8,2.8,7.8,2.5
	c2.1,0.7,4.3,1.5,6.4,2.2c5.2,2.7,5.8,7.7,3.4,11.7c-3.2,5.3-7.3,0.2-10.5-1.2C96.8,280.3,90.7,284,90.2,297.9z"/>
<path class="st82" d="M121.2,139.2c3-0.8,4.3-6.4,7.6-4.5c3.7,2.2,1.4,6.5,0.8,10C125.6,144.7,121.7,144.6,121.2,139.2z"/>
<path class="st82" d="M110.1,273.1c-3,0.3-5.5-0.6-7.8-2.5C106.1,267.6,109.4,266.2,110.1,273.1z"/>
<path class="st82" d="M116.6,128.3c-0.2,1.7-0.4,3.4-0.6,5.1c-1.5-0.8-4.1-1.5-4.1-2.3C111.6,127.9,114.5,128.5,116.6,128.3z"/>
</svg>
