<?xml version="1.0" encoding="utf-8"?>
<!-- Generator: Adobe Illustrator 24.0.2, SVG Export Plug-In . SVG Version: 6.00 Build 0)  -->
<svg version="1.1" id="Capa_1" xmlns="http://www.w3.org/2000/svg" xmlns:xlink="http://www.w3.org/1999/xlink" x="0px" y="0px"
	 viewBox="0 0 288 288" style="enable-background:new 0 0 288 288;" xml:space="preserve">
<style type="text/css">
	.st0{fill:#2D2D2D;}
	.st1{fill:#002530;}
	.st2{fill:#050523;}
	.st3{fill:#707C84;}
	.st4{fill:#E9E4DE;}
	.st5{fill:#EE3133;}
	.st6{fill:#FD99AF;}
	.st7{fill:#C4C2C0;}
	.st8{fill:#F2D8A3;}
	.st9{fill:#EFCB84;}
	.st10{fill:#EF692F;}
	.st11{fill:#4B343F;}
	.st12{fill:#16B198;}
	.st13{fill:#E72D52;}
	.st14{fill:#7B536F;}
	.st15{fill:#8F4CA9;}
	.st16{fill:#E2C29F;}
	.st17{fill:#9F4687;}
	.st18{fill:#A9A0AF;}
	.st19{fill:#CC4743;}
	.st20{fill:#8677A9;}
	.st21{fill:#8E5D8E;}
	.st22{fill:#DF615C;}
	.st23{fill:#9E4742;}
	.st24{fill:#D34861;}
	.st25{fill:#B75B6D;}
	.st26{fill:#DF6482;}
	.st27{fill:#FFFFFF;}
	.st28{fill:#829CA2;}
	.st29{fill:#F2B991;}
	.st30{fill:#E56759;}
	.st31{fill:#F5F3EE;}
	.st32{fill:#DC4B3F;}
	.st33{fill:#1D5A7D;}
	.st34{fill:#459492;}
	.st35{fill:#F0A349;}
	.st36{fill:#E4EFEB;}
	.st37{fill:#E17467;}
	.st38{fill:#B6BFBD;}
	.st39{fill:#F0E2D6;}
	.st40{fill:#396D89;}
	.st41{fill:#201A21;}
	.st42{fill:#48505D;}
	.st43{fill:#0B0707;}
	.st44{fill:#D30034;}
	.st45{fill:#6C919B;}
	.st46{fill:#F68C4A;}
	.st47{fill:#E5CFCD;}
	.st48{fill:#385B4D;}
	.st49{fill:#F14206;}
	.st50{fill:#BAD2D8;}
	.st51{fill:#F70059;}
	.st52{fill:#AA000C;}
	.st53{fill:#D8B5B2;}
	.st54{fill:#E08143;}
	.st55{fill:#F2E9E9;}
	.st56{fill:#F4D085;}
	.st57{fill:#23586A;}
	.st58{fill:#17241F;}
	.st59{fill:#EAE8E1;}
	.st60{fill:#253C4F;}
	.st61{fill:#F7FCFD;}
	.st62{fill:#0E151F;}
	.st63{fill:#8D897D;}
	.st64{fill:#BDB6AA;}
	.st65{fill:#EDE1AF;}
	.st66{fill:#DF786F;}
	.st67{fill:#E8C46F;}
	.st68{fill:#B0CEAD;}
	.st69{fill:#9FC4AF;}
	.st70{fill:#B8C6A0;}
	.st71{fill:#EBEC80;}
	.st72{fill:#DD7AB2;}
	.st73{fill:#D6D2D3;}
	.st74{fill:#69BCC5;}
	.st75{fill:#D0CBC1;}
	.st76{fill:#242424;}
	.st77{fill:#525252;}
	.st78{fill:#3D3D3D;}
	.st79{fill:#6B6B6B;}
	.st80{fill:#303030;}
	.st81{fill:#8A8A8A;}
	.st82{fill:#282828;}
	.st83{fill:#E6E6E6;}
	.st84{fill:#E8E8E8;}
	.st85{fill:#A9A9A9;}
	.st86{fill:#D9D9D9;}
	.st87{fill:#CACACA;}
	.st88{fill:#9E9E9E;}
	.st89{fill:none;}
	.st90{fill:#4A4744;}
	.st91{fill:#F0BA45;}
	.st92{fill:#F1D34E;}
	.st93{fill:none;stroke:#00A591;stroke-miterlimit:10;}
	.st94{fill:#EEEEEE;}
	.st95{fill:#FBFBFB;}
	.st96{fill:#F8F2DD;}
	.st97{fill:#8DB2A6;}
	.st98{fill:#ED8C58;}
	.st99{fill:#F0C153;}
	.st100{fill:#C2B146;}
	.st101{fill:#8E6E51;}
	.st102{fill:#1C1D4C;}
	.st103{fill:#111224;}
	.st104{fill:#26687B;}
	.st105{fill:#F8494A;}
	.st106{fill:#81819B;}
	.st107{fill:#80809B;}
	.st108{fill:#0AC6BB;}
	.st109{fill:#0BC5B9;}
	.st110{fill:#686888;}
	.st111{fill:#0BC5BA;}
	.st112{fill:#FEFEFE;}
	.st113{fill:#F8F5CE;}
	.st114{fill:#EF484B;}
	.st115{fill:#F94A4A;}
	.st116{fill:#F9F6CE;}
	.st117{fill:#DFE0E3;}
	.st118{fill:#04121D;}
	.st119{fill:#6693AB;}
	.st120{fill:#89BCD7;}
	.st121{fill:#FAF509;}
	.st122{fill:#0B2E41;}
	.st123{fill:#427491;}
	.st124{fill:#2A5973;}
	.st125{fill:#184259;}
	.st126{fill:#BCE4F7;}
	.st127{fill:#02111C;}
	.st128{fill:#FCF704;}
	.st129{fill:#F4F115;}
	.st130{fill:#DFE23F;}
	.st131{fill:#BCE6FA;}
	.st132{fill:#031D2B;}
	.st133{fill:#81851A;}
	.st134{fill:#1E1E1E;}
	.st135{fill:#F5142E;}
	.st136{fill:#05ACC0;}
	.st137{fill:#F87240;}
	.st138{fill:#FA723F;}
	.st139{fill:#F67240;}
	.st140{fill:#E37547;}
	.st141{fill:#07ADC0;}
	.st142{fill:#450D0D;}
	.st143{fill:#F57240;}
	.st144{fill:#440D0D;}
	.st145{fill:#470D0D;}
	.st146{fill:#EBECCC;}
	.st147{fill:#E9EACA;}
	.st148{fill:#00ABBF;}
	.st149{fill:#F6FAD9;}
	.st150{fill:#CBC3AC;}
	.st151{fill:#E2615D;}
	.st152{fill:#FAFAF8;}
	.st153{fill:#E8E4DA;}
	.st154{fill:#123057;}
	.st155{fill:#F4D16B;}
	.st156{fill:none;stroke:#F1D34E;stroke-miterlimit:10;}
	.st157{fill:#E3834C;}
	.st158{fill:#E9A779;}
	.st159{fill:#ECB74A;}
	.st160{fill:#00A591;}
</style>
<path class="st76" d="M289.7,141.6c0,46.4-0.1,92.7,0.1,139.1c0,7.2-1.4,9.9-9.4,9.9c-93.1-0.3-186.2-0.3-279.2,0
	c-6.6,0-8.4-1.9-8.4-8.3C-7,189.1-6.9,96-7.2,2.9c0-7.9,2.7-9.4,9.9-9.4c92.3,0.2,184.6,0.2,277,0c8.1,0,10.3,2.1,10.2,10.2
	C289.5,49.7,289.7,95.6,289.7,141.6C289.7,141.6,289.7,141.6,289.7,141.6z M83.1,23.2c0.3-3.1-1.8-4.2-4.1-3.8
	C68.6,21.6,65.5,16,65.4,7c-0.1-5.2-3.9-4.7-7.3-4.6c-2.5,0-3.9,1.1-4.7,3.8C47.8,24,54,32.7,72.2,32.5c1.1,0,2.3,0,3.4,0
	C82.2,32.7,84.3,29.3,83.1,23.2z M80.7,130.8c5.4-8.2,4.4-11.6-3.9-12.1c-3.4-0.2-6.8,0-10.2,0.1c-0.5-2.6-1.1-5.2-1.6-7.9
	c1.2-1.6,1.2-3.3,0.1-4.9c-0.2-6.4-5-4.5-8.4-4.4c-3.8,0.1-3.1,3.5-3.4,6.1c-2.4,23.6-2,24.1,21.7,23.7
	C76.9,131.3,78.8,131,80.7,130.8z M229.6,69.6c-0.1-17.3,2.2-15.7-16-15.9c-3.1,0-6.1,0-9.2-0.1c-4.5-0.1-6.1,2.4-6,6.5
	c0.1,3.7,0.6,7.5,5.4,6.8c10.2-1.5,14.1,2.5,12.7,12.6c-0.7,4.9,3.2,5.2,6.9,5.3c4.3,0.2,6.4-1.7,6.2-6.1
	C229.5,75.7,229.6,72.6,229.6,69.6z M16.9,152.5c-3.7,0-6.7,0.1-9.8,0c-5.3-0.3-6.4,2.8-6.4,7.3c-0.1,4.5,2,6.7,6.2,6.1
	c9.7-1.4,13.4,2.5,11.9,12.1c-0.5,2.9,0.7,5.5,4.1,5.7c2.9,0.1,7.5,1.3,8.2-2.1c1.8-8.6,2.6-17.9-0.2-26.1
	C28.9,149.5,21.2,154,16.9,152.5z M115.6,152.6c-3.4,0-6.4,0.1-9.4,0c-5.1-0.3-6.6,2.3-6.6,6.9c0,4.3,1.7,6.9,6,6.2
	c10.6-1.8,13.6,3,12.2,12.6c-0.5,3.1,1.3,5.1,4.6,5.1c2.9,0,7.3,1.1,7.6-2.8c0.7-8.3,1.6-17.1-0.5-24.9
	C128,149.6,120.1,154.3,115.6,152.6z M215.5,251.7c-3.7,0-6.4,0.1-9,0c-4.8-0.2-8.1,0.8-8,6.8c0.1,5.5,3.4,6.6,7.5,5.9
	c10.4-1.6,11.3,4.5,10.6,12.3c-0.3,2.9,0.6,5.5,4,5.8c3,0.2,7.7,0.8,8-2.5c0.9-8.3,1.8-17.1,0-25
	C227.1,248.3,219.3,253.1,215.5,251.7z M130.7,68.5c-2.3-4.2,4.8-13.3-6.1-14.5c-6.4-0.7-12.9-0.2-19.3-0.1c-4.5,0-5.6,2.8-5.6,6.8
	c0,4.2,1.4,6.7,5.9,6.1c9-1.2,13.8,1.6,12.2,11.6c-0.7,4.2,1.4,6.4,5.8,6.4c4.4,0,7.5-1.1,7.2-6.4C130.6,75.4,130.7,72.3,130.7,68.5
	z M17.8,53.9c-4.4,0-7.8,0.1-11.3,0c-4.9-0.2-5.4,2.9-5.6,6.7c-0.2,4.3,1.5,7,5.9,6.3c10.8-1.8,13.5,3.4,12.2,12.9
	c-0.4,3.1,1.6,5,4.9,4.8c2.6-0.1,6.8,0.4,7.1-2.3c0.8-8.3,1.8-17.1,0-25C29.4,50.4,21.6,55.4,17.8,53.9z M130.6,266.2
	c-2.1-4,4.8-13.1-5.9-14.4c-6.4-0.8-13-0.2-19.5-0.1c-3.9,0-5.4,2.3-5.4,5.9c0,3.7,0.5,7.6,5.3,7c9.7-1.2,14.5,1.8,12.9,12.3
	c-0.7,4.5,2.3,5.9,6.4,5.8c4.1-0.1,6.6-1.5,6.3-6.1C130.4,273.5,130.6,270.4,130.6,266.2z M229.6,168.6c0.1-16.1,0.1-16.1-15.9-16.1
	c-3.4,0-6.9,0-10.3,0.3c-5,0.3-4.7,4.1-4.8,7.6c-0.1,3.9,1.7,6.1,5.5,5.5c10.1-1.6,14,2.3,12.5,12.5c-0.7,4.7,2.9,5.4,6.8,5.5
	c4.2,0,6.5-1.5,6.3-6C229.5,174.7,229.6,171.6,229.6,168.6z M31.6,267.2c0.1-15.4,0.1-15.4-15.5-15.4c-3.1,0-6.1,0.1-9.2,0
	c-4.4-0.1-6,2.1-5.9,6.4c0,4.3,1.7,6.7,6.1,6.1c9.5-1.4,13.3,2.5,12,12c-0.6,4.4,2,6,6.2,6c4.2,0,6.5-1.5,6.3-6
	C31.5,273.3,31.6,270.2,31.6,267.2z M229.5,17.9c0-3.9-0.1-6.9,0-10c0.2-4.6-2.4-5.8-6.5-5.9c-4,0-7.2,1.2-6.4,5.7
	c1.9,10.9-3.6,13.3-12.9,12.1c-3.4-0.4-4.8,1.6-4.9,4.8c-0.1,2.6-0.8,6.8,1.9,7.1c8.7,0.7,17.9,1.8,26-0.3
	C232.6,30.1,228,22,229.5,17.9z M152,167c0,3.6,0.1,6.2,0,8.9c-0.1,4.1,0,7.6,5.7,7.8c5.7,0.2,7.8-2.5,7-7.6
	c-1.5-9.2,3.1-11.4,11.1-10.3c3.1,0.4,6.5,0,6.7-4.3c0.1-2.9,1.2-7.5-2.4-7.9c-8.3-0.9-17.1-1.9-25,0.1
	C148.5,155.2,153.7,163.1,152,167z M250.8,167.3c0,3.3-0.1,5.6,0,7.8c0.2,4-1.2,8.6,5.8,8.6c6.8,0,7.8-4,7-8.9
	c-1.3-8.5,3.3-9.5,10-9.1c3.4,0.2,7.3,0.6,7.5-4.6c0.1-3,1-7.5-2.6-7.8c-8.3-0.8-17.2-1.8-25,0.4
	C247.6,155.3,252.3,163.3,250.8,167.3z M53.1,166.2c0,4.2,0.1,7.6,0,11.1c-0.1,4.1,1,6.4,5.8,6.3c4.5-0.1,7.9-1.1,7.1-6.3
	c-1.5-10,3.2-12.8,12.2-11.6c3,0.4,5.3-1,5.3-4.5c0-2.6,1.1-6.5-1.7-7.3c-8.5-2.6-17.7-2.4-25.9-0.3C50.3,155,54.2,162.4,53.1,166.2
	z M115.4,32.6c18-0.1,14.8,1.5,15.3-15.2c0.1-1.9,0.1-3.8,0-5.7c-0.3-4.3,1.3-9.5-6.2-9.6c-7.1-0.1-6.9,4.2-6.8,9
	c0.1,4.1,0.9,8.5-5.7,8.9c-4.9,0.3-12.8-2.9-12.2,7c0.7,10,8.8,3.9,13.3,5.6C113.7,32.8,114.6,32.6,115.4,32.6z M53.1,266
	c0,3.9,0.1,6.9,0,9.9c-0.3,4.9,2,6.8,6.8,6.6c4.3-0.1,6.7-2,6-6.2c-1.5-9.6,2.5-13.2,11.9-11.9c3.6,0.5,5.7-1.5,5.6-5.3
	c-0.1-2.6,0.7-6.5-2.5-6.7c-8.3-0.6-17-1.8-24.8,0.2C49.7,254.2,54.7,262,53.1,266z M168,53.9c-18.7,0.2-15.7-2.2-16,15.5
	c0,2.7,0,5.4,0,8c-0.1,4.3,0.6,7.5,6.1,7.4c4.8-0.1,7.5-1.9,6.7-6.8c-1.5-9.5,2.8-12.3,11.5-11.2c4.2,0.6,6.3-1.4,6.3-5.9
	c0.1-4.7-1.6-7.3-6.6-7.1C173.3,54,170.6,53.9,168,53.9z M16.9,131.6c4.1-2.5,13.2,5,14.7-5.7c0.9-6.3,0-12.9,0-19.4
	c0-4.7-2.9-5.5-6.9-5.4c-3.6,0.1-6.4,1.3-5.8,5.2c1.6,10-2.3,14.1-12.4,12.8c-4.7-0.7-5.5,2.5-5.7,6.4c-0.2,4.4,1.5,6.4,5.9,6.2
	C9.8,131.5,12.9,131.6,16.9,131.6z M152,266.7c0,3.2,0.1,5.5,0,7.8c-0.3,4.7,0.3,8.2,6.5,8.1c6.2-0.1,6.9-3.9,6.3-8.4
	c-1.1-8.6,3.1-10.6,10.7-9.7c3,0.4,6.6,0.3,7-3.9c0.3-2.9,1.4-7.6-2.1-8c-8.2-1-17.1-2.1-24.9-0.1
	C148.4,254.3,153.4,262.5,152,266.7z M266.9,251.7c-16.1,0-16.1,0-16,15.6c0,1.9-0.1,3.8,0,5.7c0.3,4.2-1.7,9.5,6,9.6
	c7,0,7.3-4.4,6.8-9.1c-1.1-8.5,3.6-9.5,10.2-8.8c4.3,0.4,7.4-0.6,7.5-6c0.1-4.7-1.3-7.3-6.4-6.9
	C272.2,251.8,269.5,251.7,266.9,251.7z M16.3,230.4c17-0.4,15.2,2.6,15.6-15c0.1-2.7,0-5.3,0-8c0.1-4.2-0.5-7.4-6-7.6
	c-5.8-0.2-7.5,2.9-6.9,7.8c1.1,8.2-2.6,11-10.3,9.9c-5.2-0.7-7.7,1.3-7.7,6.9c0,5.7,3.3,6,7.4,6C10.9,230.4,13.6,230.4,16.3,230.4z
	 M130.6,118.2c0-4.5-0.1-8,0-11.4c0.1-4.5-2.4-5.8-6.5-5.8c-4.2,0-6.8,1.6-6.2,6c1.3,9.5-2.6,13.3-12,12c-2.8-0.4-5.5,0.5-5.9,3.9
	c-0.3,2.6-1.4,6.4,1.2,7.4c8.4,3,17.5,2.3,25.8,0.8C134.2,129.6,129.2,121.8,130.6,118.2z M229.5,216.9c0-3.9-0.1-6.9,0-10
	c0.1-4.4-1.1-7.2-6.4-7.1c-5,0-7.2,2.1-6.5,6.9c1.5,9.8-3.6,11.8-11.9,10.9c-3.4-0.4-6,1-6.1,5c0,2.6-0.9,6.6,2,7.1
	c8.6,1.5,17.7,2.4,26-0.2C232.2,227.7,228.4,220.6,229.5,216.9z M215.1,131.5c3.9-2.1,12.3,4.6,14.2-4.8c1.3-6.6,0.3-13.7,0.2-20.5
	c0-3.9-2.4-5.1-5.9-5.3c-3.9-0.1-7.3,0.9-6.7,5.5c1.3,10.1-2.6,14-12.7,12.5c-4.8-0.7-5.4,2.8-5.4,6.6c0,3.6,1.1,5.9,5.1,5.9
	C207.2,131.5,210.6,131.5,215.1,131.5z M115.4,230.4c15.7-0.5,15.2,3.4,15.3-15.3c0-1.9,0-3.8-0.1-5.7c-0.2-4.4,1.2-9.4-6.3-9.5
	c-7.2-0.1-7.1,4.5-6.6,9.1c0.7,6.5-1.7,9.2-8.3,8.5c-5.2-0.5-10.1-0.4-9.8,7.2c0.3,7.6,5.8,5.3,10,5.7
	C111.6,230.5,113.5,230.4,115.4,230.4z M68.5,53.8C53,53.8,53,53.8,53,69.1c0,3,0.1,6.1,0,9.1c-0.1,3.9,0.9,6.6,5.6,6.6
	c4.5,0,7.9-1.2,7.1-6.3c-1.4-9.8,2.8-13,12.1-11.7c4.5,0.6,5.6-2.6,5.6-6.6c0-4.2-1.4-6.5-5.9-6.4C74.5,53.9,71.5,53.8,68.5,53.8z
	 M266.3,53.8c-17.5,0.1-15.4-1.1-15.4,15.3c0,2.7,0.1,5.3,0,8c-0.1,4.1,0,7.7,5.7,7.7c5.6,0,7.9-2.8,7.1-7.8
	c-1.6-9.5,3.3-11.2,11.1-10.2c5.1,0.6,6.7-2,6.6-6.7c-0.1-4.1-1.2-6.6-5.9-6.3C272.4,54,269.3,53.9,266.3,53.8z M31.8,16.5
	c0-3.3-0.1-5.9,0-8.6c0.2-4.6-2.4-5.8-6.5-5.8c-4,0-7.2,1-6.4,5.7C20.7,18.4,16,21.6,6.2,20c-3-0.5-5.3,1.1-5.2,4.6
	c0.1,2.9-1.2,7.3,3,7.5c8.3,0.6,17.3,1.8,24.9-0.6C35,29.6,30.6,21.3,31.8,16.5z M165.4,230.3c4.6,0,8-0.1,11.4,0
	c4.6,0.2,5.8-2.3,5.8-6.4c0-4.2-1.6-6.8-6-6.3c-9.2,1.1-13.6-2.1-12-11.9c0.4-2.7-0.2-5.5-3.9-5.6c-2.9-0.1-7.2-1.5-8,2.1
	c-1.8,8.6-2.3,17.8,0.1,25.9C154.5,233.2,161.9,229.3,165.4,230.3z M264.8,230.4c3.9,0,6.9,0,10,0c3.8,0.1,6.8-0.6,6.7-5.4
	c-0.1-4.2-0.7-8.3-6-7.5c-9.5,1.4-13.3-2.1-12-11.6c0.5-3.4-1.1-5.9-5.1-5.9c-2.6,0-6.6-0.9-6.8,2.2c-0.7,8.3-1.8,17,0,24.9
	C253.2,233.9,261,228.7,264.8,230.4z M265.3,32.5c3.3,0,5.5,0,7.8,0c4.3,0.1,8.4,0.4,8.3-6.2c-0.1-6.3-4.1-6.5-8.4-6
	c-8.6,1-10.4-3.4-9.6-10.8c0.4-3.4-0.1-7.2-5-7.2c-2.6,0-6.5-0.6-6.8,2.6c-0.6,8.3-1.7,17.1,0.4,24.8
	C253.5,35.6,261.4,31.1,265.3,32.5z M265.1,131.3c3.2,0,5.5,0.1,7.7,0c4.1-0.2,8.6,0.7,8.4-6c-0.1-6.2-4-6.7-8.4-6.1
	c-8.7,1.2-10.3-3.4-9.7-10.7c0.3-3.4,0.4-7.2-4.7-7.3c-2.6,0-6.6-0.8-6.9,2.3c-0.7,8.3-1.7,17,0.2,24.8
	C253.5,134.8,261.3,129.6,265.1,131.3z M166.3,32.5c3.9,0,7-0.1,10,0c4.3,0.2,6-1.7,6-6.1c0-4.5-2-6.5-6.1-6
	c-9.3,1.1-13.4-2.3-11.9-12c0.5-3.3-0.8-6.1-4.9-6c-2.5,0-6.5-0.8-6.7,2.5c-0.6,8.3-1.8,17.1,0.3,24.8
	C154.6,35.7,162.4,31,166.3,32.5z M165.4,131.3c4.6,0,8-0.1,11.5,0c3.8,0.1,5.5-1.7,5.6-5.5c0-3.8-0.8-7.4-5.5-6.7
	c-10.2,1.5-14-2.6-12.5-12.5c0.4-3-0.9-5.3-4.3-5.4c-2.5-0.1-6.4-1.1-7.1,1.9c-1.9,8.6-2.4,17.7,0,25.9
	C154.4,133.9,161.9,130.5,165.4,131.3z M67.2,230.3c3.1,0,5.4,0.1,7.7,0c4-0.2,8.7,0.9,8.8-5.8c0.1-6.8-4.2-7.4-9-6.7
	c-8.5,1.2-9.4-3.7-9-10.2c0.2-3.5,0.2-7.2-4.7-7.5c-2.6-0.1-6.6-0.7-6.9,2.2c-0.8,8.3-1.9,16.9-0.1,24.8
	C55.5,233.7,63.3,228.7,67.2,230.3z"/>
<path class="st87" d="M229.6,69.6c0,3.1-0.1,6.1,0,9.2c0.2,4.4-1.8,6.3-6.2,6.1c-3.7-0.1-7.6-0.4-6.9-5.3
	c1.4-10.1-2.5-14.1-12.7-12.6c-4.8,0.7-5.3-3.1-5.4-6.8c-0.1-4.1,1.5-6.6,6-6.5c3.1,0.1,6.1,0,9.2,0.1
	C231.8,53.8,229.5,52.2,229.6,69.6z"/>
<path class="st87" d="M16.9,152.5c4.3,1.4,12-3,14,2.9c2.8,8.2,2,17.5,0.2,26.1c-0.7,3.4-5.3,2.2-8.2,2.1c-3.5-0.2-4.6-2.8-4.1-5.7
	c1.5-9.6-2.2-13.5-11.9-12.1c-4.2,0.6-6.3-1.6-6.2-6.1c0.1-4.4,1.2-7.5,6.4-7.3C10.1,152.7,13.2,152.5,16.9,152.5z"/>
<path class="st86" d="M115.6,152.6c4.5,1.6,12.3-3.1,13.9,3.1c2.1,7.8,1.1,16.6,0.5,24.9c-0.3,3.9-4.7,2.8-7.6,2.8
	c-3.3,0-5.1-2-4.6-5.1c1.4-9.7-1.6-14.5-12.2-12.6c-4.3,0.7-6-1.9-6-6.2c0-4.7,1.5-7.2,6.6-6.9C109.2,152.8,112.3,152.6,115.6,152.6
	z"/>
<path class="st86" d="M215.5,251.7c3.8,1.5,11.6-3.4,13.2,3.3c1.9,7.9,0.9,16.7,0,25c-0.4,3.3-5,2.7-8,2.5c-3.5-0.3-4.3-2.8-4-5.8
	c0.7-7.8-0.2-13.9-10.6-12.3c-4.1,0.6-7.4-0.4-7.5-5.9c-0.1-6,3.2-7,8-6.8C209.1,251.8,211.8,251.7,215.5,251.7z"/>
<path class="st86" d="M130.7,68.5c0,3.8-0.1,6.9,0,9.9c0.3,5.3-2.8,6.4-7.2,6.4c-4.4,0-6.5-2.2-5.8-6.4c1.6-10-3.2-12.9-12.2-11.6
	c-4.5,0.6-5.9-2-5.9-6.1c0-4,1.2-6.8,5.6-6.8c6.5-0.1,13-0.6,19.3,0.1C135.5,55.2,128.5,64.2,130.7,68.5z"/>
<path class="st86" d="M17.8,53.9c3.8,1.5,11.6-3.5,13.2,3.4c1.8,8,0.7,16.7,0,25c-0.2,2.7-4.4,2.2-7.1,2.3c-3.4,0.1-5.3-1.7-4.9-4.8
	c1.3-9.5-1.4-14.7-12.2-12.9c-4.3,0.7-6.1-2-5.9-6.3c0.2-3.8,0.8-6.9,5.6-6.7C9.9,54,13.4,53.9,17.8,53.9z"/>
<path class="st86" d="M130.6,266.2c0,4.2-0.1,7.3,0,10.3c0.2,4.6-2.2,6-6.3,6.1c-4.1,0.1-7.1-1.4-6.4-5.8
	c1.6-10.5-3.2-13.5-12.9-12.3c-4.8,0.6-5.3-3.3-5.3-7c0-3.6,1.5-5.8,5.4-5.9c6.5,0,13.1-0.7,19.5,0.1
	C135.3,253.1,128.5,262.2,130.6,266.2z"/>
<path class="st87" d="M229.6,168.6c0,3.1-0.1,6.1,0,9.2c0.2,4.5-2.1,6-6.3,6c-3.9,0-7.5-0.8-6.8-5.5c1.5-10.2-2.4-14.1-12.5-12.5
	c-3.7,0.6-5.6-1.6-5.5-5.5c0.1-3.5-0.2-7.2,4.8-7.6c3.4-0.2,6.9-0.3,10.3-0.3C229.8,152.5,229.8,152.5,229.6,168.6z"/>
<path class="st84" d="M31.6,267.2c0,3.1-0.1,6.1,0,9.2c0.2,4.5-2.1,6-6.3,6c-4.2,0-6.8-1.6-6.2-6c1.3-9.5-2.5-13.4-12-12
	c-4.4,0.6-6-1.8-6.1-6.1c0-4.3,1.5-6.5,5.9-6.4c3.1,0.1,6.1,0,9.2,0C31.7,251.8,31.7,251.8,31.6,267.2z"/>
<path class="st86" d="M229.5,17.9c-1.5,4.1,3.1,12.1-2.7,13.6c-8.2,2.1-17.4,1-26,0.3c-2.8-0.2-2-4.4-1.9-7.1
	c0.1-3.2,1.5-5.2,4.9-4.8c9.3,1.2,14.8-1.3,12.9-12.1c-0.8-4.6,2.4-5.8,6.4-5.7c4,0,6.6,1.3,6.5,5.9C229.4,11,229.5,14.1,229.5,17.9
	z"/>
<path class="st86" d="M152,167c1.7-3.9-3.5-11.7,3-13.3c7.9-1.9,16.7-0.9,25-0.1c3.6,0.4,2.6,5,2.4,7.9c-0.2,4.3-3.6,4.6-6.7,4.3
	c-8-1-12.6,1.1-11.1,10.3c0.8,5.1-1.3,7.8-7,7.6c-5.6-0.2-5.8-3.7-5.7-7.8C152.1,173.2,152,170.5,152,167z"/>
<path class="st86" d="M250.8,167.3c1.4-3.9-3.2-11.9,2.7-13.6c7.8-2.2,16.7-1.2,25-0.4c3.6,0.3,2.7,4.9,2.6,7.8
	c-0.2,5.1-4.1,4.8-7.5,4.6c-6.7-0.5-11.3,0.5-10,9.1c0.8,4.9-0.2,9-7,8.9c-6.9,0-5.6-4.6-5.8-8.6
	C250.8,172.8,250.8,170.5,250.8,167.3z"/>
<path class="st86" d="M53.1,166.2c1.2-3.8-2.8-11.2,2.7-12.6c8.3-2.1,17.4-2.3,25.9,0.3c2.7,0.8,1.7,4.7,1.7,7.3
	c0,3.5-2.3,4.8-5.3,4.5c-9-1.2-13.7,1.6-12.2,11.6c0.8,5.2-2.6,6.2-7.1,6.3c-4.8,0.1-5.9-2.2-5.8-6.3
	C53.2,173.9,53.1,170.4,53.1,166.2z"/>
<path class="st86" d="M115.4,32.6c-0.8,0-1.6,0.2-2.3,0c-4.5-1.7-12.6,4.4-13.3-5.6c-0.7-9.9,7.2-6.7,12.2-7
	c6.6-0.4,5.8-4.8,5.7-8.9c-0.1-4.9-0.3-9.1,6.8-9c7.5,0.1,5.9,5.3,6.2,9.6c0.1,1.9,0.1,3.8,0,5.7C130.1,34.1,133.3,32.6,115.4,32.6z
	"/>
<path class="st86" d="M53.1,266c1.6-4-3.4-11.8,3-13.4c7.8-2,16.6-0.8,24.8-0.2c3.2,0.2,2.5,4.1,2.5,6.7c0.1,3.8-2,5.8-5.6,5.3
	c-9.4-1.3-13.4,2.2-11.9,11.9c0.7,4.3-1.7,6.1-6,6.2c-4.8,0.2-7.1-1.7-6.8-6.6C53.2,272.9,53.1,269.8,53.1,266z"/>
<path class="st86" d="M168,53.9c2.7,0,5.4,0.1,8,0c5-0.2,6.6,2.3,6.6,7.1c-0.1,4.5-2.1,6.5-6.3,5.9c-8.7-1.2-13.1,1.7-11.5,11.2
	c0.8,4.9-1.9,6.7-6.7,6.8c-5.5,0.1-6.2-3.1-6.1-7.4c0.1-2.7,0-5.4,0-8C152.3,51.7,149.3,54.1,168,53.9z"/>
<path class="st86" d="M16.9,131.6c-4,0-7-0.1-10.1,0c-4.4,0.1-6.1-1.8-5.9-6.2c0.2-3.9,1-7.1,5.7-6.4c10.1,1.4,14-2.7,12.4-12.8
	c-0.6-3.9,2.2-5.1,5.8-5.2c3.9-0.1,6.8,0.8,6.9,5.4c0,6.5,0.9,13.1,0,19.4C30.1,136.5,21,129,16.9,131.6z"/>
<path class="st86" d="M152,266.7c1.5-4.2-3.5-12.4,3.3-14.2c7.8-2,16.6-0.9,24.9,0.1c3.6,0.4,2.4,5.1,2.1,8c-0.4,4.2-4,4.3-7,3.9
	c-7.5-0.9-11.8,1.1-10.7,9.7c0.6,4.5-0.1,8.3-6.3,8.4c-6.2,0.1-6.7-3.4-6.5-8.1C152.1,272.2,152,269.9,152,266.7z"/>
<path class="st86" d="M266.9,251.7c2.7,0,5.3,0.2,8,0c5.2-0.4,6.5,2.3,6.4,6.9c-0.1,5.4-3.2,6.5-7.5,6c-6.7-0.7-11.3,0.4-10.2,8.8
	c0.6,4.7,0.2,9.2-6.8,9.1c-7.7,0-5.8-5.3-6-9.6c-0.1-1.9,0-3.8,0-5.7C250.8,251.7,250.8,251.7,266.9,251.7z"/>
<path class="st86" d="M16.3,230.4c-2.7,0-5.3,0-8,0c-4.1,0-7.5-0.3-7.4-6c0-5.6,2.6-7.7,7.7-6.9c7.8,1.1,11.4-1.7,10.3-9.9
	c-0.6-4.9,1.1-8,6.9-7.8c5.5,0.2,6.1,3.4,6,7.6c0,2.7,0,5.3,0,8C31.5,233,33.3,230,16.3,230.4z"/>
<path class="st86" d="M130.6,118.2c-1.4,3.6,3.6,11.4-3.5,12.7c-8.3,1.5-17.4,2.3-25.8-0.8c-2.6-0.9-1.5-4.8-1.2-7.4
	c0.4-3.4,3-4.3,5.9-3.9c9.4,1.4,13.3-2.4,12-12c-0.6-4.4,2-6,6.2-6c4.1,0,6.6,1.3,6.5,5.8C130.6,110.2,130.6,113.6,130.6,118.2z"/>
<path class="st86" d="M229.5,216.9c-1.2,3.7,2.7,10.8-2.9,12.5c-8.2,2.5-17.4,1.7-26,0.2c-2.9-0.5-2-4.5-2-7.1c0-4,2.7-5.4,6.1-5
	c8.3,1,13.4-1.1,11.9-10.9c-0.7-4.7,1.5-6.8,6.5-6.9c5.3-0.1,6.5,2.7,6.4,7.1C229.5,210,229.5,213,229.5,216.9z"/>
<path class="st86" d="M215.1,131.5c-4.5,0-7.9,0-11.3,0c-4,0-5.1-2.4-5.1-5.9c0-3.8,0.6-7.3,5.4-6.6c10,1.4,14-2.4,12.7-12.5
	c-0.6-4.5,2.8-5.6,6.7-5.5c3.5,0.1,5.9,1.3,5.9,5.3c0,6.9,1.1,13.9-0.2,20.5C227.4,136,219,129.4,215.1,131.5z"/>
<path class="st86" d="M115.4,230.4c-1.9,0-3.8,0.1-5.7,0c-4.1-0.4-9.6,1.9-10-5.7c-0.3-7.6,4.5-7.8,9.8-7.2c6.6,0.7,9-2,8.3-8.5
	c-0.5-4.7-0.5-9.2,6.6-9.1c7.4,0.1,6,5.2,6.3,9.5c0.1,1.9,0.1,3.8,0.1,5.7C130.7,233.8,131.1,229.9,115.4,230.4z"/>
<path class="st86" d="M68.5,53.8c3,0,6.1,0.1,9.1,0c4.5-0.1,5.9,2.3,5.9,6.4c0,4-1.1,7.2-5.6,6.6c-9.3-1.3-13.5,1.9-12.1,11.7
	c0.7,5.1-2.6,6.3-7.1,6.3c-4.7,0-5.7-2.6-5.6-6.6c0.1-3,0-6.1,0-9.1C53,53.8,53,53.8,68.5,53.8z"/>
<path class="st86" d="M266.3,53.8c3.1,0,6.1,0.2,9.2,0c4.6-0.3,5.8,2.2,5.9,6.3c0.1,4.7-1.5,7.4-6.6,6.7c-7.8-1-12.7,0.7-11.1,10.2
	c0.8,5-1.5,7.8-7.1,7.8c-5.7,0-5.8-3.7-5.7-7.7c0.1-2.7,0-5.3,0-8C250.9,52.7,248.7,53.9,266.3,53.8z"/>
<path class="st86" d="M31.8,16.5c-1.2,4.7,3.2,13.1-2.9,15c-7.7,2.4-16.6,1.2-24.9,0.6c-4.2-0.3-2.9-4.7-3-7.5
	c-0.1-3.5,2.2-5.1,5.2-4.6C16,21.6,20.7,18.4,19,7.8c-0.8-4.7,2.4-5.7,6.4-5.7c4.1,0,6.6,1.2,6.5,5.8C31.7,10.6,31.8,13.3,31.8,16.5
	z"/>
<path class="st86" d="M165.4,230.3c-3.5-1-10.9,2.8-12.4-2.2c-2.5-8.2-2-17.4-0.1-25.9c0.8-3.6,5.1-2.2,8-2.1
	c3.7,0.1,4.3,2.9,3.9,5.6c-1.6,9.7,2.8,13,12,11.9c4.4-0.5,5.9,2.2,6,6.3c0,4.1-1.2,6.6-5.8,6.4
	C173.4,230.2,169.9,230.3,165.4,230.3z"/>
<path class="st86" d="M264.8,230.4c-3.8-1.7-11.6,3.4-13.2-3.3c-1.8-7.9-0.8-16.6,0-24.9c0.3-3.1,4.2-2.2,6.8-2.2
	c4,0,5.6,2.4,5.1,5.9c-1.3,9.5,2.5,13,12,11.6c5.3-0.8,5.9,3.3,6,7.5c0.1,4.9-2.9,5.5-6.7,5.4C271.7,230.4,268.7,230.4,264.8,230.4z
	"/>
<path class="st94" d="M265.3,32.5c-3.9-1.4-11.7,3.2-13.3-2.8c-2.1-7.8-1-16.6-0.4-24.8c0.2-3.1,4.2-2.6,6.8-2.6
	c4.9,0,5.4,3.8,5,7.2c-0.9,7.4,1,11.8,9.6,10.8c4.4-0.5,8.3-0.3,8.4,6c0.1,6.5-3.9,6.2-8.3,6.2C270.8,32.4,268.5,32.5,265.3,32.5z"
	/>
<path class="st94" d="M265.1,131.3c-3.8-1.8-11.6,3.5-13.3-2.9c-2-7.8-0.9-16.6-0.2-24.8c0.2-3,4.3-2.3,6.9-2.3c5.1,0,5,3.9,4.7,7.3
	c-0.7,7.2,1,11.9,9.7,10.7c4.4-0.6,8.2-0.2,8.4,6.1c0.2,6.7-4.4,5.8-8.4,6C270.6,131.4,268.3,131.3,265.1,131.3z"/>
<path class="st94" d="M166.3,32.5c-3.9-1.5-11.8,3.2-13.3-2.8c-2.1-7.8-0.9-16.6-0.3-24.8c0.2-3.3,4.2-2.4,6.7-2.5
	c4.1-0.1,5.4,2.7,4.9,6c-1.5,9.6,2.7,13.1,11.9,12c4.1-0.5,6.1,1.6,6.1,6c0,4.4-1.7,6.3-6,6.1C173.3,32.4,170.3,32.5,166.3,32.5z"/>
<path class="st84" d="M165.4,131.3c-3.5-0.8-10.9,2.6-12.4-2.2c-2.4-8.2-1.9-17.3,0-25.9c0.7-3,4.5-1.9,7.1-1.9
	c3.4,0.1,4.8,2.4,4.3,5.4c-1.5,10,2.3,14.1,12.5,12.5c4.7-0.7,5.5,2.8,5.5,6.7c0,3.8-1.8,5.6-5.6,5.5
	C173.4,131.3,170,131.3,165.4,131.3z"/>
<path class="st84" d="M67.2,230.3c-3.9-1.6-11.6,3.4-13.2-3.2c-1.8-7.9-0.7-16.6,0.1-24.8c0.3-3,4.3-2.4,6.9-2.2
	c4.9,0.3,4.9,4,4.7,7.5c-0.4,6.5,0.5,11.4,9,10.2c4.9-0.7,9.1-0.1,9,6.7c-0.1,6.7-4.8,5.6-8.8,5.8C72.6,230.4,70.3,230.3,67.2,230.3
	z"/>
<path class="st94" d="M65,110.8c0.5,2.6,1.1,5.2,1.6,7.9c1,3.2,3.7,3.5,6.3,3.2c6.8-0.6,8.5,3,7.7,8.9c-1.9,0.2-3.8,0.6-5.6,0.6
	c-23.7,0.4-24.2-0.1-21.7-23.7c0.3-2.6-0.4-6,3.4-6.1c3.4-0.1,8.2-2,8.4,4.4C62.1,107.5,62.3,109.1,65,110.8z"/>
<path class="st94" d="M83.1,23.2c1.2,6.1-0.9,9.5-7.5,9.3c-1.1,0-2.3,0-3.4,0C54,32.7,47.8,24,53.4,6.2c0.8-2.7,2.2-3.8,4.7-3.8
	c3.4-0.1,7.2-0.5,7.3,4.6c-4.5,11.9-2.6,15.1,9,15.2C77.3,22.3,80.2,22.9,83.1,23.2z"/>
<path class="st85" d="M83.1,23.2c-2.9-0.3-5.8-0.9-8.7-0.9c-11.5-0.1-13.5-3.4-9-15.2c0.1,9,3.2,14.6,13.7,12.4
	C81.3,19,83.4,20.1,83.1,23.2z"/>
<path class="st87" d="M80.7,130.8c0.8-5.9-0.9-9.5-7.7-8.9c-2.6,0.2-5.3,0-6.3-3.2c3.4,0,6.8-0.3,10.2-0.1
	C85.1,119.2,86.1,122.6,80.7,130.8z"/>
<path class="st87" d="M65,110.8c-2.7-1.7-3-3.3,0.1-4.9C66.2,107.5,66.2,109.2,65,110.8z"/>
</svg>
