<?xml version="1.0" encoding="utf-8"?>
<!-- Generator: Adobe Illustrator 24.0.2, SVG Export Plug-In . SVG Version: 6.00 Build 0)  -->
<svg version="1.1" id="Capa_1" xmlns="http://www.w3.org/2000/svg" xmlns:xlink="http://www.w3.org/1999/xlink" x="0px" y="0px"
	 viewBox="0 0 288 330.3" style="enable-background:new 0 0 288 330.3;" xml:space="preserve">
<style type="text/css">
	.st0{fill:#00CBAD;}
</style>
<path class="st0" d="M69.3,145.1c-9.2-5.7-15.3-13.4-16.3-23.4c-1.1-10.9-0.2-22.1-0.2-33.4c0.7,0.4,1.6,0.8,2.4,1.4
	c8.4,6.2,13.4,14.6,14,24.9C69.7,124.5,69.3,134.5,69.3,145.1z"/>
<path class="st0" d="M140.9,76.2c-9.5-5.9-15.2-13.8-16.6-24c-0.9-6.5-0.5-13.2-0.7-19.9c-0.1-4.2,0-8.5,0-12.7
	c0.3-0.2,0.5-0.5,0.8-0.7c2.9,2.7,6.1,5.1,8.6,8c5.3,6.2,7.8,13.6,7.8,21.8C141,57.6,140.9,66.5,140.9,76.2z"/>
<path class="st0" d="M52.2,48.7c0.1-7.9,2.1-14.5,6.5-20.1c2.6-3.3,5.7-6.5,9.2-8.7c7.6-4.9,15.7-9.3,23.6-13.8
	c0.4-0.2,0.9-0.4,1.7-0.6c-0.4,11.6-4.9,21-14.2,27.3C70.7,38.4,61.7,43.2,52.2,48.7z"/>
<path class="st0" d="M66.3,178.4c-10.1,5.3-19.9,6.6-29.4,2.4C27,176.4,17.8,170.5,7.8,165c5.4-3.5,10.8-4.9,16.4-4.7
	c4.5,0.2,9.4,0.6,13.3,2.5C47.1,167.3,56.2,172.8,66.3,178.4z"/>
<path class="st0" d="M31.5,151c9.9-5.3,19.5-6.7,28.8-2.6c10.1,4.5,19.5,10.4,29.7,16c-4.5,2.9-8.7,4.1-13.1,4.6
	c-5.5,0.7-11.2,0.5-16.2-2C51,162.1,41.6,156.6,31.5,151z"/>
<path class="st0" d="M45.6,115.1c-0.5,11.9-4.7,21.3-13.7,27.5c-8.5,5.9-17.7,10.7-27.4,16.5c0.3-2.8,0.4-4.8,0.8-6.7
	c1.5-8.3,5.4-15.5,12.3-20.2C26.3,126.1,35.7,121,45.6,115.1z"/>
<path class="st0" d="M45.5,88c-0.4,10.8-4.1,19.9-12.4,25.9c-8.8,6.4-18.6,11.6-28.5,17.6c-0.1-8.5,2.3-15.3,7-21.1
	c2.7-3.2,5.9-6.2,9.4-8.4c7.2-4.6,14.8-8.7,22.3-13C43.9,88.7,44.5,88.5,45.5,88z"/>
<path class="st0" d="M52.2,76.1c0.6-12.7,5.7-22.2,15.6-28.6c7.8-5.1,16.1-9.4,24.2-14.1c0.2-0.1,0.6-0.1,1.2-0.3
	c-0.1,7-2.1,13.1-5.8,18.7c-3.1,4.6-7.1,8.3-12,11C68.9,66.5,62.5,70.3,56,74C54.9,74.7,53.8,75.2,52.2,76.1z"/>
<path class="st0" d="M55.7,81.8c10.2-5.2,20.2-6.3,30-1.7c9.4,4.4,18.3,10,28,15.4c-4,2.7-7.9,3.8-11.9,4.4
	c-8.1,1.2-15.7-0.3-22.8-4.4c-7-4.1-14-8.1-21-12.2C57.4,83,56.8,82.6,55.7,81.8z"/>
<path class="st0" d="M137,82.8c-3.9,1.2-7.7,2.7-11.7,3.4c-6.5,1.1-13,0.5-18.8-2.6c-9-4.7-17.7-9.9-27-15.2
	c4.1-2.7,8.1-3.9,12.3-4.4c8.2-1.1,15.9,0.6,23,4.8c6.5,3.9,13.1,7.6,19.7,11.4c0.9,0.5,1.7,1.1,2.5,1.6
	C136.9,82.1,137,82.5,137,82.8z"/>
<path class="st0" d="M219.1,184.5c5.9,3.2,9.8,7.6,12.8,12.9c2.7,4.9,4.2,10.2,4.3,15.7c0.1,8.8,0.1,17.6,0.1,26.4
	c0,0.5-0.1,1-0.3,1.8c-6.2-3.5-10.7-8.3-13.4-14.5c-1.7-4-3.2-8.5-3.4-12.8C218.8,204.4,219.1,194.8,219.1,184.5z"/>
<path class="st0" d="M147.6,241.2c0.1-8.1,2.5-15.1,7.6-21c2.6-3.1,5.9-5.9,9.3-8.1c6.8-4.4,13.9-8.2,20.9-12.3
	c0.9-0.5,1.8-0.9,3.1-1.5c0.1,6.8-1.6,12.8-5.2,17.9c-2.9,3.9-6.3,7.8-10.3,10.5c-7.6,5.1-15.8,9.4-23.8,14
	C148.8,240.9,148.3,241,147.6,241.2z"/>
<path class="st0" d="M150.9,247.4c9.7-5.2,19.5-6.6,28.9-2.3c10,4.5,19.3,10.4,29.5,16c-9.3,5-18.3,6.2-27.6,3.1
	c-3.5-1.1-6.8-3-10.1-4.8C164.8,255.5,158.1,251.6,150.9,247.4z"/>
<path class="st0" d="M174.7,233.6c10.3-5.4,20.4-6.5,30.2-1.9c9.5,4.5,18.5,10.2,28.2,15.6c-10.9,5.7-21.5,6.5-31.9,1.3
	C192.4,244.3,183.9,238.9,174.7,233.6z"/>
<path class="st0" d="M188.9,171.2c-0.7,3.4-1.1,6.8-2.1,10.1c-2.1,6.6-5.8,12.4-11.5,16.2c-8.7,5.7-17.9,10.8-27.6,16.7
	c0.2-2.6,0.2-4.4,0.5-6.1c1.4-7.6,4.4-14.7,10.6-19.2c9.3-6.7,19.3-12.3,29.1-18.4C188.1,170.7,188.5,171,188.9,171.2z"/>
<path class="st0" d="M195.3,170.5c8.8,5.5,14,12.6,16.2,21.9c0.6,2.7,0.8,5.5,0.9,8.3c0.1,8.8,0,17.5,0,27c-5.1-3-8.7-6.6-11.5-10.9
	c-3.6-5.5-5.5-11.6-5.5-18.2C195.3,189.5,195.3,180.4,195.3,170.5z"/>
<path class="st0" d="M45.4,241.5c-8.3-5-13.4-11.8-15.8-20.5c-0.8-3.1-1.2-6.3-1.3-9.5c-0.2-8.8-0.1-17.6-0.1-26.8
	c1,0.5,1.7,0.7,2.4,1.2c8.8,6.2,14,14.8,14.6,25.5C45.9,221.1,45.4,231,45.4,241.5z"/>
<path class="st0" d="M18.2,261.2C9.7,266,1,267.3-7.9,264.4c-5.2-1.6-9.9-4.5-14.8-7.1c-5.6-3-11.1-6.4-17.1-9.9
	c6.6-3.8,13.2-5.2,20.2-4.5c5.4,0.5,10.5,2.3,15.2,5.1c6.5,3.9,13.1,7.6,19.6,11.4C16.2,259.9,17,260.4,18.2,261.2z"/>
<path class="st0" d="M-2.1,198.3c-0.5,11-4.3,20.2-12.9,26.3c-8.7,6.2-18.3,11.3-28,17.1c-0.1-6.3,1.4-11.5,3.9-16.4
	c2.9-5.5,7.1-10,12.4-13.2c7.6-4.5,15.2-8.8,22.9-13.2C-3.4,198.8-3,198.7-2.1,198.3z"/>
<path class="st0" d="M-2.1,170.7c-0.5,11.2-4.4,20.3-13,26.4c-8.7,6.2-18.1,11.2-28,17.1c0.1-2.2,0.1-3.6,0.3-4.9
	c1.5-10.6,6.8-18.9,15.9-24.5c7.4-4.6,15.1-8.8,22.6-13.1C-3.8,171.4-3.3,171.2-2.1,170.7z"/>
<path class="st0" d="M42.2,247.4c-10.2,5.3-20.3,6.5-30,1.9c-9.5-4.5-18.5-10.1-28.2-15.6c7.1-4.1,14.1-5.7,21.4-4.4
	c4.6,0.8,9.2,2.5,13.4,4.6C26.6,238,34.1,242.7,42.2,247.4z"/>
<path class="st0" d="M21.5,227.8c-10.1-6.5-15.9-15.1-16.7-26.3c-0.7-10-0.1-20.1-0.1-30.7c1,0.5,1.8,0.8,2.5,1.3
	c8.7,6.4,13.9,14.9,14.3,25.7C21.8,207.6,21.5,217.3,21.5,227.8z"/>
<path class="st0" d="M331.2,241.5c-8.3-5-13.4-11.8-15.8-20.5c-0.8-3.1-1.2-6.3-1.3-9.5c-0.2-8.8-0.1-17.6-0.1-26.8
	c1,0.5,1.7,0.7,2.4,1.2c8.8,6.2,14,14.8,14.6,25.5C331.7,221.1,331.2,231,331.2,241.5z"/>
<path class="st0" d="M304,261.2c-8.5,4.8-17.2,6.1-26.1,3.2c-5.2-1.6-9.9-4.5-14.8-7.1c-5.6-3-11.1-6.4-17.1-9.9
	c6.6-3.8,13.2-5.2,20.2-4.5c5.4,0.5,10.5,2.3,15.2,5.1c6.5,3.9,13.1,7.6,19.6,11.4C302,259.9,302.8,260.4,304,261.2z"/>
<path class="st0" d="M283.7,198.3c-0.5,11-4.3,20.2-12.9,26.3c-8.7,6.2-18.3,11.3-28,17.1c-0.1-6.3,1.4-11.5,3.9-16.4
	c2.9-5.5,7.1-10,12.4-13.2c7.6-4.5,15.2-8.8,22.9-13.2C282.4,198.8,282.8,198.7,283.7,198.3z"/>
<path class="st0" d="M283.7,170.7c-0.5,11.2-4.4,20.3-13,26.4c-8.7,6.2-18.1,11.2-28,17.1c0.1-2.2,0.1-3.6,0.3-4.9
	c1.5-10.6,6.8-18.9,15.9-24.5c7.4-4.6,15.1-8.8,22.6-13.1C282,171.4,282.5,171.2,283.7,170.7z"/>
<path class="st0" d="M328,247.4c-10.2,5.3-20.3,6.5-30,1.9c-9.5-4.5-18.5-10.1-28.2-15.6c7.1-4.1,14.1-5.7,21.4-4.4
	c4.6,0.8,9.2,2.5,13.4,4.6C312.4,238,319.9,242.7,328,247.4z"/>
<path class="st0" d="M307.3,227.8c-10.1-6.5-15.9-15.1-16.7-26.3c-0.7-10-0.1-20.1-0.1-30.7c1,0.5,1.8,0.8,2.5,1.3
	c8.7,6.4,13.9,14.9,14.3,25.7C307.6,207.6,307.3,217.3,307.3,227.8z"/>
<path class="st0" d="M-2.3,325.7c-8.3-5-13.4-11.8-15.8-20.5c-0.8-3.1-1.2-6.3-1.3-9.5c-0.2-8.8-0.1-17.6-0.1-26.8
	c1,0.5,1.7,0.7,2.4,1.2c8.8,6.2,14,14.8,14.6,25.5C-1.8,305.3-2.3,315.2-2.3,325.7z"/>
<path class="st0" d="M-29.5,345.4c-8.5,4.8-17.2,6.1-26.1,3.2c-5.2-1.6-9.9-4.5-14.8-7.1c-5.6-3-11.1-6.4-17.1-9.9
	c6.6-3.8,13.2-5.2,20.2-4.5c5.4,0.5,10.5,2.3,15.2,5.1c6.5,3.9,13.1,7.6,19.6,11.4C-31.5,344.1-30.7,344.6-29.5,345.4z"/>
<path class="st0" d="M-49.8,282.5c-0.5,11-4.3,20.2-12.9,26.3c-8.7,6.2-18.3,11.3-28,17.1c-0.1-6.3,1.4-11.5,3.9-16.4
	c2.9-5.5,7.1-10,12.4-13.2c7.6-4.5,15.2-8.8,22.9-13.2C-51.1,283-50.7,282.9-49.8,282.5z"/>
<path class="st0" d="M-49.8,254.9c-0.5,11.2-4.4,20.3-13,26.4c-8.7,6.2-18.1,11.2-28,17.1c0.1-2.2,0.1-3.6,0.3-4.9
	c1.5-10.6,6.8-18.9,15.9-24.5c7.4-4.6,15.1-8.8,22.6-13.1C-51.5,255.6-51,255.4-49.8,254.9z"/>
<path class="st0" d="M-5.5,331.6c-10.2,5.3-20.3,6.5-30,1.9C-45,329-54,323.4-63.7,317.9c7.1-4.1,14.1-5.7,21.4-4.4
	c4.6,0.8,9.2,2.5,13.4,4.6C-21.1,322.2-13.6,326.9-5.5,331.6z"/>
<path class="st0" d="M-26.2,312c-10.1-6.5-15.9-15.1-16.7-26.3c-0.7-10-0.1-20.1-0.1-30.7c1,0.5,1.8,0.8,2.5,1.3
	c8.7,6.4,13.9,14.9,14.3,25.7C-25.9,291.8-26.2,301.5-26.2,312z"/>
<path class="st0" d="M188.5-6.3c-8.3-5-13.4-11.8-15.8-20.5c-0.8-3.1-1.2-6.3-1.3-9.5c-0.2-8.8-0.1-17.6-0.1-26.8
	c1,0.5,1.7,0.7,2.4,1.2c8.8,6.2,14,14.8,14.6,25.5C189-26.7,188.5-16.8,188.5-6.3z"/>
<path class="st0" d="M161.3,13.4c-8.5,4.8-17.2,6.1-26.1,3.2c-5.2-1.6-9.9-4.5-14.8-7.1c-5.6-3-11.1-6.4-17.1-9.9
	c6.6-3.8,13.2-5.2,20.2-4.5c5.4,0.5,10.5,2.3,15.2,5.1c6.5,3.9,13.1,7.6,19.6,11.4C159.3,12.1,160.1,12.6,161.3,13.4z"/>
<path class="st0" d="M141-49.5c-0.5,11-4.3,20.2-12.9,26.3c-8.7,6.2-18.3,11.3-28,17.1c-0.1-6.3,1.4-11.5,3.9-16.4
	c2.9-5.5,7.1-10,12.4-13.2c7.6-4.5,15.2-8.8,22.9-13.2C139.7-49,140.1-49.1,141-49.5z"/>
<path class="st0" d="M141-77.1c-0.5,11.2-4.4,20.3-13,26.4c-8.7,6.2-18.1,11.2-28,17.1c0.1-2.2,0.1-3.6,0.3-4.9
	c1.5-10.6,6.8-18.9,15.9-24.5c7.4-4.6,15.1-8.8,22.6-13.1C139.3-76.4,139.8-76.6,141-77.1z"/>
<path class="st0" d="M185.3-0.4c-10.2,5.3-20.3,6.5-30,1.9c-9.5-4.5-18.5-10.1-28.2-15.6c7.1-4.1,14.1-5.7,21.4-4.4
	c4.6,0.8,9.2,2.5,13.4,4.6C169.7-9.8,177.2-5.1,185.3-0.4z"/>
<path class="st0" d="M164.6-20c-10.1-6.5-15.9-15.1-16.7-26.3c-0.7-10-0.1-20.1-0.1-30.7c1,0.5,1.8,0.8,2.5,1.3
	c8.7,6.4,13.9,14.9,14.3,25.7C164.9-40.2,164.6-30.5,164.6-20z"/>
<path class="st0" d="M93.2,158.9c-9.6-6.1-15.6-14.1-16.5-24.5c-0.9-10.7-0.2-21.5-0.2-32.7c1.4,1,2.7,1.8,3.8,2.7
	c8.1,6.7,12.6,15.3,12.9,25.8C93.3,139.6,93.2,148.9,93.2,158.9z"/>
<path class="st0" d="M116.8,62.3c-8.8-5.5-14.2-12.9-16.1-22.6c-0.8-4.2-0.7-8.6-0.8-13c-0.1-6.9,0-13.9,0-21.3
	c1.1,0.6,1.9,0.9,2.6,1.4c8.2,6,13.5,14,14.1,24.1C117.3,41.1,116.8,51.4,116.8,62.3z"/>
<path class="st0" d="M140.4,198.3c0.3,0.8,0.5,1,0.5,1.3c-0.1,10.3,0.4,20.6-0.5,30.8c-0.9,10.7-6.9,18.8-15.9,24.6
	c-0.3-0.2-0.6-0.3-0.6-0.4c0.1-10.9-0.4-21.8,0.6-32.6C125.4,211.7,131.5,204.1,140.4,198.3z"/>
<path class="st0" d="M52.4,225.8c1.3,0.7,2.3,1.3,3.4,1.9c6.9,4,13.9,7.9,20.7,12c9.6,5.8,14.9,14.4,16.5,25.5c0.2,1.1,0,2.2,0,3.8
	c-2-1.1-3.8-2.1-5.6-3.1c-5.9-3.4-11.9-6.8-17.8-10.3c-10.7-6.3-16.4-15.9-17.4-28.2C52.2,227,52.3,226.6,52.4,225.8z"/>
<path class="st0" d="M93.2,242c-10.2-6.3-20.1-11.6-29.1-18.2c-8.1-5.9-11.5-14.9-11.9-25.3c0.9,0.3,1.5,0.4,2.1,0.8
	c7.4,4.2,14.8,8.4,22.1,12.8c9.5,5.7,14.9,14.2,16.6,25.1C93.1,238.4,93.1,239.7,93.2,242z"/>
<path class="st0" d="M113.8,178.4c-8.7,5-16.5,9.7-24.6,14.2c-9.4,5.2-19.2,5.6-29.1,1.9c-1.3-0.5-2.6-1.2-4.3-2
	c1-0.7,1.5-1.2,2.1-1.5c7.4-4.3,14.6-8.7,22.1-12.7C90.9,172.3,101.9,172.5,113.8,178.4z"/>
<path class="st0" d="M136.9,192.3c-11.3,5.7-20.9,14.5-33.4,17.5c-8,1.9-16.9,0.4-23.6-3.7c0.5-0.4,0.8-0.9,1.3-1.2
	c7.7-4.5,15.3-9.1,23.2-13.3C115.2,186.1,126.1,186.4,136.9,192.3z"/>
<path class="st0" d="M116.6,212c0,11.4,0.7,22.3-0.2,33.1c-0.8,9.6-6.4,17.1-14.4,22.7c-0.3,0.2-0.7,0.4-1.1,0.6
	c-0.2,0.1-0.4,0.1-0.8,0.1c-0.1-0.8-0.2-1.6-0.2-2.3c0-8.5-0.2-17,0-25.5C100.3,228.4,106.1,219,116.6,212z"/>
<path class="st0" d="M92.6,281c0.3,0.8,0.5,1,0.5,1.3c-0.1,10.3,0.4,20.6-0.5,30.8c-0.9,10.7-6.9,18.8-15.9,24.6
	c-0.3-0.2-0.6-0.3-0.6-0.4c0.1-10.9-0.4-21.8,0.6-32.6C77.6,294.4,83.7,286.8,92.6,281z"/>
<path class="st0" d="M4.6,308.5c1.3,0.7,2.3,1.3,3.4,1.9c6.9,4,13.9,7.9,20.7,12c9.6,5.8,14.9,14.4,16.5,25.5c0.2,1.1,0,2.2,0,3.8
	c-2-1.1-3.8-2.1-5.6-3.1c-5.9-3.4-11.9-6.8-17.8-10.3C11.1,332,5.4,322.4,4.4,310.1C4.4,309.7,4.5,309.3,4.6,308.5z"/>
<path class="st0" d="M45.4,324.7c-10.2-6.3-20.1-11.6-29.1-18.2c-8.1-5.9-11.5-14.9-11.9-25.3c0.9,0.3,1.5,0.4,2.1,0.8
	c7.4,4.2,14.8,8.4,22.1,12.8c9.5,5.7,14.9,14.2,16.6,25.1C45.3,321.1,45.3,322.4,45.4,324.7z"/>
<path class="st0" d="M66,261.1c-8.7,5-16.5,9.7-24.6,14.2c-9.4,5.2-19.2,5.6-29.1,1.9c-1.3-0.5-2.6-1.2-4.3-2c1-0.7,1.5-1.2,2.1-1.5
	c7.4-4.3,14.6-8.7,22.1-12.7C43.1,255,54.1,255.2,66,261.1z"/>
<path class="st0" d="M89.1,275c-11.3,5.7-20.9,14.5-33.4,17.5c-8,1.9-16.9,0.4-23.6-3.7c0.5-0.4,0.8-0.9,1.3-1.2
	c7.7-4.5,15.3-9.1,23.2-13.3C67.4,268.8,78.3,269.1,89.1,275z"/>
<path class="st0" d="M68.8,294.7c0,11.4,0.7,22.3-0.2,33.1c-0.8,9.6-6.4,17.1-14.4,22.7c-0.3,0.2-0.7,0.4-1.1,0.6
	c-0.2,0.1-0.4,0.1-0.8,0.1c-0.1-0.8-0.2-1.6-0.2-2.3c0-8.5-0.2-17,0-25.5C52.5,311.1,58.3,301.7,68.8,294.7z"/>
<path class="st0" d="M44.9,363.8c0.3,0.8,0.5,1,0.5,1.3c-0.1,10.3,0.4,20.6-0.5,30.8C44,406.6,38,414.7,29,420.5
	c-0.3-0.2-0.6-0.3-0.6-0.4c0.1-10.9-0.4-21.8,0.6-32.6C29.9,377.2,36,369.6,44.9,363.8z"/>
<path class="st0" d="M-43.1,391.3c1.3,0.7,2.3,1.3,3.4,1.9c6.9,4,13.9,7.9,20.7,12c9.6,5.8,14.9,14.4,16.5,25.5c0.2,1.1,0,2.2,0,3.8
	c-2-1.1-3.8-2.1-5.6-3.1c-5.9-3.4-11.9-6.8-17.8-10.3c-10.7-6.3-16.4-15.9-17.4-28.2C-43.3,392.5-43.2,392.1-43.1,391.3z"/>
<path class="st0" d="M-2.3,407.5c-10.2-6.3-20.1-11.6-29.1-18.2c-8.1-5.9-11.5-14.9-11.9-25.3c0.9,0.3,1.5,0.4,2.1,0.8
	c7.4,4.2,14.8,8.4,22.1,12.8c9.5,5.7,14.9,14.2,16.6,25.1C-2.4,403.9-2.4,405.2-2.3,407.5z"/>
<path class="st0" d="M18.3,343.9c-8.7,5-16.5,9.7-24.6,14.2c-9.4,5.2-19.2,5.6-29.1,1.9c-1.3-0.5-2.6-1.2-4.3-2
	c1-0.7,1.5-1.2,2.1-1.5c7.4-4.3,14.6-8.7,22.1-12.7C-4.6,337.8,6.4,338,18.3,343.9z"/>
<path class="st0" d="M41.4,357.8c-11.3,5.7-20.9,14.5-33.4,17.5c-8,1.9-16.9,0.4-23.6-3.7c0.5-0.4,0.8-0.9,1.3-1.2
	c7.7-4.5,15.3-9.1,23.2-13.3C19.7,351.6,30.6,351.9,41.4,357.8z"/>
<path class="st0" d="M21.1,377.5c0,11.4,0.7,22.3-0.2,33.1c-0.8,9.6-6.4,17.1-14.4,22.7c-0.3,0.2-0.7,0.4-1.1,0.6
	C5.2,434,5,434,4.6,434c-0.1-0.8-0.2-1.6-0.2-2.3c0-8.5-0.2-17,0-25.5C4.8,393.9,10.6,384.5,21.1,377.5z"/>
<path class="st0" d="M187.9,115.3c0.3,0.8,0.5,1,0.5,1.3c-0.1,10.3,0.4,20.6-0.5,30.8C187,158.1,181,166.2,172,172
	c-0.3-0.2-0.6-0.3-0.6-0.4c0.1-10.9-0.4-21.8,0.6-32.6C172.9,128.7,179,121.1,187.9,115.3z"/>
<path class="st0" d="M99.9,142.8c1.3,0.7,2.3,1.3,3.4,1.9c6.9,4,13.9,7.9,20.7,12c9.6,5.8,14.9,14.4,16.5,25.5c0.2,1.1,0,2.2,0,3.8
	c-2-1.1-3.8-2.1-5.6-3.1c-5.9-3.4-11.9-6.8-17.8-10.3c-10.7-6.3-16.4-15.9-17.4-28.2C99.7,144,99.8,143.6,99.9,142.8z"/>
<path class="st0" d="M140.7,159c-10.2-6.3-20.1-11.6-29.1-18.2c-8.1-5.9-11.5-14.9-11.9-25.3c0.9,0.3,1.5,0.4,2.1,0.8
	c7.4,4.2,14.8,8.4,22.1,12.8c9.5,5.7,14.9,14.2,16.6,25.1C140.6,155.4,140.6,156.7,140.7,159z"/>
<path class="st0" d="M161.3,95.4c-8.7,5-16.5,9.7-24.6,14.2c-9.4,5.2-19.2,5.6-29.1,1.9c-1.3-0.5-2.6-1.2-4.3-2
	c1-0.7,1.5-1.2,2.1-1.5c7.4-4.3,14.6-8.7,22.1-12.7C138.4,89.3,149.4,89.5,161.3,95.4z"/>
<path class="st0" d="M184.4,109.3c-11.3,5.7-20.9,14.5-33.4,17.5c-8,1.9-16.9,0.4-23.6-3.7c0.5-0.4,0.8-0.9,1.3-1.2
	c7.7-4.5,15.3-9.1,23.2-13.3C162.7,103.1,173.6,103.4,184.4,109.3z"/>
<path class="st0" d="M164.1,129c0,11.4,0.7,22.3-0.2,33.1c-0.8,9.6-6.4,17.1-14.4,22.7c-0.3,0.2-0.7,0.4-1.1,0.6
	c-0.2,0.1-0.4,0.1-0.8,0.1c-0.1-0.8-0.2-1.6-0.2-2.3c0-8.5-0.2-17,0-25.5C147.8,145.4,153.6,136,164.1,129z"/>
<path class="st0" d="M235.7,32.6c0.3,0.8,0.5,1,0.5,1.3c-0.1,10.3,0.4,20.6-0.5,30.8c-0.9,10.7-6.9,18.8-15.9,24.6
	c-0.3-0.2-0.6-0.3-0.6-0.4c0.1-10.9-0.4-21.8,0.6-32.6C220.7,46,226.8,38.4,235.7,32.6z"/>
<path class="st0" d="M147.7,60.1c1.3,0.7,2.3,1.3,3.4,1.9c6.9,4,13.9,7.9,20.7,12c9.6,5.8,14.9,14.4,16.5,25.5c0.2,1.1,0,2.2,0,3.8
	c-2-1.1-3.8-2.1-5.6-3.1c-5.9-3.4-11.9-6.8-17.8-10.3c-10.7-6.3-16.4-15.9-17.4-28.2C147.5,61.3,147.6,60.9,147.7,60.1z"/>
<path class="st0" d="M188.5,76.3c-10.2-6.3-20.1-11.6-29.1-18.2c-8.1-5.9-11.5-14.9-11.9-25.3c0.9,0.3,1.5,0.4,2.1,0.8
	c7.4,4.2,14.8,8.4,22.1,12.8c9.5,5.7,14.9,14.2,16.6,25.1C188.4,72.7,188.4,74,188.5,76.3z"/>
<path class="st0" d="M209.1,12.7c-8.7,5-16.5,9.7-24.6,14.2c-9.4,5.2-19.2,5.6-29.1,1.9c-1.3-0.5-2.6-1.2-4.3-2
	c1-0.7,1.5-1.2,2.1-1.5c7.4-4.3,14.6-8.7,22.1-12.7C186.2,6.6,197.2,6.8,209.1,12.7z"/>
<path class="st0" d="M232.2,26.6c-11.3,5.7-20.9,14.5-33.4,17.5c-8,1.9-16.9,0.4-23.6-3.7c0.5-0.4,0.8-0.9,1.3-1.2
	c7.7-4.5,15.3-9.1,23.2-13.3C210.5,20.4,221.4,20.7,232.2,26.6z"/>
<path class="st0" d="M211.9,46.3c0,11.4,0.7,22.3-0.2,33.1c-0.8,9.6-6.4,17.1-14.4,22.7c-0.3,0.2-0.7,0.4-1.1,0.6
	c-0.2,0.1-0.4,0.1-0.8,0.1c-0.1-0.8-0.2-1.6-0.2-2.3c0-8.5-0.2-17,0-25.5C195.6,62.7,201.4,53.3,211.9,46.3z"/>
<path class="st0" d="M283.4-50.1c0.3,0.8,0.5,1,0.5,1.3c-0.1,10.3,0.4,20.6-0.5,30.8c-0.9,10.7-6.9,18.8-15.9,24.6
	c-0.3-0.2-0.6-0.3-0.6-0.4c0.1-10.9-0.4-21.8,0.6-32.6C268.4-36.7,274.5-44.3,283.4-50.1z"/>
<path class="st0" d="M195.4-22.6c1.3,0.7,2.3,1.3,3.4,1.9c6.9,4,13.9,7.9,20.7,12c9.6,5.8,14.9,14.4,16.5,25.5c0.2,1.1,0,2.2,0,3.8
	c-2-1.1-3.8-2.1-5.6-3.1c-5.9-3.4-11.9-6.8-17.8-10.3C201.9,0.9,196.2-8.7,195.2-21C195.2-21.4,195.3-21.8,195.4-22.6z"/>
<path class="st0" d="M236.2-6.4C226-12.7,216.1-18,207.1-24.6c-8.1-5.9-11.5-14.9-11.9-25.3c0.9,0.3,1.5,0.4,2.1,0.8
	c7.4,4.2,14.8,8.4,22.1,12.8c9.5,5.7,14.9,14.2,16.6,25.1C236.1-10,236.1-8.7,236.2-6.4z"/>
<path class="st0" d="M256.8-70c-8.7,5-16.5,9.7-24.6,14.2c-9.4,5.2-19.2,5.6-29.1,1.9c-1.3-0.5-2.6-1.2-4.3-2c1-0.7,1.5-1.2,2.1-1.5
	c7.4-4.3,14.6-8.7,22.1-12.7C233.9-76.1,244.9-75.9,256.8-70z"/>
<path class="st0" d="M279.9-56.1c-11.3,5.7-20.9,14.5-33.4,17.5c-8,1.9-16.9,0.4-23.6-3.7c0.5-0.4,0.8-0.9,1.3-1.2
	c7.7-4.5,15.3-9.1,23.2-13.3C258.2-62.3,269.1-62,279.9-56.1z"/>
<path class="st0" d="M259.6-36.4c0,11.4,0.7,22.3-0.2,33.1c-0.8,9.6-6.4,17.1-14.4,22.7c-0.3,0.2-0.7,0.4-1.1,0.6
	c-0.2,0.1-0.4,0.1-0.8,0.1c-0.1-0.8-0.2-1.6-0.2-2.3c0-8.5-0.2-17,0-25.5C243.3-20,249.1-29.4,259.6-36.4z"/>
<path class="st0" d="M-2,115.6c0.3,0.8,0.5,1,0.5,1.3c-0.1,10.3,0.4,20.6-0.5,30.8c-0.9,10.7-6.9,18.8-15.9,24.6
	c-0.3-0.2-0.6-0.3-0.6-0.4c0.1-10.9-0.4-21.8,0.6-32.6C-17,129-10.9,121.4-2,115.6z"/>
<path class="st0" d="M-90,143.1c1.3,0.7,2.3,1.3,3.4,1.9c6.9,4,13.9,7.9,20.7,12c9.6,5.8,14.9,14.4,16.5,25.5c0.2,1.1,0,2.2,0,3.8
	c-2-1.1-3.8-2.1-5.6-3.1c-5.9-3.4-11.9-6.8-17.8-10.3c-10.7-6.3-16.4-15.9-17.4-28.2C-90.2,144.3-90.1,143.9-90,143.1z"/>
<path class="st0" d="M-49.2,159.3c-10.2-6.3-20.1-11.6-29.1-18.2c-8.1-5.9-11.5-14.9-11.9-25.3c0.9,0.3,1.5,0.4,2.1,0.8
	c7.4,4.2,14.8,8.4,22.1,12.8c9.5,5.7,14.9,14.2,16.6,25.1C-49.3,155.7-49.3,157-49.2,159.3z"/>
<path class="st0" d="M-28.6,95.7c-8.7,5-16.5,9.7-24.6,14.2c-9.4,5.2-19.2,5.6-29.1,1.9c-1.3-0.5-2.6-1.2-4.3-2
	c1-0.7,1.5-1.2,2.1-1.5c7.4-4.3,14.6-8.7,22.1-12.7C-51.5,89.6-40.5,89.8-28.6,95.7z"/>
<path class="st0" d="M-5.5,109.6c-11.3,5.7-20.9,14.5-33.4,17.5c-8,1.9-16.9,0.4-23.6-3.7c0.5-0.4,0.8-0.9,1.3-1.2
	c7.7-4.5,15.3-9.1,23.2-13.3C-27.2,103.4-16.3,103.7-5.5,109.6z"/>
<path class="st0" d="M-25.8,129.3c0,11.4,0.7,22.3-0.2,33.1c-0.8,9.6-6.4,17.1-14.4,22.7c-0.3,0.2-0.7,0.4-1.1,0.6
	c-0.2,0.1-0.4,0.1-0.8,0.1c-0.1-0.8-0.2-1.6-0.2-2.3c0-8.5-0.2-17,0-25.5C-42.1,145.7-36.3,136.3-25.8,129.3z"/>
<path class="st0" d="M-49.8,198.4c0.3,0.8,0.5,1,0.5,1.3c-0.1,10.3,0.4,20.6-0.5,30.8c-0.9,10.7-6.9,18.8-15.9,24.6
	c-0.3-0.2-0.6-0.3-0.6-0.4c0.1-10.9-0.4-21.8,0.6-32.6C-64.8,211.8-58.7,204.2-49.8,198.4z"/>
<path class="st0" d="M-137.8,225.9c1.3,0.7,2.3,1.3,3.4,1.9c6.9,4,13.9,7.9,20.7,12c9.6,5.8,14.9,14.4,16.5,25.5
	c0.2,1.1,0,2.2,0,3.8c-2-1.1-3.8-2.1-5.6-3.1c-5.9-3.4-11.9-6.8-17.8-10.3c-10.7-6.3-16.4-15.9-17.4-28.2
	C-138,227.1-137.9,226.7-137.8,225.9z"/>
<path class="st0" d="M-97,242.1c-10.2-6.3-20.1-11.6-29.1-18.2c-8.1-5.9-11.5-14.9-11.9-25.3c0.9,0.3,1.5,0.4,2.1,0.8
	c7.4,4.2,14.8,8.4,22.1,12.8c9.5,5.7,14.9,14.2,16.6,25.1C-97.1,238.5-97.1,239.8-97,242.1z"/>
<path class="st0" d="M-76.4,178.5c-8.7,5-16.5,9.7-24.6,14.2c-9.4,5.2-19.2,5.6-29.1,1.9c-1.3-0.5-2.6-1.2-4.3-2
	c1-0.7,1.5-1.2,2.1-1.5c7.4-4.3,14.6-8.7,22.1-12.7C-99.3,172.4-88.3,172.6-76.4,178.5z"/>
<path class="st0" d="M-53.3,192.4c-11.3,5.7-20.9,14.5-33.4,17.5c-8,1.9-16.9,0.4-23.6-3.7c0.5-0.4,0.8-0.9,1.3-1.2
	c7.7-4.5,15.3-9.1,23.2-13.3C-75,186.2-64.1,186.5-53.3,192.4z"/>
<path class="st0" d="M-73.6,212.1c0,11.4,0.7,22.3-0.2,33.1c-0.8,9.6-6.4,17.1-14.4,22.7c-0.3,0.2-0.7,0.4-1.1,0.6
	c-0.2,0.1-0.4,0.1-0.8,0.1c-0.1-0.8-0.2-1.6-0.2-2.3c0-8.5-0.2-17,0-25.5C-89.9,228.5-84.1,219.1-73.6,212.1z"/>
<path class="st0" d="M-97.6,281.1c0.3,0.8,0.5,1,0.5,1.3c-0.1,10.3,0.4,20.6-0.5,30.8c-0.9,10.7-6.9,18.8-15.9,24.6
	c-0.3-0.2-0.6-0.3-0.6-0.4c0.1-10.9-0.4-21.8,0.6-32.6C-112.6,294.5-106.5,286.9-97.6,281.1z"/>
<path class="st0" d="M-185.6,308.6c1.3,0.7,2.3,1.3,3.4,1.9c6.9,4,13.9,7.9,20.7,12c9.6,5.8,14.9,14.4,16.5,25.5
	c0.2,1.1,0,2.2,0,3.8c-2-1.1-3.8-2.1-5.6-3.1c-5.9-3.4-11.9-6.8-17.8-10.3c-10.7-6.3-16.4-15.9-17.4-28.2
	C-185.8,309.8-185.7,309.4-185.6,308.6z"/>
<path class="st0" d="M-144.8,324.8c-10.2-6.3-20.1-11.6-29.1-18.2c-8.1-5.9-11.5-14.9-11.9-25.3c0.9,0.3,1.5,0.4,2.1,0.8
	c7.4,4.2,14.8,8.4,22.1,12.8c9.5,5.7,14.9,14.2,16.6,25.1C-144.9,321.2-144.9,322.5-144.8,324.8z"/>
<path class="st0" d="M-124.2,261.2c-8.7,5-16.5,9.7-24.6,14.2c-9.4,5.2-19.2,5.6-29.1,1.9c-1.3-0.5-2.6-1.2-4.3-2
	c1-0.7,1.5-1.2,2.1-1.5c7.4-4.3,14.6-8.7,22.1-12.7C-147.1,255.1-136.1,255.3-124.2,261.2z"/>
<path class="st0" d="M-101.1,275.1c-11.3,5.7-20.9,14.5-33.4,17.5c-8,1.9-16.9,0.4-23.6-3.7c0.5-0.4,0.8-0.9,1.3-1.2
	c7.7-4.5,15.3-9.1,23.2-13.3C-122.8,268.9-111.9,269.2-101.1,275.1z"/>
<path class="st0" d="M-121.4,294.8c0,11.4,0.7,22.3-0.2,33.1c-0.8,9.6-6.4,17.1-14.4,22.7c-0.3,0.2-0.7,0.4-1.1,0.6
	c-0.2,0.1-0.4,0.1-0.8,0.1c-0.1-0.8-0.2-1.6-0.2-2.3c0-8.5-0.2-17,0-25.5C-137.7,311.2-131.9,301.8-121.4,294.8z"/>
<path class="st0" d="M93.2-50.1c0.3,0.8,0.5,1,0.5,1.3c-0.1,10.3,0.4,20.6-0.5,30.8C92.3-7.3,86.3,0.8,77.3,6.6
	c-0.3-0.2-0.6-0.3-0.6-0.4c0.1-10.9-0.4-21.8,0.6-32.6C78.2-36.7,84.3-44.3,93.2-50.1z"/>
<path class="st0" d="M5.2-22.6c1.3,0.7,2.3,1.3,3.4,1.9c6.9,4,13.9,7.9,20.7,12c9.6,5.8,14.9,14.4,16.5,25.5c0.2,1.1,0,2.2,0,3.8
	c-2-1.1-3.8-2.1-5.6-3.1c-5.9-3.4-11.9-6.8-17.8-10.3C11.7,0.9,6-8.7,5-21C5-21.4,5.1-21.8,5.2-22.6z"/>
<path class="st0" d="M46-6.4C35.8-12.7,25.9-18,16.9-24.6C8.8-30.5,5.4-39.5,5-49.9c0.9,0.3,1.5,0.4,2.1,0.8
	c7.4,4.2,14.8,8.4,22.1,12.8c9.5,5.7,14.9,14.2,16.6,25.1C45.9-10,45.9-8.7,46-6.4z"/>
<path class="st0" d="M66.6-70c-8.7,5-16.5,9.7-24.6,14.2c-9.4,5.2-19.2,5.6-29.1,1.9c-1.3-0.5-2.6-1.2-4.3-2c1-0.7,1.5-1.2,2.1-1.5
	c7.4-4.3,14.6-8.7,22.1-12.7C43.7-76.1,54.7-75.9,66.6-70z"/>
<path class="st0" d="M89.7-56.1c-11.3,5.7-20.9,14.5-33.4,17.5c-8,1.9-16.9,0.4-23.6-3.7c0.5-0.4,0.8-0.9,1.3-1.2
	c7.7-4.5,15.3-9.1,23.2-13.3C68-62.3,78.9-62,89.7-56.1z"/>
<path class="st0" d="M69.4-36.4c0,11.4,0.7,22.3-0.2,33.1c-0.8,9.6-6.4,17.1-14.4,22.7c-0.3,0.2-0.7,0.4-1.1,0.6
	c-0.2,0.1-0.4,0.1-0.8,0.1c-0.1-0.8-0.2-1.6-0.2-2.3c0-8.5-0.2-17,0-25.5C53.1-20,58.9-29.4,69.4-36.4z"/>
<path class="st0" d="M141-132.8c0.3,0.8,0.5,1,0.5,1.3c-0.1,10.3,0.4,20.6-0.5,30.8c-0.9,10.7-6.9,18.8-15.9,24.6
	c-0.3-0.2-0.6-0.3-0.6-0.4c0.1-10.9-0.4-21.8,0.6-32.6C126-119.4,132.1-127,141-132.8z"/>
<path class="st0" d="M53-105.3c1.3,0.7,2.3,1.3,3.4,1.9c6.9,4,13.9,7.9,20.7,12C86.7-85.6,92-77,93.6-65.9c0.2,1.1,0,2.2,0,3.8
	c-2-1.1-3.8-2.1-5.6-3.1c-5.9-3.4-11.9-6.8-17.8-10.3c-10.7-6.3-16.4-15.9-17.4-28.2C52.8-104.1,52.9-104.5,53-105.3z"/>
<path class="st0" d="M93.8-89.1c-10.2-6.3-20.1-11.6-29.1-18.2c-8.1-5.9-11.5-14.9-11.9-25.3c0.9,0.3,1.5,0.4,2.1,0.8
	c7.4,4.2,14.8,8.4,22.1,12.8c9.5,5.7,14.9,14.2,16.6,25.1C93.7-92.7,93.7-91.4,93.8-89.1z"/>
<path class="st0" d="M114.4-152.7c-8.7,5-16.5,9.7-24.6,14.2c-9.4,5.2-19.2,5.6-29.1,1.9c-1.3-0.5-2.6-1.2-4.3-2
	c1-0.7,1.5-1.2,2.1-1.5c7.4-4.3,14.6-8.7,22.1-12.7C91.5-158.8,102.5-158.6,114.4-152.7z"/>
<path class="st0" d="M137.5-138.8c-11.3,5.7-20.9,14.5-33.4,17.5c-8,1.9-16.9,0.4-23.6-3.7c0.5-0.4,0.8-0.9,1.3-1.2
	c7.7-4.5,15.3-9.1,23.2-13.3C115.8-145,126.7-144.7,137.5-138.8z"/>
<path class="st0" d="M117.2-119.1c0,11.4,0.7,22.3-0.2,33.1c-0.8,9.6-6.4,17.1-14.4,22.7c-0.3,0.2-0.7,0.4-1.1,0.6
	c-0.2,0.1-0.4,0.1-0.8,0.1c-0.1-0.8-0.2-1.6-0.2-2.3c0-8.5-0.2-17,0-25.5C100.9-102.7,106.7-112.1,117.2-119.1z"/>
<path class="st0" d="M284.1,281.2c0.3,0.8,0.5,1,0.5,1.3c-0.1,10.3,0.4,20.6-0.5,30.8c-0.9,10.7-6.9,18.8-15.9,24.6
	c-0.3-0.2-0.6-0.3-0.6-0.4c0.1-10.9-0.4-21.8,0.6-32.6C269.1,294.6,275.2,287,284.1,281.2z"/>
<path class="st0" d="M196.1,308.7c1.3,0.7,2.3,1.3,3.4,1.9c6.9,4,13.9,7.9,20.7,12c9.6,5.8,14.9,14.4,16.5,25.5c0.2,1.1,0,2.2,0,3.8
	c-2-1.1-3.8-2.1-5.6-3.1c-5.9-3.4-11.9-6.8-17.8-10.3c-10.7-6.3-16.4-15.9-17.4-28.2C195.9,309.9,196,309.5,196.1,308.7z"/>
<path class="st0" d="M236.9,324.9c-10.2-6.3-20.1-11.6-29.1-18.2c-8.1-5.9-11.5-14.9-11.9-25.3c0.9,0.3,1.5,0.4,2.1,0.8
	c7.4,4.2,14.8,8.4,22.1,12.8c9.5,5.7,14.9,14.2,16.6,25.1C236.8,321.3,236.8,322.6,236.9,324.9z"/>
<path class="st0" d="M257.5,261.3c-8.7,5-16.5,9.7-24.6,14.2c-9.4,5.2-19.2,5.6-29.1,1.9c-1.3-0.5-2.6-1.2-4.3-2
	c1-0.7,1.5-1.2,2.1-1.5c7.4-4.3,14.6-8.7,22.1-12.7C234.6,255.2,245.6,255.4,257.5,261.3z"/>
<path class="st0" d="M280.6,275.2c-11.3,5.7-20.9,14.5-33.4,17.5c-8,1.9-16.9,0.4-23.6-3.7c0.5-0.4,0.8-0.9,1.3-1.2
	c7.7-4.5,15.3-9.1,23.2-13.3C258.9,269,269.8,269.3,280.6,275.2z"/>
<path class="st0" d="M260.3,294.9c0,11.4,0.7,22.3-0.2,33.1c-0.8,9.6-6.4,17.1-14.4,22.7c-0.3,0.2-0.7,0.4-1.1,0.6
	c-0.2,0.1-0.4,0.1-0.8,0.1c-0.1-0.8-0.2-1.6-0.2-2.3c0-8.5-0.2-17,0-25.5C244,311.3,249.8,301.9,260.3,294.9z"/>
<path class="st0" d="M236.4,363.9c0.3,0.8,0.5,1,0.5,1.3c-0.1,10.3,0.4,20.6-0.5,30.8c-0.9,10.7-6.9,18.8-15.9,24.6
	c-0.3-0.2-0.6-0.3-0.6-0.4c0.1-10.9-0.4-21.8,0.6-32.6C221.4,377.3,227.5,369.7,236.4,363.9z"/>
<path class="st0" d="M148.4,391.4c1.3,0.7,2.3,1.3,3.4,1.9c6.9,4,13.9,7.9,20.7,12c9.6,5.8,14.9,14.4,16.5,25.5c0.2,1.1,0,2.2,0,3.8
	c-2-1.1-3.8-2.1-5.6-3.1c-5.9-3.4-11.9-6.8-17.8-10.3c-10.7-6.3-16.4-15.9-17.4-28.2C148.2,392.6,148.3,392.2,148.4,391.4z"/>
<path class="st0" d="M189.2,407.6c-10.2-6.3-20.1-11.6-29.1-18.2c-8.1-5.9-11.5-14.9-11.9-25.3c0.9,0.3,1.5,0.4,2.1,0.8
	c7.4,4.2,14.8,8.4,22.1,12.8c9.5,5.7,14.9,14.2,16.6,25.1C189.1,404,189.1,405.3,189.2,407.6z"/>
<path class="st0" d="M209.8,344c-8.7,5-16.5,9.7-24.6,14.2c-9.4,5.2-19.2,5.6-29.1,1.9c-1.3-0.5-2.6-1.2-4.3-2
	c1-0.7,1.5-1.2,2.1-1.5c7.4-4.3,14.6-8.7,22.1-12.7C186.9,337.9,197.9,338.1,209.8,344z"/>
<path class="st0" d="M232.9,357.9c-11.3,5.7-20.9,14.5-33.4,17.5c-8,1.9-16.9,0.4-23.6-3.7c0.5-0.4,0.8-0.9,1.3-1.2
	c7.7-4.5,15.3-9.1,23.2-13.3C211.2,351.7,222.1,352,232.9,357.9z"/>
<path class="st0" d="M212.6,377.6c0,11.4,0.7,22.3-0.2,33.1c-0.8,9.6-6.4,17.1-14.4,22.7c-0.3,0.2-0.7,0.4-1.1,0.6
	c-0.2,0.1-0.4,0.1-0.8,0.1c-0.1-0.8-0.2-1.6-0.2-2.3c0-8.5-0.2-17,0-25.5C196.3,394,202.1,384.6,212.6,377.6z"/>
<path class="st0" d="M188.6,446.6c0.3,0.8,0.5,1,0.5,1.3c-0.1,10.3,0.4,20.6-0.5,30.8c-0.9,10.7-6.9,18.8-15.9,24.6
	c-0.3-0.2-0.6-0.3-0.6-0.4c0.1-10.9-0.4-21.8,0.6-32.6C173.6,460,179.7,452.4,188.6,446.6z"/>
<path class="st0" d="M100.6,474.1c1.3,0.7,2.3,1.3,3.4,1.9c6.9,4,13.9,7.9,20.7,12c9.6,5.8,14.9,14.4,16.5,25.5c0.2,1.1,0,2.2,0,3.8
	c-2-1.1-3.8-2.1-5.6-3.1c-5.9-3.4-11.9-6.8-17.8-10.3c-10.7-6.3-16.4-15.9-17.4-28.2C100.4,475.3,100.5,474.9,100.6,474.1z"/>
<path class="st0" d="M141.4,490.3c-10.2-6.3-20.1-11.6-29.1-18.2c-8.1-5.9-11.5-14.9-11.9-25.3c0.9,0.3,1.5,0.4,2.1,0.8
	c7.4,4.2,14.8,8.4,22.1,12.8c9.5,5.7,14.9,14.2,16.6,25.1C141.3,486.7,141.3,488,141.4,490.3z"/>
<path class="st0" d="M162,426.7c-8.7,5-16.5,9.7-24.6,14.2c-9.4,5.2-19.2,5.6-29.1,1.9c-1.3-0.5-2.6-1.2-4.3-2
	c1-0.7,1.5-1.2,2.1-1.5c7.4-4.3,14.6-8.7,22.1-12.7C139.1,420.6,150.1,420.8,162,426.7z"/>
<path class="st0" d="M185.1,440.6c-11.3,5.7-20.9,14.5-33.4,17.5c-8,1.9-16.9,0.4-23.6-3.7c0.5-0.4,0.8-0.9,1.3-1.2
	c7.7-4.5,15.3-9.1,23.2-13.3C163.4,434.4,174.3,434.7,185.1,440.6z"/>
<path class="st0" d="M164.8,460.3c0,11.4,0.7,22.3-0.2,33.1c-0.8,9.6-6.4,17.1-14.4,22.7c-0.3,0.2-0.7,0.4-1.1,0.6
	c-0.2,0.1-0.4,0.1-0.8,0.1c-0.1-0.8-0.2-1.6-0.2-2.3c0-8.5-0.2-17,0-25.5C148.5,476.7,154.3,467.3,164.8,460.3z"/>
<path class="st0" d="M379.4,115.5c0.3,0.8,0.5,1,0.5,1.3c-0.1,10.3,0.4,20.6-0.5,30.8c-0.9,10.7-6.9,18.8-15.9,24.6
	c-0.3-0.2-0.6-0.3-0.6-0.4c0.1-10.9-0.4-21.8,0.6-32.6C364.4,128.9,370.5,121.3,379.4,115.5z"/>
<path class="st0" d="M291.4,143c1.3,0.7,2.3,1.3,3.4,1.9c6.9,4,13.9,7.9,20.7,12c9.6,5.8,14.9,14.4,16.5,25.5c0.2,1.1,0,2.2,0,3.8
	c-2-1.1-3.8-2.1-5.6-3.1c-5.9-3.4-11.9-6.8-17.8-10.3c-10.7-6.3-16.4-15.9-17.4-28.2C291.2,144.2,291.3,143.8,291.4,143z"/>
<path class="st0" d="M332.2,159.2c-10.2-6.3-20.1-11.6-29.1-18.2c-8.1-5.9-11.5-14.9-11.9-25.3c0.9,0.3,1.5,0.4,2.1,0.8
	c7.4,4.2,14.8,8.4,22.1,12.8c9.5,5.7,14.9,14.2,16.6,25.1C332.1,155.6,332.1,156.9,332.2,159.2z"/>
<path class="st0" d="M352.8,95.6c-8.7,5-16.5,9.7-24.6,14.2c-9.4,5.2-19.2,5.6-29.1,1.9c-1.3-0.5-2.6-1.2-4.3-2
	c1-0.7,1.5-1.2,2.1-1.5c7.4-4.3,14.6-8.7,22.1-12.7C329.9,89.5,340.9,89.7,352.8,95.6z"/>
<path class="st0" d="M375.9,109.5c-11.3,5.7-20.9,14.5-33.4,17.5c-8,1.9-16.9,0.4-23.6-3.7c0.5-0.4,0.8-0.9,1.3-1.2
	c7.7-4.5,15.3-9.1,23.2-13.3C354.2,103.3,365.1,103.6,375.9,109.5z"/>
<path class="st0" d="M355.6,129.2c0,11.4,0.7,22.3-0.2,33.1c-0.8,9.6-6.4,17.1-14.4,22.7c-0.3,0.2-0.7,0.4-1.1,0.6
	c-0.2,0.1-0.4,0.1-0.8,0.1c-0.1-0.8-0.2-1.6-0.2-2.3c0-8.5-0.2-17,0-25.5C339.3,145.6,345.1,136.2,355.6,129.2z"/>
<path class="st0" d="M427.1,32.8c0.3,0.8,0.5,1,0.5,1.3c-0.1,10.3,0.4,20.6-0.5,30.8c-0.9,10.7-6.9,18.8-15.9,24.6
	c-0.3-0.2-0.6-0.3-0.6-0.4c0.1-10.9-0.4-21.8,0.6-32.6C412.1,46.2,418.2,38.6,427.1,32.8z"/>
<path class="st0" d="M339.1,60.3c1.3,0.7,2.3,1.3,3.4,1.9c6.9,4,13.9,7.9,20.7,12c9.6,5.8,14.9,14.4,16.5,25.5c0.2,1.1,0,2.2,0,3.8
	c-2-1.1-3.8-2.1-5.6-3.1c-5.9-3.4-11.9-6.8-17.8-10.3c-10.7-6.3-16.4-15.9-17.4-28.2C338.9,61.5,339,61.1,339.1,60.3z"/>
<path class="st0" d="M379.9,76.5c-10.2-6.3-20.1-11.6-29.1-18.2c-8.1-5.9-11.5-14.9-11.9-25.3c0.9,0.3,1.5,0.4,2.1,0.8
	c7.4,4.2,14.8,8.4,22.1,12.8c9.5,5.7,14.9,14.2,16.6,25.1C379.8,72.9,379.8,74.2,379.9,76.5z"/>
<path class="st0" d="M400.5,12.9c-8.7,5-16.5,9.7-24.6,14.2c-9.4,5.2-19.2,5.6-29.1,1.9c-1.3-0.5-2.6-1.2-4.3-2
	c1-0.7,1.5-1.2,2.1-1.5c7.4-4.3,14.6-8.7,22.1-12.7C377.6,6.8,388.6,7,400.5,12.9z"/>
<path class="st0" d="M423.6,26.8c-11.3,5.7-20.9,14.5-33.4,17.5c-8,1.9-16.9,0.4-23.6-3.7c0.5-0.4,0.8-0.9,1.3-1.2
	c7.7-4.5,15.3-9.1,23.2-13.3C401.9,20.6,412.8,20.9,423.6,26.8z"/>
<path class="st0" d="M403.3,46.5c0,11.4,0.7,22.3-0.2,33.1c-0.8,9.6-6.4,17.1-14.4,22.7c-0.3,0.2-0.7,0.4-1.1,0.6
	c-0.2,0.1-0.4,0.1-0.8,0.1c-0.1-0.8-0.2-1.6-0.2-2.3c0-8.5-0.2-17,0-25.5C387,62.9,392.8,53.5,403.3,46.5z"/>
<path class="st0" d="M266.6,101.9c5.9,3.2,9.8,7.6,12.8,12.9c2.7,4.9,4.2,10.2,4.3,15.7c0.1,8.8,0.1,17.6,0.1,26.4
	c0,0.5-0.1,1-0.3,1.8c-6.2-3.5-10.7-8.3-13.4-14.5c-1.7-4-3.2-8.5-3.4-12.8C266.3,121.8,266.6,112.2,266.6,101.9z"/>
<path class="st0" d="M195.1,158.6c0.1-8.1,2.5-15.1,7.6-21c2.6-3.1,5.9-5.9,9.3-8.1c6.8-4.4,13.9-8.2,20.9-12.3
	c0.9-0.5,1.8-0.9,3.1-1.5c0.1,6.8-1.6,12.8-5.2,17.9c-2.9,3.9-6.3,7.8-10.3,10.5c-7.6,5.1-15.8,9.4-23.8,14
	C196.3,158.3,195.8,158.4,195.1,158.6z"/>
<path class="st0" d="M198.4,164.8c9.7-5.2,19.5-6.6,28.9-2.3c10,4.5,19.3,10.4,29.5,16c-9.3,5-18.3,6.2-27.6,3.1
	c-3.5-1.1-6.8-3-10.1-4.8C212.3,172.9,205.6,169,198.4,164.8z"/>
<path class="st0" d="M222.2,151c10.3-5.4,20.4-6.5,30.2-1.9c9.5,4.5,18.5,10.2,28.2,15.6c-10.9,5.7-21.5,6.5-31.9,1.3
	C239.9,161.7,231.4,156.3,222.2,151z"/>
<path class="st0" d="M236.4,88.6c-0.7,3.4-1.1,6.8-2.1,10.1c-2.1,6.6-5.8,12.4-11.5,16.2c-8.7,5.7-17.9,10.8-27.6,16.7
	c0.2-2.6,0.2-4.4,0.5-6.1c1.4-7.6,4.4-14.7,10.6-19.2c9.3-6.7,19.3-12.3,29.1-18.4C235.6,88.1,236,88.4,236.4,88.6z"/>
<path class="st0" d="M242.8,87.9c8.8,5.5,14,12.6,16.2,21.9c0.6,2.7,0.8,5.5,0.9,8.3c0.1,8.8,0,17.5,0,27c-5.1-3-8.7-6.6-11.5-10.9
	c-3.6-5.5-5.5-11.6-5.5-18.2C242.8,106.9,242.8,97.8,242.8,87.9z"/>
<path class="st0" d="M314.6,19.1c5.9,3.2,9.8,7.6,12.8,12.9c2.7,4.9,4.2,10.2,4.3,15.7c0.1,8.8,0.1,17.6,0.1,26.4
	c0,0.5-0.1,1-0.3,1.8c-6.2-3.5-10.7-8.3-13.4-14.5c-1.7-4-3.2-8.5-3.4-12.8C314.3,39,314.6,29.4,314.6,19.1z"/>
<path class="st0" d="M243.1,75.8c0.1-8.1,2.5-15.1,7.6-21c2.6-3.1,5.9-5.9,9.3-8.1c6.8-4.4,13.9-8.2,20.9-12.3
	c0.9-0.5,1.8-0.9,3.1-1.5c0.1,6.8-1.6,12.8-5.2,17.9c-2.9,3.9-6.3,7.8-10.3,10.5c-7.6,5.1-15.8,9.4-23.8,14
	C244.3,75.5,243.8,75.6,243.1,75.8z"/>
<path class="st0" d="M246.4,82c9.7-5.2,19.5-6.6,28.9-2.3c10,4.5,19.3,10.4,29.5,16c-9.3,5-18.3,6.2-27.6,3.1
	c-3.5-1.1-6.8-3-10.1-4.8C260.3,90.1,253.6,86.2,246.4,82z"/>
<path class="st0" d="M270.2,68.2c10.3-5.4,20.4-6.5,30.2-1.9c9.5,4.5,18.5,10.2,28.2,15.6c-10.9,5.7-21.5,6.5-31.9,1.3
	C287.9,78.9,279.4,73.5,270.2,68.2z"/>
<path class="st0" d="M284.4,5.8c-0.7,3.4-1.1,6.8-2.1,10.1c-2.1,6.6-5.8,12.4-11.5,16.2c-8.7,5.7-17.9,10.8-27.6,16.7
	c0.2-2.6,0.2-4.4,0.5-6.1c1.4-7.6,4.4-14.7,10.6-19.2c9.3-6.7,19.3-12.3,29.1-18.4C283.6,5.3,284,5.6,284.4,5.8z"/>
<path class="st0" d="M290.8,5.1c8.8,5.5,14,12.6,16.2,21.9c0.6,2.7,0.8,5.5,0.9,8.3c0.1,8.8,0,17.5,0,27c-5.1-3-8.7-6.6-11.5-10.9
	c-3.6-5.5-5.5-11.6-5.5-18.2C290.8,24.1,290.8,15,290.8,5.1z"/>
<path class="st0" d="M28.3,19.1c5.9,3.2,9.8,7.6,12.8,12.9c2.7,4.9,4.2,10.2,4.3,15.7c0.1,8.8,0.1,17.6,0.1,26.4
	c0,0.5-0.1,1-0.3,1.8c-6.2-3.5-10.7-8.3-13.4-14.5c-1.7-4-3.2-8.5-3.4-12.8C28,39,28.3,29.4,28.3,19.1z"/>
<path class="st0" d="M-43.2,75.8c0.1-8.1,2.5-15.1,7.6-21c2.6-3.1,5.9-5.9,9.3-8.1c6.8-4.4,13.9-8.2,20.9-12.3
	c0.9-0.5,1.8-0.9,3.1-1.5c0.1,6.8-1.6,12.8-5.2,17.9c-2.9,3.9-6.3,7.8-10.3,10.5c-7.6,5.1-15.8,9.4-23.8,14
	C-42,75.5-42.5,75.6-43.2,75.8z"/>
<path class="st0" d="M-39.9,82c9.7-5.2,19.5-6.6,28.9-2.3c10,4.5,19.3,10.4,29.5,16c-9.3,5-18.3,6.2-27.6,3.1
	c-3.5-1.1-6.8-3-10.1-4.8C-26,90.1-32.7,86.2-39.9,82z"/>
<path class="st0" d="M-16.1,68.2c10.3-5.4,20.4-6.5,30.2-1.9c9.5,4.5,18.5,10.2,28.2,15.6c-10.9,5.7-21.5,6.5-31.9,1.3
	C1.6,78.9-6.9,73.5-16.1,68.2z"/>
<path class="st0" d="M-1.9,5.8C-2.6,9.2-3,12.6-4,15.9c-2.1,6.6-5.8,12.4-11.5,16.2c-8.7,5.7-17.9,10.8-27.6,16.7
	c0.2-2.6,0.2-4.4,0.5-6.1c1.4-7.6,4.4-14.7,10.6-19.2c9.3-6.7,19.3-12.3,29.1-18.4C-2.7,5.3-2.3,5.6-1.9,5.8z"/>
<path class="st0" d="M4.5,5.1c8.8,5.5,14,12.6,16.2,21.9c0.6,2.7,0.8,5.5,0.9,8.3c0.1,8.8,0,17.5,0,27c-5.1-3-8.7-6.6-11.5-10.9
	c-3.6-5.5-5.5-11.6-5.5-18.2C4.5,24.1,4.5,15,4.5,5.1z"/>
<path class="st0" d="M362.1-63.5c5.9,3.2,9.8,7.6,12.8,12.9c2.7,4.9,4.2,10.2,4.3,15.7c0.1,8.8,0.1,17.6,0.1,26.4
	c0,0.5-0.1,1-0.3,1.8c-6.2-3.5-10.7-8.3-13.4-14.5c-1.7-4-3.2-8.5-3.4-12.8C361.8-43.6,362.1-53.2,362.1-63.5z"/>
<path class="st0" d="M290.6-6.8c0.1-8.1,2.5-15.1,7.6-21c2.6-3.1,5.9-5.9,9.3-8.1c6.8-4.4,13.9-8.2,20.9-12.3
	c0.9-0.5,1.8-0.9,3.1-1.5c0.1,6.8-1.6,12.8-5.2,17.9c-2.9,3.9-6.3,7.8-10.3,10.5c-7.6,5.1-15.8,9.4-23.8,14
	C291.8-7.1,291.3-7,290.6-6.8z"/>
<path class="st0" d="M293.9-0.6c9.7-5.2,19.5-6.6,28.9-2.3c10,4.5,19.3,10.4,29.5,16c-9.3,5-18.3,6.2-27.6,3.1
	c-3.5-1.1-6.8-3-10.1-4.8C307.8,7.5,301.1,3.6,293.9-0.6z"/>
<path class="st0" d="M317.7-14.4c10.3-5.4,20.4-6.5,30.2-1.9c9.5,4.5,18.5,10.2,28.2,15.6c-10.9,5.7-21.5,6.5-31.9,1.3
	C335.4-3.7,326.9-9.1,317.7-14.4z"/>
<path class="st0" d="M331.9-76.8c-0.7,3.4-1.1,6.8-2.1,10.1c-2.1,6.6-5.8,12.4-11.5,16.2c-8.7,5.7-17.9,10.8-27.6,16.7
	c0.2-2.6,0.2-4.4,0.5-6.1c1.4-7.6,4.4-14.7,10.6-19.2c9.3-6.7,19.3-12.3,29.1-18.4C331.1-77.3,331.5-77,331.9-76.8z"/>
<path class="st0" d="M338.3-77.5c8.8,5.5,14,12.6,16.2,21.9c0.6,2.7,0.8,5.5,0.9,8.3c0.1,8.8,0,17.5,0,27c-5.1-3-8.7-6.6-11.5-10.9
	c-3.6-5.5-5.5-11.6-5.5-18.2C338.3-58.5,338.3-67.6,338.3-77.5z"/>
<path class="st0" d="M123.6,350c5.9,3.2,9.8,7.6,12.8,12.9c2.7,4.9,4.2,10.2,4.3,15.7c0.1,8.8,0.1,17.6,0.1,26.4
	c0,0.5-0.1,1-0.3,1.8c-6.2-3.5-10.7-8.3-13.4-14.5c-1.7-4-3.2-8.5-3.4-12.8C123.3,369.9,123.6,360.3,123.6,350z"/>
<path class="st0" d="M52.1,406.7c0.1-8.1,2.5-15.1,7.6-21c2.6-3.1,5.9-5.9,9.3-8.1c6.8-4.4,13.9-8.2,20.9-12.3
	c0.9-0.5,1.8-0.9,3.1-1.5c0.1,6.8-1.6,12.8-5.2,17.9c-2.9,3.9-6.3,7.8-10.3,10.5c-7.6,5.1-15.8,9.4-23.8,14
	C53.3,406.4,52.8,406.5,52.1,406.7z"/>
<path class="st0" d="M55.4,412.9c9.7-5.2,19.5-6.6,28.9-2.3c10,4.5,19.3,10.4,29.5,16c-9.3,5-18.3,6.2-27.6,3.1
	c-3.5-1.1-6.8-3-10.1-4.8C69.3,421,62.6,417.1,55.4,412.9z"/>
<path class="st0" d="M79.2,399.1c10.3-5.4,20.4-6.5,30.2-1.9c9.5,4.5,18.5,10.2,28.2,15.6c-10.9,5.7-21.5,6.5-31.9,1.3
	C96.9,409.8,88.4,404.4,79.2,399.1z"/>
<path class="st0" d="M93.4,336.7c-0.7,3.4-1.1,6.8-2.1,10.1c-2.1,6.6-5.8,12.4-11.5,16.2c-8.7,5.7-17.9,10.8-27.6,16.7
	c0.2-2.6,0.2-4.4,0.5-6.1c1.4-7.6,4.4-14.7,10.6-19.2c9.3-6.7,19.3-12.3,29.1-18.4C92.6,336.2,93,336.5,93.4,336.7z"/>
<path class="st0" d="M99.8,336c8.8,5.5,14,12.6,16.2,21.9c0.6,2.7,0.8,5.5,0.9,8.3c0.1,8.8,0,17.5,0,27c-5.1-3-8.7-6.6-11.5-10.9
	c-3.6-5.5-5.5-11.6-5.5-18.2C99.8,355,99.8,345.9,99.8,336z"/>
<path class="st0" d="M171.1,267.4c5.9,3.2,9.8,7.6,12.8,12.9c2.7,4.9,4.2,10.2,4.3,15.7c0.1,8.8,0.1,17.6,0.1,26.4
	c0,0.5-0.1,1-0.3,1.8c-6.2-3.5-10.7-8.3-13.4-14.5c-1.7-4-3.2-8.5-3.4-12.8C170.8,287.3,171.1,277.7,171.1,267.4z"/>
<path class="st0" d="M99.6,324.1c0.1-8.1,2.5-15.1,7.6-21c2.6-3.1,5.9-5.9,9.3-8.1c6.8-4.4,13.9-8.2,20.9-12.3
	c0.9-0.5,1.8-0.9,3.1-1.5c0.1,6.8-1.6,12.8-5.2,17.9c-2.9,3.9-6.3,7.8-10.3,10.5c-7.6,5.1-15.8,9.4-23.8,14
	C100.8,323.8,100.3,323.9,99.6,324.1z"/>
<path class="st0" d="M102.9,330.3c9.7-5.2,19.5-6.6,28.9-2.3c10,4.5,19.3,10.4,29.5,16c-9.3,5-18.3,6.2-27.6,3.1
	c-3.5-1.1-6.8-3-10.1-4.8C116.8,338.4,110.1,334.5,102.9,330.3z"/>
<path class="st0" d="M126.7,316.5c10.3-5.4,20.4-6.5,30.2-1.9c9.5,4.5,18.5,10.2,28.2,15.6c-10.9,5.7-21.5,6.5-31.9,1.3
	C144.4,327.2,135.9,321.8,126.7,316.5z"/>
<path class="st0" d="M140.9,254.1c-0.7,3.4-1.1,6.8-2.1,10.1c-2.1,6.6-5.8,12.4-11.5,16.2c-8.7,5.7-17.9,10.8-27.6,16.7
	c0.2-2.6,0.2-4.4,0.5-6.1c1.4-7.6,4.4-14.7,10.6-19.2c9.3-6.7,19.3-12.3,29.1-18.4C140.1,253.6,140.5,253.9,140.9,254.1z"/>
<path class="st0" d="M147.3,253.4c8.8,5.5,14,12.6,16.2,21.9c0.6,2.7,0.8,5.5,0.9,8.3c0.1,8.8,0,17.5,0,27c-5.1-3-8.7-6.6-11.5-10.9
	c-3.6-5.5-5.5-11.6-5.5-18.2C147.3,272.4,147.3,263.3,147.3,253.4z"/>
</svg>
