<?xml version="1.0" encoding="utf-8"?>
<!-- Generator: Adobe Illustrator 24.0.2, SVG Export Plug-In . SVG Version: 6.00 Build 0)  -->
<svg version="1.1" id="Capa_1" xmlns="http://www.w3.org/2000/svg" xmlns:xlink="http://www.w3.org/1999/xlink" x="0px" y="0px"
	 viewBox="0 0 288 288" style="enable-background:new 0 0 288 288;" xml:space="preserve">
<style type="text/css">
	.st0{fill:#FFFFFF;}
</style>
<g>
	<g>
		<g>
			<path d="M-142.4,71.3c0-0.1,0-0.3,0-0.4c8.1,0.1,16.1-0.9,23.9-2.9c12.8-3.4,23.9-9.6,33.8-17.1C-75,43.5-65.5,35.6-55.8,28
				c3.3-2.6,6.9-4.9,10.4-7.2c-0.2,0.4-0.6,0.7-0.9,1c0.2,0.1,0.3,0.1,0.5,0.1c0.2,0,0.6-0.1,0.8-0.2c18.1-4.4,35.5-3,51,6.4
				c7.8,4.7,14.7,10.4,21.7,15.9C37.1,51.5,46.5,59,58,64.2c6,2.7,12.2,4.9,18.2,7.3c-0.7,0.2-1.6,0.6-2.6,0.9
				c-11.3,3.3-21.8,8.2-31,14.9c-8.6,6.3-16.8,12.9-25.1,19.4c-7.2,5.5-14.9,10.5-24,13.4c-12.6,4-25.4,4-38.3,0.9
				c-0.7-0.2-1.4,0-2,0c-1.8-1.1-3.7-2.3-5.4-3.6c-10.4-8.1-20.6-16.4-31.1-24.5c-7.5-5.8-15.7-10.9-24.9-14.8
				C-118.9,73.4-130.5,71.5-142.4,71.3z M-48.3,116.4c0,0.1,0,0.1-0.1,0.2c0.7,0.3,1.2,0.6,1.9,0.8c19.5,5.4,37.6,3.5,53.8-7.3
				c7.2-4.9,13.8-10.5,20.7-15.8c9-7.1,18.4-13.8,29.3-18.8c3.2-1.4,6.3-2.7,9.7-4.2c-14.5-5.1-26.6-12.9-37.8-21.9
				c-6.3-5-12.6-10.2-19.1-15c-13.4-9.8-28.9-13.8-46.4-11.2c-4.2,0.6-8.2,1.8-12.4,2.7c0,0.2,0.1,0.4,0.1,0.6
				c0.7-0.1,1.2-0.2,1.9-0.3c15.1-3,29.3-1.3,42.3,6C4,36.7,11,42.8,18,48.6c9.5,7.6,19.5,14.6,31.6,19c3.5,1.3,7.1,2.4,10.9,3.7
				c-0.8,0.3-1.4,0.5-1.8,0.7C45,76,32.9,82.4,22.2,90.9c-6,4.8-11.9,9.6-18,14.3c-13.1,10-28.3,14.8-45.9,12.5
				C-43.9,117.1-46,116.8-48.3,116.4z M48.9,71.2c-11-4.1-20.5-9.8-29.2-16.6c-6.4-5-12.5-10.1-19-14.9
				c-10.4-7.7-22.2-12.2-36.4-11.4c-3.8,0.2-7.5,0.8-11.3,1.2c0,0.2,0.1,0.4,0.1,0.7c0.7,0,1.4-0.1,2.1-0.1c10.9-1,20.9,1,30.2,6
				C-7.3,40-1.2,45.2,5,50.2c8.8,7.2,18.2,13.7,29.6,17.8c3.3,1.1,6.5,2.1,10.2,3.3c-1.2,0.4-1.9,0.7-2.7,0.9
				C28.9,75.9,17.5,82.3,7.5,90.5C2.1,95-3.5,99.2-9.3,103.4c-7.9,5.6-16.9,9-27.4,9.4c-3.2,0.1-6.3,0-9.5,0
				c0.6,0.4,1.2,0.6,1.9,0.7c5.3,0.3,10.6,0.9,15.8,0.8c6.3-0.2,12.3-1.9,17.8-4.5c8.7-4,15.5-9.9,22.5-15.6
				c8.8-7.2,17.8-14.1,28.6-19.1C43.3,73.6,46,72.5,48.9,71.2z M30.7,71.4c-4.5-2.3-9.1-4.2-12.9-6.8C9.8,59.4,2.4,53.5-5.1,47.8
				c-5.5-4.2-11-8.4-17.9-11c-7.9-3-16-3.5-24.4-2.3c0.3,0.2,0.7,0.2,1,0.2c9.9-0.1,18.7,2.6,26.2,8c5.5,3.9,10.7,8.2,16,12.3
				c7.7,6.1,16,10.9,25.8,14.1c2.3,0.7,4.5,1.3,7.2,2.2c-1.2,0.4-2,0.7-2.8,1C16.5,75,7.6,78.7,0,84.4c-5.5,4.2-10.8,8.6-16.3,12.8
				c-8.2,6.4-17.7,10.6-29.2,10.6c-0.5,0-0.8,0.2-1.2,0.2c1,0.3,1.9,0.5,2.8,0.6c8.3,0.7,16.6-0.3,23.6-4c5.1-2.7,9.9-5.9,14.3-9.3
				C5.4,86.3,16.1,76.9,30.7,71.4z M10.8,70.5c-0.1-0.2-0.2-0.3-0.3-0.3C0.3,65.5-8.1,58.8-16.4,51.9c-4.7-3.8-9.6-7.5-15.6-9.8
				c-4.8-1.9-12.4-3-16.8-2.2c0.6,0.2,1,0.3,1.4,0.4c6.5,0.7,12.3,3,17.2,6.6c4.7,3.3,9.2,6.9,13.6,10.6C-8.8,63.6,0.4,68,10.8,70.5
				z M-49.2,102.6c4.3,0.5,8.4,0.2,12.5-0.8c7.7-1.7,13.5-5.9,19.3-10.4c6.1-4.8,12.2-9.4,18.6-14c2.8-2,6.1-3.5,9.5-5.3
				c-0.6,0-0.8,0-1,0.1c-10.8,3-20.2,7.8-28.1,14.6c-3.9,3.2-8,6.4-12.3,9.3C-36.1,99.8-42.3,101.9-49.2,102.6z M-10.1,73.2
				c0.1,0.1,0.2,0.1,0.2,0.2c-0.6,0.2-1,0.3-1.6,0.5c-8.2,2.3-14.7,6.7-20.8,11.7c-4.1,3.4-8.1,6.9-13.3,9.1c-2,0.9-4.3,1.5-6.6,2.4
				c5.4-0.1,10.2-1.1,14.4-3.5c3.2-1.8,6.1-4,9-6.1C-22.5,82.7-16.3,77.9-10.1,73.2z M-9.7,69.2c-3.8-2.7-7.4-5-10.9-7.6
				s-6.6-5.4-10.1-8c-2.6-1.8-5.3-3.5-8.1-5c-3.8-2.1-9.8-3.2-13.1-2.7c6.6,1.4,11.7,4.8,16.4,8.6c3.5,2.8,7,5.5,10.7,8.2
				C-20.5,65.6-15.4,67.7-9.7,69.2z M-27.9,74c-4.4,1.1-7.9,2.9-11.1,5c-6,4-10.5,9.3-17.7,12c3.9-0.2,7.5-1.1,10.8-3.4
				C-39.9,83.2-34.2,78.8-27.9,74z M-28.2,68.2c-1.6-1.1-3.3-2.4-4.8-3.5c-4.6-3.4-9.1-7-13.8-10.3c-2.6-1.8-6-2.8-9.5-2.9
				c5.7,2.4,9.9,6.3,14.5,9.8C-38,64.5-33.6,67.1-28.2,68.2z M-45.9,74.8c-7.2,1.4-10.8,6.9-16.6,10.2C-55,83.8-51.1,78.6-45.9,74.8
				z M-62.5,57.4c5.6,3.3,9.5,8.8,16.7,10.4C-51.1,64-55,58.7-62.5,57.4z M-69.9,79.2c0.1,0.2,0.3,0.4,0.5,0.7
				c2.4-1.5,4.8-3,7.2-4.6C-65.7,75.3-67.6,77.3-69.9,79.2z M-62.6,67.7c-2-2.5-4.8-4.2-7.7-4.5C-67.6,65-65.9,67.2-62.6,67.7z"/>
			<path d="M-142.4,215.9c0-0.1,0-0.3,0-0.4c0.6,0,1.1-0.1,1.7-0.1c18-0.3,34.1-5.2,48-14.8c10-6.9,19.3-14.6,28.8-21.9
				c5.6-4.3,11.4-8.6,17.1-12.8c0.8,0,1.6,0.2,2.1,0c9.2-2.4,18.7-2.9,28.3-1.5c12,1.7,22.2,6.9,31.1,13.6c7.7,5.8,15,12,22.6,17.8
				c9.2,7,19.4,12.9,31,16.8c2.7,1,5.4,1.8,8.7,3c-17.6,4.7-31.6,13.1-44.5,23.3c-7.5,6-15.1,12.1-23.1,17.6
				c-13.2,9-28.4,12.3-45.1,10.2c-3.5-0.5-7-1.2-10.6-1.8c0.1,0.3,0.2,0.5,0.3,0.7c-1.2-0.8-2.7-1.4-3.8-2.3
				c-6.4-5-12.7-9.8-19-14.9c-8.6-6.9-16.9-13.8-26.5-19.6C-109.4,220.3-124.9,215.8-142.4,215.9z M-48.8,260.8
				c0,0.1-0.1,0.2-0.1,0.2c3.2,0.8,6.2,1.7,9.3,2.3c13.1,2.6,25.7,1.4,37.7-3.8c8.6-3.7,15.5-9.2,22.4-14.9
				c8.2-6.7,16.2-13.6,25.7-19c6.5-3.7,13.5-6.9,20.2-10.3c0,0-0.3-0.2-0.7-0.3c-11.6-4.4-22-10.3-31.3-17.5
				c-7.1-5.5-14.1-11.2-21.2-16.8c-13.6-10.5-29.4-15.8-48.1-13.4c-4.5,0.6-9,1.7-13.5,2.6c0.2,0.6,0.5,0.7,0.6,0.7
				c0.3,0,0.7-0.1,1-0.2c7.8-1.6,15.5-1.8,23.3-0.7c10.5,1.6,19.4,6,27.1,11.8c6.4,4.9,12.6,10,18.9,14.9
				c8.8,6.9,18.5,12.7,29.7,16.5c2.7,0.9,5.4,1.8,8.6,2.9C45.2,219.8,32.3,226.9,21,236c-6.2,5-12.4,10-18.9,14.8
				c-11.1,8.2-24,12.4-38.8,11.4C-40.7,262-44.8,261.3-48.8,260.8z M48.9,215.8c-0.7-0.4-1.1-0.6-1.7-0.8
				c-9.1-3.5-17.3-8.2-24.8-13.9c-6.5-5-12.8-10.2-19.3-15.2c-9.6-7.4-20.3-12.9-33.8-13.2c-5.7-0.2-11.5,0.3-17.3,1.9
				c0.6,0.1,0.8,0.1,1,0.1c14.3-1.7,26.9,1.3,37.9,9.2c5.5,4,10.8,8.2,16.1,12.5c8.3,6.7,17.3,12.6,28,16.3c3.2,1,6.3,2.1,9.7,3.2
				c-0.7,0.3-1.1,0.4-1.5,0.6c-13.2,3.5-24.4,9.5-34.5,17.5c-6.3,5-12.5,9.9-19,14.6c-10,7.1-21.7,9.9-34.7,8.7
				c-0.7-0.1-1.2,0-1.9,0c0.1,0.1,0.2,0.3,0.3,0.3c0.2,0.1,0.5,0.2,0.6,0.2c8.8,1.8,17.6,1.9,26.2-0.2c9.2-2.3,16.8-6.9,23.6-12.4
				c5.3-4.2,10.5-8.5,15.9-12.7C28.4,225.5,37.9,219.8,48.9,215.8z M-47.4,252.2c7.4,1.3,14.6,1,21.7-1.2
				c8.2-2.6,14.6-7.3,20.9-12.3c6.5-5.1,13.1-10.3,20-15c4.6-3.1,10-5.5,15.1-8.2c-0.1-0.1-0.5-0.2-0.7-0.4
				c-5.9-3.2-12.2-6-17.7-9.7c-7.3-5-14-10.7-20.9-16.1c-10.4-8.1-22.4-12.4-36.8-10.7c-0.6,0.1-1.1,0.2-1.7,0.3
				c11.7-0.1,21.4,3.6,29.8,10c4.7,3.5,9.1,7.2,13.7,10.8c7.3,5.7,15.3,10.5,24.8,13.5c2.5,0.8,5,1.6,7.8,2.5
				c-0.9,0.3-1.5,0.5-1.9,0.6c-9.7,2.8-18.7,6.5-26.3,12.2c-4.3,3.1-8.2,6.6-12.5,9.7c-3.9,3-7.9,5.9-12.2,8.4
				C-31.2,250.7-39,252.3-47.4,252.2z M11.3,216.2c-8,2.1-15.2,4.6-21.3,8.8c-5.6,3.9-10.9,8.3-16.3,12.4
				c-6.1,4.7-12.7,8.4-21.1,9.2c-0.5,0-0.8,0.3-1.2,0.4c3.2,0.2,6.2,0.1,9.1-0.3c7.5-1,13.6-4.6,19.3-8.8
				c7.8-5.8,15.6-11.7,23.5-17.4C5.5,218.9,8.3,217.8,11.3,216.2z M10.4,214.6c-2.1-1.1-4.3-2.2-6.4-3.3c-7.8-4.3-14.1-10-20.9-15.2
				c-4.2-3.1-8.6-6.1-13.3-8.6c-5.7-3-12.3-3.6-18.9-3c1.6,0.4,3.3,0.6,4.8,0.9c8.3,1.5,14.4,6,20.5,10.7c5.3,4,10.5,8.1,16.1,11.8
				C-2.4,211.3,4,213,10.4,214.6z M-51.4,241.4c0.6,0,1.1,0,1.7,0c6.8-0.5,12.4-3,17.3-6.7c7.5-5.5,15-11,22.5-16.6c0,0,0-0.2,0-0.3
				c-0.2,0-0.5,0.1-0.7,0.1c-7.7,2.1-14.1,5.9-19.9,10.7C-36.8,233.6-42.8,239.2-51.4,241.4z M-51.4,190c3,1.3,6.6,2.6,9.6,4.4
				c3.8,2.4,7.2,5.1,10.6,7.9c5,4,10.2,7.6,16.7,9.9c1.6,0.6,3.2,1,4.6,1.4c-4.5-3.2-9.1-6.6-13.6-9.9c-3.7-2.8-7.2-5.7-10.9-8.4
				C-39.5,191.9-45.2,190-51.4,190z M-56.5,196c5.2,2.1,9,5.4,13.2,8.7c2.4,1.9,5,3.6,7.5,5.2c2.1,1.2,4.6,2,7,3
				c0.1-0.1,0.1-0.3,0.2-0.4c-5.6-4.3-11-8.7-16.8-12.8C-48.5,197.4-52.3,196.2-56.5,196z M-28.2,218.8c-4.4,0.9-8.1,2.7-11.4,5
				c-5.5,3.9-10,8.9-16.8,11.5c3.5-0.1,6.6-0.9,9.2-2.7C-40.7,228.1-34.5,223.4-28.2,218.8z M-62.3,229.5
				c7.4-1.3,11.4-6.7,16.7-10.4C-52.9,220.6-56.7,226-62.3,229.5z M-62.2,202c5.5,3.3,9.2,8.7,16.2,10.1
				C-51.1,208.4-54.9,203.2-62.2,202z M-69.4,207.2c-0.1,0.2-0.3,0.3-0.5,0.5c2.8,2.9,5.2,4.2,8.1,4.4
				C-64.6,210.1-67.1,208.7-69.4,207.2z M-62.3,219.8c-2.8,0-5.7,1.9-7.2,4c0.1,0.1,0.2,0.3,0.3,0.4
				C-67,222.6-64.7,221.2-62.3,219.8z"/>
			<path d="M424.7,176.2c0,1.4,0,3,0,4.4c-14.1,9.3-29.9,11.7-47.2,8.1c3.6,1.8,12.2,3.4,18.2,3.7c10.2,0.4,19.9-1.4,28.9-5.5
				c0,1.1,0,2.2,0,3.3c-14.7,6.2-30.1,6.6-45.7,2.8c0.7,0.6,1.4,1,2.1,1.3c10.5,3.6,21.3,4.8,32.4,3.4c3.8-0.5,7.4-1.3,11.3-2
				c0,0.9,0,1.7,0,2.6c-0.6,0.1-1.1,0-1.7,0.2c-6,1.4-12,2.3-18.2,2c-5.1-0.2-10.2-1-15.3-1.4c-0.3,0-1.7-1-1,0.6
				c-0.7-0.3-1.4-0.5-1.9-0.9c-5.6-3.9-11.4-7.6-16.8-11.7c-9.8-7.5-19.1-15.4-28.9-22.8c-13.6-10.5-29-18.1-47.9-19.8
				c-4.2-0.4-8.3-1.2-12.5,0.1c0.2-0.3,0.5-0.6,0.6-0.9c-0.6-0.4-1.2-0.8-1.8-1.1c1.4,0.3,2.6,0.9,3.9,1c7.9,0,15.6-0.9,23.2-2.9
				c12.8-3.3,23.8-9.4,33.7-16.8c11.3-8.6,22.2-17.5,33.4-26.2c4.5-3.4,9.6-6.4,14.3-9.6c0.9,0,1.8,0.2,2.7,0.1
				c8.3-1.5,16.7-1.8,25-0.7c3.2,0.5,6.2,1,9.3,1.5c0,0.9,0,1.7,0,2.6c-0.3,0-0.7,0-1-0.1c-14.1-3.7-28-3-41.8,1.2c-1,0.4-2,1-3,1.4
				c15.8-3.7,31.1-3.2,45.8,3c0,1.1,0,2.2,0,3.3c-11.4-5.2-23.5-6.7-36.3-4.8c-3.7,0.6-7.4,1.6-11,2.4c0,0.2,0.1,0.4,0.1,0.6
				c0.5-0.1,0.8-0.1,1.2-0.2c15.3-3,29.5-1.2,42.7,6.2c1,0.6,2.3,1.1,3.3,1.6c0,1.6,0,3.2,0,4.8c-0.3-0.2-0.8-0.4-1.1-0.6
				c-10.4-7.3-22.3-10.7-35.7-9.7c-3.3,0.3-6.5,0.9-9.7,1.3c0,0.2,0,0.3,0.1,0.5c0.3,0,0.6,0,0.9,0c10.1-1,19.8,0.2,28.8,4.5
				c6.3,3,11.6,6.9,16.8,11.1c0,1.8,0,3.7,0,5.5c-0.6-0.4-1.1-0.7-1.7-1c-2.7-2.1-5.3-4.2-8-6.2c-8.6-6.4-18.2-10.2-29.8-10
				c-2.4,0-4.7,0.4-7.1,0.5c0,0.2,0,0.3,0,0.5c8.3-0.3,16.1,1.3,22.9,5.4c5.2,3.1,9.8,6.9,14.6,10.4c3,2.2,6.1,4.6,9,6.8
				c0,2.1,0,4.2,0,6.3c-2.9-2.1-6-4-8.8-6.2c-6.2-4.8-11.8-10.1-19.1-13.9c-5.5-3-14.7-4.7-20.8-3.6c9.2,0.7,16.2,4.2,22.5,8.9
				c3.9,3,7.7,6.2,11.6,9.2c4.5,3.3,9,6.6,14.6,8.4c0,3,0,6.2,0,9.2c-3.2,1.6-6.6,2.9-9.5,4.9c-7.2,5-14.1,10.6-21.3,15.7
				c-3.8,2.8-8.3,4.8-13.4,5.3c-0.7,0.1-1.5,0.2-2.1,0.4c-0.7,0.1-1.4,0.3-2.5,0.6c10.4,0.8,18.9-1.8,26.2-7.1
				c4.8-3.5,9.5-7.4,14.3-11c2.6-2,5.4-3.8,8.2-5.7c0,2.1,0,4.2,0,6.3c-0.9,0.6-1.9,1.1-2.7,1.7c-3.9,3.1-7.8,6.3-11.7,9.3
				c-7.1,5.6-15.1,10.1-25,11.1c-2.6,0.3-5.2,0.3-7.8,0.4c0.7,0.4,1.4,0.6,2,0.7c5.7,0.6,11.5,0.4,17-1c7.7-1.7,14-5.3,19.7-9.7
				c2.8-2.1,5.6-4.2,8.4-6.3c0,2,0,3.9,0,5.9c-0.8,0.5-1.6,0.9-2.1,1.4c-5.2,4.1-10.7,7.9-17.2,10.6c-9.1,3.7-18.8,4.4-28.7,3
				c0.9,0.4,1.8,0.6,2.7,0.8c10.7,2.1,21.3,2.1,31.3-1.9C415.6,181.4,420,178.5,424.7,176.2z M374.3,169c5.1,0.5,12.5-1.9,17.2-5.6
				c5.3-4.1,10.4-8.2,15.8-12.2c2.7-2,5.6-3.7,8.4-5.5c-7.7,2-14.3,5.3-20,9.9c-4.5,3.6-9.1,7-14,10.2
				C379.6,167.3,376.8,168,374.3,169z M414.7,141.4c0.1-0.2,0.1-0.3,0.2-0.5c-0.1-0.1-0.1-0.3-0.2-0.3c-6.8-5-13.6-9.9-20.3-14.9
				c-5.1-3.7-10.4-6.9-17.2-7.7c-1-0.1-2,0-3,0c7.1,1.9,12.3,6,17.6,10.1c4.2,3.2,8.6,6.5,13.2,9.2
				C407.9,139,411.4,140.1,414.7,141.4z M369.2,124c1,0.5,2.1,0.9,2.9,1.4c3.9,2.8,7.8,5.5,11.5,8.4c3.9,3,8.3,5.5,13.5,6.8
				c-0.6-0.6-1.4-1-2-1.6c-4.8-3.6-9.6-7.4-14.4-10.9C377.4,125.6,373.7,124.1,369.2,124z M397.1,146.5c-0.1-0.2-0.2-0.4-0.3-0.5
				c-3,1.4-6.2,2.7-9.1,4.4c-6.5,3.8-11,9.7-18.5,12.7c3.5-0.1,6.8-1,9.3-2.8C384.9,155.9,390.9,151.1,397.1,146.5z M379.8,146.9
				c-7.2,1.5-11,6.9-16.6,10.4C370.6,155.9,374.4,150.5,379.8,146.9z M363.1,129.7c5.5,3.4,9.3,8.9,16.7,10.4
				C374.4,136.5,370.6,131,363.1,129.7z M355.3,151.2c0.1,0.2,0.2,0.3,0.3,0.5c3.2-0.7,5.2-2.7,7.3-4.4c-0.1-0.2-0.3-0.4-0.5-0.6
				C360.1,148.2,357.7,149.7,355.3,151.2z M363.4,140c-2.6-2-4.6-4-7.8-4.6C357.7,137.4,359.6,139.4,363.4,140z"/>
			<path d="M-2.3-0.9c57.4,0,114.8,0,172.3,0c-0.7,0.3-1.2,0.6-1.9,0.8c-10.1,2.9-19.4,6.9-27.2,13c-4.6,3.5-9.1,7.2-13.6,10.9
				c-6,4.8-12.5,8.9-20.6,10.6c-3.8,0.8-7.9,1-11.8,1.6c7.4,1.1,14.6,0.6,21.7-1.5c7.9-2.4,14-6.9,19.9-11.6
				c6.2-4.9,12.2-9.9,18.8-14.3c5.4-3.5,11.6-6.3,17.3-9.3c4.5,0,9,0,13.5,0c-0.8,0.3-1.6,0.8-2.5,1c-13.1,3.5-24.1,9.9-33.9,17.8
				c-6,4.8-11.9,9.7-18.4,14.1c-9.8,6.8-21.3,9.6-33.9,8.5c-0.7-0.1-1.4,0-2,0c0.2,0.4,0.5,0.5,0.7,0.5c11.8,2.3,23.2,1.7,34.1-3
				c8.4-3.6,15.1-9.1,21.7-14.6c8.6-6.9,17.1-13.9,27.2-19c3.6-1.8,7.4-3.4,11.3-5.1c3.9,0,7.9,0,11.8,0c-0.7,0.3-1.2,0.6-1.9,0.8
				c-13.8,3.8-25.8,10.3-36.4,18.7c-7.2,5.7-14.3,11.5-21.8,16.8c-10.9,7.7-23.6,11.2-38.1,10.1c-3.6-0.3-7.3-0.9-10.9-1.3
				c0.2,0.1,0.3,0.2,0.5,0.3c16.3,5.1,32.4,5,47.9-2.4c9.3-4.4,16.8-10.8,24.3-16.9c9.5-7.7,19.1-15.2,30.6-20.8
				c3.8-1.9,7.9-3.5,11.8-5.3c3.4,0,6.6,0,10,0c-0.3,0.2-0.6,0.4-0.9,0.5C201.6,4,188.1,11.6,176,21.1c-7.7,6-15.2,12.2-23.1,17.9
				c-11,7.9-23.9,12.1-38.4,11.9c-6.6-0.1-13.1-1-19.5-2.9c0.3,0.5,0.5,0.8,0.7,1.1l0,0c-0.3-0.2-0.8-0.3-1.1-0.5
				c-5.3-4-10.7-8-15.9-12c-8.2-6.4-16.2-13-24.7-19.2C42.5,8.8,29.3,2.5,13.8,0.3c-6.1-0.9-12.3-2-18.5,0C-3.9,0-3.1-0.5-2.3-0.9z
				 M152.5,0c-11.5,2.5-20.9,7.7-29.3,14.7c-3.3,2.7-6.6,5.3-10,7.9c-5.6,4.2-12.2,6.9-19.6,8.1c3.5,0,7-0.1,10.2-0.7
				c8.3-1.4,14.6-5.8,20.6-10.6C133.1,12.2,141.6,4.8,152.5,0z M90.2,24.7c6.2,0.1,11.8-1.6,16.4-5c5.5-3.9,10.7-8.3,16.2-12.3
				c2.8-2.1,6-4,9.2-6.3c-0.7,0.2-1,0.2-1.4,0.3c-7.7,2.1-14.1,6-19.8,10.8C104.9,17.3,98.9,22.6,90.2,24.7z M85.3,18.6
				c0.1,0.2,0.1,0.4,0.2,0.6c2.4-0.7,5.2-1,7-2.2c7.2-4.7,14.1-9.7,21.1-14.6c-0.1-0.1-0.2-0.3-0.3-0.4c-0.3,0.1-0.7,0.1-1,0.2
				c-4.8,1.4-9,4-12.7,6.9C95.2,12.7,91,16.5,85.3,18.6z M79.2,13C86.7,11.8,90.7,6.4,96,2.6C88.8,4.1,84.9,9.7,79.2,13z M72.1,7.1
				c3.2-0.5,5.1-2.4,7-4.3C75.9,3.3,74,5.3,72.1,7.1z"/>
			<path d="M218.3,287.9c-3.4,0-6.6,0-10,0c-0.2-0.2-0.3-0.4-0.6-0.5c-12.3-4.5-23-10.9-32.8-18.5c-8-6.2-15.8-12.7-24.1-18.7
				c-4.4-3.1-9.5-5.7-14.6-7.8c-9.6-3.8-19.9-4.4-30.3-3c-4.4,0.6-8.6,1.8-12.8,2.7c0.2,0.5,0.2,0.6,0.3,0.6
				c0.6-0.1,1.1-0.2,1.7-0.3c17.6-3.5,33.6-0.7,47.3,9.1c8,5.6,15.3,11.8,23,17.7c7.4,5.7,15.4,10.6,24.5,14.1
				c4.1,1.5,8.1,2.9,12.2,4.3c-3.9,0-7.9,0-11.8,0c-0.2-0.2-0.5-0.4-0.7-0.5c-12-4.5-22.1-11.2-31.6-18.7
				c-7.3-5.7-14.5-11.5-22.4-16.7c-8.3-5.5-18.4-7.6-28.8-7.2c-3.9,0.1-7.8,0.8-11.7,1.2c0,0.2,0,0.4,0.1,0.5c0.7,0,1.2,0.1,1.9,0
				c12.8-1.1,24.4,1.8,34.3,8.7c6,4.1,11.5,8.7,17.1,13.1c8,6.4,16.4,12.1,26.6,15.8c3.6,1.3,7.2,2.5,10.8,3.7c-4.6,0-9.3,0-14,0
				c-0.3-0.3-0.7-0.6-1.1-0.8c-3.8-1.9-8-3.4-11.4-5.7c-7.3-5-14.2-10.3-21.2-15.5c-6.1-4.6-11.8-9.4-19.4-12.3
				c-7.9-3-16-3.7-24.3-2.3c0.8,0.2,1.5,0.2,2.3,0.2c7.8,0.2,15.1,1.9,21.4,5.9c5,3.1,9.7,6.7,14.2,10.3c7.5,6.1,15.2,12,24.8,15.7
				c4.3,1.7,8.7,3,13.1,4.5c-57.5,0-115.2,0-172.7,0c-0.8-0.5-1.6-0.9-2.4-1.3c1.6,0.4,3.2,1,4.8,1c14.7,0.1,28.4-3.2,40.9-9.8
				c11-5.8,20.4-13.4,29.7-20.9c8.3-6.6,16.8-13,25.2-19.5c-0.2,0.4-0.5,0.9-0.8,1.3c0.7-0.2,1.1-0.3,1.6-0.4
				c9.7-2.5,19.5-3,29.5-1.5c12,1.8,21.8,7.2,30.8,13.9c5.5,4.1,10.8,8.6,16.2,12.9c9.7,7.7,20,14.8,32.2,19.6
				C209.7,285,214.1,286.3,218.3,287.9z M93.5,256.6c2,0.5,4.1,0.8,6.1,1.3c8,1.9,13.8,6.5,19.6,11.1c5.5,4.6,11,9,17.7,12.5
				c4.8,2.5,10,4.1,15.3,5.4c-2.1-1.2-4.6-2.2-6.5-3.6c-6.8-4.8-13.5-9.7-20-14.7c-5.3-4-10.4-8.1-17-10.4
				C103.7,256.7,98.8,256,93.5,256.6z M131.3,285.5c-5.3-4-10.9-8.3-16.6-12.5c-3.4-2.5-6.8-5-10.4-7.2c-4.2-2.5-8.9-3.7-13.7-3.7
				c3.2,1.4,6.8,2.8,9.7,4.7c4.1,2.7,7.8,5.7,11.5,8.7C117.6,280,124,283.7,131.3,285.5z M85.9,268c3.4,2.3,7,4.8,10.6,7.3
				c3,2.2,6,4.6,9.1,6.5c2.3,1.3,5,2.2,7.4,3.3c0.1-0.2,0.2-0.3,0.2-0.5c-1.5-1-2.9-2.1-4.4-3.2c-4.2-3.1-8.1-6.5-12.4-9.5
				C93.4,269.7,89.7,268.3,85.9,268z M79.3,274c5.7,3.2,9.5,8.9,16.7,10.3C90.7,280.6,86.7,275.2,79.3,274z M79.1,284.1
				c-2-1.8-3.8-3.8-7-4.2C74,281.7,75.9,283.6,79.1,284.1z"/>
			<path d="M424.7,241c0,1.1,0,2.2,0,3.3c-0.2-0.1-0.6-0.1-0.8-0.2c-10.8-4.8-22.3-6.2-34.2-4.6c-4.4,0.6-8.6,1.7-12.9,2.7
				c0.1,0.2,0.1,0.4,0.2,0.6c0.7-0.1,1.4-0.3,2.1-0.4c10.4-2.1,20.7-2.1,30.6,1.2c5.3,1.8,10,4.6,15.1,6.9c0,1.4,0,3,0,4.4
				c-0.6-0.3-1.2-0.6-1.8-1c-9.5-6.4-20.2-9.7-32.2-9.3c-3.9,0.1-7.9,0.8-11.9,1.2c0,0.2,0,0.4,0.1,0.5c0.7,0,1.5,0.1,2.1,0
				c11.9-1,22.7,1.5,32.3,7.5c3.9,2.5,7.5,5.3,11.4,8c0,2,0,3.9,0,5.9c-1.9-1.5-3.8-3-5.7-4.5c-8-6.4-16.8-11.6-28-12.7
				c-4.2-0.4-8.3-0.5-12.5,0.3c3.9,0.5,7.9,0.8,11.6,1.6c8.2,1.7,14.7,5.9,20.8,10.7c4.6,3.6,9.2,7.2,13.8,10.9c0,2.1,0,4.2,0,6.3
				c-0.8-0.5-1.6-1-2.3-1.4c-5.4-4.3-10.8-8.5-16.3-12.8c-5.3-4.2-11.1-7.8-18.4-9.1c-3.4-0.7-6.9-0.8-10.4-1.1c0,0.2,0,0.4-0.1,0.6
				c2.4,0.6,4.7,1,7,1.6c7.2,2.1,12.7,6.2,18.1,10.6c6.8,5.6,13.6,11,22.3,14.7c0,1.4,0,3,0,4.4c-47.9,0-95.7,0-143.6,0
				c0-0.2-0.1-0.4-0.1-0.6c1.4,0.1,2.6,0.3,3.9,0.3c20-0.1,37.2-6.6,52-17.5c10.4-7.6,20-15.8,30.2-23.6c3.9-3,8.1-5.9,12.3-8.8l0,0
				c-0.1,0.3-0.3,0.6-0.6,1c0.5-0.1,0.7-0.2,1-0.3c11.4-3,22.9-3.4,34.5-0.8C417.7,238.6,421.2,239.9,424.7,241z M414.7,285.5
				c-6.1-4.7-12.4-9.6-18.8-14.4c-3.2-2.3-6.5-4.5-10-6.4c-3.6-1.9-7.7-2.7-12-2.6c5.4,1.5,10.1,4,14.2,7.2c2.6,2,5.1,4.1,7.5,6.1
				C401.3,280.1,407.6,283.8,414.7,285.5z M396.9,284.7c-1.5-1-2.9-2.1-4.4-3.2c-4.3-3.2-8.6-6.7-12.9-9.8c-3-2.1-6.6-3.3-10.2-3.6
				c2.9,1.9,6.1,3.8,9,5.9c2.6,1.8,5,4,7.5,5.8C389,282.1,392.6,283.9,396.9,284.7z M362.8,274c5.7,3.2,9.5,8.9,16.8,10.4
				C374.3,280.6,370.2,275.2,362.8,274z M355.6,279.8c2,1.8,3.8,3.8,7,4.2C360.7,282.2,358.7,280.3,355.6,279.8z"/>
			<path d="M424.7,42.6c0,1.1,0,2.2,0,3.3c-0.5,0.1-0.8,0.1-1.2,0.3c-9.8,4-20.2,5.4-31,4.4c-4.6-0.5-9.2-1.4-13.6-2.2
				c0.1,0.1,0.2,0.5,0.5,0.8l0,0c-2.7-1.8-5.5-3.6-8-5.5c-10-7.9-19.9-16-30.1-23.7C327.9,9.7,313,2,294.7,0
				c-5.3-0.6-10.7-1.5-15.9,0.5c0.8-0.5,1.6-1,2.5-1.3c47.9,0,95.7,0,143.6,0c0,1.4,0,3,0,4.4c-6.2,2.6-11.7,6.2-16.8,10.2
				c-4.5,3.5-8.9,7.1-13.5,10.4c-5,3.4-10.8,5.4-17.2,6.4c2.8,0.8,5.5,0.3,8.2-0.1c8.8-1.3,15.6-5.6,22-10.7
				c5.6-4.5,11.5-8.9,17.2-13.2c0,2.1,0,4.2,0,6.3c-0.2,0.1-0.5,0.3-0.7,0.4c-7.4,5.4-14.6,10.9-22.1,16.4
				c-3.6,2.6-7.9,4.1-12.5,4.9c-3.9,0.6-8,1-11.9,1.3c0.1,0.1,0.3,0.3,0.6,0.3c11.6,1.5,22.5-0.3,32-6.3c5.2-3.2,9.8-7.1,14.6-10.7
				c0,2,0,3.9,0,5.9c-2.7,2-5.4,4.1-8.2,6c-10.1,6.9-21.5,10.6-34.7,9.4c-1.5-0.1-3-0.2-4.5-0.3c0,0.2-0.1,0.5-0.1,0.7
				c3.5,0.4,7,1,10.5,1.2c11.6,1.2,22-1.4,31.5-6.9c1.9-1,3.7-2.2,5.5-3.2c0,1.4,0,3,0,4.4c-0.3,0.2-0.8,0.4-1.1,0.6
				c-12.9,8.3-27.5,10.3-43,7.9c-0.9-0.1-1.7-0.3-2.6-0.5c0.1,0.4,0.3,0.6,0.7,0.6c11.7,3.7,23.6,4,35.7,1.1
				C417.9,45.2,421.2,43.7,424.7,42.6z M415.8,1.2c-0.8,0.1-1.1,0.2-1.4,0.2c-8.8,2.4-15.6,7.1-22,12.5c-5.4,4.6-11,8.9-18.8,10.6
				c-0.1,0-0.2,0.2-0.5,0.5c0.7,0,1,0,1.5,0c7.5-0.6,14-3.4,19.5-7.8c5-3.9,9.9-7.8,14.9-11.5C411.1,4.1,413.2,2.8,415.8,1.2z
				 M396.8,2.1c-0.1-0.2-0.1-0.3-0.2-0.5c-2.6,1.2-5.4,2.3-7.9,3.6c-7.1,4-11.9,10.5-19.9,13.5c5-0.2,9.1-2.1,12.7-4.8
				C386.7,10.2,391.7,6.1,396.8,2.1z M379.6,2.5c-7.2,1.5-11,7-16.8,10.4C370.3,11.7,374.3,6.3,379.6,2.5z M362.9,3.2
				c-0.2-0.3-0.6-0.6-0.8-0.9c-2.3,1.5-4.5,3-6.8,4.5c0.2,0.3,0.5,0.5,0.7,0.8C358.3,6.1,360.7,4.6,362.9,3.2z"/>
			<path class="st0" d="M-46.8,166c-5.7,4.3-11.5,8.5-17.1,12.8c-9.6,7.3-18.8,14.9-28.8,21.9c-13.8,9.7-29.9,14.6-48,14.9
				c-0.6,0-1.1,0.1-1.7,0.1c0-1.7,0-3.4,0-5.1c0.9,0,1.9,0,2.8-0.1c14.7-1.5,27.9-6.5,39.1-14.7c10.7-7.8,20.8-16.1,31.2-24.1
				c12.9-10,26.8-18.8,43-24.8c3-1.1,6.2-2.2,8.8-3.1c-7.7-3.3-15.6-6.7-23.5-10.1c-2.9-1.2-5.5-2.9-8.3-4.3
				c-3.3-2.2-6.8-4.2-9.9-6.6c-10.2-7.8-20.3-15.8-30.4-23.7c-7.5-5.9-15.3-11.5-24.4-15.6c-8.8-4-18.1-6.5-28.1-6.9
				c0-1.7,0-3.4,0-5.1c11.9,0.2,23.5,2.1,34.3,6.6c9.2,3.8,17.3,8.9,24.9,14.8c10.4,8.1,20.7,16.4,31.1,24.5
				c1.7,1.3,3.6,2.4,5.4,3.6c0.1,0.1,0.2,0.1,0.3,0.2c3.2,2,6.3,4,9.5,6c0.9,0.6,1.8,1.2,2.7,1.8c2.6,1.3,5.2,2.8,7.7,4.1
				c1.9,1,3.8,1.9,5.9,3c3.3,1.4,6.4,2.9,9.7,4.3c1.6,0.5,3.2,1,4.7,1.4c1,0.5,2,0.9,2.9,1.4c0.3,0.2,0.5,0.8,0.6,1.2
				c-2.4,0.8-4.7,1.6-7.1,2.4c-3.4,1.3-6.9,2.7-10.2,4c-0.6,0.2-0.9,0.7-1.4,1c-1.7,0.8-3.4,1.5-5.1,2.4c-2,1.1-4.2,2.4-6.2,3.5
				c-1.5,0.8-2.9,1.4-4.3,2.2c-3.2,2-6.2,4.1-9.3,6.1C-46.7,165.9-46.7,166-46.8,166z"/>
			<path class="st0" d="M-142.4,209.3c0-1.6,0-3.2,0-4.8c5.6-0.7,10.9-2.3,16.1-4.3c10.2-4.1,18.6-10.2,26.7-16.6
				c8.4-6.6,16.7-13.3,25.2-19.7c8.7-6.5,18.4-11.8,28.9-15.9c4.1-1.6,8.1-3,12.4-4.5c-0.5-0.2-0.8-0.3-1.1-0.4
				c-7.2-2.9-14.7-5.2-21.6-8.7c-12.9-6.4-24-14.9-34.7-23.6c-8.6-7-17-14.2-27-19.7c-7.7-4.3-15.9-7.4-25-8.6c0-1.6,0-3.2,0-4.8
				c10.8,0.4,20.6,3.3,29.8,7.8c10.1,4.9,18.6,11.5,26.9,18.3c9.8,7.9,19.4,16,30.1,22.8c1.8,1.1,3.7,2.1,5.5,3.1
				c3,1.8,6,3.8,9.3,5.3c6.6,3,13.4,5.8,19.9,8.7c0,0-0.3,0.2-0.7,0.3c-13.5,4.5-26.1,10.6-37.2,18.6c-10.7,7.7-20.7,15.9-31.1,23.9
				c-8.2,6.5-16.7,12.7-26.8,16.8C-124.6,206.7-133.2,209.1-142.4,209.3z"/>
			<path class="st0" d="M281.2-0.9c-0.8,0.5-1.6,1-2.5,1.3c-1.9,0.7-3.7,1.3-5.6,1.9c-2.7,1-5.5,2-8.2,3c-0.9,0.4-1.7,1-2.5,1.5
				c-2,1-4.1,1.8-6,2.8c-2.6,1.3-5.1,2.8-7.7,4.1c-0.9,0.6-1.9,1.2-2.8,1.8c-2.7,1.7-5.3,3.5-8,5.2c-0.1,0.1-0.2,0.2-0.5,0.3
				c-3.7,2.6-7.5,5-11,7.7c-9.1,7.1-18,14.5-27.1,21.5c-13.5,10.4-28.7,18.2-47.3,20c-4.5,0.5-9.1,1.2-13.6,0
				c-0.6-0.2-1.2-0.3-1.8-0.5c-2.7-1-5.4-1.9-8.1-2.9c-0.2-0.3-0.3-0.5-0.6-0.9c1.6,0,3,0.1,4.6,0c6.2-0.5,12.5-0.6,18.6-1.5
				c12.5-2,23.3-7.1,32.9-14.1c8.8-6.4,17.2-13.2,25.7-19.9c9.8-7.8,20-15.1,31.5-21.1C249.3,5.2,258,1.9,266.9-1
				C271.6-0.9,276.3-0.9,281.2-0.9z"/>
			<path class="st0" d="M281.1,287.3c0,0.2,0.1,0.4,0.1,0.6c-5,0-9.9,0-14.9,0c-0.2-0.2-0.6-0.4-0.8-0.5c-18-5.5-33.8-14.3-48-25.1
				c-9.3-7.1-18.4-14.7-27.7-21.8c-7.4-5.7-15.4-10.8-24.7-14.4c-10.9-4.2-22.4-5.8-34.3-5.3c-0.9,0-1.9,0-2.8,0c0-0.1,0-0.2,0-0.3
				c0.8-0.4,1.5-0.7,2.3-1c1.2-0.5,2.6-1,3.8-1.3c2.4-0.7,4.7-1.9,7.2-2c8.3-0.3,16.6,0.9,24.5,3c11.6,3.2,21.8,8.7,30.8,15.5
				c10.6,8,20.7,16.4,31.1,24.5c3.3,2.5,6.8,4.8,10.1,7c2.7,1.7,5.4,3.4,8.1,5.2c0.9,0.6,1.9,1,2.8,1.6c2.9,1.7,5.9,3.3,8.8,5
				c1.8,0.9,3.7,1.7,5.5,2.6c3.3,1.3,6.5,2.8,9.8,4.1C275.7,285.4,278.4,286.4,281.1,287.3z"/>
			<path class="st0" d="M-4.7,286.5c0.8,0.5,1.6,0.9,2.4,1.3c-4.8,0-9.6,0-14.4,0c-8.6-2.8-16.9-5.9-24.7-10
				c-3.8-2-7.7-4.2-11.5-6.3c-0.5-0.4-0.9-0.8-1.5-1.1c-3.4-2.4-7-4.6-10.2-7.1c-10.6-8.2-20.8-16.5-31.4-24.6
				c-8.1-6.2-17.1-11.5-27.6-14.4c-6.1-1.7-12.5-2.5-18.8-3.6c0-1.6,0-3.2,0-4.8c17.5-0.2,33,4.4,47.2,12.9
				c9.6,5.8,17.9,12.9,26.5,19.6c6.3,5,12.6,9.9,19,14.9c1.1,0.9,2.6,1.5,3.8,2.3H-46c2.8,1.9,5.6,3.7,8.6,5.6
				c0.9,0.6,1.7,1.2,2.6,1.8c2.6,1.3,5.3,2.8,7.9,4.1c1.6,0.9,3.3,1.7,4.8,2.6c2.6,1.1,5.2,2.3,7.8,3.3
				C-11.1,284.2-8,285.3-4.7,286.5z"/>
			<path class="st0" d="M-2.3-0.9C-3.1-0.5-3.9,0-4.6,0.3C-6.3,0.9-8,1.5-9.7,2c-3,1.1-6.1,2.3-9,3.5c-1.1,0.5-2.1,1.2-3.3,1.9
				c-1.8,0.7-3.5,1.5-5.2,2.3c-2.6,1.3-5.2,2.8-7.7,4.1c-0.9,0.6-1.9,1.2-2.8,1.8c-2.7,1.7-5.3,3.5-8,5.2l0.1-0.1
				c-3.5,2.4-7.1,4.7-10.4,7.2C-65.5,35.6-75,43.5-84.7,51c-9.9,7.5-20.8,13.7-33.8,17.1c-7.8,2-15.7,3-23.9,2.9c0-1.6,0-3.2,0-4.8
				c0.9-0.1,1.9-0.3,2.8-0.4c7.5-0.7,14.7-2.4,21.6-5.1c9.1-3.6,17.2-8.7,24.5-14.5c9.3-7.3,18.5-14.8,27.8-22
				c11.9-8.9,25-16.6,39.6-22c2.9-1,5.9-2.1,8.7-3.1C-12.2-0.9-7.3-0.9-2.3-0.9z"/>
			<path class="st0" d="M250.7-0.9c4.1,0,8.1,0,12.2,0c-0.3,0.2-0.7,0.5-1,0.6c-16.2,5.3-30.6,13.3-43.5,23
				c-10.6,8.1-20.8,16.6-31.5,24.7C174.2,57,159.9,63.6,142.7,65c-6.5,0.5-13.2,0.7-19.7-0.5c-2.5-1.1-4.8-2.2-7.3-3.3
				c-0.2-0.2-0.3-0.5-0.7-0.8c0.3,0,0.6-0.1,0.8,0c20.6,2.8,39.4-1,55.5-12.2c9.5-6.6,18.1-13.7,27.1-20.8
				c10.2-8,20.9-15.6,33.3-21.1C237.9,3.7,244.4,1.5,250.7-0.9z"/>
			<path class="st0" d="M262.8,287.9c-4.1,0-8.1,0-12.2,0c-3-1-6.2-2.1-9.2-3.2c-15.8-5.7-29.2-14.4-41.7-24.2
				c-9.5-7.3-18.7-14.9-28.5-21.9s-21.3-11.1-34.1-12.4c-7.3-0.8-14.6-0.6-22,0.4c0.1-0.3,0.2-0.5,0.2-0.8c2.5-1.1,5-2.3,7.5-3.3
				c0.2-0.1,0.3-0.2,0.6-0.2c12.4-1.4,24.7-0.6,36.5,3c11.3,3.5,20.7,9.3,29.4,16.1c8.8,6.8,17.2,13.8,25.9,20.6
				c10.8,8.4,22.5,15.7,35.7,21.2C254.9,284.9,259,286.3,262.8,287.9z"/>
			<path class="st0" d="M-142.4,226.6c0-1.6,0-3.2,0-4.8c11,0.9,21.5,3.4,30.7,8.5c6.3,3.5,12.4,7.3,18,11.6
				c10.5,7.8,20.4,16.1,30.7,24c2.9,2.3,6.3,4.1,9.5,6.1c0.3,0.3,0.6,0.7,1,0.9c6.2,3.2,12.3,6.7,18.7,9.7c4.2,2,8.7,3.5,13.1,5.2
				c-4.1,0-8.1,0-12.2,0c-0.1-0.1-0.2-0.2-0.3-0.2c-16.7-5-31.3-12.7-44.5-22.6c-8.2-6.3-16.2-12.9-24.3-19.2
				c-7.4-5.8-15.2-11.3-24.5-14.8C-131.7,229.3-137.1,228.1-142.4,226.6z"/>
			<path class="st0" d="M-142.4,65.1c0-1.6,0-3.2,0-4.8c0.3-0.1,0.7-0.2,1-0.3c9.8-1.5,18.6-5,26.5-10c5.7-3.6,11-7.6,16.3-11.6
				c7.2-5.5,14.1-11.3,21.3-16.8c11.1-8.5,23.5-15.3,37.5-20.2c2.1-0.8,4.4-1.5,6.5-2.4c4.2,0,8.4,0,12.6,0c-2.7,1-5.5,2.1-8.2,3.1
				c-15.4,6.1-28.8,14.6-41.2,24.3c-8.8,6.9-17.3,14-26.2,20.8C-109.5,57.2-124.5,63.9-142.4,65.1z"/>
			<path class="st0" d="M234.6-0.9c3.5,0,7,0,10.5,0c-0.2,0.1-0.5,0.3-0.8,0.4c-14.1,4.8-26.8,11.5-38.1,20.1
				c-9.7,7.3-19,14.9-28.6,22.4c-12.8,9.9-27.5,16.8-45.4,17.5c-8.2,0.3-16.3-0.2-24.2-2.5c-0.8-0.5-1.6-1-2.4-1.5
				c-0.2-0.3-0.6-0.6-0.9-1c0.3-0.1,0.3-0.1,0.5-0.1c0.6,0.1,1.1,0.2,1.7,0.3c19.3,3.4,37.3,0.8,53-9.6c8.3-5.5,16-11.7,23.6-17.9
				c11.3-8.9,23.1-17.4,37.2-23.1C225.2,2.2,229.9,0.7,234.6-0.9z"/>
			<path class="st0" d="M245,287.9c-3.5,0-7,0-10.5,0c-0.2-0.1-0.5-0.3-0.8-0.4c-15.6-4.6-29.3-11.8-41.5-21.1
				c-9.2-7-18.2-14.5-27.6-21.4c-15.8-11.6-34-16.2-54.7-13.2c-1.7,0.3-3.5,0.6-5.6,0.9c1.1-0.9,1.8-1.4,2.6-2
				c0.3-0.1,0.7-0.3,0.9-0.4c0.8-0.3,1.6-0.8,2.4-1c18.8-3.8,36.6-2.1,53.1,6.6c10.1,5.3,18.6,12.4,27,19.3
				c11.5,9.4,23.1,18.6,37,25.2C233.1,283.2,239.2,285.4,245,287.9z"/>
			<path class="st0" d="M218.3,287.9c-4.3-1.5-8.8-3-12.9-4.7c-12.2-4.9-22.5-11.9-32.2-19.6c-5.4-4.3-10.6-8.8-16.2-12.9
				c-9-6.7-18.8-12-30.8-13.9c-10-1.5-19.8-1-29.5,1.5c-0.5,0.1-0.9,0.3-1.6,0.4c0.3-0.6,0.6-1,0.8-1.3l-0.1,0.1
				c0.8-0.2,1.6-0.4,2.3-0.6c12.8-4.1,25.9-4.8,39.2-2.1c7.7,1.6,14.9,4.5,20.8,8.9c8.9,6.3,17.5,13,25.9,19.7
				c10.1,7.9,20.7,15.2,33,20.7c3.2,1.3,6.4,2.7,9.6,3.9C223.9,287.9,221.2,287.9,218.3,287.9z"/>
			<path class="st0" d="M95.7,49.3c-0.2-0.3-0.3-0.7-0.7-1.1c6.4,1.9,12.8,2.8,19.5,2.9c14.6,0.2,27.4-4,38.4-11.9
				c8-5.7,15.4-11.9,23.1-17.9c12.2-9.5,25.6-17.1,41.3-21.6c0.3-0.1,0.6-0.3,0.9-0.5c2.8,0,5.5,0,8.3,0c-0.5,0.2-0.8,0.5-1.2,0.7
				c-12.7,4.5-24,10.8-34.1,18.6c-8.1,6.2-16,12.7-24.1,18.9c-6.1,4.8-12.7,9-20.3,11.9C129.8,55.5,112.8,55.2,95.7,49.3z"/>
			<path class="st0" d="M202.2,287.9c-4.1-1.4-8.2-2.8-12.2-4.3c-9.1-3.5-17.2-8.5-24.5-14.1c-7.7-5.9-15.1-12.1-23-17.7
				c-13.8-9.8-29.7-12.7-47.3-9.1c-0.6,0.1-1.1,0.2-1.7,0.3c0,0-0.1-0.1-0.3-0.6c4.3-1,8.6-2.1,12.8-2.7c10.4-1.4,20.7-0.9,30.3,3
				c5.2,2.1,10.2,4.7,14.6,7.8c8.3,5.9,16.1,12.4,24.1,18.7c9.8,7.5,20.5,14,32.8,18.5c0.2,0.1,0.5,0.3,0.6,0.5
				C206.3,287.9,204.3,287.9,202.2,287.9z"/>
			<path class="st0" d="M208.3-0.9c-3.9,1.7-8,3.4-11.8,5.3C185,10,175.3,17.6,165.9,25.3c-7.5,6.2-15,12.6-24.3,16.9
				c-15.5,7.2-31.5,7.5-47.9,2.4c-0.2-0.1-0.3-0.2-0.5-0.3c3.7,0.5,7.3,1,10.9,1.3c14.3,1.1,27-2.4,38.1-10.1
				c7.5-5.3,14.6-11.1,21.8-16.8c10.6-8.4,22.5-14.9,36.3-18.8c0.7-0.2,1.2-0.5,1.9-0.8C204.3-0.9,206.3-0.9,208.3-0.9z"/>
			<path class="st0" d="M186,287.9c-3.6-1.2-7.2-2.4-10.8-3.7c-10.1-3.7-18.6-9.4-26.6-15.8c-5.6-4.5-11.1-8.9-17.1-13.1
				c-9.9-6.9-21.4-9.8-34.3-8.7c-0.7,0.1-1.2,0-1.9,0c0-0.2,0-0.4-0.1-0.5c3.9-0.4,7.8-1.1,11.7-1.2c10.6-0.4,20.5,1.7,28.8,7.2
				c7.8,5.1,15.1,10.9,22.4,16.7c9.6,7.5,19.6,14.3,31.6,18.7c0.2,0.1,0.5,0.3,0.7,0.5C189,287.9,187.5,287.9,186,287.9z"/>
			<path class="st0" d="M190.4-0.9c-3.7,1.7-7.5,3.3-11.3,5.1c-10.2,5.1-18.8,12.1-27.2,19c-6.6,5.4-13.4,10.9-21.7,14.6
				c-10.9,4.8-22.3,5.3-34.1,3c-0.2-0.1-0.5-0.2-0.7-0.5c0.7,0,1.4-0.1,2,0c12.7,1.1,24.1-1.7,33.9-8.5c6.4-4.4,12.4-9.3,18.4-14.1
				c9.9-7.9,20.8-14.2,33.9-17.8c0.9-0.2,1.7-0.7,2.5-1C187.5-0.9,189-0.9,190.4-0.9z"/>
			<path d="M226.7,287.9c-3.2-1.3-6.4-2.6-9.6-3.9c-12.3-5.4-22.9-12.7-33-20.7c-8.6-6.7-17-13.3-25.9-19.7
				c-6.1-4.3-13.2-7.2-20.8-8.9c-13.3-2.8-26.3-2.1-39.2,2.1c-0.8,0.3-1.6,0.4-2.3,0.6c3.7-2.3,7.3-4.6,11-6.9
				c-0.7,0.6-1.5,1.1-2.6,2c2.1-0.4,3.9-0.7,5.6-0.9c20.7-3,39.1,1.6,54.7,13.2c9.3,6.9,18.4,14.4,27.6,21.4
				c12.2,9.3,25.9,16.6,41.5,21.1c0.2,0.1,0.5,0.2,0.8,0.4C231.9,287.9,229.3,287.9,226.7,287.9z"/>
			<path d="M95.7,49.3c17.1,5.9,34.1,6.3,51.1-0.1c7.7-2.9,14.2-7.1,20.3-11.9c8.1-6.3,16-12.8,24.1-18.9
				c10.1-7.7,21.4-14.1,34.1-18.6c0.5-0.2,0.9-0.4,1.2-0.7c2.6,0,5.2,0,7.9,0c-4.6,1.6-9.2,3.1-13.7,5
				c-14.1,5.7-25.9,14.2-37.2,23.1c-7.7,6.1-15.3,12.4-23.6,17.9c-15.8,10.4-33.7,13-53.1,9.6c-0.6-0.1-1.1-0.2-1.7-0.3
				c-0.1,0-0.1,0-0.5,0.1c0.3,0.4,0.7,0.7,0.9,1C102.3,53.4,99.1,51.3,95.7,49.3L95.7,49.3z"/>
			<path class="st0" d="M172.5-0.9c-5.9,3-12,5.8-17.3,9.3c-6.6,4.4-12.6,9.4-18.8,14.3c-6,4.7-12.2,9.1-19.9,11.6
				c-7.1,2.2-14.3,2.7-21.7,1.5c3.9-0.5,7.9-0.8,11.8-1.6c8.1-1.7,14.6-5.8,20.6-10.6c4.6-3.6,9-7.3,13.6-10.9
				c7.9-6.1,17.1-10.3,27.2-13c0.7-0.2,1.2-0.5,1.9-0.8C170.8-0.9,171.7-0.9,172.5-0.9z"/>
			<path class="st0" d="M170.4,287.9c-4.4-1.5-8.8-2.8-13.1-4.5c-9.6-3.7-17.2-9.7-24.8-15.7c-4.5-3.6-9.2-7.1-14.2-10.3
				c-6.3-4-13.6-5.7-21.4-5.9c-0.8,0-1.6,0-2.3-0.2c8.4-1.4,16.6-0.7,24.3,2.3c7.5,2.9,13.3,7.7,19.4,12.3c7,5.2,14,10.6,21.2,15.5
				c3.4,2.3,7.5,3.9,11.4,5.7c0.5,0.2,0.8,0.5,1.1,0.8C171.5,287.9,170.9,287.9,170.4,287.9z"/>
			<path d="M107.9,57c7.9,2.3,16,2.8,24.2,2.5c17.9-0.7,32.5-7.6,45.4-17.5c9.6-7.4,18.9-15,28.6-22.4c11.3-8.5,24-15.3,38.1-20.1
				c0.2-0.1,0.5-0.3,0.8-0.4c1.9,0,3.8,0,5.6,0c-6.3,2.4-12.7,4.6-18.8,7.2c-12.5,5.5-23.1,13.1-33.3,21.1
				c-8.9,7-17.7,14.2-27.1,20.8c-16.2,11.2-34.9,14.9-55.5,12.2c-0.2,0-0.5,0-0.8,0c0.2,0.3,0.5,0.5,0.7,0.8
				C113.1,59.7,110.5,58.3,107.9,57z"/>
			<path d="M245,287.9c-5.9-2.5-11.8-4.7-17.5-7.4c-14-6.7-25.7-15.9-37-25.2c-8.6-6.9-16.9-14-27-19.3
				c-16.6-8.8-34.5-10.4-53.1-6.6c-0.8,0.2-1.6,0.6-2.4,1c2.6-1.4,5.1-3,7.7-4.4c-0.1,0.2-0.1,0.5-0.2,0.8c7.3-1,14.6-1.1,22-0.4
				c12.8,1.3,24.3,5.4,34.1,12.4c9.8,6.9,19,14.6,28.5,21.9c12.5,9.8,25.9,18.4,41.7,24.2c3,1.1,6.2,2.1,9.2,3.2
				C248.7,287.9,246.8,287.9,245,287.9z"/>
			<path d="M-142.4,209.3c9.2-0.3,17.8-2.6,26-6c10.1-4.3,18.6-10.5,26.8-16.8c10.2-8,20.4-16.3,31.1-23.9c11-8,23.5-14.1,37.2-18.6
				c0.3-0.1,0.7-0.3,0.7-0.3c-6.6-2.9-13.4-5.6-19.9-8.7c-3.3-1.5-6.2-3.5-9.3-5.3c0.2-0.1,0.3-0.3,0.6-0.4c2.8,1.4,5.4,3,8.3,4.3
				c7.9,3.5,15.9,6.9,23.5,10.1c-2.6,0.9-5.6,2-8.8,3.1c-16.2,6-30.1,14.8-43,24.8c-10.4,8.1-20.5,16.4-31.2,24.1
				c-11.1,8.1-24.3,13.1-39.1,14.7c-0.9,0.1-1.9,0.1-2.8,0.1C-142.4,210-142.4,209.7-142.4,209.3z"/>
			<path d="M262.8,287.9c-3.9-1.5-7.9-3-11.7-4.7c-13.2-5.5-24.9-12.9-35.7-21.2c-8.7-6.8-17.2-13.8-25.9-20.6
				c-8.8-6.8-18.2-12.6-29.4-16.1c-11.8-3.7-24-4.5-36.5-3c-0.2,0-0.5,0.1-0.6,0.2c2.5-1,4.8-2.1,7.3-3.1c-0.8,0.4-1.5,0.7-2.3,1
				c0,0.1,0,0.2,0,0.3c0.9,0,1.9,0,2.8,0c11.9-0.5,23.4,1.1,34.3,5.3c9.2,3.6,17.2,8.6,24.7,14.4c9.2,7.2,18.4,14.7,27.7,21.8
				c14.2,10.9,29.9,19.6,48,25.1c0.3,0.1,0.6,0.3,0.8,0.5C265.2,287.9,264.1,287.9,262.8,287.9z"/>
			<path d="M123.1,64.4c6.5,1.2,13.2,1,19.7,0.5c17.2-1.3,31.5-8,44.1-17.6c10.6-8.1,20.8-16.6,31.5-24.7
				c12.8-9.7,27.1-17.6,43.3-22.9c0.3-0.1,0.7-0.4,1-0.6c1.4,0,2.6,0,3.9,0c-8.9,2.9-17.6,6.2-25.7,10.5
				c-11.5,6-21.7,13.3-31.5,21.1c-8.4,6.8-16.9,13.5-25.7,19.9c-9.6,6.9-20.4,12.1-32.9,14.1c-6.1,1-12.4,1-18.6,1.5
				c-1.5,0.1-2.9,0-4.6,0c0.2,0.4,0.5,0.6,0.6,0.9C126.8,66.2,124.9,65.3,123.1,64.4z"/>
			<path d="M-142.4,65.1c17.9-1.1,32.9-8,45.9-18c8.9-6.8,17.5-13.9,26.2-20.8C-57.8,16.6-44.4,8.2-29,2.2c2.7-1,5.5-2.1,8.2-3.1
				c1.1,0,2.4,0,3.5,0c-2.9,1-5.9,2.1-8.7,3.1c-14.6,5.4-27.7,13-39.5,22.1c-9.3,7.2-18.6,14.7-27.8,22
				c-7.4,5.8-15.4,10.8-24.5,14.5c-6.9,2.8-14.1,4.5-21.6,5.1c-0.9,0.1-1.9,0.2-2.8,0.4C-142.4,65.8-142.4,65.4-142.4,65.1z"/>
			<path d="M-53.4,272c0.2-0.2,0.3-0.3,0.6-0.5c3.8,2.1,7.7,4.3,11.5,6.3c7.8,4.1,16.1,7.2,24.7,10c-1.4,0-2.6,0-3.9,0
				c-4.4-1.7-8.9-3.2-13.1-5.2c-6.3-3-12.5-6.5-18.7-9.7C-52.9,272.7-53.1,272.3-53.4,272z"/>
			<path class="st0" d="M-46.5,121c-0.1-0.1-0.2-0.2-0.3-0.2c0.7,0,1.5-0.1,2,0c12.8,3.1,25.7,3.1,38.3-0.9c9.2-3,16.9-7.8,24-13.4
				c8.3-6.5,16.6-13.1,25.1-19.4c9.1-6.7,19.7-11.5,31.1-15c0.9-0.3,1.8-0.6,2.6-0.9c-6.1-2.4-12.4-4.6-18.2-7.3
				c-11.5-5.2-20.9-12.7-30.4-20.2c-7-5.3-14-10.9-21.7-15.6C-9.7,18.7-27,17.4-45,21.8c-0.2,0.1-0.6,0.2-0.8,0.2
				c-0.1,0-0.2-0.1-0.5-0.1c0.3-0.4,0.6-0.7,0.9-1l-0.1,0.1c0.6-0.2,1.1-0.3,1.7-0.5c21.4-6.6,41.9-5.1,60.2,6.7
				c8.4,5.4,16.2,12,24.1,18.3c12.7,10.2,26.3,19.3,42.6,25.1c0.6,0.2,1,0.4,1.8,0.7c-0.6,0.3-0.8,0.4-1,0.5
				C68.7,77,55.8,85.1,43.8,94.5c-8.7,6.9-17.2,13.7-26.3,20.1c-11.3,8-24.5,11.6-39.3,11.2C-30.4,125.7-38.7,124.6-46.5,121z"/>
			<path class="st0" d="M-48.3,116.4c2.1,0.4,4.4,0.8,6.5,1c17.8,2.3,32.9-2.5,45.9-12.5c6.1-4.7,11.9-9.5,18-14.3
				C32.9,82.3,45,75.8,58.8,71.8c0.6-0.2,1-0.4,1.8-0.7c-3.8-1.2-7.4-2.4-10.9-3.7C37.6,63,27.5,56,18,48.4C11,42.7,4,36.6-4.4,31.9
				c-13.1-7.3-27.2-8.9-42.3-6c-0.7,0.1-1.2,0.2-1.9,0.3c0-0.2-0.1-0.4-0.1-0.6c4.1-1,8.1-2.1,12.4-2.7c17.5-2.5,33,1.5,46.3,11.2
				c6.6,4.8,12.8,10,19.1,15C40.2,58.2,52.4,66,66.9,71.2c-3.4,1.4-6.5,2.8-9.7,4.2C46.3,80.3,37,87.1,28,94.1
				C21.3,99.5,14.7,105,7.5,110c-16.2,10.9-34.3,12.8-53.8,7.3c-0.7-0.2-1.2-0.5-1.9-0.8C-48.3,116.5-48.3,116.5-48.3,116.4z"/>
			<path class="st0" d="M48.9,71.2c-2.9,1.3-5.6,2.5-8.2,3.7c-10.8,5-19.8,12-28.6,19.1c-7,5.7-13.8,11.5-22.5,15.6
				c-5.5,2.6-11.5,4.4-17.8,4.5c-5.3,0.1-10.5-0.4-15.8-0.8c-0.7,0-1.4-0.3-1.9-0.7c3.2,0,6.3,0.1,9.5,0c10.5-0.4,19.5-3.8,27.4-9.4
				c5.7-4.1,11.3-8.5,16.8-12.9c10-8.2,21.4-14.6,34.7-18.3c0.8-0.2,1.5-0.5,2.7-0.9c-3.7-1.2-7-2.2-10.2-3.3
				C23.5,63.7,14,57.3,5.2,50c-6.5-5-12.5-10.1-19.8-14.1c-9.2-5-19.3-6.9-30.2-6c-0.7,0.1-1.4,0.1-2.1,0.1c0-0.2-0.1-0.4-0.1-0.7
				c3.7-0.4,7.5-1,11.3-1.2c14.3-0.7,26.1,3.8,36.5,11.6c6.4,4.9,12.6,10,19,14.9C28.3,61.4,37.9,67.1,48.9,71.2z"/>
			<path class="st0" d="M30.7,71.4C16.1,76.9,5.4,86.3-5.9,95.1c-4.4,3.4-9.1,6.7-14.3,9.3c-7.2,3.7-15.3,4.7-23.6,4
				c-0.9-0.1-1.8-0.2-2.8-0.6c0.5-0.1,0.8-0.2,1.2-0.2c11.5,0,20.8-4.2,29.2-10.6C-10.8,93-5.5,88.6,0,84.4
				c7.5-5.7,16.3-9.5,25.9-12.2c0.8-0.2,1.6-0.5,2.8-1c-2.7-0.8-5-1.4-7.2-2.2c-9.7-3-18.1-8-25.7-13.9c-5.3-4.2-10.5-8.5-16-12.4
				c-7.5-5.3-16.3-8.1-26.2-8c-0.3,0-0.7,0-1-0.2c8.3-1.3,16.6-0.8,24.4,2.3c6.9,2.6,12.4,6.9,17.9,11c7.5,5.7,15,11.4,22.9,16.8
				C21.5,67.3,26.2,69.2,30.7,71.4z"/>
			<path class="st0" d="M10.8,70.5C0.4,68-8.6,63.6-16.5,57.4c-4.5-3.6-8.9-7.1-13.6-10.6c-5-3.5-10.7-5.8-17.2-6.6
				c-0.5,0-0.8-0.2-1.4-0.4c4.4-0.8,11.9,0.3,16.8,2.2c6,2.5,10.9,6.1,15.5,9.9c8.3,6.8,16.6,13.6,26.9,18.3
				C10.6,70.3,10.6,70.4,10.8,70.5z"/>
			<path class="st0" d="M-49.2,102.6c6.9-0.7,13.1-2.8,18.5-6.5c4.2-3,8.2-6.1,12.2-9.3c8-6.8,17.3-11.6,28.1-14.6
				c0.2-0.1,0.5,0,1-0.1C7.2,74,4,75.4,1.2,77.4c-6.3,4.5-12.4,9.2-18.6,14c-5.7,4.4-11.6,8.6-19.3,10.4
				C-40.8,102.8-44.9,103-49.2,102.6z"/>
			<path class="st0" d="M-10.1,73.2c-6.2,4.8-12.4,9.5-18.7,14.2c-2.9,2.1-5.9,4.3-9,6.1c-4.2,2.4-9,3.4-14.4,3.5
				c2.5-0.9,4.6-1.5,6.6-2.4c5.2-2.2,9.2-5.7,13.3-9.1c6.2-5,12.7-9.3,20.9-11.6c0.6-0.2,1-0.3,1.6-0.5C-9.9,73.3-10,73.3-10.1,73.2
				z"/>
			<path class="st0" d="M-9.7,69.2c-5.7-1.4-10.7-3.6-15.1-6.7c-3.7-2.6-7.2-5.3-10.7-8.2c-4.7-3.8-9.8-7.1-16.4-8.6
				c3.3-0.6,9.2,0.6,13.1,2.7c2.8,1.5,5.5,3.2,8,5c3.5,2.6,6.8,5.4,10.1,8C-17.2,64.2-13.5,66.6-9.7,69.2z"/>
			<path class="st0" d="M-27.9,74c-6.3,4.8-12,9.2-18,13.5c-3.2,2.3-6.9,3.3-10.8,3.4c7.2-2.7,11.8-8,17.7-12
				C-35.8,76.9-32.3,75.2-27.9,74z"/>
			<path class="st0" d="M-28.2,68.2c-5.4-1.1-9.8-3.7-13.7-6.8c-4.5-3.6-8.8-7.5-14.5-9.8c3.5,0.1,6.8,1,9.5,2.9
				c4.7,3.3,9.2,6.9,13.8,10.3C-31.5,65.9-29.9,67.1-28.2,68.2z"/>
			<path class="st0" d="M-46.8,166c0.1-0.1,0.1-0.1,0.2-0.2c0.9-0.4,1.8-0.8,2.7-1c5.7-1.9,11.6-3,17.7-3.5
				c15.4-1.1,29.8,1.7,41.9,9.9c10.4,7,19.9,14.8,29.7,22.4c8.9,6.9,18.4,13,28.9,17.8c3.4,1.5,6.9,2.9,10.5,4.4
				c-0.6,0.3-1,0.5-1.5,0.6c-13.5,4.9-25.4,11.8-36.3,20.1c-8.1,6.3-16,12.8-24.1,18.9c-11.6,8.8-24.8,14.5-40.6,14.9
				c-9.9,0.3-19.5-1-28.6-4.6h0.1c-0.1-0.2-0.2-0.4-0.3-0.7c3.6,0.7,7.1,1.4,10.6,1.8c16.8,2.1,32-1.1,45.1-10.2
				c8-5.5,15.5-11.6,23.1-17.6c12.8-10.2,27-18.6,44.5-23.3c-3.2-1-6-2-8.7-3c-11.6-4-21.7-9.9-31-16.8c-7.7-5.8-15-12-22.6-17.8
				c-8.9-6.8-19-11.9-31.1-13.6c-9.6-1.3-18.9-0.9-28.3,1.5C-45.2,166.3-46,166.1-46.8,166z"/>
			<path class="st0" d="M-48.8,260.8c4.1,0.5,8.1,1.2,12.3,1.4c14.9,1,27.7-3.3,38.8-11.4C8.7,246,14.9,241,21.2,236
				c11.4-9.1,24.2-16.2,39.9-20.3c-3.2-1-5.9-2-8.6-2.9c-11.3-3.8-20.9-9.5-29.7-16.5c-6.4-5-12.5-10.1-18.9-14.9
				c-7.8-5.9-16.7-10.3-27.1-11.8c-7.9-1.1-15.6-1-23.3,0.7c-0.3,0.1-0.7,0.2-1,0.2c-0.1,0-0.2-0.1-0.6-0.7c4.5-0.9,8.9-2,13.5-2.6
				c18.7-2.4,34.5,3,48.1,13.6c7.1,5.5,14.1,11.2,21.2,16.8c9.3,7.2,19.7,13.1,31.3,17.5c0.3,0.2,0.8,0.3,0.7,0.3
				c-6.6,3.3-13.6,6.5-20.2,10.3c-9.5,5.4-17.5,12.4-25.7,19c-6.9,5.6-13.8,11-22.4,14.9c-11.9,5.2-24.5,6.4-37.7,3.8
				c-3.2-0.6-6.2-1.5-9.3-2.3C-48.8,261-48.8,260.9-48.8,260.8z"/>
			<path class="st0" d="M48.9,215.8c-11,4.1-20.5,9.7-29,16.5c-5.4,4.2-10.6,8.5-15.9,12.7c-6.9,5.4-14.4,10.2-23.6,12.4
				c-8.7,2.1-17.5,2.1-26.2,0.2c-0.2,0-0.5-0.1-0.6-0.2s-0.2-0.2-0.3-0.3c0.7,0,1.4-0.1,1.9,0c12.9,1.1,24.7-1.5,34.7-8.7
				c6.5-4.7,12.8-9.6,19-14.6c10-7.9,21.3-14,34.5-17.5c0.5-0.1,0.8-0.3,1.5-0.6c-3.4-1.1-6.5-2.1-9.7-3.2
				c-10.7-3.7-19.7-9.6-28-16.3c-5.3-4.2-10.6-8.5-16.1-12.5c-10.9-7.9-23.6-10.9-37.9-9.2c-0.2,0-0.5,0-1-0.1
				c5.9-1.6,11.6-2,17.3-1.9c13.5,0.4,24.2,5.8,33.8,13.2c6.4,5,12.7,10.2,19.3,15.2c7.4,5.7,15.7,10.3,24.8,13.9
				C47.8,215.2,48.2,215.4,48.9,215.8z"/>
			<path class="st0" d="M-47.4,252.2c8.3,0.1,16.2-1.6,23.1-5.6c4.3-2.5,8.2-5.5,12.2-8.4c4.3-3.1,8.2-6.6,12.5-9.7
				C8,222.7,17,219,26.7,216.3c0.6-0.2,1-0.3,1.9-0.6c-2.8-1-5.3-1.7-7.8-2.5c-9.5-3-17.5-7.7-24.8-13.5c-4.6-3.6-9-7.3-13.7-10.8
				c-8.4-6.3-18.1-10.1-29.8-10c0.6-0.1,1.1-0.2,1.7-0.3c14.4-1.7,26.3,2.6,36.8,10.7c7,5.4,13.6,11,20.9,16.1
				c5.4,3.7,11.7,6.5,17.7,9.7c0.3,0.2,0.6,0.3,0.7,0.4c-5.1,2.7-10.4,5-15.1,8.2c-7,4.8-13.4,9.9-20,15c-6.3,5-12.7,9.7-20.9,12.3
				C-32.7,253.2-39.9,253.5-47.4,252.2z"/>
			<path class="st0" d="M11.3,216.2c-3,1.6-5.7,2.7-7.9,4.3c-8,5.7-15.8,11.6-23.5,17.4c-5.6,4.2-11.7,7.7-19.3,8.8
				c-3,0.4-6.1,0.5-9.1,0.3c0.5-0.1,0.8-0.4,1.2-0.4c8.3-1,15-4.6,21.1-9.2c5.4-4.2,10.7-8.5,16.3-12.4
				C-3.9,220.8,3.3,218.3,11.3,216.2z"/>
			<path class="st0" d="M10.4,214.6C4,213-2.4,211.3-7.7,207.7c-5.5-3.7-10.8-7.8-16.1-11.8c-6-4.7-12.2-9.1-20.4-10.7
				c-1.6-0.3-3.3-0.5-4.8-0.9c6.6-0.6,13.2,0.1,18.9,3c4.7,2.5,9.1,5.4,13.3,8.6c6.9,5.2,13.2,10.9,20.9,15.2
				C6.1,212.4,8.3,213.5,10.4,214.6z"/>
			<path class="st0" d="M-51.4,241.4c8.8-2.3,14.7-7.7,20.9-12.9c5.7-4.7,12.2-8.5,19.9-10.7c0.2-0.1,0.5-0.1,0.7-0.1
				c0,0.1,0,0.3,0,0.3c-7.5,5.5-15,11-22.5,16.6c-5,3.6-10.6,6.3-17.3,6.7C-50.4,241.5-51,241.4-51.4,241.4z"/>
			<path class="st0" d="M-51.4,190c6.1,0.1,11.8,1.9,16.8,5.3c3.8,2.7,7.2,5.6,10.9,8.4c4.5,3.3,9.1,6.6,13.6,9.9
				c-1.5-0.5-3-0.9-4.6-1.4c-6.4-2.3-11.6-5.9-16.7-9.9c-3.4-2.8-6.9-5.5-10.6-7.9C-44.8,192.4-48.4,191.3-51.4,190z"/>
			<path class="st0" d="M-56.5,196c4.2,0.3,8,1.5,11.1,3.7c5.7,4.1,11.1,8.5,16.8,12.8c-0.1,0.1-0.1,0.3-0.2,0.4c-2.4-1-4.8-1.8-7-3
				c-2.7-1.5-5.2-3.3-7.5-5.2C-47.5,201.4-51.3,198-56.5,196z"/>
			<path class="st0" d="M-28.2,218.8c-6.3,4.7-12.5,9.3-18.9,13.9c-2.6,1.8-5.9,2.7-9.2,2.7c6.8-2.7,11.3-7.6,16.8-11.5
				C-36.2,221.5-32.5,219.7-28.2,218.8z"/>
			<path class="st0" d="M279.3,142.4c0.6,0.4,1.2,0.8,1.8,1.1c-0.2,0.3-0.3,0.6-0.6,0.9c-3.6,1.2-7.3,2.5-10.9,3.8
				c-2.3,1-4.5,2.1-6.6,3.1c-2,0.9-4.1,1.7-6.1,2.6c-2,1.2-4.1,2.5-6.2,3.7c-1.5,0.8-2.8,1.5-4.3,2.4c-3.3,2.1-6.4,4.2-9.7,6.3
				c-0.6,0.3-1.1,0.5-1.6,0.9c-5.9,4.5-11.7,8.9-17.6,13.5c-7.8,6-15.4,12.3-23.4,18.1c-9.9,7.1-20.9,12.5-33.8,14.9
				c-7.3,1.4-14.7,2.9-22.3,1.3c-2.9-1.1-5.9-2.2-8.8-3.3c-0.3-0.3-0.8-0.5-1.5-1c1.1,0.1,1.8,0.1,2.5,0.1c9.5,0.4,18.7-0.5,27.7-3
				c12.8-3.5,23.4-10.2,33.3-17.7c11-8.5,21.8-17.2,33-25.6c8.1-6.1,17.2-11,27-15c5-2.1,10.1-3.9,15.3-5.8
				c-0.3-0.2-0.8-0.3-1.1-0.5c-19.4-6-35.9-15.7-50.9-27.4c-9.7-7.7-19-15.3-28.7-22.6c-9.2-6.9-19.8-12.2-31.9-14.9
				c-8.2-1.8-16.6-2.4-25.1-2c-0.2,0-0.5-0.4-0.7-0.6c3.3-1.1,6.5-2.3,9.8-3.4c1.4-0.3,2.7-0.9,3.9-0.9c5,0.3,9.9,0.6,14.7,1.2
				c16,2.4,29.4,9.3,41.3,18.4c10.7,8.1,21.1,16.6,31.6,24.8c2.3,1.7,4.7,3.2,7,4.9v-0.1c3.3,2.2,6.4,4.4,9.7,6.5
				c1.5,0.8,2.8,1.5,4.3,2.4c2.1,1.1,4.3,2.2,6.4,3.3c2.3,1.1,4.5,2.2,6.8,3.3c1.9,0.9,3.8,1.7,5.7,2.6
				C272.7,140,276,141.2,279.3,142.4z"/>
			<path class="st0" d="M269.6,148.1c3.6-1.2,7.3-2.5,10.9-3.8c4.2-1.3,8.3-0.5,12.5-0.1c18.8,1.7,34.1,9.3,47.9,19.8
				c9.8,7.5,19.1,15.3,28.9,22.8c5.4,4.1,11.1,7.8,16.8,11.7c0.6,0.4,1.2,0.6,1.9,0.9c0.3,0.2,0.6,0.4,0.9,0.6
				c3.2,1.6,6.2,3.3,9.3,5c2.6,1.3,5.2,2.7,7.8,3.9c2.1,1,4.3,1.9,6.4,2.9c3.5,1.2,7,2.6,10.5,3.8c-1.4,0.6-2.7,1.2-4.2,1.8
				c-2.3,0.9-4.6,1.6-6.9,2.4c-1.8,0.9-3.7,1.8-5.5,2.7c-2.5,1-5,2.1-7.4,3.1c-2.6,1.5-5.2,3-7.7,4.5c-0.9,0.5-1.9,1-2.8,1.5
				c-3,2-6.2,4.1-9.2,6.1c-4.1,3-8.3,5.7-12.3,8.8c-10.1,7.8-19.8,16-30.2,23.6c-14.9,10.9-32,17.4-52,17.5c-1.2,0-2.6-0.2-3.9-0.3
				c-2.7-1-5.4-1.8-8.1-2.8c-1-0.6-2.1-1-3.6-1.8c0.9,0,1.1,0,1.5,0c16.6,1,32-2.1,45.9-9.9c4.4-2.5,8.3-5.4,12.5-8.2
				c0.7-0.4,1.5-0.8,2.1-1.2c9.2-7.2,18.2-14.6,27.5-21.7c12.4-9.5,26-17.5,41.4-23.1c2.7-1,5.4-1.8,8.3-2.9
				c-0.8-0.3-1.2-0.5-1.7-0.7c-19.5-6.1-36.3-15.9-51.3-27.8c-9-7-17.8-14.3-26.9-21.2c-7.5-5.8-16-10.4-25.4-13.5
				c-10-3.3-20.4-4.4-31-4C271.3,148.5,270.4,148.2,269.6,148.1z"/>
			<path class="st0" d="M279.3,142.4c-3.3-1.1-6.5-2.3-9.8-3.4c0.8-0.1,1.6-0.4,2.4-0.4c9.2,0.3,18.5-0.4,27.4-2.9
				c12.7-3.4,23.3-9.8,33.1-17.3c9.1-7,18-14.5,27.2-21.5c12.5-9.5,26.1-17.5,41.8-22.9c2.4-0.9,4.7-1.7,7-2.5
				c-5.5-2.2-11.1-4.1-16.4-6.4c-15.2-6.6-28.1-15.7-40.5-25.5c-9.6-7.5-19-15.1-29.2-22.2c-11.6-8.1-25.3-12.4-40.4-13
				c-3.8-0.2-7.8,0-11.7,0c0-0.1-0.1-0.2-0.1-0.3c1.1-0.5,2.3-1,3.4-1.5c1.9-0.7,3.7-1.3,5.6-1.9c5.2-2,10.6-1,15.9-0.5
				C313.1,2,328.1,9.9,341.4,20c10.1,7.8,20,15.9,30.1,23.7c2.5,2,5.3,3.7,8,5.5c3.7,2.4,7.4,4.8,11.1,7.1c0.2,0.2,0.6,0.4,0.8,0.6
				c2.7,1.4,5.3,2.9,8,4.3c2.5,1.1,5,2.4,7.4,3.5c2.1,0.9,4.3,1.8,6.5,2.7c2.8,1,5.6,2,8.4,3c0.6,0.2,1,0.6,1.6,0.9
				c-3.8,1.5-7.7,3-11.6,4.5c-2.1,1-4.2,1.8-6.3,2.8c-2.3,1-4.4,2.2-6.6,3.2c-2.8,1.5-5.6,3.1-8.3,4.7c-0.9,0.5-1.8,1-2.7,1.3
				c-4.8,3.1-9.8,6.1-14.3,9.6c-11.3,8.6-22.1,17.6-33.4,26.2c-9.8,7.5-20.8,13.5-33.7,16.8c-7.5,2-15.3,2.9-23.2,2.9
				C282,143.2,280.6,142.6,279.3,142.4z"/>
			<path class="st0" d="M138.1,72.3c-3.3,1.1-6.5,2.3-9.8,3.4c-2,0.9-4.2,1.7-6.2,2.5c-2,1-4.2,2-6.2,3c-2.4,1.2-4.8,2.5-7.2,3.7
				c-0.9,0.6-1.8,1.2-2.8,1.8c-2.3,1.3-4.6,2.6-6.8,4c-0.9,0.6-1.7,1.4-2.5,2.1c-0.6,0.3-1.1,0.6-1.7,0.9c-3.8,2.8-7.8,5.4-11.6,8.4
				c-9.6,7.4-18.8,15.1-28.5,22.5c-11.5,8.6-24.4,15-39.7,17.3c-7.1,1-14.4,2.7-21.5-0.4c-1.6-0.5-3.2-1-4.7-1.4
				c-0.8-0.5-1.6-1-2.6-1.7c1,0,1.8,0,2.5,0c11.4,0.4,22.4-1,33-4.8c10.5-3.8,19.4-9.6,27.7-16c8.6-6.7,16.8-13.5,25.4-20.2
				c13.4-10.3,28.1-18.8,45-24.4c1.6-0.6,3.2-1.1,4.4-1.5c-7-2.9-14.2-5.5-21.1-8.8c-15.1-7-27.7-16.8-40.1-26.7
				c-7.5-6.1-15.1-12.2-23-17.8C30.1,11.2,18.4,6.4,5.2,4.8C-1,4-7.3,4-13.3,3.7c0.9-0.5,2.3-1,3.6-1.7C-8,1.4-6.3,0.8-4.6,0.2
				c6.2-2,12.4-0.8,18.5,0c15.4,2.3,28.6,8.6,40.3,17.2c8.4,6.2,16.3,12.9,24.7,19.2c5.2,4.1,10.6,8,15.9,12
				c0.3,0.2,0.8,0.3,1.1,0.5c3.3,2.1,6.5,4.2,9.8,6.3c0.8,0.5,1.6,1,2.4,1.5c2.6,1.4,5.2,2.8,7.8,4.2c2.5,1.1,4.8,2.2,7.3,3.3
				c1.9,0.9,3.7,1.8,5.6,2.7c2.7,1,5.4,1.9,8.1,2.9c0.6,0.2,1.2,0.3,1.8,0.5c0.2,0.3,0.6,0.6,0.7,0.8
				C138.7,71.6,138.4,72,138.1,72.3z"/>
			<path class="st0" d="M152.5,0c-10.9,4.9-19.4,12.2-28.1,19.2c-6,4.8-12.3,9.1-20.6,10.6c-3.4,0.6-6.8,0.7-10.2,0.7
				c7.4-1.1,14-3.8,19.6-8.1c3.4-2.6,6.8-5.1,10-7.9C131.5,7.7,141,2.5,152.5,0z"/>
			<path class="st0" d="M90.2,24.7c8.7-2.1,14.5-7.4,20.7-12.5c5.7-4.7,12-8.7,19.8-10.8c0.3-0.1,0.7-0.2,1.4-0.3
				c-3.3,2.2-6.3,4.1-9.2,6.3c-5.4,4.1-10.6,8.4-16.2,12.3C102,23,96.5,24.7,90.2,24.7z"/>
			<path class="st0" d="M85.3,18.6c5.7-2.1,9.9-6,14.3-9.5c3.7-3,7.9-5.4,12.7-6.9c0.3-0.1,0.7-0.1,1-0.2c0.1,0.1,0.2,0.3,0.3,0.4
				c-7,4.9-14,9.9-21.1,14.6c-1.9,1.2-4.6,1.5-7,2.2C85.4,19.1,85.4,18.8,85.3,18.6z"/>
			<path class="st0" d="M129.2,211.6c2.9,1.1,5.9,2.2,8.8,3.3c0.5,0.3,0.9,0.7,1.2,0.9c-1.8,0.8-3.4,1.5-5.1,2.3
				c-1.2,0.5-2.6,1-3.8,1.3c-2.5,1-4.8,2.1-7.3,3.1c-2.5,1.1-5,2.3-7.5,3.3c-2.6,1.4-5.1,3-7.7,4.4c-0.3,0.1-0.7,0.3-0.9,0.4
				c-3.7,2.3-7.3,4.6-11,6.9l0.1-0.1c-8.4,6.5-16.9,12.9-25.2,19.5C61.3,264.4,52,272,41,277.8c-12.5,6.6-26.1,9.9-40.9,9.8
				c-1.6,0-3.2-0.7-4.8-1c-3.2-1.1-6.4-2.3-9.6-3.4c0.8-0.1,1.7-0.3,2.5-0.3c11.8,0.6,23.3-1,34.2-5c0.6-0.2,1-0.8,1.5-1h-0.1
				c0.7-0.1,1.6-0.1,2.1-0.4c4.8-2.6,9.9-4.8,14.2-7.8c9.2-6.7,18.2-13.7,27.1-20.8c14.6-11.8,30.4-22.3,49.1-29.2
				c0.3-0.1,0.6-0.6,0.9-0.9h-0.1c2.5-0.6,5.1-1.1,7.5-1.8c0-0.2,0-0.4-0.1-0.5c-0.7-0.2-1.5-0.5-2.1-0.8c-5.4-2-10.8-3.8-16-6.2
				c-12.2-5.5-23.2-12.6-33.3-20.6c-9.7-7.6-19.3-15.4-29.2-22.8c-15.9-11.9-34.3-17.8-55.7-16.8c-0.6,0-1,0-1.6,0
				c0-0.1,0-0.2-0.1-0.3c1.1-0.6,2.4-1,3.5-1.6c2.4-0.8,4.7-1.6,7.1-2.4c1-0.2,2.1-0.6,3.2-0.6c8.9,0.1,17.6,1.3,26,3.9
				c13.5,4.1,24.5,11.4,35,19.4c7.8,6,15.2,12.3,22.9,18.4c3.4,2.7,7.1,5.1,10.7,7.7c0.6,0.4,1,0.7,1.6,1c2.7,1.7,5.5,3.4,8.2,5.2
				c1.4,0.8,2.7,1.6,4.1,2.4c2.4,1.3,4.8,2.6,7.2,3.9c2.3,1,4.5,2.2,6.8,3.2C124.9,209.8,127,210.6,129.2,211.6z"/>
			<path class="st0" d="M93.5,256.6c5.3-0.5,10.2,0.1,15.1,1.7c6.8,2.3,11.8,6.4,17,10.4c6.6,5,13.3,9.9,20,14.7
				c2,1.4,4.4,2.4,6.5,3.6c-5.3-1.4-10.5-3-15.3-5.4c-6.6-3.4-12.2-7.9-17.7-12.5c-5.7-4.7-11.7-9.2-19.6-11.1
				C97.5,257.4,95.5,257,93.5,256.6z"/>
			<path class="st0" d="M131.3,285.5c-7.3-1.8-13.6-5.6-19.5-10.2c-3.7-3-7.4-6-11.5-8.7c-3-1.9-6.5-3.2-9.7-4.7
				c4.8,0,9.6,1.2,13.7,3.7c3.6,2.2,7,4.8,10.4,7.2C120.4,277.2,125.9,281.5,131.3,285.5z"/>
			<path class="st0" d="M85.9,268c3.7,0.3,7.4,1.7,10.6,3.9c4.3,3,8.3,6.3,12.4,9.5c1.5,1.1,2.9,2.2,4.4,3.2
				c-0.1,0.2-0.2,0.3-0.2,0.5c-2.5-1-5.2-1.9-7.4-3.3c-3.3-2-6.1-4.4-9.1-6.5C92.9,272.8,89.3,270.3,85.9,268z"/>
			<path class="st0" d="M79.3,274c7.4,1.2,11.4,6.6,16.7,10.3C88.6,282.9,84.9,277.2,79.3,274z"/>
			<path class="st0" d="M79.1,284.1c-3.2-0.4-5.1-2.4-7-4.2C75.2,280.3,77,282.3,79.1,284.1z"/>
			<path d="M94.9,193.1c-3.6-2.6-7.3-5-10.7-7.7c-7.7-6.1-15.1-12.4-22.9-18.4c-10.5-8-21.5-15.3-35-19.4c-8.4-2.6-17.1-3.8-26-3.9
				c-1,0-2.1,0.4-3.2,0.6c-0.2-0.4-0.2-1-0.6-1.2c-0.9-0.6-1.9-1-2.9-1.4c7.1,3,14.4,1.4,21.5,0.4c15.3-2.3,28.3-8.8,39.7-17.3
				c9.7-7.2,19-14.9,28.5-22.5c3.7-2.9,7.7-5.6,11.6-8.4c0.7,0,1.4,0.2,1.9,0c10-2.5,20-3,30.3-1.2c9.7,1.6,18.1,5.3,25.4,10.7
				c8.3,6,16.2,12.5,24.3,18.8c8.4,6.5,17.5,12.3,27.8,16.4c4.5,1.8,9,3.3,13.6,5c-1,0.3-1.9,0.6-2.8,0.9
				c-11.4,3.5-21.8,8.3-31.1,15c-7.9,5.7-15.4,11.8-23,17.7c-7.3,5.7-15,11.1-24.3,14.4c-13.2,4.7-26.7,4.8-40.3,1.4
				C96.3,192.9,95.6,193.1,94.9,193.1z M209,143.5c-13.3-4.8-24.4-11.5-34.7-19.4c-7.7-5.9-15.2-12-22.9-17.9
				c-6.5-5-14.3-8.5-22.9-10.3c-7.5-1.6-15.2-1.9-22.9-0.7c-4.1,0.7-7.9,1.6-11.9,2.5c0.2,0.5,0.5,0.6,0.6,0.6c0.3,0,0.7-0.1,1-0.2
				c6.3-1.3,12.7-1.6,19.3-1.1c12.2,1,22.2,5.9,31.1,12.5c5.3,3.9,10.2,8,15.3,12.1c8.9,7.2,18.5,13.6,29.8,17.9
				c3.7,1.4,7.5,2.7,11.6,4c-0.6,0.2-1,0.4-1.4,0.5c-13.7,3.9-25.8,10.2-36.4,18.5c-6.9,5.4-13.6,11-20.8,16.3
				c-13.2,9.6-28.5,13.4-45.7,10.7c-0.7-0.1-1.5-0.2-2.1-0.4c-0.7-0.1-1.4-0.2-2-0.4c12.8,4.5,25.8,5,38.8,1.2
				c9.9-2.9,17.9-8.3,25.4-14.2c6.1-4.9,12-9.7,18.2-14.5C186.1,153.9,196.6,147.9,209,143.5z M94.5,101.8c0,0.2,0,0.3,0.1,0.5
				c0.3,0,0.6,0,0.9,0c13.1-1.4,24.9,1,35.2,7.9c6.3,4.3,12.2,9,18.1,13.8c8.4,6.8,17.6,12.7,28.5,16.4c2.9,1,6,2,9.3,3
				c-0.8,0.3-1.1,0.4-1.6,0.5c-12.9,3.6-24.2,9.4-34.1,17.3c-5.9,4.7-11.7,9.4-17.8,13.9c-7.2,5.3-15.5,8.9-25.2,9.6
				c-4.4,0.4-8.8,0.1-13.4,0.1c0.6,0.2,1,0.4,1.6,0.5c13.4,2.6,26.1,1.4,37.9-4.9c8.1-4.4,14.7-10.1,21.6-15.7
				c9.1-7.4,18.8-14.4,30.2-19.2c1.6-0.7,3.2-1.3,5-2.1c-10.2-3.9-19.1-8.9-27.1-15c-6.6-5-13.1-10.4-19.6-15.4
				c-11.1-8.7-24-13.7-39.5-12.5C101.1,100.8,97.8,101.4,94.5,101.8z M172.4,143.6c-4.6-2.4-9.3-4.2-13.3-6.9
				c-9.3-6.6-18.4-13.5-27.5-20.4c-8.8-6.6-18.8-10.5-30.8-10.1c-2.1,0.1-4.3,0.4-6.4,0.6c0,0.2,0,0.3,0,0.5
				c10.7-0.5,19.9,2.7,28,8.4c4.1,2.9,7.8,5.9,11.6,8.9c8,6.6,16.4,12.5,26.9,16c3,1,6.1,2,9.6,3c-1.2,0.4-2,0.7-2.8,0.9
				c-9.2,2.6-17.7,6.2-25,11.6c-4.5,3.3-9,6.9-13.3,10.4c-9.8,8-20.5,14.2-35,13.6c0.9,0.3,1.8,0.5,2.7,0.6
				c13.1,1.3,24.3-2.3,34.1-9.5c5.3-3.9,10.2-8.2,15.4-12.2C154.3,152.7,162.7,147.4,172.4,143.6z M92.2,112.1
				c10.9,2.2,13.8,3,19.7,7.1c3.8,2.7,7.4,5.5,10.9,8.4c8.4,7.1,18.2,12.5,30.2,15.1c-0.7-0.4-1-0.6-1.2-0.8
				c-5.1-3-10.4-5.9-15.2-9.2c-5.9-4.2-11.3-8.9-17-13.1C111.8,114,102.9,111.2,92.2,112.1z M92.6,174.6c0.1,0.3,0.1,0.5,0.2,0.8
				c4.1-0.5,8.1-0.7,11.9-1.3c7.9-1.5,13.8-5.8,19.5-10.3c7-5.6,13.7-11.5,21.8-16c2.1-1.1,4.3-2.3,6.4-3.4
				c-4.4,1.1-8.7,2.5-12.7,4.2c-6.8,2.8-12.4,7-17.8,11.4C113.6,166.8,105.3,173.9,92.6,174.6z M131.4,145.7
				c-0.9,0.3-1.7,0.5-2.4,0.7c-8,2.5-14.3,6.9-20.2,11.9c-5.4,4.5-10.9,8.9-18.5,10.7c6,0.2,11.1-1.4,15.7-4.5
				c3.8-2.6,7.3-5.4,10.9-8.1C121.7,152.9,126.5,149.4,131.4,145.7z M91,117.8c3.3,1.6,6.9,3,9.9,5c5.3,3.5,10,7.6,15.1,11.3
				c4.7,3.4,10.1,5.8,16.2,7.4c-3.9-2.8-7.8-5.2-11.4-7.9c-4.3-3.1-8.2-6.6-12.5-9.7C103.4,120.2,97.5,117.9,91,117.8z M85.1,163.1
				c3.6,0.1,7.9-1.2,11.4-3.7c5.7-4.2,11.3-8.5,16.9-12.8c0,0,0-0.2-0.1-0.9c-3.7,1.9-7.3,3.5-10.6,5.5
				C96.9,155,92.6,160.4,85.1,163.1z M86.1,123.7c3.3,2.2,6.5,4.4,9.8,6.7c2.4,1.7,4.6,3.6,7,5.3c3.2,2.3,6.8,3.8,11.1,5
				c-6.2-4.7-11.8-9.1-17.7-13.4C93.4,125.2,89.8,124,86.1,123.7z M96.1,146.9c-7.2,1.6-11.1,6.9-16.8,10.4
				C86.8,156,90.8,150.6,96.1,146.9z M96,140.1c-6-5.2-12.5-10.9-16.7-10.2C85,133,88.6,138.4,96,140.1z M79.4,139.8
				c-2.1-1.8-4.2-3.9-7.4-4.4C74.1,137.2,76,139.4,79.4,139.8z M79.6,147.4c-3.4,0.1-5.3,2-7.4,3.7c0.2,0.2,0.3,0.4,0.6,0.7
				C75,150.4,77.3,148.8,79.6,147.4z"/>
			<path class="st0" d="M-27.1,9.8c1.7-0.8,3.4-1.5,5.1-2.4c2-0.7,4.1-1.7,6.3-1.9C-5.5,4.3,4.5,5.2,14.4,7.7
				c14.5,3.6,26,11.4,36.9,19.9c6.9,5.3,13.5,10.8,20.3,16.2c8.9,7.1,18.4,13.6,29,18.8c6.6,3.2,13.6,5.9,20.3,8.9
				c-0.2,0.1-0.8,0.3-1.2,0.5c-17.6,6-32.9,14.9-46.7,25.7c-9.2,7.2-18.4,14.8-27.7,21.9c-12.8,9.8-27.5,16.7-45.1,17.7
				c-7,0.5-14.1,1-20.8-1.3c-1.9-1-3.8-1.9-5.9-3c0.7-0.1,1.2-0.3,1.9-0.3c1.9,0.1,3.7,0.5,5.6,0.6c18.2,1,34.8-3,48.9-12.9
				c9.6-6.8,18.6-14.1,27.7-21.3c12.6-9.9,26-18.7,41.9-24.5c3-1.1,6.2-2.2,9.2-3.2c-5.4-2.1-11-3.9-16.2-6.2
				c-11.3-5-21.6-11.2-31-18.7c-6-4.8-11.8-9.6-18-14.2c-6.2-4.7-12.4-9.3-19.1-13.3c-13.2-7.7-28-10.6-44-9.4
				C-22.1,9.6-24.6,9.7-27.1,9.8z"/>
			<path class="st0" d="M-22.1,279.7c-1.6-0.9-3.3-1.7-4.8-2.6c0.5-0.1,0.9-0.2,1.4-0.2c3.3,0.3,6.5,0.7,9.8,0.8
				c18.1,0.5,34-4.5,47.6-14.4c9.8-7.1,19.1-14.9,28.7-22.3c10.5-8.1,21.7-15.3,34.7-20.5c4.4-1.7,8.9-3.3,13.5-5
				c-0.7-0.3-1.4-0.5-2-0.8c-5.1-1.9-10.2-3.6-15.1-5.7c-14.7-6.5-27.1-15.7-39.2-25.3c-8.1-6.5-16.3-13-25.1-18.8
				c-14.3-9.4-30.8-12.8-48.9-11.1c-1.7,0.2-3.5,0-5.2,0.1c1.7-0.8,3.4-1.5,5.1-2.4c1.4-0.6,2.7-1.4,4.2-1.6
				c13.6-1.4,26.9-0.3,39.6,4.5c12.3,4.6,22.1,11.9,31.8,19.5c7.7,6,15,12.3,22.9,18.2c11.7,8.9,24.7,16.2,39.1,21.4
				c1.8,0.7,3.7,1.3,5.3,2c-1.4,0.8-2.6,1.5-3.9,2.3h0.1c-0.7,0.1-1.6,0-2.1,0.3c-8.3,3-16.2,6.9-23.6,11.3
				c-11.8,6.9-22.1,15.3-32.4,23.7c-10.6,8.7-21.3,17.2-34.7,22.9c-0.2,0.1-0.3,0.6-0.6,0.9h0.1c-0.8,0.1-1.7,0.1-2.4,0.3
				C7.2,281.5-7.2,284.3-22.1,279.7z"/>
			<path class="st0" d="M-37.6,15.7c0.9-0.6,1.8-1.2,2.8-1.8c1-0.4,2-0.9,3.2-1.1C-18,9.9-4.5,10,8.9,14
				c13.7,4.1,24.4,12.2,34.7,20.5c9.5,7.6,18.8,15.4,29.2,22.1c9.2,6,19.4,10.8,30.5,14.6c-0.9,0.4-1.5,0.7-2.1,1
				c-14.2,5-26.8,12-38.2,20.7c-10,7.6-19.6,15.5-29.6,23.1c-12.7,9.5-27.2,15.6-44.6,15.9c-7.9,0.1-15.6-0.2-23.1-2.8
				c-0.9-0.6-1.8-1.2-2.7-1.8c0.2-0.2,0.5-0.5,0.6-0.4c3.5,0.5,7,1.1,10.5,1.4c17.3,1.2,32.9-2.7,46.2-12.1
				c8.6-6,16.6-12.6,24.7-18.9c12.8-10.2,26.8-18.8,43.3-24.2c1.5-0.5,2.9-1,4.6-1.5c-0.6-0.2-0.8-0.4-1-0.4
				c-18.2-5.6-33.6-14.9-47.5-25.9c-7.5-6-14.9-12.1-22.7-17.7C5.1,15.7-13.8,11.9-35,15.7C-35.8,15.8-36.7,15.7-37.6,15.7z"/>
			<path class="st0" d="M-34.9,273.1c-0.9-0.6-1.7-1.2-2.6-1.8c0.7,0,1.4-0.2,1.9-0.1c9.9,1.8,19.7,2,29.6,0.2
				c11.7-2.2,21.5-7.2,30.4-13.8c7.3-5.5,14.2-11.2,21.4-16.8c11.5-9,23.9-16.8,38.3-22.1c2.8-1,5.6-1.9,8.8-3
				c-0.9-0.4-1.5-0.6-2.1-0.8c-12.9-3.9-24.8-9.5-35.1-17.1c-9-6.6-17.6-13.6-26.3-20.4c-7.1-5.5-14.6-10.8-23.5-14.1
				c-13.2-5-26.9-5.8-41-3.2c-0.7,0.1-1.4-0.2-2.1-0.4c1.5-0.8,2.9-1.4,4.3-2.2c0.7-0.2,1.4-0.5,2-0.6c21.8-4.2,42-1,59.4,11
				c9.8,6.8,18.9,14.4,28.3,21.7c12.5,9.8,25.9,18.5,41.7,24.2c1.6,0.6,3,1.2,5,1.9c-18.1,5.9-33,15.3-46.7,26.1
				c-9.2,7.2-18.2,14.8-28,21.5C16.7,271.6,3,276-12.6,276C-20.2,276.1-27.8,275.6-34.9,273.1z"/>
			<path d="M-37.2,159.7c0.7,0.1,1.5,0.5,2.1,0.4c14.1-2.6,27.7-1.8,41,3.2c8.9,3.4,16.4,8.6,23.5,14.1c8.8,6.9,17.3,13.8,26.3,20.4
				c10.4,7.5,22.2,13.2,35.1,17.1c0.6,0.2,1.1,0.4,2.1,0.8c-3.2,1-6,1.9-8.8,3c-14.5,5.2-26.9,13-38.3,22.1
				c-7.1,5.6-14.1,11.3-21.4,16.8c-8.8,6.7-18.7,11.7-30.4,13.8c-9.9,1.8-19.7,1.6-29.6-0.2c-0.6-0.1-1.2,0-1.9,0.1
				c-2.8-1.9-5.6-3.7-8.6-5.6c9,3.6,18.7,4.9,28.6,4.6c15.9-0.5,29-6.2,40.6-14.9c8.1-6.2,16-12.7,24.1-18.9
				c10.8-8.4,22.6-15.3,36.3-20.1c0.5-0.2,0.9-0.4,1.5-0.6c-3.6-1.5-7.1-2.9-10.5-4.4c-10.7-4.8-20.2-10.9-28.9-17.8
				c-9.8-7.6-19.4-15.4-29.7-22.4c-12.2-8.2-26.5-11.1-41.9-9.9c-6.1,0.5-12,1.6-17.7,3.5c-0.9,0.3-1.8,0.7-2.7,1
				C-43.4,163.8-40.4,161.7-37.2,159.7z"/>
			<path d="M-37.6,15.7c0.9,0,1.8,0.2,2.6,0c21.2-3.8,40.1,0,56.6,11.8c7.9,5.6,15.2,11.8,22.7,17.7c14,11.1,29.3,20.4,47.5,25.6
				c0.2,0.1,0.5,0.2,1,0.4c-1.7,0.6-3.2,1-4.6,1.5C71.8,78,57.8,86.7,45,96.9c-8.1,6.4-16.1,12.9-24.7,18.9
				C7,125.2-8.5,129.1-25.9,127.9c-3.5-0.3-7-1-10.5-1.4c-0.2,0-0.5,0.3-0.6,0.4c-3.2-2-6.3-4-9.5-6c7.8,3.5,16.1,4.7,24.8,4.9
				c14.7,0.4,28-3.3,39.3-11.2c9.1-6.4,17.7-13.3,26.3-20.1C56,85,68.9,76.9,84.1,71.5c0.2-0.1,0.5-0.2,1-0.5
				c-0.7-0.3-1.2-0.5-1.8-0.7c-16.4-5.7-29.9-14.9-42.8-25C32.7,39.1,24.9,32.5,16.2,27C-2.1,15.3-22.5,13.8-44,20.4
				c-0.6,0.2-1.1,0.3-1.7,0.5C-43,19.1-40.3,17.4-37.6,15.7z"/>
			<path d="M-34.9,273.1c7.2,2.6,14.7,3,22.4,3c15.5-0.1,29.3-4.4,41.1-12.7c9.7-6.9,18.8-14.3,28-21.5
				c13.7-10.9,28.7-20.2,46.7-26.1c-1.9-0.8-3.4-1.3-5-1.9c-15.8-5.8-29.2-14.4-41.7-24.2c-9.3-7.3-18.4-14.9-28.3-21.7
				c-17.5-12.1-37.6-15.2-59.4-11c-0.7,0.1-1.4,0.4-2,0.6c2-1.1,4.2-2.4,6.2-3.5c1.7,0,3.5,0.1,5.2-0.1c18-1.6,34.6,1.7,48.9,11.1
				c8.8,5.8,17,12.3,25.1,18.8c12,9.6,24.4,18.8,39.2,25.3c4.8,2.1,10,3.8,15.1,5.7c0.7,0.3,1.4,0.5,2,0.8c-4.6,1.7-9.1,3.3-13.5,5
				c-12.9,5.1-24.2,12.4-34.7,20.5c-9.6,7.4-18.9,15.1-28.7,22.3c-13.6,9.9-29.6,14.9-47.6,14.4c-3.3-0.1-6.5-0.5-9.8-0.8
				c-0.5,0-0.9,0.1-1.4,0.2C-29.6,275.8-32.3,274.5-34.9,273.1z"/>
			<path d="M-34.3,128.8c7.4,2.6,15.2,3,23.1,2.8c17.3-0.3,31.9-6.3,44.6-15.9c10-7.5,19.6-15.5,29.6-23.1
				c11.4-8.7,24-15.7,38.2-20.6c0.7-0.2,1.2-0.6,2.1-1c-11.1-3.8-21.2-8.6-30.5-14.6C62.4,49.7,53.1,42,43.6,34.4
				C33.4,26.2,22.7,18.1,8.9,14C-4.5,10-18,9.9-31.6,12.7c-1.1,0.3-2.1,0.8-3.2,1.1c2.6-1.3,5.1-2.8,7.7-4.1c2.5-0.1,5-0.2,7.4-0.4
				c16-1.1,30.8,1.7,44,9.5c6.8,4,12.9,8.8,19.1,13.3c6.2,4.6,12,9.4,18,14.2c9.3,7.4,19.6,13.6,31,18.7c5.3,2.4,10.8,4.2,16.2,6.2
				c-2.9,1-6.1,2.1-9.2,3.2c-15.9,5.9-29.4,14.7-42,24.6c-9.1,7.2-18.1,14.6-27.7,21.3c-14.1,9.9-30.6,13.9-48.9,12.9
				c-1.9-0.1-3.7-0.4-5.6-0.6c-0.6,0-1.2,0.2-1.9,0.3C-29.1,131.6-31.7,130.3-34.3,128.8z"/>
			<path d="M-20.8,135.9c6.8,2.3,13.8,1.7,20.8,1.3c17.7-1.1,32.3-8,45.1-17.7c9.5-7.1,18.5-14.6,27.7-21.9
				c13.8-10.8,29.2-19.7,46.7-25.7c0.6-0.2,1-0.4,1.2-0.5c-6.8-3-13.7-5.6-20.3-8.9C90,57.4,80.4,51,71.5,43.8
				C64.8,38.4,58.1,33,51.3,27.7C40.5,19.2,29,11.4,14.4,7.7C4.5,5.2-5.5,4.3-15.7,5.5c-2.1,0.3-4.2,1.2-6.3,1.9
				c1.1-0.7,2.1-1.4,3.3-1.9c2.9-1.2,6-2.4,9-3.5c-1.4,0.7-2.7,1.3-3.6,1.7C-7.4,4-1.1,4,5.1,4.8c13.3,1.6,25,6.4,35.1,13.5
				c8,5.6,15.4,11.7,23,17.7c12.4,9.9,25,19.6,40.1,26.7c6.9,3.2,14.1,5.8,21.1,8.8c-1.2,0.5-2.8,1-4.4,1.5
				C103.1,78.6,88.3,87.1,75,97.4c-8.6,6.7-16.9,13.5-25.4,20.2c-8.3,6.5-17.2,12.2-27.7,16c-10.6,3.8-21.6,5.1-33,4.8
				c-0.7,0-1.5,0-2.5,0c1,0.7,1.8,1.1,2.6,1.7C-14.3,138.7-17.5,137.3-20.8,135.9z"/>
			<path d="M117.1,217.8c1.2-0.8,2.6-1.4,3.9-2.3c-1.7-0.7-3.5-1.3-5.3-2c-14.4-5.3-27.4-12.6-39.1-21.4
				c-7.8-5.9-15.1-12.2-22.9-18.2c-9.7-7.5-19.5-14.9-31.8-19.5c-12.7-4.8-26-5.9-39.6-4.5c-1.5,0.2-2.7,1-4.2,1.6
				c0.5-0.4,0.8-0.9,1.4-1c3.4-1.3,6.9-2.7,10.2-4c-1.1,0.6-2.4,1-3.5,1.6c0,0.1,0,0.2,0.1,0.3c0.6,0,1.1,0,1.6,0
				c21.4-1,39.9,4.9,55.7,16.8c9.9,7.4,19.5,15.2,29.2,22.8c10.1,8,21.2,15,33.3,20.6c5.2,2.4,10.7,4.1,16,6.2
				c0.7,0.3,1.5,0.5,2.1,0.8c0,0.2,0,0.4,0.1,0.5C122.2,216.6,119.6,217.2,117.1,217.8z"/>
			<path d="M138.1,72.3c0.3-0.3,0.7-0.7,1.1-1c-0.2-0.2-0.5-0.5-0.7-0.8c4.5,1.3,9.1,0.5,13.6,0c18.6-1.9,33.8-9.6,47.3-20
				c9.1-7,18-14.4,27.1-21.5c3.5-2.8,7.3-5.1,11-7.7c-0.2,0.3-0.5,0.6-0.9,1c0.8-0.2,1.2-0.2,1.6-0.3c19.7-5.1,38.1-2.8,54.3,8
				c8.7,5.7,16.4,12.4,24.5,18.8c9.3,7.2,19.4,13.7,31,18.3c3.9,1.5,8,2.8,12.3,4.3c-1,0.3-1.7,0.6-2.5,0.8
				c-10.6,3.2-20.5,7.4-29,13.5c-8.8,6.3-17,13.1-25.8,19.5c-5.5,4-11.1,8.2-17.3,11.3c-14.7,7.5-30.6,8.4-47.1,4.3
				c-0.6-0.2-1.2,0-1.9,0c-2.4-1.6-4.8-3.1-7-4.9c-10.6-8.3-20.9-16.8-31.6-24.8c-11.9-9-25.2-15.9-41.3-18.4
				c-4.8-0.8-9.8-1-14.7-1.2C140.8,71.4,139.4,72,138.1,72.3z M235.1,116.6c0.7,0.3,1.2,0.5,1.9,0.7c9.5,2.9,19.3,3.6,29.2,2.3
				c10.7-1.4,19.8-5.6,27.8-11.5c9.8-7.3,19.3-15,29.2-22.3c4.4-3.2,9.3-6,14.3-8.7c4.1-2.2,8.6-3.9,12.9-5.9
				c-10.9-3.9-20.8-9.2-29.6-15.8c-7.2-5.4-14.2-11.1-21.2-16.7c-6.9-5.4-14.2-10.4-23.1-13.2c-11.7-3.9-23.6-3.8-35.7-1.2
				c-2,0.5-4.1,1.2-6.1,1.8c2.6-0.1,5.1-0.5,7.5-0.9c12.8-1.8,24.8,0.3,35.9,6.1c8.2,4.4,15,10.1,21.8,15.8
				c9.3,7.7,19.3,14.9,31.2,19.6c4.3,1.7,8.6,3,13.1,4.7c-0.7,0.3-1.2,0.5-1.8,0.7c-14.4,4-26.7,10.9-37.6,19.7
				c-6.2,5-12.4,10-18.9,14.8c-11,8.1-23.9,12.3-38.6,11.4C243.1,117.6,239.3,117,235.1,116.6z M327.8,71.3
				c-0.6,0.2-1.1,0.5-1.7,0.7c-13.1,3.6-24.3,9.7-34.2,17.7c-5.7,4.7-11.6,9.3-17.7,13.7c-9.6,6.9-20.8,10.1-33.4,9.3
				c-1-0.1-2.1-0.1-3.2-0.1c0.5,0.5,0.9,0.7,1.4,0.8c15.5,2.9,29.7,0.3,42.1-8.3c5.6-3.9,11-8.2,16.3-12.5
				c8.4-6.8,17.2-13.2,27.5-18c2.5-1.1,5-2.2,7.7-3.3c-10.9-4.1-20.3-9.6-28.8-16.2c-6.1-4.8-12-9.6-18.1-14.4
				c-10.9-8.4-23.4-13.3-38.5-12.4c-3.5,0.2-7,0.8-10.4,1.1c0,0.2,0.1,0.5,0.1,0.7c1-0.1,2.1-0.2,3.2-0.2c10.7-0.8,20.7,1,29.4,6.3
				c6.1,3.7,11.7,8,17.2,12.4c7.9,6.2,15.5,12.5,25.1,16.7C316.9,67.4,322.4,69.3,327.8,71.3z M314.2,71.2c-0.6-0.3-1.1-0.5-1.7-0.8
				c-7.1-3-13.6-6.7-19.5-11c-6.4-4.9-12.5-9.9-18.9-14.8c-6.9-5.3-14.6-9.1-24.1-10.4c-4.1-0.5-11.1-0.4-14.2,0.7
				c12.6-0.5,22.6,3.8,31.4,10.6c2.7,2.1,5.3,4.2,7.9,6.3c7,5.6,14.1,11.1,22.9,14.7c4.5,1.8,9.1,3.2,13.7,4.9c0,0-0.1,0.2-0.2,0.2
				c-0.6,0.2-1.2,0.4-1.8,0.6c-10.6,3-20.2,7.4-28.4,13.9c-5.1,4-10,8-15.2,11.9c-6.4,4.9-13.6,8.4-22.3,9.4
				c-2.3,0.3-4.5,0.4-6.8,0.6c10.1,1.5,19.8,0.5,28.4-4.5c5.7-3.3,10.9-7.5,16.2-11.3c6.9-5,13.5-10.1,20.6-14.8
				C305.8,74.9,310.1,73.3,314.2,71.2z M234.9,40c0.7,0.1,1.4,0.2,2,0.4c2.7,0.7,5.5,1.2,8.1,2.1c7.1,2.5,12.5,7.1,17.9,11.6
				c6.8,5.6,14,10.8,22.9,13.9c1.2,0.5,2.6,0.9,3.8,1.2c1.2,0.4,2.6,0.8,3.8,1.1c-6.1-3.7-12-7.4-17.7-11.5
				c-4.5-3.2-8.6-6.9-12.9-10.2C255,42.6,245.9,39.1,234.9,40z M234.3,102.4c0,0.2,0.1,0.4,0.1,0.6c3.6-0.3,7.2-0.4,10.7-0.9
				c7.8-1.1,13.7-5,19.4-9.4c6.4-4.9,12.6-9.9,19.3-14.7c3-2.2,6.8-3.9,10.1-5.8c-0.1-0.1-0.1-0.3-0.2-0.4c-4.6,1.8-9.5,3.3-14,5.3
				c-7.7,3.4-13.6,8.7-19.8,13.7C252.7,96.9,244.9,101.8,234.3,102.4z M231.9,97.1c1.6-0.2,3.2-0.3,4.7-0.5c6.3-1,11.4-3.9,16-7.4
				c6.2-4.7,12.5-9.3,18.7-14c0.8-0.6,1.7-1,2.6-1.6c-8.8,1.8-15.5,6.3-21.7,11.3C246.2,89.8,240.3,95,231.9,97.1z M232.1,45.7
				c8,1.9,13.6,6.8,19.5,11.4c2.7,2.2,5.5,4.4,8.6,6.3c4.1,2.7,8.7,4.6,13.2,5.7c-5.2-3.8-10.6-7.9-16-11.9
				c-3.5-2.6-6.8-5.1-10.5-7.5C242.6,46.9,237.6,45.5,232.1,45.7z M255.5,74.1c-4.1,1-7.5,2.7-10.7,4.8c-6,4-10.6,9.5-17.8,12.2
				c5-0.3,9.1-2.1,12.7-4.8C244.9,82.3,250.1,78.3,255.5,74.1z M227.5,51c0,0.1,0,0.3,0,0.4c3.3,2.1,6.5,4.2,9.7,6.4
				c2.7,1.9,5.1,4,7.8,5.9c3,2.1,6.4,3.8,10.9,4.9c-2.4-1.7-4.2-3-6.1-4.5c-4.5-3.3-8.9-6.9-13.6-9.9C233.7,52.7,230.4,52,227.5,51z
				 M221,85.1c7.4-1.1,11.4-6.5,16.6-10.2C230.5,76.3,226.8,81.8,221,85.1z M221.2,57.4c8.2,6.9,13.4,10.1,16.7,10.3
				C230.4,61.7,226.1,57.6,221.2,57.4z M214.3,62.8c-0.1,0.2-0.3,0.4-0.5,0.5c2.9,3,5.2,4.2,7.8,4.1
				C218.9,65.7,216.7,64.3,214.3,62.8z M213.5,79c0.2,0.3,0.5,0.6,0.7,0.9c2.4-1.5,4.8-3.1,7.2-4.7c-0.2-0.3-0.5-0.5-0.7-0.8
				C218.3,75.9,215.9,77.4,213.5,79z"/>
			<path class="st0" d="M263.7,136.3c-2.3-1.1-4.5-2.2-6.8-3.3c0.8-0.1,1.6-0.2,2.4-0.2c2.8,0.1,5.5,0.2,8.3,0.3
				c0.5,0.1,1,0.3,1.5,0.3c5.5-0.5,11-0.6,16.4-1.4c13.4-2.3,24.5-8.4,34.5-16.1c8.2-6.3,16.1-12.8,24.2-19.1
				c12.9-10.1,27.2-18.6,43.8-24c1.5-0.5,2.8-1,4.5-1.5c-3.3-1-6.1-2-8.9-3C367,62,352.8,52.8,339.7,42.2
				c-8.1-6.5-16.2-13-24.8-19.1c-14.7-10.5-31.8-15.3-51.1-13.8c-2.5,0.2-5,0.3-7.4,0.4c2-1,4.1-1.8,6-2.8c1.4-0.5,2.6-1.2,3.9-1.3
				C286.1,3.4,304,7.3,320,17.2c11.9,7.3,22.1,16.5,32.9,25c11.8,9.2,24.3,17.8,38.7,23.9c4.3,1.8,8.7,3.4,13.2,5.2
				c-1.6,0.6-2.9,1-4.4,1.5c-1.5,0.6-2.9,1-4.4,1.6c-17.7,7-32.5,17.4-46.7,28.7c-9.1,7.2-18.1,14.6-27.8,21.1
				c-13.1,8.9-28.3,13.3-45.3,13C272,137.4,267.9,136.6,263.7,136.3z"/>
			<path class="st0" d="M250.5,129.6c-1.5-0.8-2.8-1.5-4.3-2.4c0.3-1.5,1.5-0.5,2.1-0.4c9.7,1.8,19.5,1.8,29.2,0.1
				c10.1-1.8,19-5.7,26.8-11.3c9.7-7.1,18.9-14.7,28.5-22c10.1-7.8,21.2-14.4,33.8-19c3.2-1.1,6.4-2.3,9.8-3.4
				c-0.6-0.2-0.8-0.4-1.1-0.5c-15.2-4.4-28.6-11.4-40.4-20.5c-9-6.8-17.6-13.9-26.6-20.8c-17.5-13.1-37.5-18-60.3-13.7
				c-0.7,0.1-1.4-0.1-2-0.1c0.9-0.6,1.9-1.2,2.8-1.8c1.2-0.4,2.4-1,3.6-1.1c20.3-4.1,39.1-1.6,56.3,8.6c10,5.9,18.5,13.2,27.2,20.4
				c10.6,8.6,21.6,16.8,34.6,22.8c5.2,2.5,10.7,4.6,16.1,6.9c-0.7,0.3-1.4,0.5-2.1,0.8c-3.9,1.6-8.1,3.1-11.9,5
				c-13.8,6.4-25.6,15-37,24.1c-8,6.4-16,12.8-24.4,18.6c-11,7.5-23.9,11.5-38.2,11.9c-1.5,0-2.8,0.3-4.3,0.5
				c-0.5-0.1-0.9-0.4-1.4-0.4C261.7,131,256.1,130.3,250.5,129.6z"/>
			<path class="st0" d="M236.7,120.8c0.7,0,1.4-0.2,1.9,0c16.4,4,32.3,3.2,47.1-4.3c6.2-3.1,11.8-7.3,17.3-11.3
				c8.8-6.4,17-13.2,25.8-19.5c8.6-6.1,18.6-10.3,29-13.5c0.8-0.2,1.5-0.5,2.5-0.8c-4.3-1.5-8.3-2.8-12.3-4.3
				c-11.6-4.6-21.6-11-31-18.3c-8.1-6.3-16-12.9-24.5-18.8c-16.2-10.8-34.6-13.2-54.3-8c-0.5,0.1-0.8,0.2-1.6,0.3
				c0.5-0.6,0.7-0.8,0.9-1c0.1-0.1,0.2-0.2,0.5-0.3c5.1-1.2,9.9-2.8,15.1-3.5c14.4-2.1,28.1-0.1,40.9,6.2c10,5,18.1,11.9,26.3,18.7
				c10.7,8.8,21.7,17.2,34.9,23.4c4.3,2,8.8,3.8,13.3,5.7c-0.6,0.3-1.1,0.5-1.7,0.8c-11.8,4.3-22.5,10-32.1,17.2
				c-9,6.8-17.7,13.9-26.6,20.8c-11.3,8.7-24,14.9-39.6,15.7C257.4,126.4,246.6,125.4,236.7,120.8L236.7,120.8z"/>
			<path d="M236.7,120.8c9.9,4.7,20.7,5.6,31.9,5c15.6-0.8,28.4-7,39.6-15.7c8.9-6.9,17.6-14,26.6-20.8c9.6-7.1,20.3-12.9,32.1-17.2
				c0.6-0.2,1.1-0.5,1.7-0.8c-4.5-1.9-8.9-3.7-13.3-5.7c-13.2-6.2-24.1-14.7-34.9-23.4c-8.2-6.8-16.3-13.6-26.3-18.7
				c-12.7-6.4-26.5-8.3-40.9-6.2c-5.1,0.8-10,2.3-15.1,3.5c2.7-1.7,5.3-3.5,8-5.2c0.7,0,1.4,0.2,2,0.1c23-4.3,43,0.6,60.2,13.8
				c8.9,6.9,17.6,14,26.6,20.8c11.9,9,25.2,16.1,40.4,20.5c0.3,0.1,0.6,0.2,1.1,0.5c-3.4,1.2-6.6,2.3-9.8,3.4
				c-12.6,4.6-23.6,11.2-33.8,19c-9.5,7.3-18.8,14.9-28.5,22c-7.8,5.6-16.7,9.5-26.8,11.3c-9.7,1.7-19.4,1.7-29.2-0.1
				c-0.6-0.1-1.8-1.1-2.1,0.4C243.1,125.1,239.8,122.9,236.7,120.8z"/>
			<path d="M268.6,132.1c1.5-0.2,2.8-0.4,4.3-0.5c14.3-0.4,27.1-4.4,38.2-11.9c8.6-5.8,16.4-12.2,24.4-18.6
				c11.4-9,23.1-17.8,37-24.1c3.9-1.8,8-3.3,11.9-5c0.7-0.3,1.5-0.6,2.1-0.8c-5.4-2.4-10.9-4.5-16.1-6.9
				c-12.9-6.1-24-14.3-34.6-22.8c-8.8-7.1-17.2-14.5-27.2-20.4c-17.2-10.1-36-12.7-56.3-8.6c-1.2,0.3-2.4,0.9-3.6,1.2
				c2.6-1.3,5.1-2.8,7.7-4.1c2.5-0.1,5-0.2,7.4-0.4c19.4-1.4,36.4,3.3,51.1,13.8c8.6,6.1,16.7,12.7,24.8,19.1
				c13.2,10.5,27.2,19.8,43.9,25.9c2.8,1,5.6,1.9,8.9,3c-1.7,0.6-3,1-4.5,1.5c-16.6,5.4-30.8,13.8-43.8,24
				c-8.1,6.4-16,12.9-24.2,19.1c-10,7.6-21.1,13.8-34.5,16.1c-5.4,0.9-10.9,1-16.4,1.4c-0.5,0-0.9-0.2-1.5-0.3
				C267.9,132.7,268.2,132.5,268.6,132.1z"/>
			<path d="M263.7,136.3c4.2,0.4,8.3,1,12.5,1.1c16.9,0.3,32.2-4.1,45.3-13c9.7-6.7,18.8-13.9,27.8-21.1
				c14.2-11.3,29-21.7,46.8-28.7c1.5-0.6,2.9-1.1,4.4-1.6c1.4-0.5,2.8-1,4.4-1.5c-4.5-1.8-8.9-3.4-13.2-5.2
				c-14.5-6.2-27-14.7-38.7-23.9c-10.8-8.5-20.8-17.6-32.9-25c-16.1-10-34-13.9-53.7-11.6c-1.4,0.2-2.7,0.9-3.9,1.3
				c0.8-0.6,1.6-1.2,2.5-1.5c2.7-1,5.5-2.1,8.2-3c-1.1,0.5-2.3,1-3.4,1.5c0,0.1,0.1,0.2,0.1,0.3c3.9,0,7.8-0.1,11.7,0
				c15.1,0.7,28.8,5,40.4,13c10.1,6.9,19.6,14.6,29.2,22.2c12.4,9.8,25.3,19,40.5,25.5c5.4,2.3,10.9,4.3,16.4,6.4
				c-2.3,0.8-4.6,1.6-7,2.5c-15.6,5.5-29.4,13.4-41.8,22.9c-9.2,7-18,14.5-27.2,21.5c-9.7,7.5-20.3,13.9-33.1,17.3
				c-8.9,2.4-18,3-27.4,2.9c-0.8,0-1.6,0.3-2.4,0.4C267.5,138,265.6,137.1,263.7,136.3z"/>
			<path d="M134.1,218c1.7-0.8,3.4-1.5,5.1-2.3c-0.3-0.3-0.8-0.6-1.2-0.9c7.5,1.5,15,0.1,22.3-1.3c12.8-2.5,23.9-7.8,33.8-14.9
				c8-5.8,15.6-12.1,23.4-18.1c5.9-4.5,11.7-9,17.6-13.5c0.5-0.4,1-0.6,1.6-0.9l0,0c0.6,0,1,0.2,1.6,0.1c2.6-0.5,5.1-1.1,7.7-1.5
				c17.6-2.6,33.6,0.6,47.4,10.1c7,4.8,13.4,10,19.8,15.1c12.6,10.2,26.1,19.1,42.7,24.3c1.5,0.5,2.8,1,4.7,1.6
				c-16,4.4-29.3,11.6-41.1,20.8c-8.2,6.4-16.1,12.9-24.5,19c-13.7,9.8-29.7,13.7-47.6,11.3c-3.4-0.5-6.6-1.1-10-1.8
				c0.2,0.4,0.6,0.8,0.8,1l0,0c-3.4-2.4-7-4.6-10.1-7c-10.4-8.1-20.6-16.5-31.1-24.5c-9-6.9-19.3-12.3-30.8-15.5
				c-8-2.2-16.2-3.4-24.5-3C138.9,216.1,136.5,217.3,134.1,218z M344.3,215.8c-0.8,0.3-1.4,0.4-1.8,0.6
				c-12.3,3.5-23.4,8.9-33.1,16.2c-7.8,5.9-15.1,12-22.9,17.8c-12.2,9-26.2,13.4-42.6,11.7c-3-0.3-6-0.9-9-1.3
				c1.4,0.7,2.7,1.2,4.2,1.5c4.3,0.8,8.7,1.7,12.9,2.1c12.4,1,23.8-1.4,34.2-7.1c9-5,16.3-11.4,24-17.6c8.3-6.8,17-13.2,27-18.2
				c4.2-2,8.4-3.9,12.8-5.8c-0.2-0.1-0.5-0.3-0.7-0.4c-12.8-4.8-24-11.5-34.1-19.5c-7.8-6.1-15.3-12.3-23.3-18
				c-13.3-9.5-28.9-12.7-46-10.2c-3.7,0.6-7.2,1.6-10.8,2.5c4.1-0.2,7.9-0.7,11.8-1c12.4-1,23.8,1.8,33.6,8.2
				c6.8,4.4,13.1,9.3,19.4,14.3c9.9,7.9,20.2,15.4,32.8,20.1C336.5,213.1,340.3,214.3,344.3,215.8z M332.1,215.6
				c-0.2-0.1-0.6-0.3-0.9-0.5c-9.1-3.5-17.5-8.2-24.9-13.8c-6.8-5.1-13.3-10.5-19.9-15.7c-9.6-7.4-20.3-12.7-33.7-13
				c-5.9-0.2-11.5,0.3-17.1,1.9c0.7,0.1,1.2,0.2,1.9,0.1c12.5-1.5,24,0.7,33.9,7.2c6.5,4.3,12.6,9.2,18.7,14.1
				c9.9,7.9,20.6,14.6,33.6,18.4c1.5,0.4,2.9,1,4.6,1.5c-0.7,0.3-1,0.4-1.4,0.5c-12.9,3.5-24.2,9.3-34.1,17.2
				c-6,4.7-11.8,9.5-17.9,14c-9.7,7-20.9,10.5-33.8,9.8c-1.5-0.1-2.9-0.2-4.3-0.4c0.3,0.5,0.7,0.6,1.1,0.7
				c12.4,2.4,24.2,1.5,35.5-3.7c9.2-4.3,16.2-10.9,24-16.8c6.3-4.8,12.6-9.4,19.4-13.7C321.4,220.3,326.9,218.1,332.1,215.6z
				 M235.5,179.4c0.5,0,0.9,0,1.2,0c8-0.5,15.4,1.1,21.8,5c5.9,3.5,11.3,7.5,16.4,11.7c9.6,7.8,19.8,14.7,32.7,18.2
				c1.5,0.4,2.8,0.9,4.5,1.4c-0.9,0.3-1.5,0.5-2,0.7c-5.6,2.1-11.4,4-16.8,6.5c-8.4,3.9-15.1,9.9-22.1,15.5
				c-6.6,5.4-13.6,10.5-22.7,12.5c-4.1,0.9-8.3,1.1-12.3,1.7c9.5,1.4,18.7,0.4,27.4-3.8c6.8-3.2,12.3-7.7,17.7-12.2
				c7.2-5.9,14.4-11.8,23.1-16.3c3.2-1.6,6.3-3,9.7-4.7c-0.6-0.3-1-0.5-1.5-0.7c-7.1-3-13.7-6.7-19.7-11.1
				c-6.1-4.7-12-9.4-18.1-14.2c-7.7-6-16.3-10.5-27-11.2C243.8,178.2,239.5,178.2,235.5,179.4z M293.6,216.8
				c-6.8,1.5-13.3,3.7-18.7,7.4c-6,4.1-11.5,8.5-17.1,12.9c-6.3,4.9-13.2,8.8-21.8,9.6c-0.3,0-0.7,0.2-0.9,0.4
				c3.2,0.2,6.2,0.1,9.2-0.4c8-1.1,14.3-4.9,20-9.4C273.5,230,282.2,222.1,293.6,216.8z M294,214.6c-2.6-1.3-5.3-2.6-7.7-4.2
				c-7.1-5.1-14-10.5-21.2-15.6c-3.7-2.7-7.7-5.3-11.8-7.4c-5.7-2.9-12.3-3.7-19.5-3c2.3,0.4,3.8,0.6,5.5,0.9
				c8.3,1.6,14.5,6.1,20.6,10.9c5.1,4,10.4,7.9,15.8,11.6C281.1,211.2,287.5,213,294,214.6z M231.9,241.5c1-0.1,2.1-0.1,3.2-0.2
				c6.1-0.7,11.3-3.1,15.9-6.5c7.8-5.7,14.5-12.3,23.2-17c-0.3-0.1-0.6-0.1-0.9,0c-8.7,2.5-15.8,6.9-22.2,12.4
				C245.5,234.8,239.8,239.5,231.9,241.5z M231.7,190.1c6.8,1.5,11.9,5.1,16.9,9.1c3.8,3,7.7,6,11.7,8.8c4.1,2.8,8.7,4.5,13.7,5.6
				c-0.6-0.4-1.1-0.8-1.7-1.1c-6.3-4.7-12.7-9.1-18.8-13.9C247.4,193.8,240.6,190,231.7,190.1z M255.5,212.9
				c-4.5-3.5-8.7-7-13.2-10.2c-2.9-2.1-6.3-3.9-9.6-5.6c-1.4-0.8-3.3-0.9-4.8-1.2c-0.1,0.2-0.1,0.4-0.2,0.5c5.3,2,9.1,5.5,13.2,8.9
				C245,208.5,249.5,211.4,255.5,212.9z M255.4,218.5c-5.2,1.3-9.3,3.7-13.2,6.6c-4.7,3.7-9.1,7.8-15.1,10.3c0.6,0.1,1,0.1,1.6,0
				c5-0.8,9-3,12.6-5.9C245.9,225.9,250.5,222.3,255.4,218.5z M238,212.4c-8.1-7.4-13.4-10.6-17-10.4
				C226.8,205.2,230.5,210.6,238,212.4z M221.2,229.5c7.5-1.1,11.4-6.7,16.8-10.4C230.6,220.7,226.8,226.1,221.2,229.5z
				 M213.6,223.3c0.1,0.2,0.2,0.4,0.3,0.5c3-0.7,5.1-2.5,7.1-4.3c-0.2-0.2-0.3-0.4-0.6-0.6C218.2,220.4,215.9,221.8,213.6,223.3z
				 M220.6,212.4c0.1-0.2,0.3-0.4,0.5-0.6c-2.1-1.8-4.2-3.7-7.3-4.4c-0.1,0.2-0.2,0.3-0.5,0.5C215.9,209.5,218.2,211,220.6,212.4z"
				/>
			<path class="st0" d="M256.7,153.8c2-0.9,4.1-1.7,6.1-2.6c1.9-0.5,3.8-1.2,5.7-1.4c10.9-1,21.6-0.1,32,3
				c12.5,3.7,22.9,10.4,32.4,17.8c10.6,8.2,21.1,16.5,31.8,24.6c8.7,6.6,18.6,11.8,29,16.2c3.6,1.5,7.3,2.9,11.3,4.4
				c-15.5,5-29.4,12.1-41.7,21.1c-9.8,7.2-19.1,14.9-28.6,22.4c-2,1.6-4.1,3.2-6.2,5c-0.9,0.6-1.8,1-2.6,1.6
				c-11.8,8.3-25,14.2-40.5,15.6c-7.5,0.7-15,1.1-22.3-1c-1.8-0.9-3.7-1.7-5.5-2.6c-0.2-0.3-0.5-0.7-0.8-1c1.4,0.2,2.6,0.3,3.8,0.5
				c10.2,1,20.4,0.4,30.4-2.2c12.9-3.4,23.3-10.3,33.1-17.9c7.1-5.5,14-11.2,21.1-16.8c10.4-8.1,21.7-15,34.5-20.1
				c4.1-1.6,8.3-3,12.6-4.7c-0.6-0.2-0.9-0.4-1.2-0.5c-16.1-5-30.4-12.5-43.1-22.1c-7.8-5.9-15.3-12.1-22.9-18.1
				c-7.9-6.3-16.2-12.1-26.1-16.1c-12.6-5-25.9-6.2-39.5-4.7C258.4,154.3,257.6,154,256.7,153.8z"/>
			<path class="st0" d="M246.4,159.9c1.5-0.8,2.8-1.5,4.3-2.4c9-2.4,18.1-2.8,27.4-1.9c12.8,1.1,24.3,5.4,34.1,12.4
				c9.5,6.7,18.4,13.9,27.4,21c12.6,9.9,26.1,18.8,42,24.7c1.7,0.6,3.3,1.2,5.1,2c-4.2,1.7-8.1,3.1-12,4.9
				c-14.3,6.2-26.3,14.9-38.1,24.2c-7.8,6.2-15.6,12.6-23.9,18.4c-13.6,9.6-29.5,14-47.3,13c-5.7-0.3-11.5-0.6-16.6-3.1
				c-0.9-0.6-1.9-1-2.8-1.6c0.5-0.1,1-0.2,1.5-0.1c9.1,1.7,18.4,2,27.7,0.7c11.6-1.7,21.7-6.3,30.5-12.7
				c7.3-5.3,14.3-10.9,21.3-16.6c12.5-10.1,26-18.8,42.1-24.5c2.3-0.8,4.6-1.5,7-2.3c-0.2-0.2-0.3-0.3-0.5-0.4
				c-0.3-0.1-0.7-0.2-1-0.4c-18-5.3-33.1-14.6-46.8-25.5c-8.8-7-17.7-14.1-27.1-20.5c-10.4-6.9-22.5-10.4-35.8-10.3
				c-5.7,0-11.4,1-17.1,1.4C247.4,160.3,246.8,160,246.4,159.9z"/>
			<path d="M246.4,159.9c0.5,0.1,1,0.4,1.5,0.4c5.7-0.5,11.4-1.3,17.1-1.4c13.3-0.1,25.6,3.3,35.8,10.3c9.5,6.4,18.4,13.4,27.1,20.5
				c13.7,10.9,28.8,20.2,46.8,25.5c0.3,0.1,0.7,0.2,1,0.4c0.1,0.1,0.2,0.2,0.5,0.4c-2.4,0.8-4.7,1.5-7,2.3
				c-16.1,5.6-29.6,14.4-42.1,24.5c-7,5.6-14,11.3-21.3,16.6c-8.8,6.4-18.9,10.9-30.5,12.7c-9.2,1.3-18.5,1-27.7-0.7
				c-0.5-0.1-1,0.1-1.5,0.1c-2.7-1.7-5.4-3.4-8.1-5.2l0,0c0.3,0.1,0.7,0.2,1,0.3c22.5,7,43.6,5.1,62.6-7.5
				c8.4-5.7,16.1-12.2,24-18.4c8.1-6.4,16.6-12.6,26.1-17.4c5.3-2.7,10.9-5,16.4-7.4c-0.1-0.1-0.5-0.3-0.8-0.4
				c-16.6-5.9-30.4-15.1-43.3-25.5c-8-6.4-15.9-13-24.8-18.6c-19.5-12-40.6-13.5-62.7-5l0,0C240,164.1,243.1,162,246.4,159.9z"/>
			<path d="M248.9,272.9c5.2,2.5,10.9,2.8,16.6,3.1c17.8,1,33.7-3.4,47.3-13c8.2-5.8,16-12.1,23.9-18.4
				c11.6-9.2,23.8-17.9,38.1-24.2c3.8-1.7,7.9-3.1,12-4.9c-1.7-0.7-3.4-1.3-5.1-2c-15.9-5.9-29.4-14.8-42-24.7
				c-9-7.1-18-14.4-27.4-21c-9.8-6.9-21.3-11.2-34.1-12.4c-9.2-0.8-18.5-0.5-27.4,1.9c2-1.2,4.1-2.5,6.2-3.7
				c0.8,0.1,1.7,0.4,2.5,0.3c13.7-1.5,26.9-0.4,39.5,4.7c9.9,4,18.2,9.8,26.1,16.1c7.7,6,15.1,12.3,22.9,18.1
				c12.7,9.6,27,17.2,43.1,22.1c0.5,0.1,0.8,0.3,1.2,0.5c-4.3,1.6-8.6,3-12.6,4.7c-12.8,5-24.1,12-34.5,20.1
				c-7.1,5.5-14,11.2-21.1,16.8c-9.8,7.6-20.2,14.5-33.1,17.9c-9.9,2.7-20,3.3-30.4,2.2c-1.2-0.1-2.4-0.3-3.8-0.5
				c0.3,0.4,0.6,0.8,0.8,1C254.7,276.2,251.8,274.6,248.9,272.9z"/>
			<path d="M263.2,280.5c7.3,2.1,14.9,1.6,22.3,1c15.5-1.4,28.7-7.3,40.5-15.6c0.8-0.6,1.7-1,2.6-1.6c0.2,0.2,0.3,0.3,0.6,0.5
				c-4.2,2.8-8.1,5.7-12.5,8.2c-13.8,7.8-29.3,10.9-45.9,9.9c-0.3,0-0.6,0-1.5,0c1.5,0.8,2.6,1.2,3.6,1.8
				C269.7,283.1,266.4,281.8,263.2,280.5z"/>
			<path d="M-22.1,279.7c15,4.6,29.4,1.8,43.6-2.7c0.8-0.2,1.6-0.2,2.4-0.3c-0.5,0.4-0.9,0.9-1.5,1c-10.9,4-22.4,5.6-34.2,5
				c-0.8,0-1.7,0.2-2.5,0.3C-17,282-19.6,280.9-22.1,279.7z"/>
			<path d="M129.2,211.6c-2.1-0.9-4.3-1.7-6.4-2.7c11,1.5,21.8,1,32.5-1.6c13.3-3.2,24.2-9.7,34.2-17.4c9.1-7,18-14.2,27.1-21.3
				c11.4-8.9,24-16.3,38.1-21.9c2.8-1.1,5.6-2.1,8.7-3.2c-3-1.1-5.7-2.1-8.4-3.1c-15-5.8-28.1-13.9-40.2-23.3
				c-9.2-7.1-18.2-14.7-27.6-21.7c-13.2-10-28.1-16.8-46.3-17.9c-6.2-0.4-12.5-0.5-18.6,0.9c2-0.9,4.2-1.7,6.2-2.5
				c0.2,0.2,0.5,0.6,0.7,0.6c8.4-0.5,16.8,0.1,25.1,2c12.2,2.7,22.6,8,31.9,14.9c9.7,7.2,18.9,14.9,28.5,22.3
				c15,11.8,31.5,21.4,50.9,27.4c0.5,0.1,0.8,0.3,1.1,0.5c-5.2,1.9-10.2,3.7-15.3,5.8c-9.8,4.1-18.9,9-27,15
				c-11.1,8.4-22,17.1-33,25.6c-9.8,7.6-20.4,14.2-33.3,17.7c-9,2.5-18.2,3.3-27.7,3c-0.7,0-1.4-0.1-2.5-0.1
				C128.4,211,128.8,211.3,129.2,211.6z"/>
			<path d="M329.2,264.7c-0.2-0.2-0.3-0.3-0.6-0.5c2-1.6,4.1-3.2,6.2-5c9.6-7.5,18.8-15.1,28.6-22.4c12.3-9,26.1-16.2,41.7-21.1
				c-3.9-1.5-7.7-2.9-11.3-4.4c-10.5-4.4-20.3-9.6-29-16.2c-10.7-8.1-21.2-16.4-31.8-24.6c-9.7-7.4-19.9-14.1-32.4-17.8
				c-10.4-3-21.1-3.9-32-3c-1.9,0.2-3.8,1-5.7,1.4c2.3-1,4.5-2.1,6.6-3.1c0.9,0.2,1.8,0.5,2.6,0.4c10.6-0.4,21.1,0.7,31,4
				c9.5,3.1,17.9,7.8,25.4,13.5c9.1,6.9,18,14.1,26.9,21.2c15.1,11.9,31.8,21.7,51.3,27.8c0.5,0.2,0.9,0.4,1.7,0.7
				c-2.9,1-5.6,1.9-8.3,2.9c-15.4,5.6-29,13.6-41.4,23.1c-9.2,7.1-18.4,14.5-27.5,21.7C330.7,263.9,329.9,264.3,329.2,264.7z"/>
			<path d="M268.6,132.1c-0.3,0.3-0.7,0.7-1,1c-2.8-0.1-5.5-0.2-8.3-0.3c-0.8,0-1.6,0.1-2.4,0.2c-2.1-1.1-4.3-2.2-6.4-3.3
				c5.5,0.7,11.1,1.4,16.7,2.1C267.7,131.8,268.1,132,268.6,132.1z"/>
			<path class="st0" d="M122.1,78.3c6.2-1.3,12.4-1.2,18.6-0.9c18,1,33.1,7.9,46.3,17.9c9.3,7,18.4,14.6,27.6,21.7
				c12,9.4,25.2,17.5,40.2,23.3c2.7,1,5.4,2,8.4,3.1c-3,1.1-5.9,2.1-8.7,3.2c-14.1,5.5-26.7,12.9-38.1,21.9
				c-9,7.1-18,14.3-27.1,21.3c-10,7.7-20.9,14.2-34.2,17.4c-10.7,2.6-21.5,3.1-32.5,1.6c-2.3-1-4.5-2.2-6.8-3.2
				c-1-1.3,0.5-0.8,0.9-0.8c2.8,0.2,5.6,0.6,8.4,0.7c16.6,0.6,31.8-3.2,44.7-12.1c9-6.2,17.6-12.9,25.9-19.7
				c13.2-10.7,27.1-20.2,43.8-26.6c3.5-1.3,7.1-2.6,10.8-3.9c-0.7-0.2-1-0.4-1.5-0.5c-10.8-3.3-20.8-7.8-30.2-13.4
				c-11.7-7-21.8-15.5-32.2-23.9c-6.8-5.5-13.7-10.9-21.6-15.1c-13.4-7.3-28.1-10.1-44-8.9c-1.5,0.1-3,0.3-4.5,0.4
				c-0.2,0-0.5-0.5-0.7-0.8C118,80.3,120.1,79.2,122.1,78.3z"/>
			<path class="st0" d="M108.8,201.8c-1.4-0.8-2.7-1.6-4.1-2.4c0.2-0.7,0.2-0.7,1.6-0.4c21.1,3.9,40.2,0.3,56.6-11.5
				c10-7.2,19.5-15.1,29.3-22.6c9.1-6.9,19-12.9,30.3-17.1c3.8-1.5,7.8-2.9,11.9-4.3c-2.4-0.8-4.5-1.4-6.5-2.1
				c-15.4-5.2-28.5-13.3-40.5-22.8c-7.3-5.8-14.6-11.8-22.2-17.4c-16.4-12.3-35.5-16.8-57.2-13.4c-1,0.2-2,0.3-3.5,0.5
				c0.7-0.7,0.9-1,1.2-1.2c0.9-0.6,1.8-1.2,2.8-1.8c2.6-0.4,5.1-0.9,7.7-1.1c21.3-2.9,40.1,1.6,56.3,13.4
				c8.3,6.1,16.3,12.6,24.3,18.9c11.4,8.9,23.3,17.2,37.3,23c3.5,1.4,7,2.8,10.6,4.2c-0.6,0.2-1,0.4-1.4,0.6
				c-13.7,4.7-26,11.4-37.2,19.6c-8.9,6.6-17.3,13.6-26,20.5c-7.4,5.8-15.2,11.1-24.3,14.7C140.8,204.8,125,205.3,108.8,201.8z"/>
			<path class="st0" d="M94.9,193.1c0.7,0,1.4-0.2,1.9,0c13.6,3.3,27.1,3.2,40.3-1.4c9.3-3.2,17-8.7,24.3-14.4
				c7.7-6,15.2-12,23-17.7c9.1-6.7,19.7-11.5,31.1-15c0.9-0.3,1.9-0.6,2.8-0.9c-4.6-1.7-9.2-3.2-13.6-5
				c-10.4-4.1-19.4-9.9-27.8-16.4c-8.1-6.3-16-12.8-24.3-18.8c-7.3-5.3-15.9-9-25.4-10.7c-10.2-1.7-20.4-1.2-30.3,1.2
				c-0.6,0.2-1.2,0-1.9,0c0.6-0.3,1.1-0.6,1.7-0.9c23-7.5,44.5-5.3,64,7.8c7.8,5.2,14.9,11.2,22.1,16.9c9.5,7.5,19.3,14.7,30.6,20
				c4.4,2.1,8.9,3.9,13.4,5.8c-2.5,1-5,1.9-7.4,3c-13.4,5.6-24.9,13.4-35.8,22.1c-7.4,5.9-14.6,11.9-22.5,17.4
				c-15.9,11.1-34.1,14.5-54.2,10.8c-3.5-0.7-6.8-1.7-10.1-2.6C96.1,193.8,95.5,193.5,94.9,193.1z"/>
			<path d="M96.5,194.1c3.4,0.9,6.8,1.9,10.1,2.6c20,3.8,38.3,0.4,54.2-10.8c7.8-5.5,15.1-11.5,22.5-17.4
				c10.8-8.7,22.3-16.5,35.8-22.1c2.5-1,5-2,7.4-3c-4.5-1.9-9-3.8-13.4-5.8c-11.4-5.3-21.2-12.5-30.6-20
				c-7.2-5.8-14.3-11.7-22.1-16.9c-19.4-13.1-40.9-15.2-64-7.8c0.8-0.7,1.6-1.5,2.5-2.1c2.3-1.4,4.5-2.7,6.8-4
				c-0.3,0.3-0.6,0.7-1.2,1.2c1.5-0.2,2.5-0.4,3.5-0.5c21.6-3.5,40.8,1,57.2,13.4c7.5,5.6,14.7,11.6,22.2,17.4
				c12,9.5,25.1,17.6,40.5,22.8c2,0.7,4.2,1.3,6.5,2.1c-4.2,1.5-8.1,2.9-11.9,4.3c-11.3,4.3-21.2,10.3-30.3,17.1
				c-9.8,7.4-19.3,15.3-29.3,22.6c-16.4,11.8-35.6,15.4-56.6,11.5c-1.4-0.3-1.4-0.3-1.6,0.4C102,197.7,99.3,195.9,96.5,194.1z"/>
			<path d="M108.8,201.8c16.1,3.5,32,3,47.3-3c9.2-3.6,17-8.9,24.3-14.7c8.7-6.8,17.1-13.8,26-20.5c11-8.2,23.4-14.9,37.2-19.6
				c0.5-0.1,0.8-0.3,1.4-0.6c-3.6-1.4-7.2-2.8-10.6-4.2c-14-5.9-26-14.1-37.3-23c-8.1-6.4-16-12.9-24.3-18.9
				c-16.2-11.8-35.1-16.3-56.3-13.4c-2.6,0.4-5.1,0.8-7.7,1.1c2.4-1.2,4.8-2.5,7.2-3.7c0.2,0.3,0.5,0.8,0.7,0.8
				c1.6-0.1,3-0.3,4.5-0.4c15.9-1.3,30.6,1.4,44,8.9c7.9,4.3,14.9,9.6,21.6,15.1c10.4,8.4,20.5,16.9,32.2,23.9
				c9.3,5.6,19.4,10.1,30.2,13.4c0.5,0.1,0.8,0.3,1.5,0.5c-3.7,1.3-7.3,2.6-10.8,3.9c-16.8,6.4-30.7,15.9-43.8,26.6
				c-8.3,6.8-16.9,13.5-25.9,19.7c-12.9,8.8-28,12.6-44.7,12.1c-2.8-0.1-5.6-0.5-8.4-0.7c-0.3,0-1.9-0.6-0.9,0.8
				C113.6,204.3,111.3,203.1,108.8,201.8z"/>
			<path d="M23.8,276.8c0.2-0.3,0.2-0.8,0.6-0.9c13.4-5.6,24.1-14.3,34.7-22.9c10.2-8.4,20.6-16.8,32.4-23.7
				c7.4-4.4,15.3-8.3,23.6-11.3c0.7-0.3,1.5-0.2,2.1-0.3c-0.3,0.3-0.5,0.7-0.9,0.9c-18.7,6.9-34.5,17.4-49.1,29.2
				c-8.8,7.1-17.8,14.1-27.1,20.8c-4.3,3-9.5,5.2-14.2,7.8C25.4,276.8,24.5,276.7,23.8,276.8z"/>
			<path class="st0" d="M209,143.5c-12.3,4.4-22.9,10.5-32.4,17.7c-6.2,4.8-12.2,9.6-18.2,14.5c-7.5,6-15.5,11.3-25.4,14.2
				c-13.1,3.8-26.1,3.1-38.8-1.2c0.7,0.1,1.4,0.2,2,0.4c0.7,0.1,1.5,0.3,2.1,0.4c17.3,2.8,32.5-1,45.7-10.7
				c7.1-5.2,13.8-10.9,20.8-16.3c10.6-8.3,22.6-14.6,36.4-18.5c0.5-0.1,0.8-0.3,1.4-0.5c-3.9-1.3-7.9-2.6-11.6-4
				c-11.4-4.3-20.9-10.8-29.8-17.9c-5.1-4.1-10-8.2-15.3-12.1c-8.9-6.7-19-11.4-31.1-12.5c-6.5-0.6-12.9-0.3-19.3,1.1
				c-0.3,0.1-0.7,0.1-1,0.2c-0.1,0-0.2-0.1-0.6-0.6c3.9-0.9,7.9-1.8,11.9-2.5c7.7-1.2,15.4-1,22.9,0.7c8.6,1.8,16.2,5.3,22.9,10.3
				c7.8,5.8,15.2,11.9,22.9,17.9C184.5,132,195.7,138.7,209,143.5z"/>
			<path class="st0" d="M94.5,101.8c3.3-0.5,6.6-1,9.9-1.3c15.5-1.2,28.4,3.7,39.5,12.5c6.5,5.1,12.9,10.5,19.6,15.4
				c8,6.1,16.9,11.1,27.1,15c-1.8,0.8-3.4,1.4-5,2.1c-11.4,4.9-21.1,11.8-30.2,19.2c-6.9,5.6-13.5,11.3-21.6,15.7
				c-11.8,6.3-24.5,7.4-37.9,4.9c-0.6-0.1-1-0.3-1.6-0.5c4.5,0,9,0.3,13.4-0.1c9.7-0.8,18-4.3,25.2-9.6c6.1-4.5,11.9-9.1,17.8-13.9
				c9.9-7.9,21.2-13.7,34.1-17.3c0.5-0.1,0.8-0.3,1.6-0.5c-3.3-1-6.3-2-9.3-3c-10.9-3.7-19.9-9.7-28.5-16.4
				c-6-4.7-11.8-9.5-18.1-13.8c-10.2-6.9-22.2-9.4-35.2-7.9c-0.2,0-0.6,0-0.9,0C94.5,102.1,94.5,102,94.5,101.8z"/>
			<path class="st0" d="M172.4,143.6c-9.7,3.8-18.1,9.1-25.9,15.2c-5.2,4.1-10.1,8.3-15.4,12.2c-9.7,7.2-20.9,10.9-34.1,9.5
				c-0.9-0.1-1.8-0.3-2.7-0.6c14.5,0.6,25.2-5.6,35-13.6c4.4-3.5,8.8-7,13.3-10.4c7.3-5.4,15.9-9,25-11.6c0.8-0.2,1.6-0.5,2.8-0.9
				c-3.4-1.1-6.5-2.1-9.6-3c-10.5-3.5-18.9-9.4-26.9-16c-3.7-3-7.5-6.1-11.6-8.9c-8.1-5.7-17.3-8.9-28-8.4c0-0.2,0-0.3,0-0.5
				c2.1-0.2,4.3-0.5,6.4-0.6c11.9-0.4,22.1,3.5,30.8,10.1c9.1,6.9,18.1,13.8,27.5,20.4C163.1,139.4,167.8,141.3,172.4,143.6z"/>
			<path class="st0" d="M92.2,112.1c10.8-0.8,19.7,2,27.2,7.6c5.7,4.3,11.1,8.9,17,13.1c4.7,3.3,10,6.2,15.2,9.2
				c0.3,0.2,0.7,0.4,1.2,0.8c-11.9-2.8-21.7-8.1-30.2-15.1c-3.5-3-7.1-5.8-10.9-8.4C106,115.1,103.2,114.2,92.2,112.1z"/>
			<path class="st0" d="M92.6,174.6c12.7-0.8,21.2-7.8,29.5-14.7c5.4-4.4,10.9-8.7,17.8-11.4c4.1-1.7,8.3-3,12.7-4.2
				c-2.1,1.1-4.3,2.3-6.4,3.4c-8.2,4.5-14.9,10.4-21.8,16c-5.7,4.5-11.6,8.9-19.5,10.3c-3.9,0.8-8,1-11.9,1.3
				C92.7,175.1,92.6,174.9,92.6,174.6z"/>
			<path class="st0" d="M131.4,145.7c-5,3.6-9.7,7.1-14.4,10.7c-3.6,2.8-7.2,5.6-10.9,8.1c-4.5,3-9.8,4.7-15.7,4.5
				c7.5-1.8,13.1-6.2,18.5-10.7c6-5,12.3-9.4,20.2-11.9C129.7,146.2,130.5,146,131.4,145.7z"/>
			<path class="st0" d="M91,117.8c6.5,0.1,12.4,2.4,17.5,6.1c4.3,3.1,8.2,6.6,12.5,9.7c3.6,2.7,7.4,5.2,11.4,7.9
				c-6.1-1.7-11.6-4-16.2-7.4c-5.1-3.7-9.9-7.8-15.1-11.3C97.9,120.7,94.3,119.3,91,117.8z"/>
			<path class="st0" d="M85.1,163.1c7.3-2.8,11.7-8.1,17.7-11.8c3.3-2,6.9-3.6,10.6-5.5c0,0.7,0.1,0.8,0.1,0.9
				c-5.6,4.3-11.1,8.6-16.9,12.8C93,161.9,88.8,163.2,85.1,163.1z"/>
			<path class="st0" d="M86.1,123.7c3.7,0.3,7.3,1.5,10.2,3.7c5.9,4.3,11.6,8.8,17.7,13.4c-4.4-1.2-8-2.8-11.1-5
				c-2.4-1.7-4.5-3.6-7-5.3C92.6,128.1,89.3,125.9,86.1,123.7z"/>
			<path class="st0" d="M96.1,146.9c-5.3,3.7-9.2,9.1-16.8,10.4C85,153.9,88.9,148.5,96.1,146.9z"/>
			<path class="st0" d="M96,140.1c-7.3-1.7-10.9-7-16.7-10.2C83.5,129.3,90,134.8,96,140.1z"/>
			<path class="st0" d="M79.4,139.8c-3.4-0.4-5.3-2.6-7.4-4.4C75.2,135.9,77.2,138,79.4,139.8z"/>
			<path class="st0" d="M79.6,147.4c-2.3,1.4-4.5,3-6.9,4.4c-0.2-0.2-0.3-0.4-0.6-0.7C74.2,149.5,76.1,147.5,79.6,147.4z"/>
			<path class="st0" d="M235.1,116.6c4.1,0.5,8,1,11.9,1.3c14.7,1,27.6-3.3,38.6-11.4c6.5-4.8,12.6-9.8,18.9-14.8
				C315.5,83,327.8,76,342.2,72c0.6-0.2,1.1-0.5,1.8-0.7c-4.5-1.6-8.8-3-13.1-4.7c-11.9-4.8-21.7-11.9-31.2-19.6
				c-6.9-5.6-13.6-11.4-21.8-15.8c-11-5.8-23-7.9-35.9-6.1c-2.5,0.4-5,0.8-7.5,0.9c2-0.7,4.1-1.3,6.1-1.8c12-2.7,24-2.7,35.7,1.2
				c8.9,3,16.2,7.8,23.1,13.2c7.1,5.5,14,11.2,21.2,16.7c8.8,6.6,18.7,11.9,29.6,15.8c-4.4,2-8.8,3.7-12.9,5.9
				c-5,2.7-9.9,5.4-14.3,8.7c-9.9,7.2-19.4,14.9-29.2,22.3c-8,6-17.1,10.1-27.8,11.5c-9.9,1.3-19.7,0.6-29.2-2.3
				C236.5,117,235.9,116.8,235.1,116.6z"/>
			<path class="st0" d="M327.8,71.3c-5.5-2.1-11-4-16.3-6.2c-9.7-4.2-17.3-10.5-25.1-16.7c-5.5-4.4-11.1-8.7-17.2-12.4
				c-8.7-5.3-18.7-7-29.4-6.3c-1,0.1-2.1,0.2-3.2,0.2c0-0.2-0.1-0.5-0.1-0.7c3.5-0.4,6.9-1,10.4-1.1c15.1-1,27.7,3.9,38.5,12.4
				c6.1,4.8,12,9.6,18.1,14.4c8.6,6.6,17.9,12.2,28.8,16.2c-2.7,1.2-5.2,2.3-7.7,3.3c-10.2,4.8-19,11.1-27.5,18
				c-5.3,4.3-10.6,8.6-16.3,12.5c-12.4,8.6-26.6,11.1-42.1,8.3c-0.5-0.1-0.9-0.2-1.4-0.8c1,0,2.1,0.1,3.2,0.1
				c12.7,0.8,23.9-2.5,33.4-9.3c6.1-4.4,11.8-9,17.7-13.7c9.9-8,21.2-14.1,34.2-17.7C326.7,71.8,327.2,71.6,327.8,71.3z"/>
			<path class="st0" d="M314.2,71.2c-4.1,2-8.3,3.7-11.9,6.1c-7.1,4.7-13.7,9.8-20.6,14.8c-5.4,3.8-10.5,8-16.2,11.3
				c-8.4,5-18.2,6-28.4,4.5c2.3-0.2,4.5-0.3,6.8-0.6c8.7-1,15.9-4.6,22.3-9.4c5.2-3.9,10.1-7.9,15.2-11.9
				c8.2-6.5,17.8-10.9,28.4-13.9c0.6-0.2,1.2-0.4,1.8-0.6c0.1,0,0.2-0.2,0.2-0.2c-4.6-1.6-9.2-3.1-13.7-4.9
				c-8.8-3.5-15.9-9-22.9-14.7c-2.6-2.1-5.3-4.3-7.9-6.3c-8.8-6.8-18.8-11-31.4-10.6c3-1,10.1-1.1,14.2-0.7
				c9.5,1.1,17.2,5,24.1,10.4c6.3,4.9,12.5,9.9,18.9,14.8c5.9,4.5,12.4,8.1,19.5,11C313,70.7,313.6,70.9,314.2,71.2z"/>
			<path class="st0" d="M234.9,40c11-1,20.2,2.6,28,8.6c4.4,3.3,8.4,6.9,12.9,10.2c5.6,4,11.6,7.7,17.7,11.5
				c-1.2-0.4-2.6-0.8-3.8-1.1c-1.4-0.4-2.6-0.8-3.8-1.2C277,64.8,269.8,59.6,263,54c-5.4-4.5-10.7-9-17.9-11.6
				c-2.6-1-5.4-1.4-8.1-2.1C236.4,40.2,235.6,40.1,234.9,40z"/>
			<path class="st0" d="M234.3,102.4c10.6-0.7,18.4-5.6,25.6-11.5c6.2-5,12.2-10.3,19.8-13.7c4.5-2,9.3-3.6,14-5.3
				c0.1,0.1,0.1,0.3,0.2,0.4c-3.4,1.9-7.1,3.6-10.1,5.8c-6.5,4.8-12.8,9.8-19.3,14.7c-5.6,4.3-11.6,8.2-19.4,9.4
				c-3.5,0.6-7.1,0.6-10.7,0.9C234.4,102.8,234.3,102.6,234.3,102.4z"/>
			<path class="st0" d="M231.9,97.1c8.6-2.1,14.3-7.2,20.3-12.2c6.3-5.1,13.1-9.5,21.7-11.3c-0.9,0.6-1.8,1-2.6,1.6
				c-6.3,4.7-12.5,9.3-18.7,14c-4.6,3.5-9.7,6.5-16,7.4C235,96.9,233.4,97,231.9,97.1z"/>
			<path class="st0" d="M232.1,45.7c5.5-0.1,10.5,1.2,14.7,3.9c3.6,2.3,7,5,10.5,7.5c5.4,4,10.8,8.1,16,11.9c-4.5-1-9-3-13.2-5.7
				c-3-1.9-5.9-4.1-8.6-6.3C245.7,52.5,240.1,47.6,232.1,45.7z"/>
			<path class="st0" d="M255.5,74.1c-5.4,4.2-10.6,8.3-15.8,12.2c-3.6,2.7-7.8,4.5-12.7,4.8c7.2-2.7,11.8-8.2,17.8-12.2
				C248,76.8,251.3,75.2,255.5,74.1z"/>
			<path class="st0" d="M227.5,51c2.9,1,6.2,1.6,8.6,3.1c4.8,3,9.1,6.6,13.6,9.9c1.8,1.3,3.7,2.8,6.1,4.5c-4.5-1-7.9-2.8-10.9-4.9
				c-2.7-1.9-5.1-4-7.8-5.9c-3.2-2.2-6.4-4.3-9.7-6.4C227.5,51.3,227.5,51.2,227.5,51z"/>
			<path class="st0" d="M221,85.1c5.7-3.2,9.3-8.8,16.6-10.2C232.4,78.6,228.6,83.9,221,85.1z"/>
			<path class="st0" d="M221.2,57.4c5,0.2,9.2,4.3,16.7,10.3C234.4,67.5,229.3,64.4,221.2,57.4z"/>
			<path class="st0" d="M214.3,62.8c2.3,1.4,4.6,3,7.2,4.7c-2.6,0.1-4.8-1.2-7.8-4.1C214,63.2,214.2,63,214.3,62.8z"/>
			<path class="st0" d="M213.5,79c2.5-1.5,4.8-3,7.3-4.6c0.2,0.3,0.5,0.5,0.7,0.8c-2.4,1.5-4.8,3.1-7.2,4.7
				C214,79.5,213.7,79.2,213.5,79z"/>
			<path class="st0" d="M236.7,166.2c22.1-8.5,43.1-7,62.7,5c8.9,5.4,16.8,12.1,24.8,18.6c12.9,10.4,26.8,19.6,43.3,25.5
				c0.3,0.1,0.6,0.3,0.8,0.4c-5.5,2.5-11,4.8-16.4,7.4c-9.6,4.8-18,10.9-26.1,17.4c-7.9,6.2-15.5,12.8-24,18.4
				c-19,12.8-40.1,14.6-62.6,7.5c-0.3-0.1-0.7-0.2-1-0.3c-0.2-0.4-0.5-0.7-0.8-1c3.4,0.6,6.6,1.3,10,1.8
				c17.9,2.4,33.9-1.5,47.6-11.3c8.4-6.1,16.4-12.7,24.5-19c11.8-9.1,25.1-16.4,41.1-20.8c-1.9-0.7-3.4-1.1-4.7-1.6
				c-16.6-5.1-30.1-14.1-42.7-24.3c-6.4-5.2-12.9-10.5-19.8-15.1c-13.8-9.5-29.8-12.7-47.4-10.1c-2.6,0.4-5.1,1-7.7,1.5
				C237.7,166.3,237.1,166.2,236.7,166.2z"/>
			<path class="st0" d="M344.3,215.8c-4.1-1.4-7.8-2.6-11.5-4c-12.6-4.8-22.9-12.2-32.8-20.1c-6.2-5-12.5-9.9-19.4-14.3
				c-9.8-6.3-21.2-9-33.6-8.2c-3.9,0.3-7.9,0.8-11.8,1c3.6-0.9,7.1-2,10.8-2.5c17.1-2.5,32.8,0.6,46,10.2c8,5.7,15.5,12,23.3,18
				c10.2,8,21.4,14.8,34.1,19.5c0.2,0.1,0.5,0.2,0.7,0.4c-4.3,2-8.7,3.8-12.8,5.8c-10,5-18.7,11.4-27,18.2
				c-7.7,6.2-15.1,12.7-24,17.6c-10.5,5.7-21.8,8.2-34.2,7.1c-4.4-0.4-8.7-1.3-12.9-2.1c-1.5-0.3-2.8-0.9-4.2-1.5c3,0.5,6,1,9,1.3
				c16.3,1.6,30.4-2.7,42.6-11.7c7.8-5.8,15.2-12,22.9-17.8c9.7-7.3,20.7-12.7,33.1-16.2C343,216.1,343.5,215.9,344.3,215.8z"/>
			<path class="st0" d="M332.1,215.6c-5.2,2.6-10.6,4.9-15.4,7.8c-6.8,4.3-13.1,8.9-19.4,13.7c-7.7,5.9-14.7,12.4-24,16.8
				c-11.3,5.2-23.1,6.1-35.5,3.7c-0.5-0.1-0.8-0.2-1.1-0.7c1.5,0.1,2.9,0.3,4.3,0.4c12.8,0.6,24.1-2.8,33.8-9.8
				c6.2-4.5,12-9.2,17.9-14c9.9-7.9,21.2-13.7,34.1-17.2c0.3-0.1,0.7-0.3,1.4-0.5c-1.7-0.6-3.2-1-4.6-1.5
				c-12.9-3.8-23.8-10.5-33.6-18.4c-6.1-4.9-12.2-9.7-18.7-14.1c-9.9-6.6-21.4-8.7-33.9-7.2c-0.7,0.1-1.2,0.1-1.9-0.1
				c5.5-1.6,11.3-2,17.1-1.9c13.4,0.3,24.2,5.6,33.7,13c6.6,5.2,13.2,10.6,19.9,15.7c7.4,5.7,15.8,10.3,24.9,13.8
				C331.5,215.3,331.8,215.5,332.1,215.6z"/>
			<path class="st0" d="M235.5,179.4c4.1-1.1,8.3-1.2,12.6-1c10.7,0.8,19.4,5.2,27,11.2c6.1,4.7,11.9,9.5,18.1,14.2
				c6,4.5,12.5,8.2,19.7,11.1c0.5,0.2,0.9,0.4,1.5,0.7c-3.3,1.6-6.5,3-9.7,4.7c-8.6,4.5-15.9,10.4-23.1,16.3
				c-5.5,4.5-11,8.9-17.7,12.2c-8.7,4.1-18,5.1-27.4,3.8c3.9-0.6,8.1-0.9,12.3-1.7c9.2-2,16.1-7,22.7-12.5
				c6.9-5.6,13.5-11.6,22.1-15.5c5.4-2.5,11.1-4.3,16.8-6.5c0.6-0.2,1-0.4,2-0.7c-1.7-0.6-3.2-1-4.5-1.4
				c-12.8-3.5-23.1-10.4-32.7-18.2c-5.2-4.2-10.6-8.2-16.4-11.7c-6.4-3.9-13.8-5.4-21.8-5C236.4,179.5,235.9,179.4,235.5,179.4z"/>
			<path class="st0" d="M293.6,216.8c-11.4,5.2-20,13.2-29.3,20.5c-5.7,4.5-12.2,8.3-20,9.4c-3,0.4-6.1,0.5-9.2,0.4
				c0.3-0.1,0.6-0.3,0.9-0.4c8.7-0.9,15.5-4.8,21.8-9.6c5.6-4.3,11.1-8.8,17.1-12.9C280.3,220.5,286.8,218.4,293.6,216.8z"/>
			<path class="st0" d="M294,214.6c-6.5-1.6-12.9-3.4-18.2-7c-5.4-3.6-10.6-7.6-15.8-11.6c-6.1-4.8-12.3-9.2-20.6-10.9
				c-1.6-0.3-3.3-0.5-5.5-0.9c7.3-0.6,13.7,0.2,19.5,3c4.2,2.1,8.1,4.8,11.8,7.4c7.1,5.1,14,10.5,21.2,15.6
				C288.6,212.1,291.4,213.3,294,214.6z"/>
			<path class="st0" d="M231.9,241.5c8-2,13.6-6.7,19.3-11.3c6.4-5.3,13.5-9.9,22.2-12.4c0.2-0.1,0.6-0.1,0.9,0
				c-8.8,4.8-15.5,11.3-23.2,17c-4.6,3.3-9.7,5.8-15.9,6.5C234,241.4,233,241.4,231.9,241.5z"/>
			<path class="st0" d="M231.7,190.1c8.9-0.1,15.5,3.6,21.8,8.5c6.2,4.8,12.5,9.3,18.8,13.9c0.6,0.4,1.1,0.7,1.7,1.1
				c-5-1.1-9.7-2.9-13.7-5.6c-4.1-2.8-7.9-5.7-11.7-8.8C243.7,195.3,238.6,191.7,231.7,190.1z"/>
			<path class="st0" d="M255.5,212.9c-5.9-1.5-10.5-4.4-14.6-7.7c-4.1-3.2-7.9-6.9-13.2-8.9c0.1-0.2,0.1-0.4,0.2-0.5
				c1.6,0.4,3.5,0.5,4.8,1.2c3.3,1.7,6.6,3.5,9.6,5.6C246.7,205.9,250.9,209.4,255.5,212.9z"/>
			<path class="st0" d="M255.4,218.5c-4.8,3.8-9.5,7.4-14.1,11c-3.6,2.8-7.7,5.1-12.6,5.9c-0.5,0.1-1,0.1-1.6,0
				c6-2.5,10.4-6.7,15.1-10.3C246,222.1,250.2,219.8,255.4,218.5z"/>
			<path class="st0" d="M238,212.4c-7.5-1.8-11.3-7.2-17-10.4C224.6,201.8,229.9,205,238,212.4z"/>
			<path class="st0" d="M221.2,229.5c5.6-3.3,9.5-8.9,16.8-10.4C232.4,222.8,228.6,228.3,221.2,229.5z"/>
			<path class="st0" d="M213.6,223.3c2.3-1.4,4.6-3,6.9-4.4c0.2,0.2,0.3,0.4,0.6,0.6c-2,1.8-4.1,3.6-7.1,4.3
				C213.8,223.7,213.7,223.5,213.6,223.3z"/>
			<path class="st0" d="M220.6,212.4c-2.4-1.5-4.8-3-7.2-4.6c0.1-0.2,0.2-0.3,0.5-0.5c3,0.7,5.2,2.6,7.3,4.4
				C220.9,212,220.8,212.2,220.6,212.4z"/>
		</g>
	</g>
</g>
</svg>
