<?xml version="1.0" encoding="utf-8"?>
<!-- Generator: Adobe Illustrator 24.0.2, SVG Export Plug-In . SVG Version: 6.00 Build 0)  -->
<svg version="1.1" id="Capa_1" xmlns="http://www.w3.org/2000/svg" xmlns:xlink="http://www.w3.org/1999/xlink" x="0px" y="0px"
	 viewBox="0 0 288 288" style="enable-background:new 0 0 288 288;" xml:space="preserve">
<style type="text/css">
	.st0{fill:#2D2D2D;}
	.st1{fill:#002530;}
	.st2{fill:#050523;}
	.st3{fill:#707C84;}
	.st4{fill:#E9E4DE;}
	.st5{fill:#EE3133;}
	.st6{fill:#FD99AF;}
	.st7{fill:#C4C2C0;}
	.st8{fill:#F2D8A3;}
	.st9{fill:#EFCB84;}
	.st10{fill:#EF692F;}
	.st11{fill:#4B343F;}
	.st12{fill:#16B198;}
	.st13{fill:#E72D52;}
	.st14{fill:#7B536F;}
	.st15{fill:#8F4CA9;}
	.st16{fill:#E2C29F;}
	.st17{fill:#9F4687;}
	.st18{fill:#A9A0AF;}
	.st19{fill:#CC4743;}
	.st20{fill:#8677A9;}
	.st21{fill:#8E5D8E;}
	.st22{fill:#DF615C;}
	.st23{fill:#9E4742;}
	.st24{fill:#D34861;}
	.st25{fill:#B75B6D;}
	.st26{fill:#DF6482;}
	.st27{fill:#FFFFFF;}
	.st28{fill:#829CA2;}
	.st29{fill:#F2B991;}
	.st30{fill:#E56759;}
	.st31{fill:#F5F3EE;}
	.st32{fill:#DC4B3F;}
	.st33{fill:#1D5A7D;}
	.st34{fill:#459492;}
	.st35{fill:#F0A349;}
	.st36{fill:#E4EFEB;}
	.st37{fill:#E17467;}
	.st38{fill:#B6BFBD;}
	.st39{fill:#F0E2D6;}
	.st40{fill:#396D89;}
	.st41{fill:#201A21;}
	.st42{fill:#48505D;}
	.st43{fill:#0B0707;}
	.st44{fill:#D30034;}
	.st45{fill:#6C919B;}
	.st46{fill:#F68C4A;}
	.st47{fill:#E5CFCD;}
	.st48{fill:#385B4D;}
	.st49{fill:#F14206;}
	.st50{fill:#BAD2D8;}
	.st51{fill:#F70059;}
	.st52{fill:#AA000C;}
	.st53{fill:#D8B5B2;}
	.st54{fill:#E08143;}
	.st55{fill:#F2E9E9;}
	.st56{fill:#F4D085;}
	.st57{fill:#23586A;}
	.st58{fill:#17241F;}
	.st59{fill:#EAE8E1;}
	.st60{fill:#253C4F;}
	.st61{fill:#F7FCFD;}
	.st62{fill:#0E151F;}
	.st63{fill:#8D897D;}
	.st64{fill:#BDB6AA;}
	.st65{fill:#EDE1AF;}
	.st66{fill:#DF786F;}
	.st67{fill:#E8C46F;}
	.st68{fill:#B0CEAD;}
	.st69{fill:#9FC4AF;}
	.st70{fill:#B8C6A0;}
	.st71{fill:#EBEC80;}
	.st72{fill:#DD7AB2;}
	.st73{fill:#D6D2D3;}
	.st74{fill:#69BCC5;}
	.st75{fill:#D0CBC1;}
	.st76{fill:#242424;}
	.st77{fill:#525252;}
	.st78{fill:#3D3D3D;}
	.st79{fill:#6B6B6B;}
	.st80{fill:#303030;}
	.st81{fill:#8A8A8A;}
	.st82{fill:#282828;}
	.st83{fill:#E6E6E6;}
	.st84{fill:#E8E8E8;}
	.st85{fill:#A9A9A9;}
	.st86{fill:#D9D9D9;}
	.st87{fill:#CACACA;}
	.st88{fill:#9E9E9E;}
	.st89{fill:none;}
	.st90{fill:#4A4744;}
	.st91{fill:#F0BA45;}
	.st92{fill:#F1D34E;}
	.st93{fill:none;stroke:#00A591;stroke-miterlimit:10;}
	.st94{fill:#EEEEEE;}
	.st95{fill:#FBFBFB;}
	.st96{fill:#F8F2DD;}
	.st97{fill:#8DB2A6;}
	.st98{fill:#ED8C58;}
	.st99{fill:#F0C153;}
	.st100{fill:#C2B146;}
	.st101{fill:#8E6E51;}
	.st102{fill:#1C1D4C;}
	.st103{fill:#111224;}
	.st104{fill:#26687B;}
	.st105{fill:#F8494A;}
	.st106{fill:#81819B;}
	.st107{fill:#80809B;}
	.st108{fill:#0AC6BB;}
	.st109{fill:#0BC5B9;}
	.st110{fill:#686888;}
	.st111{fill:#0BC5BA;}
	.st112{fill:#FEFEFE;}
	.st113{fill:#F8F5CE;}
	.st114{fill:#EF484B;}
	.st115{fill:#F94A4A;}
	.st116{fill:#F9F6CE;}
	.st117{fill:#DFE0E3;}
	.st118{fill:#04121D;}
	.st119{fill:#6693AB;}
	.st120{fill:#89BCD7;}
	.st121{fill:#FAF509;}
	.st122{fill:#0B2E41;}
	.st123{fill:#427491;}
	.st124{fill:#2A5973;}
	.st125{fill:#184259;}
	.st126{fill:#BCE4F7;}
	.st127{fill:#02111C;}
	.st128{fill:#FCF704;}
	.st129{fill:#F4F115;}
	.st130{fill:#DFE23F;}
	.st131{fill:#BCE6FA;}
	.st132{fill:#031D2B;}
	.st133{fill:#81851A;}
	.st134{fill:#1E1E1E;}
	.st135{fill:#F5142E;}
	.st136{fill:#05ACC0;}
	.st137{fill:#F87240;}
	.st138{fill:#FA723F;}
	.st139{fill:#F67240;}
	.st140{fill:#E37547;}
	.st141{fill:#07ADC0;}
	.st142{fill:#450D0D;}
	.st143{fill:#F57240;}
	.st144{fill:#440D0D;}
	.st145{fill:#470D0D;}
	.st146{fill:#EBECCC;}
	.st147{fill:#E9EACA;}
	.st148{fill:#00ABBF;}
	.st149{fill:#F6FAD9;}
	.st150{fill:#CBC3AC;}
	.st151{fill:#E2615D;}
	.st152{fill:#FAFAF8;}
	.st153{fill:#E8E4DA;}
	.st154{fill:#123057;}
	.st155{fill:#F4D16B;}
	.st156{fill:none;stroke:#F1D34E;stroke-miterlimit:10;}
	.st157{fill:#E3834C;}
	.st158{fill:#E9A779;}
	.st159{fill:#ECB74A;}
	.st160{fill:#00A591;}
</style>
<path class="st27" d="M4.9,112.5c0,0.1,0,0.2,0.1,0.4V112C5,112.1,4.9,112.3,4.9,112.5z"/>
<path class="st27" d="M4.6,272.3c-0.4,3.9-0.1,7.9-0.1,12.3c0.2,0,0.4-0.1,0.5-0.1v-13.2C4.8,271.6,4.6,272,4.6,272.3z"/>
<path class="st27" d="M5,262.5v-7.8C3.8,256.2,4.1,258.4,5,262.5z"/>
<path class="st27" d="M5,246.6v-6C4.2,242.2,4.2,244.1,5,246.6z"/>
<path class="st27" d="M5,127v-5.5C4.3,123.9,4.2,125.7,5,127z"/>
<path class="st27" d="M5,232.4C5,232.4,5,232.4,5,232.4l0-6C4,228.1,4.5,230.1,5,232.4z"/>
<path class="st27" d="M4.2,217c0.3,0.4,0.6,0.9,0.8,1.3v-1.7C4.7,216.7,4.4,216.9,4.2,217z"/>
<path class="st27" d="M4.8,135.3c0,0.1,0.1,0.2,0.2,0.3v-0.3C4.9,135.3,4.9,135.3,4.8,135.3z"/>
<path class="st27" d="M5,67.9V53.2C4.3,57.9,4.3,62.8,5,67.9z"/>
<path class="st27" d="M5,193.3V190C4.8,191.2,4.8,192.3,5,193.3z"/>
<path class="st27" d="M5,32.3v-6.6C4.5,27.6,4.5,29.8,5,32.3z"/>
<path class="st27" d="M4.8,143.7c0,2.7,0,4.8,0,7.8c0.1,0,0.2-0.1,0.2-0.1v-7.7C4.9,143.7,4.8,143.7,4.8,143.7z"/>
<path class="st27" d="M4.8,3.5c0,3.5,0,6.2,0,10.3c0.1,0,0.1-0.1,0.2-0.1V3.6C4.9,3.5,4.9,3.5,4.8,3.5z"/>
<path class="st156" d="M158.5,289.3c-1.7-0.7-4.1-1.1-7.6-1.7c-0.1,0.3-0.4,0.7-0.3,1c0-0.3,0.2-0.7,0.3-1
	C154.4,288.2,156.8,288.6,158.5,289.3z"/>
<path d="M25.7-0.3C18.3,5.4,15,5.6,6.8-0.4C5.9-1,5.4-2.2,5-3.6v7.2c3,1.2,5.7,2.2,9.7,3.8c-3.6,2.4-6.2,4.1-9.7,6.4v12.1
	C6,22,9.1,19.2,15,16c-3.4,6.3-6.5,11.9-9.7,17.8c-0.1-0.5-0.2-1.1-0.3-1.6v20.9c2.2-15.6,11.1-28.9,20.4-42.1
	C15,29.3,8.7,48.8,5.2,69.3c-0.1-0.5-0.1-0.9-0.2-1.4V112c0.7-3.4,2.7-5.8,7.2-5.9c13.4-0.5,26.8-1.1,40.1-2.8
	c21.3-2.7,41.6-9.3,60.8-18.8c0.9-0.5,1.9-0.8,3.5-1.4c-4.2,12.2-12,19.3-23.3,24c-27,11.2-54.4,15-83.1,8.8
	c-1.8-0.4-4.7-2.1-5.3-3.1v8.7c0.1-0.2,0.1-0.4,0.2-0.6c33.8,7.3,66.3,3.7,97.4-12.2c-4.8,7.1-9.4,14.4-18,16.7
	c-24.5,6.5-49.4,6.8-74.4,3.9c-2.7-0.3-4.4-1.1-5.2-2.3v8.3c21.4,0,42.5,0,62.6,0C55,143.2,9.7,143.7,5,135.6v8.2
	c4.4,0.7,8.5,1.4,12.5,2.1c0,0.4,0,0.8,0.1,1.2c-3.9,1.4-7.9,2.8-12.6,4.4V190c1.5-12.1,16.9-38,24-38.8c-8,14-16.1,28.2-24,42
	c0,0,0,0,0,0v23.3c11.7-5.9,23.5-11.6,35-17.9c11.8-6.6,23.3-13.9,36.3-20.2c-1.3,2.6-2,6.1-4.1,7.5C52,200.1,29.9,210.2,6.8,218.5
	c-0.5,0.2-1,0.1-1.6,0.2c-0.1-0.1-0.2-0.3-0.2-0.4v8.1c0.5-0.9,1.4-1.6,3-2.2c22.3-8.3,43.6-18.7,63.3-32.1c0.7-0.5,1.6-0.7,2.6-1.1
	c0.3,5.8-1.1,9.7-6.4,12.9C48.8,215,29.4,224.6,8.7,231.5c-1.2,0.4-2.4,0.6-3.7,0.9v8.3c0.9-1.6,2.7-2.8,5.5-3.8
	c20.1-6.9,39-16.2,56.8-27.8c1.3-0.9,2.8-1.6,4.6-2.7c0.1,7.5-0.8,13.1-7.9,17.1c-17.4,9.7-35.5,17.8-54.7,23
	c-1.4,0.4-2.8,0.5-4.1,0.8c-0.1-0.2-0.1-0.4-0.2-0.6v8.1c1-1.3,3.1-2,6.8-3.2c18.2-5.6,35.4-13.1,51.6-23c1.5-0.9,3.1-1.7,5.6-3.1
	c-0.7,8.9-2.5,15.1-10.7,19.2c-16.6,8.3-41.2,17.7-53.1,18.8c-0.1-0.3-0.1-0.6-0.2-0.9v8.7c0.6-0.9,1.6-1.9,2.5-2.1
	c19.1-5,37.4-11.8,54.5-21.9c0.2-0.1,0.7,0,1.8,0.1c-2.5,7.1-3.6,14.3-11.2,18.5c-14.8,8.2-30,15.3-47.6,18.6v7.3
	c15.6-6,30.7-11.9,44.9-17.4c-8.3,18.7-26.6,20.1-44.9,22.8v8.2c1.1-3.3,2.8-3.5,14.3-3.9c-4.5,1.6-8.9,3.2-14.3,5.2v0.4h21
	c0.7-1,1.4-1.9,2.2-2.8c0.6,0.2,1.3,0.5,1.9,0.7c-0.2,0.7-0.5,1.4-0.7,2.1h11.7c2.5-4.1,4.9-8.3,7.4-12.4c0.5,0.3,1,0.6,1.4,0.9
	c-2.4,3.8-4.8,7.7-7.2,11.5h5.5c0.7-0.9,1.3-1.8,2-2.7c0,0.6-0.2,1.6-0.7,2.7h14.7c0,0,0.1-0.1,0.1-0.1c0,0,0,0.1,0.1,0.1h6.4
	c-4-5.9-6.5-11.2-6.2-14.6c3.3,5.1,6.9,10,10.5,14.6H82c-6.3-7.4-11.8-15.4-16.3-24.2c6.7,8.1,13.4,16.2,20.1,24.2H106
	c-3.9-17.3-7.8-34.7-11.8-52.2c3.8,0.9,6.3,3.1,7,7.6c2.4,14.9,4.9,29.7,7.4,44.6h6.3c-0.2-1.2-0.3-2.4-0.5-3.6
	c-2.1-13.9-5.2-27.7-7.8-41.5c0.5-0.4,0.9-0.9,1.4-1.3c1.9,2.5,5,4.7,5.7,7.4c3.3,12.9,5.4,25.9,6.5,39h5.2
	c-1.2-11.6-3.1-23-5.8-34.5c-0.1-0.5,0.1-1.1,0.1-2.2c5.6,2.2,8.6,5.3,9.8,11.2c1.6,8.5,2.8,17,3.6,25.5h5.3
	c-1-8.4-2.4-16.8-4.2-25.2c-0.1-0.7,0-1.4,0-2.3c7.2,2,11.9,5,13.1,13.4c0.7,4.7,1.2,9.4,1.6,14.1h4.7c-0.6-5.2-1.4-10.5-2.4-15.7
	c-0.2-0.9-0.4-1.8-0.4-2.7c0-0.3,0.2-0.7,0.3-1c3.4,0.6,5.8,1,7.6,1.7c2.9,1.2,3.9,3,4.8,7.4c0.3,1.3,0.5,2.8,0.8,4.6
	c0.3,1.9,0.5,3.8,0.8,5.7h4.7c-0.1-1.1-0.3-2.1-0.4-3.2c-0.2-1.4,0.4-3,0.7-4.5c1.6,0.5,3.3,0.9,4.7,1.7c2.8,1.6,4.6,3.6,5.8,6h26.2
	c-4.1-6.3-4.7-13.3-1.9-21.6c1.3,1.6,2.3,2.9,3.3,4.3c4.4,6.1,9.1,11.9,14.1,17.4h6.4c-6.6-6.6-12.7-13.7-18.3-21.3
	c-5.5-7.5-5.8-10.6-1.4-19.8c5.2,7,10.2,14,15.5,20.7c5.8,7.3,12,14.1,18.6,20.5h7.7c-4.4-3.8-8.6-7.9-12.6-12.2
	c-8.7-9.4-16.6-19.7-24.4-29.9c-5-6.4-4.5-7.7,1.8-14.4c0.9,1.1,1.8,2.1,2.5,3.3c12.5,19.9,27.5,37.5,44.8,53.1h8.2
	c-7-6.4-14.3-12.6-20.6-19.7c-10.2-11.6-19.3-24-29-36.1c-3.2-3.9-4-7.7,0.2-12.3c4.8,6.9,8.8,13.9,14,20
	c10.9,12.9,22.4,25.3,33.5,38.1c2.4,2.9,3.9,6.6,5.8,9.9H285c6.4-21.2,9.1-42.7,5.9-64.9c-0.1-0.7-0.1-1.5-0.1-2.2
	c0-0.3,0.4-0.5,1-1.4c1,2,2.4,3.6,2.6,5.4c3.2,21.7,1.3,42.7-4.8,63.1h5.6c2.1-7.5,3.7-15.2,4.8-23.2c0.3,1.4,0.6,2.8,0.8,4.3V178.5
	c-0.8,1.3-1.6,2.7-2.6,3c-20.7,4.4-41.3,5.4-62-0.4c21.6,3.3,42.8,0.8,63.7-4.7c0.3,0.2,0.6,0.5,0.9,0.7v-8
	c-0.4,1.1-1.4,1.9-3.3,2.4c-23.1,6.2-46.3,8-69.8,2.5c-2.6-0.6-4.9-2.6-7.3-3.9c0.3-0.5,0.5-1,0.8-1.6c26.6,5.8,52.9,4.2,79-3.3
	c0.2,0.6,0.4,1.1,0.5,1.5v-9.1c-14.7,11.4-81.4,12-88.3,1.7c10.6,1.2,21,3.8,31.3,3.4c15.5-0.6,30.9-3.4,46.4-5.1
	c3.1-0.3,6.2-0.1,10.6-0.1v-5.4c-0.3,0.2-0.6,0.4-0.9,0.6c-1.5-1-3.6-1.7-4.5-3.1c-16.7-23.9-37-44.2-61.1-61.5
	c7.4-6.3,7.5-6.4,14.2-1.3c20.6,15.7,37.3,34.9,50.8,56.9c0.9,1.4,1.2,3.2,1.6,5v-16.4c-0.1,0.9-0.1,1.8-0.2,2.7
	c-15.1-21.3-32.2-39-52.8-53.7c9.5-4.3,16.6-2,22.8,4.5c8.3,8.8,16.5,17.7,25.1,26.2c3.2,3.2,4.6,6.6,5.1,10.4v-14.5
	c0,0.1,0,0.1,0,0.2c-9.5-10.2-19.3-20.6-28.3-30.2C284,75.3,297.5,82.5,301,95V24.3c-0.4,1.4-0.7,2.9-1.5,3.2
	c-6.6,2.9-13.4,5.3-21.4,8.3c4.9-10.7,15-9.4,22-13.6c0.3,0.2,0.6,0.4,1,0.6v-6.5c-0.6,1.5-2.2,2.5-4.6,3.2c-4.1,1.2-8.1,3-12.4,4.6
	c1.1-8.6,4.6-11.1,16.5-12.5c0.2,0.5,0.4,0.9,0.5,1.3V5.3c-0.8,2.2-4.1,3.1-12.9,5.5c0.6-8.7,1.4-9.4,12.3-11.3
	c0.3,1,0.5,1.9,0.6,2.7v-9c-0.6,2.4-2.8,2.9-9.1,4.3c-0.6-7.3,0.4-8.9,7.8-10.6h-13.2c-0.9,3.5-2.7,6.1-6.2,7.7
	c-27.2,12.5-55.6,21-85.4,24.4c-0.3,0-0.7-0.2-1.9-1.5c3.4-2,6.5-5.1,10.1-5.9C229.2,6,254.7-1.5,278.9-13h-11.4
	c-18.1,7.3-36.9,12.6-56.1,16.6c-0.3,0.1-0.7-0.2-2-0.6c2.2-1.3,3.6-2.7,5.4-3.2c12.8-3.8,25.4-8,37.8-12.9h-17.6
	c-2.3,0.9-4.6,1.8-6.8,2.7c-0.6,0.2-1.3,0.3-2.2-0.3c1.7-0.8,3.4-1.6,5.1-2.4h-17.5c-2.1,3.1-4.2,6.2-6.3,9.3c1.3-3.2,2.6-6.3,4-9.3
	h-6.7c-2.3,5.1-4.5,10.3-6.5,15.6c-1.3,3.5-3.9,6.6-6,9.9c-0.6-0.4-1.2-0.8-1.9-1.2c2.7-8.4,5.8-16.5,9.5-24.2H193
	c-4.2,9.5-7.6,19.4-10.4,29.6c-1,3.6-3.4,6.7-5.2,10.1c-0.8-0.3-1.6-0.7-2.3-1c2.2-7.6,4-15.4,6.6-22.9c1.8-5.4,3.9-10.7,6.3-15.8
	h-6.2c-6.3,13.8-10.5,28.4-13.1,43.6c-0.6,3.6-3.1,6.8-4.7,10.2c-0.9-0.3-1.7-0.5-2.6-0.8c1.2-7.1,2-14.2,3.6-21.2
	c2.4-11.1,5.8-21.8,10.3-31.9h-5.8c-0.6,1.3-1.2,2.5-1.8,3.8c-7.7,17.3-10.7,35.8-12.4,54.6c-0.3,3.2-2.5,6.1-4.5,9
	c-3.8-15.5,3.6-44.5,14-67.3h-5.7c-2.9,6-5.5,12.3-7.6,18.7c-5.5,16.6-8.5,33.5-7.4,50.9c0.3,5.1-2.1,8.1-5.9,11.3
	c-4.2-14.6-3.4-28.7-0.1-42.7c2.3-9.5,4.7-18.9,7.3-28.3c1-3.6,2.4-6.9,4-10H132c-3.7,2.6-7.3,5.3-11,7.9c-0.3-0.4-0.6-0.8-0.9-1.2
	c3-2.2,5.9-4.5,8.9-6.7h-17.7C102.4-2.7,93.7,7.3,85.1,17.3C86.4,7.4,96.9-6.5,105.6-13h-9C86.8,1.7,76.9,16.3,67,31
	c7.3-16.1,15.9-31.3,28.2-44H88C72.6,4.6,62.4,25.4,52.9,46.6c-0.5-0.2-1-0.4-1.4-0.6c1.9-5.2,3.8-10.5,5.8-15.7
	c6-14.9,13.4-29,24-41.2c0.7-0.8,1.5-1.4,2.4-2.1h-41c1.6,0.7,3.1,1.4,4.7,2c0.1,0.5,0.1,1,0.2,1.5c-2.5,0-5.4,0.8-7.4-0.1
	c-2.5-1.1-5-2.3-7.6-3.4H21.7c4.7,2.2,9.4,4.5,14.3,6.8c-3.2,2.9-6.1,3.7-10,1.6C20.2-7.7,14.1-10.1,8.3-13H5v3.9
	c0.1,0,0.2-0.1,0.3-0.1C11.9-6.4,18.6-3.5,25.7-0.3z M5.4,172.1c0.1-8,5.4-12.8,10.1-18c0.4,0.3,0.8,0.5,1.2,0.8
	C12.9,160.6,9.2,166.4,5.4,172.1z M268.7,262.8c-1.3-16.2-2.8-33.8-4.1-50.4C268.8,217.1,271.8,252.4,268.7,262.8z M275.1,281.4
	c-0.1,0.5-0.5,0.9-1.5,2.4c0-22.4,0-43.7,0-66.1c1.1,2.6,2.4,4.6,2.8,6.7C279.7,243.5,278.6,262.5,275.1,281.4z M278.6,304
	c0-3.4-0.4-6.8,0.1-10.1c1.3-9.5,3.6-18.8,4.3-28.3c0.8-9.5,0.2-19,0.2-29.4C289.2,251.3,287.1,288.1,278.6,304z M300.6,187.9
	c-4.4,8.7-38.5,9.9-49.7,2.1C266.6,189.4,283.6,188.6,300.6,187.9z M262.2,244c-0.7,0.2-1.3,0.3-2,0.5c-3-13.8-5.9-27.7-8.9-41.5
	c0.4-0.3,0.8-0.6,1.1-0.9c1.6,2,3.9,3.8,4.7,6.2C261,219.9,262.7,231.8,262.2,244z M233.2,190.4c3.1,6.9,6.2,13.7,9.3,20.6
	c-0.4,0.2-0.7,0.3-1.1,0.5c-3.3-6.8-6.6-13.5-9.9-20.3C232,191,232.6,190.7,233.2,190.4z M230,200.2c8.9,15.3,17.7,30.7,26.6,46
	c-0.5,0.3-1.1,0.6-1.6,0.9c-10.2-14.6-19.4-29.8-26.5-46.1C229,200.8,229.5,200.5,230,200.2z M263.2,268.9c-0.6,0.4-1.2,0.8-1.8,1.2
	c-11.3-16.4-22.8-32.7-33.8-49.4c-1.7-2.6-1.2-6.8-1.9-11.7C238.9,230,251,249.4,263.2,268.9z M224.8,227.3
	c14.6,19.9,29.3,39.9,43.9,59.8c-0.1,0.2-0.3,0.4-0.4,0.6c-0.9-0.6-1.9-1.2-2.7-1.9c-15-14.9-28.7-31-40.1-48.9
	C223.3,233.4,222.8,230.4,224.8,227.3z M111.9,80.5c-30.3,13.5-61.8,20-94.8,19.7c-0.9,0-1.7-0.3-3.2-0.5c2.8-4.7,5.2-8.1,11.2-8.5
	c33.9-2.1,65.7-11.7,95.5-28.1c0.5-0.3,1-0.6,1.5-0.7c0.3-0.1,0.7,0.1,1.4,0.2C122.2,70.2,120.6,76.6,111.9,80.5z M26.2,84.8
	c2.3-4.1,4.6-6.7,9.2-7.5c31-5.6,60.3-16.2,87.7-32c1.2-0.7,2.5-1.2,4.2-1.9c0,7.5-1.5,12.8-8.8,16.4C90.4,74,60.6,82.2,29.4,85.1
	C28.5,85.1,27.7,84.9,26.2,84.8z M124.5,86.9c0,4.8,0,9.6,0,14.4c-0.2,0-0.5,0.1-0.7,0.1c-0.4-4.8-0.9-9.6-1.3-14.3
	C123.1,87,123.8,86.9,124.5,86.9z M118.2,99.5c3.5,14.3,7,28.4,10.5,42.5C118.8,133.6,112.6,105.6,118.2,99.5z M110,112.3
	c2.9,9.1,5.5,18.3,8.9,27.2c3.4,8.8,7.7,17.4,11.6,26c-10.7-16.1-18.4-33.6-21.9-52.6C109.1,112.7,109.5,112.5,110,112.3z
	 M129.7,87.8c0.5,0,1.1-0.1,1.6-0.1c0,5.7,0,11.5,0,17.2c-0.2,0-0.3,0-0.5,0C130.4,99.2,130,93.5,129.7,87.8z M103.6,122.4
	c0.6-0.1,1.3-0.2,1.9-0.2c5.3,23.3,17,43.8,28.2,64.5c-14.1-17.3-24.9-36.4-30.6-58.1C102.7,126.7,103.5,124.5,103.6,122.4z
	 M137.1,202.6c1,1.8,1.1,4.1,1.6,6.2c-19.7-19.8-33-42.9-40.2-71C111.8,160.2,124.5,181.4,137.1,202.6z M95.7,146.6
	c0.9,2.9,1.7,5.8,2.6,8.7c7.8,24.6,22.3,44.9,39.9,63.3c2.5,2.6,3.8,6.2,5.7,9.3c-0.6,0.5-1.2,0.9-1.8,1.4c-3.3-3.2-6.6-6.3-9.7-9.7
	c-17.3-18.3-30.2-39.2-37.6-63.3c-0.9-3-0.7-6.3-1-9.4C94.4,146.8,95.1,146.7,95.7,146.6z M149.6,218.2c13.7-28.8,22.2-59,25.2-90.8
	c0.1-0.7,0.3-1.3,0.7-3.2c4.5,5.9,9.5,10,8.2,17.8c-4.8,30.3-15.1,58.6-31,84.8c-0.6,1-1.5,1.9-2.3,2.9c-0.6-0.1-1.2-0.2-1.8-0.3
	C148.9,225.6,148.1,221.4,149.6,218.2z M180.4,119c0.4-0.5,0.8-1.1,1.1-1.6c13.1,6.3,28.6,5.5,42.5,14.4c-14.4-1-26.9-3.2-38.6-8.4
	C183.5,122.5,182,120.5,180.4,119z M155.8,233.2c16.7-26.5,27.1-55.4,31.5-86.4c0.2-1.4,0.6-2.7,1.1-4.8c5.8,6.4,10.1,11.7,8,21.1
	c-7,30.7-20,58.3-38.9,83.3c-0.4,0.6-1,1-1.8,2C152.3,242.9,152.4,238.5,155.8,233.2z M192.1,132c16.7,2.5,33.4,5,50,7.6
	C225.1,139.8,208.3,138.2,192.1,132z M260,146.6c0,0.2,0.1,0.4,0.1,0.5c-7.6,0.4-15.2,1.5-22.7,1.1c-10.3-0.5-20.5-1.8-30.7-3.1
	c-2.5-0.3-4.7-2.1-8-3.6C220.1,143.3,240,144.9,260,146.6z M210.6,95.3c3.3,0.2,6.3-0.5,8,0.6c18,12.6,33.5,28,47.7,44.5
	c-0.3,0.3-0.7,0.7-1,1C247.5,126.4,229.6,111.4,210.6,95.3z M248.6,132.9c-0.4,0.6-0.9,1.2-1.3,1.8c-16.7-12.2-33.3-24.3-51.6-37.6
	c4.1,0.6,7.5,0.2,9.5,1.6C219.8,109.9,234.1,121.5,248.6,132.9z M225.4,124.3c-0.3,0.5-0.7,1.1-1,1.6c-14.5-9.6-29.1-19.2-43.6-28.9
	c0.3-0.5,0.6-1,0.9-1.5C197.3,103.4,211.4,113.6,225.4,124.3z M190.5,108.3c-0.2,0.4-0.4,0.8-0.6,1.1c-6.7-3.5-13.5-7.1-20.2-10.6
	c0.3-0.6,0.6-1.1,1-1.7C177.3,100.9,183.9,104.6,190.5,108.3z M170.6,126c-3.7,28.5-10.9,55.9-23.1,81.9c-0.4,0.9-1.1,1.8-3,2.5
	c0-4-1.1-8.4,0.2-12c9.5-26.8,16.7-54.1,19.1-82.5c0-0.5,0.3-1,0.6-2C169.3,116.9,171.3,120.4,170.6,126z M140.6,188.6
	c-0.1-1.7-0.7-3.6-0.3-5.1c7.3-25.9,11.9-52.2,13.8-79c0.6-0.2,1.2-0.4,1.8-0.6c1.2,2.4,3.6,4.9,3.5,7.3
	C157.8,138,150.7,163.6,140.6,188.6z M90.7,161.5c0.5,1,1.2,2,1.5,3c9.9,28.8,26.8,52.5,49.9,72.2c3.1,2.6,4.9,6.7,7.3,10.1
	c-0.6,0.5-1.3,1.1-1.9,1.6c-12.2-8.6-22.8-19-32.2-30.5c-11.1-13.5-19.9-28.3-25-45.1c-1.1-3.5-0.9-7.3-1.3-11
	C89.6,161.7,90.1,161.6,90.7,161.5z M88.4,183.3c11.7,30.6,33,53.5,59.3,72.1c3.8,2.7,5.6,5.8,5.9,11.4
	c-32.7-21-55.8-48.2-66.5-85.3C87.6,182,88.2,182.6,88.4,183.3z M80.9,141.4c0.5,0.5,0.9,1.1,1.4,1.6c-6.9,5.6-13.9,11.1-20.8,16.7
	c-0.3-0.3-0.7-0.7-1-1C67.3,152.9,74.1,147.1,80.9,141.4z M80.1,154.1c-14.7,13-31.2,23.3-48.1,33.1c-0.4-0.5-0.8-1.1-1.1-1.6
	c16-11,32.1-22,48.1-33C79.4,153.1,79.8,153.6,80.1,154.1z M55.2,148.1c-9,11.6-17.8,23-26.6,34.3c-0.4-0.3-0.8-0.6-1.2-0.9
	C29.3,169,46.8,147.4,55.2,148.1z M40.1,148.4c-9.6,16.1-19.3,32.2-29.5,49.5C17.9,178.8,27.1,162.4,40.1,148.4z M73.5,172.3
	c-18.9,11-38,21.4-57.1,32.1c-0.6,0.3-1.3,0.4-2,0.6c-0.1-0.2-0.3-0.3-0.4-0.5c21.1-13.4,42.2-26.9,63.2-40.3
	c0.4,0.1,0.7,0.2,1.1,0.3C76.8,167.1,75.9,170.9,73.5,172.3z M76,243c2.8,8.2,5.6,16.4,8.4,24.7c-0.5,0.1-0.9,0.3-1.4,0.4
	c-3-8.1-6-16.3-9-24.4C74.7,243.4,75.3,243.2,76,243z M69.2,266.2c8.5,13.4,16.7,26.2,24.9,39.1C82.6,301.5,66.2,274.6,69.2,266.2z
	 M100.1,303.6c-0.6,0.2-1.3,0.3-1.9,0.5c-4.7-18.1-9.4-36.3-14.1-54.4c0.6-0.2,1.2-0.3,1.9-0.5C92.8,266.7,97,285,100.1,303.6z
	 M96.1,232.5c-6-10.4-9-21.4-8.9-33.6c0.9,1.9,1.9,3.8,2.8,5.7c13.9,29.1,35,51.5,62.7,67.8c2.5,1.5,4.2,4.2,6.3,6.3
	C134.1,268.2,110.2,257,96.1,232.5z M160.9,265.3c-3.6-5.5-3.3-9.7,0.7-15c19.8-26,33.1-54.9,38.8-87.2c0.2-1.4,0.8-2.7,1.3-4.6
	c5.6,5.1,9.5,10.2,8.4,17.9c-4.9,35.2-19.5,65.2-47.6,87.9C162.2,264.7,161.7,264.9,160.9,265.3z M172.7,282.8
	c12.2-14.8,25-30.2,37.1-44.8C207.9,252.9,187.3,278.1,172.7,282.8z M213.7,185.6c0.1-0.7,0.4-1.3,0.6-2c3.9,9.4,6.8,18.6,1.9,28.9
	c-12.2,25.6-28.6,47.8-49.7,66.7c-4.6-5.4-4.6-6.4,0.3-10.6C192.3,246.5,208.9,219.4,213.7,185.6z M207.5,150.4
	c5.2,0.8,10.4,2.4,15.6,2.4c16.3-0.1,32.6-0.9,48.9-1.4c3.1-0.1,6.2,0.4,9.2,1.2C265.4,159.2,222.6,158.7,207.5,150.4z M234.5,93.2
	c18.6,14.6,35.3,31,49.4,50c1,1.3,1.8,2.7,2.7,4c-0.3,0.4-0.6,0.9-0.9,1.3c-3-1.6-6.9-2.6-9-5c-16-18.3-33.3-35.2-53-49.5
	c-0.3-0.2-0.3-0.6-0.5-1.1C227,89.6,230.3,90,234.5,93.2z M266.4,64.4c-0.2-0.5-0.5-1-0.7-1.4c11.1-5.5,22.2-11.1,33.4-16.6
	c0.3,0.5,0.5,1,0.8,1.5C288.7,53.4,277.5,58.9,266.4,64.4z M283.5,71c5.6-5.6,11.4-11.5,17-17.1C300.3,59.5,288.9,70.9,283.5,71z
	 M268.6,57.1c-0.3-0.2-0.5-0.4-0.8-0.6c0.8-1.3,1.2-3.2,2.4-3.8c9.9-4.6,19.8-8.9,29.8-13.4c0.3,0.6,0.6,1.2,0.8,1.8
	C290,46.5,279.3,51.8,268.6,57.1z M300.9,31.1c-0.9,4.2-12,9.8-26.5,13.7C281,36.3,291.6,36,300.9,31.1z M188.5,26.1
	c30.5-3.4,59.6-11.5,87.4-24.4c0.8-0.4,1.7-0.6,3.7-1.4c-3,7-3.7,13.3-11.8,16.4c-27.9,10.6-56.6,16.1-86.3,16.5
	c-0.5,0-1-0.2-1.6-0.3c-0.3-0.6-0.6-1.2-1-1.8C182.1,29.4,185.1,26.5,188.5,26.1z M177.6,39.1c30.4,0.5,59.6-5.7,87.8-16.9
	c2-0.8,4.1-1.7,6.6-2.7c-0.2,9.6-4.2,14.5-13.1,17.4c-28.6,9.5-57.8,12.5-87.7,10.8c-0.9-0.1-1.8-0.2-2.7-0.4
	c-0.7-0.1-1.4-0.4-2.4-0.7C168.7,42.1,171.4,39,177.6,39.1z M166.9,53.1c32.9,2.9,65-1.3,95.9-13.2c0.9-0.3,1.7-0.6,2.6-0.8
	c0.3-0.1,0.7,0.1,1.5,0.2c-1.7,7-3.5,12.9-11.5,16.2c-31.3,13.1-63.1,16.8-95.9,6.8c-1.7-0.5-3.4-1.1-5.6-1.9
	C156.9,54.6,160.3,52.5,166.9,53.1z M154.2,66.7c31.8,10,63.4,9.3,94.5-3.3c1.3-0.5,2.7-0.8,4.8-1.5c-8.4,13.5-21.2,16.6-34.7,17.7
	c-24,2-47.8-0.5-71.1-6.7c-1-0.3-2-0.7-3.2-1.2C146.4,67.1,148.7,65,154.2,66.7z M187.6,85.8c-16.2,6-29.8,0-43.2-7.1
	C158.6,81,172.8,83.4,187.6,85.8z M144,95.3c0-0.3,0.3-0.6,0.7-1.2c4.1,2.3,5.5,5.5,4.8,9.8c-3.4,21.5-6.6,43.1-9.9,64.6
	c-0.8,0-1.5-0.1-2.3-0.1c-0.1-1.9-0.7-4-0.3-5.8C141.6,140.4,143.7,117.9,144,95.3z M136.6,90.1c0.1-1.4,0.4-2.7,0.6-4
	c0.7,0.1,1.3,0.1,2,0.2c1,19.3-1.5,38.4-5.4,57.5c0-4.5-0.2-9.1,0-13.6C134.6,116.8,135.6,103.4,136.6,90.1z M137.1-10
	c0.3,0.1,0.5,0.3,0.8,0.4c-0.7,1.2-1.2,2.8-2.2,3.4c-15.2,9.2-30.5,18.3-45.8,27.3c-0.4,0.2-1,0-1.5,0c-0.2-0.3-0.4-0.7-0.6-1
	C104.1,10.1,120.6,0.1,137.1-10z M134,1.9c-0.3,3.8-1.9,7.1-6,9.4C109.5,21.9,90.4,31.2,70,38C91.4,25.9,112.7,13.9,134,1.9z
	 M131.1,16.5c-1.9,3.2-2.8,6.7-5,8c-22.1,13-45.8,22.4-71.2,28.1C79.8,40.8,104.7,29,131.1,16.5z M125.3,30.2c0.7-0.4,1.6-0.6,2.6-1
	c1.2,5.1,0.2,8.5-4.7,11C98,53.8,71.5,63.9,43.4,69.7c-1.2,0.2-2.5,0.3-3.7,0.4c-0.3-0.4-0.6-0.9-0.9-1.3c3.1-2.2,5.9-5.5,9.3-6.5
	C74.9,54.1,101.1,44.6,125.3,30.2z M75.1-11.1c-1.7,2.3-3.4,4.5-5.2,6.8C56.6,13.3,48.8,33.4,42.3,54.3c-1,3.3-3.3,6.2-5,9.3
	c-0.6-0.3-1.2-0.6-1.8-0.9c6.6-28,18.2-53.4,37.8-74.7C74-11.7,74.5-11.4,75.1-11.1z M62.9-7.4c-11.7,14-20.4,28.5-25.8,44.6
	c-3.5,10.6-5.8,21.6-8.8,32.4c-0.9,3.1-2.7,6-4.8,10.3C18.7,58.9,46.8-3.4,62.9-7.4z M34.2,9.1c2.6-3.8,6.7-6.6,10.1-9.9
	c0.3,0.4,0.7,0.8,1,1.1c-4.8,8.6-10,17-14.4,25.8c-9.1,18.2-13.5,37.6-15.3,57.8c-0.3,3.5-2.9,6.8-4.4,10.2
	c-0.9-0.3-1.9-0.6-2.8-0.9c1.7-11.5,2.8-23.1,5.1-34.5C17.1,40.8,23.8,24.1,34.2,9.1z"/>
<path class="st27" d="M210.3,176.4c1.1-7.6-2.8-12.8-8.4-17.9c-0.6,1.9-1.1,3.2-1.3,4.6c-5.7,32.3-19.1,61.3-38.8,87.2
	c-4,5.3-4.4,9.4-0.7,15c0.8-0.5,1.3-0.7,1.8-1C190.7,241.7,205.3,211.7,210.3,176.4z"/>
<path class="st27" d="M255.3,55.5c8-3.3,9.9-9.2,11.5-16.2c-0.8-0.1-1.2-0.3-1.5-0.2c-0.9,0.2-1.8,0.5-2.6,0.8
	c-30.9,11.9-63,16.1-95.9,13.2c-6.5-0.6-10,1.5-13,7.3c2.2,0.7,3.8,1.4,5.6,1.9C192.3,72.3,224,68.6,255.3,55.5z"/>
<path class="st27" d="M10.3,115.9c28.6,6.2,56.1,2.4,83.1-8.8c11.3-4.7,19.1-11.8,23.3-24c-1.5,0.6-2.5,0.9-3.5,1.4
	c-19.3,9.5-39.5,16.1-60.8,18.8c-13.3,1.7-26.7,2.3-40.1,2.8c-4.6,0.2-6.5,2.5-7.2,5.9v0.9C5.6,113.8,8.5,115.6,10.3,115.9z"/>
<path class="st27" d="M204.6,285.4c-2.7,8.4-2.1,15.4,1.9,21.6H222c-5-5.5-9.7-11.2-14.1-17.4C206.9,288.3,205.9,287,204.6,285.4z"
	/>
<path class="st27" d="M123.6,62.6c-0.7-0.1-1.1-0.3-1.4-0.2c-0.5,0.2-1,0.5-1.5,0.7c-29.8,16.4-61.6,26-95.5,28.1
	c-6,0.4-8.4,3.8-11.2,8.5c1.4,0.2,2.3,0.5,3.2,0.5c33,0.3,64.5-6.2,94.8-19.7C120.6,76.6,122.2,70.2,123.6,62.6z"/>
<path class="st27" d="M163.3,296.7c-0.9-4.4-1.9-6.3-4.8-7.4c-1.7-0.7-4.1-1.1-7.6-1.7c-0.1,0.3-0.4,0.7-0.3,1
	c0.1,0.9,0.3,1.8,0.4,2.7c1,5.2,1.8,10.5,2.4,15.7h11.4c-0.2-1.9-0.5-3.8-0.8-5.7C163.8,299.6,163.6,298,163.3,296.7z"/>
<path class="st27" d="M157.4,246.5c18.9-25,32-52.6,38.9-83.3c2.1-9.5-2.2-14.7-8-21.1c-0.5,2.1-0.9,3.4-1.1,4.8
	c-4.4,31-14.8,59.9-31.5,86.4c-3.4,5.3-3.5,9.7-0.2,15.2C156.4,247.5,156.9,247,157.4,246.5z"/>
<path class="st27" d="M171.1,47.8c29.9,1.7,59.1-1.4,87.7-10.8c8.9-3,12.9-7.8,13.1-17.4c-2.5,1-4.5,1.8-6.6,2.7
	c-28.2,11.3-57.4,17.5-87.8,16.9c-6.1-0.1-8.8,3-11.6,7.6c1,0.3,1.7,0.6,2.4,0.7C169.3,47.6,170.2,47.7,171.1,47.8z"/>
<path class="st27" d="M224.2,286.5c-5.3-6.7-10.3-13.7-15.5-20.7c-4.4,9.2-4.1,12.2,1.4,19.8c5.6,7.6,11.7,14.7,18.3,21.3h14.3
	C236.2,300.7,230,293.8,224.2,286.5z"/>
<path class="st27" d="M118.6,59.8c7.3-3.7,8.7-9,8.8-16.4c-1.7,0.8-3,1.2-4.2,1.9c-27.4,15.8-56.7,26.3-87.7,32
	c-4.6,0.8-6.9,3.4-9.2,7.5c1.5,0.1,2.3,0.4,3.1,0.3C60.6,82.2,90.4,74,118.6,59.8z"/>
<path class="st27" d="M150.4,229.6c0.8-1,1.7-1.8,2.3-2.9c16-26.2,26.2-54.5,31-84.8c1.2-7.8-3.7-11.9-8.2-17.8
	c-0.4,1.9-0.6,2.5-0.7,3.2c-3,31.8-11.5,62-25.2,90.8c-1.5,3.1-0.7,7.4-0.9,11.1C149.3,229.4,149.9,229.5,150.4,229.6z"/>
<path class="st27" d="M134.1,279.6c0,0.9-0.1,1.6,0,2.3c1.8,8.4,3.2,16.8,4.2,25.2h10.4c-0.4-4.7-0.9-9.4-1.6-14.1
	C146,284.5,141.3,281.5,134.1,279.6z"/>
<path class="st27" d="M181.5,33.2c29.7-0.4,58.4-5.9,86.3-16.5c8.1-3.1,8.8-9.4,11.8-16.4c-2,0.8-2.9,1-3.7,1.4
	c-27.8,12.9-56.9,20.9-87.4,24.4c-3.3,0.4-6.4,3.2-9.5,4.9c0.3,0.6,0.6,1.2,1,1.8C180.4,33,180.9,33.2,181.5,33.2z"/>
<path class="st27" d="M138,25.2c-3.4,14-4.2,28.1,0.1,42.7c3.8-3.2,6.2-6.3,5.9-11.3c-1.1-17.5,1.9-34.4,7.4-50.9
	C153.5-0.7,156-7,158.9-13h-9.6c-1.7,3.1-3,6.4-4,10C142.7,6.3,140.3,15.7,138,25.2z"/>
<path class="st27" d="M63.7,247.4c-1.1-0.1-1.5-0.2-1.8-0.1c-17,10.1-35.4,16.9-54.5,21.9c-0.9,0.2-1.9,1.2-2.5,2.1v13.2
	c17.5-3.3,32.7-10.4,47.6-18.6C60.2,261.7,61.2,254.4,63.7,247.4z"/>
<path class="st27" d="M217.8,253.9c-0.7-1.1-1.6-2.2-2.5-3.3c-6.3,6.7-6.7,7.9-1.8,14.4c7.9,10.2,15.7,20.5,24.4,29.9
	c4,4.3,8.2,8.4,12.6,12.2h12C245.3,291.4,230.3,273.8,217.8,253.9z"/>
<path class="st27" d="M166.7,268.6c-4.9,4.2-4.9,5.1-0.3,10.6c21.1-18.9,37.6-41.1,49.7-66.7c4.9-10.3,2-19.5-1.9-28.9
	c-0.2,0.7-0.5,1.3-0.6,2C208.9,219.4,192.3,246.5,166.7,268.6z"/>
<path class="st27" d="M248.6,86.6c-6.7-5.1-6.8-5-14.2,1.3c24.1,17.3,44.4,37.6,61.1,61.5c1,1.4,3,2.1,4.5,3.1
	c0.3-0.2,0.6-0.4,0.9-0.6v-3.4c-0.3-1.8-0.7-3.5-1.6-5C285.9,121.6,269.3,102.3,248.6,86.6z"/>
<path class="st27" d="M58.4,244.6c8.2-4.1,10-10.3,10.7-19.2c-2.4,1.3-4,2.1-5.6,3.1c-16.2,9.9-33.5,17.5-51.6,23
	c-3.7,1.1-5.8,1.9-6.8,3.2v7.8c0.1,0.3,0.1,0.6,0.2,0.9C17.1,262.3,41.7,252.9,58.4,244.6z"/>
<path class="st27" d="M218.8,79.7c13.4-1.1,26.2-4.2,34.7-17.7c-2.1,0.6-3.5,0.9-4.8,1.5C217.6,76,186,76.8,154.2,66.7
	c-5.5-1.7-7.8,0.4-9.7,5.1c1.2,0.4,2.2,0.9,3.2,1.2C171,79.2,194.7,81.7,218.8,79.7z"/>
<path class="st27" d="M152.7,272.4c-27.8-16.3-48.8-38.7-62.7-67.8c-0.9-1.9-1.8-3.8-2.8-5.7c-0.1,12.2,2.9,23.2,8.9,33.6
	c14,24.5,38,35.7,62.9,46.2C156.9,276.6,155.2,273.9,152.7,272.4z"/>
<path class="st27" d="M9.3,246.5c19.3-5.3,37.3-13.3,54.7-23c7.1-4,8-9.5,7.9-17.1c-1.9,1.1-3.3,1.8-4.6,2.7
	c-17.8,11.6-36.7,20.9-56.8,27.8c-2.8,1-4.7,2.1-5.5,3.8v6c0.1,0.2,0.1,0.4,0.2,0.6C6.5,247,7.9,246.9,9.3,246.5z"/>
<path class="st27" d="M10.2,129.3c25.1,3,49.9,2.6,74.4-3.9c8.6-2.3,13.2-9.6,18-16.7C71.5,124.6,39,128.3,5.2,120.9
	c-0.1,0.2-0.1,0.4-0.2,0.6v5.5C5.8,128.2,7.5,128.9,10.2,129.3z"/>
<path class="st27" d="M193,17.6c1.2,1.4,1.6,1.6,1.9,1.5c29.8-3.4,58.2-11.9,85.4-24.4c3.5-1.6,5.3-4.2,6.2-7.7h-7.6
	c-24.2,11.5-49.7,19-75.8,24.7C199.4,12.4,196.3,15.6,193,17.6z"/>
<path class="st27" d="M164.3,113.9c-0.3,1-0.5,1.5-0.6,2c-2.3,28.4-9.5,55.7-19.1,82.5c-1.3,3.6-0.2,8-0.2,12c2-0.7,2.6-1.6,3-2.5
	c12.1-26.1,19.4-53.5,23.1-81.9C171.3,120.4,169.3,116.9,164.3,113.9z"/>
<path class="st27" d="M270.8,85.6c-6.2-6.5-13.3-8.8-22.8-4.5c20.6,14.7,37.6,32.4,52.8,53.7c0.1-0.9,0.2-1.8,0.2-2.7v-9.8
	c-0.5-3.8-1.9-7.3-5.1-10.4C287.3,103.4,279.1,94.4,270.8,85.6z"/>
<path class="st27" d="M38.8,68.7c0.3,0.4,0.6,0.9,0.9,1.3c1.2-0.1,2.5-0.2,3.7-0.4c28.1-5.7,54.6-15.9,79.9-29.4
	c4.8-2.6,5.9-5.9,4.7-11c-1,0.4-1.9,0.5-2.6,1c-24.2,14.3-50.3,23.9-77.2,32C44.7,63.3,41.9,66.5,38.8,68.7z"/>
<path class="st27" d="M119.7,270.4c-0.1,1.1-0.2,1.7-0.1,2.2c2.7,11.4,4.6,22.9,5.8,34.5h7.7c-0.8-8.5-2-17-3.6-25.5
	C128.3,275.6,125.3,272.6,119.7,270.4z"/>
<path class="st27" d="M161.3,40.1c0.9,0.3,1.7,0.5,2.6,0.8c1.6-3.4,4.1-6.7,4.7-10.2c2.6-15.2,6.8-29.8,13.1-43.6h-6.6
	c-4.5,10.1-7.8,20.8-10.3,31.9C163.3,25.9,162.4,33,161.3,40.1z"/>
<path class="st27" d="M115.2,217.9c9.5,11.5,20,21.9,32.2,30.5c0.6-0.5,1.3-1.1,1.9-1.6c-2.4-3.4-4.2-7.5-7.3-10.1
	c-23.1-19.7-40-43.5-49.9-72.2c-0.4-1.1-1-2-1.5-3c-0.6,0.1-1.1,0.3-1.7,0.4c0.4,3.7,0.2,7.5,1.3,11
	C95.4,189.6,104.2,204.4,115.2,217.9z"/>
<path class="st27" d="M67.5,203.9c5.3-3.1,6.8-7.1,6.4-12.9c-1,0.4-1.9,0.6-2.6,1.1c-19.7,13.4-41,23.8-63.3,32.1
	c-1.6,0.6-2.5,1.3-3,2.2v6c1.3-0.3,2.6-0.5,3.7-0.9C29.4,224.6,48.8,215,67.5,203.9z"/>
<path class="st27" d="M235.4,259c-5.1-6.1-9.2-13.1-14-20c-4.2,4.6-3.3,8.4-0.2,12.3c9.7,12,18.9,24.5,29,36.1
	c6.2,7.1,13.6,13.2,20.6,19.7h3.8c-1.9-3.4-3.3-7.1-5.8-9.9C257.9,284.3,246.3,271.9,235.4,259z"/>
<path class="st27" d="M8.4,93.2c0.9,0.3,1.9,0.6,2.8,0.9c1.5-3.4,4.1-6.7,4.4-10.2c1.8-20.2,6.3-39.6,15.3-57.8
	c4.4-8.8,9.5-17.2,14.4-25.8c-0.3-0.4-0.7-0.8-1-1.1c-3.4,3.3-7.5,6.1-10.1,9.9c-10.4,15-17.2,31.7-20.7,49.6
	C11.2,70.1,10.1,81.7,8.4,93.2z"/>
<path class="st27" d="M223.1,93c0.2,0.4,0.3,0.9,0.5,1.1c19.7,14.3,37,31.2,53,49.5c2.1,2.4,6,3.4,9,5c0.3-0.4,0.6-0.9,0.9-1.3
	c-0.9-1.3-1.7-2.7-2.7-4c-14.1-19-30.8-35.4-49.4-50C230.3,90,227,89.6,223.1,93z"/>
<path class="st27" d="M153.6,266.7c-0.3-5.6-2.1-8.7-5.9-11.4c-26.3-18.6-47.6-41.4-59.3-72.1c-0.3-0.7-0.9-1.2-1.3-1.8
	C97.8,218.5,120.9,245.7,153.6,266.7z"/>
<path class="st27" d="M150.7,54.3c1.9-2.8,4.2-5.8,4.5-9c1.7-18.8,4.7-37.3,12.4-54.6c0.6-1.3,1.2-2.5,1.8-3.8h-4.7
	C154.2,9.9,146.9,38.8,150.7,54.3z"/>
<path class="st27" d="M209.3,3.1c1.4,0.4,1.7,0.6,2,0.6c19.2-4,38-9.3,56.1-16.6h-15c-12.4,4.9-25,9.1-37.8,12.9
	C213,0.4,211.5,1.7,209.3,3.1z"/>
<path class="st27" d="M154.1,104.5c-1.8,26.8-6.5,53.1-13.8,79c-0.4,1.6,0.2,3.4,0.3,5.1c10.2-25,17.3-50.6,18.8-77.4
	c0.1-2.4-2.3-4.9-3.5-7.3C155.3,104.1,154.7,104.3,154.1,104.5z"/>
<path class="st27" d="M175,25.7c0.8,0.3,1.6,0.7,2.3,1c1.8-3.3,4.2-6.5,5.2-10.1C185.4,6.4,188.7-3.5,193-13h-5.2
	c-2.3,5.1-4.4,10.4-6.3,15.8C179,10.3,177.2,18,175,25.7z"/>
<path class="st27" d="M108,260.5c-0.5,0.4-0.9,0.9-1.4,1.3c2.6,13.8,5.7,27.6,7.8,41.5c0.2,1.2,0.4,2.4,0.5,3.6h5.3
	c-1.2-13.1-3.2-26.1-6.5-39C113,265.2,110,263,108,260.5z"/>
<path class="st27" d="M132.4,219.7c3.1,3.3,6.5,6.4,9.7,9.7c0.6-0.5,1.2-0.9,1.8-1.4c-1.9-3.1-3.2-6.8-5.7-9.3
	c-17.6-18.4-32.2-38.7-39.9-63.3c-0.9-2.9-1.7-5.8-2.6-8.7c-0.7,0.1-1.3,0.2-2,0.3c0.3,3.1,0.1,6.4,1,9.4
	C102.1,180.5,115.1,201.4,132.4,219.7z"/>
<path class="st27" d="M23.5,79.9c2-4.3,3.9-7.2,4.8-10.3c3.1-10.7,5.3-21.8,8.8-32.4C42.5,21.1,51.2,6.6,62.9-7.4
	C46.8-3.4,18.7,58.9,23.5,79.9z"/>
<path class="st27" d="M221.5,168.3c-0.3,0.5-0.5,1-0.8,1.6c2.4,1.3,4.7,3.3,7.3,3.9c23.5,5.5,46.7,3.8,69.8-2.5
	c1.8-0.5,2.9-1.3,3.3-2.4v-2.4c-0.1-0.5-0.3-1-0.5-1.5C274.4,172.5,248.1,174.2,221.5,168.3z"/>
<path class="st27" d="M6.8,218.5c23.1-8.3,45.2-18.4,65.4-32.5c2.1-1.5,2.8-5,4.1-7.5c-13,6.4-24.4,13.7-36.3,20.2
	c-11.5,6.3-23.3,12-35,17.9v1.7c0.1,0.1,0.2,0.3,0.2,0.4C5.8,218.6,6.3,218.7,6.8,218.5z"/>
<path class="st27" d="M272.6,77.8c9,9.6,18.8,20,28.3,30.2c0-0.1,0-0.1,0-0.2V95C297.5,82.5,284,75.3,272.6,77.8z"/>
<path class="st27" d="M137.1,202.6c-12.6-21.3-25.3-42.4-38.6-64.7c7.2,28,20.5,51.2,40.2,71C138.1,206.8,138.1,204.4,137.1,202.6z"
	/>
<path class="st27" d="M131.1,16.5C104.7,29,79.8,40.8,54.8,52.6c25.4-5.7,49.1-15.1,71.2-28.1C128.3,23.2,129.2,19.7,131.1,16.5z"/>
<path class="st27" d="M49.9,274.3c-14.3,5.5-29.4,11.4-44.9,17.4v5.4C23.4,294.4,41.7,293.1,49.9,274.3z"/>
<path class="st27" d="M290.4,157.4c-15.5,1.7-30.9,4.5-46.4,5.1c-10.3,0.4-20.7-2.1-31.3-3.4c6.8,10.3,73.5,9.7,88.3-1.7v-0.1
	C296.6,157.4,293.5,157.1,290.4,157.4z"/>
<path class="st27" d="M294.6,243.9c-0.3-1.8-1.6-3.4-2.6-5.4c-0.7,0.9-1,1.1-1,1.4c-0.1,0.7,0,1.5,0.1,2.2
	c3.2,22.2,0.5,43.7-5.9,64.9h4.8C295.8,286.5,297.8,265.5,294.6,243.9z"/>
<path class="st27" d="M265.6,285.8c0.8,0.8,1.8,1.3,2.7,1.9c0.1-0.2,0.3-0.4,0.4-0.6c-14.7-20-29.3-39.9-43.9-59.8
	c-2,3-1.5,6.1,0.7,9.6C236.9,254.9,250.6,270.9,265.6,285.8z"/>
<path class="st27" d="M266.4,140.5c-14.3-16.6-29.8-31.9-47.7-44.5c-1.7-1.2-4.7-0.4-8-0.6c19.1,16.1,36.9,31.1,54.8,46.2
	C265.7,141.1,266,140.8,266.4,140.5z"/>
<path class="st27" d="M191.9,12.4c2-3.3,4.6-6.3,6-9.9c2-5.3,4.2-10.5,6.5-15.6h-4.9c-3.7,7.8-6.8,15.9-9.5,24.2
	C190.7,11.6,191.3,12,191.9,12.4z"/>
<path class="st27" d="M137.3,168.3c0.8,0,1.5,0.1,2.3,0.1c3.3-21.5,6.6-43.1,9.9-64.6c0.7-4.3-0.7-7.5-4.8-9.8
	c-0.4,0.6-0.7,0.9-0.7,1.2c-0.2,22.6-2.4,45.1-7,67.3C136.6,164.4,137.2,166.4,137.3,168.3z"/>
<path class="st27" d="M77.3,164.1C56.2,177.6,35.1,191,14,204.5c0.1,0.2,0.3,0.3,0.4,0.5c0.7-0.2,1.4-0.3,2-0.6
	c19.1-10.6,38.2-21.1,57.1-32.1c2.3-1.4,3.3-5.2,4.8-7.9C78,164.3,77.6,164.2,77.3,164.1z"/>
<path class="st27" d="M37.4,63.5c1.7-3.1,3.9-6,5-9.3c6.5-20.8,14.2-41,27.6-58.5c1.7-2.3,3.4-4.5,5.2-6.8c-0.6-0.3-1.1-0.6-1.7-1
	C53.8,9.2,42.2,34.6,35.6,62.7C36.2,62.9,36.8,63.2,37.4,63.5z"/>
<path class="st27" d="M94.2,254.8c3.9,17.5,7.9,34.9,11.8,52.2h2.7c-2.5-14.9-5-29.7-7.4-44.6C100.5,257.9,98,255.7,94.2,254.8z"/>
<path class="st27" d="M134,1.9c-21.3,12-42.6,24.1-64,36.1c20.3-6.8,39.4-16.1,57.9-26.7C132.1,8.9,133.7,5.7,134,1.9z"/>
<path class="st27" d="M67.6,135.3c-20,0-41.2,0-62.6,0v0.3C9.7,143.7,55,143.2,67.6,135.3z"/>
<path class="st27" d="M261.4,270.1c0.6-0.4,1.2-0.8,1.8-1.2c-12.1-19.5-24.3-38.9-37.4-60c0.7,4.9,0.1,9.1,1.9,11.7
	C238.6,237.3,250.1,253.6,261.4,270.1z"/>
<path class="st27" d="M209.8,238c-12.1,14.6-24.8,30-37.1,44.8C187.3,278.1,207.9,252.9,209.8,238z"/>
<path class="st27" d="M81.4-10.9c-10.7,12.2-18.1,26.3-24,41.2c-2.1,5.2-3.9,10.5-5.8,15.7c0.5,0.2,1,0.4,1.4,0.6
	C62.4,25.4,72.6,4.6,88-13h-4.3C82.9-12.4,82.1-11.7,81.4-10.9z"/>
<path class="st27" d="M133.8,186.7c-11.2-20.7-22.9-41.2-28.2-64.5c-0.6,0.1-1.3,0.2-1.9,0.2c-0.2,2.1-0.9,4.3-0.4,6.2
	C108.9,150.3,119.7,169.3,133.8,186.7z"/>
<path class="st27" d="M223.1,152.7c-5.2,0-10.4-1.5-15.6-2.4c15.1,8.3,57.9,8.8,73.7,2.2c-3-0.8-6.1-1.3-9.2-1.2
	C255.7,151.8,239.4,152.6,223.1,152.7z"/>
<path class="st27" d="M300.6,187.9c-17,0.7-34,1.4-49.7,2.1C262.1,197.8,296.2,196.7,300.6,187.9z"/>
<path class="st27" d="M195.6,97.1c18.3,13.3,34.9,25.5,51.6,37.6c0.4-0.6,0.9-1.2,1.3-1.8c-14.4-11.5-28.8-23-43.5-34.2
	C203.2,97.2,199.8,97.7,195.6,97.1z"/>
<path class="st27" d="M283,265.6c-0.8,9.5-3,18.8-4.3,28.3c-0.5,3.3-0.1,6.7-0.1,10.1c8.6-15.9,10.6-52.7,4.6-67.8
	C283.2,246.5,283.8,256.1,283,265.6z"/>
<path class="st27" d="M94.2,305.4c-8.2-12.9-16.4-25.7-24.9-39.1C66.2,274.6,82.6,301.5,94.2,305.4z"/>
<path class="st27" d="M85.1,17.3c8.6-10,17.3-20.1,26.1-30.3h-5.6C96.9-6.5,86.4,7.4,85.1,17.3z"/>
<path class="st27" d="M128.7,142c-3.5-14.1-7-28.2-10.5-42.5C112.6,105.6,118.8,133.6,128.7,142z"/>
<path class="st27" d="M28.6,182.4c8.8-11.3,17.6-22.7,26.6-34.3c-8.4-0.7-25.9,20.9-27.8,33.4C27.8,181.8,28.2,182.1,28.6,182.4z"/>
<path class="st27" d="M236.4,181c20.6,5.8,41.3,4.9,62,0.4c1-0.2,1.8-1.7,2.6-3V177c-0.3-0.2-0.6-0.5-0.9-0.7
	C279.2,181.9,258,184.3,236.4,181z"/>
<path class="st27" d="M237.4,148.2c7.5,0.3,15.1-0.7,22.7-1.1c0-0.2-0.1-0.4-0.1-0.5c-19.9-1.7-39.9-3.3-61.3-5.1
	c3.3,1.5,5.6,3.3,8,3.6C216.9,146.5,227.2,147.8,237.4,148.2z"/>
<path class="st27" d="M273.6,217.7c0,22.4,0,43.8,0,66.1c0.9-1.5,1.4-1.9,1.5-2.4c3.5-18.9,4.6-37.9,1.3-57
	C276,222.3,274.7,220.3,273.6,217.7z"/>
<path class="st27" d="M25.4,11.1C16.1,24.3,7.2,37.6,5,53.2v14.7c0.1,0.5,0.1,0.9,0.2,1.4C8.7,48.8,15,29.3,25.4,11.1z"/>
<path class="st27" d="M251.4,203c3,13.8,5.9,27.7,8.9,41.5c0.7-0.2,1.3-0.3,2-0.5c0.5-12.2-1.3-24.2-5.1-35.8
	c-0.8-2.3-3.1-4.1-4.7-6.2C252.1,202.4,251.7,202.7,251.4,203z"/>
<path class="st27" d="M185.4,123.4c11.8,5.2,24.3,7.4,38.6,8.4c-14-8.9-29.4-8.1-42.5-14.4c-0.4,0.5-0.8,1.1-1.1,1.6
	C182,120.5,183.5,122.5,185.4,123.4z"/>
<path class="st27" d="M29,151.2c-7,0.8-22.5,26.6-24,38.8v3.3c0,0,0,0,0,0C12.9,179.4,21,165.2,29,151.2z"/>
<path class="st27" d="M133.8,143.7c3.9-19.1,6.4-38.2,5.4-57.5c-0.7-0.1-1.3-0.1-2-0.2c-0.2,1.3-0.5,2.7-0.6,4
	c-1,13.4-1.9,26.7-2.8,40.1C133.5,134.6,133.8,139.2,133.8,143.7z"/>
<path class="st27" d="M32,187.2c16.9-9.8,33.4-20.2,48.1-33.1c-0.4-0.5-0.8-1-1.2-1.5c-16,11-32.1,22-48.1,33
	C31.3,186.1,31.7,186.7,32,187.2z"/>
<path class="st27" d="M89.8,21.2c15.3-9.1,30.6-18.1,45.8-27.3c1-0.6,1.5-2.3,2.2-3.4c-0.3-0.1-0.5-0.3-0.8-0.4
	c-16.5,10.1-32.9,20.1-49.4,30.2c0.2,0.3,0.4,0.7,0.6,1C88.8,21.2,89.4,21.4,89.8,21.2z"/>
<path class="st27" d="M187.6,85.8c-14.8-2.4-29-4.8-43.2-7.1C157.8,85.8,171.4,91.8,187.6,85.8z"/>
<path class="st27" d="M84.1,249.7c4.7,18.1,9.4,36.3,14.1,54.4c0.6-0.2,1.3-0.3,1.9-0.5C97,285,92.8,266.7,86,249.2
	C85.3,249.3,84.7,249.5,84.1,249.7z"/>
<path class="st27" d="M6.8-0.4c8.2,5.9,11.5,5.8,18.9,0c-7.1-3.1-13.8-6-20.4-8.9C5.2-9.2,5.1-9.2,5-9.1v5.5C5.4-2.2,5.9-1,6.8-0.4z
	"/>
<path class="st27" d="M256.6,246.2c-8.9-15.3-17.7-30.7-26.6-46c-0.5,0.3-1,0.6-1.5,0.8c7.2,16.3,16.3,31.5,26.5,46.1
	C255.6,246.8,256.1,246.5,256.6,246.2z"/>
<path class="st27" d="M180.7,97c14.5,9.6,29.1,19.2,43.6,28.9c0.3-0.5,0.7-1.1,1-1.6c-13.9-10.6-28.1-20.8-43.7-28.8
	C181.3,96,181,96.5,180.7,97z"/>
<path class="st27" d="M82,307h3.8c-6.7-8.1-13.4-16.2-20.1-24.2C70.2,291.6,75.7,299.6,82,307z"/>
<path class="st27" d="M96.7-13h-1.5C82.9-0.3,74.3,14.9,67,31C76.9,16.3,86.8,1.7,96.7-13z"/>
<path class="st27" d="M284,24c4.3-1.6,8.3-3.4,12.4-4.6c2.4-0.7,4-1.7,4.6-3.2v-3.4c-0.1-0.4-0.3-0.9-0.5-1.3
	C288.6,12.9,285,15.5,284,24z"/>
<path class="st27" d="M10.6,197.9c10.3-17.2,19.9-33.4,29.5-49.5C27.1,162.4,17.9,178.8,10.6,197.9z"/>
<path class="st27" d="M118.9,139.5c-3.4-8.9-6-18.1-8.9-27.2c-0.5,0.2-0.9,0.4-1.4,0.5c3.5,19,11.2,36.5,21.9,52.6
	C126.6,156.8,122.4,148.3,118.9,139.5z"/>
<path class="st27" d="M278.1,35.8c7.9-3,14.7-5.4,21.4-8.3c0.8-0.4,1.2-1.9,1.5-3.2v-1.5c-0.3-0.2-0.6-0.4-1-0.6
	C293.1,26.3,283,25,278.1,35.8z"/>
<path class="st27" d="M268.7,262.8c3.1-10.4,0.1-45.8-4.1-50.4C265.9,229,267.4,246.6,268.7,262.8z"/>
<path class="st27" d="M270.2,52.7c-1.1,0.5-1.6,2.5-2.4,3.8c0.3,0.2,0.5,0.4,0.8,0.6c10.7-5.3,21.5-10.6,32.2-16
	c-0.3-0.6-0.6-1.2-0.8-1.8C290,43.8,280,48.1,270.2,52.7z"/>
<path class="st27" d="M274.4,44.8c14.5-3.9,25.6-9.5,26.5-13.7C291.6,36,281,36.3,274.4,44.8z"/>
<path class="st27" d="M242.2,139.6c-16.7-2.5-33.4-5-50-7.6C208.3,138.2,225.1,139.8,242.2,139.6z"/>
<path class="st27" d="M300.5,53.9c-5.6,5.7-11.4,11.5-17,17.1C288.9,70.9,300.3,59.5,300.5,53.9z"/>
<path class="st27" d="M15,16C9.1,19.2,6,22,5,25.7v6.6c0.1,0.5,0.2,1,0.3,1.6C8.6,27.9,11.6,22.3,15,16z"/>
<path class="st27" d="M299,46.4c-11.1,5.5-22.2,11.1-33.4,16.6c0.2,0.5,0.5,1,0.7,1.4c11.1-5.5,22.3-11,33.4-16.6
	C299.5,47.4,299.3,46.9,299,46.4z"/>
<path class="st27" d="M17.5,145.9c-4-0.7-8.1-1.4-12.5-2.1v7.7c4.6-1.6,8.6-3,12.6-4.4C17.5,146.7,17.5,146.3,17.5,145.9z"/>
<path class="st27" d="M5,3.6v10.1c3.5-2.3,6.1-4,9.7-6.4C10.7,5.8,8,4.7,5,3.6z"/>
<path class="st27" d="M5.4,172.1c3.8-5.7,7.5-11.5,11.3-17.2c-0.4-0.3-0.8-0.5-1.2-0.8C10.8,159.3,5.5,164.1,5.4,172.1z"/>
<path class="st27" d="M84.4,267.7c-2.8-8.2-5.6-16.4-8.4-24.7c-0.6,0.2-1.3,0.4-1.9,0.7c3,8.1,6,16.3,9,24.4
	C83.5,267.9,83.9,267.8,84.4,267.7z"/>
<path class="st27" d="M82.3,143c-0.5-0.5-0.9-1.1-1.4-1.6c-6.8,5.8-13.7,11.5-20.5,17.3c0.3,0.3,0.7,0.7,1,1
	C68.4,154.1,75.3,148.6,82.3,143z"/>
<path class="st27" d="M169.7,98.8c6.7,3.5,13.5,7.1,20.2,10.6c0.2-0.4,0.4-0.8,0.6-1.1c-6.6-3.7-13.2-7.4-19.8-11.2
	C170.3,97.7,170,98.3,169.7,98.8z"/>
<path class="st27" d="M242.4,211c-3.1-6.9-6.2-13.7-9.3-20.6c-0.6,0.3-1.1,0.5-1.7,0.8c3.3,6.8,6.6,13.5,9.9,20.3
	C241.7,211.3,242.1,211.2,242.4,211z"/>
<path class="st27" d="M123.8,101.4c0.2,0,0.5-0.1,0.7-0.1c0-4.8,0-9.6,0-14.4c-0.7,0-1.4,0.1-2.1,0.1
	C122.9,91.8,123.3,96.6,123.8,101.4z"/>
<path class="st27" d="M131.2,104.9c0-5.7,0-11.5,0-17.2c-0.5,0-1.1,0.1-1.6,0.1c0.4,5.7,0.7,11.4,1.1,17.1
	C130.9,104.9,131.1,104.9,131.2,104.9z"/>
</svg>
