<?xml version="1.0" encoding="utf-8"?>
<!-- Generator: Adobe Illustrator 24.0.2, SVG Export Plug-In . SVG Version: 6.00 Build 0)  -->
<svg version="1.1" id="Capa_1" xmlns="http://www.w3.org/2000/svg" xmlns:xlink="http://www.w3.org/1999/xlink" x="0px" y="0px"
	 viewBox="0 0 288 288" style="enable-background:new 0 0 288 288;" xml:space="preserve">
<style type="text/css">
	.st0{fill:#FFF3E3;}
	.st1{fill:#FFD400;}
	.st2{fill:#00EEB1;}
	.st3{fill:#8143FF;}
	.st4{fill:#FF30A5;}
</style>
<polygon class="st0" points="0,26.2 0,0 26.2,0 "/>
<polygon class="st1" points="26.2,0 26.2,26.2 0,26.2 "/>
<polygon class="st2" points="26.2,26.2 26.2,0 52.4,0 "/>
<polygon class="st0" points="52.4,0 52.4,26.2 26.2,26.2 "/>
<polygon class="st0" points="0,52.4 0,26.2 26.2,26.2 "/>
<polygon class="st3" points="26.2,26.2 26.2,52.4 0,52.4 "/>
<polygon class="st0" points="26.2,26.2 52.4,26.2 52.4,52.4 "/>
<polygon class="st4" points="52.4,52.4 26.2,52.4 26.2,26.2 "/>
<polygon class="st0" points="78.5,52.4 52.4,52.4 52.4,26.2 "/>
<polygon class="st1" points="52.4,26.2 78.5,26.2 78.5,52.4 "/>
<polygon class="st2" points="78.5,26.2 52.4,26.2 52.4,0 "/>
<polygon class="st0" points="52.4,0 78.5,0 78.5,26.2 "/>
<polygon class="st0" points="104.7,52.4 78.5,52.4 78.5,26.2 "/>
<polygon class="st3" points="78.5,26.2 104.7,26.2 104.7,52.4 "/>
<polygon class="st0" points="78.5,26.2 78.5,0 104.7,0 "/>
<polygon class="st4" points="104.7,0 104.7,26.2 78.5,26.2 "/>
<polygon class="st0" points="104.7,78.5 104.7,104.7 78.5,104.7 "/>
<polygon class="st1" points="78.5,104.7 78.5,78.5 104.7,78.5 "/>
<polygon class="st2" points="78.5,78.5 78.5,104.7 52.4,104.7 "/>
<polygon class="st0" points="52.4,104.7 52.4,78.5 78.5,78.5 "/>
<polygon class="st0" points="104.7,52.4 104.7,78.5 78.5,78.5 "/>
<polygon class="st3" points="78.5,78.5 78.5,52.4 104.7,52.4 "/>
<polygon class="st0" points="78.5,78.5 52.4,78.5 52.4,52.4 "/>
<polygon class="st4" points="52.4,52.4 78.5,52.4 78.5,78.5 "/>
<polygon class="st0" points="26.2,52.4 52.4,52.4 52.4,78.5 "/>
<polygon class="st1" points="52.4,78.5 26.2,78.5 26.2,52.4 "/>
<polygon class="st2" points="26.2,78.5 52.4,78.5 52.4,104.7 "/>
<polygon class="st0" points="52.4,104.7 26.2,104.7 26.2,78.5 "/>
<polygon class="st0" points="0,52.4 26.2,52.4 26.2,78.5 "/>
<polygon class="st3" points="26.2,78.5 0,78.5 0,52.4 "/>
<polygon class="st0" points="26.2,78.5 26.2,104.7 0,104.7 "/>
<polygon class="st4" points="0,104.7 0,78.5 26.2,78.5 "/>
<polygon class="st0" points="0,130.9 0,104.7 26.2,104.7 "/>
<polygon class="st1" points="26.2,104.7 26.2,130.9 0,130.9 "/>
<polygon class="st2" points="26.2,130.9 26.2,104.7 52.4,104.7 "/>
<polygon class="st0" points="52.4,104.7 52.4,130.9 26.2,130.9 "/>
<polygon class="st0" points="0,157.1 0,130.9 26.2,130.9 "/>
<polygon class="st3" points="26.2,130.9 26.2,157.1 0,157.1 "/>
<polygon class="st0" points="26.2,130.9 52.4,130.9 52.4,157.1 "/>
<polygon class="st4" points="52.4,157.1 26.2,157.1 26.2,130.9 "/>
<polygon class="st0" points="78.5,157.1 52.4,157.1 52.4,130.9 "/>
<polygon class="st1" points="52.4,130.9 78.5,130.9 78.5,157.1 "/>
<polygon class="st2" points="78.5,130.9 52.4,130.9 52.4,104.7 "/>
<polygon class="st0" points="52.4,104.7 78.5,104.7 78.5,130.9 "/>
<polygon class="st0" points="104.7,157.1 78.5,157.1 78.5,130.9 "/>
<polygon class="st3" points="78.5,130.9 104.7,130.9 104.7,157.1 "/>
<polygon class="st0" points="78.5,130.9 78.5,104.7 104.7,104.7 "/>
<polygon class="st4" points="104.7,104.7 104.7,130.9 78.5,130.9 "/>
<polygon class="st0" points="104.7,183.3 104.7,209.5 78.5,209.5 "/>
<polygon class="st1" points="78.5,209.5 78.5,183.3 104.7,183.3 "/>
<polygon class="st2" points="78.5,183.3 78.5,209.5 52.4,209.5 "/>
<polygon class="st0" points="52.4,209.5 52.4,183.3 78.5,183.3 "/>
<polygon class="st0" points="104.7,157.1 104.7,183.3 78.5,183.3 "/>
<polygon class="st3" points="78.5,183.3 78.5,157.1 104.7,157.1 "/>
<polygon class="st0" points="78.5,183.3 52.4,183.3 52.4,157.1 "/>
<polygon class="st4" points="52.4,157.1 78.5,157.1 78.5,183.3 "/>
<polygon class="st0" points="26.2,157.1 52.4,157.1 52.4,183.3 "/>
<polygon class="st1" points="52.4,183.3 26.2,183.3 26.2,157.1 "/>
<polygon class="st2" points="26.2,183.3 52.4,183.3 52.4,209.5 "/>
<polygon class="st0" points="52.4,209.5 26.2,209.5 26.2,183.3 "/>
<polygon class="st0" points="0,157.1 26.2,157.1 26.2,183.3 "/>
<polygon class="st3" points="26.2,183.3 0,183.3 0,157.1 "/>
<polygon class="st0" points="26.2,183.3 26.2,209.5 0,209.5 "/>
<polygon class="st4" points="0,209.5 0,183.3 26.2,183.3 "/>
<polygon class="st0" points="104.7,78.5 104.7,52.4 130.9,52.4 "/>
<polygon class="st1" points="130.9,52.4 130.9,78.5 104.7,78.5 "/>
<polygon class="st2" points="130.9,78.5 130.9,52.4 157.1,52.4 "/>
<polygon class="st0" points="157.1,52.4 157.1,78.5 130.9,78.5 "/>
<polygon class="st0" points="104.7,104.7 104.7,78.5 130.9,78.5 "/>
<polygon class="st3" points="130.9,78.5 130.9,104.7 104.7,104.7 "/>
<polygon class="st0" points="130.9,78.5 157.1,78.5 157.1,104.7 "/>
<polygon class="st4" points="157.1,104.7 130.9,104.7 130.9,78.5 "/>
<polygon class="st0" points="183.3,104.7 157.1,104.7 157.1,78.5 "/>
<polygon class="st1" points="157.1,78.5 183.3,78.5 183.3,104.7 "/>
<polygon class="st2" points="183.3,78.5 157.1,78.5 157.1,52.4 "/>
<polygon class="st0" points="157.1,52.4 183.3,52.4 183.3,78.5 "/>
<polygon class="st0" points="209.5,104.7 183.3,104.7 183.3,78.5 "/>
<polygon class="st3" points="183.3,78.5 209.5,78.5 209.5,104.7 "/>
<polygon class="st0" points="183.3,78.5 183.3,52.4 209.5,52.4 "/>
<polygon class="st4" points="209.5,52.4 209.5,78.5 183.3,78.5 "/>
<polygon class="st0" points="209.5,130.9 209.5,157.1 183.3,157.1 "/>
<polygon class="st1" points="183.3,157.1 183.3,130.9 209.5,130.9 "/>
<polygon class="st2" points="183.3,130.9 183.3,157.1 157.1,157.1 "/>
<polygon class="st0" points="157.1,157.1 157.1,130.9 183.3,130.9 "/>
<polygon class="st0" points="209.5,104.7 209.5,130.9 183.3,130.9 "/>
<polygon class="st3" points="183.3,130.9 183.3,104.7 209.5,104.7 "/>
<polygon class="st0" points="183.3,130.9 157.1,130.9 157.1,104.7 "/>
<polygon class="st4" points="157.1,104.7 183.3,104.7 183.3,130.9 "/>
<polygon class="st0" points="130.9,104.7 157.1,104.7 157.1,130.9 "/>
<polygon class="st1" points="157.1,130.9 130.9,130.9 130.9,104.7 "/>
<polygon class="st2" points="130.9,130.9 157.1,130.9 157.1,157.1 "/>
<polygon class="st0" points="157.1,157.1 130.9,157.1 130.9,130.9 "/>
<polygon class="st0" points="104.7,104.7 130.9,104.7 130.9,130.9 "/>
<polygon class="st3" points="130.9,130.9 104.7,130.9 104.7,104.7 "/>
<polygon class="st0" points="130.9,130.9 130.9,157.1 104.7,157.1 "/>
<polygon class="st4" points="104.7,157.1 104.7,130.9 130.9,130.9 "/>
<polygon class="st0" points="78.9,209.5 78.9,235.6 52.7,235.6 "/>
<polygon class="st1" points="52.7,235.6 52.7,209.5 78.9,209.5 "/>
<polygon class="st2" points="52.7,209.5 52.7,235.6 26.5,235.6 "/>
<polygon class="st0" points="26.5,235.6 26.5,209.5 52.7,209.5 "/>
<polygon class="st2" points="0.3,209.5 26.5,209.5 26.5,235.6 "/>
<polygon class="st0" points="26.5,235.6 0.3,235.6 0.3,209.5 "/>
<polygon class="st2" points="0.3,261.8 0.3,235.6 26.5,235.6 "/>
<polygon class="st0" points="26.5,235.6 26.5,261.8 0.3,261.8 "/>
<polygon class="st0" points="0.3,261.8 26.5,261.8 26.5,288 "/>
<polygon class="st4" points="26.5,288 0.3,288 0.3,261.8 "/>
<polygon class="st0" points="52.7,288 26.5,288 26.5,261.8 "/>
<polygon class="st1" points="26.5,261.8 52.7,261.8 52.7,288 "/>
<polygon class="st2" points="52.7,261.8 26.5,261.8 26.5,235.6 "/>
<polygon class="st0" points="26.5,235.6 52.7,235.6 52.7,261.8 "/>
<polygon class="st0" points="78.9,288 52.7,288 52.7,261.8 "/>
<polygon class="st3" points="52.7,261.8 78.9,261.8 78.9,288 "/>
<polygon class="st0" points="52.7,261.8 52.7,235.6 78.9,235.6 "/>
<polygon class="st4" points="78.9,235.6 78.9,261.8 52.7,261.8 "/>
<polygon class="st0" points="78.9,235.6 78.9,209.5 105.1,209.5 "/>
<polygon class="st3" points="105.1,209.5 105.1,235.6 78.9,235.6 "/>
<polygon class="st0" points="78.9,235.6 105.1,235.6 105.1,261.8 "/>
<polygon class="st3" points="105.1,261.8 78.9,261.8 78.9,235.6 "/>
<polygon class="st4" points="78.9,288 78.9,261.8 105.1,261.8 "/>
<polygon class="st0" points="130.9,261.8 104.7,261.8 104.7,235.6 "/>
<polygon class="st1" points="104.7,235.6 130.9,235.6 130.9,261.8 "/>
<polygon class="st2" points="130.9,235.6 104.7,235.6 104.7,209.5 "/>
<polygon class="st0" points="104.7,209.5 130.9,209.5 130.9,235.6 "/>
<polygon class="st0" points="157.1,261.8 130.9,261.8 130.9,235.6 "/>
<polygon class="st0" points="235.6,209.5 209.5,209.5 209.5,183.3 "/>
<polygon class="st3" points="130.9,235.6 157.1,235.6 157.1,261.8 "/>
<polygon class="st0" points="130.9,235.6 130.9,209.5 157.1,209.5 "/>
<polygon class="st4" points="157.1,209.5 157.1,235.6 130.9,235.6 "/>
<polygon class="st0" points="157.1,183.3 157.1,209.5 130.9,209.5 "/>
<polygon class="st1" points="130.9,209.5 130.9,183.3 157.1,183.3 "/>
<polygon class="st2" points="130.9,183.3 130.9,209.5 104.7,209.5 "/>
<polygon class="st0" points="104.7,209.5 104.7,183.3 130.9,183.3 "/>
<polygon class="st0" points="157.1,157.1 157.1,183.3 130.9,183.3 "/>
<polygon class="st3" points="130.9,183.3 130.9,157.1 157.1,157.1 "/>
<polygon class="st0" points="130.9,183.3 104.7,183.3 104.7,157.1 "/>
<polygon class="st4" points="104.7,157.1 130.9,157.1 130.9,183.3 "/>
<polygon class="st0" points="183.3,157.1 209.5,157.1 209.5,183.3 "/>
<polygon class="st1" points="209.5,183.3 183.3,183.3 183.3,157.1 "/>
<polygon class="st2" points="183.3,183.3 209.5,183.3 209.5,209.5 "/>
<polygon class="st0" points="209.5,209.5 183.3,209.5 183.3,183.3 "/>
<polygon class="st0" points="157.1,157.1 183.3,157.1 183.3,183.3 "/>
<polygon class="st3" points="183.3,183.3 157.1,183.3 157.1,157.1 "/>
<polygon class="st0" points="183.3,183.3 183.3,209.5 157.1,209.5 "/>
<polygon class="st4" points="157.1,209.5 157.1,183.3 183.3,183.3 "/>
<polygon class="st0" points="157.1,235.6 157.1,209.5 183.3,209.5 "/>
<polygon class="st1" points="183.3,209.5 183.3,235.6 157.1,235.6 "/>
<polygon class="st0" points="130.9,26.2 130.9,52.4 104.7,52.4 "/>
<polygon class="st1" points="104.7,52.4 104.7,26.2 130.9,26.2 "/>
<polygon class="st0" points="130.9,0 130.9,26.2 104.7,26.2 "/>
<polygon class="st3" points="104.7,26.2 104.7,0 130.9,0 "/>
<polygon class="st0" points="183.3,26.2 183.3,52.4 157.1,52.4 "/>
<polygon class="st1" points="157.1,52.4 157.1,26.2 183.3,26.2 "/>
<polygon class="st2" points="157.1,26.2 157.1,52.4 130.9,52.4 "/>
<polygon class="st0" points="130.9,52.4 130.9,26.2 157.1,26.2 "/>
<polygon class="st0" points="183.3,0 183.3,26.2 157.1,26.2 "/>
<polygon class="st3" points="157.1,26.2 157.1,0 183.3,0 "/>
<polygon class="st0" points="157.1,26.2 130.9,26.2 130.9,0 "/>
<polygon class="st4" points="130.9,0 157.1,0 157.1,26.2 "/>
<polygon class="st0" points="183.3,0 209.5,0 209.5,26.2 "/>
<polygon class="st3" points="209.5,26.2 183.3,26.2 183.3,0 "/>
<polygon class="st0" points="209.5,26.2 209.5,52.4 183.3,52.4 "/>
<polygon class="st4" points="183.3,52.4 183.3,26.2 209.5,26.2 "/>
<polygon class="st2" points="183.3,235.6 183.3,209.5 209.5,209.5 "/>
<polygon class="st0" points="209.5,209.5 209.5,235.6 183.3,235.6 "/>
<polygon class="st0" points="157.1,261.8 157.1,235.6 183.3,235.6 "/>
<polygon class="st3" points="183.3,235.6 183.3,261.8 157.1,261.8 "/>
<polygon class="st0" points="183.3,235.6 209.5,235.6 209.5,261.8 "/>
<polygon class="st4" points="209.5,261.8 183.3,261.8 183.3,235.6 "/>
<polygon class="st2" points="183.3,288 157.1,288 157.1,261.8 "/>
<polygon class="st0" points="157.1,261.8 183.3,261.8 183.3,288 "/>
<polygon class="st0" points="183.3,288 183.3,261.8 209.5,261.8 "/>
<polygon class="st4" points="209.5,261.8 209.5,288 183.3,288 "/>
<polygon class="st0" points="131.2,261.8 131.2,288 105.1,288 "/>
<polygon class="st1" points="105.1,288 105.1,261.8 131.2,261.8 "/>
<polygon class="st2" points="105.1,261.8 105.1,288 78.9,288 "/>
<polygon class="st0" points="157.4,261.8 157.4,288 131.2,288 "/>
<polygon class="st4" points="131.2,288 131.2,261.8 157.4,261.8 "/>
<polygon class="st2" points="209.5,26.2 209.5,0 235.6,0 "/>
<polygon class="st0" points="235.6,0 235.6,26.2 209.5,26.2 "/>
<polygon class="st0" points="209.5,26.2 235.6,26.2 235.6,52.4 "/>
<polygon class="st4" points="235.6,52.4 209.5,52.4 209.5,26.2 "/>
<polygon class="st0" points="261.8,52.4 235.6,52.4 235.6,26.2 "/>
<polygon class="st1" points="235.6,26.2 261.8,26.2 261.8,52.4 "/>
<polygon class="st2" points="261.8,26.2 235.6,26.2 235.6,0 "/>
<polygon class="st0" points="235.6,0 261.8,0 261.8,26.2 "/>
<polygon class="st0" points="288,52.4 261.8,52.4 261.8,26.2 "/>
<polygon class="st3" points="261.8,26.2 288,26.2 288,52.4 "/>
<polygon class="st0" points="261.8,26.2 261.8,0 288,0 "/>
<polygon class="st4" points="288,0 288,26.2 261.8,26.2 "/>
<polygon class="st0" points="288,78.5 288,104.7 261.8,104.7 "/>
<polygon class="st1" points="261.8,104.7 261.8,78.5 288,78.5 "/>
<polygon class="st2" points="261.8,78.5 261.8,104.7 235.6,104.7 "/>
<polygon class="st0" points="235.6,104.7 235.6,78.5 261.8,78.5 "/>
<polygon class="st0" points="288,52.4 288,78.5 261.8,78.5 "/>
<polygon class="st3" points="261.8,78.5 261.8,52.4 288,52.4 "/>
<polygon class="st0" points="261.8,78.5 235.6,78.5 235.6,52.4 "/>
<polygon class="st4" points="235.6,52.4 261.8,52.4 261.8,78.5 "/>
<polygon class="st0" points="209.5,52.4 235.6,52.4 235.6,78.5 "/>
<polygon class="st1" points="235.6,78.5 209.5,78.5 209.5,52.4 "/>
<polygon class="st2" points="209.5,78.5 235.6,78.5 235.6,104.7 "/>
<polygon class="st0" points="235.6,104.7 209.5,104.7 209.5,78.5 "/>
<polygon class="st3" points="209.5,183.3 235.6,183.3 235.6,209.5 "/>
<polygon class="st0" points="209.5,183.3 209.5,157.1 235.6,157.1 "/>
<polygon class="st4" points="235.6,157.1 235.6,183.3 209.5,183.3 "/>
<polygon class="st0" points="235.6,130.9 235.6,157.1 209.5,157.1 "/>
<polygon class="st1" points="209.5,157.1 209.5,130.9 235.6,130.9 "/>
<polygon class="st0" points="235.6,104.7 235.6,130.9 209.5,130.9 "/>
<polygon class="st3" points="209.5,130.9 209.5,104.7 235.6,104.7 "/>
<polygon class="st0" points="261.8,104.7 288,104.7 288,130.9 "/>
<polygon class="st1" points="288,130.9 261.8,130.9 261.8,104.7 "/>
<polygon class="st2" points="261.8,130.9 288,130.9 288,157.1 "/>
<polygon class="st0" points="288,157.1 261.8,157.1 261.8,130.9 "/>
<polygon class="st0" points="235.6,104.7 261.8,104.7 261.8,130.9 "/>
<polygon class="st3" points="261.8,130.9 235.6,130.9 235.6,104.7 "/>
<polygon class="st0" points="288,235.6 288,261.8 261.8,261.8 "/>
<polygon class="st1" points="261.8,261.8 261.8,235.6 288,235.6 "/>
<polygon class="st2" points="261.8,235.6 261.8,261.8 235.6,261.8 "/>
<polygon class="st0" points="235.6,261.8 235.6,235.6 261.8,235.6 "/>
<polygon class="st0" points="288,209.5 288,235.6 261.8,235.6 "/>
<polygon class="st3" points="261.8,235.6 261.8,209.5 288,209.5 "/>
<polygon class="st0" points="261.8,235.6 235.6,235.6 235.6,209.5 "/>
<polygon class="st4" points="235.6,209.5 261.8,209.5 261.8,235.6 "/>
<polygon class="st0" points="209.5,209.5 235.6,209.5 235.6,235.6 "/>
<polygon class="st1" points="235.6,235.6 209.5,235.6 209.5,209.5 "/>
<polygon class="st2" points="209.5,235.6 235.6,235.6 235.6,261.8 "/>
<polygon class="st0" points="235.6,261.8 209.5,261.8 209.5,235.6 "/>
<polygon class="st0" points="235.6,261.8 235.6,288 209.5,288 "/>
<polygon class="st3" points="209.5,288 209.5,261.8 235.6,261.8 "/>
<polygon class="st0" points="261.8,261.8 288,261.8 288,288 "/>
<polygon class="st1" points="288,288 261.8,288 261.8,261.8 "/>
<polygon class="st0" points="235.6,261.8 261.8,261.8 261.8,288 "/>
<polygon class="st3" points="261.8,288 235.6,288 235.6,261.8 "/>
<polygon class="st0" points="261.8,130.9 261.8,157.1 235.6,157.1 "/>
<polygon class="st4" points="235.6,157.1 235.6,130.9 261.8,130.9 "/>
<polygon class="st0" points="235.6,183.3 235.6,157.1 261.8,157.1 "/>
<polygon class="st1" points="261.8,157.1 261.8,183.3 235.6,183.3 "/>
<polygon class="st2" points="261.8,183.3 261.8,157.1 288,157.1 "/>
<polygon class="st0" points="288,157.1 288,183.3 261.8,183.3 "/>
<polygon class="st0" points="235.6,209.5 235.6,183.3 261.8,183.3 "/>
<polygon class="st3" points="261.8,183.3 261.8,209.5 235.6,209.5 "/>
<polygon class="st0" points="261.8,183.3 288,183.3 288,209.5 "/>
<polygon class="st4" points="288,209.5 261.8,209.5 261.8,183.3 "/>
</svg>
