<?xml version="1.0" encoding="utf-8"?>
<!-- Generator: Adobe Illustrator 24.0.2, SVG Export Plug-In . SVG Version: 6.00 Build 0)  -->
<svg version="1.1" id="Capa_1" xmlns="http://www.w3.org/2000/svg" xmlns:xlink="http://www.w3.org/1999/xlink" x="0px" y="0px"
	 viewBox="0 0 288 288" style="enable-background:new 0 0 288 288;" xml:space="preserve">
<style type="text/css">
	.st0{fill:#2D2D2D;}
	.st1{fill:#002530;}
	.st2{fill:#050523;}
	.st3{fill:#707C84;}
	.st4{fill:#E9E4DE;}
	.st5{fill:#EE3133;}
	.st6{fill:#FD99AF;}
	.st7{fill:#C4C2C0;}
	.st8{fill:#F2D8A3;}
	.st9{fill:#EFCB84;}
	.st10{fill:#EF692F;}
	.st11{fill:#4B343F;}
	.st12{fill:#16B198;}
	.st13{fill:#E72D52;}
	.st14{fill:#7B536F;}
	.st15{fill:#8F4CA9;}
	.st16{fill:#E2C29F;}
	.st17{fill:#9F4687;}
	.st18{fill:#A9A0AF;}
	.st19{fill:#CC4743;}
	.st20{fill:#8677A9;}
	.st21{fill:#8E5D8E;}
	.st22{fill:#DF615C;}
	.st23{fill:#9E4742;}
	.st24{fill:#D34861;}
	.st25{fill:#B75B6D;}
	.st26{fill:#DF6482;}
	.st27{fill:#FFFFFF;}
	.st28{fill:#829CA2;}
	.st29{fill:#F2B991;}
	.st30{fill:#E56759;}
	.st31{fill:#F5F3EE;}
	.st32{fill:#DC4B3F;}
	.st33{fill:#1D5A7D;}
	.st34{fill:#459492;}
	.st35{fill:#F0A349;}
	.st36{fill:#E4EFEB;}
	.st37{fill:#E17467;}
	.st38{fill:#B6BFBD;}
	.st39{fill:#F0E2D6;}
	.st40{fill:#396D89;}
	.st41{fill:#201A21;}
	.st42{fill:#48505D;}
	.st43{fill:#0B0707;}
	.st44{fill:#D30034;}
	.st45{fill:#6C919B;}
	.st46{fill:#F68C4A;}
	.st47{fill:#E5CFCD;}
	.st48{fill:#385B4D;}
	.st49{fill:#F14206;}
	.st50{fill:#BAD2D8;}
	.st51{fill:#F70059;}
	.st52{fill:#AA000C;}
	.st53{fill:#D8B5B2;}
	.st54{fill:#E08143;}
	.st55{fill:#F2E9E9;}
	.st56{fill:#F4D085;}
	.st57{fill:#23586A;}
	.st58{fill:#17241F;}
	.st59{fill:#EAE8E1;}
	.st60{fill:#253C4F;}
	.st61{fill:#F7FCFD;}
	.st62{fill:#0E151F;}
	.st63{fill:#8D897D;}
	.st64{fill:#BDB6AA;}
	.st65{fill:#EDE1AF;}
	.st66{fill:#DF786F;}
	.st67{fill:#E8C46F;}
	.st68{fill:#B0CEAD;}
	.st69{fill:#9FC4AF;}
	.st70{fill:#B8C6A0;}
	.st71{fill:#EBEC80;}
	.st72{fill:#DD7AB2;}
	.st73{fill:#D6D2D3;}
	.st74{fill:#69BCC5;}
	.st75{fill:#D0CBC1;}
	.st76{fill:#242424;}
	.st77{fill:#525252;}
	.st78{fill:#3D3D3D;}
	.st79{fill:#6B6B6B;}
	.st80{fill:#303030;}
	.st81{fill:#8A8A8A;}
	.st82{fill:#282828;}
	.st83{fill:#E6E6E6;}
	.st84{fill:#E8E8E8;}
	.st85{fill:#A9A9A9;}
	.st86{fill:#D9D9D9;}
	.st87{fill:#CACACA;}
	.st88{fill:#9E9E9E;}
	.st89{fill:none;}
	.st90{fill:#4A4744;}
	.st91{fill:#F0BA45;}
	.st92{fill:#F1D34E;}
	.st93{fill:none;stroke:#00A591;stroke-miterlimit:10;}
	.st94{fill:#EEEEEE;}
	.st95{fill:#FBFBFB;}
	.st96{fill:#F8F2DD;}
	.st97{fill:#8DB2A6;}
	.st98{fill:#ED8C58;}
	.st99{fill:#F0C153;}
	.st100{fill:#C2B146;}
	.st101{fill:#8E6E51;}
	.st102{fill:#1C1D4C;}
	.st103{fill:#111224;}
	.st104{fill:#26687B;}
	.st105{fill:#F8494A;}
	.st106{fill:#81819B;}
	.st107{fill:#80809B;}
	.st108{fill:#0AC6BB;}
	.st109{fill:#0BC5B9;}
	.st110{fill:#686888;}
	.st111{fill:#0BC5BA;}
	.st112{fill:#FEFEFE;}
	.st113{fill:#F8F5CE;}
	.st114{fill:#EF484B;}
	.st115{fill:#F94A4A;}
	.st116{fill:#F9F6CE;}
	.st117{fill:#DFE0E3;}
	.st118{fill:#04121D;}
	.st119{fill:#6693AB;}
	.st120{fill:#89BCD7;}
	.st121{fill:#FAF509;}
	.st122{fill:#0B2E41;}
	.st123{fill:#427491;}
	.st124{fill:#2A5973;}
	.st125{fill:#184259;}
	.st126{fill:#BCE4F7;}
	.st127{fill:#02111C;}
	.st128{fill:#FCF704;}
	.st129{fill:#F4F115;}
	.st130{fill:#DFE23F;}
	.st131{fill:#BCE6FA;}
	.st132{fill:#031D2B;}
	.st133{fill:#81851A;}
	.st134{fill:#1E1E1E;}
	.st135{fill:#F5142E;}
	.st136{fill:#05ACC0;}
	.st137{fill:#F87240;}
	.st138{fill:#FA723F;}
	.st139{fill:#F67240;}
	.st140{fill:#E37547;}
	.st141{fill:#07ADC0;}
	.st142{fill:#450D0D;}
	.st143{fill:#F57240;}
	.st144{fill:#440D0D;}
	.st145{fill:#470D0D;}
	.st146{fill:#EBECCC;}
	.st147{fill:#E9EACA;}
	.st148{fill:#00ABBF;}
	.st149{fill:#F6FAD9;}
	.st150{fill:#CBC3AC;}
	.st151{fill:#E2615D;}
	.st152{fill:#FAFAF8;}
	.st153{fill:#E8E4DA;}
	.st154{fill:#123057;}
	.st155{fill:#F4D16B;}
	.st156{fill:none;stroke:#F1D34E;stroke-miterlimit:10;}
	.st157{fill:#E3834C;}
	.st158{fill:#E9A779;}
	.st159{fill:#ECB74A;}
	.st160{fill:#00A591;}
</style>
<path class="st77" d="M133.8-32c3.2-0.4,6.4-0.7,9.7-1.1c3.1,3.1,0.9,5.1-0.9,8c-4.7,7.3-10.5,14.9-10.6,23.4
	c-0.1,9,11.8,7.1,16,12.9c0.8,1.1,1.7,2.2,2.5,3.2c-2.9,4.3-5.1-1-7.7-0.7c-1-0.4-2-0.7-2.9-1.1c0.1,1.1,0.1,2.2,0.2,3.2
	c4.3,8.2,5.7,16.2-1.4,23.8c-2,2.1-1.4,4,0.4,5.9c-0.9,1.6-1.8,3.1-2.7,4.7c-6.4,3.7-5.4,8.7-2.6,14.2c4.8,9.3,9.3,18.8,14,28.2
	c-11.8,0.8-9.6,12.4-14.2,18.8c-4.7,6.5-2.7,12.1,5.5,14.6c6.1,1.9,11.9,4.4,14,11.3c-5,3.3-8.2-6.2-14.2-1.1
	c9.9,9.7,2,18.5-1.9,27.7c-0.3,2-0.5,4-0.8,6c-5.3,3.3-6,7.5-3,13c4.9,8.9,9.4,18,14.1,27.1c0,1.9,0,3.9,0.1,5.8
	c-9.2,1.2-20.5,22.2-13.9,25.9c9.9,5.5,18.1,14.3,29.6,16.7c2.8,0.6,8.9-1.4,8.8-2.2c-0.2-11.2-1.2-22.5-2-33.7c0-1.4,0-2.9,0-4.3
	c29.6-27.3-4.5-29.3-17.8-41.9c14.2,8.8,16.9-2,21-9.2c2.2-3.9,2.4-8.9,4.6-12.8c5.3-9.6,2.2-12.1-7.8-11.4c-6,0.4-14,4.2-16.9-5.7
	c0.9-0.1,1.8-0.3,2.7-0.1c18,3.7,20.4,1.5,15-15c-1.5-4.5-0.5-8,1.4-11.7c1.6-3.1,2.5-6-2-7.6c-0.1-1.4-0.1-2.9-0.2-4.3
	c3.9-4.5,13.6-5.8,10.8-13.8c-3.3-9.3-5.5-21.4-20.2-19.8c-3.9,0.4-5.6-2.6-7.9-4.8c0.2-1.5,0.4-2.9,0.6-4.4
	c8.9,5.5,15.3,4.3,19.2-6.3c2.1-5.6,5.1-10.9,7.8-16.2c1.8-3.5,2.3-7-0.2-10.4c-2.9-3.9-5.7-0.6-8.6,0c-12.4,2.7-17.1,0.8-21.3-8.4
	c2.7,0.2,4.9,1.4,7.2,3c5,3.4,10.7,2.7,15.3-0.9c5.4-4.1,0.8-8.5-1.2-11.9c-4.7-8.1,0.7-13.8,3.7-20.1c-0.1-3.4-4-3.4-5.3-5.8
	c5.9-2.4,8.2-10,15.3-10.8c1,1.2,2,2.5,3,3.7c-6,6.1-7.7,14.5-10.4,22.1c-2.8,8-1.7,15.2,10.1,12.7c8.8-1.9,16.4,0.1,23,6.5
	c2.4,2.4,4.9,5.8,10.4,3.6c-3-10.3-11.9-20.6-2-31.5c0.3-2,0.5-4.1,0.8-6.1c3.4-1.1,4.1-4.4,5.7-7c1.4-2.2,2.7-5.2,6-3.4
	c3.5,1.8-0.2,4.7,0.6,7.1c4.2,8.6-5.8,8.9-8.4,13.6c-5.9,10.5-0.4,18.7,4.8,25.4c5.4,6.9,8.5-3.3,13-5c4.3-1.7,8.3-3.8,13.2-3.7
	c2,0,6.2,0.7,5.3-2.1c-3.5-10.8,6.9-17.8,6.8-27.5c0.1-2,0.2-3.9,0.3-5.9c9.3-4.7,11.2,0.4,11.1,8.3c0,1.6-0.1,3.2-0.1,4.8
	C267-15.2,265.6-6.4,267.8,1.5c2.4,8.6,5.5,20.6,18.7,16.8c9-2.6,19.5-5.9,17.9-19.9c-0.7-6.4,4.3-11.5,10-20.2
	c-0.3,13.6-4.6,23.4,0,32.7c0.3,0.6-1.5,3.2-1.9,3.1c-12.7-3.1-18.7,11.1-31.3,11.4c-9.4,0.2-4.8,15.5-10.5,22.7
	c-2.8,3.6,2.1,6.3,5.1,8.4c6.2,4.3,12.7,3.7,18-0.9c6.2-5.5,14.4-8.2,20.2-17.2c1.4,12.4-5.5,22,0.1,31.4c-5.8,1.7-6.6-2.5-7.7-5
	c-2.5-6-5.4-7.6-11.3-3.5c-7.7,5.4-15.9,3.3-23.8-0.3c-1.1-0.3-2.2-0.7-3.2-1c0.1,1.2,0.2,2.4,0.3,3.6c2.1,10.4,12.7,17.9,9.1,30.7
	c-1.6,5.6,5.8,3.8,9.2,5c0,1.5,0,3,0.1,4.4c-11-1.9-19.2,1-20.2,13.5c-0.9,11.7,9.7,21.2,22.9,21.1c0,1.6,0.1,3.1,0.1,4.7
	c-17.2,3-15,18.4-19,29.8c-0.1,1.9-0.2,3.9-0.4,5.8c-0.9,0.7-1.7,1.3-2.6,2c0.8,0.5,1.6,1.1,2.5,1.6l-0.2-0.2
	c-0.8,2.7-0.8,4.6,2.9,2.9l-0.3,0c-1,11.6,9,21.3,5.9,33.3c0,1.5,0,3.1-0.1,4.6c-9.2-3.8-7.9,4.8-10.1,8.8c-5,9.2,1.6,16.1,6,22.6
	c3.8,5.6,11.2,6,16.3,2.5c6-4.3,16.2-6,13.8-17.8c-1.6-7.5,5.3-12.3,8.4-18.7c2.5,10.3-3.5,20.9,1.7,30.8c0.3,0.7-1.6,3.3-1.7,3.3
	c-12.4-5.7-16.8,9.8-28.2,10.2c-10.5,0.3-9.1,15-14,22.7c-2.9,4.5,2.5,7.3,5.9,9.3c7,4.2,13.6,2.2,19.1-2.9
	c5.4-5,12.8-7.4,17.9-13.6c-0.5,11.6-2.9,22.7,2.8,34.9c-7-2.1-7.3-5.7-8.6-8.4c-3-6.4-5.6-11.1-13.9-5.2c-7,4.9-15.1,2.6-22.5-0.9
	c-1.1-0.3-2.2-0.7-3.3-1c0.2,1.2,0.3,2.4,0.5,3.7c2.9,6.2,5.7,12.4,8.6,18.6c0.8,1.7,1.7,3.5-0.1,4.9c-2.4,1.8-4.7,0.4-5.6-1.7
	c-4.7-11.2-13.1-21.1-12.5-34.2c0.4-0.5,0.7-1.1,0.7-1.6c14.3-16.4,17.2-31.4-3.1-38.2c-2.8-2.9-8.3,1-10.5-3.8
	c4.1-3.4,13.3,0.5,13-3.9c-0.9-10.6,7.7-17.5,8-27.1c0.1-2,0.3-4.1,0.4-6.1c8.9-2.1,2.6-7.2,1.4-10.1c-3.7-9.5-10.5-18-9.8-29
	c0.1-1.6,0.1-3.3,0.2-4.9c10.1-3.9,13.3-12.6,11.2-21.7c-2.5-10.7-10.5-15.9-22.1-13.3c-5.1-4.3-0.9-4.1,2.2-5.2
	c3.1-1.1,9.7,1.7,9-2.6c-1.8-10.6,7.5-17.3,7.5-26.9c0.1-2,0.2-3.9,0.4-5.9c2.4-0.1,5.5-0.6,4.4-3.7c-2.4-6.5-5.7-12.6-8.6-18.9
	c-4-8.6-6.3-16.3,1.8-24.8c4.3-4.5,8.7-11.3,5.6-19c-3.2-7.9-8.1-14.2-17.6-12.6c-8.9,1.5-16.1,6.1-18.7,15.6
	c-2.6,9.3-6.1,18-13.5,24.6c-0.9-0.7-1.8-1.5-2.6-2.2c2.4-5.5,4.8-11,7.2-16.5c1.3-3,3.1-6.9-1.5-7.9c-8.6-1.8-14.6-7.4-21.5-12
	c-5-3.4-10.8-1.6-15.5,1.6c-4.9,3.3,0.2,6.4,1.3,8.9c2.8,6.4-0.9,11.1-3.7,15.4c-4.9,7.6,0.9,6.5,4.9,7.3c0,1.5,0.1,3.1,0.1,4.6
	c-10.7,5-14.1,12-6.5,22.5c2.6,3.6,4.4,7.9,6.5,11.9c0.9,1.6,1.9,3.1,2.8,4.7c-9.6,6.1-11.5,17.1-15.1,26.5
	c-1.8,4.6,0.3,12.3,9.3,10.8c0.1,1.5,0.1,3,0.2,4.5c1.4,11.4,1.7,22.7-3,33.5l0.2-0.2c-0.7,0.3-1.4,0.6-2,0.9
	c0.7,0.8,1.4,1.6,2.1,2.3c0,1.7-0.1,3.5-0.1,5.2c-4.8,3.5-6.7,7.1-3.8,13.6c4.7,10.7,9.3,20.5,23.2,20.4c-1.2,1-2.4,2.1-3.6,3.1
	c-13.1,0.3-26,21.1-21.2,33.1c2,5,4.6,4.6,8.3,3.1c0,1.6,0,3.2,0.1,4.8c0.9,11.3,2.1,22.6-3,33.4l0.2-0.2c-2.1-0.1-2.4,1.4-2.8,3
	c-4.1,3.9-0.4,5,2.3,6.4c-8.4,3.9-4,9.8-2.4,15.2c-1.9,0.3-3.8,0.5-5.8,0.8c-2.5-3.9-4.8-7.1-10.6-6.6c-2.9,0.2-8.6,2-8.8-4.6
	c4.1-2.1,10,2.6,12.7-2.4c5-9.3,9.5-18.9,12.9-28.8c1.3-3.7-1.5-8.8-7.3-6.2c-12.7,5.6-21.9-1.5-31.4-8c-1-0.4-2-0.8-2.9-1.1
	c0.1,1.1,0.2,2.2,0.2,3.3c9.3,12.4-3.4,23.3-2.4,35.1c-8.5,1.8-6.6,7-4.1,12.5c2.9,6.2,5.8,12.5,8.7,18.8c1.5,3.3,0.7,5.6-3.1,5.2
	c-1.9-0.2-6,1.6-5.5-3c1.2-9.8-6.9-16.2-8.7-24.8c0.4-5.3-3.1-6.2-7.2-6.8c7.9-5.7,15.5-11.5,18.3-21.7c2-7.4-1.5-13.4-5.7-17.6
	c-4.5-4.5-7.5,2.7-11.3,4.6c-2.9,1.5-5.4,3.7-8.4,4.7c-11.9,3.9-19.6,16.1-18.9,30.8c-1,2.8-6.9,2.2-5.1,7.1
	c3.4,6.5,6.8,13.1,10.1,19.6c1.1,2.2,3.6,5.1-0.6,6.7c-2.8,1-4-1.3-5-3.5c-4.9-10.8-11.6-20.9-12.6-33.2c0.8-1.4,1.5-2.9,2.3-4.3
	c8.1-5.5,12.3-13.2,10-22.6c-2.6-10.4-11.2-13.2-21.1-12.8c0-1.5-0.1-3-0.1-4.4c3.2-1.8,10.3,0.1,9.8-2.3
	c-2.4-11.2,10.5-18.9,6.2-30c0.3-1.4,0.5-2.9,0.8-4.3c9.6,0.9,4.7-4.6,3.5-8.2c-3.3-9.8-11.7-18-9.7-29.5c0.2-1.8,0.5-3.6,0.7-5.4
	c7.8-4.8,11.3-12.6,10.5-20.8c-1.4-13.1-14-14.2-25.5-18.3c12.5-2.3,21.1-18.4,19.6-33.1c0.3-1.5,0.6-2.9,0.9-4.4
	c9.6,0.8,5.1-4.8,3.6-8.4c-4.1-10-11-19-10.8-30.4c0.1-1.2-0.1-3.3,0.4-3.5c9.4-4.2,12.4-13,11.7-21.3c-0.9-10.3-9.3-15.2-19.6-16.1
	c-1.4-0.1-2.3-1-1.7-2.6C79,5.1,88-15.6,84.6-26.5c1.4-0.8,2.8-1.6,4.2-2.4c12-9.4,7,5.9,11.3,7.8c-0.9,1.2-1.8,2.5-2.7,3.7
	c-7.3,0.7-8.6,7.5-9.7,12.1c-2.1,9.2,3.3,17,9.7,22.9c6.3,5.8,11.5-0.1,16.8-3.7c15.2-10.2,13.3-28.2,19.6-42.4
	C133.8-29.7,133.8-30.8,133.8-32z M89,62.3l-0.2-0.2c3.8,12.2,11.8,23.2,11.1,36.8c-0.8,1.2-1.7,2.4-2.5,3.7
	c-8.9,2.9-12.2,10.4-9.9,18c2.5,8.1,4.6,19.1,17.2,18.4c9.5-0.5,19.7-7.1,20.1-13.9c0.5-10.4,5.2-18.1,8.2-27
	c1.3-3.6,1.7-7.6-4.2-7.6c-1.1-1-2.2-1.9-3.4-2.9c15.1-3.2,6.6-11.5,3.7-18.1c-4-9.3-14.4-18.4,1.4-27.1c3-1.6,4.1-7.1,5.4-11
	c2.5-7.2-1.6-13.3-5.9-17.5c-4.5-4.4-7.7,2.5-11.2,4.8c-3.9,2.6-7.8,4.4-12.6,5.3c-9,1.7-17.1,23.2-12.4,31.9
	c-1.8,0.4-3.7,0.7-5.5,1.1C86.1,59,86,60.8,89,62.3z M89.1,179c-0.5-0.5-0.9-1.1-1.4-1.6c-0.9,1.1-0.9,2,0.4,2.8
	c1.8,10.1,12,18.4,10.1,28.2c-2.4,12.8,4,10.5,11.2,9.6c2.6-0.3,5.1-2.8,7.7-0.1c-4.4,6.3-10.8,6.5-17.3,5.4
	c-8.4-1.4-10.8,4.9-12.1,10.4c-2.3,9.3,3.6,16.7,9.1,23.2c3.8,4.5,9,2.4,13.7-0.2c10.7-5.9,15.5-15.2,16.9-27
	c0.7-5.7,8.9-11.3,4.9-16c-5.4-6.4-9.1,6-15.3,4.3c-1.1-7.8,5.3-9.9,10.1-11.2c8.7-2.4,8.4-6.5,4.7-12.9c-2.3-4-4.2-8.2-6-12.5
	c-1.7-4.1-3.4-6.1-8-2.6C108.4,186.3,98.7,184,89.1,179z M136.8,148.7c0.4-7.3-9.4-16.8-14.1-13.2c-10.7,8.2-26.9,9.7-30.3,27.3
	c-1.7,8.8,0.1,15.7,9.6,16.4C112.6,179.9,136.2,159.3,136.8,148.7z"/>
<path class="st77" d="M-4.2,15.2c-7-10-3.7-21.4-4.3-32.2c-0.9-1.3-1.7-2.7-2.6-4c4.4-3.2,8.7-6.6,13.3-9.5c2.4-1.5,5.3-2.4,5.7,2.1
	C5-15.1-13.2-2.3,6.6,11.7c0.2,0.1-1.1,1.9-0.8,2.4C11.6,24.7,5.4,35,5.2,45.3c0,0,0.2-0.1,0.2-0.1c-1.3-1.6-2.5-1.6-3.8,0
	c-4.4,5.1,2.3,5.4,3.5,8.1c-2,1.9-4.7,3.5-5.8,5.9C-3,64.4,7.2,84.2,13,84.8C20.9,85.6,27,89,32.7,94c3.1,2.7,6.5,6.5,10.7,2.6
	c3.5-3.2,5.1-8,2.9-12.7c-4.3-9.1-7.5-18.9-15.4-25.8c6.8-6.8,10.2-15.6,14.4-24c3.9-7.6,0.4-10-6.3-10.9c0.1-1.5,0.1-3.1,0.2-4.6
	c-1.1-12-2.2-24.1-3.4-36.1c-0.1-0.6-1.4-1.1-2.1-1.6c1.1-1,2.3-2,3.4-3c4.1,1.1,6.7-0.1,8.4-4.2c1.1-2.8,2.5-6.4,6.4-5.5
	c3.9,0.8,0.3,6,3.5,7.6c0.1,1.7,0.2,3.4,0.3,5.1c-15.2,7.6-19,21.5-6.3,32.7c8.4,7.3,5,13.2,3.1,19.8c-1.6,5.7-4.8,11.1-7.7,16.3
	c-4.9,8.7-1.7,10.6,6.8,8.7c1.8,0.4,3.6,0.9,5.4,1.3c-9.8,3.5-13.3,8.7-6.5,18.5c2.8,4.1,3.5,9.7,5.1,14.6l0.2-0.2
	c-0.7,0.1-1.9,0.1-2,0.4c-0.4,1.6,0.4,2.4,2,2.5c-0.1,1.8-0.1,3.5-0.2,5.3c-15.2,9.1-19.4,22.1-6.9,33.7c9.3,8.6,4.9,14.3,2.4,21.7
	c-1.5,4.3-4.3,8.2-5.8,12.5c-1.1,3.1-5.4,6.4-1.6,9.6c2.6,2.3,6.1,0,9.1-1.3c0,1.6,0.1,3.2,0.1,4.8c-5.6,1.5-8.7,4.7-7.7,10.8
	c-0.8,0.8-1.7,1.6-2.5,2.3c-4-9.1-10.8-15.9-18.7-21.4c-7.5-5.1-14.5-3.5-21.4,2.1c-7.1,5.7-1.2,10.5,0.1,15.8
	c2.6,10.4,10.1,14.2,19.7,15.6c-0.1,1.5-0.2,3.1-0.3,4.6c-5.9-1.7-12.7-3.5-15.3,3.8C3.2,225.1-8,233.3,0,245.4
	c0.8,1.3,2.9,1.8,4.3,2.6c1.3,1.1,2.5,2.2,3.8,3.3c-1.5,0.9-3,1.8-4.5,2.7c9.5,9.9,1.3,20.7,1.7,31.1l0.2-0.1c-3.4-0.5-3.4,1.6-3,4
	c0,2.1,0,4.3,0,6.4c-5.7,4-3.4,8.5-1.1,13.2c2.6,5.4,4.9,10.9,6.9,16.5c0.5,1.5,0.3,3.9-2.1,4.2c-1.1,0.1-3.1-0.8-3.3-1.5
	c-3.6-15.9-14.4-23.8-29.4-27.5c0.8-1.1,1.7-2.3,2.5-3.4c5.7,2.1,11.3,5,14.8-3.4c3-7.1,6.7-13.9,10-20.9c2.5-5.3,2.2-9.8-3.7-12.6
	c-0.2-2.2-0.4-4.4-0.7-6.5c-8.9-9.2-4.1-20.5-4.8-31c-0.9-1.3-1.9-2.6-2.8-3.8c4.2-4.7,15.1-5,12-14.3c-3-9-4.9-20-19.3-19.7
	c-9.1,0.2-14.3-9.3-22-13.6c-9.7-5.4-3.7-14-2.7-21.8c0.6-4.7-1.8-9.8-2.3-14.8c-0.9-9.2,3.5-10.8,10.6-6.4c4.3,2.6,7.8,6.6,12.2,9
	c5.1,2.7,10.8,2.9,15.7-1.1c4.7-4,0.9-7.9-1.1-11c-4.2-6.6-0.4-12.4,1.7-19.7c-9.6-1.5-18.9-1.8-26.9-8.3c-7.2-5.9-5.5,5.9-11.2,7.1
	c0-11.1,0-22,0-35.4c6.6,10.4,9.1,20.8,18.5,26.6c7.2,4.4,13.9,5.4,20.5,0.1c3.5-2.8,10.3-5.5,6.2-11.9c-4.4-6.8-3.2-18.4-15.2-19
	c-4.7-0.2-9.2-0.8-12.8-4.4c1.9-0.5,3.8-0.9,5.7-1.4c3.5,0,8,2.4,10.1-1.6c5-9.2,9.6-18.6,13.5-28.3c1.5-3.6-1.1-7-5-8.4
	C-3.3,18.6-3.7,16.9-4.2,15.2z M27.9,131.8c-4.9,3.5-8.3-2.7-12.6-2c-4.3,0.7-12.2,1.1-9.4,6.7c5.4,10.9-0.4,19.4-3.8,30.5
	c9.9-1.9,19-3.5,26,3.2c5.7,5.5,8.5,3.1,10.9-2.9c1.4-3.4,2.9-6.8,4.8-10c4.7-7.9,5.6-13.6-6.3-15c-3.1-0.4-8.8-1.6-7.1-7.8
	c3.9-0.5,6.8,5.5,11.2,1.9c0.5-8.4-12.2-12.3-8-20.8c6.2-12.6-3.5-16.8-10.3-22.1c-5.5-4.3-13.4-5.8-16.4,2
	c-3.7,9.5-15.2,18-6.5,30.2c2.5,3.5,5.9,1,8.9,0.8C16.1,126.1,23.3,124.5,27.9,131.8z M-39.3,132.7c3.7,10.1,5,19.2-1.5,28
	c-1.7,2.2-0.5,3.9,2,5.4c5.5,3.4,10.5,7.6,16.1,10.8c4.7,2.8,9.8,3.9,13-2.5c3.9-7.9,7.9-15.8,11.2-23.9c1.9-4.7,0.4-11.4-5.5-9.1
	C-18,146.8-28.3,141.6-39.3,132.7z"/>
<path class="st77" d="M233.7,301.2c-11.8,3.2-6.4,9.8-3.7,16.5c1.1,2.6,6.7,6.4,1.2,9c-4.7,2.2-5.2-3.6-6.9-6.6
	c-4.1-7-6-15.5-12.8-20.9c0-1.9,0.1-3.9,0.1-5.8c8.8-3,8.1-12.3,12.2-18.4c5.3-7.9,1.7-11.6-6.6-12.6c0-1.6,0-3.2,0-4.8
	c7.4-2.4,2.3-7.7,1-9.6c-5.8-8.3-3.3-15.6,1-23.1c0.3-2.3,0.5-4.5,0.8-6.8c5.8-3.4,8.9-8.8,5.5-14.6c-4.7-8.1-6-18.1-14-24.3
	c0.1-1.9,0.2-3.8,0.4-5.7c8.2-3.4,8.1-12.3,12.2-18.5c5.4-8.3,0.8-11.2-6.8-12.5c0-1.7-0.1-3.3-0.1-5c1.9-0.3,3.8-0.9,3-3.2
	c-3.4-9.6-8.4-18.9-2.6-29.4c0.3-0.6-2-2.6-3.2-4c0.1-1.5,0.3-3,0.4-4.4c11.8,3.1,12.9-5,10.6-12.3c-2.8-9-6.2-18.3-14-24.8
	c0-1.9,0.1-3.9,0.1-5.8c3.6,0.7,4.7-2.3,6.4-4.4c0.9,0.7,1.8,1.5,2.6,2.2c-3.4,10.7,7.6,5.8,12.8,9.9c-9.9,2.8-10.8,6.7-5.2,13.1
	c5.3,6,5.4,13.9,5.2,21.6c0.2,1.7,0.4,3.5,0.6,5.2c-14.8,9.5-17.9,24.2-4.1,33.4c8,5.4,0.6,7.7,1.9,11c1,6.3-1,12.1-4.3,17.1
	c-5.8,8.9-8.4,16.1,6.1,17.9c-9.2,2.8-9.2,7.9-4.7,15.4c3.2,5.2,7.7,11,2.3,17.7c-1.3,3.2,2.2,4.6,2.6,7.2
	c-10.9,5.1-14.3,13.1-10.4,24.7c3.5,10.6,9.4,11.5,17.9,5.7c0,0,1.4,2,2.2,3.1c-13.1,6.9-10.6,22.5-18.1,32.6c-2.1,2.8-5.1,7-3,10
	c3.2,4.4,7.5-0.2,11.3-0.9C233.9,297.8,233.8,299.5,233.7,301.2z"/>
<path class="st84" d="M5.2,45.3C5.4,35,11.6,24.7,5.7,14.2c-0.3-0.5,1-2.3,0.8-2.4C-13.2-2.3,5-15.1,7.9-28.4c0,0,0.2,0,0.2,0
	c11.2-4.4,17.2,5.4,25.3,9.4c0.7,0.5,2.1,1,2.1,1.6c1.2,12,2.3,24,3.4,36.1C29.3,12.1,21.1,0,6.8,10c14.1-3.6,20.7,10.5,32.1,13.2
	c6.8,0.9,10.2,3.3,6.3,10.9c-4.2,8.4-7.6,17.1-14.4,24c0,0-0.2-0.1-0.2-0.1c3.3-1.7,1.5-3.7,0.1-5.4C24,43.9,14.4,45.2,5.2,45.3z"/>
<path class="st86" d="M267.1-23.8c0.1,9.7-10.3,16.6-6.8,27.5c0.9,2.8-3.3,2.1-5.3,2.1c-4.8-0.1-8.8,2-13.2,3.7
	c-4.5,1.7-7.6,11.9-13,5C223.6,7.7,218.2-0.4,224-11c2.6-4.7,12.6-5,8.4-13.6c0,0,0,0.1,0,0.1c0.9,1.2,1.8,3.4,2.8,3.4
	c1.9,0,2.4-1.7,1.5-3.5c0,0,0,0,0,0C246.8-24.5,257.2-35.3,267.1-23.8z"/>
<path class="st83" d="M150.4,14.6c-0.8-1.1-1.7-2.1-2.5-3.2c-4.3-5.9-16.2-4-16-12.9c0.1-8.6,6-16.2,10.6-23.4c1.9-2.9,4-4.9,0.9-8
	c2.4,0.6,4.1,1.8,4.2,4.6c-0.8,0.1-1.6,0.2-2.4,0.5c-0.3,0.1-0.5,1-0.3,1.3c6.8,12.6,18.8,11.2,30.3,11.3c-3,6.4-8.5,12-3.7,20.1
	c2,3.5,6.6,7.8,1.2,11.9c-4.6,3.5-10.3,4.3-15.3,0.9c-2.4-1.6-4.5-2.8-7.2-3L150.4,14.6z"/>
<path class="st83" d="M142.7,253.6c9.5,6.5,18.7,13.6,31.4,8c5.8-2.5,8.6,2.5,7.3,6.2c-3.4,9.9-8,19.5-12.9,28.8
	c-2.7,5-8.6,0.3-12.7,2.4c0,0,0.1,0.1,0.1,0.1c1.5-2.5-0.8-2.6-2.1-3.3c-9.9-10.7-10.8-11-16-5.1c0,0-0.1,0.2-0.1,0.2
	c-1-11.8,11.7-22.7,2.4-35.1C140.9,255,141.8,254.3,142.7,253.6z"/>
<path class="st83" d="M5.3,285c-0.4-10.4,7.8-21.2-1.7-31.1c1.5-0.9,3-1.8,4.5-2.7c13.4-4.8,19.8,9.6,30.8,11.4
	c6.7,1,10.4,3.6,6.4,10.9c-4.6,8.4-8.9,17-13.4,25.5c-0.7-0.2-1.1-0.7-1.4-1.4c3.6-2.7,0.7-4.7-0.9-6.6C23,283.5,13.9,285,5.3,285z"
	/>
<path class="st77" d="M31.9,299.1c4.5-8.5,8.8-17.1,13.4-25.5c4-7.4,0.3-10-6.4-10.9c0-1.5,0.1-3.1,0.1-4.6c1.7-0.7,3.9-1.7,2.4-3.8
	c-7.1-10-6.4-20.8-3.5-31.9c0.3-1.4,0.6-2.8,0.9-4.2c14.2-5.8,6.2-15,3.6-23.4c0.8-0.8,1.7-1.6,2.5-2.3c9,3.9,7.1,13.4,10.5,20.2
	l0.1-0.3c-0.7,0.1-1.9,0-2,0.3c-0.5,1.5,0.3,2.4,1.9,2.4c0,1.8,0,3.6,0,5.4c-5,2.4-9.3,5.1-11.7,10.7c-4.2,9.8,1.8,22.3,11.9,23.6
	c0,1.7,0,3.4,0,5.1c-1.4,10.7-6.5,19.9-10.9,29.5c-1.1,2.5-4.9,5.6-1.5,8.5c2.7,2.3,6.2,0.2,9.2-0.8c0.1,1.5,0.2,3,0.3,4.5
	c-7.9,0.7-6.3,7.7-7.3,13.3C38,311.1,37.2,303.2,31.9,299.1z"/>
<path class="st79" d="M300.4,170.1c2.2,3.3,7.1,5.4,4.9,10.7c-2.6-2.5-5.4-3.1-8.3-0.6c-7.2,6.3-16.4,2.6-24.4,4.7c0,0,0.3,0,0.3,0
	c0.8-2.7-0.4-3.4-2.9-2.9c0,0,0.2,0.2,0.2,0.2c0-1.2,0.1-2.4,0.1-3.6c0.1-1.9,0.2-3.9,0.4-5.8C281.5,182.3,291.2,178.8,300.4,170.1z
	"/>
<path class="st79" d="M278.5,222.8c0-1.5,0-3.1,0.1-4.6c11,2.4,17.6-5.7,25.5-10.7c2.7-1.7,7.1-5.4,9.4-0.6c2.2,4.5-3.7,3.9-6,5.3
	C298.5,217.6,291.5,228.6,278.5,222.8z"/>
<path class="st79" d="M211.7,293.4c0,1.9-0.1,3.9-0.1,5.8c-8.6-6-17.1-12.8-28.2-5c-2.8-1.4-6.4-2.5-2.3-6.4c1.4-0.6,3.4-0.5,2.8-3
	c0,0-0.2,0.2-0.2,0.2C193.7,285.2,204.6,283,211.7,293.4z"/>
<path class="st79" d="M286.8,103.6c0-1.5,0-3-0.1-4.4c9.5-2.8,14.7-15.2,27.1-11.7C304.2,91.8,298.9,103.3,286.8,103.6z"/>
<path class="st79" d="M233.7,301.2c0.1-1.7,0.1-3.4,0.2-5.1c2.8-4.2,6.7-7.2,11.2-9.3c6.7-3.1,9.2-2.7,14.6,2.1
	c-0.1,0.6-0.4,1.2-0.8,1.7C247.9,287.8,242.4,298.3,233.7,301.2z"/>
<path class="st79" d="M52.8,301.7c-0.1-1.5-0.2-3-0.3-4.5c7.8-7.9,15.7-15.5,28.3-11.1c-0.8,1.4-1.5,2.9-2.3,4.3
	C67.3,288.1,62.3,300.1,52.8,301.7z"/>
<path class="st79" d="M5.3,285c8.6,0,17.7-1.5,24.4,6.1c1.6,1.8,4.5,3.9,0.9,6.6c-8.9-5.5-17.9-11.1-28-2.5c0-2.1,0-4.3,0-6.4
	c1-1.3,2-2.6,3-3.9C5.4,284.9,5.3,285,5.3,285z"/>
<path class="st79" d="M137.7,290.7c5.3-5.9,6.1-5.6,16,5.1c-1.7,0.2-3.4,0.4-5.1,0.5C145,294.5,141.4,292.6,137.7,290.7z"/>
<path class="st84" d="M55.5-19.1c8.9-5.7,17-14.3,29.1-7.4C88-15.6,79,5.1,69.9,7.3c-0.5,1.6,0.3,2.5,1.7,2.6
	c10.3,0.9,18.7,5.8,19.6,16.1c0.7,8.3-2.3,17.2-11.7,21.3c-0.6,0.2-0.3,2.3-0.4,3.5c0,0,0.3,0.2,0.3,0.2c2.9-6-1.9-5.5-5.1-5.7
	c-10.4-0.7-16.3,6.9-22.9,13c-8.5,1.9-11.6,0-6.8-8.7c3-5.2,6.1-10.6,7.7-16.3c1.9-6.6,5.3-12.4-3.1-19.8
	C36.5,2.4,40.3-11.5,55.5-19.1z M60.3,11.4c-1.4,1-3,3-1.6,4c3.5,2.3,5.1-1.4,7.3-3.3c1.5-1,2.7-2.5,0.6-3.6
	C63.8,7.2,61.9,9.3,60.3,11.4z"/>
<path class="st84" d="M52.6,176.9c-2.9,1.3-6.4,3.6-9.1,1.4c-3.8-3.3,0.5-6.6,1.6-9.6c1.5-4.3,4.4-8.2,5.8-12.5
	c2.5-7.4,6.9-13.2-2.4-21.7c-12.5-11.6-8.4-24.6,6.9-33.7c9.2-5.9,17.6-15.2,30-6.6c1.4,14.7-7.1,30.8-19.6,33.1
	c11.5,4,24.2,5.2,25.5,18.3c0.9,8.2-2.7,16-10.5,20.8C68.4,161.7,60.6,169.6,52.6,176.9z"/>
<path class="st84" d="M233.4,96.1c0.1-7.7,0-15.6-5.2-21.6c-5.6-6.4-4.7-10.3,5.2-13.1c-5.1-4.1-16.2,0.9-12.8-9.9
	c7.4-6.6,11-15.3,13.5-24.6c2.6-9.5,9.8-14.1,18.7-15.6c9.5-1.6,14.4,4.7,17.6,12.6c3.1,7.7-1.4,14.5-5.6,19
	c-8.1,8.5-5.8,16.3-1.8,24.8c2.9,6.3,6.2,12.5,8.6,18.9c1.1,3-2,3.5-4.4,3.7C253.8,79.1,243.5,86.7,233.4,96.1z M260.5,49.4
	c-12.6-6.1-19.9-3.1-28,11.7C242.8,57.3,249.7,48.2,260.5,49.4z"/>
<path class="st84" d="M153,137.3c2.9,9.9,10.9,6,16.9,5.7c10-0.6,13.1,1.8,7.8,11.4c-2.2,3.9-2.3,9-4.6,12.8c-4.1,7.2-6.8,18-21,9.2
	c13.3,12.6,47.4,14.6,17.8,41.9c-9.2,1.8-15.7-3.4-22.5-8.2c-4.7-9-9.2-18.1-14.1-27.1c-3-5.4-2.3-9.6,3-13c3.8,2,7.6,4,11.4,6.1
	c2.8,1,4.9,1.2,3.3-2.9c-3-5.5-8.8-6.8-13.8-9.2c3.9-9.2,11.8-18,1.9-27.7c5.9-5,9.2,4.4,14.2,1.1C153.2,137.5,153,137.3,153,137.3z
	"/>
<path class="st83" d="M94,55.9c-4.7-8.7,3.4-30.2,12.4-31.9c4.8-0.9,8.7-2.7,12.6-5.3c3.5-2.3,6.7-9.2,11.2-4.8
	c4.3,4.2,8.4,10.3,5.9,17.5c-1.4,3.9-2.5,9.4-5.4,11c-15.8,8.7-5.5,17.7-1.4,27.1c2.9,6.6,11.4,14.9-3.7,18.1
	C116.8,91,111,100.9,100,98.9c0.7-13.6-7.3-24.6-11.1-36.8c4.5-2.2,7.8,1.7,11.9,2.1c9,1,15.9-1.6,19.5-10.7
	C111.5,58.2,103.2,61.7,94,55.9z"/>
<path class="st83" d="M231.9,145.7c-1.4-3.3,6.1-5.6-1.9-11c-13.8-9.2-10.7-23.9,4.1-33.4c10.4-5.8,19.8-17.6,33-5.1
	c0,9.6-9.3,16.3-7.5,26.9c0.7,4.4-5.9,1.5-9,2.6c-3.1,1.1-7.3,0.9-2.2,5.2C243.5,136.6,241.4,145.3,231.9,145.7z"/>
<path class="st83" d="M243.7,254.4c-0.8-1.1-2.2-3.1-2.2-3.1c-8.5,5.8-14.3,4.9-17.9-5.7c-3.9-11.6-0.5-19.6,10.4-24.7
	c10.3-6,19.9-17.4,33-4.9c-0.3,9.6-8.8,16.5-8,27.1c0.4,4.4-8.9,0.4-13,3.9c2.2,4.8,7.7,0.9,10.5,3.8
	C253.3,255.9,248.1,253.9,243.7,254.4z"/>
<path class="st84" d="M211.6,179.3c8,6.1,9.3,16.2,14,24.3c3.4,5.8,0.3,11.2-5.5,14.6c-5.6-3.6-11.3-7.2-16.9-10.8
	c-13.9,0.2-18.5-9.7-23.2-20.4c-2.9-6.5-0.9-10.1,3.8-13.6C194.6,167.8,203.3,172.7,211.6,179.3z"/>
<path class="st84" d="M152.7,60.1c2.2,2.2,4,5.2,7.9,4.8c14.7-1.6,16.9,10.5,20.2,19.8c2.8,8-6.9,9.3-10.8,13.8
	c-8.6,2.4-14.7-4.5-22.2-5.9c0,0,0.1,0.1,0.1,0.1c-4.7-9.4-9.2-18.8-14-28.2c-2.8-5.5-3.8-10.5,2.6-14.2
	C141.8,53.6,147.3,56.8,152.7,60.1z"/>
<path class="st86" d="M128.8,90.5c6,0,5.5,3.9,4.2,7.6c-3,8.8-7.7,16.6-8.2,27c-0.3,6.8-10.6,13.4-20.1,13.9
	c-12.6,0.7-14.7-10.3-17.2-18.4c-2.3-7.5,1.1-15,9.9-18C111.6,108.3,119.6,97.9,128.8,90.5z"/>
<path class="st83" d="M80.8,286.1c-12.6-4.4-20.5,3.2-28.3,11.1c-3,0.9-6.5,3.1-9.2,0.8c-3.4-2.9,0.3-5.9,1.5-8.5
	c4.4-9.6,9.5-18.8,10.9-29.5c4.7-3.1,9.4-6.2,14.1-9.4c9.9-0.4,18.6,2.4,21.1,12.8C93.1,272.8,88.9,280.6,80.8,286.1z"/>
<path class="st83" d="M117.8,292.8c-8.5,7-17.1,7.8-26.1,0.8c-0.7-14.7,7-26.9,18.9-30.8c3-1,5.6-3.2,8.4-4.7
	c3.7-1.9,6.8-9.1,11.3-4.6c4.2,4.2,7.7,10.2,5.7,17.6C133.3,281.3,125.7,287.1,117.8,292.8z"/>
<path class="st84" d="M211.5,59.5c7.8,6.5,11.1,15.9,14,24.8c2.3,7.3,1.2,15.4-10.6,12.3c-6.6-8-14.6-13.1-25.5-11.4
	c-2.1-4-3.9-8.3-6.5-11.9c-7.6-10.5-4.2-17.5,6.5-22.5C198.4,49.5,204.8,54.8,211.5,59.5z"/>
<path class="st83" d="M188.2-28.4c0.7,0,1.1-0.4,1.3-1.1c13.4-2.5,19.2,10.9,29.8,14.4c-9.8,10.9-1,21.3,2,31.5
	c-5.5,2.2-8-1.2-10.4-3.6c-6.6-6.4-14.2-8.3-23-6.5C176.1,9,175,1.7,177.8-6.2C180.5-13.8,182.2-22.2,188.2-28.4z"/>
<path class="st84" d="M136.8,148.7c-0.6,10.7-24.2,31.3-34.9,30.5c-9.5-0.7-11.3-7.6-9.6-16.4c3.4-17.6,19.6-19.1,30.3-27.3
	C127.3,131.9,137.2,141.4,136.8,148.7z"/>
<path class="st86" d="M170.1,102.9c4.4,1.6,3.5,4.5,2,7.6c-1.9,3.7-2.8,7.2-1.4,11.7c5.4,16.5,3,18.7-15,15
	c-0.8-0.2-1.8,0.1-2.7,0.1c0,0,0.2,0.1,0.2,0.1c-2.1-6.9-7.9-9.4-14-11.3c-8.2-2.5-10.2-8.1-5.5-14.6c4.6-6.4,2.4-18,14.2-18.8
	c0,0-0.1-0.1-0.1-0.1C151.1,104.8,160.1,105,170.1,102.9z"/>
<path class="st83" d="M55.7,254.9c-10.1-1.3-16.1-13.8-11.9-23.6c2.4-5.5,6.8-8.3,11.7-10.7c9.1-6.5,17.8-14.5,30-6.7
	c4.4,11.2-8.5,18.8-6.2,30c0.5,2.5-6.6,0.5-9.8,2.3C63.1,246.2,59.4,250.6,55.7,254.9z"/>
<path class="st84" d="M243.7,254.4c4.5-0.5,9.7,1.5,12.9-3.5c20.4,6.8,17.4,21.7,3.1,38.2c-5.3-5-7.8-5.4-14.5-2.3
	c-4.5,2.1-8.4,5.1-11.2,9.3c-3.8,0.7-8.1,5.3-11.3,0.9c-2.2-3,0.9-7.2,3-10C233,276.9,230.5,261.3,243.7,254.4z"/>
<path class="st84" d="M231.9,145.7c9.6-0.4,11.6-9.1,16.4-14.8c11.6-2.6,19.6,2.6,22.1,13.3c2.1,9.1-1.1,17.8-11.2,21.7
	c-15.4-1.1-23.3,3.5-25.3,14.7l-0.2,0.1c-14.5-1.7-11.9-9-6.1-17.9C230.9,157.8,232.8,152,231.9,145.7z"/>
<path class="st84" d="M219.2,225c-4.3,7.5-6.7,14.8-1,23.1c1.3,1.9,6.5,7.2-1,9.6c-8.8-7.7-17.2-16.7-30.8-10.9
	c-3.7,1.5-6.2,1.9-8.3-3.1c-4.9-12,8-32.8,21.2-33.1C206.1,215.4,212.6,220.2,219.2,225z"/>
<path class="st84" d="M117,218.2c6.2,1.7,9.9-10.6,15.3-4.3c4,4.8-4.2,10.3-4.9,16c-1.4,11.8-6.1,21.1-16.9,27
	c-4.7,2.6-10,4.7-13.7,0.2c-5.5-6.5-11.3-13.9-9.1-23.2c1.3-5.5,3.7-11.8,12.1-10.4c6.5,1.1,13,0.9,17.3-5.4
	C117.1,218.1,117,218.2,117,218.2z"/>
<path class="st84" d="M97.3-17.4c8.5,4.1,15.7,1.3,22.5-4.1c4.1-3.3,7.8-7.8,14-7c-6.3,14.2-4.5,32.2-19.6,42.4
	c-5.3,3.6-10.5,9.6-16.8,3.7C91,11.7,85.6,3.9,87.7-5.3C88.7-9.9,90-16.7,97.3-17.4z"/>
<path class="st83" d="M214.5,101.1c1.1,1.4,3.5,3.4,3.2,4c-5.8,10.5-0.9,19.8,2.6,29.4c0.8,2.3-1.1,2.9-3,3.2
	c-8.8-7.7-17.3-16.6-30.8-10.4c-9,1.5-11.1-6.2-9.3-10.8c3.6-9.4,5.4-20.3,15.1-26.5C201.7,89.4,206.3,98.7,214.5,101.1z"/>
<path class="st83" d="M150.2,14.4c4.2,9.2,8.9,11.1,21.3,8.4c2.9-0.6,5.7-3.9,8.6,0c2.5,3.4,2,6.9,0.2,10.4
	c-2.7,5.4-5.7,10.6-7.8,16.2c-3.9,10.6-10.4,11.8-19.2,6.3c-3.6-5-8-8.8-14.2-9.9c-1.8-1.8-2.4-3.8-0.4-5.9
	c7.1-7.5,5.7-15.6,1.4-23.8c0.9-0.7,1.8-1.4,2.7-2.1c2.6-0.3,4.7,5,7.7,0.7C150.4,14.6,150.2,14.4,150.2,14.4z"/>
<path class="st84" d="M170,222.7c0.8,11.2,1.8,22.4,2,33.7c0,0.7-6,2.8-8.8,2.2c-11.4-2.5-19.7-11.2-29.6-16.7
	c-6.6-3.7,4.7-24.7,13.9-25.9C153.6,222.6,160.6,226.7,170,222.7z"/>
<path class="st86" d="M89.1,179c9.6,5,19.2,7.2,28.6,0c4.5-3.5,6.2-1.5,8,2.6c1.8,4.3,3.7,8.5,6,12.5c3.7,6.4,4,10.4-4.7,12.9
	c-4.8,1.3-11.3,3.5-10.1,11.2c0,0,0.1-0.1,0.1-0.1c-2.6-2.7-5.1-0.2-7.7,0.1c-7.2,0.9-13.6,3.2-11.2-9.6c1.8-9.8-8.3-18.1-10.1-28.2
	C88.4,179.8,88.8,179.4,89.1,179z"/>
<path class="st83" d="M55.5,212.7c-3.4-6.8-1.5-16.3-10.5-20.2c-1-6.1,2.2-9.3,7.7-10.8c9.5-2.4,15.1-15.3,27.4-10
	c-2,11.6,6.4,19.7,9.7,29.5c1.2,3.6,6.1,9.1-3.5,8.2C74.8,198.9,65.4,207.6,55.5,212.7z"/>
<path class="st84" d="M218,49.3c-1.7,2.1-2.7,5.1-6.4,4.4c-5.9-7.3-13.2-10.3-22.5-7.5c-4-0.8-9.8,0.3-4.9-7.3
	c2.8-4.3,6.5-9,3.7-15.4c-1.1-2.6-6.2-5.6-1.3-8.9c4.7-3.2,10.5-5,15.5-1.6c6.9,4.6,12.8,10.3,21.5,12c4.6,0.9,2.9,4.9,1.5,7.9
	C222.8,38.3,220.4,43.8,218,49.3z"/>
<path class="st83" d="M233.7,180.7c0,0,0.2-0.1,0.2-0.1c8.5-2.8,14.4-12.5,25.1-9.8c-0.7,11,6,19.5,9.8,29c1.2,2.9,7.5,8.1-1.4,10.1
	c-4.6-4.6-10.2-5.5-16.4-5.1c-7.7,0.5-11.8,8.8-19.6,8.9c5.4-6.7,0.9-12.5-2.3-17.7C224.5,188.6,224.5,183.5,233.7,180.7z"/>
<path class="st83" d="M79.4,51c0,0-0.3-0.2-0.3-0.2c-0.2,11.5,6.7,20.5,10.8,30.4c1.5,3.7,6,9.3-3.6,8.4c-11.4-10.5-20.9-1.6-30.9,3
	c-1.6-4.9-2.3-10.5-5.1-14.6c-6.8-9.8-3.3-15,6.5-18.5C63.8,55.4,70,49.1,79.4,51z"/>
<path class="st84" d="M217.3,142.6c7.6,1.2,12.2,4.2,6.8,12.5c-4.1,6.2-4,15.1-12.2,18.5c-7.3-10-18.1-8.3-28.3-8.4
	c4.7-10.8,4.4-22.1,3-33.5C198.8,129.7,207.2,138.7,217.3,142.6z"/>
<path class="st84" d="M211.7,293.4c-7.1-10.5-17.9-8.2-28-8.4c5.1-10.8,3.9-22.1,3-33.4c13.6-5.9,20.2,8.1,30.7,10.8
	c8.3,1,11.9,4.7,6.6,12.6C219.8,281.2,220.5,290.5,211.7,293.4z"/>
<path class="st79" d="M231.3,213.8c7.8-0.1,11.9-8.4,19.6-8.9c6.2-0.4,11.8,0.4,16.4,5.1c-0.1,2-0.3,4.1-0.4,6.1
	c-13.1-12.5-22.6-1.1-33,4.9C233.5,218.4,230.1,217,231.3,213.8z"/>
<path class="st79" d="M267,96.2c-13.2-12.4-22.6-0.6-33,5.1c-0.2-1.7-0.4-3.5-0.6-5.2c10-9.3,20.4-17,33.9-5.8
	C267.2,92.2,267.1,94.2,267,96.2z"/>
<path class="st79" d="M217.3,142.6c-10.2-3.9-18.5-12.9-30.7-10.9c-0.1-1.5-0.1-3-0.2-4.5c13.5-6.1,22,2.7,30.8,10.4
	C217.2,139.3,217.3,141,217.3,142.6z"/>
<path class="st79" d="M55.5,212.7c9.8-5.1,19.3-13.8,30.8-3.2c-0.3,1.4-0.5,2.9-0.8,4.3c-12.2-7.8-21,0.2-30,6.7c0-1.8,0-3.6,0-5.4
	c0-0.9,0-1.8,0.1-2.7L55.5,212.7z"/>
<path class="st79" d="M217.3,262.5c-10.6-2.7-17.1-16.7-30.7-10.8c0-1.6,0-3.2-0.1-4.8c13.6-5.9,22,3.2,30.8,10.9
	C217.3,259.3,217.3,260.9,217.3,262.5z"/>
<path class="st79" d="M55.4,92.8c9.9-4.7,19.5-13.5,30.9-3c-0.3,1.5-0.6,2.9-0.9,4.4c-12.4-8.7-20.8,0.7-30,6.6
	c0.1-1.8,0.1-3.5,0.2-5.3c0-0.9,0-1.9,0-2.8L55.4,92.8z"/>
<path class="st79" d="M128.8,90.5c-9.2,7.4-17.2,17.8-31.4,12.1c0.8-1.2,1.7-2.4,2.5-3.7c11.1,2,16.8-7.9,25.5-11.3
	C126.6,88.5,127.7,89.5,128.8,90.5z"/>
<path class="st79" d="M183.6,165.2c10.2,0.2,21-1.6,28.3,8.4c-0.1,1.9-0.2,3.8-0.4,5.7c-8.3-6.6-16.9-11.6-27.8-5.9
	c0-1.7,0.1-3.5,0.1-5.2c0-1.1-0.1-2.1-0.1-3.2L183.6,165.2z"/>
<path class="st79" d="M94,55.9c9.2,5.8,17.5,2.4,26.2-2.3c-3.6,9.1-10.4,11.7-19.5,10.7c-4-0.4-7.4-4.3-11.9-2.1
	c0,0,0.2,0.2,0.2,0.2c-0.2-1.8-0.4-3.5-0.6-5.3C90.3,56.6,92.1,56.2,94,55.9z"/>
<path class="st79" d="M80.1,171.7c-12.3-5.3-17.9,7.6-27.4,10c0-1.6-0.1-3.2-0.1-4.8c8-7.3,15.8-15.2,28.3-10.6
	C80.6,168.1,80.4,169.9,80.1,171.7z"/>
<path class="st79" d="M214.5,101.1c-8.1-2.3-12.8-11.7-22.3-11.1c-0.9-1.6-1.9-3.1-2.8-4.7c11-1.7,18.9,3.4,25.5,11.4
	C214.8,98.1,214.6,99.6,214.5,101.1z"/>
<path class="st79" d="M259,170.8c-10.7-2.7-16.6,7-25.1,9.8c2-11.2,9.9-15.8,25.3-14.7C259.1,167.5,259.1,169.2,259,170.8z"/>
<path class="st79" d="M189.2,46.2c9.3-2.7,16.6,0.3,22.5,7.5c0,1.9-0.1,3.9-0.1,5.8c-6.7-4.7-13.1-10-22.2-8.7
	C189.3,49.3,189.3,47.7,189.2,46.2z"/>
<path class="st79" d="M170,222.7c-9.4,4-16.3,0-22.5-6.8c0-1.9,0-3.9-0.1-5.8c6.7,4.8,13.3,10,22.5,8.2
	C169.9,219.8,169.9,221.2,170,222.7z"/>
<path class="st79" d="M170.1,102.9c-10,2.2-18.9,1.9-22.4-10.2c7.6,1.4,13.7,8.3,22.2,5.9C170,100,170,101.4,170.1,102.9z"/>
<path class="st79" d="M219.2,225c-6.6-4.8-13.2-9.6-19.8-14.5c1.2-1,2.4-2.1,3.6-3.1c5.6,3.6,11.3,7.2,16.9,10.8
	C219.8,220.5,219.5,222.8,219.2,225z"/>
<path class="st79" d="M139.1,45.7c6.3,1.1,10.7,4.9,14.2,9.9c-0.2,1.5-0.4,2.9-0.6,4.4c-5.4-3.2-10.9-6.5-16.3-9.7
	C137.3,48.8,138.2,47.3,139.1,45.7z"/>
<path class="st79" d="M55.7,254.9c3.8-4.3,7.5-8.7,13.9-8.7c0,1.5,0.1,3,0.1,4.4c-4.7,3.1-9.4,6.2-14.1,9.4
	C55.6,258.3,55.6,256.6,55.7,254.9z"/>
<path class="st79" d="M147.7,176.1c-3.8-2-7.6-4-11.4-6.1c0.3-2,0.5-4,0.8-6c5.1,2.4,10.8,3.7,13.8,9.2
	C149.8,174.2,148.7,175.2,147.7,176.1z"/>
<path class="st83" d="M88.4,56.9c0.2,1.8,0.4,3.5,0.6,5.3C86,60.8,86.1,59,88.4,56.9z"/>
<path class="st83" d="M140,16.1c-0.1-1.1-0.1-2.2-0.2-3.2c1,0.4,2,0.7,2.9,1.1C141.8,14.6,140.9,15.4,140,16.1z"/>
<path class="st94" d="M270,181.9c2.4-0.5,3.7,0.3,2.9,2.9C269.2,186.5,269.2,184.6,270,181.9z"/>
<path class="st94" d="M270.3,178.5c0,1.2-0.1,2.4-0.1,3.6c-0.8-0.5-1.6-1.1-2.5-1.6C268.6,179.8,269.4,179.2,270.3,178.5z"/>
<path class="st86" d="M88.1,180.3c-1.3-0.8-1.3-1.7-0.4-2.8c0.5,0.5,0.9,1.1,1.4,1.6C88.8,179.4,88.4,179.8,88.1,180.3z"/>
<path class="st83" d="M140,255.7c-0.1-1.1-0.2-2.2-0.2-3.3c1,0.4,2,0.8,2.9,1.1C141.8,254.3,140.9,255,140,255.7z"/>
<path class="st84" d="M183.8,165c0,1.1,0.1,2.1,0.1,3.2c-0.7-0.8-1.4-1.6-2.1-2.3C182.4,165.6,183.1,165.3,183.8,165z"/>
<path class="st84" d="M183.8,284.9c0.7,2.5-1.4,2.4-2.8,3C181.4,286.3,181.7,284.7,183.8,284.9z"/>
<path class="st94" d="M268.4,63.5c-0.1-1.2-0.2-2.4-0.3-3.6c1.1,0.3,2.2,0.7,3.2,1C270.4,61.7,269.4,62.6,268.4,63.5z"/>
<path class="st83" d="M30.6,58c0,0,0.2,0.1,0.2,0.1c7.9,7,11.2,16.7,15.4,25.8c2.2,4.7,0.6,9.5-2.9,12.7c-4.2,3.9-7.6,0-10.7-2.6
	C27,89,20.9,85.6,13,84.8C7.2,84.2-3,64.4-0.6,59.1c1.1-2.3,3.8-3.9,5.8-5.9C15,47.7,22.7,53.2,30.6,58z"/>
<path class="st84" d="M42.5,194.9c2.6,8.4,10.6,17.6-3.6,23.4c-5.8-3.4-9.8-9.6-16.7-11.2c-9.5-1.4-17-5.2-19.7-15.6
	c-1.4-5.3-7.2-10.1-0.1-15.8c6.9-5.6,13.9-7.3,21.4-2.1C31.8,179,38.5,185.8,42.5,194.9z"/>
<path class="st84" d="M38,222.4c-2.9,11.1-3.7,21.8,3.5,31.9c1.4,2-0.8,3-2.4,3.8c-10.4-7.3-19.7-18.6-34.7-10
	c-1.5-0.9-3.5-1.4-4.3-2.6c-8-12.1,3.2-20.3,6.6-29.9c2.6-7.4,9.4-5.5,15.3-3.8C26.8,215.9,31,221.2,38,222.4z"/>
<path class="st86" d="M30.4,134.5c-1.7,6.3,4,7.5,7.1,7.8c11.9,1.4,11,7.1,6.3,15c-1.9,3.2-3.5,6.6-4.8,10c-2.4,6-5.1,8.4-10.9,2.9
	c-7-6.7-16.1-5.1-26-3.2c3.4-11.1,9.3-19.6,3.8-30.5c-2.8-5.6,5.1-6,9.4-6.7c4.3-0.7,7.7,5.5,12.6,2l-0.1-0.3c-2,4,0.2,3.7,3,3
	L30.4,134.5z"/>
<path class="st83" d="M-23.9,296.7c-2-1.9-3.7-4.4-6.1-5.6c-8.7-4.4-14.1-9.1-6.7-19.5c4.1-5.7-1.9-11.3-2.8-17c0.5-0.5,1-1,1.5-1.5
	c10.8,7.1,21.2,16.2,35.2,6.6c5.9,2.8,6.3,7.3,3.7,12.6c-3.3,7-7.1,13.8-10,20.9C-12.7,301.7-18.3,298.8-23.9,296.7z"/>
<path class="st84" d="M-39.3,132.7c11,8.9,21.2,14,35.2,8.7c5.9-2.2,7.4,4.4,5.5,9.1c-3.3,8.2-7.3,16-11.2,23.9
	c-3.1,6.4-8.3,5.2-13,2.5c-5.6-3.3-10.6-7.5-16.1-10.8c-2.5-1.5-3.7-3.2-2-5.4C-34.3,151.9-35.6,142.8-39.3,132.7z"/>
<path class="st84" d="M-37.9,13.4c10.6,7.7,21.1,16.1,35,6.8c4,1.5,6.5,4.9,5,8.4c-4,9.7-8.5,19.1-13.5,28.3
	c-2.1,3.9-6.6,1.5-10.1,1.6c-3.1-2.7-5.9-6.1-9.5-7.9c-8-4-12.5-8.2-6-17.4c4.5-6.3-1.9-12.2-2.5-18.4C-38.9,14.5-38.4,14-37.9,13.4
	z"/>
<path class="st84" d="M27.9,131.8c-4.6-7.3-11.8-5.7-18.6-5.4c-3,0.2-6.4,2.7-8.9-0.8c-8.7-12.2,2.8-20.7,6.5-30.2
	c3-7.8,10.8-6.4,16.4-2c6.9,5.4,16.5,9.5,10.3,22.1c-4.1,8.4,8.5,12.4,8,20.8c-4.4,3.7-7.3-2.4-11.2-1.9c0,0,0.3,0.1,0.3,0.1
	c-1-1-2-2-3-3L27.9,131.8z"/>
<path class="st79" d="M4.3,248c15-8.6,24.3,2.7,34.7,10c0,1.5-0.1,3.1-0.1,4.6c-11-1.8-17.4-16.2-30.8-11.4
	C6.8,250.2,5.6,249.1,4.3,248z"/>
<path class="st79" d="M38.8,23.2C27.5,20.5,20.9,6.4,6.8,10C21.1,0,29.3,12.1,39,18.6C39,20.1,38.9,21.7,38.8,23.2z"/>
<path class="st79" d="M30.6,58C22.7,53.2,15,47.7,5.2,53.2c-1.2-2.7-7.9-3-3.5-8.1c1.3,1.8,2.5,3.5,3.8,0c0,0-0.2,0.1-0.2,0.1
	c9.2-0.1,18.8-1.4,25.4,7.3C32,54.3,33.8,56.3,30.6,58z"/>
<path class="st79" d="M79.4,51c-9.4-2-15.6,4.4-22.6,8.6c-1.8-0.4-3.6-0.9-5.4-1.3c6.6-6.1,12.5-13.8,22.9-13
	C77.5,45.5,82.3,45,79.4,51z"/>
<path class="st79" d="M38,222.4c-7-1.2-11.2-6.5-16.1-10.8c0.1-1.5,0.2-3.1,0.3-4.6c7,1.7,10.9,7.9,16.7,11.2
	C38.6,219.6,38.3,221,38,222.4z"/>
<path class="st83" d="M5.4,284.9c-1,1.3-2,2.6-3,3.9C2,286.4,2,284.3,5.4,284.9z"/>
<path class="st84" d="M5.5,45.2c-1.3,3.5-2.5,1.8-3.8,0C2.9,43.6,4.2,43.6,5.5,45.2z"/>
<path class="st83" d="M55.6,92.6c0,0.9,0,1.9,0,2.8c-1.6-0.1-2.5-0.9-2-2.5C53.6,92.6,54.9,92.7,55.6,92.6z"/>
<path class="st83" d="M55.6,212.4c-0.1,0.9-0.1,1.8-0.1,2.7c-1.6-0.1-2.3-0.9-1.9-2.4C53.8,212.4,55,212.5,55.6,212.4z"/>
<path class="st77" d="M66,12.1c-2.1,1.8-3.7,5.6-7.3,3.3c-1.5-1,0.1-3,1.6-4C62.2,11.6,64.1,11.9,66,12.1z"/>
<path class="st79" d="M66,12.1c-1.9-0.2-3.8-0.5-5.7-0.7c1.6-2.1,3.5-4.2,6.3-2.8C68.7,9.6,67.5,11.1,66,12.1z"/>
<path class="st79" d="M260.5,49.4c-10.8-1.2-17.7,7.9-28,11.7C240.6,46.3,247.9,43.3,260.5,49.4z"/>
<path class="st77" d="M147.7,176.1c1.1-1,2.2-1.9,3.3-2.9C152.6,177.3,150.4,177.1,147.7,176.1z"/>
<path class="st77" d="M27.7,131.6c1,1,2,2,3,3C28,135.3,25.7,135.6,27.7,131.6z"/>
</svg>
