<?xml version="1.0" encoding="utf-8"?>
<!-- Generator: Adobe Illustrator 24.0.2, SVG Export Plug-In . SVG Version: 6.00 Build 0)  -->
<svg version="1.1" id="Capa_1" xmlns="http://www.w3.org/2000/svg" xmlns:xlink="http://www.w3.org/1999/xlink" x="0px" y="0px"
	 viewBox="0 0 288 288" style="enable-background:new 0 0 288 288;" xml:space="preserve">
<style type="text/css">
	.st0{fill:#2D2D2D;}
	.st1{fill:#002530;}
	.st2{fill:#050523;}
	.st3{fill:#707C84;}
	.st4{fill:#E9E4DE;}
	.st5{fill:#EE3133;}
	.st6{fill:#FD99AF;}
	.st7{fill:#C4C2C0;}
	.st8{fill:#F2D8A3;}
	.st9{fill:#EFCB84;}
	.st10{fill:#EF692F;}
	.st11{fill:#4B343F;}
	.st12{fill:#16B198;}
	.st13{fill:#E72D52;}
	.st14{fill:#7B536F;}
	.st15{fill:#8F4CA9;}
	.st16{fill:#E2C29F;}
	.st17{fill:#9F4687;}
	.st18{fill:#A9A0AF;}
	.st19{fill:#CC4743;}
	.st20{fill:#8677A9;}
	.st21{fill:#8E5D8E;}
	.st22{fill:#DF615C;}
	.st23{fill:#9E4742;}
	.st24{fill:#D34861;}
	.st25{fill:#B75B6D;}
	.st26{fill:#DF6482;}
	.st27{fill:#FFFFFF;}
	.st28{fill:#829CA2;}
	.st29{fill:#F2B991;}
	.st30{fill:#E56759;}
	.st31{fill:#F5F3EE;}
	.st32{fill:#DC4B3F;}
	.st33{fill:#1D5A7D;}
	.st34{fill:#459492;}
	.st35{fill:#F0A349;}
	.st36{fill:#E4EFEB;}
	.st37{fill:#E17467;}
	.st38{fill:#B6BFBD;}
	.st39{fill:#F0E2D6;}
	.st40{fill:#396D89;}
	.st41{fill:#201A21;}
	.st42{fill:#48505D;}
	.st43{fill:#0B0707;}
	.st44{fill:#D30034;}
	.st45{fill:#6C919B;}
	.st46{fill:#F68C4A;}
	.st47{fill:#E5CFCD;}
	.st48{fill:#385B4D;}
	.st49{fill:#F14206;}
	.st50{fill:#BAD2D8;}
	.st51{fill:#F70059;}
	.st52{fill:#AA000C;}
	.st53{fill:#D8B5B2;}
	.st54{fill:#E08143;}
	.st55{fill:#F2E9E9;}
	.st56{fill:#F4D085;}
	.st57{fill:#23586A;}
	.st58{fill:#17241F;}
	.st59{fill:#EAE8E1;}
	.st60{fill:#253C4F;}
	.st61{fill:#F7FCFD;}
	.st62{fill:#0E151F;}
	.st63{fill:#8D897D;}
	.st64{fill:#BDB6AA;}
	.st65{fill:#EDE1AF;}
	.st66{fill:#DF786F;}
	.st67{fill:#E8C46F;}
	.st68{fill:#B0CEAD;}
	.st69{fill:#9FC4AF;}
	.st70{fill:#B8C6A0;}
	.st71{fill:#EBEC80;}
	.st72{fill:#DD7AB2;}
	.st73{fill:#D6D2D3;}
	.st74{fill:#69BCC5;}
	.st75{fill:#D0CBC1;}
	.st76{fill:#242424;}
	.st77{fill:#525252;}
	.st78{fill:#3D3D3D;}
	.st79{fill:#6B6B6B;}
	.st80{fill:#303030;}
	.st81{fill:#8A8A8A;}
	.st82{fill:#282828;}
	.st83{fill:#E6E6E6;}
	.st84{fill:#E8E8E8;}
	.st85{fill:#A9A9A9;}
	.st86{fill:#D9D9D9;}
	.st87{fill:#CACACA;}
	.st88{fill:#9E9E9E;}
	.st89{fill:none;}
	.st90{fill:#4A4744;}
	.st91{fill:#F0BA45;}
	.st92{fill:#F1D34E;}
	.st93{fill:none;stroke:#00A591;stroke-miterlimit:10;}
	.st94{fill:#EEEEEE;}
	.st95{fill:#FBFBFB;}
	.st96{fill:#F8F2DD;}
	.st97{fill:#8DB2A6;}
	.st98{fill:#ED8C58;}
	.st99{fill:#F0C153;}
	.st100{fill:#C2B146;}
	.st101{fill:#8E6E51;}
	.st102{fill:#1C1D4C;}
	.st103{fill:#111224;}
	.st104{fill:#26687B;}
	.st105{fill:#F8494A;}
	.st106{fill:#81819B;}
	.st107{fill:#80809B;}
	.st108{fill:#0AC6BB;}
	.st109{fill:#0BC5B9;}
	.st110{fill:#686888;}
	.st111{fill:#0BC5BA;}
	.st112{fill:#FEFEFE;}
	.st113{fill:#F8F5CE;}
	.st114{fill:#EF484B;}
	.st115{fill:#F94A4A;}
	.st116{fill:#F9F6CE;}
	.st117{fill:#DFE0E3;}
	.st118{fill:#04121D;}
	.st119{fill:#6693AB;}
	.st120{fill:#89BCD7;}
	.st121{fill:#FAF509;}
	.st122{fill:#0B2E41;}
	.st123{fill:#427491;}
	.st124{fill:#2A5973;}
	.st125{fill:#184259;}
	.st126{fill:#BCE4F7;}
	.st127{fill:#02111C;}
	.st128{fill:#FCF704;}
	.st129{fill:#F4F115;}
	.st130{fill:#DFE23F;}
	.st131{fill:#BCE6FA;}
	.st132{fill:#031D2B;}
	.st133{fill:#81851A;}
	.st134{fill:#1E1E1E;}
	.st135{fill:#F5142E;}
	.st136{fill:#05ACC0;}
	.st137{fill:#F87240;}
	.st138{fill:#FA723F;}
	.st139{fill:#F67240;}
	.st140{fill:#E37547;}
	.st141{fill:#07ADC0;}
	.st142{fill:#450D0D;}
	.st143{fill:#F57240;}
	.st144{fill:#440D0D;}
	.st145{fill:#470D0D;}
	.st146{fill:#EBECCC;}
	.st147{fill:#E9EACA;}
	.st148{fill:#00ABBF;}
	.st149{fill:#F6FAD9;}
	.st150{fill:#CBC3AC;}
	.st151{fill:#E2615D;}
	.st152{fill:#FAFAF8;}
	.st153{fill:#E8E4DA;}
	.st154{fill:#123057;}
	.st155{fill:#F4D16B;}
	.st156{fill:none;stroke:#F1D34E;stroke-miterlimit:10;}
	.st157{fill:#E3834C;}
	.st158{fill:#E9A779;}
	.st159{fill:#ECB74A;}
	.st160{fill:#00A591;}
</style>
<path class="st76" d="M314.4,113.6c2.5,11.5-3.3,13.5-13.1,12c-22.7-3.5-28.4-0.3-39.2,20.4c-2.9,5.6-6.9,10.7-9.8,16.3
	c-3.9,7.8-0.9,14.4,7.3,15c13.7,1.1,26.7,3.2,38.7,10.2c0.6,0.4,1.6,0.6,2.3,0.4c18-5.6,13.8,7.5,13.8,16.6c0.1,24.7,0.1,49.3,0,74
	c0,13.7-3.1,16.7-16.9,16.8c-17.1,0.1-34.2-0.1-51.3-0.2c-0.6,0-1.1-0.8-2.1-1.4c2.3-3.6,5.9-5.4,9.7-5.5
	c16.7-0.5,22.2-13.5,28.5-25.2c4.2-7.8-7.9-37.8-15.8-41.3c-2.1-0.9-3.9-0.7-5.5,0.7c-1.7,1.6-3.7,3.3-4.6,5.4
	c-8.2,17.8-19.1,28.4-40.6,19.6c-7.3-3-9.8,3.2-8.8,9.7c2.4,14.9,6.3,29,21.8,38.1c-14.7,0-29.5,0.3-44.2-0.2
	c-5.9-0.2-2.5-4.4-1.5-7c3.7-9.2,7.8-18.3,11.2-27.6c3.1-8.4,0.9-13.6-9.2-14.4c-12.9-1.1-26,0.3-38.6-5.8
	c-7.5-3.6-8.8,4.7-10.4,9.6c-4,12.8-5.3,26.4-10.6,39.1c-2.2,5.2-4.2,6.4-9.2,6.5c-5.8,0.2-6.5-3.1-6.6-7.5
	c-0.1-6.3-3.1-8.4-9.2-6.7c-6.2,1.8-12.6,0.9-18.9,0.2c-6-0.6-12.8-0.7-16.1,5.3c-7.6,14-19.1,8.6-29.8,6.5c-5-1-9.9-5.1-14.6-4.7
	C5.9,290.1,6,281.4,6.3,270c0.7-25,0.4-50.1,0.1-75.2c-0.1-6.5,1-10.4,8-13.5c20.5-8.9,25-35,9.8-51.7c-2.3-2.5-5.1-4.3-8.4-3.8
	c-8.5,1.1-9.6-3.3-9.5-10.4c0.3-26.2,0.4-52.5,0-78.8c-0.1-7.2,2.2-9.9,9.1-12.3c15.3-5.5,29.6-13,27.2-33.4
	c-0.4-3.6,2.2-3.6,4.6-3.6c8.2,0,16.3-1.2,22.4,7.1c5,6.8,12.7,10.7,21.3,12c13.3,2,16.7-0.2,19.6-13.5c0.8-3.8,1.9-5.8,5.9-5.6
	c3.8,0.2,7.7-0.8,9.9,4.4c3.7,8.8,3.9,17.5,1.8,26.8c-4.1,18.4-0.3,23.6,18.5,22.9c15-0.5,30.1-2.5,44.9-5.3
	c13.5-2.5,15-8.4,5.9-18.6c-5.3-5.9-10.9-11.6-16.3-17.4c-2.7-2.9-3.4-6.4-1.9-9.9c1.6-3.7,5.4-2.8,8.4-2.8
	c37.4-0.1,74.8,0.1,112.1-0.2c6.5,0,7.5,2.2,5.4,7.8c-2.6,6.8-3.3,13.9-3,21.1c0.2,3.6,0.3,8.6,4,9.2c10.2,1.7,8.2,8.9,8.2,15.4
	c0,10.7-0.1,21.5-0.2,32.2c-1.4,0-2.8,0-4.3,0c-4-4.7-1.7-16-11.2-14.3c-16.3,3-32.3-2.9-48.5,0.4c-7.4,1.5-23.8,24.8-21.1,32
	c0.3,0.7,0.7,1.4,1.2,2.1c3.9,6.1,7.8,12,16.3,12.3c5.3,0.2,9.2,2.9,10.3,8.3c1.9,9.3,7.5,8.2,14.4,5.9c5.6-1.9,7.4-6.7,10.3-10.8
	c1.4,0.8,2.7,1.7,4.1,2.5c9.1,11,14.5,11.2,25.4,0.8C312.1,112.6,313.3,113.1,314.4,113.6z M109.7,228c0.8-1.5,1.5-3,2.3-4.5
	c3.1,0.6,6.2,1.2,9.2,1.7c1.3,2.5,2.9,3.3,5.1,0.8c9.5,1.5,14.8-2.4,17.1-11.9c3.7-15.8,8-31.5,12.2-47.3
	c3.8-14.3,6.3-15.4,19.9-8.5c7.8,4,15.4,8.3,23.1,12.3c5.6,2.9,9.2,2,13.6-4c8.5-11.5,9.7-23.8,8.9-37.2c-2.2-33.1,0-33.8-32.8-30.7
	c-14.2,1.3-16.8-2.1-15.7-16.4c0.2-2.4,0.5-4.7,0.7-7.1c2.3-25.1,1.2-26.2-24.3-26.4c-1.2,0-2.4,0.1-3.6-0.1
	c-10.2-1.3-16,3-19.8,12.7c-8,20.5-5.4,27.7-34.9,15.8c-12.4-5-16.4-1.8-17.3,11.8c-0.6,8.6,2.3,18.5-3.3,25.6
	c-7.1,9-8.3,19.4-10.8,29.6c-7,27.8-3,29.8,19.6,29.8c1.6,0,3.1,0.8,4.7,0.9c8.2,0.7,11.8,5,12,13.2c0.3,9.9-0.1,19.9,2.6,29.6
	c-1.3,1.3-2.6,2.7-3.9,4c-2.3-0.3-4.8-0.4-7-1.1c-9.3-3-13.2-0.4-11.9,9.9c0.9,6.6,0.1,13.5,0.2,20.2c0.5,24.6,7.1,28.5,29.7,17.9
	c1.4-0.7,2.9-1.4,4.2-2.3c8.6-5.5,16.1-12.5,16.4-23.3C126.2,232.9,115.6,232.6,109.7,228z M64.7,8.2c-6-1.3-10.6,1.9-14.5,6
	c-5,5.1-9.9,10.2-16.4,13.6C21.2,34.4,8.3,63.6,11.6,77.6c0.3,1.5,0.9,3.1,1.8,4.3C22,93.3,31.2,104.3,42.7,113
	c7.8,5.9,13.2,4,16-5.2c2.8-9.5,5.8-19,7.8-28.7c2.2-10.3,8.2-14.7,18.3-15.1c7.1-0.3,14.3-0.8,21.3-2c6.7-1.1,9.2-5.3,7.5-12.1
	C107.9,28.4,86.3,9.7,64.7,8.2z M274.5,49.7c7.9,0.5,13.1,1.3,18.2,1c4.9-0.3,11.1,0.3,13.1-5.8c1.8-5.4-3.1-8.4-6.4-11.8
	c-7.4-7.6-13.5-15.7-9.8-27.3c1.2-3.6,0.1-5.8-3.4-7.6c-19.4-9.7-49.4-2.2-62,15.6c-8.5,12.1-7.2,18.3,6.1,25.2
	C245,46.7,260.6,50.6,274.5,49.7z M41.1,211c-7.6,1.3-23.4,1-25.3,10.7c-3,15.7-8.8,33.5,2.1,49.2c6.2,9,17.6,10.2,26.1,15.9
	c10,6.7,16.1,2.7,17.2-9.6c0.5-5.9-1.4-12.6,2.1-17.5c11.3-15.8,1.6-28.5-5.4-41.6C54.9,212.6,50.2,210.4,41.1,211z M257.8,200.3
	c1.1-14-11-20.9-16.2-31.3c-5.3-10.5-12.1-10-18.8-0.4c-3.6,5.2-5.1,12.4-11,15.3c-16.3,8-14.7,22.6-15.1,36.8
	c-0.2,7.6,2.7,13.4,10,15.9c9.6,3.4,21.9,10.6,29.2,3C246.1,229.1,254.5,215.6,257.8,200.3z M307.8,242.4
	c-0.7-8.1-1.8-21.5-3.2-34.9c-0.5-4.8-1.9-9.4-7.4-11.1c-6.8-2.1-13.4-4.7-20.3-6.7c-3.2-1-7.4-3.1-9.6,1c-2.2,4.1-3.8,8.8,0.1,13.3
	c4.4,5.1,8.5,10.4,13,15.4c14.2,15.6,21.9,32.1,8.4,52c-0.6,0.9-0.8,2.2-1.2,3.4c-2,5.6-1.8,9,5.4,11.4c7.7,2.5,10.2-0.3,11.8-6.6
	C307.5,269.1,307.7,258.4,307.8,242.4z M181.5,75.7c-0.2,10.7,2.2,14.3,9.1,15c14,1.3,34.1-11.3,39.3-24.5c3-7.6,0.8-12.8-6.3-16.8
	c-23.4-13.1-36.6-7.1-41,19.1C182.2,71.3,181.8,74,181.5,75.7z M155,220.1c-1.3,9.5,2.7,15.2,14.6,13.9c3-0.3,6.3,0.8,9.4,1.4
	c8.6,1.8,11.4-1.5,10.6-10.2c-1-11.7-6.6-23-3-35.1c0.8-2.8-0.8-4.3-4.1-3.9C172.8,187.6,155.1,208.2,155,220.1z M227.4,132.8
	c1.9,7.5-1.9,18.2,9.8,20.4c7.9,1.5,20.4-11.9,20.2-20.4c-0.2-7.8-11.8-21.4-19-20.6C225.4,113.6,229.7,125.1,227.4,132.8z
	 M87.8,191.5c1-7.9-1.6-11.4-10-9.5c-4.6,1-9.4,0.7-14.2,1.3c-5.5,0.6-13.2-5.6-15.9,1.5c-2.8,7.4,5.8,11.1,10.6,15.5
	c1.8,1.6,3.8,2.9,5.9,4c5.5,2.9,11.2,8,17.6,4.3C87.7,205,87,197.6,87.8,191.5z M205.1-9.5c-3.1,2.1-11.2-1.6-9.6,6.1
	c1.8,8.7,7.8,16.2,14.6,22.2c1.9,1.7,11.8-13.7,11.2-19C220.3-10,211.6-7.1,205.1-9.5z M44.6,166.5c4.3-10.8,6.4-21.7,6-33.1
	c-0.2-5.3-4.2-8.3-8.2-10.9c-2.3-1.5-5.2-3.2-7.7-1.4c-2.6,1.9-1.6,5.1-0.5,7.6C39.6,140.7,40.6,153.8,44.6,166.5z M120.9,48.7
	c1.6-12.3-0.8-21.1-1.8-30c-0.5-4.7-4.3-5.2-7.9-5.7c-2.8-0.4-5.7,0-7.5,2.6c-2.2,3.1-1.4,6.4,1,8.7C111,30.5,114.3,38.7,120.9,48.7
	z M22.6,204.7c5.9-1.2,15.1,1.2,16.5-6.9c1.2-6.6-6.5-9.4-12.4-9.7c-6.9-0.3-12.4,4.2-13.6,10.8C12,205.3,18.1,204.2,22.6,204.7z
	 M159.4,182.8c0.2,2.9-1.1,5.7,1.4,7.1c2.3,1.3,4.6,0,6.5-1.4c5-3.5,8.8-8,10-14.1c1.1-5.7-1.9-10.8-6.7-12.6
	c-5.9-2.2-6.2,4.5-7.7,7.9C161.2,174.1,160.5,178.9,159.4,182.8z M207,281.5c-2.3-3,0.9-11.6-5.8-10.9c-5.7,0.6-7.3,8.4-8.3,14.3
	c-0.8,5,1.7,7.5,6.6,7.3C205.9,292,206.9,287.5,207,281.5z M12.1,106.3c2.4,3.8-1.8,11.8,5.9,12.7c4,0.5,6-5.1,6.1-8.9
	c0.1-5.2-4-8.8-8.5-10C11.1,99,12.5,103.2,12.1,106.3z M107.2,66.5c-3,1.8-10-1.2-10.3,3.9c-0.4,6.4,7,6.4,11.6,7.1
	c3.9,0.7,6.2-2.6,6-6.8C114.2,66.2,111.1,66,107.2,66.5z"/>
<path class="st77" d="M310.1,72.9c1.4,0,2.8,0,4.3,0c0,13.6,0.1,27.1,0.1,40.7c-1.1-0.5-2.3-1-3.4-1.5c1.5-4.1,2-8.5-3.8-8.7
	c-8-0.2-16.8-1.3-21.6,7.9c-1.4-0.8-2.7-1.7-4.1-2.5c-0.8-8.6,6.5-9,11.7-10.8C305.5,93.8,311.1,85.7,310.1,72.9z"/>
<path class="st94" d="M121.2,225.2c-3.1-0.6-6.2-1.2-9.2-1.7c-4.6-1.9-9.2-3.7-13.8-5.6c-2.7-9.7-2.3-19.7-2.6-29.6
	c-0.3-8.2-3.9-12.6-12-13.2c-1.6-0.1-3.1-0.9-4.7-0.9c-22.6,0-26.5-2.1-19.6-29.8c2.6-10.3,3.8-20.6,10.8-29.6
	c5.6-7.1,2.7-16.9,3.3-25.6c0.9-13.6,4.9-16.8,17.3-11.8c29.5,11.9,26.9,4.7,34.9-15.8c3.8-9.7,9.6-14.1,19.8-12.7
	c1.2,0.2,2.4,0,3.6,0.1c25.5,0.2,26.5,1.3,24.3,26.4c-0.2,2.4-0.6,4.7-0.7,7.1c-1.1,14.4,1.5,17.8,15.7,16.4
	c32.7-3.1,30.6-2.4,32.8,30.7c0.9,13.4-0.4,25.7-8.9,37.2c-4.4,6-7.9,6.9-13.6,4c-7.8-4-15.4-8.3-23.1-12.3
	c-13.5-6.9-16-5.8-19.9,8.5c-4.2,15.7-8.5,31.4-12.2,47.3c-2.2,9.5-7.6,13.3-17.1,11.9C124.7,224.8,123.1,224.3,121.2,225.2z"/>
<path class="st94" d="M64.7,8.2c21.6,1.6,43.2,20.3,48.7,41.7c1.8,6.9-0.8,11.1-7.5,12.1c-7,1.1-14.2,1.7-21.3,2
	c-10.1,0.4-16.1,4.9-18.3,15.1c-2,9.7-5,19.2-7.8,28.7c-2.7,9.2-8.2,11.1-16,5.2C31.2,104.3,22,93.3,13.4,81.9
	c-0.9-1.2-1.5-2.8-1.8-4.3c-3.2-14,9.7-43.2,22.2-49.8c6.5-3.4,11.4-8.5,16.4-13.6C54.2,10.1,58.7,6.9,64.7,8.2z"/>
<path class="st94" d="M310.1,72.9c1,12.8-4.6,20.9-16.8,25c-5.2,1.7-12.4,2.2-11.7,10.8c-2.8,4.2-4.6,8.9-10.3,10.8
	c-6.9,2.3-12.4,3.4-14.4-5.9c-1.1-5.4-5-8.1-10.3-8.3c-8.4-0.3-12.4-6.2-16.3-12.3c-0.4-0.7-0.9-1.3-1.2-2.1
	c-2.7-7.2,13.7-30.5,21.1-32c16.2-3.2,32.2,2.6,48.5-0.4C308.3,56.9,306.1,68.2,310.1,72.9z"/>
<path class="st94" d="M274.5,49.7c-13.9,0.9-29.5-3-44.2-10.6c-13.4-6.9-14.7-13.2-6.1-25.2c12.6-17.8,42.5-25.3,62-15.6
	c3.5,1.7,4.5,4,3.4,7.6c-3.7,11.6,2.4,19.7,9.8,27.3c3.3,3.4,8.1,6.3,6.4,11.8c-2,6.1-8.2,5.5-13.1,5.8
	C287.6,51,282.4,50.2,274.5,49.7z"/>
<path class="st94" d="M41.1,211c9.1-0.6,13.9,1.6,16.8,7.1c7.1,13.1,16.7,25.8,5.4,41.6c-3.5,4.9-1.6,11.6-2.1,17.5
	c-1.1,12.3-7.2,16.3-17.2,9.6c-8.5-5.7-19.8-6.9-26.1-15.9c-10.9-15.8-5.1-33.6-2.1-49.2C17.7,212,33.5,212.3,41.1,211z"/>
<path class="st94" d="M257.8,200.3c-3.3,15.3-11.7,28.8-22,39.4c-7.3,7.5-19.6,0.4-29.2-3c-7.2-2.6-10.1-8.3-10-15.9
	c0.3-14.2-1.3-28.9,15.1-36.8c5.9-2.9,7.4-10.1,11-15.3c6.7-9.6,13.6-10,18.8,0.4C246.8,179.3,258.9,186.3,257.8,200.3z"/>
<path class="st94" d="M109.7,228c5.9,4.6,16.6,5,16.2,15.2c-0.4,10.8-7.8,17.7-16.4,23.3c-1.3,0.9-2.8,1.6-4.2,2.3
	c-22.6,10.7-29.3,6.7-29.7-17.9c-0.1-6.7,0.6-13.6-0.2-20.2c-1.3-10.3,2.5-12.9,11.9-9.9c2.2,0.7,4.7,0.7,7,1.1
	C98.8,225.5,104.2,226.8,109.7,228z"/>
<path class="st84" d="M307.8,242.4c-0.2,16-0.4,26.7-3,37.2c-1.6,6.2-4.1,9.1-11.8,6.6c-7.2-2.4-7.4-5.8-5.4-11.4
	c0.4-1.1,0.5-2.4,1.2-3.4c13.5-20,5.8-36.5-8.4-52c-4.5-5-8.6-10.3-13-15.4c-3.8-4.4-2.3-9.2-0.1-13.3c2.2-4.1,6.4-1.9,9.6-1
	c6.8,2,13.5,4.5,20.3,6.7c5.5,1.7,6.9,6.4,7.4,11.1C306.1,220.9,307.1,234.3,307.8,242.4z"/>
<path class="st84" d="M181.5,75.7c0.3-1.7,0.7-4.4,1.1-7.1c4.4-26.2,17.6-32.3,41-19.1c7.1,4,9.3,9.2,6.3,16.8
	c-5.2,13.2-25.3,25.8-39.3,24.5C183.7,90,181.3,86.4,181.5,75.7z"/>
<path class="st83" d="M155,220.1c0.1-11.9,17.8-32.6,27.6-33.9c3.2-0.4,4.9,1.1,4.1,3.9c-3.6,12.1,2,23.4,3,35.1
	c0.8,8.7-2.1,12-10.6,10.2c-3.1-0.6-6.3-1.7-9.4-1.4C157.7,235.3,153.7,229.7,155,220.1z"/>
<path class="st83" d="M227.4,132.8c2.3-7.7-2-19.2,11-20.6c7.2-0.8,18.8,12.8,19,20.6c0.2,8.5-12.3,21.9-20.2,20.4
	C225.5,150.9,229.3,140.3,227.4,132.8z"/>
<path class="st83" d="M87.8,191.5c-0.8,6.1,0,13.6-6.1,17.1c-6.3,3.7-12.1-1.3-17.6-4.3c-2.1-1.1-4.1-2.5-5.9-4
	c-4.9-4.4-13.4-8.1-10.6-15.5c2.7-7.1,10.5-0.9,15.9-1.5c4.7-0.5,9.6-0.2,14.2-1.3C86.2,180.1,88.8,183.6,87.8,191.5z"/>
<path class="st83" d="M205.1-9.5c6.4,2.4,15.2-0.6,16.2,9.3c0.6,5.3-9.4,20.7-11.2,19c-6.8-6-12.7-13.5-14.6-22.2
	C193.9-11,202.1-7.4,205.1-9.5z"/>
<path class="st83" d="M44.6,166.5c-3.9-12.7-5-25.8-10.4-37.8c-1.1-2.5-2.2-5.8,0.5-7.6c2.4-1.7,5.4-0.1,7.7,1.4
	c4,2.6,8,5.6,8.2,10.9C51,144.8,48.8,155.8,44.6,166.5z"/>
<path class="st87" d="M120.9,48.7c-6.6-10-9.9-18.2-16.2-24.4c-2.3-2.3-3.2-5.6-1-8.7c1.8-2.6,4.7-2.9,7.5-2.6
	c3.6,0.5,7.4,1,7.9,5.7C120.1,27.6,122.5,36.4,120.9,48.7z"/>
<path class="st86" d="M22.6,204.7c-4.5-0.5-10.6,0.6-9.5-5.8c1.2-6.6,6.7-11.1,13.6-10.8c5.9,0.3,13.6,3.1,12.4,9.7
	C37.7,205.8,28.5,203.5,22.6,204.7z"/>
<path class="st83" d="M159.4,182.8c1-3.9,1.7-8.7,3.6-13c1.5-3.5,1.7-10.1,7.7-7.9c4.8,1.8,7.8,6.8,6.7,12.6
	c-1.2,6.1-5,10.6-10,14.1c-2,1.4-4.3,2.7-6.5,1.4C158.3,188.5,159.6,185.8,159.4,182.8z"/>
<path class="st86" d="M285.6,111.3c4.8-9.1,13.6-8.1,21.6-7.9c5.8,0.1,5.3,4.5,3.8,8.7C300.2,122.4,294.7,122.2,285.6,111.3z"/>
<path class="st85" d="M207,281.5c0,6.1-1.1,10.5-7.4,10.7c-4.9,0.1-7.4-2.4-6.6-7.3c1-5.9,2.5-13.7,8.3-14.3
	C207.8,269.8,204.6,278.5,207,281.5z"/>
<path class="st87" d="M12.1,106.3c0.4-3.1-1-7.4,3.4-6.2c4.6,1.2,8.6,4.8,8.5,10c0,3.8-2.1,9.4-6.1,8.9
	C10.3,118.1,14.6,110.1,12.1,106.3z"/>
<path class="st85" d="M107.2,66.5c3.9-0.4,7-0.3,7.2,4.2c0.2,4.2-2.1,7.5-6,6.8c-4.6-0.8-11.9-0.7-11.6-7.1
	C97.1,65.2,104.2,68.3,107.2,66.5z"/>
<path class="st77" d="M109.7,228c-5.5-1.1-10.9-2.5-15.5-6.1c1.3-1.3,2.6-2.7,3.9-4c4.6,1.9,9.2,3.7,13.8,5.6
	C111.2,225,110.4,226.5,109.7,228z"/>
<path class="st77" d="M121.2,225.2c1.9-0.9,3.5-0.4,5.1,0.8C124.1,228.5,122.5,227.8,121.2,225.2z"/>
</svg>
