<?xml version="1.0" encoding="utf-8"?>
<!-- Generator: Adobe Illustrator 24.0.2, SVG Export Plug-In . SVG Version: 6.00 Build 0)  -->
<svg version="1.1" id="Capa_1" xmlns="http://www.w3.org/2000/svg" xmlns:xlink="http://www.w3.org/1999/xlink" x="0px" y="0px"
	 viewBox="0 0 288 288" style="enable-background:new 0 0 288 288;" xml:space="preserve">
<style type="text/css">
	.st0{fill:#2D2D2D;}
	.st1{fill:#002530;}
	.st2{fill:#050523;}
	.st3{fill:#707C84;}
	.st4{fill:#E9E4DE;}
	.st5{fill:#EE3133;}
	.st6{fill:#FD99AF;}
	.st7{fill:#C4C2C0;}
	.st8{fill:#F2D8A3;}
	.st9{fill:#EFCB84;}
	.st10{fill:#EF692F;}
	.st11{fill:#4B343F;}
	.st12{fill:#16B198;}
	.st13{fill:#E72D52;}
	.st14{fill:#7B536F;}
	.st15{fill:#8F4CA9;}
	.st16{fill:#E2C29F;}
	.st17{fill:#9F4687;}
	.st18{fill:#A9A0AF;}
	.st19{fill:#CC4743;}
	.st20{fill:#8677A9;}
	.st21{fill:#8E5D8E;}
	.st22{fill:#DF615C;}
	.st23{fill:#9E4742;}
	.st24{fill:#D34861;}
	.st25{fill:#B75B6D;}
	.st26{fill:#DF6482;}
	.st27{fill:#FFFFFF;}
	.st28{fill:#829CA2;}
	.st29{fill:#F2B991;}
	.st30{fill:#E56759;}
	.st31{fill:#F5F3EE;}
	.st32{fill:#DC4B3F;}
	.st33{fill:#1D5A7D;}
	.st34{fill:#459492;}
	.st35{fill:#F0A349;}
	.st36{fill:#E4EFEB;}
	.st37{fill:#E17467;}
	.st38{fill:#B6BFBD;}
	.st39{fill:#F0E2D6;}
	.st40{fill:#396D89;}
	.st41{fill:#201A21;}
	.st42{fill:#48505D;}
	.st43{fill:#0B0707;}
	.st44{fill:#D30034;}
	.st45{fill:#6C919B;}
	.st46{fill:#F68C4A;}
	.st47{fill:#E5CFCD;}
	.st48{fill:#385B4D;}
	.st49{fill:#F14206;}
	.st50{fill:#BAD2D8;}
	.st51{fill:#F70059;}
	.st52{fill:#AA000C;}
	.st53{fill:#D8B5B2;}
	.st54{fill:#E08143;}
	.st55{fill:#F2E9E9;}
	.st56{fill:#F4D085;}
	.st57{fill:#23586A;}
	.st58{fill:#17241F;}
	.st59{fill:#EAE8E1;}
	.st60{fill:#253C4F;}
	.st61{fill:#F7FCFD;}
	.st62{fill:#0E151F;}
	.st63{fill:#8D897D;}
	.st64{fill:#BDB6AA;}
	.st65{fill:#EDE1AF;}
	.st66{fill:#DF786F;}
	.st67{fill:#E8C46F;}
	.st68{fill:#B0CEAD;}
	.st69{fill:#9FC4AF;}
	.st70{fill:#B8C6A0;}
	.st71{fill:#EBEC80;}
	.st72{fill:#DD7AB2;}
	.st73{fill:#D6D2D3;}
	.st74{fill:#69BCC5;}
	.st75{fill:#D0CBC1;}
	.st76{fill:#242424;}
	.st77{fill:#525252;}
	.st78{fill:#3D3D3D;}
	.st79{fill:#6B6B6B;}
	.st80{fill:#303030;}
	.st81{fill:#8A8A8A;}
	.st82{fill:#282828;}
	.st83{fill:#E6E6E6;}
	.st84{fill:#E8E8E8;}
	.st85{fill:#A9A9A9;}
	.st86{fill:#D9D9D9;}
	.st87{fill:#CACACA;}
	.st88{fill:#9E9E9E;}
	.st89{fill:none;}
	.st90{fill:#4A4744;}
	.st91{fill:#F0BA45;}
	.st92{fill:#F1D34E;}
	.st93{fill:none;stroke:#00A591;stroke-miterlimit:10;}
	.st94{fill:#EEEEEE;}
	.st95{fill:#FBFBFB;}
	.st96{fill:#F8F2DD;}
	.st97{fill:#8DB2A6;}
	.st98{fill:#ED8C58;}
	.st99{fill:#F0C153;}
	.st100{fill:#C2B146;}
	.st101{fill:#8E6E51;}
	.st102{fill:#1C1D4C;}
	.st103{fill:#111224;}
	.st104{fill:#26687B;}
	.st105{fill:#F8494A;}
	.st106{fill:#81819B;}
	.st107{fill:#80809B;}
	.st108{fill:#0AC6BB;}
	.st109{fill:#0BC5B9;}
	.st110{fill:#686888;}
	.st111{fill:#0BC5BA;}
	.st112{fill:#FEFEFE;}
	.st113{fill:#F8F5CE;}
	.st114{fill:#EF484B;}
	.st115{fill:#F94A4A;}
	.st116{fill:#F9F6CE;}
	.st117{fill:#DFE0E3;}
	.st118{fill:#04121D;}
	.st119{fill:#6693AB;}
	.st120{fill:#89BCD7;}
	.st121{fill:#FAF509;}
	.st122{fill:#0B2E41;}
	.st123{fill:#427491;}
	.st124{fill:#2A5973;}
	.st125{fill:#184259;}
	.st126{fill:#BCE4F7;}
	.st127{fill:#02111C;}
	.st128{fill:#FCF704;}
	.st129{fill:#F4F115;}
	.st130{fill:#DFE23F;}
	.st131{fill:#BCE6FA;}
	.st132{fill:#031D2B;}
	.st133{fill:#81851A;}
	.st134{fill:#1E1E1E;}
	.st135{fill:#F5142E;}
	.st136{fill:#05ACC0;}
	.st137{fill:#F87240;}
	.st138{fill:#FA723F;}
	.st139{fill:#F67240;}
	.st140{fill:#E37547;}
	.st141{fill:#07ADC0;}
	.st142{fill:#450D0D;}
	.st143{fill:#F57240;}
	.st144{fill:#440D0D;}
	.st145{fill:#470D0D;}
	.st146{fill:#EBECCC;}
	.st147{fill:#E9EACA;}
	.st148{fill:#00ABBF;}
	.st149{fill:#F6FAD9;}
	.st150{fill:#CBC3AC;}
	.st151{fill:#E2615D;}
	.st152{fill:#FAFAF8;}
	.st153{fill:#E8E4DA;}
	.st154{fill:#123057;}
	.st155{fill:#F4D16B;}
	.st156{fill:none;stroke:#F1D34E;stroke-miterlimit:10;}
	.st157{fill:#E3834C;}
	.st158{fill:#E9A779;}
	.st159{fill:#ECB74A;}
	.st160{fill:#00A591;}
</style>
<path class="st77" d="M154.8,145.5c0,50.8,0,101.7,0,152.5c0,2.5-0.1,5-0.2,7.6c-0.1,1.8-1,3.3-2.9,3.3c-2,0-2.8-1.6-2.8-3.4
	c-0.1-2.9-0.1-5.9-0.1-8.8c0-100.4,0-200.8,0-301.2c0-2.5-0.1-5,0.1-7.6c0.1-1.6,0.1-3.6,2.3-3.9c2.9-0.4,3.4,1.8,3.4,3.9
	c0.1,2.9,0.1,5.9,0.1,8.8c0,49.6,0,99.1,0,148.7C154.8,145.5,154.8,145.5,154.8,145.5z"/>
<path class="st78" d="M25.4,308.3c0-108.2,0-216.4,0-324.6c0.9,0,1.9,0,2.8,0c0,108.3,0,216.6,0,324.8
	C27.3,308.4,26.4,308.4,25.4,308.3z"/>
<path class="st77" d="M123.7,145.7c0-49.6,0-99.3,0-148.9c0-3.4,0-6.7,0.3-10.1c0.1-1.8,1.3-3.2,3.2-2.8c1,0.2,2.3,1.5,2.4,2.5
	c0.4,2.5,0.3,5,0.3,7.5c0,101,0,201.9,0,302.9c0,1.3,0.2,2.6,0,3.8c-0.5,2.9,1.8,7.9-3.5,7.7c-4-0.2-2.6-4.6-2.6-7.3
	c-0.1-14.3-0.1-28.6-0.1-42.9C123.7,220.6,123.7,183.1,123.7,145.7z"/>
<path class="st77" d="M100.2,308.1c0-108.1,0-216.3,0-324.4c1,0,2.1,0,3.1,0c0,108.3,0,216.5,0,324.8
	C102.2,308.4,101.2,308.2,100.2,308.1z"/>
<path class="st78" d="M78.6-16.2c0,108.1,0,216.3,0,324.4c-0.9,0-1.8,0-2.7,0c0-108,0-216.1,0-324.1C76.8-16.1,77.7-16.2,78.6-16.2z
	"/>
<path class="st78" d="M53.3-15.8c0,108.1,0,216.2,0,324.3c-0.9,0-1.9,0-2.8,0c0-108.2,0-216.4,0-324.6C51.4-16,52.3-15.9,53.3-15.8z
	"/>
<path class="st80" d="M278.3-15.7c0,108.1,0,216.1,0,324.2c-0.9,0-1.8,0-2.7,0c0-108.2,0-216.4,0-324.6
	C276.5-16,277.4-15.9,278.3-15.7z"/>
<path class="st78" d="M250.4,308.8c0-108.3,0-216.6,0-324.9c0.8,0,1.7,0,2.5,0c0,108.3,0,216.5,0,324.8
	C252.1,308.7,251.3,308.7,250.4,308.8z"/>
<path class="st80" d="M1.6-15.8c3.6,7.8,4.6,309.4,1.1,323.9C-1.4,301.5-2.4-2.4,1.6-15.8z"/>
<path class="st77" d="M176.6-16.7c5,4,3,9,3,13.1c0.1,100.1,0.1,200.2,0.1,300.3c0,1.7,0,3.4-0.1,5c-0.2,2.7,1.2,6.9-3.2,6.6
	c-4.2-0.2-2.7-4.5-2.7-7.1c0-103.9,0-207.8,0-311.7C173.8-12.4,173.8-14.5,176.6-16.7z"/>
<path class="st77" d="M201.8-16.9c4.5,4,2.8,8.4,2.8,12.3c0.1,100.5,0.1,201.1,0.1,301.6c0,2.5,0,5-0.1,7.6c-0.1,2.2-0.4,4.4-3.3,4
	c-2-0.3-2.3-2.2-2.3-3.9c-0.1-2.5-0.1-5-0.1-7.6c0-100.5,0-201.1,0.1-301.6C199.1-8.3,197.3-12.8,201.8-16.9z"/>
<path class="st78" d="M225.2,308.3c0-108.2,0-216.3,0-324.5c0.9,0,1.8,0,2.7,0c0,108.1,0,216.3,0,324.4
	C227,308.2,226.1,308.2,225.2,308.3z"/>
</svg>
