<?xml version="1.0" encoding="utf-8"?>
<!-- Generator: Adobe Illustrator 24.0.2, SVG Export Plug-In . SVG Version: 6.00 Build 0)  -->
<svg version="1.1" id="Capa_1" xmlns="http://www.w3.org/2000/svg" xmlns:xlink="http://www.w3.org/1999/xlink" x="0px" y="0px"
	 viewBox="0 0 288 288" style="enable-background:new 0 0 288 288;" xml:space="preserve">
<style type="text/css">
	.st0{fill:#2D2D2D;}
	.st1{fill:#002530;}
	.st2{fill:#050523;}
	.st3{fill:#707C84;}
	.st4{fill:#E9E4DE;}
	.st5{fill:#EE3133;}
	.st6{fill:#FD99AF;}
	.st7{fill:#C4C2C0;}
	.st8{fill:#F2D8A3;}
	.st9{fill:#EFCB84;}
	.st10{fill:#EF692F;}
	.st11{fill:#4B343F;}
	.st12{fill:#16B198;}
	.st13{fill:#E72D52;}
	.st14{fill:#7B536F;}
	.st15{fill:#8F4CA9;}
	.st16{fill:#E2C29F;}
	.st17{fill:#9F4687;}
	.st18{fill:#A9A0AF;}
	.st19{fill:#CC4743;}
	.st20{fill:#8677A9;}
	.st21{fill:#8E5D8E;}
	.st22{fill:#DF615C;}
	.st23{fill:#9E4742;}
	.st24{fill:#D34861;}
	.st25{fill:#B75B6D;}
	.st26{fill:#DF6482;}
	.st27{fill:#FFFFFF;}
	.st28{fill:#829CA2;}
	.st29{fill:#F2B991;}
	.st30{fill:#E56759;}
	.st31{fill:#F5F3EE;}
	.st32{fill:#DC4B3F;}
	.st33{fill:#1D5A7D;}
	.st34{fill:#459492;}
	.st35{fill:#F0A349;}
	.st36{fill:#E4EFEB;}
	.st37{fill:#E17467;}
	.st38{fill:#B6BFBD;}
	.st39{fill:#F0E2D6;}
	.st40{fill:#396D89;}
	.st41{fill:#201A21;}
	.st42{fill:#48505D;}
	.st43{fill:#0B0707;}
	.st44{fill:#D30034;}
	.st45{fill:#6C919B;}
	.st46{fill:#F68C4A;}
	.st47{fill:#E5CFCD;}
	.st48{fill:#385B4D;}
	.st49{fill:#F14206;}
	.st50{fill:#BAD2D8;}
	.st51{fill:#F70059;}
	.st52{fill:#AA000C;}
	.st53{fill:#D8B5B2;}
	.st54{fill:#E08143;}
	.st55{fill:#F2E9E9;}
	.st56{fill:#F4D085;}
	.st57{fill:#23586A;}
	.st58{fill:#17241F;}
	.st59{fill:#EAE8E1;}
	.st60{fill:#253C4F;}
	.st61{fill:#F7FCFD;}
	.st62{fill:#0E151F;}
	.st63{fill:#8D897D;}
	.st64{fill:#BDB6AA;}
	.st65{fill:#EDE1AF;}
	.st66{fill:#DF786F;}
	.st67{fill:#E8C46F;}
	.st68{fill:#B0CEAD;}
	.st69{fill:#9FC4AF;}
	.st70{fill:#B8C6A0;}
	.st71{fill:#EBEC80;}
	.st72{fill:#DD7AB2;}
	.st73{fill:#D6D2D3;}
	.st74{fill:#69BCC5;}
	.st75{fill:#D0CBC1;}
	.st76{fill:#242424;}
	.st77{fill:#525252;}
	.st78{fill:#3D3D3D;}
	.st79{fill:#6B6B6B;}
	.st80{fill:#303030;}
	.st81{fill:#8A8A8A;}
	.st82{fill:#282828;}
	.st83{fill:#E6E6E6;}
	.st84{fill:#E8E8E8;}
	.st85{fill:#A9A9A9;}
	.st86{fill:#D9D9D9;}
	.st87{fill:#CACACA;}
	.st88{fill:#9E9E9E;}
	.st89{fill:none;}
	.st90{fill:#4A4744;}
	.st91{fill:#F0BA45;}
	.st92{fill:#F1D34E;}
	.st93{fill:none;stroke:#00A591;stroke-miterlimit:10;}
	.st94{fill:#EEEEEE;}
	.st95{fill:#FBFBFB;}
	.st96{fill:#F8F2DD;}
	.st97{fill:#8DB2A6;}
	.st98{fill:#ED8C58;}
	.st99{fill:#F0C153;}
	.st100{fill:#C2B146;}
	.st101{fill:#8E6E51;}
	.st102{fill:#1C1D4C;}
	.st103{fill:#111224;}
	.st104{fill:#26687B;}
	.st105{fill:#F8494A;}
	.st106{fill:#81819B;}
	.st107{fill:#80809B;}
	.st108{fill:#0AC6BB;}
	.st109{fill:#0BC5B9;}
	.st110{fill:#686888;}
	.st111{fill:#0BC5BA;}
	.st112{fill:#FEFEFE;}
	.st113{fill:#F8F5CE;}
	.st114{fill:#EF484B;}
	.st115{fill:#F94A4A;}
	.st116{fill:#F9F6CE;}
	.st117{fill:#DFE0E3;}
	.st118{fill:#04121D;}
	.st119{fill:#6693AB;}
	.st120{fill:#89BCD7;}
	.st121{fill:#FAF509;}
	.st122{fill:#0B2E41;}
	.st123{fill:#427491;}
	.st124{fill:#2A5973;}
	.st125{fill:#184259;}
	.st126{fill:#BCE4F7;}
	.st127{fill:#02111C;}
	.st128{fill:#FCF704;}
	.st129{fill:#F4F115;}
	.st130{fill:#DFE23F;}
	.st131{fill:#BCE6FA;}
	.st132{fill:#031D2B;}
	.st133{fill:#81851A;}
	.st134{fill:#1E1E1E;}
	.st135{fill:#F5142E;}
	.st136{fill:#05ACC0;}
	.st137{fill:#F87240;}
	.st138{fill:#FA723F;}
	.st139{fill:#F67240;}
	.st140{fill:#E37547;}
	.st141{fill:#07ADC0;}
	.st142{fill:#450D0D;}
	.st143{fill:#F57240;}
	.st144{fill:#440D0D;}
	.st145{fill:#470D0D;}
	.st146{fill:#EBECCC;}
	.st147{fill:#E9EACA;}
	.st148{fill:#00ABBF;}
	.st149{fill:#F6FAD9;}
	.st150{fill:#CBC3AC;}
	.st151{fill:#E2615D;}
	.st152{fill:#FAFAF8;}
	.st153{fill:#E8E4DA;}
	.st154{fill:#123057;}
	.st155{fill:#F4D16B;}
	.st156{fill:none;stroke:#F1D34E;stroke-miterlimit:10;}
	.st157{fill:#E3834C;}
	.st158{fill:#E9A779;}
	.st159{fill:#ECB74A;}
	.st160{fill:#00A591;}
</style>
<path class="st82" d="M268.3,259.7c-18.3,18.3-36.7,36.6-55,55c-0.2-16.7-0.8-33.4-0.5-50.1c0.2-7.5-2.3-9.5-9.5-9.3
	c-15.3,0.5-30.6,0.3-46,0.4c-0.9-2.1-2.5-2.7-4.6-2.3c-0.1-17.7-0.2-35.3-0.4-53c1.7,0,3.4,0,5.1,0c17.4,17,34.9,33.9,52.3,50.9
	c0.8,0.8,1.6,1.5,2.3,2.3c0.1-1.1,0.2-2.2,0.3-3.3c0.1-15,0-30,0.4-45c0.1-4-2.8-9.2,3.2-11.8c16.5,4,33.3,0.4,50,1.8
	c0.2,1.9,0.4,3.8,0.7,5.7c-16.9,17.2-33.8,34.4-50.8,51.7c0.4,1.1,0.7,2.3,1.1,3.4c17.3,0,34.6,0,52,0
	C268.8,257.3,268.5,258.5,268.3,259.7z"/>
<path class="st82" d="M24.7,264.8c-12.5,10.8-24,22.5-34.8,34.9c-2.8,0.8-4.6,2.6-5.6,5.2c-2.8,2.4-5.6,4.7-10.4,8.9
	c0-60.4,0-118.9,0-177.4c1.9-0.2,3.8-0.4,5.8-0.5c16.6,0.3,33.2-1.5,49.7,0.6c-0.2,1.2-0.4,2.4-0.7,3.7
	c-17.4,17.5-34.8,35-54.8,55.1c20.1,0,36.3,0,52.4,0c0.3,1.9,0.5,3.8,0.8,5.6c-17,17.2-33.9,34.4-50.9,51.6c0.4,1.2,0.8,2.4,1.2,3.6
	c17.3,0,34.6,0,51.9,0c-0.4,0.8-0.4,1.6-0.1,2.5C27.7,260.8,26.2,262.8,24.7,264.8z"/>
<path class="st82" d="M271.6-39.3c1.6-1.2,3.4-2,5-0.4c17.5,17.7,34.9,35.5,54.9,55.9c-16.1,0-29.2-0.1-42.3,0.1
	c-3.4,0-8.2-1.5-9.6,3.1c-1,3.4,2.5,5.8,4.8,7.9c15.3,14.7,30.7,29.2,46.1,43.8c-0.7,1.5-1.4,2.9-2.1,4.4c-16.8,0-33.7,0-50.5,0
	c-1.6-0.1-3.3-0.3-4.9-0.4c-0.2-17.7-0.5-35.4-0.7-53.1c2.7-0.8,7.2,0.7,7.5-3.4c0.2-3.5-3.6-4.4-6.7-5
	C272.6-4,272.1-21.6,271.6-39.3z"/>
<path class="st82" d="M209.4,72.1c6.3-2.4,3-7.9,3.1-11.7c0.6-15.9,0.5-31.8,0.7-47.7c4.1,3.9,9.3,3.3,14.4,3.3
	c12.9,0.1,25.8,0.2,38.7,0.3c0,1.9,0,3.9,0,5.8c-16.8,17.1-33.6,34.3-52.3,53.4c19.8,0,36,0,52.1,0c0.2,1.9,0.4,3.7,0.6,5.6
	c-15.1,15.5-30.2,31-45.3,46.4c-2.8,0.2-5.6,0.3-8.4,0.5c-0.1-6.9,0.4-14-0.4-20.8C211.2,95.5,216.3,83.2,209.4,72.1z"/>
<path class="st0" d="M277.5,80.5c17.4,17.1,34.7,34.1,52.1,51.2c-0.4,1.4-0.7,2.8-1.1,4.1c-17.1,0-34.1,0-51.2,0
	c-0.9-2-2.5-2.6-4.5-2.3c-0.2-17.7-0.4-35.4-0.5-53C274,80.5,275.7,80.5,277.5,80.5z"/>
<path class="st80" d="M278.6,200.4c17,17.4,33.9,34.8,50.9,52.1c-0.4,1.1-0.9,2.2-1.3,3.4c-16.9,0-33.9,0-50.8,0
	c-1-1.9-2.6-2.7-4.7-2.5c-0.1-17.7-0.2-35.3-0.3-53c2.1-0.1,4.3-0.1,6.4-0.2L278.6,200.4z"/>
<path class="st82" d="M276.9,259.3c17.8,17.4,35.5,34.8,53.3,52.2c-0.3,1.2-0.7,2.4-1,3.6c-17.1,0-34.2,0.1-51.4-0.1
	c-6.2-0.1-5.5-4.9-5.5-9c0-14.8,0.1-29.6,0.1-44.3C273.9,260.9,275.4,260.1,276.9,259.3z"/>
<path class="st82" d="M155.7-40.4c18.6,17,36.6,34.7,55.8,56.6c-20.2,0-37.1,0-54,0c-0.7-2.3-2.5-2.8-4.7-2.5
	c-0.1-17.7-0.1-35.4-0.2-53C153.7-39.7,154.7-40,155.7-40.4z"/>
<path class="st82" d="M35.8-40.6c15.2,14.9,30.3,30,45.8,44.7c3.4,3.3,5.7,8.6,11.7,8.5c0,1.4,0,2.8,0,4.2
	c-14.8-0.2-29.6-0.3-44.5-0.5C44.1,12,38.3,14.6,33,13.7c0.1-17.7,0.2-35.4,0.2-53.1C34.1-39.8,35-40.2,35.8-40.6z"/>
<path class="st84" d="M157.4,255.7c15.3-0.1,30.7,0.2,46-0.4c7.2-0.3,9.6,1.8,9.5,9.3c-0.4,16.7,0.2,33.4,0.5,50.1
	c-0.7,0.1-1.5,0.2-2.2,0.2c-17.6-17.9-35.2-35.9-52.9-53.8C158,259.3,157.7,257.5,157.4,255.7z"/>
<path class="st84" d="M209.4,72.1c6.9,11.1,1.8,23.4,3.1,35.1c0.8,6.9,0.3,13.9,0.4,20.8c-2.1,0.3-4.2,0.7-6.2,1
	c-16.4-16.1-32.7-32.3-49.1-48.4c-0.6-1.6-1.2-3.1-1.8-4.7c12.5-0.1,24.9,0.2,37.4-0.4c5.4-0.3,12,3.6,16.2-3.3L209.4,72.1z"/>
<path class="st76" d="M92,311.9c-18.2,6.8-36.9,2.2-55.4,2.7c-5.1,0.2-3.6-5.5-3.7-8.9c-0.4-13.8-0.6-27.5-0.9-41.3
	c1-1.8,1.9-3.7,2.9-5.5c0,0,1.1,0.5,1.1,0.5l1.2-0.2C55.5,276.8,71.7,296.4,92,311.9z"/>
<path class="st76" d="M278.6,200.4c0,0,0.2-0.2,0.2-0.2c3.5-7-5-4.7-6.2-8.1c-0.1-16.8-0.1-33.5-0.2-50.3c1.9-0.1,3.7-0.3,5.5-0.4
	c16.7,16.7,33.4,33.4,50,50.2c-0.1,1.2-0.1,2.4-0.2,3.5c-14.1,0.2-28.1,0.3-42.2,0.7C282.6,195.9,277.5,193.8,278.6,200.4z"/>
<path class="st82" d="M149.2,259c-15.8,16-31.6,32-47.6,48c-2.7,2.7-4.6,7.5-10,5.2c3.1-18.6,0.2-37.3,1.5-55.9
	c2.2-0.2,4.4-0.4,6.5-0.6c16.5,0.2,33,0.3,49.5,0.5C149.2,257,149.2,258,149.2,259z"/>
<path class="st86" d="M266.2,16.2c-12.9-0.1-25.8-0.2-38.7-0.3c-5,0-10.2,0.6-14.4-3.3c0,0-0.1-0.6-0.1-0.6
	c20.9-13.8,35.8-33.8,53.5-50.9c1.8-0.1,3.6-0.3,5.4-0.4c0,0-0.3-0.1-0.3-0.1c0.5,17.7,0.9,35.3,1.4,53
	C270.7,14.5,268.5,15.4,266.2,16.2z"/>
<path class="st84" d="M93.1,256.2c-1.2,18.6,1.7,37.3-1.5,55.9c0,0,0.4-0.1,0.4-0.1c-20.3-15.5-36.5-35.2-54.8-52.7
	c0.1-1.2,0.3-2.4,0.4-3.6c16.6-0.2,33.2-0.4,49.8-0.6C89.3,255.5,91.2,255.8,93.1,256.2z"/>
<path class="st82" d="M209.3,72.2c-4.1,7-10.8,3-16.2,3.3c-12.4,0.6-24.9,0.3-37.4,0.4c-1.1-0.3-2.1-0.6-3.2-0.8
	c-0.1-17.2-0.3-34.4-0.4-51.6c2.4-0.3,4.9-0.7,7.3-1C176,39,192.6,55.6,209.3,72.2z"/>
<path class="st76" d="M-26.4,130.7c0-17.7,0.1-35.3,0.1-53c0.8-0.8,1.7-1.7,2.5-2.5c16.7,0.1,33.3,0.2,50,0.3
	c0.2,1.9,0.5,3.7,0.7,5.6C10.7,97.6-5.6,114-21.9,130.4C-23.4,130.5-24.9,130.6-26.4,130.7z"/>
<path class="st82" d="M266.6-38.8C248.9-21.7,233.9-1.7,213,12.1c-0.1-14.7,0.3-29.5-0.5-44.2c-0.5-9.4,2-13.2,12-12.5
	c13.8,0.9,27.6,0.3,41.4,0.3C266.2-42.5,266.4-40.7,266.6-38.8z"/>
<path class="st76" d="M93.4,8.2c-0.1-14.3,0.1-28.6-0.6-42.9c-0.4-8.3,2.9-10.1,10.4-9.8c14.3,0.5,28.6,0.2,42.9,0.3
	c0.3,1.9,0.6,3.8,0.9,5.7C131.3-22.7,115.5-6.9,99.8,8.9C97.6,8.6,95.5,8.4,93.4,8.2z"/>
<path class="st82" d="M-26.5,11c-0.2-15.2,0-30.5-0.6-45.7c-0.4-8.2,3-10.1,10.5-9.8C-2.4-44,12-44.4,26.3-44.3c0,2.3-0.1,4.7-0.1,7
	c-16,16-32,31.9-48,47.9C-23.4,10.7-25,10.8-26.5,11z"/>
<path class="st76" d="M158.2,261c17.6,17.9,35.2,35.9,52.9,53.8c-16.2,0.1-32.4-0.1-48.6,0.5c-8,0.3-10.5-2.5-10.2-10.3
	c0.6-14.3,0.2-28.7,0.3-43C154.5,261.7,156.4,261.4,158.2,261z"/>
<path class="st76" d="M-26.3,69.4c0-16.7,0.1-33.5,0.1-50.2c0.8-0.6,1.6-1.2,2.4-1.8c1.1-0.4,2.2-0.9,3.3-1.3c0.9-0.2,1.7,0,2.4,0.6
	c0.5,1.1,1,2.2,1.4,3.2c0.4-1.1,0.9-2.2,1.3-3.3c10.2-1.3,20.4-1.3,30.7-0.1c0.2,5.1,0.3,10.1,0.5,15.2C12.5,37.6,7.5,41.8,2,45.6
	c-1-1.3-1.9-3.3-3.9-2.2c-3.3,1.9-1.7,5.2-1.8,8c-2.4,4.3-5.7,7.7-10,10.2c-4.7-0.4-7,1.7-6.8,6.5c-0.6,0.6-1.3,1.3-1.9,1.9
	C-23.6,69.8-25,69.6-26.3,69.4z"/>
<path class="st79" d="M159.4,22.5c-2.4,0.3-4.9,0.7-7.3,1c-2.1-0.3-4.2-0.6-6.4-0.9c0.2-2.1,0.4-4.3,0.6-6.4
	c2.2-0.8,4.3-1.6,6.5-2.4c2.2-0.4,3.9,0.2,4.7,2.5C158.1,18.3,158.8,20.4,159.4,22.5z"/>
<path class="st79" d="M277.9,141.5c-1.8,0.1-3.7,0.3-5.5,0.4c-2,0-4.1,0-6.1,0.1c0-2,0-4-0.1-6c2.2-0.8,4.4-1.6,6.6-2.4
	c2-0.3,3.6,0.2,4.5,2.3C277.5,137.7,277.7,139.6,277.9,141.5z"/>
<path class="st79" d="M277.5,80.5c-1.7,0-3.5,0-5.2,0c-1.9,0.2-3.8,0.3-5.6,0.5c-0.2-1.9-0.4-3.7-0.6-5.6c2.3-0.1,4.6-0.3,6.9-0.4
	c1.6,0.1,3.3,0.3,4.9,0.4C277.7,77.1,277.6,78.8,277.5,80.5z"/>
<path class="st79" d="M158.2,261c-1.9,0.3-3.7,0.7-5.6,1c-1.2-1-2.3-2-3.5-3.1c0-1,0-1.9,0-2.9c1.2-0.9,2.4-1.8,3.6-2.7
	c2.1-0.5,3.7,0.2,4.6,2.3C157.7,257.5,158,259.3,158.2,261z"/>
<path class="st79" d="M276.9,259.3c-1.5,0.8-3,1.6-4.4,2.4c-1.4-0.6-2.8-1.3-4.2-1.9c0.2-1.2,0.5-2.4,0.7-3.6
	c1.2-0.9,2.4-1.8,3.6-2.7c2.1-0.2,3.7,0.6,4.7,2.5C277.2,257,277,258.1,276.9,259.3z"/>
<path class="st86" d="M34.9,258.9c-1,1.8-1.9,3.7-2.9,5.5c-2.4,0.1-4.9,0.2-7.3,0.3c1.5-2,3-4,4.5-6.1
	C31.1,258.8,33,258.9,34.9,258.9z"/>
<path class="st79" d="M93.4,8.2c2.1,0.2,4.3,0.5,6.4,0.7c-1,2.3-1.8,4.7-0.4,7.2c-2.1,0.2-4.2,0.3-6.2,0.5l0.1,0.3
	c0-1.4,0-2.8,0-4.2C93.3,11.2,93.3,9.7,93.4,8.2z"/>
<path class="st84" d="M209.8,251.3c-17.4-17-34.9-33.9-52.3-50.9c1.1-1.7,2.2-3.4,3.2-5.1c16,0,32,0,48.1,0c0.5-1,1.1-2,1.6-3.1
	c-17.5-16.9-34.9-33.9-52.4-50.8c-0.2-1.9-0.4-3.8-0.7-5.6c17.4,0,34.8,0,52.1,0c0.9,0.3,1.8,0.5,2.7,0.8
	c0.2,13.2-0.1,26.5,0.7,39.7c0.3,5.8-3.7,12.7,3.2,17.4l0-0.1c-6,2.5-3.1,7.7-3.2,11.8c-0.3,15-0.3,30-0.4,45
	C211.6,250.6,210.7,250.9,209.8,251.3z"/>
<path class="st83" d="M272.6,253.4c-1.2,0.9-2.4,1.8-3.6,2.7c-17.3,0-34.6,0-52,0c-0.4-1.1-0.7-2.3-1.1-3.4
	c16.9-17.2,33.8-34.4,50.8-51.7c1.9-0.2,3.8-0.4,5.6-0.6C272.4,218.1,272.5,235.7,272.6,253.4z"/>
<path class="st83" d="M152.8,253.4c-1.2,0.9-2.4,1.8-3.6,2.7c-16.5-0.2-33-0.3-49.5-0.5c-0.6-1.8-1.1-3.6-1.7-5.4
	c16.3-16.4,32.6-32.8,49-49.2c1.8-0.2,3.7-0.4,5.5-0.5C152.6,218.1,152.7,235.7,152.8,253.4z"/>
<path class="st94" d="M216.1,193.5l0,0.1c16.7-17.2,33.4-34.4,50.1-51.7c2,0,4.1,0,6.1-0.1c0.1,16.8,0.1,33.5,0.2,50.3
	c-2.2,1.1-4.4,2.1-6.5,3.2C249.4,193.8,232.6,197.5,216.1,193.5z"/>
<path class="st79" d="M152.4,200.4c-1.8,0.2-3.7,0.4-5.5,0.5c-1.2-1.9-2.4-3.7-3.5-5.6c3-0.2,6-0.3,8.9-0.5c2.8,0.1,5.7,0.3,8.5,0.4
	c-1.1,1.7-2.2,3.4-3.2,5.1C155.8,200.4,154.1,200.4,152.4,200.4z"/>
<path class="st79" d="M266,195.3c2.2-1.1,4.4-2.1,6.5-3.2c1.1,3.4,9.7,1.1,6.2,8.1c-2.1,0.1-4.3,0.1-6.4,0.2
	c-1.9,0.2-3.8,0.4-5.6,0.6C266.5,199.1,266.2,197.2,266,195.3z"/>
<path class="st85" d="M209.8,251.3c0.9-0.3,1.8-0.7,2.7-1c-0.1,1.1-0.2,2.2-0.3,3.3C211.4,252.8,210.6,252,209.8,251.3z"/>
<path class="st83" d="M29.3,256.3c-17.3,0-34.6,0-51.9,0c-0.4-1.2-0.8-2.4-1.2-3.6c17-17.2,33.9-34.4,50.9-51.6
	c2.2-0.3,4.4-0.6,6.6-0.8c-1.7,17.7-0.9,35.5-0.4,53.2C31.9,254.3,30.6,255.3,29.3,256.3z"/>
<path class="st84" d="M-20.4,135.9c-0.5-1.8-1-3.7-1.5-5.5C-5.6,114,10.7,97.6,27,81.1c2.2-0.2,4.3-0.4,6.5-0.6
	c-0.1,17.7-0.2,35.3-0.3,53c-1.3,1-2.6,2-3.9,3C12.8,134.4-3.8,136.3-20.4,135.9z"/>
<path class="st84" d="M26.3,195.4c-16.1,0-32.2,0-52.4,0c20-20.1,37.4-37.6,54.8-55.1c1.6,0.5,3.1,1.1,4.7,1.6
	c-0.3,17.7-0.5,35.3-0.8,53C30.5,195,28.4,195.2,26.3,195.4z"/>
<path class="st79" d="M33.3,141.9c-1.6-0.5-3.1-1.1-4.7-1.6c0.2-1.2,0.4-2.4,0.7-3.7c1.3-1,2.6-2,3.9-3c2.2-0.4,3.7,0.5,4.5,2.6
	c0.1,1.8,0.3,3.6,0.4,5.4C36.5,141.6,34.9,141.8,33.3,141.9z"/>
<path class="st79" d="M26.3,195.4c2.1-0.2,4.2-0.3,6.3-0.5c1,0.2,2,0.4,3.1,0.7c0.2,1.2,0.3,2.3,0.5,3.5c-0.8,0.4-1.6,0.8-2.4,1.2
	c-2.2,0.3-4.4,0.6-6.6,0.8C26.8,199.1,26.5,197.3,26.3,195.4z"/>
<path class="st79" d="M29.3,256.3c1.3-1,2.6-1.9,3.9-2.9c2.1-0.5,3.6,0.2,4.4,2.3c-0.1,1.2-0.3,2.4-0.4,3.6l-1.2,0.2
	c0,0-1.1-0.5-1.1-0.5c-1.9-0.1-3.8-0.1-5.7-0.2C28.9,257.9,29,257.1,29.3,256.3z"/>
<path class="st94" d="M272.9,75.1c-2.3,0.1-4.6,0.3-6.9,0.4c-16.2,0-32.4,0-52.1,0c18.7-19.1,35.5-36.3,52.3-53.4c2,0,4,0,6,0
	C272.5,39.7,272.7,57.4,272.9,75.1z"/>
<path class="st79" d="M272.2,22c-2,0-4,0-6,0c0-1.9,0-3.9,0-5.8c2.3-0.8,4.5-1.7,6.8-2.5c3.1,0.6,7,1.5,6.7,5
	C279.4,22.7,274.9,21.2,272.2,22z"/>
<path class="st83" d="M266.6,81c1.9-0.2,3.8-0.3,5.6-0.5c0.2,17.7,0.4,35.4,0.5,53c-2.2,0.8-4.4,1.6-6.6,2.4
	c-16.2-0.3-32.4-0.6-48.6-0.9c1.3-2.5,2.5-5,3.8-7.5C236.4,112,251.5,96.5,266.6,81z"/>
<path class="st85" d="M221.3,127.5c-1.3,2.5-2.5,5-3.8,7.5c-1.8,0.5-3.5,1-5.3,1.5c-0.9-0.3-1.8-0.5-2.7-0.8c-1-2.2-2-4.5-2.9-6.7
	c2.1-0.3,4.2-0.7,6.2-1C215.7,127.8,218.5,127.6,221.3,127.5z"/>
<path class="st83" d="M99.4,16.1c-1.4-2.5-0.6-4.8,0.4-7.2c15.8-15.8,31.5-31.6,47.3-47.4c1.9-0.3,3.7-0.5,5.6-0.8
	c0.1,17.7,0.1,35.4,0.2,53c-2.2,0.8-4.3,1.6-6.5,2.4C130.7,16.1,115.1,16.1,99.4,16.1z"/>
<path class="st83" d="M48.8,16.4c14.8,0.2,29.6,0.3,44.5,0.5c0,0-0.1-0.3-0.1-0.3c-1.2,18.6,1.3,37.3-1.3,55.8c0,0,0.2-0.2,0.2-0.2
	c-5.1-0.6-7.5-4.9-10.7-8.1c-14.5-14-29-28.1-43.5-42.2C39.8,16.5,47.2,22.2,48.8,16.4z"/>
<path class="st83" d="M-20.5,16.2c-0.4-1.9-0.9-3.7-1.3-5.6c16-16,32-31.9,48-47.9c2.3-0.7,4.7-1.4,7-2C33.2-21.7,33.1-4,33,13.7
	c-2.2,0.8-4.3,1.6-6.5,2.4c-3.7,0.2-7.4,0.3-11.1,0.5C5.2,15.3-5,15.3-15.3,16.6c-0.9,0-1.9,0.1-2.8,0.1
	C-18.8,16.2-19.6,16-20.5,16.2z"/>
<path class="st79" d="M26.5,16.1c2.2-0.8,4.3-1.6,6.5-2.4c5.3,0.9,11.1-1.7,15.8,2.7c-1.6,5.8-9.1,0.1-10.9,5.5
	c-1.6,0-3.2,0.1-4.8,0.1c-2.2,0-4.4,0-6.6,0C26.5,20.1,26.5,18.1,26.5,16.1z"/>
<path class="st82" d="M206.6,129c1,2.2,2,4.5,2.9,6.7c-17.4,0-34.8,0-52.1,0c-0.9-2.1-2.5-2.6-4.6-2.2c-0.1-17.7-0.2-35.3-0.3-53
	c1.7,0,3.3,0,5,0C173.9,96.7,190.3,112.9,206.6,129z"/>
<path class="st79" d="M157.5,80.6c-1.7,0-3.3,0-5,0c-1.2-0.2-2.4-0.3-3.6-0.5c0-1.4-0.1-2.8-0.1-4.3c1.3-0.3,2.5-0.5,3.8-0.8
	c1.1,0.3,2.1,0.6,3.2,0.8C156.3,77.4,156.9,79,157.5,80.6z"/>
<path class="st79" d="M97.9,250.1c0.6,1.8,1.1,3.6,1.7,5.4c-2.2,0.2-4.4,0.4-6.5,0.6c-1.9-0.4-3.8-0.7-5.7-1.1
	c0.1-1.5,0.3-3,0.4-4.5c1.9,0,3.8,0,5.6,0C95,250.4,96.4,250.3,97.9,250.1z"/>
<path class="st82" d="M87.8,250.6c-0.1,1.5-0.3,3-0.4,4.5c-16.6,0.2-33.2,0.4-49.8,0.6c-0.8-2-2.3-2.8-4.4-2.3
	c-0.4-17.7-1.3-35.5,0.4-53.2c0.8-0.4,1.6-0.8,2.4-1.2C53.4,216.2,70.6,233.4,87.8,250.6z"/>
<path class="st94" d="M152.6,75c-1.3,0.3-2.5,0.5-3.8,0.8c-16.4-0.1-32.9-0.2-49.3-0.4c-1.1-0.1-2.3-0.3-3.4-0.4c-5.6,1.4-3,6-3.1,9
	c-0.3,15.6-0.2,31.1-0.2,46.7c-1.5-0.1-3-0.2-4.4-0.4c-16.9-16.6-33.8-33.2-50.7-49.9c-0.7-1.6-1.5-3.3-2.2-4.9
	c10.6,0,21.2,0.5,31.7-0.3c8.3-0.6,17.4,3.4,24.9-3.3c0,0-0.2,0.2-0.2,0.2c5.1,0,8.2-3.6,11.4-6.7c14.3-14.3,28.4-28.7,42.5-43.1
	c2.1,0.3,4.2,0.6,6.4,0.9C152.3,40.7,152.4,57.9,152.6,75z"/>
<path class="st94" d="M26.5,22c2.2,0,4.4,0,6.6,0c0.1,17.7,0.1,35.3,0.2,53c-2.3,0.2-4.7,0.4-7,0.5c-16.7-0.1-33.3-0.2-50-0.3
	c0.5-1.8,0.9-3.5,1.4-5.3c0.6-0.6,1.3-1.3,1.9-1.9c3.2-1.1,5.2-3.6,6.8-6.5c4.2-2.5,7.6-5.9,10-10.2c2.8-1.1,4.9-2.7,5.7-5.8
	c5.5-3.7,10.5-7.9,13.8-13.8C19.4,28.5,23,25.3,26.5,22z"/>
<path class="st79" d="M26.3,75.5c2.3-0.2,4.7-0.4,7-0.5c0,0,1.3-0.3,1.3-0.3l0.9,1c0.7,1.6,1.5,3.3,2.2,4.9c-1.4,0-2.8,0-4.2,0
	c-2.2,0.2-4.3,0.4-6.5,0.6C26.8,79.3,26.5,77.4,26.3,75.5z"/>
<path class="st82" d="M26.5,22c-3.6,3.2-7.1,6.5-10.7,9.7c-0.2-5.1-0.3-10.1-0.5-15.2c3.7-0.2,7.4-0.3,11.1-0.5
	C26.5,18.1,26.5,20.1,26.5,22z"/>
<path class="st82" d="M2,45.6c-0.7,3.1-2.9,4.7-5.7,5.8c0.1-2.8-1.6-6.1,1.8-8C0.1,42.2,1,44.3,2,45.6z"/>
<path class="st82" d="M145.8,22.6c-14.2,14.4-28.3,28.8-42.5,43.1c-3.1,3.1-6.3,6.6-11.4,6.7c2.6-18.6,0.1-37.2,1.3-55.8
	c2.1-0.2,4.2-0.3,6.2-0.5c15.6,0,31.3,0.1,46.9,0.1C146.1,18.3,146,20.4,145.8,22.6z"/>
<path class="st82" d="M212.3,136.5c1.8-0.5,3.5-1,5.3-1.5c16.2,0.3,32.4,0.6,48.6,0.9c0,2,0,4,0.1,6c-16.7,17.2-33.4,34.4-50.1,51.7
	c-6.8-4.7-2.8-11.6-3.2-17.4C212.2,163,212.4,149.8,212.3,136.5z"/>
<path class="st82" d="M160.8,195.3c-2.8-0.1-5.7-0.3-8.5-0.4c0.1-17.7,0.2-35.3,0.2-53c1.9-0.2,3.7-0.3,5.6-0.5
	c17.5,16.9,34.9,33.9,52.4,50.8c-0.5,1-1.1,2-1.6,3.1C192.8,195.3,176.8,195.3,160.8,195.3z"/>
<path class="st79" d="M158.1,141.4c-1.9,0.2-3.7,0.3-5.6,0.5c-2,0-4.1,0.1-6.1,0.1c0-2-0.1-4-0.1-6.1c2.2-0.8,4.3-1.6,6.5-2.3
	c2.1-0.4,3.7,0.1,4.6,2.2C157.6,137.7,157.9,139.5,158.1,141.4z"/>
<path class="st82" d="M97.9,250.1c-1.5,0.2-3,0.3-4.5,0.5c-0.1-13.2-0.8-26.3-0.1-39.5c0.3-5.7-3.9-12.6,2.9-17.3
	c15.6,3.3,31.4,0.3,47,1.6c1.2,1.9,2.4,3.7,3.5,5.6C130.6,217.3,114.3,233.7,97.9,250.1z"/>
<path class="st84" d="M143.4,195.4c-15.7-1.3-31.5,1.7-47-1.6l0-0.7c16.7-17,33.4-34.1,50.1-51.1c2,0,4.1-0.1,6.1-0.1
	c-0.1,17.7-0.2,35.3-0.2,53C149.3,195,146.3,195.2,143.4,195.4z"/>
<path class="st82" d="M33.5,80.6c1.4,0,2.8,0,4.2,0c16.9,16.6,33.8,33.2,50.7,49.9c-0.3,1.8-0.7,3.6-1,5.4
	c-16.6,0.1-33.1,0.1-49.7,0.2c-0.8-2.1-2.3-3-4.5-2.6C33.3,115.9,33.4,98.2,33.5,80.6z"/>
<path class="st76" d="M35.6,195.5c-1-0.2-2-0.4-3.1-0.7c0.3-17.7,0.5-35.3,0.8-53c1.6-0.1,3.2-0.2,4.8-0.3
	c18.5,15.9,33.2,35.9,53.1,50.3c-3.1,5.2-8.2,3.4-12.5,3.4C64.3,195.5,50,195.5,35.6,195.5z"/>
<path class="st84" d="M91.2,191.9c-19.9-14.4-34.6-34.4-53.1-50.3c-0.1-1.8-0.3-3.6-0.4-5.4c16.6-0.1,33.1-0.1,49.7-0.2
	c1.5,0.3,3.1,0.5,4.6,0.8c0,0.9,0.4,1.7,1.2,2.2c-0.3,17.7-0.7,35.5-1,53.2L91.2,191.9z"/>
<path class="st86" d="M91.2,191.9c0,0,0.9,0.3,0.9,0.3c1.4,0.3,2.8,0.6,4.2,0.9l0,0.7c-6.9,4.7-2.6,11.6-2.9,17.3
	c-0.7,13.1,0,26.3,0.1,39.5c-1.9,0-3.8,0-5.6,0c-17.2-17.2-34.5-34.4-51.7-51.6c-0.2-1.2-0.3-2.3-0.5-3.5c14.4-0.1,28.7,0,43.1-0.2
	C83.1,195.2,88.2,197,91.2,191.9z"/>
<path class="st76" d="M35.4,75.7l-0.9-1c0,0-1.3,0.3-1.3,0.3c-0.1-17.7-0.1-35.3-0.2-53c1.6,0,3.2-0.1,4.8-0.1
	C52.4,35.9,66.9,50,81.4,64c3.2,3.1,5.6,7.4,10.7,8.1c-7.5,6.8-16.6,2.7-24.9,3.3C56.6,76.2,46,75.7,35.4,75.7z"/>
<path class="st83" d="M152.8,133.6c-2.2,0.8-4.3,1.6-6.5,2.3c-15.8,0-31.5,0-47.3,0c-0.3-1.9-0.6-3.7-0.8-5.6
	c16.9-16.8,33.8-33.5,50.7-50.3c1.2,0.2,2.4,0.3,3.6,0.5C152.6,98.2,152.7,115.9,152.8,133.6z"/>
<path class="st82" d="M148.9,80.1c-16.9,16.8-33.8,33.5-50.7,50.3c-1.5,0.1-3,0.1-4.6,0.2l-0.9,0.3c0-15.6-0.1-31.1,0.2-46.7
	c0.1-3.1-2.5-7.6,3.1-9c0.3,0.7,0.6,1.4,0.9,2.1c0.8-0.6,1.7-1.1,2.5-1.7c16.4,0.1,32.9,0.2,49.3,0.4
	C148.8,77.3,148.9,78.7,148.9,80.1z"/>
<path class="st85" d="M92,136.7c-1.5-0.3-3.1-0.5-4.6-0.8c0.3-1.8,0.7-3.6,1-5.4c1.5,0.1,3,0.2,4.4,0.4l0.9-0.3
	C93.1,132.6,92.5,134.7,92,136.7z"/>
<path class="st85" d="M99.5,75.5c-0.8,0.6-1.7,1.1-2.5,1.7c-0.3-0.7-0.6-1.4-0.9-2.1C97.2,75.2,98.4,75.3,99.5,75.5z"/>
<path class="st82" d="M99.1,135.9c15.8,0,31.5,0,47.3,0c0,2,0.1,4,0.1,6.1c-16.7,17-33.4,34.1-50.1,51.1c-1.4-0.3-2.8-0.6-4.2-0.9
	c0.3-17.7,0.7-35.5,1-53.2C95.1,137.9,97.1,136.9,99.1,135.9z"/>
<path class="st79" d="M99.1,135.9c-2,1-3.9,2-5.9,3c-0.7-0.6-1.1-1.3-1.2-2.2c0.6-2.1,1.1-4.1,1.7-6.2c1.5-0.1,3-0.1,4.6-0.2
	C98.5,132.2,98.8,134.1,99.1,135.9z"/>
</svg>
