<?xml version="1.0" encoding="utf-8"?>
<!-- Generator: Adobe Illustrator 24.0.2, SVG Export Plug-In . SVG Version: 6.00 Build 0)  -->
<svg version="1.1" id="Capa_1" xmlns="http://www.w3.org/2000/svg" xmlns:xlink="http://www.w3.org/1999/xlink" x="0px" y="0px"
	 viewBox="0 0 288 288" style="enable-background:new 0 0 288 288;" xml:space="preserve">
<style type="text/css">
	.st0{fill:#2D2D2D;}
	.st1{fill:#002530;}
	.st2{fill:#050523;}
	.st3{fill:#707C84;}
	.st4{fill:#E9E4DE;}
	.st5{fill:#EE3133;}
	.st6{fill:#FD99AF;}
	.st7{fill:#C4C2C0;}
	.st8{fill:#F2D8A3;}
	.st9{fill:#EFCB84;}
	.st10{fill:#EF692F;}
	.st11{fill:#4B343F;}
	.st12{fill:#16B198;}
	.st13{fill:#E72D52;}
	.st14{fill:#7B536F;}
	.st15{fill:#8F4CA9;}
	.st16{fill:#E2C29F;}
	.st17{fill:#9F4687;}
	.st18{fill:#A9A0AF;}
	.st19{fill:#CC4743;}
	.st20{fill:#8677A9;}
	.st21{fill:#8E5D8E;}
	.st22{fill:#DF615C;}
	.st23{fill:#9E4742;}
	.st24{fill:#D34861;}
	.st25{fill:#B75B6D;}
	.st26{fill:#DF6482;}
	.st27{fill:#FFFFFF;}
	.st28{fill:#829CA2;}
	.st29{fill:#F2B991;}
	.st30{fill:#E56759;}
	.st31{fill:#F5F3EE;}
	.st32{fill:#DC4B3F;}
	.st33{fill:#1D5A7D;}
	.st34{fill:#459492;}
	.st35{fill:#F0A349;}
	.st36{fill:#E4EFEB;}
	.st37{fill:#E17467;}
	.st38{fill:#B6BFBD;}
	.st39{fill:#F0E2D6;}
	.st40{fill:#396D89;}
	.st41{fill:#201A21;}
	.st42{fill:#48505D;}
	.st43{fill:#0B0707;}
	.st44{fill:#D30034;}
	.st45{fill:#6C919B;}
	.st46{fill:#F68C4A;}
	.st47{fill:#E5CFCD;}
	.st48{fill:#385B4D;}
	.st49{fill:#F14206;}
	.st50{fill:#BAD2D8;}
	.st51{fill:#F70059;}
	.st52{fill:#AA000C;}
	.st53{fill:#D8B5B2;}
	.st54{fill:#E08143;}
	.st55{fill:#F2E9E9;}
	.st56{fill:#F4D085;}
	.st57{fill:#23586A;}
	.st58{fill:#17241F;}
	.st59{fill:#EAE8E1;}
	.st60{fill:#253C4F;}
	.st61{fill:#F7FCFD;}
	.st62{fill:#0E151F;}
	.st63{fill:#8D897D;}
	.st64{fill:#BDB6AA;}
	.st65{fill:#EDE1AF;}
	.st66{fill:#DF786F;}
	.st67{fill:#E8C46F;}
	.st68{fill:#B0CEAD;}
	.st69{fill:#9FC4AF;}
	.st70{fill:#B8C6A0;}
	.st71{fill:#EBEC80;}
	.st72{fill:#DD7AB2;}
	.st73{fill:#D6D2D3;}
	.st74{fill:#69BCC5;}
	.st75{fill:#D0CBC1;}
	.st76{fill:#242424;}
	.st77{fill:#525252;}
	.st78{fill:#3D3D3D;}
	.st79{fill:#6B6B6B;}
	.st80{fill:#303030;}
	.st81{fill:#8A8A8A;}
	.st82{fill:#282828;}
	.st83{fill:#E6E6E6;}
	.st84{fill:#E8E8E8;}
	.st85{fill:#A9A9A9;}
	.st86{fill:#D9D9D9;}
	.st87{fill:#CACACA;}
	.st88{fill:#9E9E9E;}
	.st89{fill:none;}
	.st90{fill:#4A4744;}
	.st91{fill:#F0BA45;}
	.st92{fill:#F1D34E;}
	.st93{fill:none;stroke:#00A591;stroke-miterlimit:10;}
	.st94{fill:#EEEEEE;}
	.st95{fill:#FBFBFB;}
	.st96{fill:#F8F2DD;}
	.st97{fill:#8DB2A6;}
	.st98{fill:#ED8C58;}
	.st99{fill:#F0C153;}
	.st100{fill:#C2B146;}
	.st101{fill:#8E6E51;}
	.st102{fill:#1C1D4C;}
	.st103{fill:#111224;}
	.st104{fill:#26687B;}
	.st105{fill:#F8494A;}
	.st106{fill:#81819B;}
	.st107{fill:#80809B;}
	.st108{fill:#0AC6BB;}
	.st109{fill:#0BC5B9;}
	.st110{fill:#686888;}
	.st111{fill:#0BC5BA;}
	.st112{fill:#FEFEFE;}
	.st113{fill:#F8F5CE;}
	.st114{fill:#EF484B;}
	.st115{fill:#F94A4A;}
	.st116{fill:#F9F6CE;}
	.st117{fill:#DFE0E3;}
	.st118{fill:#04121D;}
	.st119{fill:#6693AB;}
	.st120{fill:#89BCD7;}
	.st121{fill:#FAF509;}
	.st122{fill:#0B2E41;}
	.st123{fill:#427491;}
	.st124{fill:#2A5973;}
	.st125{fill:#184259;}
	.st126{fill:#BCE4F7;}
	.st127{fill:#02111C;}
	.st128{fill:#FCF704;}
	.st129{fill:#F4F115;}
	.st130{fill:#DFE23F;}
	.st131{fill:#BCE6FA;}
	.st132{fill:#031D2B;}
	.st133{fill:#81851A;}
	.st134{fill:#1E1E1E;}
	.st135{fill:#F5142E;}
	.st136{fill:#05ACC0;}
	.st137{fill:#F87240;}
	.st138{fill:#FA723F;}
	.st139{fill:#F67240;}
	.st140{fill:#E37547;}
	.st141{fill:#07ADC0;}
	.st142{fill:#450D0D;}
	.st143{fill:#F57240;}
	.st144{fill:#440D0D;}
	.st145{fill:#470D0D;}
	.st146{fill:#EBECCC;}
	.st147{fill:#E9EACA;}
	.st148{fill:#00ABBF;}
	.st149{fill:#F6FAD9;}
	.st150{fill:#CBC3AC;}
	.st151{fill:#E2615D;}
	.st152{fill:#FAFAF8;}
	.st153{fill:#E8E4DA;}
	.st154{fill:#123057;}
	.st155{fill:#F4D16B;}
	.st156{fill:none;stroke:#F1D34E;stroke-miterlimit:10;}
	.st157{fill:#E3834C;}
	.st158{fill:#E9A779;}
	.st159{fill:#ECB74A;}
	.st160{fill:#00A591;}
</style>
<path class="st76" d="M213.6-39.2c33.9-0.1,67.8,0,101.6-0.4c7.4-0.1,9.5,2.3,9.5,9.6c-0.2,113.7-0.2,227.5,0,341.2
	c0,7.9-3.3,9.1-9.9,9.1c-91-0.1-181.9,0.1-272.9-0.2c-8.4,0-16.4-5.7-25.3-0.2c-3.6,2.2-7.4-2.4-10.4-5.4
	c-4.2-4.1-7.3-9.5-13.3-11.8c-2.3,7.8-2.3,7.8,1.4,15.9c-0.7,0.5-1.3,1.4-2,1.4c-27.2,1.3-27.2,1.2-27.2-25.9
	c0-49.2,0.5-98.4-0.3-147.6c-0.2-13,3.5-17.5,16.2-15.9c3.1,0.4,9.6,3.2,9.8-3.2c0.1-4.6-5.6-6.6-9.6-5.8
	c-16.4,3-16.2-6.8-16.1-18.6c0.4-43.6,0.4-87.3,0-130.9c-0.1-9,2.2-12.9,11.5-11.5c8.5,1.4,17.5-2.6,25.5,3.5
	c4.9,3.7,7.9-3.4,12.5-3.2c-0.5,2.4-1.1,4.7-1.6,7.1C3-20.4,18-20.8,21.4-16.2c4.3,5.9,7.7,4.6,12.5-1.3c4-0.7,9.8,1.4,9.3-6.1
	c0.6-5.2-3.3-9.2-4.9-15.5c48.9,0,96.6,0,144.4,0c0.7,1.6,1.4,3.2,2.2,4.8c0.1,8.1-1.8,16.5,3.2,24c4.2,6.5,8.2,4.3,12.1-0.4
	c8.5,3.4,9.3-3.3,9.9-8.4c0.7-5.8-0.2-11.8-0.4-17.7C211-37.6,212.3-38.4,213.6-39.2z M-3.3,244.3c0.8-1.4,1.6-2.8,2.3-4.2
	c5.3,2.1,11,0.1,8.6-5.1c-3.5-7.5-10.1-14.1-20.1-13.4c-3.6,0.3-3.8,3.1-2.6,6c-1,1.2-2,2.5-2.9,3.7c-5.8-2.6-6.7,1.4-5.9,5.2
	c1.8,8.3,8.3,13.6,15.5,16.1C-4.2,254.2-1.6,249.2-3.3,244.3z M199.6,166.6c-1.1-1-2.2-2.1-3.3-3.1c2.2-4.9,0.2-9.8-4.4-8.7
	c-7.5,1.7-11.1,9-13.4,15.9c-1.1,3.4-2.1,8.7,4.8,7.9c0.8-0.1,1.5-1,2.3-1.5c1.1,1.1,2.2,2.1,3.3,3.2c-2.2,5.3,0.2,7.1,5.1,6
	c6.3-1.4,10.2-5.6,12.7-11.6c1-2.4,4.7-4.7,2.7-7.1C207,165.1,203.2,163.1,199.6,166.6z M149.3,133.1c-5.1-2.1-9.9,0.7-8.1,4.8
	c2.7,6.1,6.3,13.4,14.4,14.6c3.5,0.5,9.3,2,7.4-5.6c1.1-1.3,2.1-2.5,3.2-3.8c7.2,2.2,6.5-2.5,5.6-6.7c-1.2-5.8-6.2-8.8-9.9-12.8
	c-1.9-2-4-3.8-7.1-1.9c-3.3,2.2-3.6,4.9-1.6,8.2C151.9,131,150.6,132,149.3,133.1z M138.9,291.7c1.3-11.1-7.1-13.4-14.8-16.1
	c-3.7-1.3-8.9-3.1-10.5,2.3c-1.7,5.7,2.4,8.2,7.7,8.7c-1.2,1.1-2.4,2.2-3.6,3.3c-5.5-1-11.3-0.5-9.2,6.7c1.9,6.6,9.4,6.2,15.1,6.7
	c5.1,0.5,11.5,2.7,12.3-6.1C136.9,295.4,137.9,293.5,138.9,291.7z M35.1,7.5c1.6-3.2,2-6.4-1.2-8.7c-3.4-2.4-21.8,4.5-23.2,8.6
	c-1.1,3.3-0.5,6.5,3.8,7.4c1.3,1.2,2.5,2.5,3.8,3.7c-1.8,0.9-5.2,0.2-4.9,3.5c0.3,3,2.7,4.5,5.5,5.2c6.7,1.5,12.5-1.7,18.6-3.6
	c2.7-0.8,5-2.2,4.3-5.9c-0.8-3.9-2.8-5.5-6.7-4.9C35,11.1,35.1,9.3,35.1,7.5z M143.8,49.1c-1.5-0.9-2.9-1.9-4.4-2.8
	c2-10.5-5.7-6.5-8.9-4.9c-4.7,2.4-8.4,6.9-12.5,10.5c-1.5,0.5-2.3,1.4-2,3.1c0.1,0.9,0.3,1.7,0.6,2.6c-1.2,1.2-2.4,2.4-3.6,3.6
	c-9.2,2.6-14.9,8.7-17.1,17.7c-0.6,2.6,0.1,8.8,4.3,5.1c6.3-5.6,16.8-9.1,15.4-20.7c1.1-1.1,2.1-2.2,3.2-3.3c2.9,1.4,5.6,1.3,8-1
	c0.4,1.8,0.9,3.6,1.3,5.4c-1.1,5,0.8,8.2,6,8c5.5-0.2,15.8-15.1,14.8-20.8C148.4,48.5,146.1,48.6,143.8,49.1z M23.8,163.5
	c-3.6-11.5-9.9-4.2-13.6-1c-4.6,4-12.8,7.8-7.5,16.3c1.4,2.1,5-0.1,7.4-1.4c1.1,1.1,2.2,2.2,3.3,3.4c-2.6,5.3-1.4,9.3,4.8,9.4
	c5.7,0.1,15.7-15.4,14.2-21.1c-0.8-3.1-3.2-2.5-5.4-1.8C25.9,166.1,24.8,164.8,23.8,163.5z M199.4,24.4c-1.2,1.2-2.4,2.4-3.6,3.5
	c-4.8-1.1-7.4-0.1-5.4,5.5c2.2,6.1,8,7.3,13.1,9.2c3.7,1.3,8.2,4.3,11-0.9c3.6-6.8-3-7.2-6.6-9.3c0-1.7,0-3.4,0-5
	c4.1,0.1,8.5,5.4,12.1-0.8c1.6-2.7,1.6-5.8-1.6-6.9c-6-2-11.7-5.7-18.4-4.7c-2.7,0.4-6.1,1-6.3,4.3C193.6,22.5,197.2,23,199.4,24.4z
	 M271.3,93.4c1.9,0.4,3.7,0.7,5.6,1.1c-2.8,2.8-8,4-7.2,9.1c0.3,1.6,3.3,4,5.2,4c7.6,0.3,10.5-6.6,14.4-11.3c2.9-3.4,5.6-9-1.7-11.9
	c-1.8-0.6-3.5-1.2-5.3-1.9c2.4-8.2-3.4-7.6-7.5-5.9c-4.1,1.6-7.5,5.1-10.9,8.1c-2.8,2.4-8.5,4.1-4.4,9.4
	C263.4,99.1,267.5,96.4,271.3,93.4z M293.8,43.3c-2.7-4.6,4.6-14.2-6.2-14.7c-6.8-0.4-4.5,6.7-4.6,10.8c-0.2,6.3-1.1,15,7.1,15.5
	C296.5,55.4,292.2,47.6,293.8,43.3z M150.5,223.9c0-3.8-2-5.7-4.9-6.4c-4.6-1-16.5,12.8-16.2,18.5c0.1,2.3,0.9,5.8,3.5,4.5
	C140.5,236.9,145.5,230,150.5,223.9z M228.3,144.8c-0.9-2.7-1.2-8-3.7-6.1c-6.7,5.2-12.1,12-18,18.2c2.3,2.1,3.6,7.1,6.8,6.1
	C221.9,160.3,225.4,152.6,228.3,144.8z M293.8,8.6c-1.6-4.3,2.5-12.7-3.4-12.6c-7.7,0.1-7.7,8.9-7.4,15.3c0.2,4.3-2.4,11.8,6,10.8
	C297.7,21,291.8,13.2,293.8,8.6z M81,270.9c8.6,3.1,15.4,5.6,22.2,8c2.9,1,5.4,0.5,6.5-2.9c0.8-2.4,0.5-5-1.9-5.8
	C99.8,267.4,91.8,260.1,81,270.9z M71.4,159.6c-3-8.3-10.1-12.4-15.3-18c-2.3-2.4-4.9-2.2-7.2,0.3c-1.7,1.9-2.6,4.2-0.7,6.1
	C54.4,154.3,59,163.8,71.4,159.6z M98.3,131c2.6,4.2-3.1,12.9,4.2,12.5c7.7-0.4,7.3-9.5,7.2-15.9c-0.1-4.2,1.9-10.9-5.3-10.5
	C94,117.6,101,126.5,98.3,131z M250.7,210.2c4.6-1.5,13.1,2.7,12.9-3.6c-0.2-7.8-9.1-7.6-15.5-7.3c-4.5,0.2-12-2.2-10.9,6
	C238.4,213.6,246.1,208.8,250.7,210.2z M144.7,119.9c4.1,0.2,6.1-2,6.7-4.7c1.1-4.5-13.2-16.3-18.9-15.9c-2.3,0.1-5.8,1-4.4,3.4
	C132.1,110.1,138.5,115.5,144.7,119.9z M304.4,136.3c-3.6,2.7-12.2-2.9-12.2,3.7c-0.1,8.3,8.9,7.6,15.1,7.2
	c4.1-0.3,11.9,3.3,11.1-5.3C317.5,133.5,309.7,138.1,304.4,136.3z M236.5,53.9c4,0.5,8.7,0.4,9.8-3.3c1.7-6.2-5-5.6-8.1-6.6
	c-5.3-1.7-10.3-7.2-16.5-2.9c-1.2,0.8-2.2,3.9-1.6,4.8C223.8,52,230.7,52,236.5,53.9z M43.2,232.7c-3-3.3,2.8-12-4.3-11.9
	c-7.1,0-7.4,8.5-6.9,14.6c0.4,4.3-3.2,11.9,5.2,11.4C46.1,246.3,41,238,43.2,232.7z M106.9-5.1c6.5-2.7,16.7,2.1,16-7.9
	c-0.6-7.4-9.1-3.5-14-3.8c-5.6-0.4-12.4,1.3-12,8C97.2-5.1,104-5.8,106.9-5.1z M293.9,185.7c-2.2-4,3.1-12.7-3.9-12.4
	c-8,0.3-7.1,9.4-7,15.8c0.1,4.1-2.1,10.9,5.3,10.2C297.1,198.3,292.1,190.4,293.9,185.7z M259.6,104.5c-1.5-3.8-4.3-8.2-6.4-7.1
	c-6.9,3.4-12.6,8.7-14.7,16.6c-0.7,2.6-0.7,5.6,3,6.5c0.4,0.1,1,0,1.3-0.2C248.4,115,254.1,109.7,259.6,104.5z M122.6,185.4
	c5-1.2,13.6,2.3,13.6-3.3c-0.1-7.9-9-7.6-15.4-7.3c-4,0.2-10.8-2.7-10.5,4.8C110.5,188.8,118.4,183.8,122.6,185.4z M295.2,258.5
	c-5.4,1.9-12.2,2.1-16.7,7.1c-1.5,1.7-1.2,4.8,1,6.1c6.2,3.8,11.2-1.8,16.9-2.5c0.4-0.1,0.9-0.2,1.3-0.5c2.4-1.8,7.5-0.9,6.9-5.3
	C303.9,259,299.6,258.8,295.2,258.5z M23.5,271.3c-4-8-10.9-11.4-15.9-16.6c-2.2-2.2-5-2-7.4,0.3c-2.5,2.4-2.5,4.9,0,7.1
	C6.3,268,11.7,276.1,23.5,271.3z M65.7,2.3c-4.5,4.8-15.4,1-19.1,10.2c-1.1,2.8,1.5,7.2,5.5,5.8c7.4-2.7,17.3-2.2,19.7-12.6
	C72.3,2.9,70.4,1.6,65.7,2.3z M140.2,10.1c6.4-0.6,16.1-0.1,15.7-7.5c-0.4-7.3-9.9-1.9-15.1-3.5c-0.4-0.1-0.9,0-1.4,0
	c-4.2,0.4-10.4-1.9-10,5.7C129.9,12.2,136.3,8.9,140.2,10.1z M278.7,289.7c-0.9-3.3-1.3-6.3-4.1-6.2c-7.9,0.4-15,3.6-22,7
	c-0.7,0.4-1.4,2.7-0.9,3.4c2.6,4.1,7,4.9,11,3.5C268.3,295.5,275.3,295.3,278.7,289.7z M5.4,293.7c-3.6-0.1-8,0.7-6.5,3.5
	c3.9,7.2,9.6,13.5,17.3,16.9c2.6,1.1,6.4-2.6,5.6-4.5C18.9,301.6,13.1,296,5.4,293.7z M199.8,88.8c2.7,3.9-3.9,12.8,5.9,13.5
	c7.5,0.5,4.4-6.6,4.7-10.5c0.4-6.4,0.9-15-7.2-15.5C197.9,75.9,201.3,83.9,199.8,88.8z M294.3,219.1c-3.7-3.8,3.8-13.1-6.6-13.3
	c-7.1-0.1-4.2,6.7-4.5,10.7c-0.4,5.9-0.8,14.2,6.2,14.7C297.2,231.9,291.3,223.5,294.3,219.1z M183.1,210.2c-0.5-2.2,0-4.9-2.3-4.9
	c-6.9,0.2-9.2,6.9-13.7,10.6c-2.5,2.1-6.7,4.2-4.5,8.9c1,2.2,3.3,4.5,5.4,3.3C175.2,224,181.7,218.8,183.1,210.2z M29.4,49.1
	c4.1-2.6,12.5,3.2,12.1-4.4c-0.4-7.2-8.9-6.9-14.8-6.4c-3.9,0.3-11-3.1-11,4.3C15.6,53,24.9,46.4,29.4,49.1z M194.7,89
	c-1.8-4.3,3-12.5-3.6-12.6c-7.3-0.1-7.1,8.4-6.7,14.3c0.3,4.3-3.1,11.9,5,11.5C198.2,101.8,192.8,93.5,194.7,89z M58.4,122.7
	c-0.1-3.9-13.8-15.4-18.3-15.3c-2.3,0-4.7,0.2-5,3.3c-0.3,2.8,15.3,18.2,18.1,17.7C56.2,127.8,57.8,125.6,58.4,122.7z M265.5,215.2
	c-9.2,0-16,0-22.7,0c-3.2,0-5.2,1.5-5.6,4.8c-0.3,2.6,0.4,5.2,3.1,5.1C248.7,224.8,258.9,229.6,265.5,215.2z M299.4,234.8
	c12.5-8.1,10.2-17.3,9.9-25.8c-0.1-2.8-2.3-3.6-4.9-3.7c-3.6-0.2-5,1.8-5,5C299.3,217.5,299.4,224.8,299.4,234.8z M194.6,304.1
	c-1.6-4.4,2.8-12.8-3.2-12.8c-8.4,0-6.9,9.1-6.9,15.2c0,3.9-2.8,10.7,4.6,10.5C198.5,316.6,192.6,308.5,194.6,304.1z M202,209.6
	c9.5,0,16.6,0.1,23.7,0c3-0.1,5.2-1.5,5-5c-0.2-2.5-1.2-4.6-3.9-4.7C218.6,199.8,209.3,196.7,202,209.6z M308.5,275.5
	c-0.2-0.5-0.5-2-1.3-2.7c-2.7-2.3-23.6,5.7-23.9,9.3c-0.2,2.3,0.2,4.6,2.5,6C290.6,290.9,308,281.9,308.5,275.5z M89.8,185.1
	c4.4-2,12.7,3.4,13.5-4.9c0.9-8.4-7-4.9-11.3-5.3c-6.1-0.6-14.1-0.3-14.3,6.9C77.7,187.2,85.4,184,89.8,185.1z M93.6,131
	c-2.4-4.6,3.7-12.8-5-13.6c-8-0.7-5.2,7-5.4,11.4c-0.2,5.8-0.5,14.4,6.6,14.4C96.6,143.3,91.2,135,93.6,131z M177.7,252.2
	c4.6-1.3,12.5,3,12.9-5.6c0.3-7.1-6.7-4.3-10.7-4.6c-6-0.5-14.1-0.6-14.1,6.9C165.7,254.3,173.4,251,177.7,252.2z M309.8,12.6
	c-1-6.1,0.4-16.1-7-15.8c-7.3,0.2-1.8,9.9-3.5,15.1c-0.1,0.4-0.1,0.9,0,1.4c0.7,3.6-1.7,9.3,5.2,8.9
	C310.9,21.8,309.1,16.5,309.8,12.6z M29,53.7c-3.3,3.8-12.8-4.3-13.3,5.7c-0.4,7.8,7.5,4.3,11.7,4.6c5.7,0.4,14,1.2,14-6.7
	C41.4,51,33.9,55.8,29,53.7z M211.9,252.3c3.2-2.6,11.8,3.4,11.4-4.1c-0.3-6.6-8.9-6.5-14.8-6.1c-4,0.2-10.9-2.3-10.4,4.8
	C198.6,255.6,206.5,250.5,211.9,252.3z M124,190.6c-5,2.3-13.7-3.9-13.9,6.3c-0.1,6.2,6,4.2,9.6,4.1c6.1-0.1,15.3,1.7,16-6.3
	C136.2,187.4,127.6,193.1,124,190.6z M304.6,131.3c4.7-1.9,12.8,3.3,13.5-5.2c0.6-6.7-6.4-5.2-10.7-5.1c-5.8,0.1-14.6-1.1-15,6.2
	C292,134.5,300.5,129.1,304.6,131.3z M48.6,282.3c12.1-7.7,9.2-16.9,9.1-25.1c0-2.7-2.4-3.6-4.9-3.7c-3-0.1-4.1,1.8-4.1,4.2
	C48.5,265,48.6,272.2,48.6,282.3z M92.4-0.4c7.5,10.2,15.9,9.7,24,9.7c2.9,0,5.8-0.2,6.3-3.8c0.5-4.1-2.4-5.8-5.9-5.9
	C109.5-0.6,102.1-0.4,92.4-0.4z M225.5,258.5c-8.8,0-15.9,0-23.1,0c-2.7,0-4.4,1.8-4.3,4.3c0.1,1.5,1.5,4.3,2.4,4.3
	C209.1,267.5,218.8,271.3,225.5,258.5z M-3.8,49.3c3.7-3.7,12.6,3,12.6-6.5c0-7-7-4-11-4.4C-7.6,38-15.7,37.8-16,44.1
	C-16.4,52.1-7.9,45.8-3.8,49.3z"/>
<path class="st86" d="M293.8,43.3c-1.6,4.3,2.7,12.1-3.7,11.6c-8.2-0.5-7.3-9.2-7.1-15.5c0.1-4.1-2.2-11.2,4.6-10.8
	C298.4,29.2,291.1,38.7,293.8,43.3z"/>
<path class="st87" d="M150.5,223.9c-5.1,6.1-10,13-17.6,16.7c-2.5,1.3-3.3-2.2-3.5-4.5c-0.3-5.8,11.6-19.6,16.2-18.5
	C148.5,218.2,150.5,220.1,150.5,223.9z"/>
<path class="st87" d="M228.3,144.8c-2.9,7.7-6.4,15.4-15,18.2c-3.2,1-4.5-4-6.8-6.1c5.9-6.2,11.3-13.1,18-18.2
	C227.1,136.9,227.4,142.2,228.3,144.8z"/>
<path class="st86" d="M293.8,8.6c-2.1,4.5,3.9,12.4-4.9,13.5c-8.4,1.1-5.8-6.4-6-10.8C282.7,5,282.6-3.8,290.4-4
	C296.4-4.1,292.2,4.3,293.8,8.6z"/>
<path class="st87" d="M35,12.9c3.9-0.6,6,1,6.7,4.9c0.7,3.6-1.6,5.1-4.3,5.9c-6.1,1.8-11.9,5.1-18.6,3.6c-2.8-0.6-5.2-2.2-5.5-5.2
	c-0.3-3.3,3.1-2.6,4.9-3.5C23.9,16.7,29.5,14.8,35,12.9z"/>
<path class="st86" d="M81,270.9c10.8-10.8,18.8-3.5,26.8-0.7c2.4,0.8,2.7,3.4,1.9,5.8c-1.1,3.4-3.6,3.8-6.5,2.9
	C96.4,276.5,89.6,274,81,270.9z"/>
<path class="st87" d="M71.4,159.6c-12.4,4.1-17-5.4-23.2-11.6c-2-2-1.1-4.3,0.7-6.1c2.3-2.5,4.9-2.7,7.2-0.3
	C61.3,147.2,68.4,151.3,71.4,159.6z"/>
<path class="st87" d="M98.3,131c2.7-4.5-4.3-13.4,6.1-13.9c7.2-0.4,5.2,6.3,5.3,10.5c0.1,6.4,0.6,15.4-7.2,15.9
	C95.2,143.9,100.9,135.2,98.3,131z"/>
<path class="st87" d="M250.7,210.2c-4.6-1.4-12.3,3.4-13.4-4.8c-1.1-8.2,6.4-5.8,10.9-6c6.4-0.3,15.3-0.5,15.5,7.3
	C263.8,212.9,255.3,208.7,250.7,210.2z"/>
<path class="st87" d="M144.7,119.9c-6.2-4.5-12.6-9.8-16.6-17.1c-1.4-2.5,2.1-3.3,4.4-3.4c5.7-0.4,20,11.4,18.9,15.9
	C150.8,118,148.7,120.1,144.7,119.9z"/>
<path class="st87" d="M208,32.4c3.6,2.2,10.2,2.5,6.6,9.3c-2.8,5.2-7.3,2.3-11,0.9c-5.1-1.9-10.8-3.1-13.1-9.2
	c-2.1-5.7,0.6-6.6,5.4-5.5C199.4,30.8,203.4,32.2,208,32.4z"/>
<path class="st87" d="M26.9,167.3c2.3-0.7,4.6-1.3,5.4,1.8c1.5,5.7-8.5,21.2-14.2,21.1c-6.2-0.1-7.4-4.1-4.8-9.4
	C19,177.5,23.3,172.8,26.9,167.3z"/>
<path class="st87" d="M236.5,53.9c-5.8-1.8-12.7-1.9-16.4-7.9c-0.6-1,0.4-4,1.6-4.8c6.2-4.3,11.2,1.2,16.5,2.9
	c3.1,1,9.9,0.5,8.1,6.6C245.2,54.3,240.5,54.4,236.5,53.9z"/>
<path class="st86" d="M43.2,232.7c-2.2,5.3,3,13.6-6,14.1c-8.4,0.4-4.8-7.2-5.2-11.4c-0.5-6.1-0.2-14.5,6.9-14.6
	C45.9,220.7,40.2,229.3,43.2,232.7z"/>
<path class="st86" d="M293.9,185.7c-1.8,4.8,3.2,12.7-5.5,13.5c-7.4,0.7-5.3-6.1-5.3-10.2c-0.1-6.3-1.1-15.4,7-15.8
	C297,173,291.7,181.6,293.9,185.7z"/>
<path class="st86" d="M287.5,84.4c7.3,3,4.6,8.5,1.7,11.9c-3.9,4.6-6.8,11.6-14.4,11.3c-1.9-0.1-4.9-2.4-5.2-4
	c-0.8-5.1,4.4-6.3,7.2-9.1C280.4,91.1,284,87.8,287.5,84.4z"/>
<path class="st87" d="M259.6,104.5c-5.5,5.2-11.2,10.5-16.8,15.8c-0.3,0.3-0.9,0.3-1.3,0.2c-3.7-0.9-3.7-3.9-3-6.5
	c2.1-7.9,7.8-13.3,14.7-16.6C255.4,96.4,258.1,100.7,259.6,104.5z"/>
<path class="st86" d="M122.6,185.4c-4.2-1.5-12.1,3.4-12.4-5.7c-0.2-7.5,6.5-4.6,10.5-4.8c6.5-0.3,15.3-0.7,15.4,7.3
	C136.2,187.6,127.6,184.1,122.6,185.4z"/>
<path class="st87" d="M295.2,258.5c4.4,0.3,8.8,0.5,9.4,5c0.6,4.4-4.5,3.5-6.9,5.3c-0.4,0.3-0.8,0.4-1.3,0.5
	c-5.7,0.8-10.7,6.3-16.9,2.5c-2.2-1.3-2.6-4.4-1-6.1C283,260.5,289.8,260.4,295.2,258.5z"/>
<path class="st87" d="M23.5,271.3c-11.8,4.8-17.1-3.3-23.3-9.1c-2.4-2.3-2.4-4.8,0-7.1c2.4-2.3,5.1-2.6,7.4-0.3
	C12.6,259.9,19.4,263.3,23.5,271.3z"/>
<path class="st87" d="M65.7,2.3c4.7-0.7,6.6,0.6,6,3.4C69.3,16.1,59.4,15.6,52,18.3c-4,1.5-6.6-2.9-5.5-5.8
	C50.3,3.3,61.2,7.1,65.7,2.3z"/>
<path class="st87" d="M140.2,10.1c-3.9-1.2-10.3,2.1-10.7-5.2c-0.4-7.6,5.8-5.3,10-5.7c0.5,0,1-0.1,1.4,0c5.2,1.6,14.7-3.9,15.1,3.5
	C156.3,10,146.6,9.5,140.2,10.1z"/>
<path class="st87" d="M278.7,289.7c-3.4,5.6-10.4,5.8-16,7.8c-4,1.4-8.4,0.5-11-3.5c-0.4-0.7,0.2-3,0.9-3.4c7-3.4,14.2-6.6,22-7
	C277.3,283.4,277.8,286.4,278.7,289.7z"/>
<path class="st87" d="M115.6,63.3C117,75,106.5,78.4,100.2,84c-4.2,3.7-4.9-2.6-4.3-5.1c2.2-9,8-15.1,17.1-17.7
	C113.9,61.9,114.7,62.6,115.6,63.3z"/>
<path class="st87" d="M271.3,93.4c-3.8,3-7.9,5.7-11.8,0.7c-4.1-5.3,1.6-7,4.4-9.4c3.4-3,6.8-6.5,10.9-8.1c4.2-1.6,10-2.3,7.5,5.9
	C277.2,84.7,273.9,88.7,271.3,93.4z"/>
<path class="st86" d="M199.8,88.8c1.5-4.9-1.9-12.9,3.4-12.6c8.1,0.5,7.7,9.1,7.2,15.5c-0.3,3.9,2.7,11-4.7,10.5
	C195.9,101.6,202.5,92.7,199.8,88.8z"/>
<path class="st83" d="M294.3,219.1c-3.1,4.3,2.9,12.7-4.9,12.1c-7-0.5-6.6-8.8-6.2-14.7c0.3-4-2.5-10.9,4.5-10.7
	C298.1,206,290.6,215.3,294.3,219.1z"/>
<path class="st87" d="M183.1,210.2c-1.4,8.6-7.9,13.8-15.1,17.9c-2,1.2-4.3-1.2-5.4-3.3c-2.3-4.7,1.9-6.8,4.5-8.9
	c4.5-3.7,6.8-10.4,13.7-10.6C183.1,205.2,182.6,208,183.1,210.2z"/>
<path class="st86" d="M29.4,49.1c-4.5-2.7-13.7,3.9-13.7-6.5c0-7.3,7.1-4,11-4.3c5.9-0.5,14.4-0.7,14.8,6.4
	C41.9,52.4,33.4,46.6,29.4,49.1z"/>
<path class="st87" d="M199.4,24.4c-2.2-1.4-5.9-1.9-5.6-5.2c0.2-3.3,3.6-3.8,6.3-4.3c6.8-1.1,12.4,2.7,18.4,4.7
	c3.2,1.1,3.1,4.1,1.6,6.9c-3.6,6.3-8,0.9-12.1,0.8C205.6,25.1,202.7,24.2,199.4,24.4z"/>
<path class="st86" d="M194.7,89c-1.9,4.5,3.4,12.8-5.3,13.2c-8.1,0.4-4.6-7.3-5-11.5c-0.5-5.9-0.6-14.4,6.7-14.3
	C197.7,76.5,192.9,84.7,194.7,89z"/>
<path class="st87" d="M-15,227.7c-1.3-2.9-1-5.8,2.6-6c10-0.7,16.6,5.9,20.1,13.4c2.4,5.2-3.3,7.2-8.6,5.1
	C-4.9,235.1-9.4,230.7-15,227.7z"/>
<path class="st87" d="M58.4,122.7c-0.5,3-2.1,5.2-5.1,5.7c-2.9,0.5-18.4-14.9-18.1-17.7c0.3-3.1,2.7-3.2,5-3.3
	C44.6,107.3,58.2,118.7,58.4,122.7z"/>
<path class="st87" d="M118,51.9c4.1-3.6,7.8-8.1,12.5-10.5c3.2-1.6,10.9-5.6,8.9,4.9c-4.9,3.5-9.6,7.3-12.6,12.7
	c-2.4,2.3-5.1,2.4-8,1c-0.7-0.8-1.5-1.7-2.2-2.5c-0.3-0.8-0.5-1.7-0.6-2.6C116.7,54,117.3,52.9,118,51.9z"/>
<path class="st86" d="M265.5,215.2c-6.6,14.4-16.8,9.5-25.3,9.9c-2.7,0.1-3.4-2.5-3.1-5.1c0.4-3.3,2.5-4.8,5.6-4.8
	C249.5,215.2,256.3,215.2,265.5,215.2z"/>
<path class="st87" d="M185.5,177.2c-0.8,0.5-1.5,1.4-2.3,1.5c-6.9,0.7-6-4.5-4.8-7.9c2.3-7,5.9-14.3,13.4-15.9
	c4.6-1,6.6,3.9,4.4,8.7C191.5,167.2,187.7,171.5,185.5,177.2z"/>
<path class="st86" d="M153.2,129.9c-2-3.2-1.7-6,1.6-8.2c3-2,5.2-0.1,7.1,1.9c3.7,3.9,8.8,7,9.9,12.8c0.9,4.2,1.6,8.9-5.6,6.7
	C163.1,137.5,158.4,133.5,153.2,129.9z"/>
<path class="st86" d="M202,209.6c7.2-12.8,16.5-9.8,24.8-9.7c2.7,0,3.7,2.2,3.9,4.7c0.2,3.5-2,5-5,5
	C218.7,209.7,211.5,209.6,202,209.6z"/>
<path class="st87" d="M308.5,275.5c-0.5,6.3-17.8,15.3-22.7,12.5c-2.3-1.3-2.7-3.7-2.5-6c0.3-3.5,21.2-11.6,23.9-9.3
	C308,273.6,308.2,275,308.5,275.5z"/>
<path class="st84" d="M89.8,185.1c-4.4-1.1-12.1,2.1-12-3.2c0.2-7.3,8.2-7.5,14.3-6.9c4.3,0.4,12.2-3.1,11.3,5.3
	C102.5,188.5,94.2,183.2,89.8,185.1z"/>
<path class="st86" d="M10,177.5c-2.4,1.3-6,3.5-7.4,1.4c-5.4-8.5,2.9-12.3,7.5-16.3c3.8-3.3,10-10.5,13.6,1
	C18.2,167.2,13.5,171.7,10,177.5z"/>
<path class="st87" d="M143.8,49.1c2.3-0.5,4.6-0.6,5.1,2.5c1,5.7-9.3,20.6-14.8,20.8c-5.2,0.2-7.1-2.9-6-8
	C133.3,59.3,138.5,54.2,143.8,49.1z"/>
<path class="st94" d="M93.6,131c-2.4,4,3,12.2-3.8,12.2c-7.2,0-6.9-8.6-6.6-14.4c0.2-4.3-2.6-12.1,5.4-11.4
	C97.2,118.2,91.1,126.5,93.6,131z"/>
<path class="st86" d="M14.6,14.9c-4.3-0.9-4.8-4.1-3.8-7.4c1.3-4.1,19.8-11,23.2-8.6c3.2,2.2,2.7,5.5,1.2,8.7
	C27.9,9,20.8,10.6,14.6,14.9z"/>
<path class="st94" d="M177.7,252.2c-4.3-1.1-12,2.1-12-3.2c0.1-7.5,8.2-7.4,14.1-6.9c4,0.3,11.1-2.6,10.7,4.6
	C190.2,255.1,182.3,250.8,177.7,252.2z"/>
<path class="st86" d="M121.3,286.5c-5.3-0.5-9.4-3.1-7.7-8.7c1.6-5.4,6.8-3.6,10.5-2.3c7.7,2.7,16.1,5,14.8,16.1
	C133.1,289.6,127.8,286.2,121.3,286.5z"/>
<path class="st86" d="M163.1,146.9c1.9,7.6-3.9,6.1-7.4,5.6c-8.1-1.2-11.7-8.5-14.4-14.6c-1.8-4.1,3.1-6.9,8.1-4.8
	C152.8,138.8,157.4,143.3,163.1,146.9z"/>
<path class="st87" d="M199.6,166.6c3.6-3.5,7.4-1.5,9.6,1.1c2.1,2.4-1.7,4.7-2.7,7.1c-2.5,5.9-6.4,10.2-12.7,11.6
	c-4.8,1.1-7.2-0.7-5.1-6C193.7,176.8,196.9,171.9,199.6,166.6z"/>
<path class="st86" d="M29,53.7c4.9,2.1,12.4-2.7,12.4,3.7c0,7.8-8.3,7.1-14,6.7c-4.2-0.3-12.1,3.1-11.7-4.6
	C16.2,49.4,25.7,57.5,29,53.7z"/>
<path class="st94" d="M211.9,252.3c-5.3-1.8-13.3,3.4-13.9-5.4c-0.5-7.2,6.4-4.6,10.4-4.8c5.9-0.3,14.5-0.5,14.8,6.1
	C223.6,255.7,215.1,249.7,211.9,252.3z"/>
<path class="st86" d="M124,190.6c3.6,2.5,12.3-3.2,11.7,4.1c-0.7,7.9-9.8,6.1-16,6.3c-3.6,0.1-9.7,2.2-9.6-4.1
	C110.2,186.7,119,192.9,124,190.6z"/>
<path class="st83" d="M48.6,282.3c0-10.1-0.1-17.3,0.1-24.6c0-2.4,1.2-4.3,4.1-4.2c2.5,0.1,4.9,1.1,4.9,3.7
	C57.8,265.4,60.6,274.6,48.6,282.3z"/>
<path class="st94" d="M92.4-0.4c9.7,0,17-0.1,24.4,0.1c3.5,0.1,6.4,1.7,5.9,5.9c-0.4,3.6-3.4,3.8-6.3,3.8
	C108.3,9.2,100,9.8,92.4-0.4z"/>
<path class="st94" d="M225.5,258.5c-6.7,12.8-16.4,9-24.9,8.7c-0.9,0-2.3-2.8-2.4-4.3c-0.1-2.5,1.5-4.3,4.3-4.3
	C209.5,258.4,216.7,258.5,225.5,258.5z"/>
<path class="st94" d="M-3.8,49.3c-4.1-3.5-12.6,2.8-12.2-5.2c0.3-6.3,8.3-6.1,13.8-5.7c4,0.3,11-2.6,11,4.4
	C8.8,52.3-0.1,45.5-3.8,49.3z"/>
<path class="st77" d="M143.8,49.1c-5.2,5.1-10.5,10.2-15.7,15.3c-0.4-1.8-0.9-3.6-1.3-5.4c3-5.4,7.7-9.2,12.6-12.7
	C140.8,47.2,142.3,48.2,143.8,49.1z"/>
<path class="st77" d="M121.3,286.5c6.4-0.3,11.8,3.1,17.6,5.2c-1,1.8-2,3.7-3,5.5c-6.3-1.9-12.8-3.3-18.2-7.4
	C119,288.7,120.1,287.6,121.3,286.5z"/>
<path class="st77" d="M14.6,14.9c6.2-4.3,13.4-5.8,20.5-7.4c0,1.8-0.1,3.6-0.1,5.4c-5.6,1.9-11.1,3.8-16.7,5.7
	C17.1,17.3,15.8,16.1,14.6,14.9z"/>
<path class="st77" d="M163.1,146.9c-5.6-3.6-10.3-8.1-13.7-13.8c1.3-1.1,2.6-2.1,3.9-3.2c5.2,3.6,9.9,7.6,13,13.2
	C165.2,144.4,164.1,145.6,163.1,146.9z"/>
<path class="st77" d="M199.6,166.6c-2.7,5.3-5.9,10.2-10.8,13.8c-1.1-1.1-2.2-2.1-3.3-3.2c2.2-5.7,6-10,10.7-13.7
	C197.3,164.5,198.5,165.6,199.6,166.6z"/>
<path class="st77" d="M10,177.5c3.4-5.8,8.1-10.3,13.7-14c1,1.3,2.1,2.5,3.1,3.8c-3.6,5.5-7.9,10.1-13.6,13.5
	C12.2,179.7,11.1,178.6,10,177.5z"/>
<path class="st77" d="M271.3,93.4c2.6-4.7,5.9-8.6,11-10.8c1.8,0.6,3.5,1.2,5.3,1.9c-3.5,3.3-7.1,6.7-10.6,10
	C275,94.1,273.2,93.7,271.3,93.4z"/>
<path class="st77" d="M199.4,24.4c3.3-0.2,6.1,0.7,8.6,3c0,1.7,0,3.4,0,5c-4.5-0.1-8.6-1.6-12.1-4.4C197,26.7,198.2,25.6,199.4,24.4
	z"/>
<path class="st77" d="M116.6,57.5c0.7,0.8,1.5,1.7,2.2,2.5c-1.1,1.1-2.1,2.2-3.2,3.3c-0.9-0.7-1.7-1.4-2.6-2.2
	C114.2,59.9,115.4,58.7,116.6,57.5z"/>
<path class="st77" d="M118,51.9c-0.7,1-1.3,2-2,3.1C115.6,53.3,116.4,52.4,118,51.9z"/>
</svg>
