<?xml version="1.0" encoding="utf-8"?>
<!-- Generator: Adobe Illustrator 24.0.2, SVG Export Plug-In . SVG Version: 6.00 Build 0)  -->
<svg version="1.1" id="Capa_1" xmlns="http://www.w3.org/2000/svg" xmlns:xlink="http://www.w3.org/1999/xlink" x="0px" y="0px"
	 viewBox="0 0 288 288" style="enable-background:new 0 0 288 288;" xml:space="preserve">
<style type="text/css">
	.st0{fill:#2D2D2D;}
	.st1{fill:#002530;}
	.st2{fill:#050523;}
	.st3{fill:#707C84;}
	.st4{fill:#E9E4DE;}
	.st5{fill:#EE3133;}
	.st6{fill:#FD99AF;}
	.st7{fill:#C4C2C0;}
	.st8{fill:#F2D8A3;}
	.st9{fill:#EFCB84;}
	.st10{fill:#EF692F;}
	.st11{fill:#4B343F;}
	.st12{fill:#16B198;}
	.st13{fill:#E72D52;}
	.st14{fill:#7B536F;}
	.st15{fill:#8F4CA9;}
	.st16{fill:#E2C29F;}
	.st17{fill:#9F4687;}
	.st18{fill:#A9A0AF;}
	.st19{fill:#CC4743;}
	.st20{fill:#8677A9;}
	.st21{fill:#8E5D8E;}
	.st22{fill:#DF615C;}
	.st23{fill:#9E4742;}
	.st24{fill:#D34861;}
	.st25{fill:#B75B6D;}
	.st26{fill:#DF6482;}
	.st27{fill:#FFFFFF;}
	.st28{fill:#829CA2;}
	.st29{fill:#F2B991;}
	.st30{fill:#E56759;}
	.st31{fill:#F5F3EE;}
	.st32{fill:#DC4B3F;}
	.st33{fill:#1D5A7D;}
	.st34{fill:#459492;}
	.st35{fill:#F0A349;}
	.st36{fill:#E4EFEB;}
	.st37{fill:#E17467;}
	.st38{fill:#B6BFBD;}
	.st39{fill:#F0E2D6;}
	.st40{fill:#396D89;}
	.st41{fill:#201A21;}
	.st42{fill:#48505D;}
	.st43{fill:#0B0707;}
	.st44{fill:#D30034;}
	.st45{fill:#6C919B;}
	.st46{fill:#F68C4A;}
	.st47{fill:#E5CFCD;}
	.st48{fill:#385B4D;}
	.st49{fill:#F14206;}
	.st50{fill:#BAD2D8;}
	.st51{fill:#F70059;}
	.st52{fill:#AA000C;}
	.st53{fill:#D8B5B2;}
	.st54{fill:#E08143;}
	.st55{fill:#F2E9E9;}
	.st56{fill:#F4D085;}
	.st57{fill:#23586A;}
	.st58{fill:#17241F;}
	.st59{fill:#EAE8E1;}
	.st60{fill:#253C4F;}
	.st61{fill:#F7FCFD;}
	.st62{fill:#0E151F;}
	.st63{fill:#8D897D;}
	.st64{fill:#BDB6AA;}
	.st65{fill:#EDE1AF;}
	.st66{fill:#DF786F;}
	.st67{fill:#E8C46F;}
	.st68{fill:#B0CEAD;}
	.st69{fill:#9FC4AF;}
	.st70{fill:#B8C6A0;}
	.st71{fill:#EBEC80;}
	.st72{fill:#DD7AB2;}
	.st73{fill:#D6D2D3;}
	.st74{fill:#69BCC5;}
	.st75{fill:#D0CBC1;}
	.st76{fill:#242424;}
	.st77{fill:#525252;}
	.st78{fill:#3D3D3D;}
	.st79{fill:#6B6B6B;}
	.st80{fill:#303030;}
	.st81{fill:#8A8A8A;}
	.st82{fill:#282828;}
	.st83{fill:#E6E6E6;}
	.st84{fill:#E8E8E8;}
	.st85{fill:#A9A9A9;}
	.st86{fill:#D9D9D9;}
	.st87{fill:#CACACA;}
	.st88{fill:#9E9E9E;}
	.st89{fill:none;}
	.st90{fill:#4A4744;}
	.st91{fill:#F0BA45;}
	.st92{fill:#F1D34E;}
	.st93{fill:none;stroke:#00A591;stroke-miterlimit:10;}
	.st94{fill:#EEEEEE;}
	.st95{fill:#FBFBFB;}
	.st96{fill:#F8F2DD;}
	.st97{fill:#8DB2A6;}
	.st98{fill:#ED8C58;}
	.st99{fill:#F0C153;}
	.st100{fill:#C2B146;}
	.st101{fill:#8E6E51;}
	.st102{fill:#1C1D4C;}
	.st103{fill:#111224;}
	.st104{fill:#26687B;}
	.st105{fill:#F8494A;}
	.st106{fill:#81819B;}
	.st107{fill:#80809B;}
	.st108{fill:#0AC6BB;}
	.st109{fill:#0BC5B9;}
	.st110{fill:#686888;}
	.st111{fill:#0BC5BA;}
	.st112{fill:#FEFEFE;}
	.st113{fill:#F8F5CE;}
	.st114{fill:#EF484B;}
	.st115{fill:#F94A4A;}
	.st116{fill:#F9F6CE;}
	.st117{fill:#DFE0E3;}
	.st118{fill:#04121D;}
	.st119{fill:#6693AB;}
	.st120{fill:#89BCD7;}
	.st121{fill:#FAF509;}
	.st122{fill:#0B2E41;}
	.st123{fill:#427491;}
	.st124{fill:#2A5973;}
	.st125{fill:#184259;}
	.st126{fill:#BCE4F7;}
	.st127{fill:#02111C;}
	.st128{fill:#FCF704;}
	.st129{fill:#F4F115;}
	.st130{fill:#DFE23F;}
	.st131{fill:#BCE6FA;}
	.st132{fill:#031D2B;}
	.st133{fill:#81851A;}
	.st134{fill:#1E1E1E;}
	.st135{fill:#F5142E;}
	.st136{fill:#05ACC0;}
	.st137{fill:#F87240;}
	.st138{fill:#FA723F;}
	.st139{fill:#F67240;}
	.st140{fill:#E37547;}
	.st141{fill:#07ADC0;}
	.st142{fill:#450D0D;}
	.st143{fill:#F57240;}
	.st144{fill:#440D0D;}
	.st145{fill:#470D0D;}
	.st146{fill:#EBECCC;}
	.st147{fill:#E9EACA;}
	.st148{fill:#00ABBF;}
	.st149{fill:#F6FAD9;}
	.st150{fill:#CBC3AC;}
	.st151{fill:#E2615D;}
	.st152{fill:#FAFAF8;}
	.st153{fill:#E8E4DA;}
	.st154{fill:#123057;}
	.st155{fill:#F4D16B;}
	.st156{fill:none;stroke:#F1D34E;stroke-miterlimit:10;}
	.st157{fill:#E3834C;}
	.st158{fill:#E9A779;}
	.st159{fill:#ECB74A;}
	.st160{fill:#00A591;}
</style>
<path class="st77" d="M300.8-23.9c-0.2,0.4-0.4,0.8-0.8,1.2C277.6,0.7,277.7,2.2,303.4,22c10.7,8.3,10.9,16,0.4,23.9
	c-25.4,19.2-25.4,29.2-0.1,48.3c10.6,8,10.5,15.2-0.3,23.7c-25.4,20.1-25.3,28.6,0.8,48.4c9.9,7.5,9.9,15.7,0,23.2
	c-26.3,20.3-26.2,28.8,0.4,49.2c9.1,7,9.1,15.4,0.2,22.1c-26.9,20.2-26.8,30.9,0.5,49.8c3.1,2.2,6.8,3,5.7,7.8
	c-0.4,2.1-1.8,3-3.8,3.4c-4.7,0.8-6.6-2-7.7-5.9c-0.2-0.8-1.1-1.4-1.7-2.1c-20.8-24.6-27.7-24.4-47.4,1.3
	c-7.1,9.3-15.7,9.3-23.2,0.1c-0.6-0.7-1.3-1.3-1.9-2c-21.2-24.1-26.5-23.9-46.3,1.4c-8,10.3-16,10.3-24,0
	c-19.6-25.3-28.9-25.3-48.2-0.1c-7.9,10.3-15.7,10.3-24-0.1C62.4,289,55.7,289.1,35,315c-8,10-15.7,9.8-23.8-0.6
	c-19.6-25.2-28.8-25.1-48.1,0.8c-2.4,3.2-3.2,7.9-8.9,6.7c-2.2-0.5-2.9-1.9-3.1-3.9c-0.7-4.9,3.2-5.6,6.2-7.8
	c27-20.2,26.8-29.4-0.6-49.8c-7.6-5.6-7.6-15.4,0-21.3c28-21.7,28.1-27.3,0.7-50.1c-4.8-4-4.7-18.2,0.2-22.2
	c26.7-21.5,26.8-27.7,0.2-49.4c-9.4-7.7-9.2-15.6,0.6-23.2c25.5-19.9,25.6-26.3,0.6-47.6c-10.8-9.2-10.7-16.7,0.3-25.4
	C-16.1,1.7-16-3.9-40-24.2c-1.7-1.5-3.8-2.5-5.8-3.6c-4.4-2.5-4.4-6.6-1.6-9.2c2.8-2.6,6.7-2.2,8.9,2.4C-33.9-25.2-25-19.6-18.2-12
	c3.9,4.5,6.9,4.6,10.5-0.9c5.3-8,14.5-12.5,18.9-21.8c2.9-6.2,20.5-5.2,23.9,1.1c1.4,2.7,2,5.4,4.5,7.9C60.5-5.1,63.8-5.4,83.6-31
	c8.1-10.5,15.1-10.4,23.4,0.4c19.3,25.1,27.1,25.3,47.3,0.8c9.9-12,15.8-12,25.5,0.1c20.2,25,23.9,25.1,45.4,0.8
	c11.6-13.2,16.1-13.1,27.6,0.4c19.5,23,19.5,23,43.8,0.6C297.9-26.6,299.3-25.2,300.8-23.9z M88.7,239.8c0,6.8,0,13.6,0,20.4
	c-1.8,2.1-3.4,4.3-5.3,6.3C61.9,287.8,62,289,86,308c5.5,4.4,10.8,4.8,16.4,1.3c23.4-14.5,24.5-23.3,5.2-42.3
	c-2.6-2.6-5.2-5.3-7.7-7.9c1.9-0.7,3.8-1.5,5.6-2.2c3.1,2.7,6.4,5.2,9.3,8.1c16.5,16.5,16.5,16.6,32.5-0.2
	c4.9-5.1,13.3-9.8,9.1-18.2c-5.3-10.8-15.3-18.1-24.4-25.8c-2.5-2.1-5.4,2.4-7.6,4.5c-6.4,5.9-12.7,11.9-19,17.9
	c-1.9-0.8-3.7-1.5-5.6-2.3c2.9-3,5.9-5.9,8.7-8.9c17.7-18.3,17.6-18.2-1-36.7c-5.3-5.2-11.4-10.4-18-5.8c-9.3,6.6-18,14.4-23.5,24.8
	c-0.5,1,2.9,4.3,4.7,6.3C76.7,227,82.7,233.3,88.7,239.8z M12.9,243.1c-2.1-1.7-4.4-3.3-6.4-5.2c-20.1-19.6-20.1-19.6-39.5,0.6
	c-1.3,1.3-2.6,2.6-3.7,4.1c-2.9,4.2-3.4,9.3-0.4,12.9c6.9,8.6,13.7,19.4,23.8,22.3c7,2,12.1-9.6,18.1-15c3.1-2.8,6-5.7,9-8.6
	c1.6,1.5,3.2,3.1,4.7,4.6c-2.3,2.3-4.6,4.6-6.9,6.8c-21.8,21.3-21.7,22.6,2.2,41.7c0.7,0.6,1.4,1.3,2.1,1.8
	c5.2,3.5,10.4,3.1,15.4-0.3c23.4-16,24-22.5,4-42.1c-2.6-2.6-5.4-5.1-8.1-7.6c1.6-1.6,3.2-3.3,4.8-4.9c2.7,2.6,5.3,5.1,8,7.7
	c20.2,19.9,20.2,19.9,39.5-1.3c0.9-1,2-1.9,2.9-3c3.8-5,4.2-10.6,0.1-15.1c-7.2-7.8-14-18.1-23.1-21.1c-7.1-2.4-12.5,10.3-19.2,15.7
	c-2.5,2-5,4-7.5,6c-1.1-1.2-2.1-2.3-3.2-3.5c6.3-6.7,12.5-13.6,19-20.1c3.1-3.2,6.1-5.7,1.5-10.1c-26.4-25.5-24-32-50.8-3.2
	c-0.3,0.3-0.6,0.7-0.9,1c-5.5,4.4-5.8,8.3-0.3,13.4c6.3,6,13.5,11.4,18,19.1C15.1,240.9,14,242,12.9,243.1z M234.2,42.8
	c-2.5,2.7-5,5.4-7.6,8c-19.9,20.3-19.9,20.3,1.4,39.6c1,0.9,2,2,3.1,2.8c5,3.7,10.9,4.1,15.3,0.2c7.8-7.1,17.9-14.2,20.8-23.3
	c2.1-6.7-10.3-12.6-16-19.1c-2.4-2.8-5-5.5-7.5-8.2c2-0.4,3.9-0.8,5.9-1.3c1.8,1.3,3.8,2.5,5.4,4.1c22.3,21.7,23.5,21.5,42.7-3
	c4.4-5.6,4.4-11.1,0.7-16.5c-16.2-23.8-22.9-24.4-42.5-4.7c-2.6,2.6-5.4,5.1-8.1,7.6c-1-1.7-1.9-3.4-2.9-5.1
	c6.4-6.6,12.9-13.2,19.2-19.9c2.4-2.5,5.5-4.4,2.8-9.3c-13.9-24.9-29-27.3-48.9-7.3c-0.7,0.7-1.2,1.4-2,1.9
	c-7.7,5.4-8.8,10.5-0.6,16.9c5.7,4.5,10.2,10.6,15.2,16c-1.2,1.1-2.4,2.2-3.5,3.3c-1.8-1.4-3.7-2.7-5.4-4.3
	c-20.9-20.5-20.7-20.3-40.7,2.4c-4.4,5-5.9,11.3-3.1,15.1c6.6,8.8,14,18.5,23.4,23.2c7.1,3.5,11.4-8.6,17.5-13c3-2.1,5.6-4.7,8.4-7
	C229.7,42.4,231.9,42.6,234.2,42.8z M105.2,184.5c6.7,6.3,13.3,12.6,19.9,19c3.2,3.1,6.2,5.8,10.4,1.4c25.3-26.4,31.1-22.7,5.3-48.9
	c-8.5-8.7-13.3-8.1-20.2,0.6c-4.2,5.3-10,9.4-15,14.1c-1.1-1.1-2.2-2.3-3.3-3.4c3-3.4,5.9-7,9.1-10.3c14.8-15.4,14.9-15.4-0.8-30.8
	c-15.4-15.2-15.4-15.2-31-0.2c-15.1,14.5-15.1,14.5-2,31.6c-0.3,1.9-0.6,3.7-0.9,5.6c-19.2-15.7-19.2-15.7-37.1,3
	c-1.3,1.3-2.9,2.4-4,3.9c-4.3,5.4-4.2,10.6,0.2,16.1c20,25,20.2,25.1,42.6,3.4c2-1.9,4.2-3.5,6.4-5.3
	C91.7,184.3,98.4,184.4,105.2,184.5z M197.1,143.7c-0.6-2.2-0.6-3.3-1.2-3.9c-5.1-5.3-10.3-10.6-15.5-15.8
	c-12.6-12.6-14.6-12.6-26.8-0.3c-18.3,18.4-18.2,18.3,0.2,36.6c5.2,5.1,11.4,11.1,17.7,6.9C181.1,160.7,188.9,151.4,197.1,143.7z
	 M13.3,106.5c0.1-5.3-21.6-30.4-26.2-30.2c-3.8,0.1-25.5,24.8-25.7,29.3c-0.2,5.3,21.4,30.2,26.1,30.1
	C-8.3,135.5,13.2,111.2,13.3,106.5z M277,76.6c-9.2-0.4-29.9,27.4-27.5,34.3c0.2,0.4,0.2,0.9,0.5,1.3c7.5,8.2,14,19.3,24,22.3
	c7,2.1,12.1-9.7,18.4-14.9c5.9-5,12.1-11.4,7-18.8C293,91.5,284,83.9,277,76.6z M-12,148c-5.6,0.3-26.8,25.9-26.6,30.8
	c0.1,2.9,1.3,5.1,3,7.5c18.1,24.4,21.7,24.7,42.4,3.5c1-1,2.1-1.9,2.9-2.9c5.2-6.2,5.4-12.4-0.4-18.3c-5.5-5.6-11.1-11.1-16.7-16.6
	C-9,150.3-10.8,149-12,148z M105.2,106.1c0,5.3,22.1,30.4,26.4,29.9c3.7-0.4,25.3-25.7,25.5-29.9c0.2-5.6-21.9-29.9-26.7-29.4
	C125.6,77.2,105.2,100.9,105.2,106.1z M167.2,95.7c4.5-0.1,29-21.1,29.3-25.2c0.4-4.7-24.2-26.4-29.7-26.3
	c-4.5,0.1-29.1,21.3-29.4,25.3C137,74.3,161.5,95.8,167.2,95.7z M166.9,188.1c-4.4,0.1-29.4,21.8-29.5,25.7
	c-0.1,2.9,25.8,28.4,28.9,28.5c3.7,0.1,30.3-25.1,30.1-28.6C196.2,209.3,171.7,188,166.9,188.1z M85.2,105.7
	c-0.2-5.4-21.6-29.1-26.1-29c-5.1,0.1-26.3,25.2-25.9,30.5c0.4,5.2,22.7,28.7,26.7,28.2C64.3,134.9,85.4,110.1,85.2,105.7z
	 M23.5,23.9c1.1-0.2,4.2,0.3,5.5-1C37.1,15.3,47.2,8.4,51.7-1c2.8-5.9-8.9-11.2-13.6-17.3c-1.1-1.5-2.6-2.6-3.9-4
	c-7-7.6-14.1-7.9-21.4-0.5C8.6-18.4,4.3-14.2,0.2-9.8c-2.5,2.6-6.3,4.5-6.3,8.7C-6.2,2.9,17.7,23.4,23.5,23.9z M58.9,63.8
	c4.3-0.4,26-24.4,26.2-28.2c0.1-1.8,0.5-4.1-0.4-5.5c-6.1-10-15.6-16.8-23.6-24.9c-2-2-4.3,0.1-5.9,1.8
	c-23.9,24.8-33.8,23.6-5.1,49.4c1.7,1.5,3.1,3.4,4.9,4.9C56.3,62.5,58,63.3,58.9,63.8z M157,33.4c-0.2-4.7-21.9-28.9-25.8-28.9
	c-4.6,0.1-26.2,25.1-26,30.2c0.1,4.9,21.5,28.7,25.9,28.7C135.7,63.6,157.2,38.7,157,33.4z M239.3,239.8c4.8-0.2,29-21.7,29.1-25.8
	c0.1-4.5-25.1-26.3-30.2-26.2c-4.4,0.1-29.1,22.1-29.2,25.9C208.9,218.3,234.1,240,239.3,239.8z M95,95.7c6-0.1,30.1-21.6,29.6-26.4
	c-0.4-3.9-25.4-25-29.5-25c-5.8,0-30,21.7-29.4,26.4C66.2,75.4,90.1,95.7,95,95.7z M229,249.4c-0.2-4.8-22.1-29-26.1-28.9
	c-5.5,0.1-26,24.7-25.5,30.7c0.4,5.7,22.3,28.8,26.6,28.2C208.8,278.6,229.2,254.2,229,249.4z M274.8,220.4
	c-0.9,0.5-2.3,0.8-3.2,1.7c-6.9,6.9-13.9,13.6-20.4,20.8c-3.4,3.8-3.5,9.4-0.7,12.9c6.8,8.7,13.7,19.4,23.7,22.5
	c7.2,2.2,12-9.8,18.3-14.9c6.1-4.9,12.2-11.5,7-18.6C292.8,235.6,283.3,228.6,274.8,220.4z M125.4-0.5c-3.7-8.2-10.5-12.6-15.9-18.1
	c-12.9-13.1-16.1-12.9-29.2,0.2C63.6-1.6,63.7-1.8,81.1,15.5c5.5,5.4,11.6,12.1,18.9,7.3C109.4,16.5,117,7.4,125.4-0.5z M55.5,68.2
	C47.3,61,39.8,54.4,32.1,47.9c-6-5.1-11.8-5.3-18.2,0.1c-23.9,20.2-24,20.8-3.2,41.5c5.3,5.2,10.1,8.8,17.9,4.2
	C38.7,87.7,45.4,78.6,55.5,68.2z M13.1,34.3C13.2,29.5-7.5,5.3-12.1,4.7C-17,4.1-38.5,28.6-38.4,34.6c0.1,5.2,21.4,29.1,25.8,29
	C-8.2,63.5,13,39.3,13.1,34.3z M55.1,139.6c-7.9-6.8-15.6-13.3-23.1-20.1c-5.7-5.2-10.9-5.1-17-0.4c-24.8,19.3-24.9,21.8-2.8,43.4
	c7.3,7.1,14,7.9,21.2,0.5c5.1-5.3,10.4-10.5,15.5-15.8C50.6,145.6,51.8,143.7,55.1,139.6z M204,148.2c-4.2,0.3-6.2,3.1-8.3,5.4
	c-3.1,3.3-5.1,7.6-8.5,10.4c-13.7,11.3-14,15.3-1.5,28.1c17,17.4,17.1,17.4,34,0.3c5.1-5.2,12.9-10.3,8.4-18.5
	C222.5,163.4,212.3,156.3,204,148.2z M271.9,146.1c-3.9,5-7.8,10.3-12,15.2c-5.3,6.2-14.5,11.6-10,20.9c5.1,10.4,15,17.4,23.9,24.7
	c0.7,0.6,3.4-0.6,4.8-1.5c25.7-15.3,27.2-27.5,6.2-48.8c-2-2-3.8-4.1-5.9-5.9C277.6,149.5,276,148.7,271.9,146.1z M167.5,311.5
	c4.7-0.1,28.4-20.1,28.6-24.6c0.1-1.9-1.3-4.3-2.8-5.8c-26.4-26.3-23.7-30.4-50-3.2c-1.3,1.3-2.9,2.4-3.9,3.9
	c-1,1.4-2.1,3.3-1.9,4.8C138,291.5,162.6,311.6,167.5,311.5z M268.6,286.6c-3.3-7.1-9.4-11.5-14.5-16.6c-14-14.1-16.9-14-30.3-0.5
	c-16.4,16.6-16.4,16.6,0.8,33.5c5.4,5.3,11,11.9,18.9,7.5C253.7,304.9,260.7,295.3,268.6,286.6z M196.3-0.9
	c-0.1-7.1-25.6-27.8-31.8-26.7c-1.3,0.2-3,0.4-3.8,1.2c-7.7,7.8-18.5,14.7-21.9,24.2c-2.4,6.6,10.2,12.5,15.6,19.2
	c4.8,6,11.7,10,18,5.4C181.5,15.7,188.8,6.7,196.3-0.9z M272.1,140.5c-6.9-5.6-13.2-10.2-18.7-15.5c-14.1-13.3-15.2-13.5-29,0.1
	c-16.9,16.6-16.8,16.6,0.1,33.6c5.2,5.3,11,13,18.3,8.3C252.6,160.8,260.4,151.4,272.1,140.5z M177.3,105.8
	c-0.1,4.7,20.5,29.2,25,29.7c4.9,0.5,26.7-24,26.6-29.9c-0.1-5.4-21.3-28.9-26-28.9C197.9,76.7,177.4,100.1,177.3,105.8z"/>
<path class="st84" d="M16.2,239.7c-4.5-7.8-11.6-13.2-18-19.1c-5.5-5.2-5.2-9.1,0.3-13.4c0.4-0.3,0.6-0.7,0.9-1
	c26.8-28.7,24.4-22.3,50.8,3.2c4.6,4.4,1.6,6.9-1.5,10.1c-6.5,6.6-12.7,13.4-19,20.1C25.3,239.6,20.8,239.7,16.2,239.7z"/>
<path class="st84" d="M247.9,29.1c2.7-2.5,5.4-5,8.1-7.6c19.6-19.7,26.3-19,42.5,4.7c3.7,5.4,3.7,10.8-0.7,16.5
	c-19.1,24.5-20.4,24.7-42.7,3c-1.6-1.6-3.6-2.7-5.4-4.1c-0.6-0.7-1.2-1.5-1.8-2.2c-0.3-0.9-0.6-1.8-0.9-2.7
	C248.9,34.5,248,31.8,247.9,29.1z"/>
<path class="st84" d="M227.4,42.2c-2.8,2.4-5.5,4.9-8.4,7c-6.1,4.4-10.4,16.5-17.5,13c-9.4-4.7-16.8-14.4-23.4-23.2
	c-2.8-3.8-1.3-10.2,3.1-15.1c20-22.7,19.8-22.9,40.7-2.4c1.6,1.6,3.6,2.9,5.4,4.3C230.1,31.3,230.5,36.7,227.4,42.2z"/>
<path class="st83" d="M197.1,143.7c-8.2,7.7-16,17-25.7,23.6c-6.3,4.3-12.5-1.8-17.7-6.9c-18.4-18.2-18.5-18.1-0.2-36.6
	c12.2-12.3,14.2-12.3,26.8,0.3c5.2,5.2,10.4,10.5,15.5,15.8C196.5,140.4,196.4,141.5,197.1,143.7z"/>
<path class="st84" d="M77.7,157.5c-13.2-17.1-13.2-17.1,1.9-31.6c15.6-15,15.6-15,31,0.2c15.7,15.5,15.6,15.4,0.8,30.8
	c-3.2,3.3-6.1,6.9-9.1,10.3C91,171.8,84.9,163.4,77.7,157.5z"/>
<path class="st83" d="M13.3,106.5c-0.1,4.7-21.6,29-25.8,29.1c-4.7,0.1-26.3-24.7-26.1-30.1c0.2-4.5,21.8-29.2,25.7-29.3
	C-8.3,76.1,13.4,101.2,13.3,106.5z"/>
<path class="st84" d="M85,184.3c-2.1,1.7-4.4,3.3-6.4,5.3c-22.4,21.7-22.6,21.6-42.6-3.4c-4.4-5.5-4.5-10.7-0.2-16.1
	c1.1-1.4,2.7-2.5,4-3.9c17.9-18.6,17.9-18.6,37.1-3C82.1,169.2,88.1,175,85,184.3z"/>
<path class="st84" d="M277,76.6c7,7.3,16,14.8,22.5,24.1c5.2,7.4-1,13.8-7,18.8c-6.3,5.2-11.3,17.1-18.4,14.9
	c-10.1-3.1-16.6-14.1-24-22.3c-0.3-0.3-0.4-0.8-0.5-1.3C247.2,104,267.8,76.3,277,76.6z"/>
<path class="st84" d="M-12,148c1.2,1,3,2.3,4.6,3.9c5.6,5.5,11.2,11,16.7,16.6c5.8,5.9,5.6,12.1,0.4,18.3c-0.9,1.1-2,1.9-2.9,2.9
	c-20.7,21.3-24.3,21-42.4-3.5c-1.7-2.3-2.9-4.5-3-7.5C-38.8,173.8-17.6,148.3-12,148z"/>
<path class="st84" d="M105.2,106.1c0-5.1,20.4-28.9,25.2-29.3c4.8-0.5,26.9,23.9,26.7,29.4c-0.1,4.1-21.8,29.5-25.5,29.9
	C127.3,136.4,105.2,111.4,105.2,106.1z"/>
<path class="st84" d="M167.2,95.7c-5.7,0.1-30.2-21.4-29.8-26.2c0.3-4,24.9-25.2,29.4-25.3c5.6-0.1,30.1,21.6,29.7,26.3
	C196.2,74.6,171.7,95.6,167.2,95.7z"/>
<path class="st94" d="M166.9,188.1c4.8-0.1,29.3,21.2,29.5,25.6c0.1,3.5-26.4,28.7-30.1,28.6c-3.2-0.1-29-25.6-28.9-28.5
	C137.5,209.9,162.4,188.1,166.9,188.1z"/>
<path class="st94" d="M85.2,105.7c0.2,4.4-20.9,29.1-25.3,29.7c-4,0.5-26.3-23-26.7-28.2c-0.4-5.3,20.8-30.4,25.9-30.5
	C63.6,76.6,84.9,100.3,85.2,105.7z"/>
<path class="st84" d="M105.4,243.1c6.3-6,12.6-12,19-17.9c2.2-2,5.1-6.6,7.6-4.5c9,7.7,19.1,15,24.4,25.8c4.1,8.4-4.3,13.1-9.1,18.2
	c-15.9,16.9-16,16.8-32.5,0.2c-2.9-2.9-6.2-5.4-9.3-8.1C105.5,252.3,105.5,247.7,105.4,243.1z"/>
<path class="st83" d="M23.5,23.9c-5.8-0.4-29.6-21-29.6-25c0-4.2,3.8-6.1,6.3-8.7c4.1-4.4,8.5-8.6,12.7-12.9
	c7.3-7.4,14.4-7.1,21.4,0.5c1.3,1.4,2.8,2.5,3.9,4C42.7-12.2,54.5-6.9,51.7-1C47.2,8.4,37.1,15.3,29,22.9
	C27.6,24.2,24.6,23.7,23.5,23.9z"/>
<path class="st94" d="M58.9,63.8c-0.9-0.6-2.6-1.3-3.9-2.5c-1.7-1.5-3.1-3.4-4.9-4.9C21.4,30.7,31.3,31.9,55.2,7
	c1.6-1.6,3.8-3.8,5.9-1.8c8.1,8.1,17.6,15,23.6,24.9c0.8,1.4,0.5,3.6,0.4,5.5C84.9,39.5,63.2,63.4,58.9,63.8z"/>
<path class="st84" d="M157,33.4c0.2,5.3-21.3,30.2-26,30.1c-4.4-0.1-25.7-23.8-25.9-28.7c-0.2-5.1,21.4-30.2,26-30.2
	C135.1,4.5,156.8,28.7,157,33.4z"/>
<path class="st94" d="M239.3,239.8c-5.2,0.2-30.4-21.5-30.3-26.1c0.1-3.8,24.8-25.7,29.2-25.9c5.1-0.2,30.3,21.7,30.2,26.2
	C268.3,218.1,244.1,239.6,239.3,239.8z"/>
<path class="st94" d="M105.6,170.7c5.1-4.7,10.8-8.8,15-14.1c6.9-8.7,11.7-9.3,20.2-0.6c25.7,26.2,19.9,22.5-5.3,48.9
	c-4.2,4.4-7.2,1.7-10.4-1.4c-6.6-6.4-13.3-12.7-19.9-19C105.3,179.9,105.5,175.3,105.6,170.7z"/>
<path class="st94" d="M33,243.1c2.5-2,5-4,7.5-6c6.7-5.4,12-18.1,19.2-15.7c9.1,3,15.9,13.4,23.1,21.1c4.1,4.5,3.7,10.1-0.1,15.1
	c-0.8,1.1-1.9,2-2.9,3c-19.3,21.2-19.3,21.2-39.5,1.3c-2.6-2.6-5.3-5.1-8-7.7C32.5,250.6,32.7,246.8,33,243.1z"/>
<path class="st84" d="M95,95.7c-4.9,0.1-28.9-20.2-29.4-25C65.1,66,89.3,44.3,95.1,44.3c4.2,0,29.1,21.1,29.5,25
	C125.1,74.1,101.1,95.6,95,95.7z"/>
<path class="st94" d="M229,249.4c0.2,4.8-20.2,29.2-25,30c-4.3,0.6-26.2-22.5-26.6-28.2c-0.4-6,20-30.6,25.5-30.7
	C206.9,220.4,228.8,244.6,229,249.4z"/>
<path class="st84" d="M274.8,220.4c8.5,8.2,18,15.3,24.7,24.4c5.2,7.1-0.9,13.7-7,18.6c-6.3,5.1-11.2,17.1-18.3,14.9
	c-10-3.1-16.9-13.8-23.7-22.5c-2.8-3.6-2.8-9.1,0.7-12.9c6.5-7.2,13.5-14,20.4-20.8C272.4,221.2,273.9,220.8,274.8,220.4z"/>
<path class="st94" d="M125.4-0.5c-8.4,7.9-16,17-25.5,23.3c-7.3,4.8-13.4-1.8-18.9-7.3C63.7-1.8,63.6-1.6,80.4-18.4
	c13.1-13.1,16.3-13.3,29.2-0.2C114.9-13.1,121.7-8.7,125.4-0.5z"/>
<path class="st94" d="M55.5,68.2C45.4,78.6,38.7,87.7,28.6,93.6c-7.8,4.6-12.6,1-17.9-4.2C-10.1,68.7-10,68.1,13.9,48
	c6.5-5.4,12.2-5.2,18.2-0.1C39.8,54.4,47.3,61,55.5,68.2z"/>
<path class="st84" d="M13.1,34.3c-0.1,5-21.3,29.1-25.7,29.2c-4.4,0.1-25.7-23.8-25.8-29c-0.1-6,21.4-30.5,26.3-29.9
	C-7.5,5.3,13.2,29.5,13.1,34.3z"/>
<path class="st94" d="M55.1,139.6c-3.3,4.1-4.6,5.9-6.1,7.5c-5.1,5.3-10.3,10.5-15.5,15.8c-7.3,7.5-13.9,6.6-21.2-0.5
	c-22.2-21.6-22-24.1,2.8-43.4c6.1-4.7,11.2-4.8,17,0.4C39.5,126.3,47.3,132.8,55.1,139.6z"/>
<path class="st94" d="M204,148.2c8.3,8.1,18.5,15.2,24.2,25.7c4.5,8.2-3.3,13.4-8.4,18.5c-16.9,17.1-16.9,17-34-0.3
	c-12.6-12.8-12.2-16.8,1.5-28.1c3.4-2.8,5.4-7.2,8.5-10.4C197.8,151.3,199.8,148.5,204,148.2z"/>
<path class="st94" d="M230.8,22.5c-5-5.4-9.5-11.5-15.2-16c-8.2-6.5-7.1-11.5,0.6-16.9c0.7-0.5,1.3-1.3,2-1.9
	C238-32.4,253.1-30,267-5.1c2.7,4.8-0.4,6.7-2.8,9.3c-6.4,6.7-12.8,13.3-19.2,19.9C240.2,24.1,235.3,24.8,230.8,22.5z"/>
<path class="st94" d="M271.9,146.1c4.1,2.7,5.8,3.5,7.1,4.6c2.1,1.8,3.9,3.9,5.9,5.9c21,21.3,19.4,33.5-6.2,48.8
	c-1.5,0.9-4.1,2.1-4.8,1.5c-8.9-7.3-18.8-14.3-23.9-24.7c-4.6-9.3,4.6-14.7,10-20.9C264.1,156.4,267.9,151.1,271.9,146.1z"/>
<path class="st84" d="M167.5,311.5c-4.9,0.1-29.6-20-30-24.9c-0.1-1.5,1-3.4,1.9-4.8c1-1.5,2.6-2.6,3.9-3.9
	c26.2-27.2,23.5-23.1,50,3.2c1.5,1.5,2.9,3.9,2.8,5.8C196,291.4,172.3,311.3,167.5,311.5z"/>
<path class="st94" d="M268.6,286.6c-7.9,8.7-15,18.4-25.1,24c-7.9,4.4-13.5-2.2-18.9-7.5c-17.1-17-17.2-16.9-0.8-33.5
	c13.4-13.5,16.3-13.6,30.3,0.5C259.2,275.1,265.3,279.5,268.6,286.6z"/>
<path class="st94" d="M196.3-0.9c-7.5,7.5-14.9,16.6-23.9,23.3c-6.2,4.6-13.1,0.6-18-5.4c-5.4-6.7-18.1-12.6-15.6-19.2
	c3.5-9.5,14.2-16.3,21.9-24.2c0.8-0.8,2.5-1,3.8-1.2C170.8-28.6,196.3-8,196.3-0.9z"/>
<path class="st94" d="M272.1,140.5c-11.7,10.9-19.5,20.3-29.3,26.6c-7.3,4.7-13.1-3-18.3-8.3c-16.9-17-16.9-16.9-0.1-33.6
	c13.8-13.6,14.9-13.4,29-0.1C259,130.4,265.2,134.9,272.1,140.5z"/>
<path class="st94" d="M177.3,105.8c0.1-5.8,20.6-29.1,25.5-29.1c4.8,0,25.9,23.5,26,28.9c0.1,5.8-21.7,30.4-26.6,29.9
	C197.8,135.1,177.2,110.6,177.3,105.8z"/>
<path class="st94" d="M99.9,259c2.6,2.6,5.1,5.3,7.7,7.9c19.2,19,18.2,27.8-5.2,42.3c-5.7,3.5-10.9,3.1-16.4-1.3
	c-24-19-24.1-20.2-2.7-41.6c1.9-1.9,3.6-4.2,5.3-6.3C92.4,259.8,96.2,259.4,99.9,259z"/>
<path class="st94" d="M243.6,43c2.5,2.7,5,5.4,7.5,8.2c5.7,6.5,18.1,12.4,16,19.1c-2.8,9.1-13,16.2-20.8,23.3
	c-4.3,4-10.2,3.6-15.3-0.2c-1.1-0.8-2-1.9-3.1-2.8c-21.3-19.3-21.3-19.3-1.4-39.6c2.6-2.6,5.1-5.4,7.6-8
	C237.4,42.9,240.5,42.9,243.6,43z"/>
<path class="st94" d="M27.4,259.2c2.7,2.5,5.5,5,8.1,7.6c20,19.6,19.3,26.1-4,42.1c-5,3.4-10.2,3.8-15.4,0.3
	c-0.8-0.5-1.4-1.2-2.1-1.8c-23.9-19.2-24-20.4-2.2-41.7c2.3-2.3,4.6-4.5,6.9-6.8C21.5,259,24.5,259.1,27.4,259.2z"/>
<path class="st94" d="M13.9,254.3c-3,2.9-6,5.8-9,8.6c-6,5.4-11.2,17-18.1,15c-10.1-2.9-16.9-13.7-23.8-22.3
	c-3-3.7-2.5-8.7,0.4-12.9c1-1.5,2.4-2.8,3.7-4.1c19.3-20.2,19.3-20.2,39.5-0.6c2,1.9,4.3,3.4,6.4,5.2
	C13.2,246.9,13.6,250.6,13.9,254.3z"/>
<path class="st94" d="M88.7,239.8c-6-6.4-12-12.8-17.9-19.2c-1.8-2-5.2-5.3-4.7-6.3c5.5-10.4,14.2-18.2,23.5-24.8
	c6.6-4.7,12.7,0.5,18,5.8c18.6,18.4,18.8,18.3,1,36.7c-2.9,3-5.8,5.9-8.7,8.9C96.1,240.4,92.4,240.1,88.7,239.8z"/>
<path class="st78" d="M105.6,170.7c-0.2,4.6-0.3,9.2-0.5,13.8c-6.7-0.1-13.4-0.2-20.2-0.2c3.1-9.3-2.9-15-8.1-21.1
	c0.3-1.9,0.6-3.7,0.9-5.6c7.2,5.8,13.3,14.2,24.6,9.8C103.4,168.4,104.5,169.5,105.6,170.7z"/>
<path class="st78" d="M243.6,43c-3.1,0-6.3-0.1-9.4-0.1c-2.3-0.2-4.6-0.4-6.8-0.6c3.2-5.5,2.8-11-0.2-16.4c1.2-1.1,2.4-2.2,3.5-3.3
	c4.5,2.3,9.4,1.6,14.2,1.5c1,1.7,1.9,3.4,2.9,5.1c0.2,2.6,1,5.3-1,7.7c-2.3,1.7-1.2,2.4,0.9,2.7c0.6,0.7,1.2,1.5,1.8,2.2
	C247.6,42.1,245.6,42.5,243.6,43z"/>
<path class="st78" d="M13.9,254.3c-0.3-3.7-0.6-7.5-1-11.2c1.1-1.1,2.2-2.3,3.3-3.4c4.5,0,9-0.1,13.6-0.1c1.1,1.2,2.1,2.3,3.2,3.5
	c-0.3,3.8-0.5,7.5-0.8,11.3c-1.6,1.6-3.2,3.3-4.8,4.9c-2.9-0.1-5.8-0.2-8.8-0.3C17,257.4,15.5,255.9,13.9,254.3z"/>
<path class="st78" d="M88.7,239.8c3.7,0.3,7.5,0.7,11.2,1c1.9,0.8,3.7,1.5,5.6,2.3c0,4.6,0.1,9.2,0.1,13.8c-1.9,0.7-3.8,1.5-5.6,2.2
	c-3.8,0.4-7.5,0.7-11.3,1.1C88.6,253.3,88.6,246.5,88.7,239.8z"/>
<path class="st77" d="M247.7,39.5c-2-0.4-3.2-1-0.9-2.7C247.1,37.7,247.4,38.6,247.7,39.5z"/>
</svg>
