<?xml version="1.0" encoding="utf-8"?>
<!-- Generator: Adobe Illustrator 24.0.2, SVG Export Plug-In . SVG Version: 6.00 Build 0)  -->
<svg version="1.1" id="Capa_1" xmlns="http://www.w3.org/2000/svg" xmlns:xlink="http://www.w3.org/1999/xlink" x="0px" y="0px"
	 viewBox="0 0 288 288" style="enable-background:new 0 0 288 288;" xml:space="preserve">
<style type="text/css">
	.st0{fill:#2D2D2D;}
	.st1{fill:#002530;}
	.st2{fill:#050523;}
	.st3{fill:#707C84;}
	.st4{fill:#E9E4DE;}
	.st5{fill:#EE3133;}
	.st6{fill:#FD99AF;}
	.st7{fill:#C4C2C0;}
	.st8{fill:#F2D8A3;}
	.st9{fill:#EFCB84;}
	.st10{fill:#EF692F;}
	.st11{fill:#4B343F;}
	.st12{fill:#16B198;}
	.st13{fill:#E72D52;}
	.st14{fill:#7B536F;}
	.st15{fill:#8F4CA9;}
	.st16{fill:#E2C29F;}
	.st17{fill:#9F4687;}
	.st18{fill:#A9A0AF;}
	.st19{fill:#CC4743;}
	.st20{fill:#8677A9;}
	.st21{fill:#8E5D8E;}
	.st22{fill:#DF615C;}
	.st23{fill:#9E4742;}
	.st24{fill:#D34861;}
	.st25{fill:#B75B6D;}
	.st26{fill:#DF6482;}
	.st27{fill:#FFFFFF;}
	.st28{fill:#829CA2;}
	.st29{fill:#F2B991;}
	.st30{fill:#E56759;}
	.st31{fill:#F5F3EE;}
	.st32{fill:#DC4B3F;}
	.st33{fill:#1D5A7D;}
	.st34{fill:#459492;}
	.st35{fill:#F0A349;}
	.st36{fill:#E4EFEB;}
	.st37{fill:#E17467;}
	.st38{fill:#B6BFBD;}
	.st39{fill:#F0E2D6;}
	.st40{fill:#396D89;}
	.st41{fill:#201A21;}
	.st42{fill:#48505D;}
	.st43{fill:#0B0707;}
	.st44{fill:#D30034;}
	.st45{fill:#6C919B;}
	.st46{fill:#F68C4A;}
	.st47{fill:#E5CFCD;}
	.st48{fill:#385B4D;}
	.st49{fill:#F14206;}
	.st50{fill:#BAD2D8;}
	.st51{fill:#F70059;}
	.st52{fill:#AA000C;}
	.st53{fill:#D8B5B2;}
	.st54{fill:#E08143;}
	.st55{fill:#F2E9E9;}
	.st56{fill:#F4D085;}
	.st57{fill:#23586A;}
	.st58{fill:#17241F;}
	.st59{fill:#EAE8E1;}
	.st60{fill:#253C4F;}
	.st61{fill:#F7FCFD;}
	.st62{fill:#0E151F;}
	.st63{fill:#8D897D;}
	.st64{fill:#BDB6AA;}
	.st65{fill:#EDE1AF;}
	.st66{fill:#DF786F;}
	.st67{fill:#E8C46F;}
	.st68{fill:#B0CEAD;}
	.st69{fill:#9FC4AF;}
	.st70{fill:#B8C6A0;}
	.st71{fill:#EBEC80;}
	.st72{fill:#DD7AB2;}
	.st73{fill:#D6D2D3;}
	.st74{fill:#69BCC5;}
	.st75{fill:#D0CBC1;}
	.st76{fill:#242424;}
	.st77{fill:#525252;}
	.st78{fill:#3D3D3D;}
	.st79{fill:#6B6B6B;}
	.st80{fill:#303030;}
	.st81{fill:#8A8A8A;}
	.st82{fill:#282828;}
	.st83{fill:#E6E6E6;}
	.st84{fill:#E8E8E8;}
	.st85{fill:#A9A9A9;}
	.st86{fill:#D9D9D9;}
	.st87{fill:#CACACA;}
	.st88{fill:#9E9E9E;}
	.st89{fill:none;}
	.st90{fill:#4A4744;}
	.st91{fill:#F0BA45;}
	.st92{fill:#F1D34E;}
	.st93{fill:none;stroke:#00A591;stroke-miterlimit:10;}
	.st94{fill:#EEEEEE;}
	.st95{fill:#FBFBFB;}
	.st96{fill:#F8F2DD;}
	.st97{fill:#8DB2A6;}
	.st98{fill:#ED8C58;}
	.st99{fill:#F0C153;}
	.st100{fill:#C2B146;}
	.st101{fill:#8E6E51;}
	.st102{fill:#1C1D4C;}
	.st103{fill:#111224;}
	.st104{fill:#26687B;}
	.st105{fill:#F8494A;}
	.st106{fill:#81819B;}
	.st107{fill:#80809B;}
	.st108{fill:#0AC6BB;}
	.st109{fill:#0BC5B9;}
	.st110{fill:#686888;}
	.st111{fill:#0BC5BA;}
	.st112{fill:#FEFEFE;}
	.st113{fill:#F8F5CE;}
	.st114{fill:#EF484B;}
	.st115{fill:#F94A4A;}
	.st116{fill:#F9F6CE;}
	.st117{fill:#DFE0E3;}
	.st118{fill:#04121D;}
	.st119{fill:#6693AB;}
	.st120{fill:#89BCD7;}
	.st121{fill:#FAF509;}
	.st122{fill:#0B2E41;}
	.st123{fill:#427491;}
	.st124{fill:#2A5973;}
	.st125{fill:#184259;}
	.st126{fill:#BCE4F7;}
	.st127{fill:#02111C;}
	.st128{fill:#FCF704;}
	.st129{fill:#F4F115;}
	.st130{fill:#DFE23F;}
	.st131{fill:#BCE6FA;}
	.st132{fill:#031D2B;}
	.st133{fill:#81851A;}
	.st134{fill:#1E1E1E;}
	.st135{fill:#F5142E;}
	.st136{fill:#05ACC0;}
	.st137{fill:#F87240;}
	.st138{fill:#FA723F;}
	.st139{fill:#F67240;}
	.st140{fill:#E37547;}
	.st141{fill:#07ADC0;}
	.st142{fill:#450D0D;}
	.st143{fill:#F57240;}
	.st144{fill:#440D0D;}
	.st145{fill:#470D0D;}
	.st146{fill:#EBECCC;}
	.st147{fill:#E9EACA;}
	.st148{fill:#00ABBF;}
	.st149{fill:#F6FAD9;}
	.st150{fill:#CBC3AC;}
	.st151{fill:#E2615D;}
	.st152{fill:#FAFAF8;}
	.st153{fill:#E8E4DA;}
	.st154{fill:#123057;}
	.st155{fill:#F4D16B;}
	.st156{fill:none;stroke:#F1D34E;stroke-miterlimit:10;}
	.st157{fill:#E3834C;}
	.st158{fill:#E9A779;}
	.st159{fill:#ECB74A;}
	.st160{fill:#00A591;}
</style>
<path class="st0" d="M311.2-18.2c6.5,0,13-0.1,19.5,0.1c3.1,0.1,6.9-0.7,7.2,4.2c0.3,5-2.5,6.4-6.9,6.4c-8.8,0-17.7,0.5-26.4,0
	C296.8-7.9,294-5.2,294,2.8c-0.1,10.5,4.6,23.9-2.1,30.9c-6.9,7.2-20.3,2.3-30.8,2.2c-8.2-0.1-10.2,3.1-10.3,10.6
	c-0.2,10.6,4.8,24.1-2.1,30.9c-6.8,6.7-20.3,2.4-30.9,2.1c-8.8-0.2-11,2.6-10.8,11.1c0.2,10.5,4.7,24-2.2,30.8
	c-6.9,6.8-20.3,2.2-30.8,2c-8.8-0.1-10.9,3.4-11,11.6c-0.2,10.4,5.3,24.2-2.7,30.3c-6.6,5-19.6,2.2-29.7,1.8
	c-8.7-0.3-10.9,3.1-11,11.4c-0.1,10.4,5.1,24.3-2.6,30.4c-6.4,5.1-19.6,2.4-29.7,1.7c-9.7-0.6-11.6,3.4-11.4,12.1
	c0.3,10.1,4.3,22.8-1.9,29.6c-6.4,7-19.3,2.3-29.3,2.3c-9.5-0.1-12.8,2.5-12.7,12.5c0.2,30.6-0.2,31-30.7,31.1
	c-9.5,0-13.6,2.6-12.6,12.6c0.8,7.8,0.2,15.8,0.2,23.7c0,4.1-0.9,7.5-6,7.3c-4.9-0.2-4.4-3.9-4.4-7.1c-0.1-13,0.2-26-0.1-39
	c-0.2-6.4,3-7.3,8.5-7.7c11.3-0.7,26.4,5.5,33-3c5.5-7.1,2-21.4,1.9-32.5c0-6.9,3-8.8,9.3-8.5c7.4,0.4,14.9-0.7,22.3,0.2
	c10.4,1.3,12.3-3.4,12.2-12.6c-0.1-30.9,0.2-31.3,31-31c10.5,0.1,13.3-3,13.1-13.4c-0.6-29.7-0.1-30.2,30.1-29.9
	c11.6,0.1,13.8-4.2,13.6-14.7c-0.7-29.4-0.3-30.1,29.4-29.2c12.2,0.3,14.4-3.9,14.1-15c-0.6-29.1-0.1-29.8,28.7-28.8
	c12.5,0.5,15.6-3.4,15.2-15.5c-0.8-28.2-0.2-29,27.8-27.9c13.7,0.5,16-4.4,15.7-16.5C283.3-18.1,283.8-18.2,311.2-18.2z"/>
<path class="st80" d="M140.7-18.2c7.9,0,15.8-0.1,23.7,0.1c3.8,0.1,9.2-1.4,8.8,5.5c-0.4,6.4-5.5,5.1-9.4,5.2
	c-10.7,0.2-21.4,0.5-32-0.1C122.9-8,119.6-5.4,119.5,4c-0.3,31.4-0.7,31.7-32.9,31.8c-8.9,0-10.7,3.1-10.8,11.3
	c0,10.5,5,24.4-2.5,30.5c-6.2,5.1-19.6,2.4-29.6,1.7c-9.7-0.7-11.4,3.4-11.5,12c-0.5,31.5-0.8,31.9-31.5,31.8
	c-10.3,0-12.8,3.8-12,13c0.7,8.3,0.1,16.7,0.2,25c0,4.3-2.7,5.7-6.3,5.6c-3.9,0-4.1-3.1-4.1-5.9c-0.1-13.9,0.1-27.8-0.1-41.7
	c-0.1-5.9,3.3-6.6,8.1-6.6c9.3,0.2,18.6-0.3,27.8,0.1c6.2,0.3,8-2.4,7.9-8.1c-0.3-8.8,0.3-17.6-0.2-26.4c-0.4-7.5,2.8-9.3,9.8-9.6
	c10.9-0.5,25.3,5.4,31.6-2.8c5.3-6.8,2.1-20.4,1.9-31c-0.1-7.3,2.6-9.5,9.7-9.6c11-0.2,25.1,5.1,32.1-2.1c6.9-7.2,2-21.2,2-32.2
	c0-7,1.9-10.1,9.4-9.4C125.8-17.6,133.2-18.2,140.7-18.2C140.7-18.2,140.7-18.2,140.7-18.2z"/>
<path class="st77" d="M255.7-12.2c-14.8,0-27.7,0.3-40.5-0.1c-7.1-0.2-9.5,2.1-10,9.5c-0.7,11.4,5.4,26.4-3.1,33
	c-7.1,5.5-21.4,2.3-32.4,2.1c-7.3-0.2-8.2,3.3-8.5,9.3c-0.5,11,4.8,24.9-2.2,32.3c-7.2,7.6-21.1,2.2-32.1,2.5
	c-7.2,0.2-9.5,2.4-9.9,9.6c-0.6,11.3,5.5,25.8-3.1,33.1c-7.6,6.4-21.5,1.8-32.5,1.7c-7.1,0-8.3,3.1-8.7,9.2
	c-0.7,11.4,5.3,26-3.1,33.3c-7.4,6.5-21.4,1.6-32.5,1.9c-6.7,0.1-8.6,2.8-8.8,9.2c-0.3,11,4.9,24.8-2.2,32.3
	c-7.2,7.7-21.2,2.5-32.1,2.5c-8.4,0-10,3.5-10,10.8c0,10.6,1.5,21.3-1.2,31.7c-0.1,0.6-1.5,0.9-4.9,2.6c0-16.3-0.1-31.3,0.1-46.3
	c0.1-5.5,4.5-4.9,8.1-5c8.8-0.1,17.7-0.5,26.5-0.1c7.4,0.3,9.5-2.7,9.5-9.8c0.1-11-4.8-25.1,2.2-32.2c7.1-7.1,21.2-1.9,32.2-2.3
	c7.1-0.2,9.6-2.4,9.6-9.7c0.1-11-4.9-25.1,2.3-32.2c7.1-7.1,21.2-2.1,32.2-2c7.3,0,9.6-2.5,9.7-9.7c0.2-11-4.5-24.9,2.2-32.4
	c7-7.6,21.1-2.3,32-2.4c8.4-0.1,10-3.5,10-10.9c0-10.6-4.5-23.8,2.2-31c6.8-7.3,20.2-2.6,30.7-2.3c9.4,0.2,11.6-3.1,11.6-12
	c0.2-32.6,0.5-32.7,33.7-32.6c6.4,0,12.9,0.5,19.3,0.9C252.8-17.5,253.2-16.2,255.7-12.2z"/>
<path class="st80" d="M162.7,315.5c-0.2-27.6-0.1-28.5,27.7-27.3c14.1,0.6,17-4.2,16.6-17.1c-0.7-27.2,0-28.1,27-26.9
	c14.2,0.6,16.7-4.6,16.4-17.2c-0.6-26.8,0.1-27.6,26.7-26.5c13.7,0.6,17.2-3.9,16.7-17c-0.9-26.7-0.2-27.2,26.8-26.4
	c5.6,0.2,16.7-5.6,16.4,5.4c-0.2,8.6-10.8,4.9-16.2,4.3c-13.9-1.6-17.2,3.9-16.7,17c1,26.8,0.3,27.6-26.4,26.6
	c-14-0.6-18.3,3.2-17.7,17.5c1.2,26.7,0.2,27.6-26.8,26.5c-13.7-0.5-17.3,3.6-16.7,17.1c1.2,26.8,0.3,27.7-26.8,26.6
	c-13.5-0.6-18.6,3.2-16.6,16.7c0.9,6.4,0,13,0.1,19.5c0.1,4.1-0.5,7.5-5.7,7.4c-5.8-0.1-4.9-4.3-4.9-7.9
	C162.6,327.6,162.7,321.6,162.7,315.5z"/>
<path class="st77" d="M71.5,341.3c0-15.2-0.4-30.5,0.2-45.7c0.2-4.9,5.4-3.9,9-4.2c11-0.8,25,4.7,32.2-2.3
	c7.3-7.1,1.9-21.2,2.4-32.1c0.3-7.1,2.6-10.2,9.8-9.9c8.3,0.3,16.7-0.2,25.1,0.2c7.2,0.3,10-2.6,9.6-9.8c-0.4-7.9,0.3-15.8-0.2-23.7
	c-0.6-8.7,3.2-11.1,11.4-11.3c10.5-0.2,23.9,4.8,30.8-2.4c6.8-7.1,2.1-20.4,2.1-30.9c0-7.6,2.3-10.7,10.3-10.8
	c10.9-0.2,24.7,5.3,32.1-2.4c6.8-7,2.3-20.4,2.1-30.9c-0.2-9.3,3.8-10.5,11.6-10.7c10.4-0.3,23.4,5,30.7-2.6c6.7-7,2.1-19.6,2-29.7
	c-0.1-8.7,2-12.7,11.5-12c11,0.8,22.1,0.2,36.2,0.2c-9.6,10.1-18.9,6.5-26.7,6.1c-11.6-0.6-14.9,3.1-14.7,14.7
	c0.6,30.1,0,30.8-29.4,29.7c-12.7-0.5-15.5,3.6-15.1,15.6c0.9,28.8,0.3,29.7-28.8,28.7c-13.8-0.5-15.9,4.9-15.5,16.7
	c0.8,27.8,0.3,28.6-27.3,27.5c-13.7-0.5-17.4,3.7-17.1,17c0.7,27.6,0,28.4-27.5,27.3c-13.9-0.5-17.1,4.2-16.8,17.2
	c0.6,27-0.1,27.8-27.6,26.9c-14-0.5-17.5,4.4-16.6,17.5c0.6,8.6,2.7,18-2,26.2C74.1,341.2,72.8,341.3,71.5,341.3z"/>
<path class="st77" d="M337.1,253.7c-9.5,0-19,0.3-28.5-0.1c-7.3-0.4-9.5,2.5-9.5,9.7c-0.1,11,4.9,25-2.2,32.2
	c-7.1,7.2-21.2,2-32.2,2.2c-8.1,0.1-10.2,3.3-9.9,10.9c0.4,10.2-0.1,20.3-0.4,30.5c0,0.7-1.1,1.3-1.8,2.1c-6.4-1.5-3.7-6.6-3.9-10
	c-0.4-9.3,0.4-18.6-0.2-27.8c-0.6-9,2.2-12.4,11.6-12.2c10.5,0.2,24.2,5,30.8-2.2c6.4-7,2.2-20.4,1.9-31
	c-0.3-8.8,2.8-11.7,11.2-10.8c11.2,1.1,22.7-1.8,33.7,1.9C337.5,250.5,337.3,252.1,337.1,253.7z"/>
<path class="st78" d="M29-17.9c0.1,1.8,0.2,3.7,0.3,5.5C26,1.3,30.9,15.6,26.9,29.2c-1.4-1.5-2.8-3-4.1-4.5
	c-0.1-11.3-0.2-22.6-0.2-34C22.6-13.6,21.4-19.1,29-17.9z"/>
<path class="st77" d="M22.7,24.7c1.4,1.5,2.8,3,4.1,4.5C14,35.4,1.1,31.5-11.8,29.7C-1,22.8,11.5,28.3,22.7,24.7z"/>
</svg>
