<?xml version="1.0" encoding="utf-8"?>
<!-- Generator: Adobe Illustrator 24.0.2, SVG Export Plug-In . SVG Version: 6.00 Build 0)  -->
<svg version="1.1" id="Capa_1" xmlns="http://www.w3.org/2000/svg" xmlns:xlink="http://www.w3.org/1999/xlink" x="0px" y="0px"
	 viewBox="0 0 288 288" style="enable-background:new 0 0 288 288;" xml:space="preserve">
<style type="text/css">
	.st0{fill:#2D2D2D;}
	.st1{fill:#002530;}
	.st2{fill:#050523;}
	.st3{fill:#707C84;}
	.st4{fill:#E9E4DE;}
	.st5{fill:#EE3133;}
	.st6{fill:#FD99AF;}
	.st7{fill:#C4C2C0;}
	.st8{fill:#F2D8A3;}
	.st9{fill:#EFCB84;}
	.st10{fill:#EF692F;}
	.st11{fill:#4B343F;}
	.st12{fill:#16B198;}
	.st13{fill:#E72D52;}
	.st14{fill:#7B536F;}
	.st15{fill:#8F4CA9;}
	.st16{fill:#E2C29F;}
	.st17{fill:#9F4687;}
	.st18{fill:#A9A0AF;}
	.st19{fill:#CC4743;}
	.st20{fill:#8677A9;}
	.st21{fill:#8E5D8E;}
	.st22{fill:#DF615C;}
	.st23{fill:#9E4742;}
	.st24{fill:#D34861;}
	.st25{fill:#B75B6D;}
	.st26{fill:#DF6482;}
	.st27{fill:#FFFFFF;}
	.st28{fill:#829CA2;}
	.st29{fill:#F2B991;}
	.st30{fill:#E56759;}
	.st31{fill:#F5F3EE;}
	.st32{fill:#DC4B3F;}
	.st33{fill:#1D5A7D;}
	.st34{fill:#459492;}
	.st35{fill:#F0A349;}
	.st36{fill:#E4EFEB;}
	.st37{fill:#E17467;}
	.st38{fill:#B6BFBD;}
	.st39{fill:#F0E2D6;}
	.st40{fill:#396D89;}
	.st41{fill:#201A21;}
	.st42{fill:#48505D;}
	.st43{fill:#0B0707;}
	.st44{fill:#D30034;}
	.st45{fill:#6C919B;}
	.st46{fill:#F68C4A;}
	.st47{fill:#E5CFCD;}
	.st48{fill:#385B4D;}
	.st49{fill:#F14206;}
	.st50{fill:#BAD2D8;}
	.st51{fill:#F70059;}
	.st52{fill:#AA000C;}
	.st53{fill:#D8B5B2;}
	.st54{fill:#E08143;}
	.st55{fill:#F2E9E9;}
	.st56{fill:#F4D085;}
	.st57{fill:#23586A;}
	.st58{fill:#17241F;}
	.st59{fill:#EAE8E1;}
	.st60{fill:#253C4F;}
	.st61{fill:#F7FCFD;}
	.st62{fill:#0E151F;}
	.st63{fill:#8D897D;}
	.st64{fill:#BDB6AA;}
	.st65{fill:#EDE1AF;}
	.st66{fill:#DF786F;}
	.st67{fill:#E8C46F;}
	.st68{fill:#B0CEAD;}
	.st69{fill:#9FC4AF;}
	.st70{fill:#B8C6A0;}
	.st71{fill:#EBEC80;}
	.st72{fill:#DD7AB2;}
	.st73{fill:#D6D2D3;}
	.st74{fill:#69BCC5;}
	.st75{fill:#D0CBC1;}
	.st76{fill:#242424;}
	.st77{fill:#525252;}
	.st78{fill:#3D3D3D;}
	.st79{fill:#6B6B6B;}
	.st80{fill:#303030;}
	.st81{fill:#8A8A8A;}
	.st82{fill:#282828;}
	.st83{fill:#E6E6E6;}
	.st84{fill:#E8E8E8;}
	.st85{fill:#A9A9A9;}
	.st86{fill:#D9D9D9;}
	.st87{fill:#CACACA;}
	.st88{fill:#9E9E9E;}
	.st89{fill:none;}
	.st90{fill:#4A4744;}
	.st91{fill:#F0BA45;}
	.st92{fill:#F1D34E;}
	.st93{fill:none;stroke:#00A591;stroke-miterlimit:10;}
	.st94{fill:#EEEEEE;}
	.st95{fill:#FBFBFB;}
	.st96{fill:#F8F2DD;}
	.st97{fill:#8DB2A6;}
	.st98{fill:#ED8C58;}
	.st99{fill:#F0C153;}
	.st100{fill:#C2B146;}
	.st101{fill:#8E6E51;}
	.st102{fill:#1C1D4C;}
	.st103{fill:#111224;}
	.st104{fill:#26687B;}
	.st105{fill:#F8494A;}
	.st106{fill:#81819B;}
	.st107{fill:#80809B;}
	.st108{fill:#0AC6BB;}
	.st109{fill:#0BC5B9;}
	.st110{fill:#686888;}
	.st111{fill:#0BC5BA;}
	.st112{fill:#FEFEFE;}
	.st113{fill:#F8F5CE;}
	.st114{fill:#EF484B;}
	.st115{fill:#F94A4A;}
	.st116{fill:#F9F6CE;}
	.st117{fill:#DFE0E3;}
	.st118{fill:#04121D;}
	.st119{fill:#6693AB;}
	.st120{fill:#89BCD7;}
	.st121{fill:#FAF509;}
	.st122{fill:#0B2E41;}
	.st123{fill:#427491;}
	.st124{fill:#2A5973;}
	.st125{fill:#184259;}
	.st126{fill:#BCE4F7;}
	.st127{fill:#02111C;}
	.st128{fill:#FCF704;}
	.st129{fill:#F4F115;}
	.st130{fill:#DFE23F;}
	.st131{fill:#BCE6FA;}
	.st132{fill:#031D2B;}
	.st133{fill:#81851A;}
	.st134{fill:#1E1E1E;}
	.st135{fill:#F5142E;}
	.st136{fill:#05ACC0;}
	.st137{fill:#F87240;}
	.st138{fill:#FA723F;}
	.st139{fill:#F67240;}
	.st140{fill:#E37547;}
	.st141{fill:#07ADC0;}
	.st142{fill:#450D0D;}
	.st143{fill:#F57240;}
	.st144{fill:#440D0D;}
	.st145{fill:#470D0D;}
	.st146{fill:#EBECCC;}
	.st147{fill:#E9EACA;}
	.st148{fill:#00ABBF;}
	.st149{fill:#F6FAD9;}
	.st150{fill:#CBC3AC;}
	.st151{fill:#E2615D;}
	.st152{fill:#FAFAF8;}
	.st153{fill:#E8E4DA;}
	.st154{fill:#123057;}
	.st155{fill:#F4D16B;}
	.st156{fill:none;stroke:#F1D34E;stroke-miterlimit:10;}
	.st157{fill:#E3834C;}
	.st158{fill:#E9A779;}
	.st159{fill:#ECB74A;}
	.st160{fill:#00A591;}
</style>
<path class="st81" d="M334,226c-10.6,6.3-23.4,0.7-27.6,9.1c-3.6,7.1-0.4,17.3-1.8,25.9c-4.1,25.8-30.9,48.4-57,45.1
	c-15.8-1.9-18.5,4.1-18.6,16.8c0,3.3,0.8,7.6-4.5,10.2c-3.8-7.4-0.6-14.6,0.6-21.3c1.1-6.3,0.7-9.8-5.4-13.5
	c-20-12.1-29.5-30.3-27.4-53.8c0.5-5.7-3-8.2-5.9-11.8c-9.9-12.1-10.2-28.9-0.9-39.7c10.3-12.1,26.1-14.6,40-4.8
	c6.4,4.5,12.2,5.2,19.3,4.6c21-1.7,38.4,5.5,50.3,23.3c5.4,8.1,10.4,13.6,21.1,8.9C320.7,223.2,326.2,223.6,334,226z M238.2,208.4
	c0.5,22-11.2,34.2-33.1,33.7c-6.3-0.2-8.8,1.3-8.3,7.3c1.6,17.3,7.7,32.1,22.7,42.4c6.8,4.7,10.3,3.3,13.6-4
	c11.3-25.1,29.8-43.4,54.9-54.4c7.3-3.2,7.7-7,3.7-12.7c-10.3-14.5-24.4-22.5-42.1-23.4C242,196.9,235,198.2,238.2,208.4z
	 M300.3,250.3c0.1-15.4-1.5-16.5-15.2-9.4c-19.9,10.2-34.8,25.7-45.5,45.2c-6.4,11.6-4.1,15.2,9.1,15.5
	C275.8,302.1,300.1,277.9,300.3,250.3z M184.3,213.1c0.2,1.1,0.4,2.9,0.7,4.7c0.8,4.7,2.8,10.1,7,11.2c5.1,1.3,5.4-5.1,7.3-8.4
	c3.7-6.5,8.7-11.8,14.1-16.8c3.4-3.2,12-3.6,9.6-9.3c-2.5-6-10.3-7-17-6.5C194.3,188.8,184.3,200.2,184.3,213.1z M233.1,213.3
	c-0.3-10.9-3.7-13.5-11.9-7.6c-4.6,3.3-9.4,6.3-12,11.3c-3.1,5.9-13.4,11.6-6.5,18.1c6.8,6.4,15.7,0.3,22.4-5
	C230.9,225.6,232.6,218.8,233.1,213.3z"/>
<path class="st81" d="M299.3,73.9c10.7,1.9,21.4,3.7,34.3,6c-10.7,7.6-19.6,0.3-28.1,1.7c-0.7-0.2-1.4-0.5-2.1-0.7
	c0.2,0.7,0.4,1.4,0.6,2.2c1.6,10.1,3,20.3-2.7,29.7c-7.3,12.1-24.8,17.7-37.9,10.4c-8.8-4.9-16.8-6.6-27.1-6.4
	c-29.2,0.7-53-21-57.1-48.7c-3.4-23,8.6-56.4,41.7-62.6c6.2-1.1,3.7-5,3.9-8.1c0.4-7.5-3.6-15-0.9-22.9c1.8,0.5,3.4,0.8,3.4,1
	c-0.9,20,9.7,27.5,28.5,31.5c17.5,3.6,29.4,16.8,33.2,35.5c-0.9,0.4-1.8,0.8-2.7,1.3c-9-16.8-19.9-31.3-40.3-34.9
	c-3.1-0.6-6.6-2.8-9.2-0.1c-3.4,3.5,0.5,6.8,1.4,10.1c2.8,10,13.6,16,13.7,27.3c-10.9-7.4-16.1-18.8-20.9-30.2
	c-2.6-6.1-5.8-7.3-11.8-5.6c-23,6.5-38.9,34.2-34.1,59.8c4.7,24.9,30.6,43.8,55.2,40.7c5.5-0.7,7.8-1.5,6.6-8.3
	c-2.6-14.6,2.3-26.8,16.6-33.1c7-3.1,5.7-5.4,1-9.4c-4.8-4.1-11.4-6.7-12.6-14c10.3,1.3,15.1,10.4,22.4,16c0,2.9,0,5.7,0.1,8.6
	c-17.5,7.3-23.8,15.5-22.5,28.7c0.7,7,3,8.9,9.7,5.1c11.4-6.4,18.1-16.7,23.9-27.8c1.2,0.2,2.4,0.4,3.5,0.6
	c-2.7,13.5-11.5,22.6-22.1,30.4c-2.3,1.7-7,1.9-6,6.3c0.8,3.6,4.5,4.3,7.4,5.5c5.3,2.1,10.7,1.9,16.1-0.3
	c14-5.9,18.3-18.3,12.6-37.1C299.7,79.8,299.5,76.8,299.3,73.9z"/>
<path class="st81" d="M79,3c8.2-1.6,16.4-3.4,24.6-1.2c17.5,4.8,26.6,27,16.8,42.7c-4.8,7.7-7.2,13.9-5.8,23.7
	c3.6,24.7-15.9,50.5-40.8,57.6c-26,7.5-56.2-3.9-66-27.8C2.2,84.3-3.7,78.4-18.2,83.6c-2.8,1-6.5,1.3-8.8-2.2c0.4-0.7,0.7-2,1.1-2
	c19.7,0.3,27.4-9.7,31.4-28.9C9.5,30.8,25.1,19,45.8,15.5c0,1.2,0,2.4,0,3.6c-18.5,8-33.5,19.4-38.5,40.1C6.5,62.7,5,67.2,8,69.8
	c3.3,2.9,6.8-0.7,10-2.2c18.7-8.4,31.6-23.4,44.2-38.8c1.4,3.3,4.4,3,7.2,3.1C75,48.8,83.2,55.6,96.3,54.6c8-0.6,9.6-3.6,5.7-10.6
	C96,33.3,85.7,27.9,76.4,21.2c0-1.1,0-2.1,0.1-3.2c13.3,2.3,21.6,11.3,29,21.6c1.8,2.5,2.5,7.1,6.3,6.4c3.9-0.7,5.2-4.9,6.3-8.4
	C123.4,20,107.8,3,89.3,6.1C85.5,6.7,80.2,11.4,79,3z M64,35C49.9,53.8,34.2,67.9,13.7,75.6c-7.3,2.7-6.7,7-4.3,13.1
	C18.9,113,37.2,123,67.9,120c23.7-2.3,44.7-28.7,41.5-52c-0.9-6.3-3.4-9.1-9.9-8.3C81.6,61.9,70.3,53.8,64,35z"/>
<path class="st81" d="M10,240.2c-4.2-8.7-13.2-7.1-20.3-9.2c-5-1.5-10.4-1.9-19.2-3.4c12.5-6.1,21.4-2.5,29.3,0
	c8.7,2.8,11.2,0.2,13.6-7.5c7.5-23.7,24.6-37,48.8-39.2c22.9-2,41.9,7.3,53.9,27.4c12,20,11.1,40.5-0.8,60.5
	c-7,11.7-17.7,19.1-30.3,23c-8.4,2.6-9.3,6.4-7,14.2c2.5,8.2,5,16.8,3.1,27.6c-7.3-7.7-5.3-16.3-7.2-23.6
	c-4.4-17.3-10.3-19.6-24.2-8.7c-12.1,9.5-29.8,8.7-40.7-1.9c-11.3-10.9-10.9-28.1,0.9-44c4.1-0.5,7-5.5,11.9-3.3
	c-3.3,5.9,1.3,11,1.5,16.6c-5.4,3-10.1-15.3-15.5-0.9c-3.7,10-2.5,20.1,5.8,28c7.9,7.6,17.1,8.2,26.9,4.6c3-1.1,6.4-2.6,7-6
	c0.8-4.4-4.1-4-6.3-5.9c-6.9-5.8-18.4-7.4-17.9-19.8c9.1,5.8,16.2,14.1,26.2,18.9c4.3,2.1,4.2-1,5.9-2.3c10.2,1.5,1.8-9.8,7.7-11.3
	c6.4,5,6.4,18.3,20.4,13.3c21.7-7.8,37.2-30.7,35.1-54.2c-2.3-25.2-22.4-45-48.1-47.4c-22-2-45.1,13.9-52.5,35.5
	c-2.7,7.9-1.3,12.6,6.5,16.2c4.6,2.1,11,3.3,11.8,10.3c-1.8,0.3-3.5,0.6-5.3,1C26.1,241.2,18.4,239.9,10,240.2z"/>
<path class="st81" d="M185.6,139.3c-0.1,18-15.1,33.3-32.5,33.2c-18.9,0-33.9-14.9-33.9-33.5c0.1-18.7,15-33.8,33.5-33.9
	C171.2,105,185.7,120.1,185.6,139.3z M151.8,110.6c-14,0.2-27.5,13.9-27.5,28.1c-0.1,14.8,13.6,28,28.8,27.9
	c14.8-0.1,27.4-12.8,27.4-27.6C180.5,124,166.6,110.3,151.8,110.6z"/>
<path class="st84" d="M79,3c1.2,8.4,6.5,3.7,10.3,3.1C107.8,3,123.4,20,118,37.5c-1.1,3.6-2.4,7.7-6.3,8.4c-3.8,0.7-4.5-3.9-6.3-6.4
	C98,29.3,89.7,20.4,76.4,18C75.9,12.5,80,7.2,77.2,1.6l1,0.1l1-0.1C79.3,2,79.2,2.5,79,3z"/>
<path class="st79" d="M274.4,70.5c0-2.9,0-5.7-0.1-8.6c4.3,1.2,7.5,5.3,12.9,4.4c1.6-7.7,0.8-15.2-1-22.8c0.9-0.4,1.8-0.8,2.7-1.3
	c3.4,6.1,4.1,13.1,3.1,19.5c-1.1,6.9,1.6,10,7.3,12c0.2,3,0.3,6-2.3,8.2c-2.4-2.1-4.1-5.3-8-4.8c-1.2-0.2-2.4-0.4-3.5-0.6
	C283.9,70.7,278.4,71.9,274.4,70.5z"/>
<path class="st79" d="M77.2,1.6C80,7.2,75.9,12.5,76.4,18c0,1.1,0,2.1-0.1,3.2c-7.9,0-5.5,6.6-7,10.7c-2.8,0-5.8,0.2-7.2-3.1
	c3.9-7.6,2.9-11.8-6.9-10.4c-3.1,0.5-6.3,0.5-9.4,0.7c0-1.2,0-2.4,0-3.6c3.6-0.4,7.4-1.9,10.7-1.1c11.4,2.7,15.3-3.7,17.4-13
	C75,1.5,76.1,1.5,77.2,1.6z"/>
<path class="st86" d="M22,252.4c-4.9-2.2-7.8,2.8-11.9,3.3c-6.7-5.1,0.9-10.3-0.1-15.4c8.4-0.4,16.1,0.9,21.1,8.7
	C28.1,250,23.9,248.1,22,252.4L22,252.4z"/>
<path class="st81" d="M77.2,1.6c-1.1,0-2.2-0.1-3.3-0.1c1.2-8.8,2.4-17.7,3.7-26.5c7.5,9,1.2,17.8,1.7,26.6c0,0-1,0.1-1,0.1
	L77.2,1.6z"/>
<path class="st94" d="M238.2,208.4c-3.2-10.2,3.8-11.5,11.4-11.1c17.8,0.9,31.8,8.9,42.1,23.4c4,5.7,3.7,9.5-3.7,12.7
	c-25.2,11.1-43.7,29.3-54.9,54.4c-3.3,7.3-6.8,8.7-13.6,4c-15-10.3-21.1-25.1-22.7-42.4c-0.6-6,2-7.5,8.3-7.3
	C227,242.6,238.7,230.4,238.2,208.4z"/>
<path class="st94" d="M300.3,250.3c-0.1,27.6-24.5,51.8-51.6,51.2c-13.2-0.3-15.5-3.8-9.1-15.5c10.7-19.5,25.5-35,45.5-45.2
	C298.8,233.8,300.4,234.9,300.3,250.3z"/>
<path class="st94" d="M184.3,213.1c0-13,10-24.4,21.8-25.1c6.7-0.4,14.5,0.5,17,6.5c2.3,5.7-6.3,6.1-9.6,9.3
	c-5.4,5.1-10.4,10.4-14.1,16.8c-1.9,3.3-2.3,9.7-7.3,8.4c-4.2-1.1-6.1-6.5-7-11.2C184.7,216.1,184.5,214.3,184.3,213.1z"/>
<path class="st84" d="M233.1,213.3c-0.4,5.5-2.1,12.2-8,16.9c-6.7,5.3-15.6,11.4-22.4,5c-6.9-6.5,3.4-12.3,6.5-18.1
	c2.6-5,7.5-8,12-11.3C229.3,199.8,232.7,202.4,233.1,213.3z"/>
<path class="st94" d="M251.9,46c1.3,7.3,7.8,9.9,12.6,14c4.6,4,6,6.3-1,9.4c-14.3,6.4-19.2,18.5-16.6,33.1c1.2,6.8-1.1,7.6-6.6,8.3
	c-24.6,3.1-50.5-15.8-55.2-40.7c-4.8-25.5,11.2-53.3,34.1-59.8c6-1.7,9.2-0.6,11.8,5.6C235.9,27.3,241.1,38.7,251.9,46
	C251.9,46,251.9,46,251.9,46z"/>
<path class="st84" d="M286.2,43.6c1.8,7.5,2.6,15.1,1,22.8c-5.4,0.9-8.6-3.2-12.9-4.4c-7.3-5.5-12.1-14.6-22.4-16
	c0,0,0.1,0.1,0.1,0.1c-0.1-11.4-10.9-17.4-13.7-27.3c-0.9-3.3-4.8-6.6-1.4-10.1c2.6-2.7,6.1-0.4,9.2,0.1
	C266.3,12.3,277.2,26.8,286.2,43.6z"/>
<path class="st94" d="M289,77.2c4-0.5,5.7,2.7,8,4.8c5.7,18.8,1.4,31.3-12.6,37.1c-5.4,2.2-10.8,2.5-16.1,0.3
	c-2.9-1.2-6.6-1.9-7.4-5.5c-1-4.5,3.7-4.6,6-6.3C277.5,99.8,286.3,90.8,289,77.2z"/>
<path class="st83" d="M274.4,70.5c4.1,1.3,9.5,0.1,11.1,6.1c-5.8,11.1-12.5,21.4-23.9,27.8c-6.7,3.8-9,1.9-9.7-5.1
	C250.6,86,256.8,77.8,274.4,70.5z"/>
<path class="st94" d="M64,35c6.3,18.8,17.6,26.9,35.5,24.7c6.5-0.8,9,2.1,9.9,8.3c3.2,23.2-17.7,49.7-41.5,52
	C37.2,123,18.9,113,9.4,88.7c-2.4-6.1-3-10.4,4.3-13.1C34.2,67.9,49.9,53.8,64,35z"/>
<path class="st94" d="M45.8,19.1c3.2-0.2,6.3-0.2,9.4-0.7c9.8-1.4,10.8,2.9,6.9,10.4C49.6,44.2,36.6,59.2,17.9,67.6
	c-3.2,1.4-6.7,5.1-10,2.2C5,67.2,6.5,62.7,7.3,59.2C12.4,38.5,27.4,27.1,45.8,19.1z"/>
<path class="st84" d="M69.4,31.9c1.5-4.1-0.9-10.8,7-10.7C85.7,27.9,96,33.3,102,44c3.9,7.1,2.3,10-5.7,10.6
	C83.2,55.6,75,48.8,69.4,31.9z"/>
<path class="st94" d="M36.5,248c-0.7-7-7.2-8.1-11.8-10.3c-7.8-3.7-9.2-8.3-6.5-16.2c7.3-21.5,30.4-37.5,52.5-35.5
	c25.7,2.4,45.8,22.2,48.1,47.4c2.2,23.5-13.3,46.3-35.1,54.2c-14,5-14-8.3-20.4-13.3C56.7,263.1,50.4,251.7,36.5,248z"/>
<path class="st84" d="M23.4,268.9c-0.4,12.4,11.1,14,17.9,19.8c2.2,1.9,7.1,1.5,6.3,5.9c-0.6,3.4-4,4.9-7,6c-9.8,3.6-19,3-26.9-4.6
	c-8.3-8-9.5-18-5.8-28C13.3,253.6,18,272,23.4,268.9C23.5,269,23.4,268.9,23.4,268.9z"/>
<path class="st83" d="M22,252.4C22,252.4,21.9,252.3,22,252.4c24.3,1.5,34.6,11.7,33.6,33.1c-1.7,1.3-1.6,4.3-5.9,2.3
	c-10-4.8-17.2-13.1-26.2-18.9c0,0,0.1,0.1,0.1,0.1C23.3,263.4,18.6,258.2,22,252.4z"/>
<path class="st79" d="M55.6,285.5c1-21.4-9.3-31.7-33.6-33.2c2-4.2,6.1-2.3,9.2-3.4c1.8-0.3,3.5-0.6,5.3-1
	c13.9,3.7,20.3,15.1,26.9,26.3C57.4,275.7,65.8,287,55.6,285.5z"/>
<path class="st94" d="M151.8,110.6c14.8-0.3,28.7,13.5,28.7,28.3c0,14.9-12.6,27.5-27.4,27.6c-15.3,0.1-28.9-13.1-28.8-27.9
	C124.3,124.5,137.8,110.8,151.8,110.6z"/>
</svg>
