<?xml version="1.0" encoding="utf-8"?>
<!-- Generator: Adobe Illustrator 24.0.2, SVG Export Plug-In . SVG Version: 6.00 Build 0)  -->
<svg version="1.1" id="Capa_1" xmlns="http://www.w3.org/2000/svg" xmlns:xlink="http://www.w3.org/1999/xlink" x="0px" y="0px"
	 viewBox="0 0 288 288" style="enable-background:new 0 0 288 288;" xml:space="preserve">
<style type="text/css">
	.st0{fill:#2D2D2D;}
	.st1{fill:#002530;}
	.st2{fill:#050523;}
	.st3{fill:#707C84;}
	.st4{fill:#E9E4DE;}
	.st5{fill:#EE3133;}
	.st6{fill:#FD99AF;}
	.st7{fill:#C4C2C0;}
	.st8{fill:#F2D8A3;}
	.st9{fill:#EFCB84;}
	.st10{fill:#EF692F;}
	.st11{fill:#4B343F;}
	.st12{fill:#16B198;}
	.st13{fill:#E72D52;}
	.st14{fill:#7B536F;}
	.st15{fill:#8F4CA9;}
	.st16{fill:#E2C29F;}
	.st17{fill:#9F4687;}
	.st18{fill:#A9A0AF;}
	.st19{fill:#CC4743;}
	.st20{fill:#8677A9;}
	.st21{fill:#8E5D8E;}
	.st22{fill:#DF615C;}
	.st23{fill:#9E4742;}
	.st24{fill:#D34861;}
	.st25{fill:#B75B6D;}
	.st26{fill:#DF6482;}
	.st27{fill:#FFFFFF;}
	.st28{fill:#829CA2;}
	.st29{fill:#F2B991;}
	.st30{fill:#E56759;}
	.st31{fill:#F5F3EE;}
	.st32{fill:#DC4B3F;}
	.st33{fill:#1D5A7D;}
	.st34{fill:#459492;}
	.st35{fill:#F0A349;}
	.st36{fill:#E4EFEB;}
	.st37{fill:#E17467;}
	.st38{fill:#B6BFBD;}
	.st39{fill:#F0E2D6;}
	.st40{fill:#396D89;}
	.st41{fill:#201A21;}
	.st42{fill:#48505D;}
	.st43{fill:#0B0707;}
	.st44{fill:#D30034;}
	.st45{fill:#6C919B;}
	.st46{fill:#F68C4A;}
	.st47{fill:#E5CFCD;}
	.st48{fill:#385B4D;}
	.st49{fill:#F14206;}
	.st50{fill:#BAD2D8;}
	.st51{fill:#F70059;}
	.st52{fill:#AA000C;}
	.st53{fill:#D8B5B2;}
	.st54{fill:#E08143;}
	.st55{fill:#F2E9E9;}
	.st56{fill:#F4D085;}
	.st57{fill:#23586A;}
	.st58{fill:#17241F;}
	.st59{fill:#EAE8E1;}
	.st60{fill:#253C4F;}
	.st61{fill:#F7FCFD;}
	.st62{fill:#0E151F;}
	.st63{fill:#8D897D;}
	.st64{fill:#BDB6AA;}
	.st65{fill:#EDE1AF;}
	.st66{fill:#DF786F;}
	.st67{fill:#E8C46F;}
	.st68{fill:#B0CEAD;}
	.st69{fill:#9FC4AF;}
	.st70{fill:#B8C6A0;}
	.st71{fill:#EBEC80;}
	.st72{fill:#DD7AB2;}
	.st73{fill:#D6D2D3;}
	.st74{fill:#69BCC5;}
	.st75{fill:#D0CBC1;}
	.st76{fill:#242424;}
	.st77{fill:#525252;}
	.st78{fill:#3D3D3D;}
	.st79{fill:#6B6B6B;}
	.st80{fill:#303030;}
	.st81{fill:#8A8A8A;}
	.st82{fill:#282828;}
	.st83{fill:#E6E6E6;}
	.st84{fill:#E8E8E8;}
	.st85{fill:#A9A9A9;}
	.st86{fill:#D9D9D9;}
	.st87{fill:#CACACA;}
	.st88{fill:#9E9E9E;}
	.st89{fill:none;}
	.st90{fill:#4A4744;}
	.st91{fill:#F0BA45;}
	.st92{fill:#F1D34E;}
	.st93{fill:none;stroke:#00A591;stroke-miterlimit:10;}
	.st94{fill:#EEEEEE;}
	.st95{fill:#FBFBFB;}
	.st96{fill:#F8F2DD;}
	.st97{fill:#8DB2A6;}
	.st98{fill:#ED8C58;}
	.st99{fill:#F0C153;}
	.st100{fill:#C2B146;}
	.st101{fill:#8E6E51;}
	.st102{fill:#1C1D4C;}
	.st103{fill:#111224;}
	.st104{fill:#26687B;}
	.st105{fill:#F8494A;}
	.st106{fill:#81819B;}
	.st107{fill:#80809B;}
	.st108{fill:#0AC6BB;}
	.st109{fill:#0BC5B9;}
	.st110{fill:#686888;}
	.st111{fill:#0BC5BA;}
	.st112{fill:#FEFEFE;}
	.st113{fill:#F8F5CE;}
	.st114{fill:#EF484B;}
	.st115{fill:#F94A4A;}
	.st116{fill:#F9F6CE;}
	.st117{fill:#DFE0E3;}
	.st118{fill:#04121D;}
	.st119{fill:#6693AB;}
	.st120{fill:#89BCD7;}
	.st121{fill:#FAF509;}
	.st122{fill:#0B2E41;}
	.st123{fill:#427491;}
	.st124{fill:#2A5973;}
	.st125{fill:#184259;}
	.st126{fill:#BCE4F7;}
	.st127{fill:#02111C;}
	.st128{fill:#FCF704;}
	.st129{fill:#F4F115;}
	.st130{fill:#DFE23F;}
	.st131{fill:#BCE6FA;}
	.st132{fill:#031D2B;}
	.st133{fill:#81851A;}
	.st134{fill:#1E1E1E;}
	.st135{fill:#F5142E;}
	.st136{fill:#05ACC0;}
	.st137{fill:#F87240;}
	.st138{fill:#FA723F;}
	.st139{fill:#F67240;}
	.st140{fill:#E37547;}
	.st141{fill:#07ADC0;}
	.st142{fill:#450D0D;}
	.st143{fill:#F57240;}
	.st144{fill:#440D0D;}
	.st145{fill:#470D0D;}
	.st146{fill:#EBECCC;}
	.st147{fill:#E9EACA;}
	.st148{fill:#00ABBF;}
	.st149{fill:#F6FAD9;}
	.st150{fill:#CBC3AC;}
	.st151{fill:#E2615D;}
	.st152{fill:#FAFAF8;}
	.st153{fill:#E8E4DA;}
	.st154{fill:#123057;}
	.st155{fill:#F4D16B;}
	.st156{fill:none;stroke:#F1D34E;stroke-miterlimit:10;}
	.st157{fill:#E3834C;}
	.st158{fill:#E9A779;}
	.st159{fill:#ECB74A;}
	.st160{fill:#00A591;}
</style>
<path class="st78" d="M333.1,136.2c0,53.8-0.1,107.7,0.1,161.5c0,7.3-0.3,13.2-10,12c-2.2-0.3-5.8,0.2-5.7,2.6
	c0.9,17.7-12.4,11-20.1,11.1c-103.5,0.4-207,0.1-310.5,0.5c-10.9,0-13.8-2.7-13.8-13.8c0.5-105.8,0.3-211.7,0.2-317.5
	c0-7.5,0.4-13.6,9.2-15.4c1.6-0.3,4.4-1.7,4.4-2.3C-14.3-40.6-2.9-36,4.8-36c104.9-0.2,209.8,0.1,314.7-0.4c10.9,0,14.1,2.6,14,13.8
	C332.8,30.4,333.2,83.3,333.1,136.2z M153.8,301.4c47.8,0,95.6-0.4,143.4,0.3c11,0.2,14-2.6,14-13.7c-0.4-96.5-0.4-193-0.1-289.5
	c0-9.5-2.4-12.7-12.4-12.6c-97,0.4-193.9,0.4-290.9,0C-2-14.1-4.7-11.5-4.7-1.7c0.3,97,0.3,194-0.1,290.9c0,9.8,2.7,12.5,12.4,12.4
	C56.4,301.2,105.1,301.4,153.8,301.4z M311,312c-6-4.2-11.7-2.5-17-2.6c-97-0.1-193.9-0.3-290.9,0.3c-13.2,0.1-15.8-3.9-15.7-16.2
	c0.5-86.8,0.3-173.5,0.3-260.3c0-13.9,0-27.8-0.1-41.8c0-2.2,0.1-5-3.4-4.7c-2.2,0.2-2.7,2.2-2.8,4.1c-0.1,2.8-0.1,5.6-0.1,8.3
	c0,100.7,0.2,201.4-0.2,302.1c0,11.2,2.4,14.8,14.4,14.8c100.7-0.5,201.4-0.3,302.1-0.5C301.7,315.7,306.7,317.7,311,312z
	 M321.7,301.6c4.1-3.3,3.4-6.7,3.4-9.7c0-103-0.2-206.1,0.1-309.1c0-10.2-4.5-11.1-12.6-11.1c-102.1,0.2-204.2,0.1-306.3,0.3
	c-3.4,0-8.7-2.7-10,3.9C0.2-20.1,5.1-22,9.4-22c97.5,0.1,194.9,0.4,292.4-0.3c14.3-0.1,17.5,3.8,17.4,17.7c-0.6,97-0.3,194-0.2,291
	C319,291.2,317.2,296.5,321.7,301.6z"/>
<path class="st83" d="M153.8,301.4c-48.7,0-97.4-0.3-146.2,0.2c-9.7,0.1-12.4-2.6-12.4-12.4c0.4-97,0.4-194,0.1-290.9
	c0-9.8,2.7-12.4,12.4-12.4c97,0.3,193.9,0.4,290.9,0c10,0,12.4,3.1,12.4,12.6c-0.3,96.5-0.4,193,0.1,289.5c0,11.1-2.9,13.8-14,13.7
	C249.4,301.1,201.6,301.4,153.8,301.4z M159.8-8.1c0,0,0,0.1,0,0.1C117.2-8,74.5-8.1,31.8-7.9c-7.5,0-18-3.8-16.8,10.7
	c0.1,0.9-2.7,3.2-3.9,3c-11.7-1.3-9.6,7-9.6,13.7c0,86.8,0.2,173.6-0.3,260.3c-0.1,12.1,2.2,16.3,15.5,16.2
	c85.8-0.7,171.7-0.3,257.5-0.4c7.2,0,16.8,3.3,15.2-10.2c-0.3-2.9,2.4-3.9,4.8-3.5c11.8,1.7,10.9-6,10.9-13.9
	c-0.1-87.7-0.3-175.4,0.2-263.1c0.1-10.7-3.1-13.2-13.2-13.1C248-7.8,203.9-8.1,159.8-8.1z"/>
<path class="st86" d="M311,312c-4.3,5.7-9.2,3.7-13.4,3.7c-100.7,0.1-201.4-0.1-302.1,0.5c-12,0.1-14.4-3.6-14.4-14.8
	c0.4-100.7,0.2-201.4,0.2-302.1c0-2.8,0-5.6,0.1-8.3c0.1-1.9,0.5-3.9,2.8-4.1c3.5-0.4,3.4,2.4,3.4,4.7c0.1,13.9,0.1,27.8,0.1,41.8
	c0,86.8,0.2,173.5-0.3,260.3c-0.1,12.3,2.5,16.3,15.7,16.2c97-0.6,193.9-0.4,290.9-0.3C299.3,309.5,305,307.8,311,312z"/>
<path class="st86" d="M321.7,301.6c-4.5-5.2-2.7-10.4-2.7-15.2c-0.1-97-0.4-194,0.2-291c0.1-13.9-3.1-17.8-17.4-17.7
	C204.3-21.6,106.9-21.8,9.4-22c-4.3,0-9.2,1.9-13.1-2.2c1.3-6.6,6.6-3.9,10-3.9c102.1-0.2,204.2-0.1,306.3-0.3
	c8.1,0,12.6,1,12.6,11.1c-0.3,103-0.1,206.1-0.1,309.1C325.1,295,325.8,298.3,321.7,301.6z"/>
<path class="st78" d="M159.8-8.1c44.1,0,88.2,0.3,132.2-0.2c10.2-0.1,13.3,2.4,13.2,13.1c-0.5,87.7-0.3,175.4-0.2,263.1
	c0,7.8,0.9,15.6-10.9,13.9c-2.4-0.3-5.2,0.6-4.8,3.5c1.6,13.6-8,10.2-15.2,10.2c-85.8,0.1-171.7-0.3-257.5,0.4
	c-13.3,0.1-15.6-4-15.5-16.2C1.6,193,1.4,106.2,1.4,19.4c0-6.7-2.1-15,9.6-13.7c1.2,0.1,4-2.1,3.9-3C13.8-11.7,24.2-7.9,31.8-7.9
	C74.5-8.1,117.2-8,159.8-8C159.8-8,159.8-8.1,159.8-8.1z M153.4,273.5C153.4,273.5,153.4,273.5,153.4,273.5c39-0.1,78-0.3,117,0.1
	c9.2,0.1,12.8-1.6,12.8-11.9c-0.4-78.5-0.4-156.9,0-235.4c0-9.8-2.8-12.5-12.6-12.5c-78,0.3-156,0.3-233.9-0.1
	c-9.9,0-13.5,2.2-13.4,13c0.5,78.4,0.3,156.9,0,235.4c0,9.2,2.8,11.7,11.8,11.6C74.5,273.3,113.9,273.5,153.4,273.5z M292.8,272.9
	c5.4-1.8,4-5.6,4-8.4c0.1-84.5,0-169,0.3-253.6c0-8.6-3-11-11.4-11C201.2,0.2,116.7,0,32.2,0.1c-2.8,0-6.8-1.4-7.9,4.2
	c4,2.8,8.6,1.4,12.9,1.4C117.1,5.8,197,6,276.8,5.5c11.7-0.1,14.6,3.4,14.5,14.9c-0.5,78.9-0.3,157.9-0.2,236.8
	C291.1,262.4,289.9,267.9,292.8,272.9z M281.8,284.5c-4.5-5.1-10.4-2.9-15.3-2.9c-78.4-0.1-156.9-0.4-235.3,0.3
	c-13.2,0.1-16-3.9-15.9-16.3c0.5-78.9,0.3-157.8,0.1-236.7c0-4.8,2.8-11.1-4.8-14.8c-0.5,3.4-1.3,6.1-1.3,8.8
	c-0.1,85,0.1,169.9-0.3,254.9C9,287,13.3,288,20.9,288c83.1-0.2,166.2-0.2,249.3-0.3C273.9,287.7,278.3,289.4,281.8,284.5z"/>
<path class="st83" d="M153.4,273.5c-39.5,0-78.9-0.3-118.4,0.2c-9,0.1-11.9-2.4-11.8-11.6c0.3-78.5,0.5-156.9,0-235.4
	c-0.1-10.9,3.5-13.1,13.4-13c78,0.4,156,0.4,233.9,0.1c9.7,0,12.6,2.7,12.6,12.5c-0.4,78.5-0.5,156.9,0,235.4
	c0.1,10.4-3.5,12.1-12.8,11.9C231.4,273.2,192.4,273.4,153.4,273.5C153.4,273.5,153.4,273.5,153.4,273.5z M277,136.9
	C277,136.9,277,136.9,277,136.9c0-33.4-0.6-66.8,0.4-100.2c0.4-13-2.4-17.3-16.5-17.1c-65.4,0.9-130.8,0.2-196.2,0.6
	c-8.5,0.1-21.9-6.3-22.1,11.4c0,0.8-2.1,2.4-3.1,2.2c-12.6-1.4-10,7.7-10,14.6c-0.1,68.2,0.2,136.4-0.3,204.6
	c-0.1,11.2,2.3,15,14.3,14.9c67.3-0.6,134.5-0.2,201.8-0.4c7.8,0,18.9,4.2,18.4-10.9c-0.1-2.7,3-3.3,5.4-3.1c8.8,0.8,8-5.1,8-10.9
	C276.9,207.4,277,172.1,277,136.9z"/>
<path class="st94" d="M292.8,272.9c-2.9-5-1.7-10.5-1.7-15.6c-0.1-78.9-0.3-157.9,0.2-236.8c0.1-11.5-2.8-15-14.5-14.9
	C197,6,117.1,5.8,37.2,5.7c-4.3,0-8.9,1.4-12.9-1.4c1.1-5.6,5.1-4.2,7.9-4.2c84.5-0.1,169,0.1,253.5-0.2c8.4,0,11.4,2.4,11.4,11
	c-0.3,84.5-0.2,169-0.3,253.6C296.8,267.3,298.2,271.1,292.8,272.9z"/>
<path class="st86" d="M281.8,284.5c-3.5,4.9-8,3.2-11.7,3.2c-83.1,0.2-166.2,0.1-249.3,0.3c-7.6,0-11.8-1-11.8-10.4
	c0.3-85,0.2-169.9,0.3-254.9c0-2.7,0.8-5.3,1.3-8.8c7.6,3.7,4.8,10,4.8,14.8c0.2,78.9,0.4,157.8-0.1,236.7
	c-0.1,12.4,2.7,16.5,15.9,16.3c78.4-0.7,156.9-0.4,235.3-0.3C271.5,281.6,277.3,279.4,281.8,284.5z"/>
<path class="st78" d="M277,136.9c0,35.3,0,70.5,0,105.8c0,5.8,0.8,11.7-8,10.9c-2.3-0.2-5.5,0.3-5.4,3.1
	c0.6,15.1-10.6,10.9-18.4,10.9c-67.3,0.2-134.5-0.2-201.8,0.4c-12,0.1-14.4-3.7-14.3-14.9c0.5-68.2,0.2-136.4,0.3-204.6
	c0-6.9-2.6-16,10-14.6c1,0.1,3.1-1.4,3.1-2.2c0.2-17.7,13.5-11.3,22.1-11.4c65.4-0.4,130.8,0.2,196.2-0.6c14-0.2,16.8,4.1,16.5,17.1
	C276.4,70,277,103.5,277,136.9C277,136.9,277,136.9,277,136.9z M57.1,34.1c0.2,1.5,0.3,3.1,0.5,4.6c-5.1,2.7-6.4,7.1-6.3,12.7
	c0.2,61.2,0.3,122.5-0.1,183.7c-0.1,8.9,3,10.8,11.2,10.8c60.3-0.3,120.6-0.4,180.9,0c10,0.1,12.2-3.1,12.2-12.6
	c-0.4-58.4-0.7-116.9,0.2-175.3c0.2-14.1-4.5-16.6-17.3-16.4c-53.3,0.7-106.7,0.3-160,0.2c-4.3,0-9.4,2.3-12.9-2.4
	c0.4-1.7,0.8-3.5,1.2-5.2c60.8,0,121.7,0.2,182.5-0.4c12-0.1,14.5,4,14.4,15.2c-0.5,60.8-0.3,121.7-0.1,182.5c0,4.4-2.1,9.9,3,13.2
	c3.2-1.9,2.8-4.3,2.8-6.5c0-66.4-0.1-132.8,0.2-199.3c0-8.6-2.9-11-11.3-10.9c-34.8,0.4-69.7,0.2-104.5,0.2c-32,0-64.1-0.1-96.1,0.1
	c-2.6,0-7.6-2-7.1,3.5C50.5,35.3,54.7,33.4,57.1,34.1z M40.9,42.4c-3.8,1.5-3.6,4-3.6,6.2c0,67.3,0.1,134.6-0.2,201.8
	c0,8.7,4.1,9.6,11.1,9.5c65.4-0.2,130.8-0.1,196.3-0.3c3.5,0,8.2,1.7,10.3-3.6c-4.7-4.5-10.1-2.6-14.9-2.6
	c-60.8-0.2-121.6-0.3-182.3,0.1c-10.6,0.1-14.3-2.3-14.2-13.9c0.6-60.8,0.3-121.6,0.1-182.4C43.5,52.5,45.5,47.2,40.9,42.4z"/>
<path class="st86" d="M65.2,39.3c3.5,4.7,8.6,2.4,12.9,2.4c53.3,0.2,106.7,0.5,160-0.2c12.8-0.2,17.5,2.3,17.3,16.4
	c-0.9,58.4-0.6,116.9-0.2,175.3c0.1,9.4-2.1,12.7-12.2,12.6c-60.3-0.4-120.6-0.3-180.9,0c-8.2,0-11.2-1.9-11.2-10.8
	c0.4-61.2,0.2-122.5,0.1-183.7c0-5.6,1.2-10,6.3-12.7C60.1,38.9,62.7,39.1,65.2,39.3z M105.1,56.5c-0.1,1.5-0.1,3-0.2,4.5
	c-8.7,2.2-17.5,2.5-25.9-0.4c-10.7-3.7-21.6,3.1-21.6,14.3c0,50.6,0.3,101.2-0.2,151.9c-0.1,10.6,3.1,13.2,13.4,13.1
	c48.8-0.6,97.5-0.2,146.3-0.4c8,0,18.9,3.9,18.4-11c-0.1-2.2,2.4-2.8,4.2-2.7c9.9,0.6,9.5-5.9,9.5-12.8c-0.2-50.6-0.5-101.2,0-151.9
	c0.1-10.8-3.7-13.3-13.7-13.2C185.2,48.2,135,48,84.9,48.1c-2.8,0-5.6,0-8.3,0.3c-4.2,0.5-5.3,3.4-4.4,7c1.3,5.2,3.8,1.7,6.7,1.4
	C87.5,55.9,96.3,56.5,105.1,56.5z"/>
<path class="st94" d="M57.1,34.1c-2.4-0.7-6.6,1.2-6.9-2.5c-0.5-5.5,4.5-3.5,7.1-3.5c32-0.2,64.1-0.1,96.1-0.1
	c34.8,0,69.7,0.2,104.5-0.2c8.4-0.1,11.3,2.3,11.3,10.9c-0.3,66.4-0.1,132.8-0.2,199.3c0,2.2,0.4,4.6-2.8,6.5c-5.1-3.3-3-8.8-3-13.2
	c-0.2-60.8-0.4-121.7,0.1-182.5c0.1-11.2-2.4-15.3-14.4-15.2c-60.8,0.6-121.7,0.3-182.5,0.4C63.3,32.8,60.2,32.8,57.1,34.1z"/>
<path class="st86" d="M40.9,42.4c4.6,4.8,2.6,10.1,2.6,14.9c0.2,60.8,0.5,121.6-0.1,182.4c-0.1,11.5,3.6,13.9,14.2,13.9
	c60.8-0.4,121.6-0.2,182.3-0.1c4.8,0,10.2-1.9,14.9,2.6c-2.1,5.3-6.8,3.6-10.3,3.6c-65.4,0.1-130.8,0.1-196.3,0.3
	c-7.1,0-11.1-0.9-11.1-9.5c0.3-67.3,0.2-134.6,0.2-201.8C37.3,46.3,37.1,43.9,40.9,42.4z"/>
<path class="st81" d="M57.1,34.1c3.1-1.3,6.2-1.3,9.4,0c-0.4,1.7-0.8,3.5-1.2,5.2c-2.6-0.2-5.1-0.4-7.7-0.6
	C57.4,37.2,57.2,35.6,57.1,34.1z"/>
<path class="st78" d="M105.1,56.5c-8.8,0-17.6-0.6-26.3,0.3c-2.9,0.3-5.5,3.8-6.7-1.4c-0.9-3.6,0.2-6.5,4.4-7
	c2.8-0.3,5.6-0.3,8.3-0.3c50.2,0,100.3,0.2,150.5-0.3c10-0.1,13.8,2.4,13.7,13.2c-0.5,50.6-0.1,101.2,0,151.9
	c0,6.9,0.3,13.4-9.5,12.8c-1.8-0.1-4.2,0.5-4.2,2.7c0.5,14.9-10.4,10.9-18.4,11c-48.8,0.2-97.5-0.1-146.3,0.4
	c-10.3,0.1-13.5-2.5-13.4-13.1c0.5-50.6,0.1-101.2,0.2-151.9c0-11.2,11-18,21.6-14.3c8.4,2.9,17.2,2.6,25.9,0.4
	c35.3,0.1,70.6,0.1,106,0.2c1.8,0.3,3.6,0.8,5.4,0.9c18.3,0.6,18.3,0.6,18.3,19.4c0,40.8-0.1,81.5,0.1,122.3c0,4.4-2,9.9,3.5,13.4
	c4.8-4.8,2.8-10.2,2.8-14.9c0.2-39.4,0.1-78.8,0.1-118.1c0-30.3,0-30.3-30.5-27.7C175.5,56.5,140.3,56.5,105.1,56.5z M152.6,217.6
	c20.9,0,41.8-0.4,62.6,0.2c9,0.3,12.2-2.2,12.1-11.5c-0.4-41.8-0.3-83.5,0-125.3c0.1-8.3-2.2-11.3-10.9-11.3
	c-42.2,0.4-84.4,0.4-126.6,0c-8-0.1-10.4,2.6-10.4,10.3c0.2,42.7,0.3,85.4-0.1,128.1c-0.1,8.6,3.5,9.7,10.7,9.6
	C110.8,217.4,131.7,217.6,152.6,217.6z M67.3,69.2c-1,3.1-1.9,4.7-1.9,6.3c-0.1,49.2,0.2,98.3-0.2,147.5c-0.1,9.7,5.5,8.7,11.6,8.7
	c46.4,0,92.7,0,139.1-0.1c3.6,0,8.3,2,10.8-3.2c-4.5-4.8-9.9-2.8-14.6-2.8c-42.2-0.2-84.4-0.4-126.6,0.2c-10.9,0.2-14.3-2.9-14.2-14
	c0.6-42.2,0.4-84.4,0.2-126.6C71.5,80.4,73.5,75,67.3,69.2z"/>
<path class="st95" d="M105.1,56.5c35.2,0,70.3,0,105.5,0c0.1,1.6,0.2,3.1,0.3,4.7c-35.3-0.1-70.6-0.1-106-0.2
	C105,59.5,105.1,58,105.1,56.5z"/>
<path class="st86" d="M152.6,217.6c-20.9,0-41.8-0.2-62.6,0.1c-7.2,0.1-10.8-1-10.7-9.6c0.4-42.7,0.3-85.4,0.1-128.1
	c0-7.7,2.4-10.4,10.4-10.3c42.2,0.4,84.4,0.4,126.6,0c8.7-0.1,11,2.9,10.9,11.3c-0.4,41.8-0.4,83.5,0,125.3
	c0.1,9.3-3.1,11.8-12.1,11.5C194.3,217.2,173.4,217.6,152.6,217.6z M145.4,211.5c14.4,0,28.8,0.1,43.2,0c8.2-0.1,18.7,3.5,18.5-11.1
	c0-0.9,2.7-2.8,4.1-2.8c11.1,0.5,9.9-7.3,9.9-14.2c0.1-31.6-0.3-63.2,0.2-94.7c0.2-9.8-3-13-12.8-12.9c-30.6,0.5-61.3,0.1-91.9,0.3
	c-8.2,0-18.8-3.2-17.8,11.6c0.2,2.2-2,3.2-3.9,3c-8.9-0.9-9.5,4.6-9.4,11.4c0.2,33,0.4,66-0.1,98.9c-0.1,8.9,3.2,11,11.4,10.8
	C112.8,211.2,129.1,211.6,145.4,211.5z"/>
<path class="st86" d="M67.3,69.2c6.2,5.7,4.1,11.1,4.2,15.8c0.2,42.2,0.4,84.4-0.2,126.6c-0.2,11.1,3.3,14.1,14.2,14
	c42.2-0.6,84.4-0.3,126.6-0.2c4.7,0,10.1-1.9,14.6,2.8c-2.5,5.2-7.2,3.2-10.8,3.2c-46.4,0.2-92.7,0.1-139.1,0.1
	c-6.1,0-11.7,1-11.6-8.7c0.4-49.2,0.2-98.3,0.2-147.5C65.4,73.9,66.4,72.3,67.3,69.2z"/>
<path class="st86" d="M210.9,61.2c-0.1-1.6-0.2-3.1-0.3-4.7c30.5-2.6,30.5-2.6,30.5,27.7c0,39.4,0.1,78.8-0.1,118.1
	c0,4.7,2,10-2.8,14.9c-5.5-3.5-3.5-9-3.5-13.4c-0.1-40.8,0-81.5-0.1-122.3c0-18.8,0-18.8-18.3-19.4
	C214.5,62.1,212.7,61.5,210.9,61.2z"/>
<path class="st78" d="M145.4,211.6c-16.3,0-32.5-0.3-48.8,0.1c-8.1,0.2-11.5-1.9-11.4-10.8c0.5-33,0.3-65.9,0.1-98.9
	c0-6.8,0.5-12.2,9.4-11.4c1.9,0.2,4.1-0.8,3.9-3c-1.1-14.7,9.6-11.5,17.8-11.6c30.6-0.1,61.3,0.2,91.9-0.3
	c9.7-0.2,12.9,3.1,12.8,12.9c-0.5,31.6-0.2,63.2-0.2,94.7c0,6.9,1.2,14.8-9.9,14.2c-1.4-0.1-4.1,1.8-4.1,2.8
	c0.3,14.6-10.3,11-18.5,11.1C174.2,211.7,159.8,211.5,145.4,211.6z M107.5,142.6C107.5,142.6,107.4,142.6,107.5,142.6
	c-0.1,12.5,0.1,25-0.1,37.6c-0.1,6.1,1.2,9.5,8.4,9.4c25-0.3,50.1-0.2,75.1,0c5.8,0,8.3-2.2,8.2-8.2c-0.2-24.6-0.3-49.2,0-73.7
	c0.1-7.2-2.8-9.8-9.9-9.7c-24.1,0.3-48.2,0.4-72.3,0c-7.6-0.1-9.6,3.1-9.4,9.9C107.7,119.4,107.5,131,107.5,142.6z M105.6,85.5
	c2.4,7.4,8.2,5.2,12.8,5.3c24.6,0.2,49.1,0.5,73.7,0c11.1-0.2,14.4,4.1,14.2,14.8c-0.6,25-0.2,50.1-0.1,75.1c0,2.9-1.4,7.4,3.2,7.9
	c5.4,0.6,3.8-4.3,3.8-7c0.1-29.2-0.1-58.4,0.2-87.6c0.1-9.3-4.9-10.5-12.3-10.4c-27.8,0.2-55.6,0-83.4,0.1
	C113.7,83.6,109.5,82.9,105.6,85.5z M95.3,98.3c-1.6,7-2.6,93-2.2,99.2c0.5,7.4,5.5,6.2,9.9,6.2c29.2,0,58.5,0,87.7-0.1
	c2.7,0,6.9,1.4,7.2-3.9c-3.8-4-8.7-2.3-13.1-2.3c-23.2-0.2-46.4-0.6-69.6,0.2c-11.8,0.4-16.4-2.3-15.8-15.2
	c1.1-24.1,0.3-48.2,0.1-72.4C99.4,106.3,101.5,101.7,95.3,98.3z"/>
<path class="st87" d="M107.5,142.6c0-11.6,0.2-23.2-0.1-34.8c-0.2-6.8,1.7-10.1,9.4-9.9c24.1,0.4,48.2,0.3,72.3,0
	c7.1-0.1,10,2.5,9.9,9.7c-0.2,24.6-0.2,49.2,0,73.7c0.1,6-2.4,8.2-8.2,8.2c-25-0.1-50.1-0.2-75.1,0c-7.2,0.1-8.5-3.3-8.4-9.4
	C107.6,167.7,107.4,155.1,107.5,142.6C107.4,142.6,107.5,142.6,107.5,142.6z M113.7,150.4c0,6.5,0.7,13-0.1,19.4
	c-1.5,11.7,4,14.4,14.4,13.7c10.6-0.7,21.3,0.2,31.9-0.3c7.7-0.3,19.1,4.4,17.9-11c-0.1-1,2.5-3.2,3.8-3.1c12.9,1,10.9-8,10.9-15.7
	c0-12.5-0.3-25,0.1-37.5c0.3-8.3-2.5-11.9-11.1-11.5c-10.6,0.5-21.3-0.1-31.9,0.3c-9.1,0.3-21.2-4.6-22.9,11.4
	c-0.1,1.3-2.8,3.4-4.1,3.3c-10.7-0.7-8.7,6.8-8.8,13C113.6,138.3,113.6,144.4,113.7,150.4z"/>
<path class="st87" d="M105.6,85.5c3.9-2.5,8.1-1.8,12-1.9c27.8-0.1,55.6,0.1,83.4-0.1c7.5-0.1,12.4,1.1,12.3,10.4
	c-0.3,29.2,0,58.4-0.2,87.6c0,2.7,1.6,7.6-3.8,7c-4.6-0.5-3.2-4.9-3.2-7.9c-0.1-25-0.5-50.1,0.1-75.1c0.2-10.7-3.1-15.1-14.2-14.8
	c-24.6,0.5-49.1,0.2-73.7,0C113.8,90.7,108,92.9,105.6,85.5z"/>
<path class="st86" d="M95.3,98.3c6.2,3.3,4.1,8,4.1,11.7c0.2,24.1,1,48.3-0.1,72.4c-0.6,13,4.1,15.6,15.8,15.2
	c23.2-0.8,46.4-0.4,69.6-0.2c4.4,0,9.3-1.7,13.1,2.3c-0.3,5.3-4.5,3.9-7.2,3.9c-29.2,0.2-58.5,0.2-87.7,0.1c-4.4,0-9.4,1.2-9.9-6.2
	C92.8,191.3,93.8,105.3,95.3,98.3z"/>
<path class="st78" d="M113.7,150.4c0-6-0.1-12,0-18c0.1-6.2-1.9-13.7,8.8-13c1.3,0.1,4-2,4.1-3.3c1.7-15.9,13.7-11,22.9-11.4
	c10.6-0.4,21.3,0.2,31.9-0.3c8.6-0.4,11.4,3.2,11.1,11.5c-0.5,12.5-0.1,25-0.1,37.5c0,7.8,2,16.7-10.9,15.7
	c-1.2-0.1-3.8,2.1-3.8,3.1c1.2,15.4-10.2,10.7-17.9,11c-10.6,0.5-21.3-0.4-31.9,0.3c-10.4,0.7-15.9-2.1-14.4-13.7
	C114.3,163.4,113.7,156.9,113.7,150.4z M135.9,146.1c-2,9.7,0.1,17.2,14.7,15.1c9.2-1.3,21.8,4,19.7-13.9
	c-1.2-10.5,3.5-22.8-15.7-20.9C136.2,128.2,136,126.8,135.9,146.1z M134.9,113.6c6.1,7.9,12.7,5,18.2,5.1
	c24.9,0.4,24.7,0.2,25.2,24.7c0.1,5.6-2.5,12.4,6.4,19.8c0-17.2,0.1-31.3-0.1-45.4c0-3.8-2.6-5.6-6.5-5.6
	C164.4,112.3,150.7,110.9,134.9,113.6z M125.8,127.2c-1.5,0-2.9,0-4.4,0c0,14.5-0.1,29.1,0,43.6c0,3.3,2.2,4.9,5.4,4.9
	c12.4,0,24.9,0.1,37.3,0c2.2,0,4.9-0.4,4.7-3.6c-0.2-3.2-3-3-5.1-3c-7.4-0.2-14.8-0.8-22.1,0c-11.5,1.3-14.2-3.7-13.8-14.3
	C128.2,145.6,130.5,135.9,125.8,127.2z"/>
<path class="st83" d="M135.9,146.1c0.1-19.4,0.2-17.9,18.6-19.7c19.2-1.8,14.5,10.5,15.7,20.9c2.1,17.9-10.4,12.5-19.7,13.9
	C136.1,163.4,133.9,155.8,135.9,146.1z"/>
<path class="st83" d="M134.9,113.6c15.8-2.8,29.5-1.4,43.2-1.4c3.8,0,6.4,1.8,6.5,5.6c0.2,14.1,0.1,28.1,0.1,45.4
	c-8.9-7.4-6.3-14.2-6.4-19.8c-0.4-24.5-0.3-24.3-25.2-24.7C147.6,118.6,141,121.5,134.9,113.6z"/>
<path class="st87" d="M125.8,127.2c4.7,8.7,2.3,18.5,2,27.6c-0.3,10.6,2.4,15.6,13.8,14.3c7.3-0.8,14.7-0.2,22.1,0
	c2.1,0,4.9-0.2,5.1,3c0.2,3.2-2.6,3.6-4.7,3.6c-12.4,0.1-24.9,0.1-37.3,0c-3.2,0-5.4-1.6-5.4-4.9c-0.1-14.5,0-29.1,0-43.6
	C122.9,127.2,124.4,127.2,125.8,127.2z"/>
</svg>
