<?xml version="1.0" encoding="utf-8"?>
<!-- Generator: Adobe Illustrator 24.0.2, SVG Export Plug-In . SVG Version: 6.00 Build 0)  -->
<svg version="1.1" id="Capa_1" xmlns="http://www.w3.org/2000/svg" xmlns:xlink="http://www.w3.org/1999/xlink" x="0px" y="0px"
	 viewBox="0 0 288 288" style="enable-background:new 0 0 288 288;" xml:space="preserve">
<style type="text/css">
	.st0{fill:#2D2D2D;}
	.st1{fill:#002530;}
	.st2{fill:#050523;}
	.st3{fill:#707C84;}
	.st4{fill:#E9E4DE;}
	.st5{fill:#EE3133;}
	.st6{fill:#FD99AF;}
	.st7{fill:#C4C2C0;}
	.st8{fill:#F2D8A3;}
	.st9{fill:#EFCB84;}
	.st10{fill:#EF692F;}
	.st11{fill:#4B343F;}
	.st12{fill:#16B198;}
	.st13{fill:#E72D52;}
	.st14{fill:#7B536F;}
	.st15{fill:#8F4CA9;}
	.st16{fill:#E2C29F;}
	.st17{fill:#9F4687;}
	.st18{fill:#A9A0AF;}
	.st19{fill:#CC4743;}
	.st20{fill:#8677A9;}
	.st21{fill:#8E5D8E;}
	.st22{fill:#DF615C;}
	.st23{fill:#9E4742;}
	.st24{fill:#D34861;}
	.st25{fill:#B75B6D;}
	.st26{fill:#DF6482;}
	.st27{fill:#FFFFFF;}
	.st28{fill:#829CA2;}
	.st29{fill:#F2B991;}
	.st30{fill:#E56759;}
	.st31{fill:#F5F3EE;}
	.st32{fill:#DC4B3F;}
	.st33{fill:#1D5A7D;}
	.st34{fill:#459492;}
	.st35{fill:#F0A349;}
	.st36{fill:#E4EFEB;}
	.st37{fill:#E17467;}
	.st38{fill:#B6BFBD;}
	.st39{fill:#F0E2D6;}
	.st40{fill:#396D89;}
	.st41{fill:#201A21;}
	.st42{fill:#48505D;}
	.st43{fill:#0B0707;}
	.st44{fill:#D30034;}
	.st45{fill:#6C919B;}
	.st46{fill:#F68C4A;}
	.st47{fill:#E5CFCD;}
	.st48{fill:#385B4D;}
	.st49{fill:#F14206;}
	.st50{fill:#BAD2D8;}
	.st51{fill:#F70059;}
	.st52{fill:#AA000C;}
	.st53{fill:#D8B5B2;}
	.st54{fill:#E08143;}
	.st55{fill:#F2E9E9;}
	.st56{fill:#F4D085;}
	.st57{fill:#23586A;}
	.st58{fill:#17241F;}
	.st59{fill:#EAE8E1;}
	.st60{fill:#253C4F;}
	.st61{fill:#F7FCFD;}
	.st62{fill:#0E151F;}
	.st63{fill:#8D897D;}
	.st64{fill:#BDB6AA;}
	.st65{fill:#EDE1AF;}
	.st66{fill:#DF786F;}
	.st67{fill:#E8C46F;}
	.st68{fill:#B0CEAD;}
	.st69{fill:#9FC4AF;}
	.st70{fill:#B8C6A0;}
	.st71{fill:#EBEC80;}
	.st72{fill:#DD7AB2;}
	.st73{fill:#D6D2D3;}
	.st74{fill:#69BCC5;}
	.st75{fill:#D0CBC1;}
	.st76{fill:#242424;}
	.st77{fill:#525252;}
	.st78{fill:#3D3D3D;}
	.st79{fill:#6B6B6B;}
	.st80{fill:#303030;}
	.st81{fill:#8A8A8A;}
	.st82{fill:#282828;}
	.st83{fill:#E6E6E6;}
	.st84{fill:#E8E8E8;}
	.st85{fill:#A9A9A9;}
	.st86{fill:#D9D9D9;}
	.st87{fill:#CACACA;}
	.st88{fill:#9E9E9E;}
	.st89{fill:none;}
	.st90{fill:#4A4744;}
	.st91{fill:#F0BA45;}
	.st92{fill:#F1D34E;}
	.st93{fill:none;stroke:#00A591;stroke-miterlimit:10;}
	.st94{fill:#EEEEEE;}
	.st95{fill:#FBFBFB;}
	.st96{fill:#F8F2DD;}
	.st97{fill:#8DB2A6;}
	.st98{fill:#ED8C58;}
	.st99{fill:#F0C153;}
	.st100{fill:#C2B146;}
	.st101{fill:#8E6E51;}
	.st102{fill:#1C1D4C;}
	.st103{fill:#111224;}
	.st104{fill:#26687B;}
	.st105{fill:#F8494A;}
	.st106{fill:#81819B;}
	.st107{fill:#80809B;}
	.st108{fill:#0AC6BB;}
	.st109{fill:#0BC5B9;}
	.st110{fill:#686888;}
	.st111{fill:#0BC5BA;}
	.st112{fill:#FEFEFE;}
	.st113{fill:#F8F5CE;}
	.st114{fill:#EF484B;}
	.st115{fill:#F94A4A;}
	.st116{fill:#F9F6CE;}
	.st117{fill:#DFE0E3;}
	.st118{fill:#04121D;}
	.st119{fill:#6693AB;}
	.st120{fill:#89BCD7;}
	.st121{fill:#FAF509;}
	.st122{fill:#0B2E41;}
	.st123{fill:#427491;}
	.st124{fill:#2A5973;}
	.st125{fill:#184259;}
	.st126{fill:#BCE4F7;}
	.st127{fill:#02111C;}
	.st128{fill:#FCF704;}
	.st129{fill:#F4F115;}
	.st130{fill:#DFE23F;}
	.st131{fill:#BCE6FA;}
	.st132{fill:#031D2B;}
	.st133{fill:#81851A;}
	.st134{fill:#1E1E1E;}
	.st135{fill:#F5142E;}
	.st136{fill:#05ACC0;}
	.st137{fill:#F87240;}
	.st138{fill:#FA723F;}
	.st139{fill:#F67240;}
	.st140{fill:#E37547;}
	.st141{fill:#07ADC0;}
	.st142{fill:#450D0D;}
	.st143{fill:#F57240;}
	.st144{fill:#440D0D;}
	.st145{fill:#470D0D;}
	.st146{fill:#EBECCC;}
	.st147{fill:#E9EACA;}
	.st148{fill:#00ABBF;}
	.st149{fill:#F6FAD9;}
	.st150{fill:#CBC3AC;}
	.st151{fill:#E2615D;}
	.st152{fill:#FAFAF8;}
	.st153{fill:#E8E4DA;}
	.st154{fill:#123057;}
	.st155{fill:#F4D16B;}
	.st156{fill:none;stroke:#F1D34E;stroke-miterlimit:10;}
	.st157{fill:#E3834C;}
	.st158{fill:#E9A779;}
	.st159{fill:#ECB74A;}
	.st160{fill:#00A591;}
</style>
<path class="st0" d="M307.3,75.9c0.1,10,0,20.1,0.2,30.1c0.1,5-0.1,10.6,7.6,10c2.4,2,0.7,3.8-0.2,5.6c-6.9,0.3-14.2,1.6-13-9.6
	c0.5-4.9-3.1-6.1-7.2-5.6c-7.4,0.9-8.4-3.3-7.5-9.1c2.7-3.8,1.6-5.6-2.9-5.6c-6.9,0.6-13.2,0.7-12.1-9.4c0.5-4.1-2.6-5.8-6.3-5.5
	c-6.5,0.5-9.4-2.3-9.1-8.8c0.1-2.8-0.7-6.3-4-6.1c-8.3,0.6-11.8-2.5-11.2-11c0.2-3.4-3.2-4.2-6.1-4c-5.9,0.4-8.5-2-8.2-8
	c0.2-4.2-1.6-7.5-6.3-7.3c-7.4,0.4-10-2.9-9.2-9.9c0.3-2.5-1.4-4.9-4-4.6c-8.4,0.8-11.6-2.7-10.9-11.1c0.4-4.6-4.1-4.1-7.2-4.1
	c-4.3,0-7.7-1.3-7.2-6.1c1.1-10.4-6.8-8.8-12.6-10c-0.8-1.8-1.6-3.6-2.4-5.4c-3.9-15.3-2.7-16.6,11.1-16.7c7.5,0,9.8,2.8,9.3,9.7
	c-0.4,5.5-0.1,11.1,0,16.6c0.1,3,1.2,5.6,4.6,5.6c3.4,0,4.6-2.3,4.6-5.5c0-1.4-0.1-2.8,0.1-4.1c1-7.1-3.6-18.2,2.6-20.5
	c9.4-3.4,20.8-1.4,31.3-1.3c1.4,0,3.9,2.1,3.9,3.1c-0.2,8.5,5.3,9.2,11.7,9.5c3.7,0.2,3.8,3.3,3.4,6.2c-1.7,0-3.4,0.1-5.1,0.1
	c-6.5-3.4-13.6-1.6-20.4-1.8c-4.2-0.1-7.2,1.5-7.2,6.3c0,11.1,0,22.1,0,33.2c0,3.4,1.8,5.1,5,5.3c4.2,0.2,5.6-2.4,5.5-6.2
	c-0.1-3.2,0.4-6.5-0.1-9.7c-2.3-13.4,1.5-21.3,16.8-19.4c2.3,0.1,4.5,0.1,6.8,0.2c6.6,0.8,16.1-2.5,14.4,10.3
	c-0.3,2.5,1.5,4.6,4.1,4.4c8.3-0.6,11.9,2.9,11.2,11.3c-0.1,1.2,2.1,3.7,3.1,3.7c15.4-0.8,10.4,14.6,16.8,20.9c-5.5,0-11,0.1-16.6,0
	c-3.6,0-6.5,0.7-6.6,5c-0.1,11.5-0.1,23-0.1,34.5c0,3.3,1.5,5.1,5,5c3.6-0.1,4.5-2.5,4.5-5.6c0-5.1,0.2-10.1,0-15.2
	c-0.3-8.2-1-15.2,11.5-14.5c7.8,0.4,9.9-4.8,1.4-9.4c1.1-8.4,7.5-6.6,9-2.4c2.1,5.9,3.7,10.2,9.2,14.6c3.2,2.5,7.2,14.6-4.9,17.7
	C308.9,69.5,306.5,70.5,307.3,75.9z M247.5,33.7C247.5,33.7,247.5,33.7,247.5,33.7c0.1,1.4-0.2,2.8,0.1,4.1
	c1.7,5.9-4.2,17.1,4.2,17.2c11,0,4.6-11.6,5-17.7c0.7-9.4-0.2-18,13.4-15.9c3.1,0.5,5-1.8,5-5.2c0-1.9-0.6-3.4-2.5-4.4
	c-11-6.1-25.2,1.5-25.2,13.7C247.5,28.2,247.5,31,247.5,33.7z"/>
<path class="st80" d="M55.7,35.9c6.9,0.6,12.1-0.6,15.5,10.1c1.8,5.9,14.3,12.8,21.2,20.2c0.4,0.5,2.5-0.2,2.6,0.2
	C98.8,77,112.1,79,115.7,89.5c0.9,2.6,0.6,6.6,4.1,6.2c13.2-1.5,10.5,8.2,11.3,15.5c-2.1,0-4.1,0-6.2-0.1c-0.1-3.8,2.2-8-4-9.9
	c-15.8-4.8-23.6,0.7-23.6,17.2c0,6.4,0.4,12.8,0,19.2c-0.5,8,3.4,9.5,10.1,7.9c0.2,2.8,0.4,5.7,0.6,8.5c-6.2-4.2-19-0.4-16.9-14.7
	c0.4-2.7-4.3-2.7-7-2.7c-4.5,0.1-7.2-1.6-6.7-6.4c0.7-6.8-2.7-9-9-8.6c-3.1,0.2-6-1.3-5.7-4.5c0.5-8.5-3.3-11.5-11.4-11.2
	c-3.3,0.1-4-3.1-4.3-6c-0.2-2.2-1-6.3-1.2-6.3c-13.3,0.9-11.9-11.3-16.5-18.1c2.7-0.2,5.4-0.4,8.1-0.7c1.7,3.7-2.6,10.8,4.6,11
	c8.4,0.3,4.9-7.1,5.4-11.4c0.5-4.6,0.4-9.2,0.1-13.8c-0.4-6.3,1.8-9.3,8.6-9.3c3.6,0,9.4,1.4,9.1-5.3c-0.3-6.4-6.3-3.7-9.7-5.2
	C55.6,39.3,55.7,37.6,55.7,35.9z M67.4,93.4c0,1.4-0.3,2.9,0.1,4.1c2,6.2-4.9,18,5.8,17.9c8.7-0.1,4-11.3,4.3-17.4
	c0.4-9.5-1.2-19.1,13.4-17c2.5,0.4,4.3-1.8,4-4.4c-0.2-1.6-1.3-3.6-2.6-4.4c-11.4-6.8-24.9,0.9-25,14.2
	C67.4,88.7,67.4,91.1,67.4,93.4z"/>
<path class="st0" d="M175.5,35.9c6.6,0.8,16.2-2.3,13.8,10.4c11.5,2.5,15.1,14.2,23.7,19.8c2.3,1.5,7.3,0.3,7,4.5
	c-0.6,8.7,3.2,11.3,11.3,10.7c3.4-0.3,4.5,3,4.3,5.9c-0.5,6.4,1.9,8.7,8.6,9c10.9,0.4,4.3,9.9,6.8,14.9c-2,0-4.1,0-6.1,0
	c1.8-8-1.9-11.5-9.5-9.9c-6.2,1.3-16.2-5.5-17.8,6c-1.5,10.8-0.2,21.9-0.4,32.9c-0.1,6.2,4.5,5.8,8.4,6.6c0.8,2.4,1.6,4.9,2.4,7.3
	c-6-4.2-19,0.1-16.9-14.3c0.4-2.7-4.1-3.1-6.8-3.1c-4.3,0-7.5-1.1-6.9-6.1c0.7-6.6-2.2-9.3-8.6-8.9c-0.5,0-1.3,0-1.3-0.1
	c-3-11.2-17.3-13.1-20.1-23.7c-1.5-5.7-4.7-5.8-8.6-6.7c0-1.6,0-3.2,0-4.7c5.4,0.7,9-0.6,8.8-7.1c-0.2-6,0.2-12-0.1-18
	c-0.2-6,1.2-9.9,8.3-9.6c3.9,0.2,9.4,1.1,9.6-5c0.2-7.6-7-3.8-10.5-5.7C175.1,39.2,175.3,37.6,175.5,35.9z M187.2,92.8
	c0,1.4-0.3,2.9,0.1,4.1c2,6.3-5,18.3,5.2,18.3c10.3,0,4.2-11.8,4.8-18.1c0.8-9.1-0.9-18.3,13.2-15.9c2.3,0.4,4.5-1.5,4.3-4.2
	c-0.1-1.6-1.1-4.2-2.1-4.5c-7.2-1.9-14.9-2.3-21.8-0.2c-6.4,2-2.8,8.8-3.5,13.4C186.9,88.1,187.2,90.5,187.2,92.8z"/>
<path class="st0" d="M292.5,280.9c-11.8-1.4-16.6,3.2-14.9,15.5c1.2,8.5,0.2,17.2,0.2,27.4c-6.6-2.1-8-9.7-14.8-7.9
	c-4.4,1.2-6.2-2.6-6.1-7c0-1.8-0.2-5.1-0.7-5.2c-9.3-1.7-12.1-9.5-17.5-15.3c-4.3-4.6-12.5-5.7-12.4-15c0-0.7-2.3-2.1-3.3-2
	c-12.9,2-10.5-8.1-12-15c1.9-0.3,3.7-0.6,5.6-0.9c1.5,3.7-1.4,10.5,6.1,10.2c7.4-0.3,4.5-6.4,5.1-10.5c0.2-1.8,0.3-3.7,0-5.5
	c-2.3-13.4,1.7-21.1,16.8-19.1c2.2,0,4.4,0.1,6.6,0.1c3.5,0.3,7,0.7,10.6,1c0.9,4.7-2,10.6,4.3,13.6c0.9-0.2,1.7,0.1,2.3,0.8
	c-0.3,1.5-0.6,2.9-0.9,4.4c-20,1.4-20,1.4-20,21.4c0,2.3-0.4,4.7,0.1,6.9c1.4,5.6-3.8,15.9,4,16.1c10.6,0.3,4.8-10.5,5.4-16.4
	c0.9-8.9-2-18,13.1-18c8.4,0,7.7-6.4,0.1-10c-0.2-1.4-0.4-2.9-0.6-4.3c11.8-2.6,11.5,5.1,11.1,12.9c1.6,9.5,9.3,3.5,13.9,5.4
	c0.4,3.6,0.7,7.3,1.1,10.9C293.5,276.6,292.7,278.6,292.5,280.9z"/>
<path class="st82" d="M27,245.3c9.5-0.4,16.5,1.9,14,13.8c1.7,9.3,9.6,3.2,14.1,5.6c3.2,10.8,3.7,19.3-12.1,17.2
	c-5.4-0.7-4.7,4.6-4.7,8.1c-0.1,10.8,0,21.7,0,35.7c-6-5.6-8.7-10.7-15.1-9.7c-4.9,0.8-5.8-3.3-5.8-7.4c0-3.2,0.2-7.5-4.3-7.1
	c-8.4,0.7-11.7-2.5-10.9-10.9c0.3-2.6-2.1-3.9-4.6-4c-1.4-0.1-3.6,0.4-4-0.3c-5.5-8.5-13-14.9-20.4-21.6c1.5,0,3-0.1,4.6-0.1
	c7.7,3.4,11.5,0.8,10.5-7.5c-1.8-14.5-1-27.1,17.8-28.6c1.5-0.4,2.9-0.8,4.4-1.2c1.5,4.8,5.6,3.9,9.1,4c5.7,0.2,6.9,3.4,5.7,8.3
	C21.6,242.7,22.7,244.5,27,245.3z M7.8,273.3c0,1.4-0.3,2.9,0.1,4.2c1.6,6-4.2,17.3,4.2,17.3c10.9,0.1,5.1-11.6,5.4-17.8
	c0.4-9.6,0-18.1,13.6-15.8c2.6,0.4,4.1-1.7,4.4-4.3c0.3-2.5-0.6-4.2-3.2-5.4c-12.8-5.7-24.3,1.3-24.5,14.9
	C7.8,268.6,7.8,270.9,7.8,273.3z"/>
<path class="st82" d="M131.3,230.9c7,0.4,16-2.1,14.2,10.4c-0.4,2.8,1.5,4.4,4.1,4.2c7.9-0.6,12.4,1.8,11.4,10.8
	c-0.5,4.6,3.1,5,6.6,4.8c5.9-0.4,7.1,2.5,8.2,8.1c1.6,8.6,2,14.2-9.3,12.3c-6.9-1.2-8.7,2.5-8.5,8.8c0.3,10.6,0.1,21.2,0.1,34.9
	c-7.4-9.8-23.7-6-21.9-22.2c-15.3,4.9-10.5-18.9-24.9-17.3c-5.6,0.6-3.3-7.1-3.1-11.5c0-3.5,0.1-6.9,0.1-10.4
	c-0.1-5.1,0.5-10.3-0.3-15.2c-2.5-14,3.4-19.5,17-17.7C127.1,230.9,129.2,230.9,131.3,230.9z M141.3,251c-3.2,2.8-12.3-4.7-13.3,5.2
	c-1.1,11.4-0.3,23-0.4,34.5c0,3.2,1.5,5.3,4.9,5.2c3.3-0.1,4.9-1.9,4.8-5.3c-0.1-5.1,0.4-10.2,0-15.2c-0.7-8.8,0-15.9,11.9-14.1
	c3.8,0.6,6.1-1.6,5.8-5.7c-0.2-3.4-2.4-4.6-5.6-4.6C147.3,251,145,251,141.3,251z"/>
<path class="st82" d="M244.9,111.1c2,0,4.1,0,6.1,0c3.6,0.3,7.2,0.7,10.8,1c0.8,4.7-2.2,10.5,4.1,13.4l0.8-0.2l0.4,0.8
	c0.1,1.5,0.2,3,0.3,4.4c-4.6,0.2-9.1,0.6-13.7,0.7c-3.8,0-6.2,1.4-6.2,5.5c0,11.5,0,23,0,34.5c0,2.6,1,4.5,3.8,4.6
	c2.9,0.1,5.6-0.5,5.9-4.2c0.2-2.7,0.4-5.6,0-8.3c-2.1-14.3,0.7-24.6,18.4-23c1.2,0.1,2.6-0.7,3.9-1.1l0.9,0.1l0.8,0.4
	c0,0-0.2,0.9-0.2,0.9c3,6.2,8.8,3.3,13.5,4c0.7,3.6,1.5,7.2,2.2,10.8c2.1,8.6-5,6-8.1,5.7c-9.6-0.9-11.8,3.4-11.1,12
	c0.9,10.9,0.8,21.9,1.1,32.9c0,1.5,0,3.1,0,4.6c-3.1,1-6,0.6-5.9-3.1c0.3-7.6-1.3-12.7-10.5-11.4c-2.5,0.4-4.9-1.4-4.8-3.9
	c0.6-8.3-2.6-11.9-11.2-11.1c-3.5,0.3-4.3-2.9-4-5.9c0.5-6.4-2-8.8-8.7-8.9c-9.4-0.1-5.2-7.5-5.5-12.4c-0.8-2.4-1.6-4.9-2.4-7.3
	c4.2-5.3,2.7-11.6,2.1-17.2C226,115.7,230.2,108.8,244.9,111.1z"/>
<path class="st82" d="M158.7,86.3c0,1.6,0,3.2,0,4.7c-3.2,0.9-6.1,0.1-5.9-3.4c0.6-8.3-2.5-11.9-11-11.5c-3.3,0.2-4.8-2.7-4.5-5.7
	c0.6-6.7-2.3-9.3-8.8-8.9c-2.8,0.2-6.2-0.1-6-3.9c0.5-8.1-2.5-11-11-11.5c-6.1-0.3-3.7-7.1-3.4-11.5c-0.2-3-0.5-6-0.7-9.1
	c0.2-5.4,1.2-10.9,0.4-16.2c-1.9-13.6,2.7-20.3,17.1-18.2c2.2,0,4.3,0,6.5,0c3.5,0.3,7.1,0.7,10.6,1c0.9,4.6-2.3,10.5,4.1,13.5
	c3.3,0.4,6.5,0.7,9.8,1.1c-0.2,1.7-0.4,3.3-0.6,5c-27.6-1.2-27.6-1.2-27.7,26.7c0,3.7,0,7.4,0.1,11.1c0,3.3,0,6.6,4.8,6.5
	c4.5-0.1,5.1-3.2,5.1-6.6c0.1-5.1,0.4-10.2,0-15.2c-0.7-8.1,0.5-13.8,10.8-12.5c8.1,1,7.3-4.8,6.8-10c1.5-0.2,3.1-0.4,4.6-0.6
	c0.2,2.9,0.4,5.8,0.6,8.7c1.4,10.5,9.6,2.9,14,5.2c0.4,3.7,0.7,7.4,1.1,11c-0.2,1.6-0.4,3.3-0.6,4.9c-15.1-1.8-20.2,4.8-17.5,19.5
	C158.9,68.9,156.2,77.7,158.7,86.3z"/>
<path class="st82" d="M108.1,154.1c-0.2-2.8-0.4-5.7-0.6-8.5c0.2-5.4,1.2-10.9,0.4-16.2c-2-13.7,2.6-20.4,17.1-18.3
	c2.1,0,4.1,0,6.2,0.1c3.6,0.3,7.2,0.7,10.8,1c-0.2,7.5-1.2,15.4,8.4,18.4c-22.8,1.7-22.8,1.7-22.8,25.8c0,4.2,0,8.3,0,12.5
	c0,3.3-0.4,6.7,4.4,7c5.6,0.3,5.5-3.7,5.6-7.4c0.1-3.2,0.5-6.6-0.1-9.7c-2.6-14.2,3.6-19.5,17.3-17.5c6.1,3.8,12.9,3.6,19.7,3.5
	c0.4,3.6,0.7,7.3,1.1,10.9c0,1.7-0.1,3.4-0.1,5.2c-15.1-2.1-20.3,4.4-18,19.2c1.3,8.5,0.8,17.4,1.1,26c-1.7,0.9-3.4,1.8-5.1,2.7
	c-1.1-6.6-0.6-14.4-11.3-12.7c-2.6,0.4-4.6-1.8-4.5-4.2c0.4-8.3-3.2-11.5-11.4-10.8c-3.6,0.3-4.3-2.9-4-5.8c0.8-6.6-2-8.7-8.6-8.8
	C104.4,166.3,108.5,158.9,108.1,154.1z"/>
<path class="st82" d="M37.5,75c-2.7,0.2-5.4,0.4-8.1,0.7c-6.1,1-12.5,2.6-12-7.3c0-0.9-0.2-2.6-0.2-2.6C3.9,65.9,5.3,48.4-6.4,46.6
	c-10-1.6-4.1-10.3-6.1-15.5c-3.9-4.8,1.9-8.8,0.9-13.8c-3-14.7-0.9-26.8,17.5-28.6c1.9,0.9,3.7,1.7,5.6,2.6C15-8.4,18.6-8,22.2-7.6
	c2.4,4.4-5.5,12.7,5.3,14c2.9,0.2,5.7,0.5,8.6,0.7c-0.1,1.7-0.3,3.3-0.4,5C7.8,9.8,7.8,9.8,7.8,36.7c0,3.2-0.3,6.5,0.1,9.7
	c0.4,3.6-2.4,9.2,4.5,9.4c6.5,0.2,5.2-5,5.4-8.9c0.1-2.3,0.3-4.7,0-6.9c-2.1-12.7,1.8-20.1,16-19.3c0.7,0,1.5-0.9,2.3-1.4
	c5.4,4.6,11.6,6.5,18.7,5.6c0.3,3.7,0.7,7.3,1,11c0,1.7,0,3.4-0.1,5.1C40.9,39,35,45.1,37.6,60C38.5,64.8,37.6,70,37.5,75z"/>
<path class="st80" d="M108.3,263.8c0,3.5-0.1,6.9-0.1,10.4c-5.8-4.5-19-0.5-16.7-14.8c0.5-3.2-4.1-2.5-6.7-2.8
	c-3-0.4-7.4,0.4-7.1-4.3c0.6-8.5-3.1-10.3-11.1-11.3c-7.7-1-1.9-10.8-6.3-15c2.1-0.1,4.2-0.3,6.4-0.4c1.7,3.8-0.8,10.7,6.2,10.4
	c7.2-0.3,4.4-6.7,4.8-10.8c0.4-4.6,0.3-9.2,0-13.8c-0.3-6.3,0.4-11,8.7-10.2c3.2,0.3,8.1,1.4,8.6-4.1c0.6-6.5-5.1-5.1-8.7-6.3
	c0-1.4,0-2.8,0-4.2c6.2,1,16.3-3.3,13.8,9.9c-0.1,0.4,0,1.3,0.1,1.3c10.4,1.8,14.4,15.2,20,16.6c11.5,3,10.3,9.3,11.1,16.6
	c-2.1,0-4.2,0-6.3,0c-0.3-3.3,2.1-7.3-3-9.4c-14.1-5.9-24.6,0.8-24.6,15.9c0,6.4,0.2,12.9-0.1,19.3
	C97,265.4,100.7,267.4,108.3,263.8z"/>
<path class="st80" d="M107.4,25.6c0.2,3,0.5,6,0.7,9.1c-6.6-4.2-19.1-2.2-17.2-15.9c0.1-0.4-3.9-2-6-1.9c-6.2,0.4-8.1-2.6-7.7-8.2
	C77.5,6,77,2.1,73.8,2.5c-13.5,1.7-10.9-8.8-12.9-16c3.9-6.9,5-14.2,3.1-21.9c8.4,6.2,2,15.1,4,22.6c0.9,3.3-0.8,8.2,4.7,8.3
	c5.4,0,4.4-4.6,4.7-8.2c1.7-23.7,1.7-23.7,25.6-23.4c6.2,0.1,13.7-1.8,13.3,8.7c-0.1,2.1,1.8,3.4,3.7,3.2
	c12.9-1.5,10.3,8.3,11.3,15.4c-2.2,0-4.3,0-6.5,0c0.2-2.7,1.6-6.4-0.9-7.8c-7.2-4-15.5-3.1-22.9-1.3c-6.6,1.6-3.3,8.6-3.6,13.2
	c-0.5,7.4,0.2,14.8-0.2,22.2C96.9,25.4,100.4,27.4,107.4,25.6z"/>
<path class="st80" d="M153.5,208.7c1.7-0.9,3.4-1.8,5.1-2.7c5.3,0.8,9.1-0.2,9-6.8c-0.1-5.9,0.2-11.9,0-17.8
	c-0.3-6.5,1.4-10.7,9.1-10.1c3.5,0.3,8.3,0.8,8.7-4.2c0.7-7.4-6-5-9.8-6.4c0-1.7,0.1-3.4,0.1-5.2c7.2,0.7,16.7-2.1,15.5,11
	c-0.4,4.3,4.1,4.1,7.3,4.2c3.9,0.1,8.2,0.4,7.3,5.7c-1.7,10.1,5.2,9.8,11.6,10.3c-0.6,3.4-1.2,6.8-1.7,10.3
	c-5.7-10.9-15.7-5.3-23.3-4.9c-8.1,0.4-4.1,8.8-4.5,13.7c-0.6,7.3,0,14.8-0.2,22.2c-0.2,7.2,3.4,8.9,9.6,7.3c0.1,2.5,0.3,5,0.4,7.5
	c-6.8-1.9-16.9,0.6-15.7-12c0.3-3.4-2.8-4.6-5.8-4.4c-6.2,0.4-9.6-1.5-8.9-8.5C168,207,155.5,215.5,153.5,208.7z"/>
<path class="st0" d="M86.3,186.4c0,1.4,0,2.8,0,4.2c-18.7,1.5-18.6,1.5-18.9,21.2c-0.1,4.5-0.5,9.1-0.7,13.6
	c-2.1,0.1-4.2,0.3-6.4,0.4c-6.7,0.5-14.2,2.3-13.2-8.9c0.5-5.3-3.6-5.8-7.3-5.3c-6.6,0.8-7.3-3.4-7.5-8.2c2-0.4-0.9-10.4,4.8-2.7
	c1.9,2.6,2.2,6,6.4,5.3c5.5-0.9,3.9-5.4,4.1-8.7c0.3-5.5,0.3-11,0.1-16.5c-0.2-5.9,1.3-9.8,8.4-9.4c3.8,0.2,9.3,1.2,9.4-4.9
	c0.1-7.3-6.7-4.2-10.4-5.8c0.2-1.7,0.4-3.3,0.6-5c7.2,0.7,16.9-2.5,15.4,10.8c-0.1,1.2,2.2,3.8,3.1,3.7
	C87.8,168.6,85.6,178.6,86.3,186.4z"/>
<path class="st80" d="M-13.7,151.2c-7.6,0.7-15.5,1.7-14.2-10.2c0.1-0.8-0.4-1.9-0.9-2.6c-2.9-3.6-11,0.9-10.9-7.6
	c0.3-15.2-0.6-30.5,0.6-45.6c0.7-8.3,9.4-2.1,13.8-4.8c2.5,0.2,5,0.4,7.5,0.5c6.5,0.4,15-2.4,14,9.4c-0.1,1.5,1.5,4.5,2.1,4.5
	c12.6-0.6,9.4,9.2,10.8,16c-1.3,0.1-2.6,0.1-4,0.2c0-3.1,1.8-7.2-1.9-8.7c-7-2.7-14.7-2.3-21.7-0.5c-6.6,1.7-3.5,8.6-3.8,13.2
	c-0.5,7.3,0.2,14.7-0.3,22.1c-0.4,6.5,2.1,9.4,8.5,9.4C-14,148-13.9,149.6-13.7,151.2z"/>
<path class="st0" d="M278.6,210.7c0-1.5,0-3.1,0-4.6c5.2,0.4,9.1-0.5,8.7-7.1c-0.3-4.5,0.1-9.1-0.1-13.7
	c-0.5-8.4-0.4-15.5,11.6-14.5c8.3,0.6,7.2-4.7,4-9.9c0.3-1.4,0.7-2.9,1-4.3c7.9,3.8,18.1,22.4,16.3,29.7c-0.2,0.9-0.1,2.5-0.6,2.6
	c-21.8,7.8-7.9,26.3-12,39.4c-0.3,0.9-0.4,1.8-0.6,2.7c-1.4-0.2-2.9-0.4-4.3-0.6c-1.3-2.7-3.3-4.4-6.4-4.1
	c-6.7,0.6-10.3-1.6-9.3-9.1C287.6,210.9,282,212,278.6,210.7z"/>
<path class="st78" d="M-22.4,264.5c-1.5,0-3,0.1-4.6,0.1c-0.5-1.8-0.7-4.9-1.6-5.1c-16.3-3.8-10.6-16.7-11.2-26.8
	c-0.4-6,0.7-12.1-0.2-18c-2-12,3.8-15.4,14.4-14.5c2.6,0.2,5.2,0.4,7.8,0.6c7.4-0.3,15.3-1.6,14.2,10.3c-0.4,4.4,3.9,4.7,7,4.7
	c8.8,0,7.9,5.6,6.9,11.3c-1.5,0.4-2.9,0.8-4.4,1.2c-3.5-14-14.5-6-21.9-6.7c-8.7-0.8-6.2,7.3-6.3,12.3
	C-22.5,244.1-22.3,254.3-22.4,264.5z"/>
<path class="st82" d="M197.5,242.8c-0.1-2.5-0.3-5-0.4-7.5c0.1-3.7,0.9-7.4,0.3-10.9c-2.1-14.4-0.3-25.8,18.1-25.5
	c1.7,0.4,3.5,0.8,5.2,1.1c11.2-1.1,16.6,3.8,15.7,15.2c0.1,1.7,0.2,3.5,0.4,5.2c-19.6,0.6-19.6,0.6-19.6,20.1c0,5-0.3,10-0.5,15
	c-1.9,0.3-3.7,0.6-5.6,0.9c-3.5-0.2-7-0.5-10.5-0.7c-0.8-0.8-1.6-1.6-2.5-2.4C197.9,249.9,197.7,246.4,197.5,242.8z"/>
<path class="st82" d="M-13.7,151.2c-0.1-1.6-0.3-3.2-0.4-4.7c4.4-5.2,2.8-11.5,2.1-17C-13.8,115.7-9.4,109,5.1,111
	c1.3-0.1,2.6-0.1,4-0.2c4.4,0.4,8.8,0.8,13.1,1.2c0.7,4.6-2.1,10.3,3.9,13.4l0.9-0.1l0.5,0.8c0.1,1.5,0.2,2.9,0.3,4.4
	c-20,1.4-20,1.4-20,22.6c0,4.6-0.3,9.2-0.5,13.7c-1.7,0.1-3.4,0.2-5.1,0.2C-11.1,169.7-13.2,161.2-13.7,151.2z"/>
<path class="st78" d="M11.5-8.8c-1.9-0.9-3.7-1.7-5.6-2.6c-3.6-13.5-14.4-6.4-21.8-6.8c-8.6-0.5-6.1,7.4-6.3,12.5
	c-0.3,10.1-0.1,20.3-0.1,30.5c-1.6,0-3.1,0.1-4.7,0.1c-0.5-1.8-0.4-4.6-1.5-5.2c-24.3-13-5.9-35-10.8-52c-1.2-4,4-4,7.2-4
	c6.5-0.1,13,0,19.4-0.1c4.3,0,8.6,0.1,8.8,6.1c0.1,2.9,0.7,6.3,4.2,5.9C13.7-25.7,10.3-15.7,11.5-8.8z"/>
<path class="st82" d="M55.7,155.8c-0.2,1.7-0.4,3.3-0.6,5c-12.7-1.3-19.3,1.8-17.6,17.1c1.9,17.6,0.5,17.7-18.4,18.2l-0.3-0.7
	l-0.8,0c-0.4-4.7-0.9-9.4-1.3-14.2c0.1-1.8,0.2-3.6,0.2-5.4c0.3-5,1.6-10.2,0.8-15.1c-2.4-14.6,2.9-21.5,18-20.2
	c5.1,7,12.6,3,19,4.2C54.9,148.4,55.3,152.1,55.7,155.8z"/>
<path class="st78" d="M292.5,280.9c0.2-2.3,1-4.3,3.2-5.4c7.6,0.2,16.5-1.6,15.6,11c-0.3,3.6,3.9,3.2,5.7,4.8
	c6.2,5.3,4.2,17.7-3.6,20.2c-4.7,1.5-4.6,4.5-5.9,7.9c-3,8.1-10.2,3.7-15.5,4.2c-5.3,0.5-5.2-3.9-5.2-7.7c0-6,0.1-12,0.1-18
	c0-4.3,1.5-6.6,6.2-7.3c3.9-0.6,10.9,2.7,10.7-4.6C303.5,279.1,296.2,283,292.5,280.9z"/>
<path class="st80" d="M206,311.1c-7.3,1.9-18.2-4.1-19.7,10.7c-0.4,3.6-9.2,1.7-14.1,1.6c-5.5,0-5-4.3-5-8c0-5.6,0.1-11.1,0-16.7
	c0-4,0.6-7.4,5.6-7.9c6.9-0.6,17.2,1.1,8.3-11.3c-0.3-0.4,0.9-2.5,1.9-2.9c2.1-0.9,5.9-1,6,1.1c0.4,10.2,6.3,13.2,15.3,15
	c3.1,0.6,1.3,7.6,1.6,11.6C205.8,306.6,205.9,308.9,206,311.1z"/>
<path class="st80" d="M86.3,311.1c-7.3,2-17.8-3.9-19.9,10.4c-0.6,4.3-10,2.3-15.2,1.7c-5.3-0.6-3.6-5.6-3.8-8.9
	c-0.2-5.5,0.1-11.1,0-16.6c-0.1-4.6,1.8-6.5,6.4-6.9c3.8-0.3,9,1.8,11-3.3c2.6-6.5-7-4.4-7.4-10.4c7-1.5,13.6-3.7,13.7,7.6
	c0,3.7,1.4,6.5,5.6,6.1c11.6-1,9.2,7.2,9.3,13.8C86,306.8,86.1,308.9,86.3,311.1z"/>
<path class="st87" d="M19,196.1c18.9-0.5,20.3-0.7,18.4-18.2c-1.7-15.4,4.9-18.5,17.6-17.1c3.7,1.6,10.5-1.5,10.4,5.8
	c-0.1,6.1-5.6,5.1-9.4,4.9c-7-0.4-8.5,3.5-8.4,9.4c0.2,5.5,0.1,11-0.1,16.5c-0.2,3.4,1.4,7.8-4.1,8.7c-4.1,0.7-4.5-2.7-6.4-5.3
	c-5.7-7.8-2.8,2.3-4.8,2.7C28,200.7,21.6,201.9,19,196.1z"/>
<path class="st87" d="M-22.3,24.8c0-10.2-0.2-20.3,0.1-30.5c0.1-5-2.4-13,6.3-12.5c7.5,0.4,18.2-6.7,21.8,6.8
	C-12.6-9.6-14.7,2.6-11.7,17.3c1,4.9-4.8,9-0.9,13.8c0,0-0.2-0.4-0.2-0.4c1.5-4.4-1.3-3.8-4-3.5C-18.6,26.4-20.4,25.6-22.3,24.8z"/>
<path class="st86" d="M302.7,161c3.3,5.2,4.4,10.5-4,9.9c-12.1-0.9-12.1,6.1-11.6,14.5c0.3,4.5-0.1,9.1,0.1,13.7
	c0.4,6.6-3.5,7.5-8.7,7.1c-0.3-11-0.2-22-1.1-32.9c-0.7-8.7,1.4-13,11.1-12c3.1,0.3,10.2,3,8.1-5.7c0,0,0,0.1,0,0.1
	C294.5,162.1,299.3,160.8,302.7,161z"/>
<path class="st86" d="M300.1,41.6c8.5,4.6,6.4,9.8-1.4,9.4c-12.6-0.6-11.8,6.4-11.5,14.5c0.2,5.1,0,10.1,0,15.2
	c0,3.1-0.9,5.5-4.5,5.6c-3.4,0.1-5-1.7-5-5c0-11.5,0-23,0.1-34.5c0-4.3,3-5.1,6.6-5c5.5,0.1,11,0,16.6,0
	C300.9,41.7,300.1,41.6,300.1,41.6z"/>
<path class="st80" d="M150.4,130.5c-9.6-3-8.6-10.9-8.4-18.4c8.7,13,19.5,23.9,32.5,32.6c-6.8,0.1-13.6,0.4-19.7-3.5
	C155.6,136.8,156.6,132.2,150.4,130.5z"/>
<path class="st0" d="M54.5,144.7c-6.4-1.2-13.9,2.8-19-4.2c1.2-6.2-0.7-10-7.7-9.9c-0.1-1.5-0.2-2.9-0.3-4.4
	c7.2-0.8,14.4-1.7,13.6,9.3C40.5,145.9,53.3,136.8,54.5,144.7z"/>
<path class="st77" d="M236.8,220.5c-0.1-1.7-0.2-3.5-0.4-5.2c13-2.5,15.8,4.6,14.8,15.5c-2.2,0-4.4-0.1-6.6-0.1
	C246.6,223.7,241.9,221.9,236.8,220.5z"/>
<path class="st80" d="M35.6,12c0.1-1.7,0.3-3.3,0.4-5c0.9,0,2.3-0.3,2.5,0c7.1,12.5,7.3,12.8,16.2,17.8c-7.1,0.9-13.3-1.1-18.7-5.6
	C35.9,16.8,35.8,14.4,35.6,12z"/>
<path class="st0" d="M267.4,130.5c-0.1-1.5-0.2-3-0.3-4.4c11-2.2,15.4,2.3,13.2,13.2c0,0-0.9-0.1-0.9-0.1
	C276.9,134.3,273.3,130.9,267.4,130.5z"/>
<path class="st0" d="M16.8,175.8c-0.1,1.8-0.2,3.6-0.2,5.4c-1,0.3-1.9,0.5-2.9,0.8c-11.5,1-12-6.5-11.5-14.8
	c1.7-0.1,3.4-0.2,5.1-0.2C7.1,173.4,9.4,177.3,16.8,175.8z"/>
<path class="st78" d="M294.6,264.6c-4.6-1.9-12.3,4-13.9-5.4C284.5,263.2,292.2,257.1,294.6,264.6z"/>
<path class="st77" d="M55,264.7c-4.5-2.4-12.3,3.8-14.1-5.6C44.7,263.4,52.9,256.2,55,264.7z"/>
<path class="st80" d="M27.4,6.4c-10.8-1.2-2.9-9.6-5.3-14C30.4-5.4,22.3,3,27.4,6.4z"/>
<path class="st80" d="M174.4,24.9c-4.5-2.3-12.6,5.3-14-5.2C164.3,23.6,171.8,17.7,174.4,24.9z"/>
<path class="st78" d="M266.1,245.3c-6.2-3-3.4-8.9-4.3-13.6C269.1,234.4,264,241,266.1,245.3z"/>
<path class="st87" d="M13.6,182c1-0.3,1.9-0.5,2.9-0.8c0.4,4.7,0.9,9.4,1.3,14.2C11.8,192.4,15,186.5,13.6,182z"/>
<path class="st0" d="M26.1,125.5c-6-3.1-3.2-8.8-3.9-13.4C28.8,115,24,121.3,26.1,125.5z"/>
<path class="st0" d="M294.4,144.7c-4.7-0.7-10.4,2.1-13.5-4C285.2,142.8,291.6,137.9,294.4,144.7z"/>
<path class="st80" d="M146.1,5.7c-6.4-3-3.3-8.8-4.1-13.5C148.9-5,143.8,1.5,146.1,5.7z"/>
<path class="st0" d="M266,125.5c-6.4-2.9-3.4-8.8-4.1-13.4C268.8,114.9,263.6,121.4,266,125.5z"/>
<path class="st77" d="M220.8,200.1c-1.7-0.4-3.5-0.8-5.2-1.1c-0.5-0.6-0.5-1.2-0.1-1.8c0.6-3.4,1.2-6.8,1.7-10.3
	C224.6,189.6,219.3,195.7,220.8,200.1z"/>
<path class="st79" d="M284.2,91.7c4.6,0,5.6,1.8,2.9,5.6C286.2,95.4,285.2,93.5,284.2,91.7z"/>
<path class="st80" d="M155.3,11.7c0.2-1.7,0.4-3.3,0.6-5c3.6-0.7,4.9,0.7,3.9,4.3c-1.5,0.2-3.1,0.4-4.6,0.6L155.3,11.7z"/>
<path class="st77" d="M27,245.3c-4.2-0.9-5.4-2.7-1.8-6C25.7,241.4,26.3,243.4,27,245.3z"/>
<path class="st0" d="M198.1,253.4c0.8,0.8,1.6,1.6,2.5,2.4C198.5,256.2,197.8,255.3,198.1,253.4z"/>
<path class="st78" d="M267.4,250.5c0.3-1.5,0.6-2.9,0.9-4.4c0,0,1.2,0.1,1.2,0.1c0.2,1.4,0.4,2.9,0.6,4.3
	C269.3,250.5,268.4,250.5,267.4,250.5z"/>
<path class="st87" d="M245-16.9c-0.2,2.6-0.3,5.2-0.5,7.8c-15.3-1.9-19,6-16.8,19.4c0.5,3.1,0,6.4,0.1,9.7c0.1,3.8-1.3,6.4-5.5,6.2
	c-3.2-0.1-5-1.9-5-5.3c0-11.1,0-22.1,0-33.2c0-4.8,3-6.4,7.2-6.3C231.4-18.5,238.4-20.3,245-16.9z"/>
<path class="st86" d="M247.5,33.7c0-2.8,0-5.5,0-8.3c0-12.1,14.3-19.8,25.2-13.7c1.9,1,2.5,2.5,2.5,4.4c0.1,3.4-1.9,5.6-5,5.2
	c-13.7-2.1-12.8,6.5-13.4,15.9c-0.4,6.1,6,17.7-5,17.7c-8.4,0-2.5-11.2-4.2-17.2C247.2,36.6,247.5,35.1,247.5,33.7
	C247.5,33.7,247.5,33.7,247.5,33.7z"/>
<path class="st87" d="M124.9,111.1c-14.5-2.1-19.1,4.6-17.1,18.3c0.8,5.3-0.2,10.8-0.4,16.2c-6.7,1.6-10.7,0.1-10.1-7.9
	c0.4-6.4,0-12.8,0-19.2c0-16.5,7.8-22,23.6-17.2C127.1,103,124.8,107.3,124.9,111.1z"/>
<path class="st87" d="M67.4,93.4c0-2.3,0-4.6,0-6.9c0.1-13.2,13.5-21,25-14.2c1.3,0.8,2.4,2.8,2.6,4.4c0.4,2.6-1.5,4.8-4,4.4
	c-14.6-2.1-13,7.5-13.4,17c-0.3,6.1,4.4,17.3-4.3,17.4c-10.7,0.1-3.8-11.6-5.8-17.9C67,96.2,67.4,94.7,67.4,93.4z"/>
<path class="st87" d="M37.5,75c0.1-5,1-10.2,0.1-15c-2.6-14.9,3.2-21,18-19c3.4,1.6,9.4-1.2,9.7,5.2c0.3,6.6-5.5,5.3-9.1,5.3
	c-6.7,0-9,3-8.6,9.3c0.3,4.6,0.4,9.3-0.1,13.8c-0.5,4.3,3,11.7-5.4,11.4C34.9,85.7,39.2,78.6,37.5,75z"/>
<path class="st87" d="M158.7,86.3c-2.6-8.5,0.2-17.4-1.4-25.9c-2.7-14.7,2.4-21.3,17.5-19.5c3.5,1.9,10.7-1.9,10.5,5.7
	c-0.2,6.1-5.7,5.1-9.6,5c-7.1-0.3-8.6,3.6-8.3,9.6c0.2,6-0.2,12,0.1,18C167.8,85.7,164.2,87,158.7,86.3z"/>
<path class="st87" d="M244.9,111.1c-14.7-2.3-18.9,4.6-17.3,18.4c0.7,5.5,2.2,11.9-2.1,17.2c-3.9-0.8-8.5-0.4-8.4-6.6
	c0.2-11-1.1-22.1,0.4-32.9c1.6-11.4,11.6-4.7,17.8-6C243,99.6,246.7,103.1,244.9,111.1z"/>
<path class="st87" d="M187.2,92.8c0-2.3-0.3-4.7,0.1-6.9c0.7-4.7-2.9-11.5,3.5-13.4c6.9-2.1,14.6-1.8,21.8,0.2
	c1.1,0.3,2,2.9,2.1,4.5c0.2,2.8-2,4.6-4.3,4.2c-14.1-2.4-12.4,6.8-13.2,15.9c-0.5,6.3,5.6,18.1-4.8,18.1c-10.2,0-3.2-12-5.2-18.3
	C186.9,95.7,187.2,94.2,187.2,92.8z"/>
<path class="st87" d="M236.8,220.5c5.1,1.5,9.8,3.3,7.8,10.2c-15.2-2.1-19.1,5.7-16.8,19.1c0.3,1.8,0.2,3.7,0,5.5
	c-0.5,4.1,2.4,10.2-5.1,10.5c-7.4,0.3-4.5-6.5-6.1-10.2c0.2-5,0.5-10,0.5-15C217.2,221.1,217.2,221.1,236.8,220.5z"/>
<path class="st86" d="M267.4,250.5c0.9,0,1.9,0,2.8,0c7.6,3.6,8.3,10-0.1,10c-15.1,0-12.2,9.1-13.1,18c-0.6,5.8,5.2,16.6-5.4,16.4
	c-7.8-0.2-2.6-10.5-4-16.1c-0.6-2.2-0.1-4.6-0.1-6.9C247.4,251.9,247.4,251.9,267.4,250.5z"/>
<path class="st87" d="M-22.4,264.5c0-10.2-0.2-20.4,0.1-30.5c0.1-5-2.4-13.2,6.3-12.3c7.4,0.7,18.3-7.3,21.9,6.7
	c-18.9,1.5-19.7,14.1-17.8,28.6C-10.8,265.3-14.6,267.9-22.4,264.5z"/>
<path class="st86" d="M7.8,273.3c0-2.3,0-4.6,0-7c0.2-13.7,11.7-20.6,24.5-14.9c2.6,1.1,3.4,2.8,3.2,5.4c-0.3,2.6-1.8,4.8-4.4,4.3
	c-13.6-2.2-13.2,6.2-13.6,15.8c-0.3,6.2,5.6,17.9-5.4,17.8c-8.4-0.1-2.7-11.3-4.2-17.3C7.5,276.1,7.8,274.6,7.8,273.3z"/>
<path class="st87" d="M108.3,263.8c-7.5,3.6-11.3,1.6-10.9-7.1c0.2-6.4,0.1-12.9,0.1-19.3c0-15.1,10.5-21.8,24.6-15.9
	c5,2.1,2.6,6.1,3,9.4c-13.6-1.8-19.5,3.7-17,17.7C108.8,253.5,108.2,258.7,108.3,263.8z"/>
<path class="st86" d="M141.3,251c3.7,0,6,0,8.3,0c3.2,0,5.3,1.2,5.6,4.6c0.3,4.1-2,6.3-5.8,5.7c-11.9-1.8-12.6,5.3-11.9,14.1
	c0.4,5-0.1,10.1,0,15.2c0,3.4-1.6,5.2-4.8,5.3c-3.4,0.1-4.9-2-4.9-5.2c0-11.5-0.8-23.1,0.4-34.5C129,246.4,138.1,253.8,141.3,251z"
	/>
<path class="st86" d="M267.4,130.5c5.8,0.4,9.5,3.8,12.1,8.7c-1.3,0.4-2.6,1.2-3.9,1.1c-17.7-1.6-20.5,8.7-18.4,23
	c0.4,2.7,0.2,5.5,0,8.3c-0.2,3.7-2.9,4.3-5.9,4.2c-2.8-0.1-3.8-2-3.8-4.6c0-11.5-0.1-23,0-34.5c0-4.1,2.4-5.5,6.2-5.5
	C258.3,131.2,262.9,130.8,267.4,130.5z"/>
<path class="st87" d="M107.4,25.6c-7,1.8-10.5-0.3-10.1-8.1c0.4-7.4-0.3-14.8,0.2-22.2c0.3-4.6-3-11.6,3.6-13.2
	c7.4-1.8,15.6-2.7,22.9,1.3c2.6,1.4,1.1,5.1,0.9,7.8c-14.4-2-19,4.7-17.1,18.2C108.6,14.7,107.6,20.2,107.4,25.6z"/>
<path class="st86" d="M155.2,11.6c0.5,5.2,1.3,11-6.8,10c-10.3-1.3-11.4,4.4-10.8,12.5c0.4,5,0.1,10.1,0,15.2
	c-0.1,3.4-0.6,6.5-5.1,6.6c-4.9,0.1-4.8-3.2-4.8-6.5c0-3.7-0.1-7.4-0.1-11.1c0.1-27.8,0.1-27.8,27.7-26.7
	C155.3,11.7,155.2,11.6,155.2,11.6z"/>
<path class="st86" d="M150.4,130.5c6.2,1.6,5.2,6.2,4.4,10.7c-13.7-2.1-19.8,3.3-17.3,17.5c0.6,3.1,0.2,6.5,0.1,9.7
	c-0.1,3.8,0,7.8-5.6,7.4c-4.8-0.3-4.4-3.7-4.4-7c0-4.2,0-8.3,0-12.5C127.6,132.2,127.6,132.2,150.4,130.5z"/>
<path class="st87" d="M175.5,160.8c3.8,1.4,10.5-1,9.8,6.4c-0.5,5-5.2,4.5-8.7,4.2c-7.7-0.6-9.3,3.6-9.1,10.1
	c0.2,5.9-0.1,11.9,0,17.8c0.2,6.6-3.7,7.5-9,6.8c-0.3-8.7,0.3-17.5-1.1-26C155.1,165.2,160.4,158.7,175.5,160.8z"/>
<path class="st86" d="M35.6,12c0.1,2.4,0.2,4.8,0.4,7.2c-0.8,0.5-1.6,1.5-2.3,1.4c-14.2-0.8-18.1,6.7-16,19.3c0.4,2.2,0.2,4.6,0,6.9
	c-0.2,3.9,1.1,9.2-5.4,8.9c-6.9-0.2-4.1-5.9-4.5-9.4c-0.4-3.2-0.1-6.4-0.1-9.7C7.8,9.8,7.8,9.8,35.6,12z"/>
<path class="st87" d="M66.7,225.5c0.3-4.5,0.7-9.1,0.7-13.6c0.3-19.7,0.2-19.7,18.9-21.2c3.5,1.3,9.2-0.1,8.7,6.3
	c-0.5,5.5-5.3,4.4-8.6,4.1c-8.3-0.8-9,3.9-8.7,10.2c0.2,4.6,0.4,9.2,0,13.8c-0.3,4.1,2.5,10.5-4.8,10.8
	C65.9,236.2,68.4,229.2,66.7,225.5z"/>
<path class="st86" d="M215.4,197.1c-0.4,0.7-0.3,1.3,0.1,1.8c-18.5-0.3-20.2,11.1-18.1,25.5c0.5,3.6-0.2,7.3-0.3,10.9
	c-6.3,1.6-9.8-0.1-9.6-7.3c0.2-7.4-0.4-14.8,0.2-22.2c0.4-4.9-3.6-13.3,4.5-13.7C199.7,191.8,209.7,186.2,215.4,197.1z"/>
<path class="st87" d="M5.1,111c-14.5-2.1-18.8,4.7-17.1,18.4c0.7,5.5,2.2,11.8-2.1,17c-6.3,0-8.9-2.9-8.5-9.4
	c0.5-7.3-0.2-14.7,0.3-22.1c0.3-4.6-2.8-11.5,3.8-13.2c7-1.8,14.7-2.2,21.7,0.5C6.9,103.8,5.1,108,5.1,111z"/>
<path class="st86" d="M16.8,175.8c-7.3,1.5-9.6-2.4-9.5-8.9c0.2-4.6,0.5-9.2,0.5-13.7c0-21.2,0-21.2,20-22.6c7-0.1,8.9,3.7,7.7,9.9
	c-15-1.3-20.4,5.6-18,20.2C18.3,165.6,17.1,170.8,16.8,175.8z"/>
</svg>
