<?xml version="1.0" encoding="utf-8"?>
<!-- Generator: Adobe Illustrator 24.0.2, SVG Export Plug-In . SVG Version: 6.00 Build 0)  -->
<svg version="1.1" id="Capa_1" xmlns="http://www.w3.org/2000/svg" xmlns:xlink="http://www.w3.org/1999/xlink" x="0px" y="0px"
	 viewBox="0 0 288 288" style="enable-background:new 0 0 288 288;" xml:space="preserve">
<style type="text/css">
	.st0{fill:#2D2D2D;}
	.st1{fill:#002530;}
	.st2{fill:#050523;}
	.st3{fill:#707C84;}
	.st4{fill:#E9E4DE;}
	.st5{fill:#EE3133;}
	.st6{fill:#FD99AF;}
	.st7{fill:#C4C2C0;}
	.st8{fill:#F2D8A3;}
	.st9{fill:#EFCB84;}
	.st10{fill:#EF692F;}
	.st11{fill:#4B343F;}
	.st12{fill:#16B198;}
	.st13{fill:#E72D52;}
	.st14{fill:#7B536F;}
	.st15{fill:#8F4CA9;}
	.st16{fill:#E2C29F;}
	.st17{fill:#9F4687;}
	.st18{fill:#A9A0AF;}
	.st19{fill:#CC4743;}
	.st20{fill:#8677A9;}
	.st21{fill:#8E5D8E;}
	.st22{fill:#DF615C;}
	.st23{fill:#9E4742;}
	.st24{fill:#D34861;}
	.st25{fill:#B75B6D;}
	.st26{fill:#DF6482;}
	.st27{fill:#FFFFFF;}
	.st28{fill:#829CA2;}
	.st29{fill:#F2B991;}
	.st30{fill:#E56759;}
	.st31{fill:#F5F3EE;}
	.st32{fill:#DC4B3F;}
	.st33{fill:#1D5A7D;}
	.st34{fill:#459492;}
	.st35{fill:#F0A349;}
	.st36{fill:#E4EFEB;}
	.st37{fill:#E17467;}
	.st38{fill:#B6BFBD;}
	.st39{fill:#F0E2D6;}
	.st40{fill:#396D89;}
	.st41{fill:#201A21;}
	.st42{fill:#48505D;}
	.st43{fill:#0B0707;}
	.st44{fill:#D30034;}
	.st45{fill:#6C919B;}
	.st46{fill:#F68C4A;}
	.st47{fill:#E5CFCD;}
	.st48{fill:#385B4D;}
	.st49{fill:#F14206;}
	.st50{fill:#BAD2D8;}
	.st51{fill:#F70059;}
	.st52{fill:#AA000C;}
	.st53{fill:#D8B5B2;}
	.st54{fill:#E08143;}
	.st55{fill:#F2E9E9;}
	.st56{fill:#F4D085;}
	.st57{fill:#23586A;}
	.st58{fill:#17241F;}
	.st59{fill:#EAE8E1;}
	.st60{fill:#253C4F;}
	.st61{fill:#F7FCFD;}
	.st62{fill:#0E151F;}
	.st63{fill:#8D897D;}
	.st64{fill:#BDB6AA;}
	.st65{fill:#EDE1AF;}
	.st66{fill:#DF786F;}
	.st67{fill:#E8C46F;}
	.st68{fill:#B0CEAD;}
	.st69{fill:#9FC4AF;}
	.st70{fill:#B8C6A0;}
	.st71{fill:#EBEC80;}
	.st72{fill:#DD7AB2;}
	.st73{fill:#D6D2D3;}
	.st74{fill:#69BCC5;}
	.st75{fill:#D0CBC1;}
	.st76{fill:#242424;}
	.st77{fill:#525252;}
	.st78{fill:#3D3D3D;}
	.st79{fill:#6B6B6B;}
	.st80{fill:#303030;}
	.st81{fill:#8A8A8A;}
	.st82{fill:#282828;}
	.st83{fill:#E6E6E6;}
	.st84{fill:#E8E8E8;}
	.st85{fill:#A9A9A9;}
	.st86{fill:#D9D9D9;}
	.st87{fill:#CACACA;}
	.st88{fill:#9E9E9E;}
	.st89{fill:none;}
	.st90{fill:#4A4744;}
	.st91{fill:#F0BA45;}
	.st92{fill:#F1D34E;}
	.st93{fill:none;stroke:#00A591;stroke-miterlimit:10;}
	.st94{fill:#EEEEEE;}
	.st95{fill:#FBFBFB;}
	.st96{fill:#F8F2DD;}
	.st97{fill:#8DB2A6;}
	.st98{fill:#ED8C58;}
	.st99{fill:#F0C153;}
	.st100{fill:#C2B146;}
	.st101{fill:#8E6E51;}
	.st102{fill:#1C1D4C;}
	.st103{fill:#111224;}
	.st104{fill:#26687B;}
	.st105{fill:#F8494A;}
	.st106{fill:#81819B;}
	.st107{fill:#80809B;}
	.st108{fill:#0AC6BB;}
	.st109{fill:#0BC5B9;}
	.st110{fill:#686888;}
	.st111{fill:#0BC5BA;}
	.st112{fill:#FEFEFE;}
	.st113{fill:#F8F5CE;}
	.st114{fill:#EF484B;}
	.st115{fill:#F94A4A;}
	.st116{fill:#F9F6CE;}
	.st117{fill:#DFE0E3;}
	.st118{fill:#04121D;}
	.st119{fill:#6693AB;}
	.st120{fill:#89BCD7;}
	.st121{fill:#FAF509;}
	.st122{fill:#0B2E41;}
	.st123{fill:#427491;}
	.st124{fill:#2A5973;}
	.st125{fill:#184259;}
	.st126{fill:#BCE4F7;}
	.st127{fill:#02111C;}
	.st128{fill:#FCF704;}
	.st129{fill:#F4F115;}
	.st130{fill:#DFE23F;}
	.st131{fill:#BCE6FA;}
	.st132{fill:#031D2B;}
	.st133{fill:#81851A;}
	.st134{fill:#1E1E1E;}
	.st135{fill:#F5142E;}
	.st136{fill:#05ACC0;}
	.st137{fill:#F87240;}
	.st138{fill:#FA723F;}
	.st139{fill:#F67240;}
	.st140{fill:#E37547;}
	.st141{fill:#07ADC0;}
	.st142{fill:#450D0D;}
	.st143{fill:#F57240;}
	.st144{fill:#440D0D;}
	.st145{fill:#470D0D;}
	.st146{fill:#EBECCC;}
	.st147{fill:#E9EACA;}
	.st148{fill:#00ABBF;}
	.st149{fill:#F6FAD9;}
	.st150{fill:#CBC3AC;}
	.st151{fill:#E2615D;}
	.st152{fill:#FAFAF8;}
	.st153{fill:#E8E4DA;}
	.st154{fill:#123057;}
	.st155{fill:#F4D16B;}
	.st156{fill:none;stroke:#F1D34E;stroke-miterlimit:10;}
	.st157{fill:#E3834C;}
	.st158{fill:#E9A779;}
	.st159{fill:#ECB74A;}
	.st160{fill:#00A591;}
</style>
<path class="st77" d="M44.8,265c6.5-0.9,8.1,2.3,8.3,8.1c0.2,6.8-3.2,7.5-8.6,7.6c-5.8,0.2-7.5-2-7.3-7.6
	C37.2,267.7,38.1,263.8,44.8,265z"/>
<path class="st77" d="M101.7,265c7.3-1,7,3.7,7.3,8.8c0.5,7.5-4.4,6.7-9,7c-7.2,0.5-5.5-4.6-5.8-8.7
	C93.7,266.3,96.2,264.1,101.7,265z"/>
<path class="st77" d="M73.4,195.1c-5,0.7-8.2,0-7.7-6.5c0.4-5.1,0.9-8.1,7-7.8c5,0.2,8.1,0.9,7.8,7
	C80.3,193.1,79.4,196.3,73.4,195.1z"/>
<path class="st77" d="M206.5,272.4c-0.7-7,3.4-7.5,8.7-7.6c7.4-0.2,6.5,4.5,6.9,9.2c0.5,6.5-3.5,6.5-8.2,6.7
	C207.4,281.1,205.7,277.8,206.5,272.4z"/>
<path class="st77" d="M165,216.4c1.1,5.6-1.4,7.5-7,7.5c-5.5,0-7.7-1.5-7.5-7.3c0.1-5.3,1.4-7.9,7.3-7.7
	C163.1,209,166,210.5,165,216.4z"/>
<path class="st77" d="M214.8,209c5.8-0.7,7.2,2.1,7.2,7.6c0,5.9-2.5,7.2-7.8,7.2c-5.6,0-7.5-2-7.4-7.7
	C207,210.4,209.3,208.2,214.8,209z"/>
<path class="st77" d="M80.3,73.9c0.8,5.9-0.9,8.7-6.9,8.7c-5.4,0-7.8-1.6-7.8-7.4c0-5.3,1-8.1,7-7.8C77.6,67.6,81.7,67.9,80.3,73.9z
	"/>
<path class="st77" d="M270.4,223.5c-6.3,1.2-6.8-2.6-7-7.6c-0.2-6.2,3-6.9,8.1-7.1c6.2-0.2,7,3,7.2,8
	C278.9,222.9,275.7,224.2,270.4,223.5z"/>
<path class="st77" d="M157.7,280.5c-6.6,1.1-7.7-2.5-7.7-8.2c0-5.7,2.3-7.3,7.7-7.5c6.8-0.3,7.5,3.4,7.6,8.7
	C165.6,279.1,163.4,281.5,157.7,280.5z"/>
<path class="st77" d="M108.3,216c0.7,5.5-0.8,7.9-6.4,7.8c-5.2-0.1-8.1-0.9-7.9-7.1c0.2-5.2,1-8.1,7.1-7.9
	C106.8,208.9,109.5,210.7,108.3,216z"/>
<path class="st77" d="M72.4,11.1c6.5-0.9,8.2,2,8.2,7.5c0,5.6-2.1,7.3-7.7,7.6c-6.4,0.3-7-2.6-7.1-7.7C65.7,12.9,66.8,9.7,72.4,11.1
	z"/>
<path class="st77" d="M80.3,245.5c1.1,7-3.9,6.1-8.3,6.5c-7,0.5-5.9-4.3-6.2-8.6c-0.4-6.2,3.5-5.8,7.8-6
	C79.6,237.1,81.2,240.1,80.3,245.5z"/>
<path class="st77" d="M129.9,251.9c-4.9,0.7-7.7-0.7-7.4-6.2c0.2-4.5-0.4-8.8,6.4-8.6c5,0.2,8.4,0.9,8.2,7.1
	C136.9,249.2,136,252.9,129.9,251.9z"/>
<path class="st78" d="M207.3,46.7c-1-6.1,2.2-7.5,7.5-7.5c4.8,0.1,7.1,1.7,7.1,7c0,5.2-1.3,7.9-7.2,7.9
	C209.1,54.1,206.4,52.4,207.3,46.7z"/>
<path class="st77" d="M278.6,46.7c0.5,5.6-2.1,7.6-7.6,7.6c-5.7,0-7.5-2.2-7.6-7.7c-0.1-5.7,2.4-7.5,7.8-7.6
	C276.7,39,279.2,41.1,278.6,46.7z"/>
<path class="st79" d="M185.8,67.4c5.2-0.7,8.1,0.7,8,6.9c0,5.7-1.2,8.8-7.8,8.6c-5.7-0.1-7.6-2.3-7.6-7.8
	C178.5,69.9,179.7,66.6,185.8,67.4z"/>
<path class="st78" d="M249.7,74.7c1.1,6.3-2.4,7.5-7.6,7.6c-5.2,0-6.9-2.2-6.8-7.3c0.1-4.8,1.3-7.4,6.7-7.4
	C247.3,67.6,250.8,68.6,249.7,74.7z"/>
<path class="st77" d="M24.6,272.1c-0.6,4.9-2.9,7.9-7.4,8.4c-4.8,0.5-7.7-2.3-8.2-6.7c-0.6-5.2,2.7-8.5,7.5-8.7
	C20.9,264.9,23.2,268.6,24.6,272.1z"/>
<path class="st78" d="M263.3,273.1c-0.9-5.9,1.1-8.5,7.5-8.4c6,0.1,8.1,1.9,8.2,8c0,6.1-1.6,8.2-7.9,8
	C265.6,280.5,261.8,279.8,263.3,273.1z"/>
<path class="st77" d="M185.4,11.1c6.5-1.1,8.4,1.6,8.3,7.2c-0.1,5-0.8,8-7.2,7.7c-5.5-0.2-7.8-1.7-7.6-7.4
	C179,13.7,179.4,9.5,185.4,11.1z"/>
<path class="st77" d="M23.9,246.2c0.2,6.9-5,5.5-9.1,5.6c-7.1,0.2-5.5-5.2-5.6-9.2c-0.1-6.2,4.6-5.2,8.5-5.4
	C24.2,237,24.3,241.4,23.9,246.2z"/>
<path class="st77" d="M52.2,102.9c0.8,5.9-1.9,8-7.5,7.9c-4.9,0-7.4-1.5-7.4-6.8c0-5,0.8-8.3,7.1-8.2
	C49.7,95.9,53.1,96.9,52.2,102.9z"/>
<path class="st77" d="M193.5,246c0.5,7.6-5,5.6-8.9,5.8c-6.4,0.4-5.3-4.3-5.6-8.2c-0.6-6.9,4.2-6.2,8.6-6.4
	C194.4,237,193.6,241.8,193.5,246z"/>
<path class="st77" d="M52.2,216.5c1,6.5-2.8,7-7.8,7.2c-6,0.2-7-2.7-7.1-7.8c-0.1-6.1,2.9-7,7.9-7.1
	C51.2,208.6,52.9,211.5,52.2,216.5z"/>
<path class="st78" d="M270.4,110.4c-5.3,0.6-6.7-2.1-6.8-7.1c-0.1-5.9,2.4-7.4,7.9-7.4c5.3,0.1,6.9,2.4,7,7.3
	C278.6,109,275.9,111.1,270.4,110.4z"/>
<path class="st77" d="M23.9,18.4c1,5.9-1.8,7.5-7.2,7.6C11.1,26.2,9,24.1,9,18.6c0-5.4,1.7-7.8,7.5-7.6C21.8,11,24.7,12.7,23.9,18.4
	z"/>
<path class="st78" d="M249.7,18c0.9,6.6-2.4,7.8-7.7,7.9c-5.5,0-6.8-2.5-6.8-7.4c0-4.8,1.2-7.6,6.8-7.3
	C247,11.3,251.1,11.9,249.7,18z"/>
<path class="st77" d="M165.1,46.9c1,5.8-1.9,7.4-7.3,7.5c-5.8,0.1-7.4-2.6-7.4-7.8c0-5.4,2.2-7.6,7.7-7.6
	C163.8,39,165.9,41.4,165.1,46.9z"/>
<path class="st77" d="M108.4,160c1.3,6.5-2.7,6.8-7.6,7c-5.4,0.3-6.7-1.8-6.7-6.9c0.1-5.2,1-7.9,7.2-7.8
	C106.9,152.5,109.4,154.2,108.4,160z"/>
<path class="st77" d="M23.9,131.4c0.7,5.7-1.7,7.9-7.5,7.6c-4.6-0.3-7.6-1.1-7.4-6.7c0.2-5,0.9-8.3,7.2-8.1
	C21.5,124.2,24.6,125.4,23.9,131.4z"/>
<path class="st77" d="M46,166.7c-5.8,0.9-8.8-0.4-8.6-6.7c0.1-5.4,1.7-7.9,7.5-7.7c4.8,0.2,7.6,1.2,7.4,6.7
	C52.2,163.9,52.3,168.4,46,166.7z"/>
<path class="st78" d="M235.5,130.9c-0.8-6.5,3.4-6.5,8.2-6.6c5.9-0.2,6,3.1,6.3,7.6c0.4,6.7-3.5,6.7-8.2,6.8
	C236.3,138.8,234.8,135.9,235.5,130.9z"/>
<path class="st77" d="M129.7,67.6c5.8-0.7,7.3,2.3,7.4,7.7c0.1,6.1-2.9,7.1-8,7.3c-6.7,0.3-6.4-3.9-6.6-8.5
	C122.2,68.7,124.7,66.9,129.7,67.6z"/>
<path class="st78" d="M23.7,74.6c0.8,5.5-1.6,7.8-7.3,7.7c-5-0.1-7.1-1.7-7.2-7c-0.1-5.7,1.6-7.9,7.5-7.7
	C21.6,67.7,24.4,69.1,23.7,74.6z"/>
<path class="st77" d="M235.3,244.6c-0.8-6.4,2.9-7.3,8-7.2c5,0.1,7,1.9,6.9,7.1c0,5.5-1.8,7.6-7.6,7.6
	C237,251.9,234.6,249.9,235.3,244.6z"/>
<path class="st80" d="M185.6,124.6c4.9-0.5,8,0.3,7.8,6.1c-0.1,5-0.8,8.3-6.9,7.9c-4.3-0.3-7.7-0.4-7.3-6.3
	C179.5,127.5,179.4,123.2,185.6,124.6z"/>
<path class="st80" d="M221.4,102.5c0.6,5.1-0.4,8.1-6.1,7.9c-4.7-0.2-8.1-0.5-8-6.9c0.1-5.7,2-7.7,7.4-7.5
	C219.4,96.1,222.7,97.3,221.4,102.5z"/>
<path class="st78" d="M79.9,131.3c1.3,7.7-3.5,7-7.9,7.3c-6.1,0.5-5.9-3.3-6.1-7.6c-0.2-5.4,2.2-6.7,7.1-6.7
	C78.8,124.2,81.4,126,79.9,131.3z"/>
<path class="st77" d="M157.9,152.5c6-1,7.1,2.2,7.3,7.6c0.2,6.4-3,6.8-8,7c-5.4,0.2-6.9-2-6.9-7C150.4,154.7,152,151.6,157.9,152.5z
	"/>
<path class="st77" d="M278.5,159.3c0.9,5.6-1.4,8-7.2,7.6c-4.3-0.3-7.9,0-7.7-6.2c0.1-5,0.4-8.6,6.8-8.4
	C275.1,152.6,279.4,152.7,278.5,159.3z"/>
<path class="st77" d="M129.8,11c6.3-0.8,7,3,7.2,8c0.3,6.4-3.2,6.8-8.1,7c-6,0.3-6.3-3-6.4-7.5C122.3,13.2,123.7,9.9,129.8,11z"/>
<path class="st77" d="M15.6,181.1c6.4-1,8.4,1.6,8.5,7.2c0,5.1-1.6,7.2-6.9,7c-4.8-0.1-8.5,0-8.2-6.7
	C9.3,183.4,9.9,179.7,15.6,181.1z"/>
<path class="st77" d="M122.7,187.8c-0.6-7.9,4.3-6.9,8.6-6.8c7,0,5.5,5.1,5.6,9.2c0.1,7.6-5.8,4.6-9.4,4.9
	C120.5,195.8,123.3,190.1,122.7,187.8z"/>
<path class="st77" d="M242.5,195.2c-5.9,1-7.5-2-7.4-7.5c0.1-5.3,2.4-6.8,7.3-6.9c5.3-0.1,7.9,1.2,7.9,7.3
	C250.4,194.2,247.9,195.8,242.5,195.2z"/>
<path class="st78" d="M214.5,152.7c6.1-1,7.2,2.3,7.3,7.6c0.2,5.8-2.8,6.3-7.4,6.4c-4.7,0-7.4-0.5-7.3-6.4
	C207.2,154.8,208.6,151.9,214.5,152.7z"/>
<path class="st78" d="M129.7,138.4c-5.8,1.1-7-1.7-7.2-6.6c-0.1-5.5,1.5-7.5,7.3-7.5c6.3,0,6.9,3.1,7,8.1
	C137,137.9,134.2,139.2,129.7,138.4z"/>
<path class="st78" d="M108.3,103.5c1.2,6.5-3.1,6.8-7.8,7c-5.8,0.3-6.1-3.1-6.2-7.6c-0.1-5,1.7-7.1,6.8-7.1
	C106.6,95.9,109.3,97.7,108.3,103.5z"/>
<path class="st79" d="M242.3,39.2c4.3,0.5,7.6,2.4,7.7,7.3c0.1,4.8-2.8,7.4-7.3,7.6c-4.2,0.2-6.7-2.7-7.2-6.6
	C234.9,42.7,238,40.4,242.3,39.2z"/>
<path class="st78" d="M80.4,273.1c-0.5,3.7-2.4,6.8-6.7,7c-4.7,0.2-7.7-2.3-7.8-7.2c-0.1-4.3,2.6-7.2,6.5-7.4
	C77,265.2,79.8,268.1,80.4,273.1z"/>
<path class="st77" d="M129.4,265.2c4,0.6,7.2,2.5,7.3,7.4c0.1,4.7-2.2,7.8-7.1,7.8c-4.2,0.1-6.7-2.4-7.1-6.7
	C122.2,269.1,124.4,266.2,129.4,265.2z"/>
<path class="st77" d="M242.2,223.5c-4.3-0.3-6.5-3.1-6.5-7.1c0-4.1,2.1-7,6.6-7c4.8,0,7.6,2.7,7.3,7.5
	C249.4,221.1,246.6,223.3,242.2,223.5z"/>
<path class="st77" d="M100.9,39.4c6.3-1,7.7,2.1,7.7,7.5c0.1,5.7-2.1,7.5-7.6,7.5c-5.3,0-6.8-2.3-6.8-7.2
	C94.3,42.2,94.7,38.1,100.9,39.4z"/>
<path class="st80" d="M193.2,187.9c1.1,5.7-1.6,7.1-6.6,7.1c-4.7,0-7.4-0.7-7.4-6.4c0-5.6,1.7-7.7,7.5-7.6
	C192,181.1,194,183.1,193.2,187.9z"/>
<path class="st77" d="M249.8,158.8c-0.1,5.1-2.4,7.5-6.6,8c-4.4,0.4-7.1-1.9-7.3-6.1c-0.2-4.5,1.7-7.8,6.9-7.8
	C247.2,152.9,249.1,155.6,249.8,158.8z"/>
<path class="st77" d="M193.4,160.1c-0.5,4.1-2.7,6.6-7,6.7c-4.3,0-7-2.2-7-6.5c-0.1-4.8,2.4-7.6,7.3-7.4
	C191,153.1,192.9,156,193.4,160.1z"/>
<path class="st79" d="M15.8,167c-4.4-0.5-7-3.1-6.5-7.8c0.4-4.8,3.6-6.8,8.2-6.5c4.5,0.3,6.4,3.6,6.4,7.3
	C23.8,164.5,20.8,167,15.8,167z"/>
<path class="st77" d="M158.5,25.6c-4.7,0.1-7.2-2.2-7.5-6.5c-0.3-4.1,1.6-7.3,6-7.6c4.7-0.4,7.9,2.1,7.9,6.9
	C165,22.5,162.4,25,158.5,25.6z"/>
<path class="st79" d="M214.7,25.7c-4.7,0-7.3-2.5-7.4-7.1c-0.1-4.2,2.4-6.8,6.4-7.3c4.7-0.6,7.5,2.3,8,6.7
	C222.3,22.7,219.3,25.1,214.7,25.7z"/>
<path class="st77" d="M271.9,138.6c-4.9-0.3-7.8-2.5-8-6.7c-0.2-4.8,2.9-7.5,7.5-7.4c4.2,0.1,6.7,3.1,6.6,7.2
	C277.9,135.7,275.5,138.4,271.9,138.6z"/>
<path class="st77" d="M193.5,273.7c-0.5,4-3,6.8-7.8,6.6c-4.2-0.2-6.7-2.9-6.8-7c-0.2-4.8,2.7-8,7.1-7.9
	C190.1,265.4,193.6,268,193.5,273.7z"/>
<path class="st77" d="M250.4,273.3c-0.8,4.3-3.3,7.2-7.8,7.1c-4.6-0.1-7.4-3-7.2-7.6c0.2-4.5,3.1-7.6,7.6-7.3
	C247.2,265.6,250,268.5,250.4,273.3z"/>
<path class="st79" d="M16.1,54.2c-4.6-0.5-7.1-3.2-6.9-7.8c0.2-4.1,2.7-6.9,6.8-7c4.7-0.2,7.5,3,7.7,7.3
	C24,51.3,20.8,53.7,16.1,54.2z"/>
<path class="st77" d="M129.3,39.5c4,0.6,7.1,2.2,7.3,6.6c0.2,4.8-2.5,7.8-7.2,7.7c-4-0.1-6.7-2.7-6.7-7.1
	C122.6,42.4,125.2,40.2,129.3,39.5z"/>
<path class="st79" d="M278.5,74.7c-0.4,4.6-2.8,7.4-7.4,7.5c-4.2,0.1-6.8-2.1-7.2-6.3c-0.4-4.6,2.1-7.8,6.6-8.2
	C275,67.2,277.4,70.4,278.5,74.7z"/>
<path class="st79" d="M222,74.8c-0.7,4.5-2.7,7.6-7.5,7.5c-4-0.1-6.9-2.2-7.2-6.5c-0.3-4.7,2.3-7.7,6.8-8
	C218.7,67.5,221.2,70.5,222,74.8z"/>
<path class="st77" d="M165,74.5c-0.2,4.5-2.2,7.2-6.4,7.5c-4.7,0.3-7.6-2.3-7.8-6.9c-0.1-4,2.3-6.9,6.4-7.3
	C162.1,67.4,164.3,70.5,165,74.5z"/>
<path class="st77" d="M101.6,82.1c-4.9-0.4-7.2-2.9-7.2-7.1c-0.1-4.4,2.7-7,6.7-7c4.5,0,7.5,2.8,7.2,7.7
	C108,79.9,105.2,81.9,101.6,82.1z"/>
<path class="st77" d="M270.4,181.1c4.3,0,7.3,2.2,7.6,6.2c0.3,4.5-2.2,7.7-7.1,7.7c-4.3,0.1-6.8-2.6-6.9-6.7
	C263.8,184.2,266.3,181.7,270.4,181.1z"/>
<path class="st77" d="M221.5,245.1c-0.7,4-2.9,6.7-7.2,6.6c-4.9-0.1-7.1-3.3-6.7-7.9c0.4-4.4,3.3-6.3,7.5-6
	C219.5,238.1,221.4,240.8,221.5,245.1z"/>
<path class="st77" d="M193.4,46.5c-0.2,4-2.3,6.9-6.4,7.3c-4.1,0.4-7.1-1.7-7.6-6c-0.6-4.8,1.9-7.9,6.7-8
	C190,39.6,192.8,42,193.4,46.5z"/>
<path class="st77" d="M278.2,244c-0.1,4.3-2.3,7-6.3,7.6c-4.8,0.6-7.8-2.3-7.9-6.8c-0.1-4,2.3-6.9,6.7-7
	C274.9,237.7,277.5,239.8,278.2,244z"/>
<path class="st77" d="M136.7,160.2c-0.3,4.3-2.8,6.3-7,6.5c-4.5,0.2-6.7-2.3-6.8-6.6c-0.1-4.8,2.4-7.5,7.3-7.3
	C134.5,153.1,136.3,156,136.7,160.2z"/>
<path class="st77" d="M165.1,130.9c0,4.7-2.5,7.1-6.6,7.4c-4.1,0.4-7.1-1.5-7.5-6c-0.4-4.9,2.3-7.7,6.9-7.9
	C162.1,124.3,164.4,127.1,165.1,130.9z"/>
<path class="st77" d="M128.9,96.1c4.4,0.3,7.2,2.2,7.6,6.5c0.4,4.3-1.6,7-5.9,7.4c-4.6,0.4-7.7-1.5-7.8-6.6
	C122.6,98.9,125.4,97,128.9,96.1z"/>
<path class="st77" d="M37.7,17.8c0.6-4.1,3-6.5,7.3-6.3c4.2,0.2,6.8,2.8,6.8,7c-0.1,4.8-3.1,7.4-7.8,7
	C39.7,25.1,37.7,22.1,37.7,17.8z"/>
<path class="st77" d="M9.3,103.6c0.2-4,2.1-7,6.4-7.4c4.7-0.4,7.8,2.2,7.8,7c0.1,4.2-2.5,6.9-6.8,7C12.5,110.3,10,107.9,9.3,103.6z"
	/>
<path class="st79" d="M271.3,25.8c-4.4-0.2-7.2-2.5-7.5-6.6c-0.3-4.6,2.2-7.8,7-8c4.3-0.2,7,2.5,7.4,6.5
	C278.7,22.6,275.7,25.1,271.3,25.8z"/>
<path class="st79" d="M214.8,124.3c4.4,0.5,7,2.9,7,7.1c0,4.8-3.2,7.4-7.8,7.3c-4.2,0-6.8-2.9-6.8-7.1
	C207.3,126.9,210.2,124.5,214.8,124.3z"/>
<path class="st77" d="M51.8,187.6c-0.2,4.3-2.1,7.2-6.4,7.4c-4.8,0.3-7.6-2.5-7.6-7.2c0-4.2,2.8-6.6,7-6.7
	C49.1,181.1,51.3,183.6,51.8,187.6z"/>
<path class="st77" d="M108.2,19.7c-0.4,3.3-2.8,6-6.9,5.8c-4.6-0.2-7.3-3-6.9-7.9c0.4-4.4,3.3-6.4,7.4-6
	C106,11.9,108.3,14.4,108.2,19.7z"/>
<path class="st77" d="M165.1,187.5c-0.3,4.1-2.2,7.1-6.4,7.4c-4.8,0.4-7.7-2.2-7.7-7c0-4.2,2.5-6.8,6.8-6.9
	C162,181,164.3,183.5,165.1,187.5z"/>
<path class="st79" d="M158.4,252.1c-5.2-0.8-7.9-3.3-7.7-8.1c0.2-4.4,3.2-6.6,7.3-6.5c4,0.1,6.9,2.3,7.2,6.8
	C165.4,249.3,162,251.1,158.4,252.1z"/>
<path class="st77" d="M193.3,102.8c-0.1,4.4-2.5,6.8-6.6,7.3c-4.3,0.5-7-1.8-7.4-6c-0.5-4.8,2.2-7.7,6.8-7.8
	C190.2,96.1,192.7,98.8,193.3,102.8z"/>
<path class="st77" d="M242.5,96.1c4.1,0.4,6.8,2.6,7.1,6.7c0.4,4.8-2.5,7.4-7.3,7.3c-4.3-0.1-6.7-2.9-6.7-7
	C235.7,99.1,238.1,96.5,242.5,96.1z"/>
<path class="st77" d="M73.2,39.5c4.2,0.8,6.9,2.9,6.8,7.3c-0.1,4.3-2.5,7-6.7,7c-4.8,0-7.4-2.8-7.1-7.6C66.4,41.8,69.4,40,73.2,39.5
	z"/>
<path class="st77" d="M157.7,97.9c7.6-1.5,4.8,4.5,5.6,8.1c1.4,5.6-2.6,4.5-5.7,4.8c-5.8,0.5-7.3-2.5-7.2-7.8
	C150.5,97.5,153.6,97.4,157.7,97.9z"/>
<path class="st77" d="M108.3,130.9c-0.1,4.5-2.1,7.4-6.4,7.6c-4.7,0.2-7.7-2.2-7.7-7.1c0-4.3,2.8-6.7,6.9-6.8
	C105.5,124.4,107.9,126.9,108.3,130.9z"/>
<path class="st77" d="M51.7,245.1c-0.5,4-3,6.5-7.1,6.4c-4.6-0.2-7.3-2.9-6.8-7.8c0.5-4.3,3.3-6.3,7.5-6
	C49.6,238,51.7,240.7,51.7,245.1z"/>
<path class="st77" d="M221.6,187.7c-0.4,4-2.3,6.9-6.5,7.2c-4.9,0.4-7.5-2.2-7.6-7c-0.1-4.3,2.5-6.7,6.7-6.8
	C218.5,181.1,220.8,183.6,221.6,187.7z"/>
<path class="st77" d="M44.3,124.4c4.1,0.3,7,2.3,7.4,6.5c0.4,4.1-1.5,7-6,7.4c-4.8,0.5-7.8-1.8-7.9-6.6
	C37.6,127.5,40.3,125.2,44.3,124.4z"/>
<path class="st77" d="M80,103.1c-0.3,4.3-2.3,7.1-6.7,7.1c-4.1,0-7.2-1.9-7.3-6.4c-0.2-4.7,2.5-7.6,7.2-7.6
	C77.7,96.1,79.5,99.3,80,103.1z"/>
<path class="st77" d="M51.7,75.1c-0.2,4.1-2.3,6.8-6.6,6.9c-4.2,0.2-7-2-7.3-6.3c-0.3-4.8,2.3-7.8,7-7.7
	C48.9,68,51.4,70.7,51.7,75.1z"/>
<path class="st77" d="M185.4,223.3c-3.9-0.3-6.2-2.8-6.1-7c0.1-4.1,2.3-6.9,6.8-6.8c4.9,0.1,7.5,2.9,7.1,7.6
	C192.9,221,190.2,223.5,185.4,223.3z"/>
<path class="st77" d="M23.6,216.2c-0.7,4.4-2.7,7.2-7.1,7.1c-4.9-0.1-7.4-3.1-7-7.7c0.3-4.1,3.1-6.6,7.4-6.2
	C21.1,209.8,23.2,212.5,23.6,216.2z"/>
<path class="st77" d="M80.1,161.9c0.1,1.8-2,4.3-6.3,4.7c-4.3,0.4-7.1-1.6-7.6-5.8c-0.5-4.7,1.9-7.6,6.7-7.9
	C77.3,152.6,79.6,155,80.1,161.9z"/>
<path class="st77" d="M136.6,217.2c-0.6,3.9-3.2,6.2-7.3,6.1c-4.2-0.1-6.7-2.6-6.5-6.9c0.1-4.8,2.7-7.4,7.6-6.9
	C134.7,210,136.6,212.7,136.6,217.2z"/>
<path class="st77" d="M72.6,223.3c-3.4,0-6.2-1.9-6.5-6.2c-0.3-4.7,2.2-7.5,7-7.6c4.3-0.1,6.7,2.4,6.7,6.7
	C79.9,220.5,77.8,223,72.6,223.3z"/>
<path class="st77" d="M108.2,243.3c0.2,5.1-2.1,7.8-6.1,8.2c-4.6,0.5-7.5-2.1-7.6-6.9c-0.1-4.2,2.4-6.7,6.6-6.9
	C105.3,237.6,107.8,239.8,108.2,243.3z"/>
<path class="st77" d="M51.1,46.8c0.7,6.2-2.5,7.5-7.6,7.8c-6,0.4-5.9-3.1-6.1-7.4c-0.2-5.3,2.2-6.5,7.1-6.5
	C49.2,40.8,52.4,41.4,51.1,46.8z"/>
<path class="st77" d="M101.4,181.2c4.2,0.3,6.8,2.5,6.8,6.7c0,4.7-2.7,7.3-7.5,7.1c-4.4-0.3-6.5-3-6.3-7.2
	C94.6,183.6,97.1,181.4,101.4,181.2z"/>
</svg>
